<?xml version="1.0" encoding="UTF-8"?>
<!DOCTYPE svg PUBLIC "-//W3C//DTD SVG 1.1//EN" "http://www.w3.org/Graphics/SVG/1.1/DTD/svg11.dtd">
<!-- Creator: CorelDRAW 2020 (64-Bit) -->
<svg xmlns="http://www.w3.org/2000/svg" xml:space="preserve" width="215.9mm" height="279.4mm" version="1.1" style="shape-rendering:geometricPrecision; text-rendering:geometricPrecision; image-rendering:optimizeQuality; fill-rule:evenodd; clip-rule:evenodd"
viewBox="0 0 21590 27940"
 xmlns:xlink="http://www.w3.org/1999/xlink"
 xmlns:xodm="http://www.corel.com/coreldraw/odm/2003">
 <defs>
  <style type="text/css">
   <![CDATA[
    .fil0 {fill:#A2662E}
   ]]>
  </style>
 </defs>
 <g id="Capa_x0020_1">
  <metadata id="CorelCorpID_0Corel-Layer"/>
  <path class="fil0" d="M-108070.82 218232.53l-2000.17 88.59c158.39,-151.49 344.17,-282.32 678.86,-402.31 380.38,-136.46 953.08,-258.75 1239.39,-319.86 286.31,-61.17 286.31,-61.17 216.43,145.79 -39.12,115.54 -99.92,295.61 -134.51,487.79zm12155.25 44403.41l733.14 -542.15 3275.62 -1094.72c48.02,53.13 91.35,98.02 125.87,133.72 134.06,138.77 134.06,138.77 -232.9,256.36 -366.9,117.59 -1100.79,352.86 -1561.81,585.66 -460.99,232.91 -649.19,463.41 -917.31,630.39 -268.14,167.02 -616.22,270.46 -851.43,333.94 -235.2,63.6 -357.48,87.06 -428.04,42.35 -56.41,-35.68 -79.64,-114.86 -143.14,-345.55zm-244.07 -848.35l-4 -13.68 246.71 -67.5 -242.71 81.18zm-2379.42 -1435.83c4.69,-242.27 47.03,-204.64 148.14,-72.96 101.17,131.76 261.13,357.57 439.87,689.18 178.79,331.64 376.32,769.1 491.52,1041.93 115.31,272.83 148.23,381.03 -30.55,315.16 -178.68,-65.81 -569.18,-305.79 -769.15,-449.23 -199.84,-143.46 -209.34,-190.5 -230.51,-475.11 -21.15,-284.61 -54.01,-806.71 -49.32,-1048.97zm-3805.78 -40358.35c0,311.75 -268.54,564.5 -599.73,564.5 -331.2,0 -599.78,-252.75 -599.78,-564.5 0,-311.74 268.58,-564.51 599.78,-564.51 331.19,0 599.73,252.77 599.73,564.51zm-7039.16 44587.15c-21.16,-397.53 58.87,-900.82 112.99,-1117.25 54.08,-216.33 82.25,-145.85 169.28,-28.24 87.07,117.59 232.83,282.3 355.21,395.2 122.3,112.91 221,174 282.21,232.79 61.18,58.82 84.64,115.3 70.55,498.63 -14.07,383.44 -65.85,1093.71 -87.02,1462.99 -21.17,369.35 -11.78,397.51 -112.9,263.44 -101.15,-134.06 -312.86,-430.36 -479.81,-724.46 -166.99,-294 -289.34,-585.6 -310.51,-983.1zm-11405.83 -10470.51c471.33,0 853.5,382.14 853.5,853.49 0,471.31 -382.17,853.47 -853.5,853.47 -471.31,0 -853.48,-382.16 -853.48,-853.47 0,-471.35 382.17,-853.49 853.48,-853.49zm25505.09 6801.6c742.31,-561.84 1481.1,-1150.69 2209.79,-1813.2 215.22,-195.58 430.28,-398.6 644.65,-607.94 -31.48,171.2 -53.96,336.33 -68.02,495.05 -38.05,430.62 -14.44,814.75 79.7,1141.51l-2866.12 784.58zm-15879.71 -35021.38c-4.78,-44.74 4.71,-91.82 190.47,-385.82 185.79,-294.01 548.05,-834.97 729.16,-1105.39 181.09,-270.54 181.09,-270.54 -11.81,-209.37 -192.82,61.11 -578.59,183.5 -816.08,237.61 -237.56,54.09 -327.01,39.92 -364.64,-7.09 -37.65,-47.02 -23.46,-126.98 44.7,-188.07 68.18,-61.22 190.58,-103.62 442.22,-190.59 251.66,-87.06 632.71,-218.82 870.31,-317.52 237.49,-98.82 331.6,-164.63 442.13,-286.92 110.52,-122.39 237.61,-301.09 301.06,-390.42 63.52,-89.47 63.52,-89.47 -129.36,-30.67 -192.87,58.83 -578.59,176.42 -827.88,218.73 -249.36,42.32 -362.24,9.47 -411.68,-49.3 -49.39,-58.82 -35.22,-143.56 47.13,-207.06 82.25,-63.48 232.79,-105.82 503.31,-171.61 270.44,-65.87 660.88,-155.3 874.92,-216.42 214.01,-61.17 251.65,-94.12 312.83,-192.85 61.12,-98.84 145.85,-263.44 223.5,-352.81 77.56,-89.33 148.1,-103.5 190.42,-77.55 42.31,25.83 56.47,91.62 21.23,206.92 -35.32,115.2 -120,279.82 -162.32,385.67 -42.3,105.82 -42.3,152.91 9.47,345.8 51.75,192.83 155.14,531.47 195.21,802.01 39.93,270.42 16.46,472.77 -25.87,573.9 -42.41,101.13 -103.53,101.13 -136.49,65.87 -32.92,-35.34 -37.63,-105.81 -98.71,-317.47 -61.2,-211.71 -178.81,-564.58 -237.57,-741 -58.82,-176.39 -58.82,-176.39 -148.15,-30.54 -89.45,145.85 -268.15,437.44 -357.52,597.48 -89.43,159.89 -89.43,188.05 -68.25,404.51 21.18,216.31 63.48,620.9 75.26,891.42 11.77,270.44 -7.08,406.82 -37.64,482.1 -30.53,75.26 -72.97,89.43 -101.12,70.66 -28.23,-18.88 -42.41,-70.66 -82.34,-263.53 -40.04,-192.86 -105.82,-526.8 -143.46,-696.13 -37.66,-169.37 -47.13,-174.06 -204.64,47.05 -157.62,221.01 -463.42,667.94 -665.63,910.2 -202.27,242.19 -301.09,279.84 -359.92,277.53 -58.77,-2.39 -77.54,-44.7 -82.25,-89.33zm-9553.18 35036.4c471.32,0 853.49,382.18 853.49,853.49 0,471.32 -382.17,853.5 -853.49,853.5 -471.3,0 -853.49,-382.18 -853.49,-853.5 0,-471.31 382.19,-853.49 853.49,-853.49zm1793.73 -37172.29c11.71,-166.98 25.86,-425.67 32.94,-555.04 7.01,-129.39 7.01,-129.39 -209.31,30.55 -216.42,159.94 -649.26,479.79 -898.55,653.86 -249.34,174 -315.15,202.28 -373.95,183.5 -58.8,-18.87 -110.61,-84.74 -2.38,-256.44 108.2,-171.71 376.33,-449.24 780.94,-766.71 404.51,-317.52 945.47,-675.09 1215.97,-853.79 270.46,-178.82 270.46,-178.82 117.62,-178.82 -152.92,0 -458.72,0 -764.48,44.76 -305.76,44.61 -611.53,134.06 -816.17,195.21 -204.66,61.14 -308.07,94.07 -373.98,65.91 -65.87,-28.25 -94.02,-117.69 -72.85,-195.28 21.15,-77.63 91.64,-143.46 305.68,-230.48 214.01,-87.04 571.57,-195.28 1023.23,-249.37 451.51,-54.1 997.27,-54.1 1265.4,-54.1 268.13,0 258.66,0 486.85,-103.42 228.1,-103.52 693.81,-310.54 926.68,-414 232.79,-103.51 232.79,-103.51 115.21,-126.97 -117.61,-23.56 -352.76,-70.56 -590.3,-94.06 -237.58,-23.53 -477.55,-23.53 -682.08,-32.92 -204.67,-9.49 -374.05,-28.26 -428.05,-79.98 -54.13,-51.78 6.97,-136.43 129.37,-185.76 122.28,-49.44 305.67,-63.61 594.97,-44.74 289.27,18.77 684.47,70.57 952.62,115.3 268.15,44.64 409.19,82.19 475.1,103.36 65.87,21.16 56.42,25.91 315.15,-58.72 258.75,-84.74 785.64,-258.74 1058.47,-352.81 272.84,-94.13 291.67,-108.28 44.69,-195.26 -246.98,-87.02 -759.76,-246.94 -1213.67,-350.4 -453.91,-103.52 -849.13,-150.6 -1046.69,-209.41 -197.54,-58.78 -197.54,-129.29 -171.71,-181.01 25.87,-51.78 77.69,-84.73 185.88,-89.43 108.11,-4.7 272.83,18.76 771.45,136.35 498.63,117.63 1331.22,329.35 1773.42,444.65 442.17,115.18 493.96,133.97 529.28,143.46 35.26,9.37 54.01,9.37 148.15,-21.17 94.02,-30.65 263.45,-91.74 383.43,-82.35 119.87,9.39 190.38,89.33 148.05,159.9 -42.31,70.6 -197.55,131.7 -275.13,162.32 -77.65,30.55 -77.65,30.55 -127.09,218.74 -49.39,188.16 -148.12,564.43 -333.88,1016.04 -185.88,451.63 -458.72,978.41 -644.5,1272.51 -185.85,293.96 -284.61,355.08 -336.3,376.23 -51.81,21.17 -56.5,2.41 -58.81,-32.86 -2.4,-35.3 -2.4,-87.12 122.29,-334 124.6,-246.96 373.98,-689.2 540.96,-1056.05 166.92,-366.98 251.69,-658.6 291.68,-858.53 39.97,-199.94 35.27,-308.09 32.96,-362.16 -2.38,-54.11 -2.38,-54.11 -190.57,21.13 -188.17,75.28 -564.49,225.83 -752.68,301.09 -188.16,75.28 -188.16,75.28 -244.58,258.74 -56.52,183.4 -169.32,550.36 -343.33,945.47 -174.08,395.12 -409.35,818.49 -564.59,1023.14 -155.24,204.63 -230.53,190.47 -272.84,155.24 -42.31,-35.34 -51.72,-91.76 23.56,-275.22 75.28,-183.49 235.19,-493.95 366.97,-830.27 131.67,-336.33 235.07,-698.61 286.88,-879.7 51.72,-181.05 51.72,-181.05 -214.02,-56.37 -265.84,124.67 -797.3,373.94 -1063.04,498.63 -265.85,124.68 -265.85,124.68 -303.51,326.94 -37.63,202.22 -112.88,606.83 -218.7,985.47 -105.9,378.68 -242.27,731.45 -373.98,987.8 -131.73,256.35 -258.79,416.39 -364.65,486.95 -105.82,70.49 -190.46,51.72 -239.89,9.38 -49.39,-42.39 -63.47,-108.2 -70.55,-155.22 -7.08,-47.11 -7.08,-75.27 61.18,-197.55 68.19,-122.39 204.56,-338.72 310.48,-562.14 105.79,-223.5 181.09,-454.02 232.86,-689.2 51.75,-235.18 79.9,-475.07 94.08,-594.99 14.05,-120 14.05,-120 -174.11,7.03 -188.19,126.98 -564.42,381.02 -759.63,512.7 -195.21,131.68 -209.41,141.15 -214.1,258.76 -4.7,117.59 0,343.38 -32.95,557.42 -32.93,214.03 -103.41,416.29 -169.32,498.64 -65.86,82.24 -126.97,44.63 -152.83,-11.78 -25.93,-56.48 -16.45,-131.68 -4.7,-298.7zm19861.91 -3140.57c-104.91,-49.65 -210.14,-98.62 -315.43,-147.26 44.71,-35.44 87.57,-73.85 127.83,-115.76 119.74,-124.47 217.2,-279.4 287.69,-444.84 1249.46,458.93 2517.68,965.84 3886.34,1731.76 848.43,474.75 1735.44,1048.73 2599.5,1681.61 848.11,621.1 1675.23,1299.57 2423.22,1996.93 754.22,703.13 1427.91,1425.42 2044.64,2191.02 618.12,767.26 1179.65,1578.07 1708.04,2456.66 520.09,864.48 1010.09,1797.65 1440.65,2723.92 287.92,619.63 548.45,1233.72 772.79,1820.02 -492.64,274.1 -825.96,799.98 -825.96,1403.67 0,886.58 718.72,1605.31 1605.31,1605.31 36.95,0 73.53,-1.45 109.89,-3.86 14.44,70.57 28.28,140.46 41.49,209.77 131.84,688.32 209.66,1311.67 272.24,1893.92 63.15,586.55 110.99,1129.9 127.57,1689.89 16.74,564.09 2.92,1152 -57,1827.62 -60.59,683.61 -168.72,1460.13 -310.98,2249.09 -139.19,772.08 -313.04,1560.76 -508.82,2290.25 -185.93,693.22 -389.11,1321.7 -600.78,1887.5 -234.94,628.11 -482.98,1187.08 -731.59,1676.92 -266.42,525.02 -533.2,969.47 -800.33,1378.76 -20.38,-21.95 -42.64,-42.57 -66.96,-61.55 -192.9,-150.53 -512.81,-197.53 -1025.52,112.91 -512.74,310.46 -1218.31,978.4 -1693.39,1364.15 -80.14,65.13 -153.69,122.12 -221.98,172.29 174,-245.15 343.93,-493.76 509.04,-746.19 467.67,-714.87 898.89,-1464.35 1275.33,-2257.98 359.35,-757.65 667.59,-1554.81 926.86,-2361.18 49.33,-153.43 96.85,-307.14 142.59,-460.83 99.97,19.49 203.1,29.77 308.78,29.77 886.58,0 1605.3,-718.71 1605.3,-1605.27 0,-751.17 -515.87,-1381.66 -1212.66,-1556.86 72.72,-481.31 127.58,-956.16 164.36,-1427.38 61.34,-786.05 71.94,-1564.26 31.14,-2348.44 -40.59,-783.82 -132.51,-1568.1 -271.64,-2372.65 -138.83,-802.81 -325.55,-1630 -556.33,-2500.7 -243.61,-919.55 -538.04,-1890.69 -879.21,-2842.83 -300.08,-837.33 -636.05,-1657.43 -1004.75,-2410.37 -395.58,-808.16 -826.41,-1535.35 -1261.28,-2192.11 -432.6,-653.46 -873.29,-1242.8 -1288.28,-1774.63 -221.82,-284.27 -436.62,-552.4 -654.55,-811.5 41.02,-141.91 63.16,-291.86 63.16,-447 0,-886.58 -718.74,-1605.31 -1605.33,-1605.31 -149.94,0 -295.02,20.67 -432.66,59.06l-56.57 -48.12c-567.93,-481.32 -1236.84,-993.45 -1940.12,-1487.03 -689.02,-483.65 -1413.62,-951.3 -2111.28,-1356.55 -703.88,-409.06 -1379.33,-753.99 -2040.36,-1066.6zm8136.12 38510.01c9.39,-242.22 14.08,-670.27 143.46,-1187.77 129.37,-517.4 383.35,-1124.17 559.74,-1446.4 176.47,-322.26 275.24,-359.87 357.55,-322.26 82.39,37.65 148.17,150.47 176.42,256.3 28.27,105.9 18.79,204.63 -82.34,512.72 -101.15,308.13 -293.99,825.65 -409.28,1199.62 -115.21,373.92 -152.87,604.42 -155.24,731.4 -2.3,127.08 30.61,150.55 91.72,145.85 61.21,-4.7 150.63,-37.61 322.25,-129.37 171.73,-91.74 425.74,-242.18 512.71,-402.12 87.04,-159.92 7.11,-329.31 82.35,-769.14 75.3,-439.75 305.78,-1150.14 472.8,-1458.27 166.99,-308.08 270.45,-213.97 305.68,-98.77 35.3,115.24 2.46,251.7 -51.64,496.27 -54.1,244.57 -129.37,597.44 -174.11,874.97 -44.62,277.52 -58.77,479.81 -49.38,583.21 9.44,103.52 42.3,108.29 141.06,61.21 98.84,-47.03 263.51,-145.79 472.88,-282.22 209.31,-136.4 463.28,-310.46 597.35,-458.62 134.08,-148.16 148.22,-270.54 155.23,-588.07 7.08,-317.46 7.08,-830.27 108.22,-1305.36 101.12,-475.06 303.45,-912.52 477.45,-1112.47 174.12,-199.88 319.87,-162.33 392.72,-103.52 73,58.8 73,138.86 -16.43,421.08 -89.36,282.2 -268.07,766.75 -357.5,1143 -89.33,376.37 -89.33,644.5 -79.96,785.58 9.45,141.15 28.24,155.3 54.08,164.67 25.97,9.39 58.84,14.09 214.08,-129.37 155.19,-143.46 432.79,-435.12 578.57,-611.53 145.84,-176.39 160.02,-237.51 138.83,-463.31 -21.14,-225.79 -77.62,-616.21 -61.16,-787.95 16.47,-171.69 105.9,-124.67 152.9,-35.3 47.03,89.43 51.73,221.11 68.2,359.87 16.49,138.83 44.64,284.61 77.59,362.16 32.92,77.65 70.57,87.13 112.9,80.06 42.3,-7.06 89.43,-30.56 296.36,-228.21 207.05,-197.53 573.9,-569.12 795.01,-733.8 221.15,-164.63 296.32,-122.32 317.48,-32.95 21.17,89.41 -11.68,225.79 -366.86,623.31 -355.18,397.5 -1032.54,1056.06 -1378.33,1401.78 -345.71,345.78 -359.85,378.74 -115.29,312.87 244.67,-65.79 747.99,-230.52 1089.02,-348.11 341.1,-117.59 519.79,-188.16 632.68,-155.24 112.92,32.95 160.04,169.31 -47.01,322.16 -206.93,152.93 -667.94,322.32 -1070.15,428.15 -402.19,105.83 -745.59,148.15 -980.77,202.24 -235.23,54.13 -362.3,119.92 -621.02,270.44 -258.68,150.55 -649.1,385.83 -860.82,524.59 -211.66,138.74 -244.62,181.09 -192.9,218.74 51.82,37.61 188.2,70.47 529.21,63.4 341.1,-7.02 886.76,-54.03 1159.59,-49.33 272.84,4.7 272.84,61.17 223.4,124.69 -49.32,63.46 -148.15,134.07 -355.09,188.14 -206.93,54.13 -522.2,91.74 -896.14,96.43 -373.95,4.72 -806.8,-23.52 -1051.38,-28.21 -244.57,-4.7 -301.09,14.06 -350.49,35.24 -49.3,21.23 -91.76,44.69 -286.98,166.98 -195.19,122.38 -543.26,343.43 -693.83,463.31 -150.53,119.98 -103.4,138.87 138.77,181.19 242.28,42.31 679.83,108.12 1131.35,138.69 451.59,30.6 917.31,25.93 1131.32,89.43 214.07,63.5 176.41,195.24 96.44,282.2 -79.95,87.04 -202.22,129.39 -595.06,87.04 -392.72,-42.31 -1056.06,-169.31 -1580.55,-253.96 -524.49,-84.64 -910.25,-127.08 -1161.91,-124.78 -251.67,2.39 -369.24,49.5 -458.67,51.82 -89.38,2.39 -150.46,-39.94 -176.41,-96.45 -25.88,-56.38 -16.39,-126.98 44.73,-188.16 61.17,-61.11 174.07,-112.89 237.57,-167.02 63.48,-54.03 77.65,-110.48 87.03,-352.77zm-4871.06 -2702.36c-105.82,-211.62 -261.06,-460.99 -308.08,-646.77 -47.01,-185.81 14.06,-308.1 84.68,-341.03 70.53,-32.94 150.53,23.54 268.12,204.65 117.6,181.07 272.84,486.85 371.56,583.27 98.82,96.46 141.15,-16.44 223.44,-209.33 82.35,-192.87 204.71,-465.7 247.01,-653.85 42.33,-188.2 4.7,-291.6 -79.93,-529.19 -84.65,-237.58 -216.42,-609.16 -235.28,-820.87 -18.78,-211.66 75.34,-263.44 138.84,-256.36 63.49,7.09 96.44,72.86 171.7,275.12 75.28,202.33 192.87,540.99 268.14,712.68 75.28,171.68 108.13,176.46 237.5,-35.24 129.37,-211.66 355.17,-639.79 505.73,-884.4 150.54,-244.57 225.78,-305.74 286.9,-301.05 61.21,4.76 108.18,75.25 126.97,141.15 18.88,65.87 9.49,126.99 -148.16,432.73 -157.53,305.79 -463.28,856.24 -587.97,1133.75 -124.69,277.52 -68.16,282.22 174,192.79 242.27,-89.37 670.43,-272.77 903.26,-319.85 232.9,-47.05 270.51,42.38 258.73,98.8 -11.78,56.44 -72.87,79.96 -338.71,209.27 -265.75,129.37 -736.22,364.65 -1018.43,519.89 -282.21,155.2 -376.36,230.5 -479.89,385.72 -103.4,155.24 -216.31,390.44 -235.18,512.7 -18.77,122.29 56.48,131.68 258.75,54.03 202.35,-77.59 531.59,-242.2 710.37,-284.51 178.77,-42.34 206.95,37.61 166.92,103.42 -39.93,65.89 -148.13,117.67 -406.89,254.05 -258.74,136.45 -667.96,357.5 -914.93,602.07 -246.98,244.67 -331.61,512.81 -409.31,656.27 -77.54,143.46 -148.12,162.32 -197.52,143.46 -49.43,-18.79 -77.59,-75.27 -44.74,-310.48 32.95,-235.18 127.06,-649.06 145.86,-943.17 18.86,-294 -37.66,-468.01 -143.46,-679.72zm-3231.12 7211.14c202.35,-409.27 235.27,-785.54 268.23,-964.3 32.95,-178.8 65.82,-159.93 237.48,37.61 171.73,197.57 482.27,573.92 649.27,891.47 167.02,317.52 190.5,576.18 126.99,921.91 -63.48,345.78 -214.02,778.64 -493.92,1249 -279.94,470.4 -689.12,978.51 -1100.82,1406.6 -411.6,428.05 -825.57,776.14 -1063.16,943.16 -237.46,167 -298.67,152.83 -301.05,103.4 -2.32,-49.29 54.19,-134.06 155.3,-418.64 101.11,-284.61 246.89,-769.09 326.86,-1237.16 79.94,-468.11 94.1,-919.64 105.81,-1161.91 11.79,-242.28 21.27,-275.23 44.73,-319.93 23.57,-44.62 61.18,-101.11 265.83,-350.5 204.64,-249.27 576.18,-691.43 778.45,-1100.71zm-1044.54 131.86c-141.09,235.2 -155.22,211.71 -221.12,-206.92 -65.78,-418.68 -183.47,-1232.47 -463.37,-2011.04 -279.85,-778.45 -722.07,-1521.68 -1220.69,-1921.57 -498.58,-399.83 -1053.69,-456.23 -1594.65,-439.83 -540.96,16.47 -1067.84,105.9 -1296.07,96.41 -228.1,-9.39 -157.53,-117.49 235.27,-331.55 392.83,-214.01 1107.8,-533.96 1865.2,-571.57 757.39,-37.65 1557,207.02 2130.92,550.35 573.9,343.38 921.98,785.62 1091.31,1404.15 169.4,618.63 160.02,1413.56 21.23,2058.05 -138.75,644.46 -406.89,1138.34 -548.03,1373.52zm-893.59 1794.42c145.84,-190.46 188.15,-143.36 157.55,209.41 -30.55,352.83 -134.01,1011.36 -310.38,1519.39 -176.4,508.05 -425.76,865.61 -769.15,1194.86 -343.32,329.31 -780.88,630.39 -1321.84,787.92 -540.97,157.61 -1185.45,171.78 -1775.82,11.76 -590.36,-159.89 -1126.63,-493.84 -1519.44,-936.07 -392.73,-442.12 -642.11,-992.56 -795.01,-1533.54 -152.85,-540.97 -209.3,-1072.54 -204.59,-1291.34 4.7,-218.76 70.51,-124.61 221.04,148.22 150.54,272.83 385.83,724.46 797.42,1051.36 411.59,326.94 999.62,529.28 1524.12,632.74 524.5,103.5 985.53,108.2 1533.57,-32.97 548.04,-141.04 1183.04,-428.05 1625.19,-785.52 442.2,-357.5 691.59,-785.63 837.34,-976.22zm-2580.41 -2380.02c72.88,-411.59 87.08,-891.42 -9.36,-1373.62 -96.46,-482.16 -303.48,-966.63 -618.66,-1300.65 -315.15,-334 -738.49,-517.4 -950.23,-623.29 -211.62,-105.85 -211.62,-134.01 25.84,-157.55 237.59,-23.46 712.78,-42.33 1216.11,91.74 503.32,134.07 1034.88,421.07 1342.95,846.75 308.21,425.72 392.83,990.16 326.97,1528.76 -65.91,538.63 -282.23,1051.38 -559.83,1394.75 -277.52,343.4 -616.17,517.45 -811.4,604.49 -195.18,87.02 -246.97,87.02 -207.02,-84.68 39.99,-171.69 171.76,-515.11 244.63,-926.7zm-717.35 -356.35c0,-208.18 -91.65,-417.51 -162.21,-551.57 -70.59,-134.07 -119.99,-192.87 -94.14,-204.63 25.84,-11.77 127.04,23.54 252.85,111.71 125.89,88.24 276.43,229.29 348.09,431.56 71.77,202.32 64.78,465.78 7.09,658.65 -57.61,192.85 -165.83,315.14 -326.94,401.01 -161.11,85.84 -375.15,135.26 -504.52,161.13 -129.37,25.83 -174,28.21 -110.48,-40.04 63.45,-68.2 235.15,-206.96 366.83,-379.84 131.78,-172.81 223.43,-379.87 223.43,-587.98zm-1693.47 -1021.97c98.84,-298.66 381.12,-562.1 729.23,-635.09 348.09,-72.85 761.99,44.74 992.51,131.76 230.49,87.06 277.59,143.46 136.43,197.59 -141.15,54.08 -470.37,105.9 -715.03,232.89 -244.62,126.98 -404.5,329.3 -522.13,519.79 -117.6,190.48 -192.85,369.24 -239.99,562.03 -47,192.89 -65.76,399.91 -112.88,395.22 -47,-4.7 -122.32,-221.11 -202.24,-496.33 -79.99,-275.14 -164.62,-609.08 -65.9,-907.86zm1192.71 3828.93c369.25,-49.31 787.95,-185.79 1192.43,-399.81 404.62,-214.05 795.02,-505.64 1112.5,-903.17 317.52,-397.5 562.19,-900.91 637.48,-1477.2 75.25,-576.2 -18.87,-1225.3 -54.13,-1533.46 -35.25,-308.07 -11.74,-275.21 178.7,-51.81 190.58,223.53 548.17,637.47 752.7,1319.61 204.65,682.11 256.44,1632.26 -49.31,2347.35 -305.76,715.03 -969.11,1194.84 -1521.88,1434.69 -552.73,239.98 -994.88,239.98 -1462.96,174.11 -468.07,-65.89 -961.94,-197.57 -1293.64,-336.39 -331.66,-138.77 -500.97,-284.55 -611.56,-390.46 -110.51,-105.81 -162.29,-171.62 -134.07,-199.84 28.25,-28.26 136.47,-18.86 350.52,4.6 214,23.56 533.94,61.17 903.22,11.78zm-2596.87 -2942.14c72.96,-343.44 237.7,-583.39 470.48,-802.11 232.88,-218.75 533.87,-416.27 677.31,-493.94 143.56,-77.57 129.37,-35.25 51.73,136.43 -77.59,171.72 -218.64,472.81 -286.9,792.66 -68.2,319.93 -63.5,658.55 47.03,987.78 110.58,329.34 326.9,649.26 649.16,945.55 322.22,296.39 750.39,569.22 990.28,707.98 239.87,138.77 291.69,143.46 171.71,174.03 -119.99,30.55 -411.6,87.02 -750.33,79.94 -338.71,-7.09 -724.43,-77.55 -1074.89,-303.38 -350.42,-225.8 -665.66,-606.75 -832.66,-1020.73 -166.93,-413.98 -185.81,-860.84 -112.92,-1204.21zm-1098.38 -190.59c-80,-444.5 -80,-1004.25 117.6,-1437.1 197.55,-432.76 592.74,-738.45 990.18,-884.3 397.52,-145.84 797.41,-131.68 1185.44,-51.68 388.13,79.94 764.45,225.69 950.24,319.76 185.84,94.12 181.08,136.43 138.77,162.3 -42.33,25.85 -122.29,35.34 -428.05,56.52 -305.82,21.15 -837.29,54.07 -1284.2,253.94 -446.91,199.94 -809.11,566.93 -974.4,1030.21 -165.3,463.31 -133.72,1023.16 -150.11,1314.75 -16.46,291.68 -81.07,315.14 -193.29,162.33 -112.21,-152.87 -272.24,-482.18 -352.18,-926.73zm-5953.16 -6383.44c338.7,138.77 907.85,369.27 1234.75,489.15 326.92,120 411.66,129.49 461.1,131.78 49.32,2.4 63.47,-2.39 21.14,-51.78 -42.41,-49.34 -141.12,-143.46 -197.57,-214.07 -56.46,-70.48 -70.64,-117.59 -312.81,-388.11 -242.32,-270.44 -712.77,-764.28 -1074.94,-1124.17 -362.26,-359.86 -616.23,-585.66 -670.33,-717.44 -54.13,-131.68 91.74,-169.31 265.82,-126.98 174,42.31 376.37,164.69 825.57,557.42 449.19,392.84 1145.41,1056.15 1517.06,1397.18 371.56,341.03 418.68,359.87 404.6,181.09 -14.18,-178.8 -89.42,-555.03 -211.74,-919.62 -122.28,-364.57 -291.68,-717.44 -338.72,-898.55 -47,-181.09 28.27,-190.54 110.61,-131.76 82.29,58.83 171.69,185.89 284.59,437.57 112.85,251.63 249.29,627.98 355.12,1023.1 105.81,395.21 181.06,809.09 355.18,1272.41 174.03,463.41 446.85,976.21 609.16,1234.88 162.31,258.74 214.03,263.49 204.62,-136.38 -9.39,-399.81 -79.97,-1204.21 -138.75,-1860.48 -58.8,-656.18 -105.91,-1164.29 -70.58,-1366.53 35.24,-202.27 152.93,-98.85 256.44,312.77 103.45,411.65 192.88,1131.32 228.14,1801.65 35.23,670.35 16.46,1291.35 16.46,1632.4 0,341.07 18.77,402.2 84.62,538.56 65.92,136.47 178.74,348.17 254,416.38 75.28,68.16 112.91,-7.08 232.9,-324.65 119.91,-317.52 322.22,-877.27 439.82,-1239.53 117.58,-362.2 150.54,-526.81 199.96,-557.38 49.4,-30.55 115.19,72.89 148.15,239.91 32.94,166.99 32.94,397.51 -96.46,785.54 -129.37,388.13 -388.03,933.79 -517.41,1211.32 -129.37,277.5 -129.37,286.99 -101.1,395.09 28.15,108.22 84.63,315.28 103.51,454 18.78,138.76 -0.09,209.35 -35.33,247 -35.22,37.61 -87.07,42.31 -120,2.31 -32.92,-39.96 -47.01,-124.6 -94.03,-183.4 -47.1,-58.82 -127.09,-91.74 -265.85,-96.44 -138.75,-4.69 -336.29,18.79 -700.87,-2.38 -364.58,-21.18 -896.14,-86.99 -1284.18,-181.11 -388.13,-94.03 -632.78,-216.4 -766.86,-317.53 -134.07,-101.15 -157.54,-181.09 -79.88,-190.48 77.59,-9.38 256.27,51.72 524.4,105.81 268.14,54.12 625.73,101.13 976.21,136.37 350.39,35.34 693.81,58.83 891.35,63.5 197.57,4.8 249.35,-9.37 275.22,-16.48 25.86,-6.98 25.86,-6.98 -42.3,-103.42 -68.31,-96.45 -204.68,-289.28 -348.14,-435.13 -143.53,-145.85 -293.98,-244.59 -675.03,-371.65 -381.02,-126.99 -992.55,-282.23 -1406.54,-416.29 -413.98,-134.07 -630.32,-247 -740.84,-352.81 -110.56,-105.81 -115.35,-204.63 -75.31,-265.83 39.92,-61.09 124.65,-84.55 225.76,-72.87 101.13,11.78 218.75,58.78 536.26,148.16 317.57,89.43 834.98,221.09 1107.91,293.98 272.82,72.97 300.99,87.14 322.16,94.15 21.12,7.06 35.3,7.06 -110.55,-223.44 -145.85,-230.5 -451.59,-691.49 -689.09,-940.86 -237.59,-249.28 -406.98,-286.9 -785.64,-399.83 -378.64,-112.91 -966.69,-301.05 -1375.92,-475.17 -409.26,-174.01 -639.78,-333.92 -726.81,-453.92 -87.04,-119.9 -30.55,-199.94 51.79,-216.41 82.28,-16.48 190.48,30.66 529.2,169.4zm774.76 7067.55c154.26,46.64 310.8,92.14 465.46,136.77 634.98,183.5 1237.06,352.87 1740.47,578.61 170.27,76.36 329.27,159.23 470.15,260.36 -646.2,-30.37 -1314.48,-85.23 -2052.24,-217.61 -492.13,-88.34 -1026.52,-214.1 -1567.59,-359.97 -483.45,-130.37 -964.05,-274.68 -1419.54,-421.46l2363.29 23.3zm-13563.85 -12615.78c742.95,-227.5 1282.9,-914.25 1282.9,-1726.15 0,-997.61 -815.08,-1806.31 -1820.46,-1806.31 -220.08,0 -431.11,38.75 -626.45,109.75 -138.71,-497 -266.01,-991.98 -378.39,-1467.65 -200.12,-846.9 -351.18,-1626.57 -442.35,-2426.67 -91.47,-802.97 -123.89,-1629.64 -87.04,-2568.96 38.84,-987.46 154.55,-2104.38 355.11,-3264.55 181.93,-1051.98 433.67,-2136.29 761.04,-3187.07 178.18,-572.13 378.93,-1134.37 597.49,-1680.42 97.76,18.58 198.66,28.47 301.84,28.47 886.59,0 1605.31,-718.69 1605.31,-1605.26 0,-486.11 -216.11,-921.77 -557.45,-1216.09 277.08,-480.21 564.54,-931.32 857.49,-1346.67 717.11,-1016.7 1472.01,-1823.01 2239.9,-2556.66 96.86,61.37 219.64,105.05 371.73,130.66 418.68,70.47 1058.38,4.7 1641.74,-183.5 583.29,-188.15 1110.09,-498.61 1392.4,-634.99 282.21,-136.45 319.76,-98.9 324.46,126.88 4.7,225.81 -23.48,639.79 244.68,870.31 268.12,230.51 832.56,277.53 1462.94,0 630.33,-277.52 1326.54,-879.7 1731.12,-1227.77 404.52,-348.11 517.43,-442.14 653.88,-493.88 136.38,-51.78 296.3,-61.25 465.69,28.16 169.3,89.37 348,277.52 682.01,150.56 334.05,-126.98 823.16,-569.22 1256.02,-1152.53 432.77,-583.27 809.01,-1307.63 1086.61,-2036.79 221.45,-581.74 379.95,-1166.56 480.38,-1565.52 727.44,-150.9 1478.92,-282.58 2333.25,-331.71 461.68,-26.57 954.2,-29.95 1464.86,-19.62 -20.46,39.32 -62.9,92.67 -129.56,176.37 -183.36,230.52 -550.36,691.41 -780.84,964.24 -230.49,272.83 -324.54,357.6 -409.2,414.08 -84.73,56.42 -160.02,84.58 -588.09,253.96 -428.03,169.31 -1208.9,479.79 -1843.89,884.38 -635.11,404.51 -1124.28,903.13 -1373.55,1312.43 -249.34,409.19 -258.84,729.12 -113,917.29 145.85,188.1 446.86,244.6 597.41,272.83 150.52,28.16 150.52,28.16 14.17,324.57 -136.49,296.3 -409.31,889.04 -348.14,1453.58 61.13,564.43 456.33,1100.6 893.75,1147.74 437.47,46.98 917.33,-395.22 1157.21,-616.27 239.9,-221.11 239.9,-221.11 456.34,-230.48 216.3,-9.39 649.17,-28.26 1006.64,-296.31 357.49,-268.13 639.78,-785.61 780.93,-1044.28 141.05,-258.74 141.05,-258.74 282.2,-230.52 141.08,28.16 423.39,84.68 644.42,18.77 221.11,-65.87 381.06,-254.05 451.6,-559.79 70.61,-305.78 51.74,-729.06 -112.89,-1274.72 -164.64,-545.66 -475.15,-1213.7 -630.39,-1547.65 -155.24,-334 -155.24,-334 84.62,-625.59 239.98,-291.72 719.79,-875.01 969.05,-1166.6 249.34,-291.68 268.21,-291.68 456.3,-230.51 188.17,61.12 545.73,183.4 724.44,244.58 178.8,61.11 178.8,61.11 -61.08,249.3 -239.91,188.16 -719.77,564.43 -950.25,950.17 -230.49,385.72 -211.67,780.94 -23.59,1185.53 188.2,404.5 545.77,818.39 922.01,978.4 376.34,159.92 771.55,65.79 1171.36,-254.04 399.81,-319.86 804.4,-865.61 1006.69,-1138.44 202.23,-272.83 202.23,-272.83 277.52,-108.12 75.24,164.63 225.8,493.84 559.73,856.1 334,362.2 851.5,757.42 1373.63,846.75 522.2,89.37 1048.98,-126.99 1298.24,-409.19 249.36,-282.32 221.21,-630.39 18.88,-1025.53 -202.26,-395.11 -578.62,-837.35 -766.77,-1058.38 -188.2,-221.11 -188.2,-221.11 84.64,-272.83 86.87,-16.48 201.48,-38.21 328.54,-72.02 253.74,113.91 511.01,231.8 774.06,356.21 646.62,305.75 1307.32,643.19 1995.63,1043.18 680.58,395.38 1390.03,853.4 2066.58,1328.21 635.6,446.14 1240.94,906.31 1764.82,1342.46 -362.95,294.36 -594.99,743.74 -594.99,1247.41 0,886.59 718.71,1605.32 1605.31,1605.32 498.98,0 944.73,-227.6 1239.13,-584.66 159.78,194.58 320,395.97 484.81,607.19 403.41,516.88 833.24,1092.09 1260.11,1736.91 424.75,641.5 843.34,1347.18 1223.58,2124.02 358.26,731.76 685.73,1531.11 978.77,2349.1 332.23,927.04 621.52,1882.48 862.89,2793.49 225.42,850.74 408.15,1660.78 544.54,2448.98 135.91,786.56 225.55,1547.67 264.64,2302.01 39.15,753.87 28.56,1507.15 -31.15,2273.14 -36.95,473.46 -92.94,951.54 -167.78,1437.38 -787.08,103.08 -1394.8,776.34 -1394.8,1591.59 0,566.63 293.66,1064.75 737.08,1350.37 -49.51,167.86 -101.05,335.5 -154.71,502.5 -251.01,780.34 -549.66,1552.74 -898.54,2288.27 -362,763.2 -780,1489.02 -1235.37,2185.1 -339.63,519.31 -699.2,1020.84 -1071.29,1508.11 -176.11,27.22 -352.68,51.04 -514.14,95.92 -254.07,70.6 -470.38,192.89 -766.76,620.96 -296.4,428.05 -672.66,1161.86 -931.4,1829.81 -14.16,36.55 -28.01,72.99 -41.39,109.09 -451.69,476.37 -914.94,932.14 -1386.68,1360.9 -956.14,869.18 -1935.39,1613.42 -2918.11,2338.38 -89.69,-299.65 -84.29,-309.53 58.22,-567.43 148.25,-268.13 444.55,-804.4 719.76,-1124.33 275.2,-319.86 529.19,-423.32 926.71,-590.3 397.5,-167.02 938.53,-397.5 1495.96,-879.7 557.45,-482.14 1131.26,-1215.99 1408.78,-1766.35 277.53,-550.33 258.74,-917.29 141.15,-1114.84 -117.58,-197.57 -334,-225.83 -489.24,-192.87 -155.21,32.93 -249.27,126.96 -239.86,-155.24 9.35,-282.22 122.28,-940.88 98.71,-1472.45 -23.46,-531.47 -183.39,-936.07 -508.01,-1128.93 -324.54,-192.87 -813.78,-174 -1147.83,-28.25 -333.95,145.84 -512.71,418.73 -686.8,597.44 -173.99,178.8 -343.3,263.43 -540.98,329.26 -197.54,65.85 -423.29,112.99 -653.76,371.64 -230.49,258.74 -465.77,729.21 -616.32,1030.2 -150.53,301.09 -216.34,432.87 -277.52,432.87 -61.12,0 -117.58,-131.78 -197.58,-244.67 -79.95,-112.92 -183.38,-206.96 -315.16,-117.59 -131.69,89.33 -291.66,362.26 -404.57,686.81 -112.9,324.61 -178.7,700.86 -65.79,1190.12 112.88,489.24 404.48,1091.32 620.9,1524.09 216.44,432.8 357.5,696.16 357.5,1030.2 0,334 -141.06,738.53 -211.65,940.76 -70.56,202.34 -70.56,202.34 -404.6,-202.23 -333.91,-404.53 -1001.93,-1213.62 -1881.64,-1834.54 -879.56,-620.93 -1970.96,-1053.77 -3038.81,-1246.64 -1067.76,-192.85 -2112.09,-145.77 -2911.8,117.61 -799.71,263.41 -1354.75,743.3 -1627.63,978.48 -272.83,235.18 -263.38,225.73 -296.31,37.53 -32.94,-188.07 -108.22,-555.03 -245.45,-903.12 -137.11,-348.11 -336.13,-677.32 -599.6,-804.4 -263.44,-127 -591.22,-51.72 -755.06,-14.07 -163.94,37.61 -163.94,37.61 -286.23,-319.97 -122.3,-357.47 -366.97,-1072.44 -764.48,-1648.74 -397.52,-576.19 -947.85,-1013.57 -1418.23,-1260.55 -470.5,-246.96 -860.93,-303.38 -1093.71,-152.93 -232.89,150.54 -308.18,508.11 -345.79,686.81 -37.64,178.8 -37.64,178.8 -505.65,-221.11 -468.06,-399.79 -1404.24,-1199.42 -2112.21,-1620.48 -707.96,-420.99 -1187.74,-463.34 -1448.79,-214.03 -261.13,249.33 -303.48,790.29 -232.89,1382.98 70.56,592.78 253.97,1237.16 345.68,1559.42 91.74,322.23 91.74,322.23 -79.93,381.03 -171.73,58.78 -515.12,176.41 -632.73,460.98 -117.58,284.62 -9.39,736.15 357.58,1260.63 366.86,524.51 992.59,1121.99 1305.45,1420.67 312.77,298.66 312.77,298.66 296.29,340.99 -16.47,42.34 -49.43,127.08 -65.9,343.43 -16.44,216.41 -16.44,564.51 145.84,976.08 162.35,411.59 486.89,886.7 649.19,1124.17 162.32,237.59 162.32,237.59 -86.96,37.65 -249.34,-199.87 -748.02,-599.74 -1371.32,-1157.19 -623.3,-557.34 -1371.23,-1272.4 -1910.42,-1884.21 -539.16,-611.69 -869.51,-1120.24 -1067.05,-1404.87 -58.81,-84.71 -105.9,-149.66 -144.83,-199.06 118.12,-241.36 184.49,-512.66 184.49,-799.46 0,-1005.89 -815.49,-1821.39 -1821.38,-1821.39 -1005.88,0 -1821.4,815.5 -1821.4,1821.39 0,1005.87 815.52,1821.37 1821.4,1821.37 126.63,0 250.22,-12.89 369.51,-37.55 86.99,82.63 194.69,190.48 325.4,333.84 413.89,454.04 1059.56,1263.64 1862.21,2049.51 802.62,785.89 1762.25,1547.98 2242.11,2008.97 138.15,132.71 236.38,240.41 307.89,331.79l-125.9 -40.67c-735.83,-241.09 -1458.4,-528.45 -2153.31,-907.92 -696.55,-380.29 -1373.62,-857.44 -2025.04,-1383.53 -654.8,-528.87 -1283.18,-1107.1 -1879.25,-1687.01 -570.76,-554.93 -1113.43,-1113.23 -1619.75,-1658.89 -555.29,-598.57 -1060.39,-1174.34 -1506.03,-1709.17 -429.03,-514.66 -807.67,-996.24 -1154.9,-1523.47 -344.34,-522.8 -662.01,-1097.71 -973.72,-1806.97 -27.22,-61.95 -54.46,-124.95 -81.59,-188.77zm-5221.15 -11132.97c737.95,-144.72 1294.6,-794.93 1294.6,-1575.17 0,-605.08 -334.84,-1131.86 -829.24,-1405.48 138.61,-610.08 308.25,-1261.49 514.1,-1926.45 222.56,-719.07 488.54,-1454.77 804.47,-2171.41 345.3,-783.35 748.76,-1539.77 1215.4,-2283.26 469.21,-747.64 1003.27,-1484.82 1607.06,-2225.56 591.79,-726.13 1251.28,-1456.48 1911.31,-2129.9 686.56,-700.54 1375.25,-1340.23 1989.53,-1849.79 593,-491.83 1115.78,-860.58 1603.26,-1167.46 67.66,152.6 163.43,280.18 225.21,362.6 112.88,150.55 112.88,150.55 -94.06,296.39 -207.05,145.77 -621.03,437.47 -884.46,818.49 -246.86,356.97 -361.41,792.56 -340.06,1124.61 -831.45,784.94 -1652.33,1647.49 -2438.48,2762.01 -302.97,429.51 -600.02,895.88 -886.24,1391.95 -165.32,-57.51 -342.74,-88.73 -527.56,-88.73 -886.62,0 -1605.33,718.73 -1605.33,1605.31 0,569.98 297.06,1070.47 744.82,1355.34 -224.32,560.5 -430.19,1136.97 -612.8,1723.16 -335.72,1077.65 -593.7,2188.27 -779.84,3264.57 -204.04,1180.29 -322.16,2324.53 -362.09,3342.2 -38.32,975.06 -4.87,1830.25 89.45,2658.39 94.64,830.75 249.41,1632 453.89,2497.18 124.62,527.57 268.5,1081.68 426.71,1639.01 -401.09,331.29 -656.49,830.42 -656.49,1388.82 0,970.49 771.34,1762.09 1738.92,1804.34 49.86,120.63 99.94,238.42 150.2,352.77 323.12,734.94 657.31,1338.53 1023.2,1894.02 362.89,550.96 753.75,1048.22 1194.84,1577.56 461.86,554.3 975.04,1139.89 1527.24,1735.15 509.83,549.5 1059.39,1114.52 1640.9,1680.06 607.98,591.39 1249.95,1182.1 1921.58,1724.54 674.96,545.12 1380.97,1041.9 2114.44,1442.39 681.86,372.41 1381.22,658.22 2089.45,897.69l-2761.16 130.03c15.89,-96.77 24.32,-196 24.32,-297.31 0,-1005.89 -815.48,-1821.41 -1821.37,-1821.41 -508.37,0 -967.92,208.31 -1298.33,544.21 -1067.69,-802.07 -2135.04,-1620.64 -3195.04,-2646.35 -570.57,-552.15 -1141.22,-1166.48 -1689.01,-1814.65 -550.37,-651.15 -1078.69,-1338.28 -1561.47,-2032.09 -480.02,-689.7 -911.41,-1380.21 -1292.1,-2066.22 -383.17,-690.48 -719.23,-1383.38 -1005.89,-2073.43 -284.72,-685.18 -519.63,-1365.56 -717.36,-2066.2 -197.58,-700.21 -358.77,-1424.67 -496.18,-2197.9 -138.77,-780.86 -252.26,-1601.68 -333.58,-2400.27 -82.25,-806.37 -133.63,-1595.48 -147.47,-2304.98 -10.15,-520.98 -0.15,-1000.87 30.71,-1468.77zm-1916.01 -1575.17c0,787.14 566.65,1441.95 1314.28,1578.91 -29.66,469.99 -39.06,953.14 -28.74,1476.81 14.27,729.12 66.47,1534.11 149.86,2352.11 84.24,827 199.33,1663.32 338.2,2444.76 140.01,788.54 305.84,1532.02 510.31,2256.78 204.49,724.56 447.08,1427.41 740.93,2134.54 293.32,706.1 639.6,1419.43 1036.45,2134.5 394.85,711.53 836.49,1419.33 1322.64,2117.92 490.45,704.74 1030.66,1407.1 1596.78,2076.83 558.9,661.3 1143.06,1289.98 1729,1856.98 1088.72,1053.51 2178.79,1888.21 3268.65,2706.86 -114.12,238.03 -178.04,504.71 -178.04,786.23 0,1005.89 815.52,1821.38 1821.41,1821.38 688.52,0 1287.85,-382.13 1597.48,-945.87 782.72,310.97 1584.15,622.21 2511.79,934.02 594.36,199.78 1236.88,399.38 1870.96,570.34 544.47,146.76 1093.8,275.46 1617.08,369.35 974.28,174.86 1819.75,219.55 2648.06,246.95 32.49,83.05 59.22,173.41 79.43,272.4 131.7,644.48 -9.39,1651.14 145.86,2403.76 155.22,752.68 606.76,1251.3 1208.91,1792.26 602.17,540.99 1354.75,1124.38 2149.77,1514.79 795,390.44 1632.28,587.97 2507.29,522.1 874.94,-65.87 1787.5,-395.11 2352,-555.13 564.53,-159.94 780.87,-150.46 1500.6,-540.96 719.78,-390.44 1942.74,-1180.65 2742.46,-2177.94 799.71,-997.26 1175.97,-2201.49 1364.13,-2803.66 188.2,-602.06 188.2,-602.06 371.67,-456.29 183.49,145.83 550.34,437.52 898.46,884.36 348.09,446.93 677.43,1048.99 945.58,1716.93 268.13,668.03 475.04,1401.88 757.27,1938.15 282.32,536.29 639.79,874.97 1020.81,955.36 381.06,80.48 785.57,-97.43 851.44,-727.76 65.9,-630.3 -206.96,-1713.18 -634.99,-2532.11 -427.96,-818.88 -1011.18,-1373.88 -1248.7,-1644.38 -237.47,-270.46 -129.38,-256.29 105.82,-206.96 235.21,49.43 597.48,134.17 900.85,315.24 303.39,181.09 548.06,458.62 893.75,719.66 345.8,261.05 792.62,505.72 1284.21,604.49 491.62,98.8 1027.88,51.78 1408.93,-148.16 381.04,-199.87 606.83,-552.76 583.29,-910.23 -23.46,-357.5 -296.28,-719.76 -747.91,-1001.96 -451.6,-282.23 -1081.93,-484.49 -1686.45,-479.79 -604.5,4.69 -1183.07,216.43 -1916.9,176.39 -733.86,-40 -1622.88,-331.61 -2074.52,-510.4 -451.51,-178.8 -465.68,-244.57 -390.44,-308.09 75.3,-63.5 239.92,-124.67 879.61,-72.95 639.78,51.78 1754.72,216.41 2544.98,159.93 790.34,-56.41 1256.01,-333.94 1519.38,-646.81 263.46,-312.75 324.6,-660.86 355.18,-834.92 30.56,-174.01 30.56,-174.01 759.67,-319.86 729.15,-145.77 2187.32,-437.46 3090.49,-743.24 903.23,-305.69 1251.32,-625.6 1420.62,-903.13 169.44,-277.52 160.04,-512.7 9.48,-682.11 -150.54,-169.33 -442.14,-272.75 -583.29,-371.56 -141.16,-98.84 -131.68,-192.87 51.71,-301.08 183.5,-108.22 540.96,-230.53 1072.46,-748.03 531.56,-517.4 1237.26,-1429.92 1510.1,-1999.14 272.82,-569.22 112.88,-794.92 18.76,-959.64 -94.03,-164.63 -122.23,-268.03 51.77,-691.42 174.14,-423.36 550.37,-1166.64 592.7,-1637.06 42.34,-470.36 -249.26,-667.95 -903.13,-470.36 -653.86,197.53 -1670.01,790.31 -2215.67,1077.23 -545.67,286.9 -620.91,268.13 -639.79,178.7 -11.33,-54.13 -2.04,-134 3.95,-234.52 376.83,-549.86 754.02,-1135.62 1131.57,-1879.96 256.04,-504.4 512.65,-1083.18 757.56,-1737.99 221.11,-591.33 431.06,-1238.8 619.56,-1941.65 196.73,-732.9 373.89,-1539.35 518.2,-2339.73 145.04,-804.48 255.59,-1599.6 317.97,-2303.19 62.3,-702.53 76.7,-1312.11 59.38,-1895.72 -17.3,-587.59 -66.03,-1143.04 -129.95,-1736.98 -64.27,-598.24 -144.24,-1238.3 -279.27,-1943.44 -15.78,-82.19 -32.25,-165.37 -49.57,-249.45 540.11,-258.5 913.15,-810.03 913.15,-1448.78 0,-886.61 -718.72,-1605.34 -1605.31,-1605.34 -70.87,0 -140.56,4.6 -208.9,13.49 -232.41,-610.27 -501.39,-1246.12 -797.61,-1883.58 -437.78,-941.81 -937.94,-1894 -1471.16,-2780.25 -543.78,-904.18 -1120.93,-1737.6 -1755.17,-2524.94 -635.69,-789.12 -1328.7,-1532.35 -2103.36,-2254.48 -765.05,-713.38 -1610.61,-1406.91 -2477.31,-2041.66 -885.98,-648.83 -1793.91,-1236.57 -2660.59,-1721.56 -1430.1,-800.2 -2750.15,-1322.66 -4051.3,-1799.2 0.75,-127.58 -18.26,-247.66 -59.33,-350.98 -155.22,-390.46 -625.63,-540.96 -1161.9,-512.74 -536.27,28.15 -1138.35,235.21 -1439.38,338.73 -301.11,103.41 -301.11,103.41 -254.08,-277.62 47.02,-381.03 141.15,-1143.04 -131.75,-1632.28 -272.84,-489.25 -912.56,-705.6 -1383.03,-602.08 -470.37,103.46 -771.36,526.82 -936.09,780.88 -164.61,253.96 -192.76,338.7 -244.55,399.87 -51.73,61.11 -127,98.76 -164.63,117.63 -37.64,18.77 -37.64,18.77 -42.34,-37.65 -4.71,-56.48 -14.17,-169.41 -183.47,-362.26 -169.3,-192.89 -498.64,-465.7 -827.95,-602.08 -329.26,-136.45 -658.5,-136.45 -973.72,-61.17 -315.17,75.24 -616.16,225.71 -766.7,300.99 -150.52,75.26 -150.52,75.26 -319.92,23.54 -169.32,-51.78 -507.95,-155.24 -780.79,-348.09 -272.89,-192.87 -479.84,-475.16 -616.31,-884.36 -136.46,-409.28 -202.24,-945.49 -343.33,-1594.67 -141.12,-649.16 -357.56,-1411.17 -837.31,-1886.23 -479.8,-475.17 -1223.09,-663.35 -1552.35,-428.17 -329.3,235.22 -244.66,893.77 103.46,1491.21 348.07,597.4 959.6,1133.67 1326.61,1552.35 366.84,418.67 489.13,719.66 479.75,870.21 -9.45,150.5 -150.54,150.5 -305.76,112.89 -155.24,-37.63 -324.64,-112.89 -733.84,-395.14 -409.28,-282.22 -1058.37,-771.46 -1759.24,-1175.97 -701.01,-404.49 -1453.56,-724.44 -1928.69,-658.53 -475.15,65.85 -672.72,517.38 -602.12,931.36 70.55,414 409.19,790.23 907.82,1058.38 498.63,268.14 1157.27,428.05 1768.82,531.57 611.44,103.44 1175.95,150.55 1500.52,183.5 324.54,32.86 409.27,51.72 668.03,197.57 258.65,145.75 691.48,418.58 907.92,555.01 216.33,136.4 216.33,136.4 103.41,155.24 -112.9,18.77 -338.68,56.4 -587.96,32.94 -249.35,-23.56 -522.19,-108.2 -823.27,-202.23 -301.09,-94.14 -630.33,-197.56 -1077.24,-188.17 -446.92,9.37 -1011.38,131.66 -1364.15,366.84 -352.84,235.21 -493.92,583.31 -564.51,757.41 -70.56,174.01 -70.56,174.01 -818.47,216.32 -747.98,42.34 -2243.81,127.06 -3321.05,334.04 -1077.25,206.92 -1735.81,536.26 -1858.11,851.4 -122.3,315.16 291.6,616.25 545.66,762.09 254.05,145.85 348.11,136.38 -89.33,310.44 -437.46,174.01 -1406.55,531.59 -2041.59,889.1 -442.29,249.01 -722.57,497.92 -864.65,737.4 -605.99,359.81 -1255.6,795.26 -2019.82,1429.16 -625.52,518.89 -1329.58,1173.19 -2034.21,1892.15 -672.12,685.7 -1344.54,1430.56 -1949.06,2172.21 -619.21,759.71 -1167.35,1516.33 -1649.35,2284.45 -484.65,772.24 -902.29,1554.47 -1257.7,2360.92 -323.62,734.06 -597.64,1492.65 -828.09,2237.15 -203.86,658.45 -373.25,1306.02 -512.95,1915.76 -66.55,-8.34 -134.32,-12.7 -203.22,-12.7 -886.56,0 -1605.28,718.73 -1605.28,1605.32z"/>
 </g>
</svg>
