<?xml version="1.0" encoding="UTF-8"?>
<!DOCTYPE svg PUBLIC "-//W3C//DTD SVG 1.1//EN" "http://www.w3.org/Graphics/SVG/1.1/DTD/svg11.dtd">
<!-- Creator: CorelDRAW 2020 (64-Bit) -->
<svg xmlns="http://www.w3.org/2000/svg" xml:space="preserve" width="215.9mm" height="279.4mm" version="1.1" style="shape-rendering:geometricPrecision; text-rendering:geometricPrecision; image-rendering:optimizeQuality; fill-rule:evenodd; clip-rule:evenodd"
viewBox="0 0 21590 27940"
 xmlns:xlink="http://www.w3.org/1999/xlink"
 xmlns:xodm="http://www.corel.com/coreldraw/odm/2003">
 <defs>
  <style type="text/css">
   <![CDATA[
    .fil0 {fill:#A2662E}
   ]]>
  </style>
 </defs>
 <g id="Capa_x0020_1">
  <metadata id="CorelCorpID_0Corel-Layer"/>
  <path class="fil0" d="M-122612.09 333401.45c-884.34,-216.3 -1845.6,-475.81 -2624.34,-591.15 -778.63,-115.34 -1374.5,-86.33 -1672.46,-43.17 -298.14,43.17 -298.14,101.02 -72.15,538.32 225.74,437.36 677.73,1254.24 1590.83,2076.1 913.14,821.8 2287.7,1648.61 3465.29,1903.12 1177.56,254.77 2157.91,-62.24 2808.94,-448.59 480.53,-285.07 781.59,-607.84 898.79,-910.22 223.33,218.42 451.45,432.35 683.44,641.9 -193.3,238.5 -395.21,685.53 -525.48,1281.67 -169.76,776.31 -217.6,1804.79 -1.3,2987.12 216.05,1182.27 696.82,2518.33 1287.93,3464.96 591.15,946.87 1292.68,1504.53 1672.46,1744.64 379.59,240.38 437.37,163.79 567.09,-292.92 129.73,-456.46 331.71,-1292.92 346.06,-2114.78 14.38,-821.86 -158.51,-1629.03 -619.92,-2772.92 -436,-1080.48 -1129.2,-2461.61 -1596.6,-3338.33 551.36,439.42 1123.21,854.78 1712.78,1244.53 0.5,337.43 13.03,845.62 152.97,1449.61 153.82,663.3 461.43,1441.73 860.32,2037.59 398.91,596.11 889.07,1009.65 1206.32,1230.66 317.07,221.07 461.45,249.81 533.59,105.43 71.97,-144.12 71.97,-461.12 -28.97,-951.59 -101.01,-490.17 -302.68,-1153.23 -686.1,-1880.43 -210.34,-398.32 -475.31,-816.04 -732.41,-1186.99 892.73,510.89 1821.53,965.23 2782.02,1358.89 -122.68,180.75 -231.22,470.29 -267.03,958.34 -52.84,721.15 52.8,1874.43 658.36,3003.87 605.52,1129.46 1710.88,2234.84 2725.01,2883.54 1014.11,648.91 1936.88,841.17 2422.39,937.17 485.47,96.27 533.3,96.27 370.11,-321.96 -163.5,-418.02 -538.57,-1254.51 -1230.43,-2316.75 -692.13,-1061.95 -1701.47,-2349.89 -2403.03,-3229.54 -595.06,-745.5 -968.57,-1197.46 -1201.08,-1504.53 984,348.41 1997.83,634.02 3036.52,851.92 57.24,324.32 162.91,711.18 280.14,1040.52 191.22,537.77 412.5,922.27 811.36,1234.59 398.9,312.56 975.43,552.67 1480.22,711.18 504.55,158.8 936.94,235.69 1196.7,269.16 259.44,33.73 345.74,24.32 408.32,0.29 62.47,-24.05 100.91,-62.53 43.37,-375.12 -57.8,-312.29 -211.61,-898.46 -737.33,-1525.72 -277.24,-330.59 -657.84,-672.5 -1038.93,-974.1 809.53,83.49 1631.1,126.12 2462.9,126.12 939.02,-1.05 1865.17,-56.78 2775.69,-163.52 -66.69,43.16 -133.65,88.15 -200.9,134.71 -539.33,373.81 -1077.62,854.55 -1385.19,1258.18 -307.6,403.6 -384.53,730.55 -422.97,893.77 -38.44,163.49 -38.44,163.49 91.25,173.13 129.76,9.7 389.51,28.8 884.33,-134.68 495.17,-163.22 1225.5,-509.28 1799.9,-1064.34 488.35,-471.87 863.65,-1094.66 1065.63,-1548.5 1299.71,-256.56 2560.98,-619.09 3775.48,-1077.91 -491.55,538.08 -1221.8,1365.13 -1782.11,2124.19 -595.87,807.47 -999.7,1537.78 -1201.6,2071.11 -201.68,533.63 -201.68,870.25 -201.68,1038.42 0,168.18 0,168.18 302.62,115.34 302.92,-52.8 908.7,-158.74 1451.73,-288.5 543.01,-129.7 1023.77,-283.54 1581.15,-769.02 557.4,-485.45 1191.94,-1302.3 1542.98,-2334.72 341.91,-1004.72 415.4,-2212.87 339.25,-2835.13 608.67,-297.66 1202.71,-620.73 1780.8,-967.32 -76.91,140.75 -156.69,292.95 -237.77,456.71 -301.33,610.25 -618.39,1378.98 -757.79,1979.8 -139.4,600.85 -100.95,1033.23 -81.86,1249.52 19.38,216.3 19.38,216.3 288.51,-4.68 269.16,-221.04 807.17,-663.36 1258.92,-1244.84 451.99,-581.48 817.11,-1302.33 1008.09,-2033.14 140.98,-539.36 186.75,-1083.68 156.69,-1477.1 478.41,-343.19 943.43,-703.6 1394.39,-1080.51 -59.08,140.98 -115.59,293.75 -170.52,462.17 -196.98,605.8 -369.87,1412.98 -586.19,2297.34 -216.33,884.37 -475.78,1845.63 -591.11,2624.36 -115.38,778.63 -86.34,1374.53 -43.18,1672.43 43.18,298.17 100.96,298.17 538.32,72.18 437.3,-225.7 1254.19,-677.69 2076.05,-1590.83 821.85,-913.17 1648.66,-2287.67 1903.18,-3465.26 254.76,-1177.58 -62.25,-2157.91 -448.59,-2809 -285.14,-480.47 -607.9,-781.53 -910.29,-898.73 218.43,-223.39 432.39,-451.45 641.9,-683.47 238.53,193.28 685.6,395.21 1281.71,525.51 776.3,169.73 1804.81,217.57 2987.08,1.31 1182.28,-216.08 2518.39,-696.82 3465,-1288 946.9,-591.12 1504.55,-1292.68 1744.66,-1672.43 240.36,-379.58 163.76,-437.37 -292.97,-567.12 -456.41,-129.7 -1292.9,-331.64 -2114.79,-346.06 -821.8,-14.35 -1629.03,158.51 -2772.85,619.93 -1080.57,436.05 -2461.61,1129.23 -3338.39,1596.65 439.42,-551.42 854.81,-1123.2 1244.53,-1712.77 337.4,-0.53 845.63,-13.07 1449.61,-153.04 663.36,-153.81 1441.78,-461.42 2037.58,-860.28 596.18,-398.91 1009.69,-889.05 1230.73,-1206.35 221,-317.01 249.74,-461.43 105.39,-533.6 -144.14,-71.91 -461.15,-71.91 -951.59,29.01 -490.19,100.98 -1153.23,302.68 -1880.4,686.13 -398.37,210.3 -816.13,475.25 -1187.02,732.4 510.87,-892.78 965.18,-1821.59 1358.87,-2782.05 180.74,122.66 470.28,231.22 958.39,267.04 721.16,52.87 1874.38,-52.83 3003.84,-658.37 1129.44,-605.51 2234.82,-1710.91 2883.55,-2724.98 648.93,-1014.15 841.19,-1936.94 937.2,-2422.42 96.24,-485.45 96.24,-533.3 -322,-370.08 -418.02,163.43 -1254.47,538.53 -2316.74,1230.42 -1061.96,692.1 -2349.92,1701.45 -3229.57,2402.99 -745.45,595.09 -1197.43,968.6 -1504.54,1201.13 348.42,-984.01 634.06,-1997.83 851.92,-3036.52 324.36,-57.28 711.22,-162.98 1040.53,-280.17 537.76,-191.19 922.29,-412.5 1234.58,-811.39 312.57,-398.85 552.74,-975.41 711.25,-1480.19 158.74,-504.55 235.62,-936.93 269.16,-1196.63 33.72,-259.51 24.32,-345.81 0.2,-408.32 -24.02,-62.5 -62.47,-100.95 -375.07,-43.43 -312.31,57.82 -898.49,211.64 -1525.69,737.36 -330.68,277.24 -672.52,657.8 -974.1,1038.9 83.44,-809.51 126.07,-1631.07 126.07,-2462.84 -1.06,-939.05 -56.76,-1865.27 -163.5,-2775.78 43.19,66.71 88.17,133.7 134.74,200.89 373.75,539.36 854.53,1077.68 1258.13,1385.28 403.59,307.6 730.55,384.5 893.77,422.97 163.51,38.45 163.51,38.45 173.18,-91.31 9.65,-129.73 28.77,-389.45 -134.74,-884.36 -163.22,-495.16 -509.28,-1225.44 -1064.34,-1799.87 -471.81,-488.32 -1094.62,-863.65 -1548.43,-1065.62 -256.62,-1299.72 -619.15,-2561.01 -1077.92,-3775.46 538.03,491.49 1365.13,1221.8 2124.16,1782.08 807.48,595.84 1537.79,999.68 2071.08,1201.61 533.61,201.67 870.29,201.67 1038.48,201.67 168.15,0 168.15,0 115.34,-302.59 -52.86,-302.92 -158.8,-908.72 -288.49,-1451.73 -129.77,-543 -283.55,-1023.76 -769.02,-1581.18 -485.51,-557.42 -1302.4,-1191.97 -2334.79,-1542.98 -1004.65,-341.87 -2212.83,-415.36 -2835.12,-339.27 -297.67,-608.65 -620.73,-1202.69 -967.26,-1780.74 140.68,76.9 292.91,156.69 456.71,237.76 610.21,301.31 1378.94,618.34 1979.8,757.77 600.81,139.43 1033.17,100.98 1249.46,81.85 216.36,-19.34 216.36,-19.34 -4.68,-288.47 -221.02,-269.16 -663.34,-807.23 -1244.78,-1258.95 -581.48,-452.02 -1302.4,-817.12 -2033.18,-1008.07 -539.39,-140.98 -1083.68,-186.8 -1477.07,-156.68 -343.19,-478.41 -703.63,-943.47 -1080.56,-1394.42 140.98,59.11 293.71,115.61 462.19,170.51 605.78,196.95 1413.01,369.87 2297.37,586.16 884.38,216.36 1845.6,475.84 2624.3,591.18 778.67,115.34 1374.54,86.3 1672.44,43.14 298.19,-43.14 298.19,-100.93 72.21,-538.32 -225.74,-437.33 -677.73,-1254.21 -1590.83,-2076.04 -913.15,-821.86 -2287.71,-1648.64 -3465.3,-1903.18 -1177.55,-254.74 -2157.93,62.27 -2808.94,448.59 -480.52,285.1 -781.58,607.87 -898.78,910.25 -223.33,-218.42 -451.45,-432.38 -683.44,-641.87 193.3,-238.56 395.21,-685.56 525.48,-1281.67 169.76,-776.37 217.6,-1804.82 1.28,-2987.12 -216.06,-1182.3 -696.82,-2518.39 -1287.91,-3465.02 -591.15,-946.87 -1292.68,-1504.5 -1672.46,-1744.61 -379.55,-240.41 -437.41,-163.76 -567.09,292.95 -129.73,456.4 -331.7,1292.92 -346.07,2114.75 -14.37,821.83 158.51,1629.06 619.93,2772.92 436,1080.54 1129.18,2461.58 1596.56,3338.39 -551.36,-439.45 -1123.16,-854.81 -1712.74,-1244.53 -0.53,-337.43 -13.03,-845.68 -152.97,-1449.64 -153.82,-663.36 -461.42,-1441.76 -860.33,-2037.62 -398.89,-596.14 -889.06,-1009.68 -1206.36,-1230.66 -317.02,-221.07 -461.38,-249.81 -533.58,-105.43 -71.93,144.12 -71.93,461.12 29.02,951.56 100.98,490.23 302.64,1153.29 686.1,1880.46 210.29,398.35 475.3,816.1 732.37,1186.96 -892.69,-510.86 -1821.5,-965.14 -2782.02,-1358.81 122.65,-180.74 231.25,-470.31 267.06,-958.39 52.85,-721.18 -52.82,-1874.4 -658.36,-3003.87 -605.54,-1129.46 -1710.88,-2234.84 -2725.04,-2883.51 -1014.09,-648.94 -1936.88,-841.2 -2422.37,-937.23 -485.47,-96.24 -533.33,-96.24 -370.11,322.02 163.5,417.96 538.57,1254.48 1230.43,2316.69 692.12,1061.98 1701.47,2349.95 2403.04,3229.57 595.07,745.47 968.58,1197.49 1201.07,1504.59 -983.99,-348.41 -1997.83,-634.05 -3036.54,-851.95 -57.26,-324.35 -162.96,-711.21 -280.12,-1040.52 -191.22,-537.77 -412.5,-922.27 -811.35,-1234.59 -398.91,-312.59 -975.44,-552.7 -1480.23,-711.21 -504.59,-158.8 -936.9,-235.69 -1196.67,-269.16 -259.45,-33.76 -345.81,-24.35 -408.31,-0.23 -62.47,24.05 -100.92,62.5 -43.4,375.03 57.82,312.32 211.61,898.49 737.35,1525.75 277.21,330.65 657.8,672.47 1038.94,974.07 -809.57,-83.4 -1631.1,-126.06 -2462.9,-126.06 -939.03,1.02 -1865.22,56.75 -2775.72,163.46 66.65,-43.16 133.64,-88.12 200.89,-134.68 539.29,-373.81 1077.62,-854.58 1385.22,-1258.18 307.59,-403.57 384.5,-730.52 422.97,-893.77 38.45,-163.46 38.45,-163.46 -91.29,-173.16 -129.73,-9.64 -389.48,-28.74 -884.32,134.71 -495.16,163.25 -1225.51,509.31 -1799.9,1064.34 -488.36,471.84 -863.69,1094.66 -1065.63,1548.47 -1299.68,256.59 -2560.97,619.15 -3775.47,1077.91 491.51,-538.02 1221.8,-1365.13 1782.11,-2124.19 595.81,-807.47 999.69,-1537.72 1201.6,-2071.08 201.66,-533.57 201.66,-870.22 201.66,-1038.42 0,-168.21 0,-168.21 -302.61,-115.34 -302.91,52.83 -908.68,158.77 -1451.72,288.47 -543,129.79 -1023.77,283.57 -1581.19,769.02 -557.35,485.48 -1191.91,1302.39 -1542.94,2334.78 -341.91,1004.66 -415.4,2212.87 -339.25,2835.16 -608.68,297.66 -1202.71,620.67 -1780.79,967.23 76.9,-140.69 156.69,-292.95 237.75,-456.71 301.34,-610.19 618.37,-1378.98 757.81,-1979.77 139.36,-600.82 100.92,-1033.2 81.84,-1249.52 -19.37,-216.33 -19.37,-216.33 -288.53,4.68 -269.15,221.07 -807.13,663.36 -1258.91,1244.84 -451.97,581.45 -817.13,1302.33 -1008.07,2033.17 -140.98,539.36 -186.74,1083.68 -156.68,1477.07 -478.42,343.16 -943.44,703.63 -1394.4,1080.54 59.08,-140.98 115.58,-293.72 170.54,-462.23 196.96,-605.74 369.81,-1412.98 586.16,-2297.34 216.34,-884.37 475.79,-1845.63 591.13,-2624.27 115.33,-778.72 86.32,-1374.59 43.17,-1672.49 -43.17,-298.2 -100.97,-298.2 -538.33,-72.21 -437.3,225.76 -1254.17,677.72 -2076.04,1590.89 -821.86,913.11 -1648.66,2287.64 -1903.18,3465.26 -254.76,1177.58 62.24,2157.94 448.6,2808.97 285.13,480.5 607.9,781.53 910.28,898.76 -218.43,223.36 -432.39,451.42 -641.9,683.47 -238.54,-193.31 -685.6,-395.27 -1281.71,-525.51 -776.3,-169.79 -1804.81,-217.63 -2987.09,-1.28 -1182.27,216.02 -2518.36,696.82 -3464.99,1287.91 -946.89,591.18 -1504.55,1292.71 -1744.67,1672.49 -240.35,379.52 -163.75,437.34 292.99,567.06 456.4,129.76 1292.88,331.67 2114.78,346.06 821.8,14.41 1629.02,-158.51 2772.85,-619.9 1080.54,-436.02 2461.62,-1129.17 3338.36,-1596.59 -439.38,551.36 -854.78,1123.14 -1244.52,1712.71 -337.4,0.53 -845.62,13.1 -1449.59,153.04 -663.36,153.78 -1441.78,461.39 -2037.62,860.3 -596.13,398.86 -1009.65,889.09 -1230.69,1206.33 -221,317.01 -249.8,461.4 -105.42,533.6 144.18,71.91 461.18,71.91 951.61,-29.04 490.18,-100.95 1153.24,-302.59 1880.41,-686.07 398.38,-210.3 816.09,-475.28 1187.01,-732.37 -510.86,892.72 -965.2,1821.5 -1358.88,2782.02 -180.73,-122.69 -470.26,-231.22 -958.37,-267.1 -721.16,-52.81 -1874.4,52.86 -3003.88,658.37 -1129.4,605.57 -2234.84,1710.94 -2883.51,2725.07 -648.93,1014.06 -841.19,1936.88 -937.2,2422.33 -96.26,485.51 -96.26,533.39 321.99,370.17 418.03,-163.52 1254.49,-538.62 2316.76,-1230.42 1061.91,-692.13 2349.92,-1701.54 3229.56,-2403.08 745.44,-595.03 1197.43,-968.54 1504.51,-1201.07 -348.41,983.98 -634.02,1997.86 -851.9,3036.55 -324.37,57.28 -711.23,162.92 -1040.55,280.08 -537.77,191.25 -922.27,412.5 -1234.56,811.42 -312.62,398.91 -552.72,975.38 -711.23,1480.23 -158.74,504.55 -235.63,936.93 -269.17,1196.66 -33.73,259.45 -24.32,345.78 -0.23,408.29 24.03,62.53 62.51,100.98 375.1,43.43 312.32,-57.79 898.49,-211.58 1525.69,-737.39 330.64,-277.24 672.52,-657.83 974.1,-1038.93 -83.46,809.59 -126.07,1631.16 -126.07,2462.93 1.06,938.99 56.72,1865.18 163.5,2775.71 -43.2,-66.71 -88.17,-133.7 -134.74,-200.89 -373.75,-539.35 -854.52,-1077.67 -1258.13,-1385.24 -403.62,-307.6 -730.55,-384.5 -893.77,-422.97 -163.52,-38.45 -163.52,-38.45 -173.15,91.31 -9.68,129.75 -28.8,389.48 134.7,884.33 163.22,495.16 509.29,1225.43 1064.29,1799.83 471.86,488.35 1094.65,863.74 1548.5,1065.62 256.61,1299.72 619.11,2561.01 1077.93,3775.52 -538.05,-491.52 -1365.15,-1221.8 -2124.18,-1782.08 -807.47,-595.87 -1537.78,-999.71 -2071.12,-1201.67 -533.59,-201.67 -870.25,-201.67 -1038.44,-201.67 -168.16,0 -168.16,0 -115.34,302.68 52.82,302.89 158.79,908.63 288.49,1451.67 129.73,543 283.55,1023.79 769.06,1581.18 485.45,557.39 1302.32,1191.94 2334.75,1543.01 1004.65,341.84 2212.83,415.36 2835.09,339.24 297.7,608.67 620.71,1202.66 967.3,1780.74 -140.69,-76.87 -292.93,-156.66 -456.72,-237.76 -610.21,-301.34 -1378.95,-618.34 -1979.8,-757.74 -600.82,-139.4 -1033.17,-100.95 -1249.49,-81.91 -216.33,19.4 -216.33,19.4 4.71,288.56 221.02,269.16 663.3,807.17 1244.78,1258.89 581.48,451.99 1302.4,817.18 2033.18,1008.1 539.39,140.95 1083.68,186.74 1477.06,156.65 343.19,478.44 703.63,943.5 1080.57,1394.45 -141,-59.14 -293.74,-115.64 -462.19,-170.57 -605.77,-196.95 -1413.01,-369.84 -2297.37,-586.16zm13378.18 5411.3c-542.26,339.54 -912.1,786.55 -930.7,1104.63 -1867.33,-763.51 -3610.42,-1768.44 -5190.02,-2976.11 731.85,104.89 1918.37,243.52 3022.97,257.1 1167.87,14.42 2244.25,-110.65 3114.2,-519.18 869.97,-408.59 1533.09,-1100.45 1864.74,-1446.5 331.64,-346.06 331.64,-346.06 192.24,-413.55 -91.91,-44.41 -244.44,-117.96 -618.96,-194.62 -448.3,-66.03 -896.55,-132.02 -1515.16,-166.68 -618.61,-34.66 -1407.58,-37.97 -2196.51,-41.25 -351.35,20.68 -694.86,55.7 -1013.71,109.34 -1283.28,216.32 -2167.65,735.56 -2773.96,1148.06 -391.58,266.26 -667.28,488.34 -834.4,661.48 -148.27,-123.49 -295,-249.01 -439.96,-376.38 290.35,-219.19 621.51,-588.32 837.05,-1050.25 274.93,-589.56 361.22,-1329.55 298.69,-1940.04 -62.52,-610.22 -273.89,-1090.96 -514.23,-1283.22 -240.41,-192.24 -509.55,-96.03 -658.34,158.5 -149.11,254.74 -177.88,668.28 -225.8,1273.82 -48.08,605.57 -115.58,1403.31 -230.91,1927.24 -31.64,143.64 -66.75,266.56 -100.99,373.03 -162.7,-153.31 -323.26,-308.94 -481.27,-466.94 -596.67,-596.64 -1160.32,-1226.48 -1687.92,-1886.43 432.89,-160.86 940.86,-637.66 1419.54,-1268.57 514.26,-677.71 995.03,-1533.09 1211.32,-2566.5 216.08,-1033.23 168.2,-2244.54 -96.23,-3248.97 -264.45,-1004.42 -744.98,-1802.19 -985.33,-2201.11 -240.41,-398.88 -240.41,-398.88 -567.12,-52.83 -326.95,346.05 -980.6,1037.94 -1389.16,1888.55 -408.56,850.84 -571.81,1859.98 -673.29,3067.92 -79.5,943.23 -120.6,2007.27 -59.62,2824.44 -1072.18,-1603.15 -1945.53,-3350.42 -2585.06,-5206.8 570.22,-203.51 1479.92,-663.59 2178.33,-1333.99 731.32,-702.05 1231.2,-1634.26 1466.82,-2446.72 26.82,-92.44 50.19,-183.4 70.43,-272.77 30.92,-345.54 61.84,-691.06 53,-1056.5 -8.85,-365.45 -57.52,-750.85 -106.14,-1136.21 -88.11,-328.83 -189.12,-573.63 -247.94,-715.92 -81.9,-196.95 -81.9,-196.95 -322.29,-134.45 -240.34,62.51 -720.88,187.25 -1201.36,672.76 -480.78,485.48 -961.53,1331.07 -1365.13,2378.68 -375.35,974.54 -684.53,2123.35 -903.71,2840.05 -554.54,-1959.62 -851.92,-4027.09 -854.28,-6163.24 0,-1758.23 200.07,-3469.71 578.82,-5112.86 -4.7,61.76 -8.34,124.23 -10.7,187.28 -28.79,778.69 144.1,1634.02 461.44,2513.7 317.24,879.35 778.38,1783.06 1052.53,2189.05 70.87,105.16 129.19,176.53 178.39,222.83l243.22 0c11.78,-14.66 23.27,-30.84 35.06,-47.88 96.01,-139.4 201.71,-326.41 336.41,-698.88 134.45,-372.5 297.67,-929.86 437.07,-1713.3 139.4,-783.39 254.75,-1792.76 187.54,-2734.68 -67.25,-941.92 -317.29,-1816.61 -716.16,-2453.79 -339.51,-542.2 -786.55,-912.07 -1104.62,-930.64 763.51,-1867.32 1768.46,-3610.44 2976.14,-5190.02 -104.9,731.83 -243.52,1918.34 -257.13,3022.91 -10.7,866.31 55.34,1682.29 256.91,2400.99 87.44,237.75 174.86,475.54 250.66,654.85 75.75,179.34 139.84,300.26 309.59,499.63 169.74,199.4 445.13,477.27 591.6,620.58 146.45,143.34 163.98,152.12 339.49,-168.2 175.49,-320.3 508.97,-969.65 708.01,-1544.3 199.02,-574.64 263.6,-1074.51 328.2,-1574.4 -20.11,-368.11 -55.94,-728.64 -112.02,-1062.31 -216.36,-1283.22 -735.56,-2167.59 -1148.07,-2773.93 -266.26,-391.54 -488.32,-667.21 -661.44,-834.37 123.45,-148.32 248.98,-295.03 376.37,-439.96 219.2,290.33 588.3,621.51 1050.2,837 589.55,274.92 1329.54,361.21 1940.03,298.71 610.26,-62.48 1091.03,-273.85 1283.29,-514.2 192.23,-240.38 95.99,-509.54 -158.5,-658.37 -254.8,-149.1 -668.31,-177.91 -1273.88,-225.76 -605.52,-48.14 -1403.28,-115.61 -1927.24,-230.95 -143.58,-31.67 -266.51,-66.71 -373.01,-100.98 153.29,-162.71 308.91,-323.3 466.94,-481.3 596.65,-596.64 1226.49,-1160.27 1886.41,-1687.9 160.88,432.92 637.72,940.87 1268.63,1419.58 677.68,514.19 1533.02,994.96 2566.47,1211.31 1033.19,216.06 2244.53,168.15 3248.97,-96.29 1004.41,-264.42 1802.2,-744.91 2201.09,-985.32 398.85,-240.36 398.85,-240.36 52.8,-567.06 -346.05,-326.95 -1037.87,-980.61 -1888.48,-1389.22 -850.9,-408.56 -1860.03,-571.78 -3067.91,-673.24 -943.24,-79.55 -2007.31,-120.6 -2824.47,-59.64 1603.17,-1072.18 3350.44,-1945.57 5206.8,-2585.07 203.47,570.19 663.58,1479.96 1334.01,2178.3 702.04,731.39 1634.25,1231.23 2446.66,1466.89 812.19,235.4 1504.05,206.35 2047.29,110.39 543.03,-96.27 936.98,-259.49 1134.18,-341.1 196.94,-81.85 196.94,-81.85 134.48,-322.26 -62.57,-240.38 -187.32,-720.85 -672.79,-1201.37 -485.45,-480.74 -1331.13,-961.5 -2378.73,-1365.1 -974.56,-375.34 -2123.34,-684.52 -2840.06,-903.71 1959.67,-554.56 4027.12,-851.92 6163.3,-854.28 1758.19,0 3469.67,200.08 5112.82,578.82 -61.72,-4.69 -124.23,-8.36 -187.31,-10.72 -778.63,-28.8 -1633.95,144.12 -2513.64,461.43 -879.38,317.24 -1783.06,778.42 -2189.01,1052.51 -105.2,70.92 -176.57,129.25 -222.86,178.38l0 243.31c14.62,11.73 30.83,23.28 47.85,35.01 139.42,96.03 326.46,201.67 698.93,336.38 372.44,134.45 929.83,297.67 1713.24,437.1 783.36,139.43 1792.8,254.77 2734.66,187.51 941.92,-67.22 1816.64,-317.24 2453.78,-716.16 542.27,-339.48 912.1,-786.55 930.65,-1104.6 1867.38,763.54 3610.47,1768.5 5190.07,2976.14 -731.86,-104.92 -1918.36,-243.52 -3022.96,-257.16 -1167.88,-14.33 -2244.28,110.65 -3114.23,519.21 -869.94,408.62 -1533.04,1100.42 -1864.73,1446.47 -331.66,346.09 -331.66,346.09 -192.26,413.58 139.46,67.19 418.02,201.63 1398.35,312.29 980.61,110.68 2662.79,196.95 3946.02,-19.11 1283.29,-216.29 2167.65,-735.47 2773.97,-1147.97 391.53,-266.29 667.24,-488.35 834.4,-661.54 148.26,123.46 295,249.04 439.96,376.38 -290.36,219.25 -621.55,588.29 -837.06,1050.22 -274.92,589.59 -361.22,1329.55 -298.68,1940.07 62.51,610.22 273.82,1090.96 514.19,1283.22 240.42,192.29 509.57,96 658.38,-158.5 149.09,-254.77 177.87,-668.31 225.76,-1273.82 48.1,-605.51 115.61,-1403.34 230.95,-1927.27 31.63,-143.55 66.67,-266.5 100.94,-372.94 162.74,153.28 323.31,308.88 481.31,466.85 596.67,596.64 1160.32,1226.51 1687.92,1886.43 -432.95,160.86 -940.86,637.75 -1419.57,1268.6 -514.23,677.77 -995,1533.09 -1211.28,2566.53 -216.09,1033.17 -168.22,2244.51 96.22,3248.91 112.99,429.27 265.53,820.57 421.68,1159.28 270.49,391.99 540.97,784.01 698.16,997.56 157.18,213.55 201.07,248.65 321.26,161.82 120.18,-86.84 316.69,-295.61 513.19,-504.38 323.39,-372.02 711.24,-874.16 987.32,-1448.86 408.55,-850.87 571.81,-1859.98 673.3,-3067.89 79.48,-943.23 120.59,-2007.3 59.61,-2824.41 1072.14,1603.12 1945.54,3350.42 2585.07,5206.77 -570.23,203.48 -1479.93,663.59 -2178.34,1333.96 -731.33,702.05 -1231.19,1634.32 -1466.88,2446.72 -67.43,233.07 -113.25,456.2 -142,668.85 -8.37,312.14 -16.74,624.25 -25.1,936.39 12.54,156.66 32.42,304.2 56.74,442.05 96.23,543.03 259.45,936.93 341.06,1134.18 81.88,196.95 81.88,196.95 322.3,134.42 240.35,-62.51 720.88,-187.25 1201.37,-672.73 480.77,-485.51 961.5,-1331.13 1365.13,-2378.69 375.33,-974.63 684.52,-2123.44 903.7,-2840.14 554.54,1959.68 851.89,4027.1 854.26,6163.34 0,1758.23 -200.05,3469.61 -578.83,5112.82 4.73,-61.73 8.37,-124.29 10.73,-187.31 28.8,-778.66 -144.12,-1633.99 -461.43,-2513.63 -317.25,-879.44 -778.39,-1783.12 -1052.52,-2189.08 -70.88,-105.1 -129.22,-176.56 -178.4,-222.8l-243.25 0c-11.77,14.66 -23.28,30.84 -35.05,47.82 -95.99,139.43 -201.7,326.44 -336.4,698.94 -134.46,372.47 -297.67,929.86 -437.07,1713.21 -139.41,783.41 -254.75,1792.78 -187.55,2734.67 67.25,941.95 317.3,1816.61 716.16,2453.82 339.51,542.23 786.55,912.04 1104.61,930.64 -763.49,1867.32 -1768.44,3610.41 -2976.12,5190.02 104.9,-731.86 243.53,-1918.31 257.17,-3022.91 14.32,-1167.94 -110.65,-2244.25 -519.24,-3114.23 -408.56,-870 -1100.4,-1533.09 -1446.45,-1864.73 -346.11,-331.66 -346.11,-331.66 -413.54,-192.26 -67.25,139.4 -201.67,417.96 -312.32,1398.32 -110.65,980.64 -196.95,2662.77 19.11,3946.03 30.68,182.29 67.45,356.59 109.28,523.24 154.79,424.38 309.62,848.75 464.42,1273.13 188.61,387.13 391.96,709.48 574.29,977.56 266.29,391.57 488.33,667.3 661.48,834.4 -123.45,148.32 -248.98,295.06 -376.38,439.99 -219.19,-290.39 -588.26,-621.48 -1050.19,-837.03 -245.1,-114.29 -515.54,-195.9 -792.56,-247.99 0,0 0,0 -219.88,0.62 -219.9,0.66 -659.72,1.91 -973.56,21.08 -313.87,19.19 -501.79,56.3 -664.13,161.58 -162.37,105.31 -299.11,278.86 -336.78,446.79 -37.67,167.94 23.74,330.26 122.37,437.99 98.61,107.73 234.41,160.8 370.22,213.91 197.49,26.41 431.06,44.17 703.38,65.64 605.52,48.14 1403.28,115.64 1927.25,230.98 143.55,31.64 266.5,66.68 372.96,100.95 -153.27,162.68 -308.87,323.3 -466.9,481.27 -596.64,596.64 -1226.51,1160.36 -1886.41,1687.9 -160.88,-432.89 -637.72,-940.87 -1268.62,-1419.49 -677.71,-514.28 -1533.04,-995.02 -2566.5,-1211.34 -1033.17,-216.06 -2244.55,-168.18 -3248.92,96.26 -1004.41,264.45 -1802.25,744.91 -2201.13,985.29 -398.85,240.42 -398.85,240.42 -52.8,567.09 346.05,326.98 1037.87,980.61 1888.49,1389.22 850.9,408.53 1860.03,571.75 3067.92,673.24 943.23,79.55 2007.26,120.6 2824.43,59.67 -1603.18,1072.15 -3350.45,1945.51 -5206.77,2585.07 -203.48,-570.25 -663.59,-1479.93 -1334.01,-2178.33 -702.04,-731.33 -1634.29,-1231.2 -2446.7,-1466.89 -812.16,-235.43 -1504.01,-206.35 -2047.28,-110.36 -542.98,96.24 -936.9,259.43 -1134.15,341.04 -196.96,81.91 -196.96,81.91 -134.45,322.26 62.54,240.41 187.3,720.91 672.75,1201.37 485.49,480.77 1331.1,961.56 2378.7,1365.13 974.59,375.4 2123.38,684.52 2840.1,903.74 -1959.68,554.5 -4027.12,851.95 -6163.27,854.31 -1758.27,0 -3469.71,-200.14 -5112.89,-578.88 61.75,4.69 124.26,8.39 187.28,10.75 778.69,28.74 1634.02,-144.15 2513.7,-461.43 879.38,-317.3 1783.11,-778.42 2189.05,-1052.57 105.16,-70.89 176.55,-129.22 222.86,-178.38l0 -243.22c-14.63,-11.82 -30.84,-23.28 -47.85,-35.1 -139.46,-96 -326.48,-201.67 -698.95,-336.35 -372.43,-134.48 -929.85,-297.67 -1713.26,-437.07 -783.37,-139.46 -1792.8,-254.8 -2734.65,-187.54 -941.91,67.19 -1816.64,317.24 -2453.78,716.13z"/>
 </g>
</svg>
