<?xml version="1.0" encoding="UTF-8"?>
<!DOCTYPE svg PUBLIC "-//W3C//DTD SVG 1.1//EN" "http://www.w3.org/Graphics/SVG/1.1/DTD/svg11.dtd">
<!-- Creator: CorelDRAW 2020 (64-Bit) -->
<svg xmlns="http://www.w3.org/2000/svg" xml:space="preserve" width="215.9mm" height="279.4mm" version="1.1" style="shape-rendering:geometricPrecision; text-rendering:geometricPrecision; image-rendering:optimizeQuality; fill-rule:evenodd; clip-rule:evenodd"
viewBox="0 0 21590 27940"
 xmlns:xlink="http://www.w3.org/1999/xlink"
 xmlns:xodm="http://www.corel.com/coreldraw/odm/2003">
 <defs>
  <style type="text/css">
   <![CDATA[
    .fil0 {fill:#A2662E}
   ]]>
  </style>
 </defs>
 <g id="Capa_x0020_1">
  <metadata id="CorelCorpID_0Corel-Layer"/>
  <path class="fil0" d="M-108365.8 376578.74c4343.99,-4343.99 10345.89,-7031.29 16975.27,-7031.29 6629.38,0 12631.28,2687.3 16975.27,7031.29 4343.97,4343.98 7031.28,10346.06 7031.28,16975.27 0,6629.39 -2687.31,12631.27 -7031.28,16975.26 -4343.99,4343.99 -10345.89,7031.28 -16975.27,7031.28 -6629.38,0 -12631.28,-2687.29 -16975.27,-7031.28 -4343.98,-4343.99 -7031.28,-10345.87 -7031.28,-16975.26 0,-6629.21 2687.3,-12631.29 7031.28,-16975.27zm-7972.77 -8024.89c-156.91,2536.61 0,5020.92 353.15,7191.4 283.76,1745.26 694.37,3287.56 973.16,4426.7 -2242.35,3949.38 -3523.13,8516.27 -3523.13,13382.06 0,1233.09 82.55,2446.6 241.98,3636.08l-7772.11 -1346.22c-511.66,-87.17 -997.7,256.9 -1084.87,768.57 -87.18,511.65 256.89,997.7 768.56,1084.88l8425.9 1459.55c175.77,837.96 389.97,1661.48 641,2468.83l-8376.62 3170.31c-485.33,182.7 -730.67,724.44 -547.96,1209.77 182.71,485.33 724.44,730.67 1209.78,547.96l8335.35 -3154.84c1376.83,3536.28 3473.29,6712.81 6109.71,9349.24 4912.22,4912.21 11698.53,7950.71 19194.14,7950.71 7495.61,0 14281.92,-3038.5 19194.14,-7950.71 2636.42,-2636.43 4732.88,-5812.96 6109.71,-9349.24l8335.35 3154.84c485.33,182.71 1027.06,-62.63 1209.77,-547.96 182.72,-485.33 -62.61,-1027.07 -547.95,-1209.77l-8376.62 -3170.31c251.03,-807.35 465.22,-1630.87 641,-2468.83l8425.91 -1459.55c511.65,-87.18 855.74,-573.23 768.55,-1084.88 -87.16,-511.67 -573.21,-855.74 -1084.89,-768.57l-7772.09 1346.22c159.41,-1189.48 241.96,-2402.99 241.96,-3636.08 0,-4865.79 -1280.76,-9432.68 -3523.11,-13382.06 278.79,-1139.14 689.4,-2681.44 973.16,-4426.7 353.15,-2170.48 510.06,-4654.79 353.15,-7191.4 -156.93,-2536.62 -627.67,-5125.71 -941.49,-6420.18 -313.83,-1294.45 -470.75,-1294.45 -1608.3,-915.15 -1137.53,379.12 -3255.89,1137.54 -5047.24,2052.87 -1791.18,915.17 -3255.72,1987.42 -4369.95,3160.72 -784.06,825.85 -1394.63,1701.51 -1780.52,2388.59 -3414.76,-1548.87 -7207.03,-2411.55 -11200.54,-2411.55 -3993.49,0 -7785.78,862.68 -11200.54,2411.55 -385.89,-687.08 -996.48,-1562.74 -1780.51,-2388.59 -1114.24,-1173.3 -2578.78,-2245.55 -4369.96,-3160.72 -1791.35,-915.33 -3909.71,-1673.75 -5047.24,-2052.87 -1137.55,-379.3 -1294.47,-379.3 -1608.3,915.15 -313.83,1294.47 -784.56,3883.56 -941.49,6420.18z"/>
 </g>
</svg>
