<?xml version="1.0" encoding="UTF-8"?>
<!DOCTYPE svg PUBLIC "-//W3C//DTD SVG 1.1//EN" "http://www.w3.org/Graphics/SVG/1.1/DTD/svg11.dtd">
<!-- Creator: CorelDRAW 2020 (64-Bit) -->
<svg xmlns="http://www.w3.org/2000/svg" xml:space="preserve" width="215.9mm" height="279.4mm" version="1.1" style="shape-rendering:geometricPrecision; text-rendering:geometricPrecision; image-rendering:optimizeQuality; fill-rule:evenodd; clip-rule:evenodd"
viewBox="0 0 21590 27940"
 xmlns:xlink="http://www.w3.org/1999/xlink"
 xmlns:xodm="http://www.corel.com/coreldraw/odm/2003">
 <defs>
  <style type="text/css">
   <![CDATA[
    .fil0 {fill:#A2662E}
   ]]>
  </style>
 </defs>
 <g id="Capa_x0020_1">
  <metadata id="CorelCorpID_0Corel-Layer"/>
  <path class="fil0" d="M-59422.28 8242.69c-106.25,147.68 -297.98,334.27 -474.2,440.54 -176.22,106.22 -336.91,132.13 -399.08,98.44 -62.17,-33.69 -25.89,-126.96 12.98,-225.42 38.85,-98.5 80.32,-202.12 134.71,-279.87 54.44,-77.76 121.83,-129.59 269.53,-191.77 147.71,-62.2 375.73,-134.76 479.4,-116.62 103.65,18.14 82.93,126.97 -23.34,274.7zm48466.23 -5726.74c-176.19,-49.24 -373.17,-126.97 -544.2,-228.04 -171.03,-101.07 -316.14,-225.46 -349.83,-287.64 -33.69,-62.2 44.06,-62.2 189.16,-59.6 145.15,2.57 357.64,7.77 564.93,72.54 207.29,64.79 409.42,189.18 538.99,295.41 129.6,106.27 186.6,194.35 189.19,241.02 2.58,46.62 -49.25,51.83 -152.89,44.05 -103.65,-7.77 -259.15,-28.51 -435.35,-77.74zm2409.97 -748.92c-46.66,-129.57 -98.49,-274.68 -90.72,-469.02 7.8,-194.37 75.16,-437.95 121.79,-570.08 46.65,-132.19 72.58,-152.9 129.59,-88.11 56.99,64.75 145.1,215.07 176.18,427.56 31.1,212.49 5.2,487.15 -38.83,673.74 -44.06,186.57 -106.27,285.05 -158.1,277.27 -51.83,-7.77 -93.28,-121.78 -139.91,-251.36zm-12451.6 35125.67c85.52,-189.17 246.16,-437.95 373.16,-546.78 126.98,-108.82 220.26,-77.76 261.74,-10.38 41.45,67.38 31.09,171.02 -82.96,334.29 -113.99,163.26 -331.67,386.11 -458.66,507.92 -126.98,121.78 -163.24,142.51 -176.22,88.09 -12.94,-54.4 -2.57,-183.98 82.94,-373.14zm-22873.86 -45620.76c-145.11,15.54 -295.4,15.54 -432.74,-12.95 -137.36,-28.51 -261.74,-85.52 -326.49,-152.9 -64.82,-67.38 -69.99,-145.11 62.17,-196.94 132.16,-51.83 401.66,-77.76 616.74,-46.66 215.06,31.11 375.74,119.19 450.91,183.99 75.13,64.77 64.77,106.24 -10.36,142.54 -75.16,36.28 -215.11,67.38 -360.23,82.92zm13993.26 46737.57c466.46,-77.72 1005.44,-15.51 1285.31,57.04 279.87,72.58 300.62,155.49 36.28,383.5 -264.31,228.06 -813.67,601.2 -1409.69,896.61 -596,295.44 -1238.65,513.11 -1723.23,626.36 -484.58,113.23 -811.1,122.06 -1002.82,127.23 -191.77,5.2 -248.78,6.75 -173.63,-101.32 75.12,-108.08 282.44,-325.74 593.37,-590.05 310.99,-264.34 725.62,-575.28 1129.84,-839.6 404.25,-264.33 798.12,-482 1264.57,-559.77zm-18020.19 -2171.58c-285.04,-191.75 -202.12,-253.93 -98.47,-274.64 103.65,-20.75 228.06,0 658.23,15.55 430.14,15.53 1166.08,25.91 1855.38,93.27 689.33,67.36 1331.95,191.76 1684.37,331.7 352.45,139.92 414.62,295.4 316.15,409.42 -98.46,114.05 -357.6,186.59 -855.14,222.85 -497.53,36.3 -1233.47,36.3 -1927.97,-124.37 -694.48,-160.66 -1347.5,-481.99 -1632.55,-673.78zm34148.83 -5382.12c171.04,-132.13 202.13,-75.12 142.54,246.19 -59.59,321.33 -209.91,906.98 -365.38,1306.03 -155.46,399.1 -316.13,611.58 -399.06,694.48 -82.94,82.92 -88.11,36.31 -103.65,-46.62 -15.54,-82.94 -41.47,-202.13 -49.23,-285.06 -7.79,-82.93 2.56,-129.56 2.56,-313.56 0,-183.96 -10.35,-505.29 139.94,-826.62 150.29,-321.33 461.25,-642.66 632.28,-774.84zm5377.11 -8533.25c-69.99,-196.95 -158.08,-419.81 -194.38,-681.55 -36.28,-261.72 -20.73,-562.29 18.16,-699.64 38.84,-137.33 101.06,-111.45 204.71,25.9 103.64,137.35 248.76,386.12 336.85,632.3 88.13,246.17 119.24,489.76 98.48,702.24 -20.71,212.49 -93.28,393.91 -150.27,482 -57.01,88.1 -98.48,82.93 -145.14,-5.2 -46.63,-88.07 -98.44,-259.11 -168.41,-456.05zm-15135.92 -30248.91c-171.02,85.53 -476.79,152.88 -722.97,189.18 -246.17,36.26 -432.77,41.46 -463.87,-23.33 -31.08,-64.8 93.31,-199.54 272.12,-310.98 178.79,-111.43 412.01,-199.51 614.16,-220.26 202.11,-20.71 373.14,25.92 458.65,49.24 85.51,23.34 85.51,23.34 67.38,75.15 -18.14,51.83 -54.42,155.48 -225.47,241zm-18917.1 2132.65c-25.9,-134.76 -25.9,-347.28 -12.96,-489.78 12.96,-142.53 38.89,-215.09 93.29,-334.3 54.44,-119.21 137.32,-285.03 202.12,-277.26 64.8,7.76 111.41,189.16 116.61,393.88 5.18,204.71 -31.09,432.76 -82.92,596.01 -51.82,163.26 -119.19,261.71 -178.8,282.44 -59.6,20.75 -111.41,-36.27 -137.34,-170.99zm-14477.94 15545.47c-38.86,90.68 -116.6,69.99 -204.68,-67.34 -88.14,-137.37 -186.57,-391.34 -233.25,-580.5 -46.62,-189.15 -41.44,-313.56 -20.7,-367.94 20.7,-54.44 56.99,-38.9 142.5,59.58 85.52,98.46 220.26,279.87 287.64,471.62 67.38,191.77 67.38,393.89 28.49,484.58zm-215.01 11987.54c119.19,531.26 46.63,655.62 -101.07,645.25 -147.71,-10.36 -370.58,-155.45 -596,-414.62 -225.46,-259.12 -453.51,-632.26 -632.32,-1088.35 -178.81,-456.09 -308.35,-995.08 -404.23,-1461.56 -95.91,-466.43 -158.08,-860.31 -160.67,-1036.53 -2.6,-176.19 54.42,-134.74 256.55,59.6 202.13,194.37 549.36,541.61 878.47,1184.27 329.09,642.68 640.06,1580.72 759.27,2111.94zm5436.67 -21547.01c-238.4,554.57 -425,844.78 -606.37,989.91 -181.38,145.1 -357.6,145.1 -440.53,-108.85 -82.94,-253.95 -72.56,-761.87 145.1,-1326.76 217.69,-564.93 642.68,-1186.83 932.9,-1544.44 290.23,-357.61 445.71,-450.88 554.56,-440.52 108.82,10.35 171.02,124.36 56.99,590.83 -114.01,466.44 -404.24,1285.28 -642.65,1839.83zm3254.72 37999.55c336.9,362.77 637.48,725.55 989.9,1212.72 352.42,487.18 756.67,1098.74 927.69,1570.38 171.02,471.62 108.85,803.33 25.92,953.61 -82.91,150.3 -186.57,119.21 -523.44,-139.91 -336.88,-259.15 -906.97,-746.32 -1394.16,-1534.09 -487.16,-787.76 -891.43,-1876.16 -1062.45,-2451.42 -171.02,-575.28 -108.83,-637.46 108.86,-487.19 217.68,150.31 590.81,513.1 927.68,875.9zm-12029.07 -18398.62c-51.83,694.49 -181.38,1601.43 -339.47,2174.14 -158.05,572.68 -344.64,811.1 -466.44,891.4 -121.8,80.36 -178.82,2.63 -251.35,-204.71 -72.58,-207.28 -160.67,-544.16 -199.56,-894 -38.84,-349.85 -28.48,-712.61 59.62,-1116.87 88.11,-404.27 253.95,-849.96 419.82,-1238.67 165.82,-388.71 331.67,-720.39 461.23,-922.52 129.59,-202.14 222.85,-274.67 282.46,-69.96 59.63,204.71 85.51,686.72 33.69,1381.19zm8696.6 11479.7c-196.93,67.38 -559.73,150.28 -995.08,103.65 -435.33,-46.65 -943.25,-222.87 -1264.56,-362.8 -321.33,-139.94 -456.09,-243.58 -404.28,-305.76 51.83,-62.2 290.23,-82.95 616.76,-62.2 326.5,20.72 741.11,82.9 1140.19,165.83 399.07,82.94 782.59,186.57 958.79,264.31 176.22,77.75 145.11,129.6 -51.82,196.97zm-2052.33 -33241.79c-430.16,290.23 -699.66,393.88 -870.68,419.77 -171.07,25.92 -243.59,-25.89 -243.59,-113.99 0,-88.13 72.52,-212.5 285.04,-352.44 212.5,-139.93 564.89,-295.42 969.17,-497.54 404.22,-202.12 860.3,-450.9 1114.26,-575.26 253.95,-124.39 305.78,-124.39 36.27,114.01 -269.47,238.38 -860.32,715.2 -1290.47,1005.45zm20204.97 -9603.5c-437.95,-88.13 -785.16,-202.12 -1093.53,-365.37 -308.36,-163.28 -577.88,-375.79 -707.44,-494.98 -129.6,-119.19 -119.2,-145.11 15.55,-165.82 134.73,-20.75 393.87,-36.3 761.87,51.83 367.95,88.08 844.76,279.86 1277.51,494.93 432.75,215.07 821.43,453.47 1020.94,572.7 199.55,119.19 209.91,119.19 -49.21,88.1 -259.15,-31.12 -787.74,-93.28 -1225.69,-181.39zm-868.08 2899.72c-637.47,209.88 -1072.84,183.98 -1313.83,121.8 -241,-62.19 -287.63,-160.67 -241,-256.54 46.67,-95.9 186.57,-189.18 481.99,-290.25 295.43,-101.07 746.32,-209.88 1308.64,-323.92 562.32,-114.01 1236.05,-233.2 1601.4,-292.81 365.39,-59.6 422.39,-59.6 31.1,163.25 -391.23,222.84 -1230.84,668.58 -1868.3,878.47zm10596.03 -1259.4c-95.91,-173.62 -152.88,-380.94 -181.41,-484.58 -28.49,-103.66 -28.49,-103.66 90.7,-57.03 119.2,46.66 357.6,139.92 528.63,352.44 171.03,212.49 274.69,544.17 305.77,707.42 31.12,163.24 -10.35,158.08 -85.5,119.21 -75.15,-38.89 -183.97,-111.42 -305.79,-217.66 -121.78,-106.25 -256.54,-246.21 -352.4,-419.8zm8758.75 4591.91c-282.46,-396.49 -489.77,-945.87 -593.44,-1220.53 -103.64,-274.7 -103.64,-274.7 12.96,-241.01 116.63,33.69 349.85,101.05 588.25,277.27 238.39,176.22 481.99,461.25 686.7,847.37 204.75,386.1 370.56,873.29 414.62,1093.57 44.05,220.26 -33.69,173.63 -251.38,28.5 -217.65,-145.12 -575.25,-388.72 -857.71,-785.17zm-557.14 2251.88c-570.12,-160.67 -1233.49,-445.7 -1689.59,-735.94 -456.05,-290.25 -704.84,-585.64 -759.23,-761.85 -54.45,-176.22 85.49,-233.25 391.28,-178.81 305.76,54.4 777.42,220.26 1267.16,430.15 489.75,209.9 997.68,463.85 1409.71,715.23 412.02,251.34 728.18,500.12 862.9,627.11 134.76,126.96 88.14,132.13 -173.61,116.58 -261.72,-15.55 -738.53,-51.81 -1308.62,-212.47zm10271.94 15102.44c-46.63,-393.91 -36.29,-767.05 98.46,-1150.57 134.77,-383.51 393.88,-777.4 570.09,-984.71 176.23,-207.32 269.51,-228.03 378.35,-31.1 108.86,196.96 233.2,611.55 186.57,1114.3 -46.63,502.72 -264.3,1093.55 -445.71,1513.34 -181.39,419.8 -326.5,668.57 -409.42,767.05 -82.93,98.44 -103.65,46.63 -165.87,-186.57 -62.19,-233.26 -165.84,-647.86 -212.47,-1041.74zm-1451.17 1109.1c-274.66,-207.32 -792.94,-653.04 -1217.94,-1129.85 -424.98,-476.8 -756.67,-984.72 -1020.98,-1435.59 -264.32,-450.9 -461.25,-844.79 -554.55,-1088.36 -93.27,-243.6 -82.92,-336.88 20.72,-347.25 103.68,-10.38 300.63,62.18 559.74,285.03 259.15,222.87 580.46,596 938.08,1103.92 357.6,507.9 751.47,1150.56 1026.17,1632.56 274.68,482 430.17,803.32 492.34,979.54 62.21,176.19 31.13,207.3 -243.58,0zm323.9 10297.98c111.45,-160.65 287.67,-352.42 471.65,-482 184,-129.54 375.74,-196.92 557.16,-240.96 181.37,-44.05 352.4,-64.8 443.11,-44.05 90.7,20.71 101.06,82.93 33.69,212.48 -67.38,129.56 -212.5,326.52 -505.34,526.06 -292.79,199.51 -733.34,401.65 -958.79,476.79 -225.44,75.17 -235.8,23.34 -217.66,-67.38 18.14,-90.7 64.77,-220.26 176.18,-380.94zm-5711.33 10536.4c412.02,-150.27 1039.11,-383.51 1500.37,-489.78 461.26,-106.22 756.69,-85.5 951.04,-56.98 194.37,28.49 287.63,64.77 202.12,178.8 -85.51,114.01 -349.84,305.78 -733.36,471.64 -383.5,165.82 -886.22,305.78 -1363.05,354.98 -476.8,49.24 -927.69,7.79 -1150.55,-36.26 -222.87,-44.04 -217.67,-90.7 -116.61,-147.7 101.06,-57.01 298.01,-124.39 710.04,-274.7zm-17914.12 11287.81c-456.05,-285.03 -1119.46,-777.4 -1663.64,-1259.39 -544.17,-481.98 -969.14,-953.64 -1145.34,-1199.81 -176.2,-246.18 -103.63,-266.89 215.09,-199.53 318.7,67.38 883.62,222.87 1388.91,453.48 505.35,230.62 951.04,536.4 1386.4,935.46 435.33,399.08 860.33,891.46 1080.59,1197.24 220.26,305.79 235.8,424.98 150.3,479.38 -85.49,54.44 -272.09,44.06 -489.77,0 -217.65,-44.04 -466.44,-121.76 -922.54,-406.83zm-9665.72 -4944.3c103.69,-108.85 191.77,-191.74 391.3,-240.98 199.55,-49.24 510.52,-64.8 694.49,-67.38 183.98,-2.59 240.99,7.78 220.25,82.9 -20.72,75.15 -119.2,215.11 -305.77,347.24 -186.58,132.17 -461.25,256.56 -691.88,329.1 -230.64,72.58 -417.24,93.3 -518.26,72.58 -101.08,-20.75 -116.63,-82.92 -64.8,-181.38 51.82,-98.48 171.03,-233.24 274.67,-342.08zm-570.1 1598.87c57.03,-152.88 181.4,-158.08 251.39,-137.33 69.97,20.71 85.51,67.38 176.22,204.71 90.66,137.35 256.54,365.39 323.92,621.91 67.36,256.54 36.27,541.61 -18.17,678.94 -54.43,137.33 -132.14,126.97 -264.31,0 -132.15,-126.98 -318.73,-370.57 -417.22,-642.66 -98.46,-272.09 -108.83,-572.67 -51.83,-725.57zm-9511.58 -6936.17l-2.37 0c-559.42,-408.58 -1063.71,-816.8 -1558.41,-1256.99 -492.25,-437.98 -959.44,-894.84 -1450.04,-1405.28l-7.13 -7.41c540,36.71 1151.35,2.38 1549.11,-64.15 523.46,-87.55 676.86,-230.73 753.64,-471.23 76.69,-240.41 76.69,-578.07 -107.47,-890.18 -184.21,-312.02 -552.46,-598.48 -1145.88,-746.88 -593.43,-148.32 -1411.93,-158.56 -2215.04,-340.99 -463.45,-105.23 -921.76,-267.77 -1312.03,-418.89 -189.57,-262.34 -374.74,-531.08 -553.52,-805.91 -475.51,-730.71 -914.09,-1514.25 -1297.52,-2321.83 -373.25,-786.11 -693.13,-1594.08 -942.92,-2397.2 -226.33,-727.85 -394.86,-1450.24 -525.92,-2185.14 272.97,419.28 587.14,898.36 855.3,1232.66 466.73,581.82 794.07,725.09 1111.27,643.22 317.18,-81.87 624.09,-388.83 670.15,-961.8 46.01,-572.93 -168.79,-1411.9 -659.85,-2342.95 -491.15,-931.04 -1258.53,-1954.25 -1823.2,-2937.07 -273.36,-475.78 -499.23,-942.11 -683.93,-1335.51 -21.39,-928.76 -1.02,-1853.52 87.8,-2726.63 87.96,-865.26 246.09,-1685.55 469.11,-2514.5 114.08,-424.08 244.41,-847.99 390.41,-1279.19 133.8,191.23 296.91,476.97 464.86,714.89 245.55,347.81 501.34,593.39 787.85,705.93 286.51,112.57 603.61,92.1 808.28,-127.86 204.61,-220.04 296.72,-639.45 138.15,-1115.2 -158.63,-475.81 -567.83,-1007.83 -887.41,-1554.73 -176.8,-302.61 -326.16,-609.73 -454.62,-870.52 280.29,-672.33 589.78,-1366.76 926.48,-2068.02 441.5,-919.57 939.82,-1867.8 1493.04,-2814.07 494.59,-846.15 1022.51,-1670.2 1603.9,-2453.17 -53.59,172.98 -94.77,348.28 -113.31,516.45 -66.53,603.63 158.53,1115.16 485.93,1411.88 327.44,296.72 757.09,378.5 1202.23,153.5 445.07,-225.13 905.46,-757.2 1212.42,-1734.25 306.94,-977.12 460.37,-2399.3 613.81,-3253.63 54.86,-305.33 109.7,-538.07 167.14,-721.43 674.37,-509.44 1403.89,-989.76 2182.34,-1447.56 1145.58,-673.8 2399.8,-1300.71 3742.29,-1901.27 378.38,-169.28 763.51,-336.35 1152.83,-499.71 -2.85,31.65 -10.21,70.8 -21.22,119.39 -61.38,271.09 -235.31,833.78 -281.33,1309.61 -46.08,475.76 35.8,864.51 225.14,1115.22 189.24,250.65 485.89,363.12 757.09,240.37 271.12,-122.8 516.67,-480.84 644.59,-1084.48 127.9,-603.69 138.06,-1452.96 165.57,-1993.42 5.97,-117.68 12.77,-220.67 17.05,-311.83 577.86,-221.42 1157.34,-431 1730.29,-624.11 1313.9,-442.82 2590.19,-798.44 3727.69,-1010.82 205.62,-38.39 406.82,-72.1 604.51,-101.36 -626.16,252.94 -1232.86,554.56 -1574.36,773.01 -439.96,281.34 -439.96,424.55 -281.34,618.93 158.57,194.41 475.68,439.99 859.44,583.24 383.65,143.23 833.78,184.07 1493.74,30.63 659.91,-153.52 1529.63,-501.31 2281.54,-905.46 696.99,-374.56 1292.9,-797.41 1694.03,-1040.57 508.53,79.03 1039.21,178.49 1606.13,295.02 1386.41,284.93 2987.95,672.28 4597.49,1147.6 57.75,17.05 115.48,34.22 173.22,51.5 -218.8,77.34 -433.61,165.17 -598.14,261.6 -377.27,221.05 -489.75,487.03 -407.88,696.82 81.86,209.73 358.04,363.18 572.91,429.73 214.87,66.5 368.36,46.01 659.92,-117.71 291.67,-163.69 721.32,-470.6 1127.76,-675.15 70.45,-35.47 140.18,-67.81 209.49,-97.21 749.82,254.25 1483.19,527.03 2177.58,816.78 1078.45,449.99 2060.29,940.54 2960.15,1473.53 -295.27,-34.34 -589.7,-44.76 -835.09,-4.14 -621.36,102.8 -928.27,532.46 -928.27,905.99 0,373.4 306.91,690.54 1089.62,1130.53 782.68,439.91 2041.17,1002.65 3054.08,1278.9 867.52,236.57 1554.93,263.09 2084.7,326.89 465.84,513.01 901.15,1042.89 1308.7,1579.92 624.29,822.67 1193.39,1677.76 1712.43,2522.93 -568.58,-165.66 -1404.55,-430.24 -1909.7,-425.25 -617.64,6.08 -740.43,415.27 -668.81,737.63 71.6,322.29 337.65,557.52 757.1,711.02 419.52,153.46 992.48,225.09 1555.19,419.53 549.38,189.78 1088.86,496.46 1455.22,652.3 147.31,286.48 287.95,573.62 422.04,863.15 422.14,911.56 782.81,1851.24 1085.29,2872.96 304.8,1029.27 551.99,2141.28 730.22,3260.19 7.18,44.89 14.21,89.79 21.14,134.69 -420.67,-602.09 -986.36,-1383.27 -1470.45,-1928.42 -647.33,-728.99 -1148.64,-1035.9 -1614.23,-1015.43 -465.5,20.5 -895.22,368.29 -956.57,808.29 -61.42,439.95 245.48,971.95 818.42,1683.07 572.96,711.08 1412,1601.25 2097.48,2435.12 618.22,751.94 1111.57,1458.13 1432.53,1882.03 -3.09,806.11 -52.8,1578.67 -140.09,2329.31 -111.85,961.92 -283.24,1873.43 -495.87,2763.39 -112.57,471.36 -237.77,940.9 -378.83,1413.49 -39,-252.28 -89.27,-509.53 -158.86,-730.02 -187.37,-593.54 -514.73,-920.9 -893.32,-987.45 -378.59,-66.46 -808.26,127.94 -941.29,526.92 -133.02,399.04 30.6,1002.76 209.65,1897.94 176.38,881.7 367.58,2046.13 521.36,2646.13 -105.38,231.31 -215.71,465.32 -331.2,702.46 -491.42,1008.99 -1067.88,2058.66 -1677.99,3045.13 -577.3,933.4 -1190.81,1821.92 -1797.89,2579.57 -68.62,85.61 -137.11,169.51 -205.61,251.84 18.13,-117.84 28.64,-235.2 28.53,-348.66 -0.49,-522.6 -225.59,-962.51 -512.11,-1213.21 -286.5,-250.67 -634.32,-312.06 -977.1,-163.73 -342.74,148.41 -680.33,506.44 -890.11,1023.12 -209.72,516.7 -291.6,1192.03 -378.59,1775.15 -86.94,583.25 -178.99,1074.33 -317.12,1514.27 -49.83,158.68 -105.6,310.63 -154.17,447.84 -112.94,89.45 -226.23,178.55 -340.05,267.65 -639.73,500.88 -1302.53,1008.24 -2035.19,1517 -371.14,257.67 -752.49,509.81 -1147.06,753.3 18.08,-165.54 11.53,-349.89 -32.54,-550.7 -92.1,-419.44 -347.82,-910.57 -654.81,-1064.06 -306.95,-153.41 -664.98,30.7 -992.42,455.28 -327.43,424.62 -624.11,1089.69 -1036.58,1768.63 -236.64,389.59 -511.43,783.75 -732.61,1120.52 -41.12,16.83 -82.24,33.58 -123.31,50.19 -935.57,378.22 -1847.62,692.92 -2626.08,919.05 -1385.37,402.55 -2375.3,532.42 -3570.42,689.17l-480.84 63.43 -24.02 3.17c713.9,-331.31 1416.02,-749.3 1815.61,-1161.01 506.42,-521.81 526.89,-1033.36 230.16,-1386.41 -296.7,-352.96 -910.59,-547.28 -1749.62,-475.66 -838.93,71.6 -1903.01,409.2 -2772.65,925.88 -869.65,516.68 -1544.93,1212.46 -2276.49,1739.45 -394.55,284.27 -805.43,519.43 -1158.11,712.7 -223.71,-11.78 -446.74,-26.34 -667.75,-43.39 -751.95,-57.94 -1471.31,-145.53 -2106.94,-249.94 329.68,-135.03 676.51,-315.43 878.79,-552.46 327.36,-383.68 276.27,-915.72 -66.46,-1161.29 -342.81,-245.51 -977.12,-204.57 -1823.89,25.53 -707.28,192.24 -1562.63,516.43 -2165.06,761.12 -105.4,-46.4 -212.8,-94.89 -322.79,-145.6 -562.52,-259.29 -1170.48,-565.32 -1799.91,-900.63 -619.97,-330.39 -1284.75,-702.12 -1965.48,-1095.16 634.16,57.61 1341.73,77.12 1880.87,31.59 809.41,-68.35 1239.06,-283.17 1177.67,-712.88 -61.4,-429.7 -613.83,-1074.31 -1647.22,-1381.28 -1033.41,-306.9 -2547.6,-276.19 -3811.19,-327.34 -584.44,-23.66 -1115.17,-64.85 -1561.45,-99.74 -98.81,-70.08 -195.99,-140.02 -291.42,-209.74zm-5528.56 -2296.82c57.02,155.47 129.56,414.63 129.56,624.5 0,209.92 -72.54,370.57 -132.16,445.73 -59.61,75.15 -106.24,64.8 -168.43,-12.94 -62.22,-77.77 -139.94,-222.87 -186.57,-352.45 -46.68,-129.56 -62.22,-243.58 -20.75,-401.65 41.45,-158.08 139.94,-360.22 209.91,-435.37 69.94,-75.14 111.41,-23.29 168.44,132.18zm4443.61 3014.69c74.43,231.77 171.55,578.57 518.11,1453.68 409.25,1033.39 1166.44,2803.45 1887.71,3908.43 721.28,1104.99 1406.82,1544.93 2000.19,1585.85 593.4,40.9 1094.77,-317.13 1043.62,-1033.38 -51.16,-716.15 -654.86,-1790.47 -1145.94,-2516.95 -340.92,-504.24 -627.54,-840.8 -832.03,-1093.92 338.06,203.62 677.96,404.38 1016.28,601.11 746.47,434.07 1503.43,858.69 2239.72,1251.03 672.03,357.99 1302.87,676.36 1862.28,934.17 208.81,96.24 410.67,185.53 609.4,268.87 72.47,106.23 151.71,249.19 250.73,458.52 225.1,475.76 552.51,1294.24 864.64,1836.48 312.05,542.3 608.7,808.31 961.74,890.18 352.99,81.87 762.18,-20.47 977.06,-312.1 214.87,-291.58 235.35,-772.42 71.26,-1267.19 -89.67,-270.43 -234.51,-545.03 -368.26,-782.69 73,13.75 147.03,27.24 222.25,40.42 718.4,126.12 1556.11,232.36 2439.44,300.41 640.62,49.38 1311.95,78.13 1986.19,79.03 214.31,192.65 496.4,458.54 898.36,824.42 879.34,800.49 2332.16,2079.45 3329.67,2729.14 997.6,649.69 1539.88,670.18 1918.43,552.47 378.57,-117.64 593.44,-373.36 618.98,-736.64 25.63,-363.18 -138.1,-833.8 -567.85,-1299.39 -429.68,-465.54 -1125.45,-925.93 -1924.94,-1381.54 -527.3,-300.58 -1099.76,-599.01 -1557.99,-832.07 766.42,-76.25 1490.01,-172.17 2151.5,-259.77l480.85 -63.41c1245.45,-163.35 2277.01,-298.69 3752.65,-727.44 822.9,-239.02 1775.85,-567.22 2741.23,-957.5 238.88,-96.59 479.24,-197.27 719.34,-301.66 96.61,38.35 203.19,83.8 321.04,137.25 703.44,319.14 1808.41,922.82 2519.54,1250.18 711.08,327.41 1028.21,378.59 1330.01,317.19 301.86,-61.4 588.31,-235.25 685.46,-485.97 97.26,-250.65 5.15,-578.08 -184.17,-879.99 -189.25,-301.77 -475.68,-577.97 -987.27,-798 -510.2,-219.37 -1244.27,-382.7 -1724.66,-489.01 831.36,-449.74 1582.98,-925.38 2284.64,-1412.62 714.9,-496.42 1407.96,-1027.79 2087.96,-1560.12 287.32,-224.97 571.16,-449.32 852.09,-678.33 476.44,-35.4 1068.09,-73 1748.8,-131.56 951.47,-81.84 2076.94,-204.56 2823.81,-352.96 746.94,-148.32 1115.22,-322.28 1365.86,-557.6 250.73,-235.35 383.77,-532 312.13,-854.37 -71.62,-322.24 -347.83,-670.09 -777.58,-808.25 -429.72,-138.09 -1012.89,-66.46 -1745.98,100.59 -429.45,97.9 -910.28,228.53 -1314.03,336.58 226.79,-252.63 454.17,-519.94 682.65,-805.11 634.59,-791.88 1277.58,-1723.57 1884.22,-2704.32 644.7,-1042.34 1242.18,-2127.7 1740.36,-3150.49 209.72,-430.57 403.55,-853.06 583.16,-1269.98 59.98,-33.63 122.21,-67.39 186.65,-100.87 458.96,-238.42 1032,-463.53 1610.07,-709.11 578.07,-245.56 1161.22,-511.53 1411.86,-961.73 250.73,-450.2 168.86,-1084.54 -179.01,-1422.17 -347.91,-337.66 -961.75,-378.52 -1465.64,-203.75 -150.04,52.06 -290.29,123.29 -419.57,205.86 120.09,-417.71 229.86,-837.44 331.27,-1261.91 227.31,-951.59 408.98,-1912.76 524.67,-2907.37 94.18,-809.66 146.26,-1651.57 145.78,-2541.15 295.05,-389.3 722.03,-1041.49 1098.5,-1875.78 378.6,-838.95 705.93,-1862.15 731.49,-2614.15 25.6,-752.03 -250.58,-1232.87 -603.64,-1478.41 -352.94,-245.59 -782.65,-255.84 -1140.78,-51.16 -262.17,149.8 -485.89,414.73 -660.61,629.67 -151.29,-737.16 -329.76,-1458.09 -532.35,-2142.14 -321.49,-1085.86 -702.72,-2080.18 -1147.66,-3040.87 -156.87,-338.71 -321.27,-672.8 -493.42,-1004.78 159.7,-318.02 389,-807.11 491.06,-1317.41 122.81,-613.9 61.4,-1258.47 -122.77,-1631.89 -184.2,-373.53 -491.06,-475.78 -808.25,-501.29 -317.2,-25.65 -644.56,25.46 -832.22,361.51 -85.28,152.72 -141.69,364.27 -176.03,585.57 -459.03,-724.67 -963.33,-1463.69 -1520.87,-2198.41 -344.25,-453.64 -706.3,-901.65 -1087.42,-1338.63 -284.02,-670.85 -757.99,-1698.06 -1258.94,-2602.39 -578.07,-1043.57 -1191.98,-1923.46 -1816.15,-2296.9 -624.08,-373.41 -1258.4,-240.47 -1493.75,81.85 -173.34,237.41 -130.16,577.54 -31.02,887.25 -1067,-666.06 -2242.67,-1270.44 -3550.29,-1816.07 -350.55,-146.29 -710.89,-288.4 -1078.2,-426.17 -60.98,-42.4 -123.15,-86.98 -185.08,-133.72 -271.13,-204.66 -537.1,-450.13 -905.45,-910.5 -368.34,-460.46 -838.92,-1135.75 -1360.77,-1427.34 -521.78,-291.59 -1094.76,-199.58 -1294.27,5.09 -199.49,204.63 -25.61,521.81 250.64,879.94 153.06,198.4 337.51,409.31 519.41,598.92 -1630.68,-481.13 -3263.6,-875.49 -4684.05,-1167.4 -389.09,-79.97 -762.42,-152.25 -1124.45,-215.92 -329.03,-181.36 -736.22,-397.79 -1182.28,-653.1 -741.71,-424.66 -1590.94,-956.67 -2322.48,-1248.24 -731.57,-291.63 -1345.4,-342.79 -1790.46,-317.19 -445.15,25.56 -721.3,127.85 -813.4,368.35 -92.11,240.41 0,618.93 194.38,879.89 194.43,260.88 491.07,404.12 1086.37,599.29 109.96,36.06 230.16,73.89 355.79,112.37 -498.37,44.25 -1011.53,115.39 -1552.4,216.4 -1199.73,223.97 -2532.39,594.5 -3895.53,1053.96 -758.02,255.51 -1526.73,538.87 -2288.18,839.98 -210.99,-55.2 -444.21,-103.61 -682.04,-145.18 -595.34,-104.06 -1219.49,-165.38 -1674.79,-119.31 -455.29,46.03 -741.78,199.44 -874.81,414.3 -133,214.89 -112.56,491.07 46.08,705.92 95.18,128.97 240.12,235.81 438.09,319.42 -1179.3,543.57 -2292.37,1112.17 -3326.77,1720.61 -787.32,463 -1528.09,948.47 -2216.8,1462.76 -519.66,170.29 -1128.65,403.88 -1729.11,681.93 -1038.51,480.83 -2051.39,1094.75 -2675.48,1529.59 -624.16,434.81 -859.43,690.61 -941.27,1018.04 -81.86,327.42 -10.25,726.4 532.04,731.55 276.04,2.59 674.05,-96.91 1065.11,-220.86 -682.11,896.45 -1281.08,1822.13 -1830.28,2761.62 -550.99,942.51 -1065.44,1924.73 -1536.19,2905.13 -381.21,793.96 -727.26,1575.73 -1035.79,2325.42 -23.75,13.22 -48.71,26.65 -75.05,40.32 -414.34,214.9 -1161.27,480.92 -1683.06,833.86 -521.85,352.98 -818.48,792.97 -900.36,1181.78 -81.85,388.75 51.1,726.4 378.51,915.74 302.21,174.66 769.88,222.92 1153.87,173.03 -32.29,112.09 -63.53,223.9 -93.54,335.6 -237.3,882.08 -406.71,1765.68 -502.85,2711.17 -94.46,929.25 -115.46,1913.85 -91.87,2901.99 2.12,89.74 4.65,179.54 7.51,269.33 -261.15,537.66 -659.62,1316.15 -1035.73,2147.02 -439.96,971.97 -849.19,2015.63 -931.03,2967.14 -81.87,951.51 163.7,1810.93 429.73,2271.31 266.04,460.46 552.46,521.84 874.81,358.12 322.27,-163.72 680.34,-552.47 967.67,-1086.13 114.28,-212.25 217.34,-447.43 305.78,-683.26 128.82,656.11 287.79,1303.2 489.59,1952.03 266.11,855.73 607.18,1717.02 1005.25,2555.49 405.46,853.95 871.52,1686.07 1378.96,2465.78 179.68,276.22 363.66,544.68 550.41,805.4 -27.09,275.58 -83.34,664.68 -103.77,1203.78 -25.6,675.31 5.1,1585.97 122.81,2225.46 117.62,639.45 322.21,1007.72 654.77,1176.51 332.5,168.87 792.87,138.18 1043.6,-86.92 250.65,-225.12 291.59,-644.56 179.02,-1238.02 -82.62,-435.49 -247.84,-964.74 -350.13,-1338.89 365.83,417.87 731.62,812.25 1085.57,1180.53 522.21,543.27 1011.93,1022.85 1517.15,1472.38 401.48,357.23 823.23,704.1 1291.18,1058.86z"/>
 </g>
</svg>
