<?xml version="1.0" encoding="UTF-8"?>
<!DOCTYPE svg PUBLIC "-//W3C//DTD SVG 1.1//EN" "http://www.w3.org/Graphics/SVG/1.1/DTD/svg11.dtd">
<!-- Creator: CorelDRAW 2020 (64-Bit) -->
<svg xmlns="http://www.w3.org/2000/svg" xml:space="preserve" width="215.9mm" height="279.4mm" version="1.1" style="shape-rendering:geometricPrecision; text-rendering:geometricPrecision; image-rendering:optimizeQuality; fill-rule:evenodd; clip-rule:evenodd"
viewBox="0 0 21590 27940"
 xmlns:xlink="http://www.w3.org/1999/xlink"
 xmlns:xodm="http://www.corel.com/coreldraw/odm/2003">
 <defs>
  <style type="text/css">
   <![CDATA[
    .fil0 {fill:#A2662E}
   ]]>
  </style>
 </defs>
 <g id="Capa_x0020_1">
  <metadata id="CorelCorpID_0Corel-Layer"/>
  <path class="fil0" d="M-127478.45 180074.63c-9.99,-106.46 41.5,-290.97 411.13,-455.26 369.56,-164.32 1057.24,-308.08 1554.18,-356.15 497.05,-48.31 803.34,-0.9 958.6,80.32 155.41,81.02 159.68,195.81 -10.84,303.1 -170.54,106.98 -515.84,206.6 -1005.1,303.87 -489.24,97.13 -1122.19,191.98 -1474.42,225.36 -352.32,33.2 -423.5,5.09 -433.55,-101.24zm280.67 1543.41c637.83,-240.7 1847.46,-569.2 2580.03,-769.93 732.51,-200.61 987.83,-273.58 1171.43,-298.54 183.74,-24.93 295.88,-1.73 340.72,71.3 44.98,73.1 22.69,195.93 -233.57,358.07 -256.34,162.27 -746.86,363.69 -1342.31,584.19 -595.45,220.61 -1296.1,460.33 -1799.71,588.07 -503.48,127.89 -809.97,143.79 -1024.88,127.43 -214.77,-16.27 -337.79,-64.84 -366.49,-165.78 -28.55,-100.86 37.09,-254.01 674.78,-494.81zm1214.14 1475.08c-27.78,-103.17 29.26,-154.33 370.99,-246.03 341.78,-91.56 968.01,-223.47 1460.46,-302.98 492.46,-79.52 850.82,-106.6 1047.99,-65.73 197.27,41.04 233.18,150.14 115.85,280.26 -117.23,130.21 -387.69,281.45 -870.35,409.57 -482.6,128.28 -1177.23,233.32 -1580.91,208.24 -403.73,-25.09 -516.28,-180.04 -544.03,-283.33zm-8041.19 -1274.37c-632.07,-521.11 -1235.51,-1069.91 -1809.43,-1643.75 41.79,1.59 88.89,9.72 140.53,24.96 316.12,93.29 796.44,451.41 1523.72,717.49 727.28,266.11 1701.62,440.24 2268.88,337.52 567.33,-102.55 727.71,-481.78 629.87,-994.64 -97.86,-512.75 -453.72,-1158.89 -1638.24,-1721.51 -1184.55,-562.51 -3197.45,-1041.38 -4563.85,-1370.19 -444.13,-106.82 -819.93,-197.87 -1137.43,-279.22 -230.18,-324.01 -452.58,-652.82 -667.35,-986.49 163.88,-13.42 320.23,-44.16 438.2,-116.71 313.13,-192.46 358.26,-680.42 82.78,-1237.06 -67.95,-137.23 -155.4,-278.67 -260.27,-423.32 -32.24,-42.66 -64.47,-85.33 -247.14,-285.33 -182.67,-199.99 -515.79,-557.32 -786.46,-810.42 -252.66,-236.24 -450.91,-381.68 -645.52,-521.07 -0.07,0.64 -0.16,1.26 -0.25,1.9 -13.74,-10.57 -27.56,-21.14 -41.36,-31.67 -190.49,-145.42 -386.33,-288.85 -579.96,-426.67 -1325.62,-3110.1 -2042.23,-6480.77 -2065.95,-9918.03 7.21,-376.54 14.47,-753.05 21.67,-1129.59 -1.47,1 -2.97,2.02 -4.48,3.01 2.49,-67.2 5.26,-134.41 8.31,-201.65 124.98,-2769.66 703.08,-5566.17 1778.4,-8289.41 475.02,-1202.97 1030.98,-2349.85 1658.5,-3437.5 -8.4,37.44 -16.62,75.04 -24.67,112.81 549.96,-859.04 1099.88,-1718.07 1675.67,-2510.61 480.61,-661.52 979.23,-1276.73 1480.81,-1884.25 -11.42,1.15 -22.79,2.39 -34.15,3.73 109.72,-122.54 220.51,-243.88 332.36,-364.05 2437.02,-2618.37 5376.85,-4674.49 8601.59,-6073.48 6039.95,-2620.32 13080.22,-2936.52 19688.27,-327.23 6608.22,2609.35 11533.18,7650.18 14153.37,13690.11 2060.05,4748.49 2695.54,10115.22 1605.33,15404.12 -66.34,321.95 -139.1,643.59 -218.32,964.8 -1.94,-22.32 -3.96,-44.49 -6.03,-66.55 -54.99,201.63 -124.49,448.92 -214.96,762.17 -293.77,1017.22 -808.51,2730.03 -1308.26,3935.21 -499.72,1205.18 -984.43,1902.73 -1469.15,2600.26 -1214.62,2004.49 -2677.12,3798.22 -4330.8,5356.5 39.66,-276.23 92.73,-614.25 131.16,-963.22 67.42,-610.76 90.02,-1254.98 53.51,-1669.79 -36.35,-414.77 -131.8,-599.98 -414.51,-537.86 -282.66,62.28 -752.74,371.99 -1079.07,864.74 -326.17,492.81 -508.79,1168.74 -787.03,2033.46 -278.26,864.82 -652.07,1918.29 -874.37,2494.28 -38.15,98.76 -71.86,183.5 -103.84,257.61 -1033.18,709.67 -2115.54,1342.16 -3236.78,1892.91 -7.65,-163.59 39.53,-439.58 158.78,-683.08 136.18,-278.11 366.24,-513.99 320.65,-732.25 -45.47,-218.09 -366.68,-418.63 -1053.94,-252.73 -687.13,165.91 -1740.18,698.29 -2471.35,1415.83 -656.46,644.38 -1053.43,1438.13 -1410.06,1951.01 -1848.81,515.63 -3760.28,826.9 -5699.52,918.03 79.3,-43.66 171.52,-90.27 278.99,-139.86 547.61,-252.57 1490.62,-586.25 2094.41,-874.68 603.8,-288.29 868.48,-531.58 1052.21,-743.45 183.86,-211.83 286.73,-392.55 270.35,-604.45 -16.39,-211.9 -152.14,-455.19 -944.89,-489.08 -792.62,-33.73 -2242.27,141.91 -3430.7,536.54 -1188.35,394.77 -2115.71,1008.6 -2758.75,1476.37 -378.39,275.36 -658.51,500.08 -884.45,675.08 -1193.37,-146.94 -2387.23,-379.79 -3573.78,-701.53l71.3 -4.1c591.34,-29.83 1759.8,-0.54 2413.5,-121.75 653.79,-121.05 792.69,-392.91 428.14,-737.14 -364.6,-344.09 -1232.66,-760.55 -2248,-924.5 -1015.25,-163.76 -2177.87,-74.92 -3195.9,-18.57 -856.24,47.39 -1610.28,72.05 -2295.1,-33.64 -1000.64,-500.04 -1956.1,-1058.82 -2864.03,-1670.2 83.65,-19.43 196.21,-30.35 343.51,-29.09 477.72,4.26 1320.91,136.94 2554.86,360.82 1233.96,223.89 2858.64,538.71 4177.49,400.88 1318.83,-137.7 2331.56,-728.14 2914.75,-1151.15 583.22,-423 736.84,-678.44 669.69,-842.02 -67.22,-163.45 -354.95,-234.93 -527.15,-266.08 -172.09,-31.1 -228.42,-21.66 -46,-123.51 182.44,-101.88 603.66,-314.72 892.53,-632.76 288.83,-317.9 445.36,-740.78 298.99,-1104.23 -146.31,-363.28 -595.3,-666.84 -1065.97,-715.8 -470.59,-48.77 -962.92,157.11 -1209,260.05 -246.14,103.09 -246.14,103.09 -257.58,-1.51 -11.35,-104.52 -34.1,-313.78 -177,-512.43 -142.79,-198.59 -405.68,-386.7 -914.85,-498.3 -509.09,-111.42 -1264.48,-146.2 -1964.61,-27.55 -700.06,118.67 -1344.98,390.87 -1803.76,778.71 -458.66,387.89 -731.15,891.3 -1031.24,1357.57 -299.94,466.32 -627.56,895.51 -1038.33,1202.08 -410.86,306.7 -904.99,490.77 -1606.62,492.99 -642.21,2.03 -1458.12,-148.53 -2190.87,-426.84zm-6286 -4076.3c1198.47,1724.92 2598.91,3320.72 4183.51,4747.8l15.35 36.32c408.26,967.31 1067.1,2607.73 1745.41,3945.05 678.31,1337.31 1376.38,2371.59 1903,2958.88 526.75,587.31 882.3,727.73 1109.5,685.69 227.33,-42 326.49,-266.19 264.04,-801.91 -62.42,-535.73 -286.49,-1382.74 -623.11,-2184.73 -336.52,-801.93 -785.64,-1558.89 -1103.69,-2074.26l-13.28 -21.57c1556.17,1022.03 3239.63,1901.09 5039.42,2611.78 662.56,261.6 1329.15,495.86 1998.62,703.16 195.44,227.25 406.08,487.48 629.24,777.32 518.95,673.85 1106.79,1506.5 2083.04,2302.86 976.29,796.5 2340.99,1556.6 3163.32,1928.75 822.43,372.19 1102.62,356.39 1245.58,181.02 143.04,-175.31 148.84,-510.23 -274.07,-1067.16 -422.84,-556.76 -1274.27,-1335.5 -2116.34,-2031.57 -626.33,-517.68 -1247.41,-989.58 -1715.49,-1339.98 912.58,173.39 1826.9,299.45 2739.81,378.95 293.49,114.3 585.96,230.07 868.32,343.87 1313.52,529.24 2407.56,1014.01 3450.63,1694.54 1043.04,680.5 2035.09,1556.95 2979.87,2045.85 944.87,489.07 1842.63,590.67 2423.2,387.83 580.53,-202.72 843.91,-709.72 582.22,-1234.51 -261.57,-524.78 -1048.42,-1067.31 -2135.74,-1475.57 -1087.3,-408.26 -2475.33,-682.38 -3540.32,-987.08 -792.84,-226.75 -1406.69,-470.42 -1800.61,-675.69 944.7,-15.51 1884.37,-79.57 2815.47,-190.99 173.33,35.88 344.21,74.1 509.51,114.74 1094.98,269.06 1950.11,638.26 2999.02,810.17 1049.02,171.93 2291.91,146.31 3006.79,-129.81 714.84,-276.09 901.95,-802.89 271.79,-1114.95 -601.12,-297.71 -1945.45,-399.9 -2675.16,-492.92 1235.65,-343.13 2445.12,-771.02 3619.42,-1280.47 646.64,-280.54 1282.3,-586.21 1906.1,-915.21 103.55,15.81 213.72,31.64 331.66,46.67 787.58,100.25 1919.76,167.98 2731.75,46.05 812.09,-121.89 1303.94,-433.3 1416.13,-784.25 112.13,-350.82 -155.31,-740.85 -818.3,-849.98 -304.92,-50.14 -693.54,-40.73 -1075.77,-7.61 886.85,-599.12 1740.77,-1250.99 2556.57,-1953.33 766.49,-126.96 1820,-292.03 2521.99,-530.79 845.85,-287.59 1180.74,-682.23 1298.31,-1046.82 117.67,-364.41 17.84,-698.72 -275.6,-809.41 -258.1,-97.21 -665.95,-21.4 -1211.69,124.52 2215.34,-2418.68 4034.09,-5275.5 5310.46,-8507.9 2799.88,-7090.76 2460.49,-14645.95 -351.65,-21128.07 -2812.03,-6482.1 -8097.04,-11891.62 -15188.05,-14691.61 -7090.78,-2799.91 -14645.95,-2460.52 -21128.1,351.62 -6482.13,2812.15 -11891.72,8097.29 -14691.6,15188.06 -1462.12,3702.76 -2067.73,7531.96 -1912.66,11268.93 86.94,935.38 173.86,1870.77 260.76,2806.14 353.24,2437.04 1030.12,4809.34 2003.52,7053.04 321.83,741.79 676.33,1469.4 1062.07,2180.83 -33.74,275.67 -109.52,547.09 -169.02,839.73 -105.99,521.84 -159.67,1111.62 -117.81,1739.31 41.9,627.67 179.56,1293.04 350.91,1766.42 171.33,473.36 376.44,754.5 620.91,882.55 244.42,128.2 528.05,103.29 705.38,-132.33 177.31,-235.5 248.13,-681.75 254.05,-1190.5 5.62,-472.01 -44.93,-997.89 -38.59,-1297.47z"/>
 </g>
</svg>
