<?xml version="1.0" encoding="UTF-8"?>
<!DOCTYPE svg PUBLIC "-//W3C//DTD SVG 1.1//EN" "http://www.w3.org/Graphics/SVG/1.1/DTD/svg11.dtd">
<!-- Creator: CorelDRAW 2020 (64-Bit) -->
<svg xmlns="http://www.w3.org/2000/svg" xml:space="preserve" width="215.9mm" height="279.4mm" version="1.1" style="shape-rendering:geometricPrecision; text-rendering:geometricPrecision; image-rendering:optimizeQuality; fill-rule:evenodd; clip-rule:evenodd"
viewBox="0 0 21590 27940"
 xmlns:xlink="http://www.w3.org/1999/xlink"
 xmlns:xodm="http://www.corel.com/coreldraw/odm/2003">
 <defs>
  <style type="text/css">
   <![CDATA[
    .fil0 {fill:#A2662E}
   ]]>
  </style>
 </defs>
 <g id="Capa_x0020_1">
  <metadata id="CorelCorpID_0Corel-Layer"/>
  <path class="fil0" d="M-151591.9 -56409.67c79.69,678.54 186.98,1411.94 312.19,2158.02 -124.65,126.34 -235.13,288.15 -345.59,485.21 -308.49,-550.34 -617.14,-825.41 -1234.48,-825.41 -156.94,0 -307.16,26.11 -445.24,73.91 -58.61,-429.97 -108.48,-870.18 -147.07,-1321.22 728.36,-662.69 1393.66,-1325.56 1726.36,-1988.04 31.93,453.47 75.97,924.87 133.83,1417.53zm51415.7 -1246.42l15.53 -163.48c59.15,-643.62 95.89,-1288.01 106.51,-1947.85 9.15,-588.22 -1.85,-1183.88 -33.96,-1760.9 48.54,3.37 97.81,4.08 147.65,2.43 211.41,-7.12 387.78,-43.48 539.87,-109.54 9.31,248.01 15.49,498.64 17.9,751.13 7.08,760.23 -18.45,1565.28 -75.22,2385.65 -37.28,537.28 -88.82,1079.01 -153.92,1616.84 -165.56,-255.47 -357.03,-513.75 -564.36,-774.28zm-50131.79 -9320.67c-181.75,450.83 -350.82,905.28 -503.47,1361.16 -98.92,-213.47 -264.63,-387.41 -530.38,-540.24 -317.8,-182.87 -674.42,-223.21 -983.28,-139.77 95.19,-325.67 193.33,-634.13 295.05,-928.61 904.14,-273.02 1735.55,-581.51 2274.65,-1032.37 -194.25,423.44 -379.58,850.78 -552.57,1279.83zm46087.63 21063.87c274.32,-448.6 553.9,-932.88 847.26,-1475.56 143.87,-265.55 292.22,-546.99 442.09,-840.35 242.77,7.47 499.17,-60.84 797.97,-181.74 -52.46,316.11 -63.08,579.82 -4.12,814.01 -243.7,588.41 -507.01,1175.29 -790.5,1749.72l-66.07 132.69c-432.22,-106.74 -845.53,-180.86 -1226.63,-198.77zm3436.92 -7936.59c19.78,-85.46 38.82,-170.58 57.27,-255.1 80.29,22.2 167.04,39.19 261.48,50.76 127.28,15.47 252.31,14.38 372.11,-1.89 -22.6,102.65 -45.89,205.3 -69.78,308.32 -183.64,790.88 -400.85,1590.34 -657.08,2434.94 -256.96,19.05 -509.29,41.8 -753.56,71.13 56.89,-148.95 111.2,-297.11 163.08,-443.96 262.77,-743.3 464.87,-1463.64 626.48,-2164.2zm-460.77 -12918.11c-100.19,-254.34 -206.2,-514.49 -318.91,-780.42 334.05,152.84 751.13,158.99 1136.3,-17.74 69.44,-31.9 132.86,-65.48 191.47,-100.96 93.68,354.75 179.18,722.03 258.1,1111.71 76.88,380.29 149.84,795.89 220.2,1256.28 -267.98,274.32 -518.63,548.07 -736.18,820.54 -66.82,-275.08 -140.91,-541.18 -221.34,-802.8 -156.96,-511.16 -335.34,-993.74 -529.64,-1486.61zm-1623 -4365.88c608.94,-392.09 819.08,-1150.3 469.92,-1693.37 -533.36,-828.17 -1849.56,-1152.92 -3289.32,-1398.28l-83.04 -93.5c-359.4,-402.71 -700.92,-761.6 -1045.43,-1119.52 -352.85,-366.72 -713.41,-737.69 -1122.83,-1131.46 -413.36,-397.68 -873,-815.32 -1416.62,-1269.01 -557.61,-465.4 -1210.01,-973.92 -1871.95,-1458.58 -123.54,-90.51 -247.83,-180.1 -372.32,-269.08 -49.62,-155.28 -125.94,-316.7 -225.05,-491.75 670.15,23.14 1089.84,-106.35 1429.88,-666.6 99.84,-164.77 162.9,-340.57 191.44,-515.98 129.15,80.61 254.76,159.74 376.41,237.37 192.03,122.43 374.18,240.72 547.53,355.87 170.58,1584.76 397.32,3090.94 1261.34,3714.24 523.47,378.06 1292.13,208.63 1715.74,-378.86 142.58,-197.61 226.03,-381.98 259.97,-567.11 354.56,402.73 696.25,820.56 1039.46,1240.08l311.82 378.45c611.75,744.97 1234.86,1504.29 1814.47,2455.68 306.25,502.74 606.32,1070.99 884.39,1641.65 132.31,271.53 258.08,540.09 376.4,800.4 -336.85,818.52 -607.42,1606.57 -647.91,2289.03 -134.2,-270.2 -276.04,-543.23 -426.26,-818.86 -190.15,-348.76 -392.08,-699.44 -600.71,-1043.74 136.06,-37.87 275.07,-102.27 422.67,-197.07zm-2829.26 27393.55c306.61,395.26 696.62,497.35 1276.43,490.45 -62.69,105.42 -117,205.83 -161.77,303.05 -436.12,672.55 -870.21,1281.86 -1274.23,1798.41 -465.61,595.12 -896.12,1073.79 -1311.17,1486.98 -409.24,407.94 -811.03,757.09 -1219.72,1094.85 -376.58,311.1 -752.24,607.46 -1141.71,885.9 105.44,-524.98 186.79,-1087.05 267.79,-1648.95l-479.43 -125.61c145.57,-132.31 289.81,-265.72 432.41,-398.8 661.18,-617.3 1290.44,-1239.89 1815.77,-1790.58 510.75,-535.4 921.13,-999.7 1277.01,-1434.14 180.48,-220.38 351.4,-439.29 518.62,-661.56zm-8991.57 8033.65c551.82,-343.56 1116.54,-710.45 1702.32,-1122.13 182.14,-128.01 366.71,-260.9 554.25,-399.37 -243.14,473.83 -331.23,845.94 -174.11,1253.89l-191.84 82.87c-664.73,283.63 -1354.84,547.87 -2033.92,783.41 -634.51,220.01 -1267.33,418.77 -1942.49,598.28l429.2 -226.54c564.13,-305.32 1105.35,-627.21 1656.59,-970.41zm-20880.62 1264.32c793.86,312.02 1594.07,593.42 2359.41,828.59 766.59,235.5 1488.98,422.67 2184.69,572.34 695.18,149.68 1372.58,265.19 2045.87,356.25 669.57,90.5 1334.11,156.96 2049.2,192.04 518.06,25.38 1062.4,34.15 1654.56,23.52 -549.22,136.41 -1105.36,251.56 -1672.87,333.47 -757.04,109.35 -1537.07,162.54 -2333.54,168.9 -805.65,6.31 -1634.77,-34.17 -2479.03,-111.41 -119.62,-11 -239.8,-22.77 -360.37,-35.28 -470.82,-745.15 -990.18,-1316.19 -1619.99,-1491.83 -622.22,-173.89 -1284.86,250.82 -1479.86,948.01l-16.07 61.22c-458.71,-96.11 -889.79,-199.69 -1280.22,-308.47 -646.43,-180.27 -1187.24,-375.84 -1696.68,-605.4 -237.04,-106.56 -467.7,-220.38 -699.44,-343.16 5.78,-914.04 -74.28,-1741.88 -393.22,-2330.27 453.09,250.97 923,493.2 1409.15,727.24 749.44,360.69 1539.24,703.9 2328.41,1014.24zm-8304.24 -5155.83c102.45,102.26 206.03,203.78 310.73,304.19 511.33,490.44 1054.35,965.37 1641.67,1415.31 441.72,338.49 909.57,663.96 1402.94,977.29 -300.44,30.04 -603.31,167.78 -844.97,409.82 -275.46,276.37 -395.45,543.61 -409.24,850.41 -467.12,-323.98 -928.25,-658.22 -1352.8,-981.61 -514.12,-391.33 -960.31,-756.72 -1405.22,-1155.92 -446.56,-400.84 -906.01,-848.73 -1444.78,-1404.64 -400.47,-413.16 -844.61,-886.62 -1303.51,-1413.8 822.21,523.1 2113.24,761.21 3405.18,998.95zm-3567 -4170.12c161.42,210.49 331.28,429.93 508.94,656.33 -155.46,30.4 -314.84,95.15 -486.15,199.27 -514.48,313 -759.72,885.9 -635.42,1387.33 -502.37,-630.59 -996.94,-1312.65 -1441.99,-2032.99 -130.82,-211.61 -257.92,-427.54 -381.62,-646.82 367.99,-639.17 700.34,-1266.94 900.2,-1852.55 182.88,344.5 375.3,662.52 579.83,971.89 291.33,440.43 606.52,861.46 956.21,1317.54zm-3123.37 -6914.88c200.06,842.57 406.28,1594.81 624.43,2273.73 -170.42,-10.46 -348.05,10.27 -524.03,66.06 -529.06,168.13 -770.56,464.65 -914.24,949.7 -235.13,-591.95 -446.19,-1172.73 -634.31,-1725.49 -236.42,-694.93 -436.66,-1346.03 -608.21,-1979.99 314.11,303.27 654.3,606.32 994.33,909.59 331.61,-295.6 663.02,-591.2 970.59,-886.82 30.42,133.61 61.02,264.83 91.44,393.22zm-1904.25 -11041.31c272.48,-56.92 545.11,-114.03 812.54,-173.91 -29.1,248.19 -53.76,499.54 -73.53,754.86 -43.31,557.04 -64.22,1140.39 -59.35,1763.89 -226.36,-242.42 -567.31,-396.77 -948.56,-396.77 -319.31,0 -555.94,73.53 -752.82,220.77l2.98 -45.14c67.92,-1030.5 203.22,-2130.62 382.2,-3200.47 35.64,-213.68 73.13,-425.68 112.14,-635.61 138.49,549.93 331.47,1131.09 524.4,1712.38zm7746.99 -14112.11c-146.67,153.76 -294.28,312.96 -441.5,476.82 -431.29,-524.6 -1159.85,-640.1 -1629.56,-256.79 -800.92,652.96 -914.04,2149.43 -985.11,3697.8 -257.38,402.71 -499.59,806.17 -728.93,1210.78 -238.7,420.79 -464.5,843.67 -679.86,1268.97 -55.22,-380.5 -314.47,-743.3 -716.4,-939.24 -231.04,-112.52 -434.64,-158.99 -631.36,-148.75 292.45,-532.2 598.5,-1056.8 910.71,-1568.69 369.86,-606.11 745.52,-1190.42 1116.32,-1744.86 373.62,-559.07 746.28,-1094.14 1135.2,-1618.71 392.43,-529.24 796.88,-1042.6 1231.3,-1551.15 98.91,-116.43 199.5,-232.9 302.13,-349.35 959.94,145.03 1884.26,246.33 2610.58,104.88l-119.08 103.4c-460.73,403.09 -916.08,834.35 -1374.44,1314.89zm22042.71 -6889.69c825.98,150.59 1715.21,341.51 2524.21,527.55 739.33,170.03 1391.39,331.63 1971.39,490.64 591.22,162.37 1130.69,327.71 1636.26,502.91 493.98,171.13 958.47,353.84 1443.45,583.4 114.96,54.27 230.66,111.19 348.05,171.11 266.09,1115.77 632.27,2065.82 1321.44,2483.5 551.98,334.78 1304.65,104.28 1679.72,-515.09l19.42 -32.65c627.96,461.14 1247.88,945.04 1781.44,1390.3 532.39,444.34 975.43,846.5 1369.19,1225.31 397.87,382.75 751.31,746.1 1097.47,1106.07 293.56,305.12 580.57,605.77 854.71,906.41 -188.86,692.36 -360.73,1373.3 -438.89,1994.37 -68.42,732.97 -14.75,1148.69 179.5,1759.61 25.19,49.62 52.45,97.79 82.5,144.24 349.15,543.26 1126.59,666.22 1735.51,274.14 510.96,-328.63 649.07,-716.22 634.12,-1303.69 334.07,520.1 651.33,1053.44 932.54,1569.61 285.69,524.39 540.07,1039.65 769.8,1542.94 226,495.11 432.54,989.85 624.41,1476.53 189.41,480.36 361.27,944.63 507.59,1420.91 145.02,471.38 268.73,966.85 365.4,1520.91 13.06,75.2 25.58,151.34 37.72,228.42 -64.22,203.6 -96.33,406.07 -89.42,607.42 7.84,236.08 94.04,453.13 235.17,632.47 7.45,90.67 14.16,181.94 20.51,273.55 44.79,652.96 61.2,1320.13 51.12,1963 -5.99,377.18 -20.89,749.42 -44.04,1119.51l-169.81 -193.7c-1443.67,1001.73 -2887.54,2001.99 -3029.54,3162.56 -78.55,641.03 440.42,1232.78 1159.07,1320.89 650.93,79.85 1011.67,-170.78 1408.01,-711.41 41.08,100.42 83.26,193.37 127.68,278.61 -48.53,247.86 -101.17,497.35 -159.02,748.15 -153.6,665.69 -346.17,1351.86 -597.35,2062.33 -111.42,315.17 -233.82,633.74 -363.72,951.54 -572.9,154.72 -1044.5,390.94 -1344.01,764.96 -384.96,480.52 -284.6,1208.11 215.15,1667.4 -138.85,270.03 -277.1,531.29 -412.02,779.89 -331.61,611.87 -637.12,1137.03 -930.3,1608.42 -119.97,192.94 -238.66,378.26 -356.99,558.18 -285.89,166.63 -466.54,450.66 -525.71,772.38 -280.09,395.26 -573.82,787.54 -930.86,1223.47 -350.46,427.72 -746.46,876.37 -1229.6,1383.03 -512.8,537.46 -1127.89,1145.99 -1775.45,1750.63 -296.35,276.75 -598.31,551.83 -898.93,817.58 -1115.61,-232.9 -2123.88,-304.39 -2792.17,138.26 -538.56,356.65 -651.48,1135.55 -251.73,1739.29 84.91,128.37 173.37,232.7 267.61,316.68 -535.76,373.62 -1054.76,709.88 -1562.72,1026.2 -538.94,335.54 -1064.83,648.49 -1605.81,941.3 -542.16,293.16 -1102.57,568.82 -1711.29,829.52 -616.75,264.24 -1282.45,514.5 -1970.13,755.39l-20.5 7.3c-923.96,-577.59 -1804.43,-965.93 -2558.51,-794.62 -560.21,126.9 -923.77,685.64 -884.58,1304.43 -238.88,14.38 -472.1,26.13 -697.74,35.27 -834.91,33.42 -1569.83,30.05 -2257.31,-3.53 -683.38,-33.42 -1322.53,-97.59 -1968.95,-184.94 -642.71,-87.14 -1295.87,-198.55 -1974.81,-345.04 -680.76,-146.87 -1378.88,-327.14 -2106.47,-550.72 -735.85,-225.99 -1513.88,-499.93 -2293.72,-806.56 -770.71,-303.05 -1538.09,-636.34 -2262.72,-985.12 -730.24,-351.59 -1417.92,-719.04 -2061.17,-1104.8 -112.62,-67.47 -223.97,-135.63 -334.11,-204.53 -614.32,-436.8 -1228.63,-873.61 -1842.95,-1310.42 -416.74,-338.32 -810.49,-689.54 -1186.13,-1050.06 -222.84,-213.89 -438.39,-429.98 -648.17,-647.4 372.71,-1318.06 601.49,-2547.67 116.65,-3344.36 -335.33,-552.17 -1109.43,-694.76 -1728.42,-318.9 -445.45,270.96 -617.69,592.12 -657.66,1048.97 -303.96,-379.77 -594.72,-753.37 -865.71,-1107.03 -338.31,-441.13 -642.69,-847.41 -919.62,-1266.34 -272.46,-412.06 -521.05,-840.18 -753.17,-1332.64 -234.95,-498.66 -454.61,-1064.09 -664.56,-1712.58 -209.97,-648.33 -414.1,-1394.2 -618.07,-2253.21 -76.5,-322.47 -152.28,-656.88 -226.18,-998.22 437.05,-531.65 725.17,-1063.52 725.17,-1595.19 0,-607.63 -552.93,-1100.67 -1234.26,-1100.67l-3.02 0c-106.88,-654.07 -199.83,-1304.82 -272.45,-1923.44 -105.59,-899.31 -165.12,-1708.3 -184.73,-2452.31 -19.43,-741.96 0,-1436.76 51.87,-2106.14 28.18,-365.75 66.26,-721.07 114.41,-1068.95 909.57,-264.95 1662.93,-619.92 2003.7,-1212.25 303.23,-526.62 69.79,-1229.78 -520.84,-1569.6 -290.75,-167.21 -542.87,-218.74 -799.48,-178.96 163.11,-504.64 350.65,-1015.21 557.05,-1526.93 246.5,-611.33 520.87,-1223.63 813.09,-1829.01 292.6,-606.32 602.23,-1202.73 934.78,-1789.11 236.96,-417.83 485.2,-830.43 746.62,-1237.61 1332.45,192.39 2572.69,272.08 3278.5,-303.82 471.19,-383.86 503.85,-1124.18 73.13,-1652.12 -390.2,-478.5 -798.34,-543.6 -1419.76,-435.02 52.08,-132.09 93.51,-255.46 121.69,-372.66 282.53,-331.61 567.45,-648.49 850.19,-944.83 441.9,-463.36 876.39,-875.03 1312.5,-1256.68 435.91,-381.25 881.75,-739.2 1343.79,-1092.45 443.41,-339.08 904.18,-675.16 1358.98,-995.4 466.17,-326.78 937.94,-642.34 1387.66,-930.1 341.69,-218.89 659.5,-413.91 983.83,-595.86 653.33,477 1296.06,900.23 1898.46,1119.88 861.61,257.51 1698.83,392.98 1925.87,-655.78 57.69,-197.62 69.98,-416.15 25.95,-638.41 -119.99,-605.78 -449.94,-854.71 -1049.71,-1050.46l28.19 -24.26c295.38,-106.56 603.5,-211.99 919.98,-313.88 663.83,-213.69 1370.51,-414.13 2080.24,-577.2 1402.22,-322.68 2823.47,-498.85 3933.5,-636.39l441.47 -55.03c408.7,-51.33 769.06,-96.68 1125.49,-125.61 668.84,1063.15 1368.84,1963.75 2211.95,2127.08 596.61,115.68 1186.17,-333.31 1315.48,-1002.32 69.24,-357.41 24.07,-627.81 -123.55,-872.83l248.19 44.42zm-13821.3 -2004.65c-895.02,373.43 -1781.06,786.24 -2632.8,1218.06 -823.34,417.28 -1614.78,853.2 -2360.51,1308.37 -747.56,456.65 -1451.5,934.39 -2098.3,1435.28l-1.11 0.92c-48.53,-141.65 -129.92,-282.91 -249.87,-430.14 -430.73,-528.32 -1162.08,-645.16 -1633.13,-260.91 -746.23,608.38 -895.54,1948.85 -969.81,3381.52 -138.31,155.82 -273.23,311.64 -404.77,466.88 -458.34,538.97 -874.85,1066.32 -1268.8,1597.81 -397.49,536.15 -778.57,1083.31 -1160.59,1654.94 -384.98,575.71 -768.83,1172.12 -1138.34,1777.69 -363.52,595.85 -717.73,1206.68 -1051.2,1823.81 -100.8,-306.08 -293.18,-528.32 -652.61,-703.55 -612.67,-298.77 -1325.52,-97.97 -1591.84,448.45 -460.39,943.5 89.38,2379.33 685.26,3838.13 -101.14,312.78 -199.7,642.13 -295.43,991.69 -266.28,971.14 -508.53,2086.18 -699.6,3227.72 -183.65,1098.39 -322.87,2230.79 -393.02,3295.24l-8.02 125.78c-202.68,-162.18 -446.76,-243.17 -781.75,-243.17 -681.32,0 -1234.25,493.01 -1234.25,1100.64 0,979.36 977.11,1958.54 2062.06,2937.89 55.45,648.12 131.96,1265.64 222.84,1858.33 19.59,127.47 39.93,253.98 60.84,379.76l-0.17 8.22c0,186.83 35.8,373.62 100.75,560.41 97.05,516.74 208.28,1026.76 337.04,1543.88 205.48,825.58 455.14,1662.55 762.85,2567.08 131.41,386.32 273.45,785.3 426.45,1191.56 -151.35,-3.55 -313.9,22.03 -495.09,79.5 -690.28,219.26 -1090.96,896.13 -896.14,1511.59 329.74,1039.08 1747.1,1733.48 3237.59,2404.35 108.8,189.79 220.6,377.9 335.21,563.39 572.35,926.38 1208.87,1777.56 1838.53,2536.69 624.78,753.56 1252.73,1428.37 1805.33,1998.46 544.32,561.72 1018.15,1023.04 1492.15,1448.34 475.53,426.6 938.33,806.17 1459.72,1203.31 360.92,275.07 757.86,564.13 1171.05,853.95 -244.5,43.48 -466.93,165.73 -695.35,394.49 -511.33,513.02 -554.99,1298.51 -98.34,1754.59 827.63,825.61 2581.82,722.96 4335.84,620.31 10.45,-189.24 21.11,-378.48 30.42,-566.37 116.24,56.9 233.07,111.58 351.58,164.77 552,247.84 1135,459.08 1829.78,652.79 504.42,140.51 1065.19,271.69 1657.13,388.92 92.58,152.63 220.05,302.13 379.24,460.55 -651.32,158.24 -1020.61,396.18 -1197.18,1027.15 -194.61,697.57 151.91,1403.88 773.54,1577.83 1125.84,314.47 2605,-633.95 4084.09,-1582.51 -164.2,-334.79 -328.45,-669.23 -496.03,-992.05 776.7,64.02 1542.02,96.46 2289.99,90.7 847.57,-6.91 1669.62,-62.34 2457.49,-175.98 787.89,-113.64 1294.38,-237.78 1548.93,-298.03 254.54,-60.26 506.48,-124.85 756.51,-192.94 527.03,-143.53 1063.94,-308.49 1605.09,-480.76 49.47,16.81 100.98,33.05 154.37,48.9 -497.9,449 -709.73,833.8 -565.12,1472.98 160.5,706.13 801,1162.78 1430.62,1020.23 1140.22,-258.65 1990.46,-1796.19 2840.68,-3333.91l-104.88 -74.65 152.66 -25.93c867.17,-148.56 1643.51,-318.18 2377.48,-510.57 726.14,-190.37 1406.7,-403.47 2091.41,-640.86 714.53,-247.82 1426.69,-519.72 2095.86,-805.42 146.7,-62.71 292.08,-126.15 435.21,-190.55 395.24,244.82 882.31,269.1 1260.04,19.23 358.1,-237.19 618.63,-622.17 817.36,-1100.47 281.82,-172.8 549.23,-349.35 807.15,-529.83 476.99,-334.03 904.68,-668.81 1320.28,-1012.01 420.66,-347.68 839.04,-712.12 1281.69,-1153.08 437.04,-435.21 892.39,-941.69 1387.67,-1574.67 227.32,-290.75 462.63,-607.29 700.74,-944.68 387.41,511.33 1054.57,691.97 1565.53,397.87 1012.98,-583.73 1371.65,-2303.58 1730.11,-4023.83 -320.04,-105.97 -640.07,-211.98 -955.47,-309.95 214.62,-435.96 417.84,-878.41 609.85,-1322.74 541.39,311.82 1208,231.21 1569.46,-219.28 730.99,-912.35 438.94,-2644.92 146.67,-4377.64l-74.82 3.92c223.95,-756.74 415.05,-1471.26 576.65,-2167.38 188.68,-813.46 340.2,-1608.62 459.99,-2422.46 119.08,-809.16 208.46,-1644.08 266.14,-2474.73 57.1,-825.75 82.86,-1654.32 75.18,-2455.04 -4.25,-452.39 -18.84,-887.75 -41.2,-1305.2 296.68,404.77 623.65,600.71 1175.12,582.42 723.87,-24.64 1292.86,-567.89 1271.4,-1213.22 -39.56,-1168.37 -1389.56,-2292.94 -2739.88,-3417.28l-156.8 149.67c-38.81,-219.11 -79.1,-432.58 -121.48,-641.8 -102.83,-508.14 -213.68,-971.34 -335.16,-1408.76 -65.1,-234 -133.25,-461.87 -206.38,-689.37l6.69 -74.63c541.77,395.08 961.83,523.47 1557.69,250.43 658.22,-302.13 973.4,-1023.01 704.5,-1609.94 -472.72,-1029.76 -2064.53,-1546.11 -3691.27,-2046.62l-123.01 -255.47c-285.14,-585.25 -598.64,-1177.37 -928.02,-1718.18 -608.93,-999.5 -1255.95,-1787.97 -1891.01,-2561.33l-308.1 -378.43c-454.75,-555.93 -906.92,-1108.88 -1406.11,-1645.59 369.66,-38.64 655.19,-197.82 919.42,-563.58 423.65,-587.47 342.29,-1369.97 -181.01,-1748.02 -805.04,-580.78 -2163.25,-395.26 -3605.05,-93.67 -239.23,-161.65 -496.22,-329.77 -773.71,-506.71 -740.49,-471.93 -1632.13,-1007.34 -2551.23,-1525.95 -847.24,-478.3 -1700.99,-934.56 -2462.2,-1305.38 -821.3,-400.29 -1570.19,-721.09 -2298.2,-985.13 -133.04,-48.33 -265.18,-94.63 -396.55,-139.05 387.23,-258.08 587.65,-565.44 609.12,-1090.94 28.91,-723.7 -470.99,-1331.14 -1116.15,-1357.45 -907.69,-36.4 -1847.3,718.28 -2793.83,1649.51 -229.15,-36.57 -461.32,-70.19 -696.84,-101.16 -777.25,-101.89 -1584.19,-173.73 -2425.79,-218.71 -870.97,-46.64 -1787.42,-65.14 -2719.21,-46.84 -858.62,16.8 -1722.99,65.3 -2567.24,151.72 -606.5,61.96 -1205.17,143.49 -1799.89,246.52 13.06,-130.63 4.46,-272.85 -27.27,-432.39 -132.5,-668.67 -723.49,-1114.86 -1319.76,-996.7 -899.65,178.2 -1632.5,1197.12 -2337.72,2356.74 -759.34,251.22 -1520.55,538.98 -2269.63,851.71zm2231.76 143.52c840.68,628.74 1671.7,1209.85 2431.03,1428.55l-201.92 45.54c-729.66,167.76 -1463.28,376.04 -2156.72,599.24l-68.49 22.21c-5.59,-54.49 -14.18,-110.86 -25.73,-169.65 -132.54,-668.63 -723.53,-1114.84 -1319.78,-996.71 -1026.93,203.4 -1836.7,1502.81 -2635.77,2855.76 -304.74,173.94 -596.42,353.66 -901.53,549.05 -433.13,277.13 -913.87,599.62 -1419.98,953.06 -457.74,320.96 -927.82,664.16 -1388.59,1016.48l-42.02 32.28c61.22,-340.94 -31.89,-723.88 -284.55,-1033.68 -314.84,-386.1 -641.41,-502.9 -1082.22,-476.77 111.8,-91.06 225.62,-181.21 341.33,-270.79 616.58,-477.58 1292.87,-936.24 2014.7,-1377.04 723.9,-441.92 1493.29,-865.54 2294.83,-1271.78 828.39,-420.07 1693.53,-822.82 2570.84,-1188.95 625.15,-260.88 1253.13,-501.99 1874.57,-716.8zm7400.78 680.6c-223.4,25 -454.24,54.31 -701.89,85.84l-441.48 53.38c-685.83,85.08 -1488.99,184.56 -2342.04,325.27 232.53,-273.95 341.14,-670.71 260.13,-1078.64 -104.66,-528.69 -369.49,-785.47 -833.76,-972.47 751.48,-147.79 1506.9,-259.19 2275.56,-337.79 825.6,-84.32 1663.85,-131.72 2490.75,-147.97 898.54,-17.71 1793.72,0.75 2653.51,46.84 820.71,43.86 1603.75,113.27 2353.01,211.62l8.99 1.13 -8.21 8.57c1116.12,1356.9 2231.35,2713.96 3399.74,2760.82 645.14,26.12 1192.49,-539.7 1221.24,-1263.23 5.39,-133.61 -1.86,-253.96 -21.83,-364.07 564.68,220.01 1157.55,481.85 1804.38,797.03 689.72,336.1 1419.19,721.1 2129.66,1116.51 -760.12,116.1 -1607.52,376.04 -2454.95,636.19l80.83 432.21c-409.24,-181.58 -817.38,-338.16 -1250.33,-488.16 -522.89,-181.41 -1081.45,-352.52 -1694.85,-520.87 -624.83,-171.33 -1286.71,-336.08 -2007.63,-501.81 -797.57,-183.46 -1695.02,-375.27 -2568.18,-534.68l-136.44 -24.61c157.67,-159.95 261.25,-367.82 317.08,-655.94 129.48,-669.23 -249.34,-1305.42 -846.12,-1421.08 -1080.53,-209.38 -2395.64,793.28 -3710.89,1796.17l23.72 39.74z"/>
 </g>
</svg>
