<?xml version="1.0" encoding="UTF-8"?>
<!DOCTYPE svg PUBLIC "-//W3C//DTD SVG 1.1//EN" "http://www.w3.org/Graphics/SVG/1.1/DTD/svg11.dtd">
<!-- Creator: CorelDRAW 2020 (64-Bit) -->
<svg xmlns="http://www.w3.org/2000/svg" xml:space="preserve" width="215.9mm" height="279.4mm" version="1.1" style="shape-rendering:geometricPrecision; text-rendering:geometricPrecision; image-rendering:optimizeQuality; fill-rule:evenodd; clip-rule:evenodd"
viewBox="0 0 21590 27940"
 xmlns:xlink="http://www.w3.org/1999/xlink"
 xmlns:xodm="http://www.corel.com/coreldraw/odm/2003">
 <defs>
  <style type="text/css">
   <![CDATA[
    .fil0 {fill:#A2662E}
   ]]>
  </style>
 </defs>
 <g id="Capa_x0020_1">
  <metadata id="CorelCorpID_0Corel-Layer"/>
  <path class="fil0" d="M-182329.03 265701.29c241.03,-94.43 598.93,-149.08 817.78,-176.4 218.57,-27.34 297.82,-27.34 317.84,37.33 19.76,64.67 -19.72,193.7 0.28,384.97 19.72,191.5 99,445.25 151.21,624.07 52.21,179.09 77.13,283.23 -57.07,357.65 -134.19,74.66 -427.4,119.53 -678.45,104.4 -251.05,-14.86 -459.63,-89.28 -625.98,-260.79 -166.65,-171.5 -291.05,-439.83 -291.05,-641.13 0,-201.27 124.4,-335.7 365.44,-430.1zm-17243.63 -6411.65c241.05,-96.82 544.02,-136.63 760.45,-131.72 216.11,5.13 345.46,54.65 315.69,196.41 -29.76,141.72 -218.84,375.18 -313.25,603.76 -94.43,228.88 -94.43,452.61 -163.93,661.19 -69.8,208.83 -208.85,402.79 -367.9,462.29 -159.07,59.82 -338.18,-14.88 -496.94,-171.51 -159.11,-156.33 -298.39,-394.92 -350.59,-611.38 -52.24,-216.14 -17.3,-409.82 89.53,-584.02 106.85,-173.97 285.64,-327.9 526.94,-425.02zm10368.44 5636.84c181.25,34.92 375.2,199.13 472.02,519.66 96.87,320.61 96.87,797.52 29.76,1247.4 -67.08,449.88 -201.26,872.44 -422.25,1145.66 -221.28,273.47 -529.67,397.93 -810.48,382.78 -280.78,-14.88 -534.27,-168.78 -685.77,-472.06 -151.77,-303.25 -201.26,-755.55 -231.01,-1150.78 -30.04,-394.97 -39.79,-733.13 -7.3,-939.56 32.17,-206.09 106.6,-280.5 228.57,-315.39 121.75,-34.89 290.54,-29.76 449.63,-67.09 159.02,-37.34 308.11,-116.9 467.19,-203.95 159.02,-86.89 328.13,-181.27 509.64,-146.67zm-15517.99 -12245.38c305.68,-64.63 638.69,30.01 817.78,223.72 178.79,193.94 203.41,487.22 -10.28,690.89 -213.74,203.97 -666.04,318.14 -984.17,236.18 -318.11,-81.96 -501.79,-360.33 -454.46,-611.38 47.07,-251.04 325.41,-474.78 631.13,-539.41zm25604.24 13221.45c61.93,156.61 67.05,300.78 -12.46,427.41 -79.56,126.87 -243.76,236.43 -449.86,263.77 -206.43,27.31 -454.76,-27.61 -631.12,-132 -176.66,-104.19 -281.09,-258.4 -246.19,-427.43 34.64,-168.83 208.56,-352.78 404.94,-459.63 196.43,-106.85 415.03,-136.91 584.08,-67.37 169.08,69.81 288.39,238.63 350.61,395.25zm-14465.4 -5377.72c464.76,146.65 842.38,375.48 996.61,534.58 154.19,159.05 84.41,248.3 -62.25,370.06 -146.63,122.01 -370.33,275.92 -509.38,489.66 -139.33,213.99 -193.94,487.2 -218.83,718.21 -24.9,231.29 -19.76,420.4 -149.1,517.25 -129.29,96.85 -392.51,101.97 -730.38,2.42 -338.17,-99.27 -750.94,-303.23 -1066.39,-623.83 -315.71,-320.54 -534.53,-757.99 -489.64,-1158.08 44.66,-400.09 353.04,-763.14 782.91,-912.2 429.83,-149.07 981.71,-84.67 1446.45,61.93zm26289.43 156.64c178.82,-134.17 491.8,-149.06 805.07,-59.78 313.25,89.54 626.21,283.53 765.55,516.98 139.05,233.7 104.43,506.93 -4.84,683.34 -109.58,176.65 -293.29,256.16 -514.54,268.63 -221.27,12.41 -479.63,-42.23 -705.79,-181.51 -226.43,-139.07 -420.1,-362.78 -494.76,-601.42 -74.68,-238.57 -29.79,-492.02 149.31,-626.24zm-23468.46 -2256.67c322.97,-74.39 665.74,-19.72 894.59,196.38 228.59,216.14 342.71,594.07 357.9,974.16 14.88,380.36 -69.8,763.12 -191.53,1061.25 -121.75,298.38 -280.8,512.12 -504.52,621.39 -223.7,109.31 -511.81,114.44 -747.96,71.98 -236.18,-42.25 -420.12,-131.5 -584.07,-345.19 -164.21,-213.72 -308.12,-551.89 -330.57,-922.23 -22.47,-370.06 77.11,-772.85 278.37,-1076.13 201.25,-302.97 504.51,-506.96 827.79,-581.61zm-10639.46 -1712.38c216.1,-64.67 439.85,-10.02 584.04,79.51 144.18,89.54 208.54,213.72 163.91,340.6 -44.9,126.88 -198.85,255.91 -300.79,409.82 -101.99,154.22 -151.52,333.29 -260.82,457.47 -109.53,124.14 -278.33,193.93 -437.4,151.46 -159.07,-42.17 -308.4,-196.12 -370.32,-382.51 -62.23,-186.38 -37.33,-405.23 79.53,-606.48 116.85,-201.26 325.41,-385.25 541.85,-449.87zm-2864.86 -8908.44c101.47,90.82 212.08,172.79 331.65,245.6 -8.79,55.37 -16.75,93.37 -29.16,115.72 -34.88,62.19 -104.43,2.42 -193.67,-151.77 -34.54,-59.36 -72.05,-132.8 -108.82,-209.55zm45973.99 -317.96c-104.39,146.88 -318.12,325.7 -631.11,328.1 -313.25,2.74 -725.8,-171.5 -1068.82,-434.95 -155.13,-119.18 -296.02,-256.6 -417.11,-394.61 -222.31,-352.62 -444.61,-705.22 -583.85,-944.71 -139.24,-239.48 -195.39,-365.85 -146.41,-392.63 48.99,-26.78 203.14,46.01 574.79,259.55 371.66,213.55 960.84,567.84 1550.02,922.12 198.5,80.87 378.07,158.54 506.35,227.24 315.42,169.1 320.54,283.25 216.14,429.89zm522.09 -827.54c-154.21,5.17 -387.61,-39.75 -526.69,-67.1 -116.46,-22.81 -166.98,-33.4 -359.05,-119.07 -203.02,-241.53 -406.04,-483.06 -528.62,-686.31 -122.58,-203.25 -164.71,-368.22 -185.77,-459.49 -21.06,-91.26 -21.06,-108.81 87.75,-108.81 108.83,0 326.45,17.55 599.14,99.9 272.69,82.35 600.46,229.5 928.2,376.65 87.86,56.58 154.86,119.47 201.18,191.35 116.85,181.53 101.73,420.12 57.09,566.73 -44.63,146.64 -119.28,201.3 -273.23,206.15zm-46688.64 -7964.37c211.29,-69.53 235.91,49.8 156.39,382.79 -79.57,333.01 -263.23,879.7 -484.53,1299.57 -221.27,420.11 -479.63,713.65 -648.71,865.14 -169.05,151.71 -248.58,161.46 -310.55,101.71 -62.22,-59.54 -107.11,-188.59 -129.27,-402.57 -22.48,-213.68 -22.48,-511.78 49.74,-802.63 71.96,-290.8 216.14,-574.31 487.2,-845.05 270.8,-270.81 668.44,-529.42 879.73,-598.96zm4210.6 14767.42c265.95,-79.51 603.81,-69.49 854.88,0 251.02,69.83 415.22,198.85 504.76,357.89 89.29,159.11 104.14,348.18 -74.64,514.53 -179.1,166.68 -551.9,310.59 -864.86,377.65 -313.28,67.09 -567,57.4 -735.83,-94.37 -169.04,-151.5 -253.74,-444.78 -198.84,-676.03 54.65,-231.05 248.38,-400.12 514.53,-479.67zm1319.59 1918.56c208.84,-69.54 362.77,-39.49 492.09,82.22 129.3,121.75 233.73,335.44 253.72,549.16 19.74,213.72 -44.89,427.72 -181.49,594.08 -136.88,166.66 -345.45,285.94 -574.05,275.92 -228.83,-10.03 -477.19,-149.08 -601.34,-353.04 -124.45,-203.69 -124.45,-472.31 7.31,-691.16 131.7,-218.59 394.93,-387.41 603.76,-457.18zm18125.79 7766.41c241,-14.89 469.88,94.38 638.94,327.84 168.8,233.75 278.36,591.61 278.36,880.02 0,288.37 -109.56,506.95 -231.27,621.36 -121.75,114.43 -255.92,124.18 -457.19,44.64 -201.3,-79.54 -469.9,-248.34 -643.83,-526.68 -173.93,-278.4 -253.46,-666.31 -166.35,-929.78 86.82,-263.22 340.28,-402.57 581.34,-417.4zm10106.78 -4309.18c216.15,-94.38 474.78,-109.27 673.61,-47.31 198.82,62.23 337.86,201.5 320.55,293.22 -17.33,92.01 -191.28,136.92 -362.78,265.94 -171.51,129.29 -340.54,343.26 -434.99,499.64 -94.38,156.64 -114.43,256.2 -208.81,283.51 -94.44,27.34 -263.23,-17.57 -367.66,-171.77 -104.39,-153.92 -144.18,-417.4 -77.08,-636.27 67.08,-218.58 241.02,-392.52 457.16,-486.96zm-29882.69 -7704.42c84.39,171.53 89.52,385.22 10,588.93 -79.54,203.98 -243.76,397.66 -447.46,512.09 -203.69,114.43 -447.42,149.05 -636.25,67.09 -188.82,-81.97 -323.26,-280.79 -350.58,-529.43 -27.32,-248.58 52.21,-546.7 238.58,-733.36 186.38,-186.39 479.92,-260.8 708.51,-233.46 228.56,27.31 392.76,156.63 477.2,328.14zm39421.43 7284.32c166.37,-275.93 608.93,-444.73 976.85,-414.99 367.61,29.76 660.87,258.62 834.78,497.22 173.97,238.63 228.9,486.96 186.68,710.68 -42.47,223.7 -181.51,422.56 -377.92,531.84 -196.37,109.29 -449.88,129.3 -720.68,67.07 -271.06,-62.23 -559.12,-206.12 -757.96,-469.64 -198.85,-263.45 -308.41,-646.27 -141.75,-922.18zm-4938.3 5276.51c44.64,-10.01 64.65,84.41 17.3,479.66 -47.32,395.2 -161.49,1090.99 -255.9,1491.1 -94.68,400.39 -169.07,504.53 -236.16,449.86 -67.07,-54.64 -126.87,-268.37 -201.25,-588.91 -74.66,-320.6 -163.96,-748.25 -226.15,-976.86 -62.23,-228.59 -96.88,-258.35 27.3,-327.89 124.19,-69.52 407.67,-179.08 584.06,-291.03 176.36,-111.76 246.19,-225.92 290.8,-235.93zm3248.35 -4458.99c42.22,273.51 -17.56,487.46 -126.88,708.51 -109.27,221.26 -268.33,449.87 -499.34,586.49 -231.28,136.86 -534.55,181.49 -840.23,139.29 -305.7,-42.17 -613.82,-171.5 -733.12,-507.2 -119.28,-335.45 -49.77,-877.04 293.24,-1222.49 343.01,-345.45 959.29,-494.78 1339.62,-402.79 380.37,91.94 524.27,424.97 566.71,698.19zm2805.84 -4108.15c303.27,-156.61 611.36,-126.6 845.1,-2.4 233.44,124.43 392.5,343.01 410.08,611.38 17.31,268.59 -107.1,586.49 -261.06,810.16 -154.17,223.74 -338.09,353.03 -576.72,427.45 -238.58,74.66 -531.84,94.66 -730.66,52.2 -198.84,-42.18 -302.98,-146.36 -384.93,-332.73 -82.23,-186.38 -141.78,-455.03 -22.49,-760.71 119.32,-305.7 417.4,-648.73 720.68,-805.35zm-13617.59 10632.01c186.37,-96.84 270.79,-231 566.72,-111.71 295.67,119.29 802.61,492.07 1118.32,797.75 315.44,305.71 439.86,544.32 350.3,591.39 -89.53,47.34 -392.49,-96.61 -772.84,-260.8 -380.38,-163.92 -837.54,-347.9 -1187.84,-484.77 -350.62,-136.61 -594.34,-225.88 -571.89,-300.53 22.46,-74.65 310.58,-134.21 497.23,-231.33zm3895.18 -3362.27c362.77,-149.09 760.43,-179.09 1073.71,-67.39 312.96,112.02 541.55,365.76 531.53,668.73 -10.02,303.29 -258.3,656.29 -404.96,827.53 -146.64,171.51 -191.56,161.76 -360.32,228.85 -169.08,67.11 -462.33,211.29 -753.14,233.47 -290.78,22.47 -578.9,-76.81 -762.84,-298.12 -183.95,-221.27 -263.48,-564.02 -139.07,-869.73 124.17,-305.68 452.06,-574.3 815.09,-723.34zm-8412.01 3998.28c144.2,-116.57 367.89,-171.22 626.49,64.93 258.36,236.16 551.57,762.86 633.57,1160.51 81.95,397.67 -47.11,666.05 -248.34,807.55 -201.51,141.76 -474.78,156.88 -705.79,47.33 -231.28,-109.28 -420.34,-342.77 -581.87,-601.38 -161.51,-258.34 -295.69,-541.85 -290.55,-713.38 4.9,-171.51 149.1,-230.99 253.5,-350.3 104.44,-119.3 168.81,-298.39 312.99,-415.26zm-2393.27 941.97c121.71,-44.64 226.15,49.76 355.44,116.87 129.35,67.07 283.22,106.85 407.67,126.6 124.16,20 218.61,20 206.15,164.2 -12.45,144.19 -131.75,432.55 -280.8,668.72 -149.06,236.19 -328.13,419.85 -536.7,501.84 -208.83,82.2 -447.46,62.2 -604.05,-59.56 -156.67,-121.69 -231.07,-345.43 -208.58,-546.69 22.15,-201.25 141.46,-380.34 270.77,-561.89 129.05,-181.23 268.33,-365.19 390.1,-410.09zm3787.5 -2450.66c-52.22,164.2 -181.28,298.68 -355.19,430.39 -173.94,131.77 -392.81,260.8 -586.48,347.62 -193.94,87.11 -363.02,132.01 -509.62,87.11 -146.65,-44.64 -271.09,-178.79 -362.79,-288.37 -91.98,-109.3 -151.78,-193.68 -139.32,-320.54 12.42,-126.88 97.12,-295.7 325.7,-472.37 228.6,-176.34 601.36,-360.04 897.3,-417.4 295.66,-57.07 514.23,12.43 636.26,144.16 121.72,131.77 146.36,325.45 94.14,489.4zm2613.18 -2189.05c59.55,325.7 29.52,787.73 -144.44,1076.12 -173.94,288.38 -492.06,402.56 -676.02,472.05 -183.93,69.8 -233.44,94.7 -367.64,44.95 -134.17,-49.81 -353.04,-173.99 -502.08,-315.75 -149.06,-141.7 -228.57,-300.54 -218.57,-419.82 9.74,-119.3 109.28,-198.85 293.22,-273.49 183.71,-74.41 452.33,-144.19 646.28,-275.94 193.66,-131.73 313,-325.45 402.55,-504.53 89.25,-178.81 149.05,-343.02 253.47,-330.56 104.16,12.46 253.46,201.53 313.23,526.97zm2868.61 -1719.68c223.69,47.32 407.38,196.37 516.97,375.18 109.25,179.11 143.88,387.67 129.02,569.18 -14.89,181.5 -79.28,335.42 -230.76,464.76 -151.76,129.32 -390.38,233.72 -638.96,188.82 -248.62,-44.64 -506.95,-238.35 -596.48,-519.4 -89.55,-280.78 -10.03,-648.44 161.48,-859.73 171.51,-211.27 435,-265.94 658.73,-218.81zm1627.69 -832.42c290.83,-188.81 678.74,-139.32 932.19,-30.02 253.46,109.55 372.79,278.37 412.57,464.74 39.74,186.39 0,390.38 -111.76,576.74 -111.97,186.41 -295.94,355.23 -467.45,442.03 -171.5,87.13 -330.54,92.29 -569.16,10.01 -238.58,-81.96 -556.71,-250.75 -618.69,-549.16 -62.18,-298.08 131.49,-725.53 422.3,-914.34zm2304.01 -1501.4c84.38,238.59 49.74,497.22 -54.65,668.49 -104.43,171.51 -278.38,256.14 -484.5,275.91 -206.41,20.01 -445,-24.88 -648.71,-169.06 -203.96,-143.94 -372.77,-387.66 -404.95,-648.7 -32.46,-260.81 71.67,-539.17 278.09,-676.07 206.13,-136.6 514.51,-131.48 770.41,-19.72 255.92,111.97 459.89,330.56 544.31,569.15zm1727.23 -1101.02c241.04,2.44 479.62,72.26 631.4,166.64 151.5,94.44 216.16,213.73 109.3,345.47 -106.87,131.73 -385.23,275.91 -571.58,492.07 -186.43,216.41 -281.08,504.52 -340.63,733.09 -59.77,228.89 -84.38,397.69 -181.22,432.58 -97.12,34.88 -265.92,-64.65 -397.68,-310.8 -131.71,-245.92 -226.41,-638.46 -216.39,-951.73 9.99,-313.22 124.16,-546.68 303.26,-696.06 178.8,-149.03 422.52,-213.67 663.54,-211.26zm2000.77 -1438.9c39.78,169.07 49.53,367.89 -27.31,529.41 -77.12,161.51 -241.31,285.95 -412.54,355.49 -171.53,69.5 -350.62,84.4 -516.98,-15.17 -166.65,-99.27 -320.54,-313.02 -392.53,-526.71 -72.22,-213.7 -62.47,-427.41 61.95,-588.94 124.18,-161.5 362.76,-271.05 566.75,-295.94 203.7,-24.89 372.51,34.89 491.81,134.19 119.28,99.53 189.07,238.61 228.85,407.67zm-29460.72 8582.03c330.57,42.47 594.06,211.24 780.45,330.54 186.4,119.33 295.68,189.1 275.9,313.28 -20.02,124.19 -169.04,303.28 -534.26,544.28 -365.46,241.05 -947.1,544.03 -1334.71,690.66 -387.95,146.63 -581.65,136.88 -755.54,62.22 -173.97,-74.38 -328.19,-213.72 -419.88,-400.11 -91.98,-186.37 -121.98,-419.83 32.2,-663.58 153.94,-243.48 492.08,-496.96 859.97,-666.05 367.64,-168.77 765.3,-253.46 1095.87,-211.24zm3183.71 -971.99c-64.64,268.63 -233.47,437.68 -447.15,507.2 -213.97,69.82 -472.32,39.79 -708.5,-20 -236.14,-59.53 -449.87,-148.76 -661.11,-280.53 -211.3,-131.74 -419.85,-305.96 -541.62,-537.26 -122,-231.04 -156.59,-519.1 49.81,-775.31 206.11,-255.9 653.29,-479.37 1075.82,-457.17 422.55,22.43 820.23,290.81 1039.06,608.92 218.61,318.13 258.35,685.78 193.69,954.15zm2721.42 -1513.32c464.77,7.58 802.61,176.43 986.6,402.55 183.93,226.15 213.95,509.65 37.58,775.59 -176.65,265.92 -559.41,514.26 -1011.72,650.88 -452.29,136.85 -974.4,161.76 -1262.5,164.2 -288.4,2.41 -343.01,-17.33 -375.22,-159.08 -32.46,-141.74 -42.18,-404.95 -91.99,-633.85 -49.75,-228.55 -139.29,-422.24 -134.16,-566.42 4.89,-144.23 104.14,-238.63 449.57,-363.06 345.45,-124.19 937.11,-278.08 1401.84,-270.81zm-14362.35 -3412.61c243.48,-57.06 487.2,22.45 626.54,121.73 139.04,99.54 173.67,218.88 173.67,348.18 0,129.29 -34.63,268.35 -121.45,437.4 -87.11,169.1 -226.45,367.63 -355.47,484.51 -129.3,116.88 -248.61,151.51 -425.01,119.3 -176.65,-32.16 -410.09,-131.71 -524.48,-320.54 -114.46,-188.82 -109.32,-467.21 14.83,-703.37 124.17,-236.13 367.94,-429.87 611.37,-487.21zm2597.26 -574.05c-97.12,203.98 -310.83,343.04 -512.09,439.89 -201.26,97.12 -390.35,151.77 -576.74,114.44 -186.41,-37.34 -370.08,-166.41 -469.34,-320.59 -99.59,-154.22 -114.72,-333.03 -47.61,-519.68 67.05,-186.38 216.42,-380.1 412.82,-509.38 196.08,-129.31 439.84,-193.68 655.96,-173.93 216.17,20 405.23,124.17 509.69,310.53 104.12,186.4 124.14,455.02 27.31,658.72zm2485.26 -233.74c-96.87,139.35 -151.76,129.61 -355.46,119.58 -203.7,-10.03 -556.73,-20.02 -819.95,-99.53 -263.47,-79.53 -437.7,-228.6 -474.78,-395.24 -37.34,-166.38 61.97,-350.34 270.8,-482.08 208.87,-131.72 526.99,-211.25 837.78,-179.08 310.59,32.45 613.58,176.62 695.78,392.81 81.98,216.41 -57.33,504.53 -154.17,643.54zm-6526.53 -2979.78c265.93,12.46 445.01,146.62 539.42,315.44 94.39,169.1 104.14,373.03 69.53,566.75 -34.9,193.95 -114.42,377.92 -243.47,549.43 -129.31,171.5 -308.4,330.57 -497.22,407.67 -188.82,77.12 -387.62,71.97 -564.04,-47.35 -176.62,-119.31 -330.54,-352.74 -372.76,-636.28 -42.47,-283.22 27.31,-616.22 238.58,-837.52 211.3,-221.01 564.06,-330.56 829.96,-318.14zm-4239.83 -5810.78c360.35,-57.08 777.76,-17.32 1038.8,106.85 261.05,124.46 365.19,333.02 434.98,499.36 69.55,166.66 104.14,291.1 49.49,335.72 -54.63,44.66 -198.51,10.03 -539.11,-99.53 -340.59,-109.31 -877.28,-292.98 -1235.22,-384.93 -357.85,-92 -536.96,-92 -474.75,-169.12 62.23,-77.1 365.23,-230.99 725.81,-288.35zm-705.77 -3961.77c350.31,241.3 588.93,569.17 693.34,852.4 104.41,283.51 74.4,522.1 -24.89,618.97 -99.57,97.12 -268.35,52.2 -561.56,-106.89 -293.29,-159.05 -710.96,-432.29 -1009.04,-772.87 -298.38,-340.56 -477.21,-747.99 -519.42,-949.52 -42.5,-201.26 51.94,-196.09 330.29,-116.58 278.39,79.52 740.7,233.46 1091.28,474.49zm-1163.21 -3437.25c295.67,129.31 494.51,293.53 648.69,529.42 153.93,236.18 263.47,544.55 318.13,768.02 54.64,223.69 54.64,363.03 -81.97,375.46 -136.88,12.45 -410.13,-102 -705.78,-278.34 -295.95,-176.42 -614.08,-414.99 -852.7,-690.95 -238.57,-275.93 -397.64,-588.88 -452.31,-765.56 -54.65,-176.35 -5.12,-216.13 216.15,-188.83 221.32,27.35 613.82,121.78 909.79,250.78zm5685.79 880.96c-118.03,128.86 -228.88,257.02 -332.39,384.42 -263.48,323.92 -482.46,645.6 -655.5,964.68 -139.95,257.44 -255.62,506.76 -346.66,747.47 -26.08,-25.22 -42.17,-78.57 -61.66,-158.96 -37.32,-153.94 -86.85,-407.68 -109.27,-606.53 -22.47,-198.82 -17.32,-342.73 173.93,-601.32 191.25,-258.38 569.15,-631.15 830.21,-847.56 260.81,-216.14 405,-275.7 482.06,-233.45 61.18,33.44 79.94,131.13 19.28,351.25zm-4921.31 -6588.92c196.37,320.84 136.62,633.81 27.3,897.31 -109.25,263.49 -268.35,477.2 -581.34,298.11 -313.25,-178.8 -780.69,-750.44 -1006.86,-1180.53 -226.17,-429.86 -211.29,-717.98 -94.43,-859.75 116.86,-141.73 335.44,-136.59 671.19,29.79 335.43,166.63 787.73,494.49 984.14,815.07zm51417.56 12323.55c-691.17,1749.46 -1571.7,3403.14 -2616.45,4936.17 -549.46,-74.61 -1173.51,-197.17 -1727.26,-183.63 -805.3,19.99 -1461.63,328.11 -1744.84,730.68 -283.21,402.78 -193.96,899.72 0,1197.85 193.67,298.38 492.08,397.94 720.68,303.23 228.57,-94.38 387.63,-382.51 571.6,-596.23 183.94,-213.68 392.77,-353.04 691.18,-338.13 176.87,8.93 385.47,72.21 561.02,160.42 -505.3,650.31 -1041.47,1275.49 -1606.6,1873.07 -134.15,-99.55 -250.5,-140.64 -395.76,-158.53 -169.34,-20.82 -377.93,-11.11 -477.21,-11.11 -99.52,0 -89.8,-9.71 -84.64,-129.01 4.84,-119.28 4.84,-348.17 -79.52,-581.91 -84.72,-233.43 -253.5,-472.04 -482.1,-611.36 -228.85,-139.04 -516.96,-178.81 -785.29,-188.83 -268.63,-9.72 -517.26,10.02 -780.71,144.22 -263.49,134.42 -541.61,382.75 -596.25,740.68 -54.64,357.89 114.18,825.35 198.83,1058.79 84.4,233.74 84.4,233.74 -114.43,243.48 -198.84,10.02 -596.48,30.04 -844.81,64.63 -248.62,34.93 -348.19,84.43 -437.45,149.1 -89.52,64.64 -169.04,144.18 -208.83,183.93 -39.74,39.79 -39.74,39.79 -129.3,-10.03 -89.55,-49.47 -268.35,-149.02 -506.94,-208.79 -238.62,-59.55 -537,-79.28 -805.34,-44.67 -268.35,34.92 -506.96,124.44 -720.67,293.52 -213.72,169.1 -402.8,417.44 -497.18,541.6 -94.44,124.4 -94.44,124.4 -268.39,139.3 -173.94,14.9 -521.83,44.65 -825.06,173.68 -303.27,129.32 -561.58,358.17 -666.02,686.04 -104.44,328.15 -54.65,755.84 -44.67,969.56 10.03,213.71 -19.98,213.71 -253.45,293.23 -233.74,79.53 -671.15,238.35 -924.63,501.85 -253.45,263.44 -323.25,631.37 -273.49,1014.14 49.79,382.81 218.82,780.19 532.09,1053.44 102.81,89.77 221.04,166.34 339.51,232.07 -562.41,193.73 -1133.45,367.91 -1712.93,522.13 32.76,-67.07 63.06,-140.39 88.48,-221.58 119.28,-382.79 122.81,-932.18 -78.97,-1420.75 -202.08,-488.59 -609.49,-916.01 -798.3,-985.52 -189.11,-69.51 -159.1,218.61 -223.76,526.73 -64.61,308.36 -223.71,636.23 -447.4,929.49 -223.74,293.51 -511.82,551.87 -849.71,651.16 -338.17,99.55 -726.06,40.05 -1093.72,139.3 -367.87,99.28 -715.77,357.88 -944.36,656.01 -228.57,298.39 -338.15,636.3 -571.61,318.13 -233.71,-317.86 -591.6,-1292.29 -1118.29,-1863.85 -526.99,-571.63 -1223.02,-740.45 -1695.08,-596.51 -472.31,144.17 -720.66,601.6 -735.52,1188.11 -12.46,483.16 133.88,1053.68 243.99,1472.98 -589.18,-39.24 -1172.7,-98.2 -1750.24,-177.17l3.79 -9.22c153.91,-352.76 487.78,-690.37 600,-1117.8 111.99,-427.4 2.74,-944.4 -370.05,-1327.15 -372.78,-382.81 -1009.04,-631.15 -1848.99,-626.25 -840.22,5.11 -1883.91,263.49 -2405.71,392.75 -522.09,129.36 -522.09,129.36 -467.44,-586.47 54.63,-715.78 164.17,-2147.38 -178.83,-3176.46 -343.05,-1028.78 -1138.33,-1655.04 -1839.28,-1824.12 -700.88,-168.81 -1307.11,119.3 -1774.31,760.45 -467.45,641.39 -795.3,1635.28 -959.23,2132.22 -164.24,497.22 -164.24,497.22 -372.78,353.03 -208.86,-144.15 -626.53,-432.26 -1118.62,-546.71 -492.06,-114.17 -1058.52,-54.61 -1341.77,-24.89 -283.48,30.06 -283.48,30.06 -179.09,-193.68 104.48,-223.72 313.02,-670.89 318.16,-1013.95 4.88,-343 -193.95,-581.6 -531.86,-700.86 -338.13,-119.32 -815.34,-119.32 -1053.92,-119.32 -238.62,0 -238.62,0 -208.58,-74.66 29.77,-74.42 89.3,-223.75 74.42,-432.59 -14.93,-208.55 -104.16,-476.91 -282.98,-670.88 -179.07,-193.67 -447.7,-313.01 -581.89,-372.76 -134.2,-59.54 -134.2,-59.54 -29.76,-183.97 104.4,-124.14 312.98,-372.53 387.66,-616.25 74.67,-243.47 14.88,-482.05 -198.84,-710.94 -213.71,-228.56 -581.31,-447.13 -979.02,-541.86 -397.62,-94.38 -825.34,-64.38 -1039.03,-49.46 -213.71,14.84 -213.71,14.84 -59.52,-183.99 153.93,-198.84 462.31,-596.49 581.61,-979.27 119.32,-382.8 49.54,-750.42 -114.46,-1118.32 -163.91,-367.93 -422.49,-735.59 -874.79,-795.35 -452.31,-59.53 -1098.33,188.82 -1510.89,586.51 -211.29,203.42 -361.12,446.05 -477.16,671.12 -155.55,-289.98 -305.95,-583.47 -450.7,-880l26.23 -96.57c153.95,-536.7 425.83,-980.36 765.57,-1326.62 126.29,-128.71 261.92,-243.85 405.23,-349.03 185.56,-281.36 371.12,-562.72 397.22,-805.2 26.08,-242.47 -107.29,-446.06 -316.14,-503.53 -207.82,-57.19 -490.38,30.33 -663.99,81.48 -110.68,41.6 -211.31,67.95 -300.75,78.71 -94.45,11.28 -177.3,5.22 -247.39,-17.72 -39.64,-12.98 -75.85,-31.4 -108.56,-55.16 59.44,-254.54 141.48,-543.31 244.66,-823.66 193.66,-526.71 462.29,-1023.93 531.84,-1242.78 31.87,-100.21 22.01,-141.9 -30.12,-136.61 -72.75,32.77 -106.48,48.66 -153.04,74.6 -66.08,36.81 -158.05,93.81 -331.25,202.93 -36.2,24.4 -73.9,50.12 -112.81,77 1.42,-2.85 2.86,-5.72 4.31,-8.58 -11.24,7.08 -22.73,14.34 -34.52,21.77 -269.53,170.14 -686.16,433.21 -897.97,543.69 -211.83,110.48 -218.84,68.37 -211.82,29.76 7.02,-38.62 28.07,-73.72 284.33,-621.3 256.24,-547.58 747.66,-1607.65 1036.31,-2291.72 288.64,-684.05 374.53,-992.13 460.39,-1300.19 46.32,-492.23 -3.23,-815.64 -177.75,-900.75 -193.96,-94.38 -542.1,104.44 -1019.03,442.31 -477.21,338.16 -1083.69,815.38 -1481.12,1267.67 -127.67,145.27 -233.97,288.11 -324.58,426.88 -31.13,-203.72 -59.81,-408.78 -85.78,-614.09 265.1,-294.29 569.16,-609.2 812.89,-926.27 362.8,-472.06 591.38,-949.24 745.58,-1570.62 153.9,-621.4 233.46,-1386.68 213.73,-1799.24 -20.06,-412.54 -139.34,-472.32 -571.65,-308.36 -363.04,137.94 -946.79,432.83 -1395.32,747.68 24.86,-1000.17 108.25,-1985.71 246.02,-2953.78 7.52,17.25 15.18,34.45 22.93,51.57 22.48,-147.82 48.95,-309.84 79.17,-487.95 157.47,-927.48 417.03,-2291.35 754.3,-3442.46 258.28,-881.48 562.11,-1638.22 828.7,-2247.29 -1.33,1.23 -2.66,2.45 -4,3.68 1280.53,-3073.47 3150.16,-5839.94 5468.28,-8158.11 4574.22,-4574.26 10894.05,-7403.61 17874.49,-7403.61 6980.41,0 13300.26,2829.35 17874.42,7403.61 4574.23,4574.22 7403.57,10894.14 7403.57,17874.68 0,107.08 -0.72,214 -2.05,320.76 -48.57,809.08 -97.14,1618.16 -131.68,2109.24 -9.59,136.15 -18.08,247.86 -25.82,341.91 3.94,-7.98 7.86,-15.94 11.79,-23.9 -18.77,173.6 -39.31,346.67 -61.58,519.21 -183.12,1418.46 -483.87,2800.08 -891.94,4134.74 -211.71,-426.22 -448.8,-874.09 -1034.8,-1236.6 -425.39,-166.83 -850.75,-333.67 -1276.14,-500.49 -198.18,-52.18 -405.41,-100.1 -615.85,-143.95 -970.07,-126.86 -1940.14,-253.74 -2470.82,-331.22 -530.65,-77.46 -621.92,-105.54 -667.55,-77.46 -45.64,28.08 -45.64,112.33 42.26,465 87.9,352.68 263.68,973.79 448.9,1453.19 185.2,479.42 379.83,817.12 574.47,1154.82 115.71,163.97 240.63,318.95 376.36,458.38 536.72,551.87 1242.5,860.28 1964.26,885.98 721.72,25.7 1459.12,-230.77 1936.33,-245.9l64.94 -0.54zm314.31 4390.28c595.15,-1035.27 1124.85,-2112.76 1583.39,-3227.32 369.5,-17.3 809.39,-85.47 1179.97,-102.23 551.59,-24.92 949.26,64.63 1336.93,-24.92 387.64,-89.26 765.56,-357.9 859.93,-696.03 94.45,-337.91 -94.37,-745.31 -417.41,-879.75 -323.25,-134.18 -780.4,5.14 -1262.51,183.97 -448.21,166.36 -917.57,366.83 -1268.97,410.38 1053.4,-2915.15 1628.24,-6059.12 1628.24,-9337.55 0,-7586.22 -3075.23,-14454.74 -8046.82,-19426.37 -4971.58,-4971.64 -11840.03,-8046.93 -19426.13,-8046.93 -7586.13,0 -14454.59,3075.29 -19426.15,8046.93 -4271.2,4271.22 -7142.76,9942.71 -7867.2,16266.71 -127.18,-219.96 -278.1,-428.81 -458.28,-614.4 -690.88,-710.62 -1814.36,-1078.27 -2365.95,-1242.47 -551.83,-163.96 -531.83,-124.15 -457.15,283.24 74.41,407.67 203.42,1183.23 491.79,1933.66 288.4,750.71 735.52,1476.25 1297.4,2012.95 435.03,415.8 938.15,718.5 1314.2,1069.36 7.85,764.23 46.79,1520.87 115.5,2268.85 -128.51,-34.61 -302.98,-97.41 -589.71,-192.06 -467.47,-153.92 -1232.78,-392.53 -1799.52,-531.82 -566.73,-139.08 -934.36,-178.85 -1073.44,-59.56 -139.29,119.34 -49.98,397.67 273.26,919.49 322.98,522.12 879.73,1287.45 1187.84,1695.11 308.12,407.67 367.93,457.19 233.72,457.19 -134.43,0 -462.29,-49.52 -646.23,-59.55 -183.97,-9.97 -223.75,20.03 -79.55,462.34 144.19,442.3 472.06,1297.39 934.38,1963.42 462.28,666.05 1058.79,1143.26 1609.27,1511.42 550.27,368.44 1054.52,627.9 925.16,697.38 -129.25,69.54 -891.86,-50.58 -1477.01,18.4 -585.41,69 -992.79,327.61 -1176.73,566.24 -183.98,238.57 -144.18,457.15 34.88,571.6 178.81,114.42 496.94,124.16 1029.07,228.56 531.83,104.44 1277.35,303.28 1956.11,536.74 454.76,156.63 879.45,329.21 1217.07,503.71 165.52,346.01 338.37,688.21 517.78,1026.08 -264.57,130.12 -689.29,232.65 -979.32,411.47 -350.58,216.39 -504.52,544.28 -531.83,845.11 -27.59,300.8 71.96,574.01 275.7,815.09 203.64,241.31 512.07,449.87 850.18,564.01 337.91,114.43 705.53,134.45 877.04,149.34 171.51,14.87 146.88,24.89 22.73,198.83 -124.41,173.93 -348.17,512.11 -437.72,849.98 -89.52,337.89 -44.63,676.01 179.1,964.13 223.47,288.36 626.24,526.97 949.24,618.98 323.01,91.95 566.75,37.34 688.46,9.99 121.77,-27.32 121.77,-27.32 161.52,57.08 39.75,84.66 119.28,253.46 236.17,412.55 116.85,159.05 270.77,308.36 330.57,382.76 59.51,74.68 24.91,74.68 -169.09,273.53 -193.96,198.81 -546.7,596.5 -680.88,931.94 -134.44,335.7 -49.79,608.92 146.61,832.64 196.14,223.71 504.52,397.67 832.66,484.51 327.85,87.12 676,87.12 849.99,87.12 173.94,0 173.94,0 241,121.71 67.12,121.76 201.27,365.5 365.5,534.27 163.91,169.09 357.6,263.5 651.11,293.27 293.24,29.77 685.78,-4.88 971.71,-151.47 285.66,-146.64 464.78,-405.27 554.29,-534.55 89.24,-129.08 89.24,-129.08 183.67,99.53 94.4,228.6 283.22,686.03 586.49,1103.46 303.22,417.4 720.63,795.32 964.41,1028.8 243.44,233.71 312.97,322.98 29.75,377.63 -283.53,54.93 -919.5,74.66 -1476.23,119.3 -556.72,44.91 -1033.89,114.72 -1332.03,328.39 -298.36,213.73 -417.66,571.38 -353.01,963.9 64.64,392.81 312.97,820.45 611.36,1004.45 298.09,183.92 646.26,124.15 929.47,-114.42 283.29,-238.63 502.1,-656.04 825.13,-934.43 322.99,-278.34 750.39,-417.66 1108.28,-427.64 357.9,-9.75 646.26,109.51 457.43,328.11 -188.79,218.87 -855.1,536.98 -1282.51,904.6 -427.39,367.93 -616.23,785.63 -541.57,1203.05 74.39,417.39 412.54,835.1 969.28,1023.91 556.44,188.83 1332.01,149.05 2201.99,-223.75 869.76,-372.75 1833.87,-1078.54 2316.19,-1421.56 482.03,-343.02 482.03,-323.02 482.03,144.17 0,467.21 0,1381.83 204.03,2177.17 203.66,795.31 611.07,1471.09 1138.06,1714.55 526.95,243.74 1172.95,54.92 1585.48,-213.41 412.54,-268.39 591.66,-616.54 735.84,-999.31 143.89,-382.54 253.46,-800.21 347.86,-1138.08 94.42,-337.91 173.95,-596.5 362.75,-720.68 188.84,-124.17 487.22,-114.45 770.46,-134.45 283.22,-19.74 551.87,-69.27 691.16,-233.48 139.05,-163.92 148.8,-442.28 59.52,-680.88 -51.39,-136.9 -135.53,-261.05 -201.81,-379.28 381.42,77.64 765.57,147.16 1152.39,209.12l37.62 51.41c278.37,372.74 753.39,822.38 1284.14,1076.93 530.73,254.57 1117.5,314.34 1410.76,344.11 293.22,29.75 293.22,29.75 159.06,288.11 -134.15,258.61 -402.78,775.6 -397.69,1213 4.9,437.44 283.26,795.31 686.04,909.5 402.53,114.43 929.23,-14.9 1371.79,-427.4 442.3,-412.58 800.22,-1108.61 979.29,-1456.54 178.8,-347.85 178.8,-347.85 278.36,-144.17 99.29,203.99 298.1,611.4 606.22,949.26 308.11,338.17 725.8,606.79 1118.61,621.65 392.51,14.89 760.14,-223.7 899.46,-556.71 139.04,-332.99 49.74,-760.73 59.77,-1158.39 9.74,-397.66 119.32,-765.28 357.9,-964.13 238.62,-198.85 606.22,-228.61 1177.83,-188.82 571.62,39.77 1347.21,149.05 1958.58,317.87 611.34,169.05 1058.52,397.93 1441.29,561.84 382.79,163.94 700.92,263.51 865.14,278.39 163.91,14.88 173.66,-54.62 -0.29,-402.54 -173.95,-347.87 -531.82,-974.42 -864.85,-1431.87 -277.29,-380.87 -537.51,-644.39 -728.75,-822.09 515.31,-163.94 1024.17,-342.76 1525.97,-535.65 260.24,125.26 564.02,246.96 878.1,294.33 526.7,79.56 1083.14,-49.78 1426.18,-183.97 342.99,-134.14 472.33,-273.48 631.38,-228.84 159.05,44.9 347.9,273.75 442.28,800.48 94.43,526.93 94.43,1352.05 139.36,1779.46 44.6,427.45 134.17,457.46 223.71,442.33 89.51,-14.88 178.79,-74.41 377.62,-442.33 198.84,-367.9 506.95,-1043.68 680.9,-1744.56 173.95,-700.93 213.72,-1426.47 280.83,-2009.71 66.79,-583.23 160.66,-1023.92 260.23,-1322.3 24.32,-73.3 48.95,-137.46 73.85,-195.87 364.37,-244.29 723.09,-496.94 1075.04,-758 172.01,14.08 361.37,28.67 546.95,10.83 362.75,-34.64 710.66,-193.72 1009.3,-542.42 298.68,-348.42 548.08,-886.51 672.78,-1155.64 124.7,-268.9 124.7,-268.9 303.28,-49.5 178.5,219.4 535.34,657.87 947.63,907.03 412,249.16 879.44,308.94 1272.22,179.65 392.5,-129.32 710.66,-447.2 835.09,-894.61 124.18,-447.44 54.38,-1023.94 -144.45,-1401.88 -198.85,-377.63 -526.73,-556.73 -690.64,-646.25 -164.19,-89.27 -164.19,-89.27 59.52,-223.44 223.71,-134.2 670.91,-402.83 899.75,-701.21 228.6,-298.08 238.3,-625.98 213.72,-939.24 -12.76,-158.79 -34.11,-313.52 -59.5,-455.54 217.47,-298.13 429.01,-600.85 634.32,-907.88 122.29,-7.05 251.05,-10.03 379.56,-8.37 412.52,5.12 819.9,54.63 1123.21,327.84 303.22,273.51 502.03,770.73 859.94,969.56 357.89,198.83 874.59,99.3 1138.08,-169.07 263.49,-268.38 273.47,-705.79 -64.4,-1073.7 -338.13,-367.65 -1023.9,-666.05 -1520.85,-974.16 -410.38,-254.3 -692.27,-515.34 -928.98,-660.61z"/>
 </g>
</svg>
