<?xml version="1.0" encoding="UTF-8"?>
<!DOCTYPE svg PUBLIC "-//W3C//DTD SVG 1.1//EN" "http://www.w3.org/Graphics/SVG/1.1/DTD/svg11.dtd">
<!-- Creator: CorelDRAW 2020 (64-Bit) -->
<svg xmlns="http://www.w3.org/2000/svg" xml:space="preserve" width="215.9mm" height="279.4mm" version="1.1" style="shape-rendering:geometricPrecision; text-rendering:geometricPrecision; image-rendering:optimizeQuality; fill-rule:evenodd; clip-rule:evenodd"
viewBox="0 0 21590 27940"
 xmlns:xlink="http://www.w3.org/1999/xlink"
 xmlns:xodm="http://www.corel.com/coreldraw/odm/2003">
 <defs>
  <style type="text/css">
   <![CDATA[
    .fil0 {fill:#A2662E}
   ]]>
  </style>
 </defs>
 <g id="Capa_x0020_1">
  <metadata id="CorelCorpID_0Corel-Layer"/>
  <path class="fil0" d="M-206316.06 35561.12c379.73,203.19 764.48,397.33 1154.78,582.92l-53.57 77.44c-373.44,-209.73 -741.33,-428.01 -1103.21,-655.09l2 -5.27zm4372.65 1868.19c517.02,169.25 1040.86,323.41 1570.95,461.96 -64.87,123.23 -117.69,254.99 -156.16,393.05 -492.14,-161.69 -977.97,-337.47 -1457.05,-526.58 22.63,-106.38 36.71,-216.02 42.26,-328.43zm8508.38 1350.67c1309.15,0 2597.22,-92.04 3857.6,-270.08 34.19,289.96 118.7,605.81 258.78,928.45 -967.43,107.12 -1950.18,162.45 -2946.03,162.45 -1627.04,0 -3220.11,-146.87 -4766.43,-428.27 17.85,-108.88 27.16,-220.53 27.16,-334.7 0,-99.09 -7.06,-196.66 -20.38,-291.72 1174.63,154.15 2372.67,233.87 3589.3,233.87zm13918.34 -3802.8c120.2,390.3 245.68,776.56 370.68,1148.99 -778.32,444.86 -1581.03,851.24 -2406.11,1216.64 -35.73,-339.25 -100.86,-643.28 -183.08,-903.04 -27.17,-85.5 -55.84,-166.24 -86.76,-242.18 789.64,-370.92 1558.65,-778.3 2305.27,-1220.41zm-37939.16 -34660.41c154.65,362.37 268.58,648.54 353.83,875.87 -1673.06,3561.63 -2609.05,7540.47 -2609.05,11738.56 0,1168.36 72.68,2319.61 213.5,3449.73 -325.66,-1668.78 -496.66,-3393.14 -496.66,-5157.72 0,-3984.36 870.34,-7764.28 2429.48,-11159.18l108.9 252.74zm7369.46 -8341.17c-509.49,-164.7 -1061.23,-210.23 -1575.49,-151.88 4755.62,-4506.92 11169.48,-7270.37 18226.85,-7270.37 5189.66,0 10031.31,1494.5 14121.52,4077.66 -3858.1,-2077.95 -8267.71,-3256.86 -12951.17,-3256.86 -6801.37,0 -13025.86,2485.84 -17821.71,6601.45zm36850.78 36349.6c-435.06,398.07 -825.61,973.19 -1114.03,1445.46 -101.11,105.12 -202.71,209.48 -305.55,312.59 -108.89,109.39 -218.78,217.77 -329.69,325.16 -47.53,-359.11 -143.84,-1045.38 -495.66,-1767.36 -360.35,-739.35 -988.79,-1515.39 -1885.04,-1607.68 -896.51,-92.54 -2061.09,498.68 -2606.28,1598.37 -545.2,1099.7 -471.26,2707.88 -27.65,4593.18 67.38,286.67 143.33,579.9 225.31,874.87 -822.57,496.17 -1674.32,949.33 -2551.71,1355.45 -160.44,-137.05 -345.79,-235.13 -558.79,-301.77 -552.48,-173.02 -1291.82,-136.04 -1855.36,261.29 -549.97,387.52 -932.97,1118.31 -1234.25,1411.27 -159.42,46.77 -319.37,92.29 -480.06,136.04 -136.55,-38.47 -286.17,-119.7 -476.04,-188.59 -406.62,-147.87 -997.85,-240.41 -1538.53,-81.49 -435.29,127.76 -837.66,418.46 -1021.22,908.08 -1287.3,192.62 -2604.28,292.71 -3944.87,292.71 -1357.97,0 -2691.78,-102.59 -3994.92,-300.01 -330.19,-417.44 -823.08,-682.49 -1374.07,-682.49 -316.84,0 -614.59,87.76 -873.1,241.66 -840.93,-203.44 -1666.54,-446.87 -2474.01,-728.53 -302.78,-608.55 -901.04,-1022.98 -1589.81,-1022.98 -227.09,0 -444.37,45 -644.3,127.24 -615.84,-280.14 -1219.14,-582.92 -1808.6,-907.82 -99.07,-964.4 -862.04,-1714.55 -1788.97,-1714.55 -250.72,0 -489.37,54.81 -706.15,153.9 -1260.39,-888.97 -2440.3,-1885.31 -3526.41,-2975.95 -904.05,-907.82 -1743.22,-1880.77 -2509.97,-2911.32 -2595.72,-4119.9 -4098.53,-9003.78 -4098.53,-14240.73 0,-3914.93 839.68,-7632.48 2348.02,-10981.37 93.04,-43.51 211.74,-102.1 364.13,-177.53 688.54,-341.01 2065.6,-1023.01 3650.66,-2278.61 1584.79,-1255.86 3377.79,-3085.6 3922.99,-4490.07 459.19,-1182.95 33.7,-2064.61 -689.8,-2595.98 4600.47,-3837.75 10513.14,-6146.28 16963.19,-6146.28 5626.22,0 10843.32,1756.3 15137.5,4751.86 94.55,907.82 768.76,1611.94 1587.06,1611.94 145.58,0 286.67,-22.37 420.71,-64.11 565.55,480.55 1111.01,984.26 1634.58,1509.85 118.18,118.68 235.38,238.89 351.55,359.85 -37.46,161.45 -57.33,330.94 -57.33,505.97 0,1086.88 769.26,1968.04 1718.32,1968.04 137.32,0 271.1,-18.62 399.1,-53.32l97.82 130.26c512,812.78 981.52,1655.46 1405.23,2524.31 -29.93,145.6 -45.77,296.99 -45.77,452.91 0,801.19 417.95,1490.49 1017.73,1797.54 524.83,1387.63 937.5,2830.59 1227.19,4317.81 -626.42,325.41 -1117.79,1048.39 -1124.85,2110.87 -7.55,1086.62 491.38,2528.08 870.36,3609.39 282.91,807.24 498.67,1413.8 643.78,1819.18 -197.65,2232.84 -668.93,4386.7 -1380.61,6427.16 -191.86,-204.7 -455.15,-442.08 -778.81,-594.73 -489.87,-231.11 -1118.04,-268.08 -1589.32,-194.14 -471.26,73.93 -785.59,258.76 -951.83,702.37 -166.48,443.6 -184.83,1145.97 -73.93,1848.34 110.64,702.37 351.06,1404.47 1145.72,2254.71 91.78,98.32 191.12,198.41 295.99,299.76 -719.72,1274.97 -1540.8,2484.56 -2452.37,3617.7 -161.46,95.31 -317.86,212.01 -468.75,350.32zm6463.39 -10543.31c307.54,-1264.17 528.33,-2562.28 655.58,-3888.05l311.57 -214 90.29 -62.37c-33.45,1329.04 -163.47,2633.44 -383.74,3907.41 -253.74,18.61 -477.05,102.34 -673.7,257.01zm-4321.85 9956.1c-110.39,-26.9 -219.54,-46.02 -326.91,-57.58 645.02,-868.33 1240.27,-1776.42 1781.44,-2719.19 249.47,209.98 509.48,416.44 765.99,612.34 -453.66,844.71 -951.07,1662.24 -1489.74,2449.1 -240.64,-129.75 -489.12,-225.57 -730.78,-284.67zm2081.46 1659.23c-156.42,-326.65 -376.71,-614.34 -632.71,-856.77 537.64,-784.09 1035.83,-1597.61 1492.01,-2437.28 186.57,132.28 361.6,252.47 518.53,357.08 831.61,554.5 1145.96,665.41 1626.52,-82.98 480.34,-748.64 1127.37,-2356.82 1478.68,-3881.5 351.06,-1524.95 406.38,-2966.4 103.11,-3823.92 -177.3,-500.94 -476.79,-802.7 -802.21,-970.69 266.31,-1530.71 406.39,-3104.7 409.91,-4711.12 929.7,-664.14 2063.09,-1524.42 2747.1,-2267.52 961.13,-1044.38 1035.07,-1857.39 730.28,-2365.63 -305.04,-508.48 -989.04,-711.67 -1617.24,-610.08 -628.42,101.6 -1201.54,508.24 -1487.97,711.68 -286.42,203.2 -286.42,203.2 -249.46,-64.63 36.96,-268.06 110.91,-804.22 46.27,-1256.87 -64.61,-452.91 -268.07,-822.56 -759.46,-1058.96 -89.51,-43.24 -188.84,-81.98 -295.22,-114.42 -377.96,-1456.53 -872.11,-2866.04 -1471.12,-4218.47 588.44,-312.59 996.34,-994.58 996.34,-1786.22 0,-1086.87 -769.26,-1968.05 -1718.31,-1968.05 -393.82,0 -756.44,151.65 -1046.16,406.89 -406.12,-655.59 -838.92,-1293.08 -1297.1,-1910.46l-66.39 -104.35c339.99,-359.62 553.25,-874.38 553.25,-1446.23 0,-1086.87 -769.27,-1968.04 -1718.33,-1968.04 -395.31,0 -759.44,152.89 -1049.64,409.9 -480.06,-566.56 -982.52,-1113.53 -1506.09,-1639.35l-96.05 -95.31c116.18,-253.99 182.3,-542.69 182.3,-849.49 0,-1010.92 -715.44,-1830.48 -1598.35,-1830.48 -416.19,0 -795.18,182.08 -1079.6,480.58 -4645.73,-3621.74 -10480.18,-5778.38 -16815.31,-5778.38 -7577.94,0 -14440.16,3085.33 -19407.52,8073.08 -572.36,574.86 -1119.57,1175.13 -1639.86,1798.78l-7.05 -96.3c-46.28,-637.74 -138.57,-1912.98 -600.52,-2790.86 -462.21,-877.91 -1293.83,-1358.47 -2180.78,-1155.03 -887.2,203.2 -1829.98,1090.39 -2162.68,2365.63 -332.7,1275.22 -55.33,2938.72 421.72,4498.36 288.43,943.29 650.06,1848.33 979.75,2624.9 -1823.95,3687.36 -2849.46,7842.98 -2849.46,12238.5 0,6162.59 2016.32,11853.46 5422.04,16443.63 1087.12,1721.34 2358.57,3313.41 3787.2,4748.07 630.95,633.48 1292.33,1236.25 1982.12,1805.84 -60.1,192.39 -92.79,398.09 -92.79,612.1 0,1064.48 805.97,1927.55 1800.05,1927.55 445.61,0 853.5,-173.53 1167.84,-460.96 422.73,266.07 853.24,520.8 1291.07,763.73 -11.07,86.5 -17.11,175.02 -17.11,264.81 0,1064.48 805.97,1927.55 1800.07,1927.55 555.24,0 1051.64,-269.34 1381.83,-692.31 586.19,232.85 1182.19,446.11 1787.24,638.99 158.93,890.46 889.97,1563.17 1767.85,1563.17 581.91,0 1099.21,-296 1428.39,-754.94 1655.95,313.1 3364.47,477.56 5110.95,477.56 1162.57,0 2308.53,-73.18 3433.12,-214.01 101.1,135.8 212.5,269.83 334.97,400.86 845.46,903.79 2212.96,1661.73 3035.54,2086.73 822.59,425.23 1099.7,517.53 1340.1,582.16 240.16,64.88 443.6,101.84 905.57,-572.85 461.96,-674.47 1182.94,-2060.84 1495.27,-3292.31 104.37,-412.42 163.22,-807.23 186.33,-1177.65 920.15,-393.05 1814.65,-835.16 2680.23,-1322.75 201.16,575.87 386.51,1090.39 526.82,1495.51 415.7,1201.3 434.31,1441.71 572.88,1654.19 138.55,212.5 397.33,397.33 1312.17,-55.31 914.88,-452.91 2486.1,-1543.56 3890.84,-2902.02 1404.46,-1358.46 2642.73,-2984.76 3280.47,-4370.88 637.48,-1386.37 674.44,-2532.09 257.76,-3402.45z"/>
 </g>
</svg>
