<?xml version="1.0" encoding="UTF-8"?>
<!DOCTYPE svg PUBLIC "-//W3C//DTD SVG 1.1//EN" "http://www.w3.org/Graphics/SVG/1.1/DTD/svg11.dtd">
<!-- Creator: CorelDRAW 2020 (64-Bit) -->
<svg xmlns="http://www.w3.org/2000/svg" xml:space="preserve" width="215.9mm" height="279.4mm" version="1.1" style="shape-rendering:geometricPrecision; text-rendering:geometricPrecision; image-rendering:optimizeQuality; fill-rule:evenodd; clip-rule:evenodd"
viewBox="0 0 21590 27940"
 xmlns:xlink="http://www.w3.org/1999/xlink"
 xmlns:xodm="http://www.corel.com/coreldraw/odm/2003">
 <defs>
  <style type="text/css">
   <![CDATA[
    .fil0 {fill:#A2662E}
   ]]>
  </style>
 </defs>
 <g id="Capa_x0020_1">
  <metadata id="CorelCorpID_0Corel-Layer"/>
  <path class="fil0" d="M-202553.86 313784.49c-179.54,582.84 -310.47,1144.57 -382.15,1450.86 -71.89,306.19 -84.61,356.88 -154.29,185.83 -69.64,-171.1 -196.41,-563.85 -261.83,-1125.54 -65.47,-561.8 -69.62,-1292.6 -71.68,-1691.66 -2.17,-399.15 -2.17,-466.73 54.83,-447.65 56.98,18.98 171.03,124.46 312.46,171.02 141.5,46.43 310.47,33.7 426.7,-48.61 116.07,-82.42 179.5,-234.36 160.51,-380.1 -19.07,-145.72 -120.45,-285.06 -194.32,-386.43 -73.91,-101.37 -120.46,-164.82 8.4,-232.4 128.83,-67.58 432.96,-139.27 616.73,-202.62 183.65,-63.43 247.01,-118.28 278.69,-217.57 31.63,-99.3 31.63,-242.84 52.79,-301.92 21.12,-59.2 63.29,-33.91 143.68,-6.47 80.21,27.48 198.5,57.05 270.29,82.43 71.74,25.29 97.16,46.43 -14.8,272.4 -111.97,225.98 -361.13,656.75 -599.72,1174.16 -238.74,517.36 -466.77,1121.36 -646.29,1704.27zm26361.66 32192.71c705.34,-46.45 1161.54,-105.62 1431.86,-135.19 270.34,-29.54 354.69,-29.54 388.49,8.41 33.81,38.06 17.01,114.12 17.01,190.08 0,76.11 16.8,152.07 29.52,215.43 12.67,63.42 21.07,114.09 -29.52,131 -50.69,16.88 -160.56,0 -312.62,33.79 -152.05,33.79 -346.29,118.28 -485.75,249.21 -139.42,130.89 -223.75,308.37 -291.34,354.81 -67.61,46.43 -118.27,-38.06 -236.55,-131.05 -118.28,-92.87 -304.12,-194.24 -477.2,-190.09 -173.22,4.23 -333.78,114.1 -409.73,257.67 -76.1,143.69 -67.58,321.02 -97.14,405.51 -29.62,84.49 -97.19,76.08 -228.13,46.44 -130.89,-29.54 -325.24,-80.23 -692.71,-211.17 -367.46,-130.88 -908.01,-342.15 -1343.01,-553.3 -435.02,-211.14 -764.54,-422.39 -874.31,-515.35 -109.9,-92.9 0,-67.49 202.73,-54.83 202.65,12.63 498.38,12.63 1123.48,-4.28 625.01,-16.86 1579.59,-50.65 2284.92,-97.09zm21156.42 -42544.95c-363.18,-405.51 -599.69,-591.24 -739.14,-688.39 -139.29,-97.19 -181.57,-105.6 -181.57,-122.48 0,-16.91 42.28,-42.31 80.19,-92.99 38.09,-50.7 71.87,-126.66 135.18,-118.16 63.43,8.39 156.29,101.26 253.44,156.18 97.21,54.97 198.51,71.85 350.53,38.06 152.08,-33.79 354.82,-118.25 460.46,-130.93 105.61,-12.73 114.01,46.47 109.77,194.24 -4.16,147.84 -21.04,384.37 33.8,549.05 54.92,164.7 181.69,257.69 295.7,299.98 114.03,42.2 215.39,33.67 299.88,-33.91 84.49,-67.58 152.08,-194.24 202.75,-282.95 50.7,-88.72 84.49,-139.41 177.35,12.65 93,152.07 245.02,506.86 354.81,878.55 109.86,371.72 177.31,760.2 223.76,1102.35 46.55,342.08 71.84,637.79 88.72,815.24 16.91,177.34 25.4,236.41 -109.76,63.36 -135.16,-173.23 -413.98,-578.71 -798.36,-1093.97 -384.32,-515.38 -874.18,-1140.42 -1237.51,-1545.88zm4387.7 20274.63c-33.79,302.06 -135.19,880.74 -200.66,1203.84 -65.42,323.07 -94.98,390.65 -118.19,396.98 -23.18,6.31 -40.1,-48.5 -84.44,-194.24 -44.39,-145.74 -116.11,-382.27 -202.77,-591.36 -86.55,-209.07 -187.92,-390.66 -441.35,-734.91l-22.05 -29.88c-10.69,-117.77 -40.13,-203.86 -88.51,-257.42 -60.36,-67.13 -124.15,-101.64 -191.04,-103.35 -227.46,-281.03 -504.58,-593.54 -796.61,-857.54 -288.61,-260.79 -591.73,-474.21 -832.77,-618.63 -125.61,-50.41 -251.2,-100.85 -314,-112 -62.81,-11.18 -62.81,16.91 -60.15,152.26 2.67,135.33 7.98,377.95 13.3,620.54 52.3,193.91 115.76,407.8 190.46,625.28 162.62,473.09 378.01,963.03 612.37,1332.55 121.43,191.38 247.89,350.59 359.24,475.91 14.31,16.09 28.35,31.62 42.1,46.59 -0.62,0.84 -1.23,1.67 -1.89,2.53 33.39,42.05 68.27,90.77 108.37,162.46 56.41,100.82 123.11,247.16 189.83,393.47 -7.09,88.28 -2.86,198.3 37.39,315.29 69.64,202.74 247.11,426.54 323.07,542.6 75.96,116.22 50.71,124.72 -31.73,109.87 -82.39,-14.83 -221.7,-52.73 -384.32,-73.91 -162.66,-21.13 -348.39,-25.26 -515.3,40.12 -166.76,65.55 -314.68,200.71 -371.69,352.76 -57.02,152.07 -23.22,320.99 69.65,456.15 92.97,135.19 245.05,236.46 445.61,278.73 200.7,42.29 449.74,25.41 574.34,17 124.62,-8.38 124.62,-8.38 61.14,59.2 -63.31,67.58 -189.96,202.65 -278.73,320.9 -88.72,118.28 -139.41,219.65 -118.23,346.31 21.14,126.8 114,278.85 189.96,380.22 76.12,101.39 135.28,152.07 173.2,304.14 38.08,152.02 54.96,405.34 42.29,591.19 -12.6,185.86 -54.92,304.12 -92.98,299.89 -37.9,-4.16 -71.68,-130.93 -105.47,-304.14 -33.8,-173.06 -67.59,-392.7 -126.79,-570.16 -59.07,-177.35 -143.57,-312.51 -249.19,-426.57 -105.49,-113.98 -232.29,-206.99 -396.97,-240.78 -164.73,-33.65 -367.47,-8.36 -519.54,253.46 -152.06,261.94 -253.44,760.27 -105.63,1207.95 147.8,447.68 544.93,844.81 760.33,1077.06 215.37,232.31 249.16,299.89 160.45,561.71 -88.63,261.92 -299.9,718.03 -426.67,903.84 -126.67,185.86 -168.83,101.37 -236.41,-50.68 -67.59,-152.06 -160.54,-371.59 -270.35,-646.17 -109.76,-274.45 -236.5,-603.97 -422.37,-789.83 -185.72,-185.86 -430.77,-228.03 -637.79,-126.66 -206.87,101.4 -375.81,346.31 -396.96,591.25 -21.17,245.03 105.63,490.06 354.77,806.83 249.21,316.75 620.93,705.23 806.74,941.78 185.85,236.56 185.85,321.02 -12.6,654.68 -198.49,333.67 -595.61,916.49 -811.03,1207.87 -215.36,291.46 -249.16,291.46 -278.81,266.05 -29.55,-25.29 -54.84,-75.84 -50.67,-265.93 4.22,-190.01 38,-519.53 25.4,-844.8 -12.65,-325.13 -71.89,-646.15 -168.97,-899.59 -97.15,-253.44 -232.31,-439.3 -396.98,-532.28 -164.73,-92.87 -359.1,-92.87 -544.95,-12.64 -185.7,80.34 -363.16,240.79 -447.63,532.27 -84.49,291.5 -75.98,713.77 33.79,1098.1 109.86,384.44 321.08,731.01 496.4,1020.29 175.37,289.41 314.68,521.69 373.74,642.04 59.22,120.45 38.04,128.84 -149.99,335.83 -187.91,206.99 -542.6,612.35 -732.68,810.89 -190.11,198.59 -215.44,190.06 -240.79,76.08 -25.29,-114.05 -50.69,-333.67 -82.42,-568.13 -31.64,-234.35 -69.56,-483.64 -141.39,-650.56 -71.8,-166.78 -177.47,-251.12 -333.74,-257.45 -156.32,-6.3 -363.21,65.38 -466.76,189.99 -103.45,124.61 -103.45,302.03 -158.42,359.06 -54.79,57 -164.68,-6.42 -287.21,-23.31 -122.39,-16.9 -257.55,12.73 -358.93,92.94 -101.39,80.24 -168.96,211.27 -171.14,403.46 -2.1,192.18 61.38,445.58 112.07,618.68 50.67,173.2 88.58,266.19 8.39,232.4 -80.26,-33.79 -278.73,-194.33 -504.71,-264.02 -225.95,-69.63 -479.36,-48.59 -648.34,63.36 -168.95,111.95 -253.42,314.69 -232.38,504.66 21.11,190.13 147.91,367.6 323.19,511.15 175.26,143.64 399.07,253.41 506.71,329.38 107.83,76.1 99.32,118.39 -25.35,213.34 -124.62,95.07 -365.51,242.96 -515.65,312.61 -149.96,69.69 -209.04,61.28 -359.04,18.99 -149.99,-42.17 -390.64,-118.28 -637.74,-137.26 -247.11,-18.97 -500.43,18.98 -762.38,86.56 -261.83,67.58 -532.18,164.82 -661,221.85 -128.81,56.97 -116.09,73.86 -6.34,181.56 109.89,107.72 316.79,306.19 530.12,441.35 213.31,135.18 432.84,206.92 643.97,242.76 211.26,35.97 414.01,35.97 521.68,42.29 107.7,6.33 120.45,19.08 -31.61,164.7 -152.02,145.77 -468.93,424.57 -648.46,563.88 -179.39,139.42 -221.71,139.42 -257.56,133.11 -35.88,-6.33 -65.51,-18.98 -126.77,-67.58 -61.14,-48.5 -154.13,-132.99 -331.48,-236.53 -177.33,-103.47 -439.28,-225.86 -789.86,-299.89 -350.55,-73.88 -789.93,-99.17 -1144.74,-90.79 -354.8,8.48 -625,50.7 -815.14,105.62 -190.11,54.93 -299.87,122.51 -282.97,270.35 16.89,147.77 160.45,375.92 384.35,578.56 223.92,202.75 527.94,380.22 836.15,485.75 308.42,105.62 621.01,139.41 806.86,160.52 185.84,21.18 244.92,29.56 25.28,168.98 -219.53,139.43 -717.99,409.63 -988.31,536.29 -270.32,126.78 -312.53,109.9 -375.95,8.53 -63.35,-101.4 -147.7,-287.11 -371.61,-447.68 -223.76,-160.45 -587.1,-295.61 -967.19,-397.01 -380.11,-101.37 -777.18,-168.95 -1026.38,-181.7 -249.16,-12.66 -350.52,29.66 -198.47,270.3 152.06,240.83 557.45,680.1 869.95,933.52 312.59,253.44 532.24,321.02 637.77,388.6 105.6,67.58 97.22,135.16 -16.9,190.01 -114.04,54.9 -333.56,97.22 -472.97,105.6 -139.39,8.5 -198.47,-16.91 -287.24,-59.2 -88.71,-42.17 -206.96,-101.25 -333.73,-151.95 -126.67,-50.67 -261.72,-92.96 -515.14,-156.27 -253.48,-63.35 -625.17,-147.84 -1085.6,-194.38 -460.3,-46.45 -1009.47,-54.83 -1330.49,-67.58 -320.91,-12.66 -413.89,-29.52 -498.38,-75.97 -84.35,-46.44 -160.45,-122.5 -291.34,-185.85 -130.94,-63.31 -316.74,-114.01 -515.26,-54.93 -198.5,59.2 -409.74,228.13 -464.71,439.25 -54.8,211.27 46.48,464.59 168.96,616.63 122.54,152.07 266.11,202.77 409.66,223.9 143.64,21.18 287.33,12.66 401.35,-33.77 114,-46.44 198.46,-130.93 244.93,-207.01 46.41,-75.99 54.94,-143.57 266.06,-181.59 211.14,-37.94 625.16,-46.44 1085.46,-4.27 460.45,42.29 967.29,135.28 1258.67,211.27 291.45,75.96 367.57,135.16 388.61,181.6 21.12,46.43 -12.67,80.22 -464.57,206.88 -451.95,126.78 -1322,346.42 -1807.75,456.2 -485.71,109.87 -587.09,109.87 -684.18,92.97 -97.15,-16.89 -190.13,-50.68 -300.01,-92.97 -109.72,-42.19 -236.4,-92.87 -371.59,-118.28 -135.16,-25.29 -278.81,-25.29 -371.79,8.5 -92.88,33.8 -135.04,101.38 -202.63,118.28 -67.57,16.89 -160.57,-16.9 -245.06,-21.18 -84.33,-4.11 -160.45,21.18 -223.79,29.56 -63.31,8.51 -114,0.12 -114,-29.56 0,-29.51 50.69,-80.19 92.86,-198.47 42.32,-118.27 76.11,-304.13 67.59,-447.82 -8.37,-143.54 -59.07,-244.79 -185.87,-329.28 -126.66,-84.49 -329.39,-152.07 -506.86,-164.8 -177.34,-12.65 -329.42,29.64 -443.4,185.86 -114.04,156.3 -190.1,426.64 -215.51,570.19 -25.39,143.68 -0.24,160.57 -25.64,114.12 -25.41,-46.42 -101.51,-156.3 -223.88,-240.78 -122.51,-84.47 -291.49,-143.55 -468.81,-156.3 -177.49,-12.66 -363.32,21.13 -468.87,105.62 -105.59,84.47 -131,219.65 -109.88,384.33 21.19,164.72 88.78,359.08 0.12,477.31 -88.71,118.28 -333.77,160.45 -528.01,177.38 -194.36,16.86 -337.93,8.48 -392.82,-21.18 -54.97,-29.54 -21.19,-80.19 0,-211.12 21.11,-130.89 29.52,-342.16 16.89,-464.66 -12.66,-122.41 -46.45,-156.2 -206.9,-156.2 -160.57,0 -447.77,33.79 -654.68,177.33 -206.98,143.67 -333.74,397.11 -435.14,532.24 -101.35,135.19 -177.31,152.07 -574.31,181.63 -397.1,29.52 -1115.09,71.81 -1748.6,67.58 -633.54,-4.27 -1182.71,-54.97 -1503.61,-93.01 -321,-37.92 -414,-63.33 -430.89,-101.37 -16.9,-37.92 42.3,-88.62 147.91,-164.68 105.53,-75.96 257.59,-177.33 363.22,-308.29 105.47,-130.88 164.66,-291.43 130.88,-413.98 -33.79,-122.39 -160.55,-206.87 -396.96,-232.28 -236.53,-25.27 -582.97,8.52 -849.03,168.97 -266.09,160.57 -451.95,447.68 -578.62,603.95 -126.77,156.35 -194.36,181.63 -375.93,156.35 -181.61,-25.32 -477.33,-101.38 -701.13,-202.75 -223.87,-101.37 -375.94,-228.03 -447.67,-316.79 -71.82,-88.69 -63.44,-139.39 54.85,-228.15 118.24,-88.59 346.4,-215.37 760.26,-422.37 413.89,-206.89 1013.76,-494.12 1507.96,-679.98 494.15,-185.81 882.63,-270.3 1098.13,-312.59 215.36,-42.2 257.53,-42.2 308.24,-12.68 50.67,29.66 109.87,88.76 207.02,152.07 97.08,63.45 232.24,131.03 363.16,139.41 130.93,8.5 257.71,-42.17 337.93,-80.19 80.24,-38.04 114.02,-63.35 114.02,12.61 0,76.08 -33.78,253.44 -4.15,447.68 29.57,194.36 122.43,405.63 295.61,528.01 173.21,122.55 426.55,156.34 650.44,109.9 223.88,-46.43 418.12,-173.21 494.21,-354.79 75.97,-181.63 33.79,-418.16 0,-553.32 -33.8,-135.19 -59.19,-168.98 63.34,-101.4 122.5,67.61 392.72,236.56 650.39,211.15 257.57,-25.29 502.62,-244.94 578.71,-443.41 75.99,-198.51 -17,-375.94 -215.51,-494.22 -198.47,-118.25 -502.59,-177.33 -650.38,-215.4 -147.84,-38.04 -139.46,-54.92 -50.7,-84.48 88.72,-29.52 257.69,-71.81 439.25,-185.86 181.61,-113.98 375.97,-299.86 401.37,-489.95 25.29,-190.01 -118.39,-384.37 -295.73,-485.74 -177.44,-101.37 -388.56,-109.76 -616.62,42.19 -228.15,152.05 -473.2,464.69 -604.08,625.14 -130.93,160.59 -147.82,168.95 -139.33,59.19 8.4,-109.75 42.19,-337.92 38.08,-515.38 -4.28,-177.35 -46.57,-304.01 -122.56,-422.27 -76.05,-118.27 -185.81,-228.12 -329.41,-278.82 -143.63,-50.6 -321.1,-42.17 -506.82,67.58 -185.85,109.87 -380.25,321.12 -447.82,511.13 -67.59,190.08 -8.39,359.04 54.97,494.22 63.31,135.16 130.88,236.41 97.09,282.86 -33.78,46.54 -168.94,38.04 -299.86,76.06 -130.93,38.06 -257.71,122.55 -358.97,190.13 -101.37,67.58 -177.45,118.28 -435,202.74 -257.71,84.49 -696.97,202.72 -899.72,244.94 -202.74,42.29 -168.96,8.5 -114.02,-152.07 54.94,-160.45 130.93,-447.68 147.82,-650.42 16.89,-202.76 -25.29,-321.04 -101.27,-392.85 -76.08,-71.73 -185.97,-97.14 -388.59,-12.66 -202.75,84.47 -498.5,278.85 -684.35,540.67 -185.86,261.82 -261.83,591.34 -295.61,789.84 -33.8,198.51 -25.41,266.07 -228.04,392.75 -202.72,126.76 -616.73,312.59 -912.34,502.6 -295.61,190.09 -473.11,384.47 -599.75,481.57 -126.77,97.14 -202.76,97.14 -608.25,-46.42 -405.47,-143.55 -1140.36,-430.66 -1528.86,-591.11 -388.61,-160.45 -430.91,-194.24 -536.4,-337.92 -105.65,-143.55 -274.59,-397.01 -498.35,-553.3 -223.93,-156.2 -502.74,-215.4 -713.86,-261.83 -211.28,-46.44 -354.81,-80.23 -675.83,-164.72 -321.06,-84.46 -819.5,-219.65 -1136.29,-325.25 -316.75,-105.62 -451.79,-181.58 -371.57,-211.26 80.23,-29.52 375.94,-12.64 781.43,-59.08 405.37,-46.4 920.79,-156.3 1398.09,-371.69 477.21,-215.38 916.38,-536.42 1110.73,-713.88 194.24,-177.35 143.55,-211.02 -177.46,-299.74 -320.97,-88.74 -912.22,-232.3 -1406.36,-312.61 -494.22,-80.26 -891.31,-97.15 -1385.41,67.58 -494.22,164.68 -1085.46,511.1 -1419.11,684.21 -333.79,173.2 -409.78,173.2 -629.43,97.1 -219.6,-75.97 -582.9,-228.03 -815.24,-337.91 -232.25,-109.77 -333.63,-177.23 -329.4,-219.53 4.28,-42.19 114.05,-59.07 371.73,-84.48 257.65,-25.29 663.05,-59.08 1068.55,-101.37 405.49,-42.18 810.99,-92.87 1313.6,-228.03 502.6,-135.17 1102.35,-354.81 1410.71,-523.74 308.27,-168.95 325.17,-287.23 181.61,-418.16 -143.67,-130.89 -447.68,-274.58 -891.09,-397.08 -443.53,-122.41 -1026.48,-223.81 -1651.51,-236.53 -625.17,-12.68 -1292.57,63.42 -1790.93,198.61 -498.38,135.16 -827.91,329.4 -1022.15,447.65 -194.24,118.28 -253.44,160.57 -409.61,67.58 -156.29,-92.87 -409.73,-320.99 -565.95,-477.31 -156.31,-156.2 -215.47,-240.69 63.34,-253.44 278.73,-12.66 895.44,46.54 1626.09,-37.95 730.68,-84.48 1575.45,-312.63 2010.48,-452.02 435.04,-139.32 460.32,-190.02 312.52,-257.6 -147.83,-67.58 -468.86,-152.06 -861.56,-278.8 -392.85,-126.66 -857.54,-295.54 -1347.4,-371.59 -489.97,-75.99 -1005.23,-59.08 -1393.81,50.67 -388.6,109.9 -650.42,312.52 -819.41,401.26 -168.94,88.71 -245.05,63.33 -274.57,8.35 -29.55,-54.82 -12.66,-139.26 25.39,-181.56 37.92,-42.22 97.14,-42.22 202.75,-105.52 105.51,-63.35 257.59,-190.01 304.01,-304.02 46.45,-114.03 -12.63,-215.37 -152.05,-261.94 -139.43,-46.42 -358.96,-37.94 -519.41,-42.19 -160.56,-4.23 -261.95,-21.11 -321.03,-67.58 -59.18,-46.4 -76.08,-122.49 -84.47,-202.75 -8.5,-80.19 -8.5,-164.67 -21.12,-228.03 -12.79,-63.3 -38.06,-105.59 -59.19,-139.38 -21.19,-33.8 -38.04,-59.08 -33.79,-130.94 4.23,-71.83 29.51,-190.11 46.39,-329.5 16.91,-139.34 25.41,-299.91 17.02,-464.58 -8.49,-164.73 -33.9,-333.68 -71.8,-447.68 -38.09,-114.03 -88.77,-173.2 -177.35,-190.09 -88.76,-16.9 -215.5,8.5 -363.34,92.94 -147.79,84.49 -316.75,228.03 -426.5,397.01 -109.9,168.95 -160.57,363.31 -202.77,456.18 -42.29,92.87 -76.08,84.46 -105.63,63.35 -29.64,-21.18 -54.94,-54.97 -67.59,-84.48 -12.76,-29.57 -12.76,-54.98 12.65,-118.28 25.3,-63.35 75.96,-164.73 139.42,-316.77 63.35,-152.07 139.31,-354.79 190.02,-549.15 50.66,-194.24 76.08,-379.97 88.7,-641.92 12.67,-261.82 12.67,-599.74 -4.25,-941.9 -16.88,-342.08 -50.67,-688.46 -67.57,-874.32 -16.88,-185.85 -16.88,-211.12 33.78,-274.59 50.71,-63.31 152.07,-164.56 168.99,-342.04 16.88,-177.33 -50.71,-430.79 -164.76,-582.86 -113.97,-152.05 -274.54,-202.74 -460.29,-202.74 -185.86,0 -397.12,50.69 -515.39,160.45 -118.27,109.87 -143.56,278.84 -122.36,426.64 20.99,147.82 88.56,274.6 160.45,363.19 71.79,88.76 147.75,139.44 194.31,202.74 46.44,63.36 63.34,139.46 80.22,401.28 16.91,261.82 33.67,709.6 21.08,1195.34 -12.69,485.72 -54.98,1009.48 -92.88,1283.91 -38.06,274.6 -71.85,299.98 -130.94,274.6 -59.2,-25.29 -143.68,-101.4 -257.65,-287.21 -114.05,-185.76 -257.73,-481.47 -464.6,-870.07 -206.9,-388.48 -477.1,-869.83 -612.15,-1135.92 -135.17,-266.07 -135.17,-316.77 -59.09,-384.35 75.98,-67.58 228.04,-152.07 367.5,-274.57 139.25,-122.44 266.06,-282.98 392.73,-532.15 126.65,-249.21 253.43,-587.09 312.61,-870.09 59.08,-282.95 50.57,-511.13 -101.37,-629.38 -152.04,-118.16 -447.81,-126.66 -730.76,59.2 -283,185.85 -553.32,566.07 -713.77,743.41 -160.55,177.35 -211.27,152.06 -261.91,46.42 -50.7,-105.6 -101.37,-291.34 -126.67,-396.98 -25.41,-105.62 -25.41,-130.91 21.14,-190.09 46.45,-59.08 139.32,-152.07 278.73,-342.18 139.39,-190.01 325.12,-477.21 473.09,-806.71 147.77,-329.43 257.53,-701 312.49,-933.43 54.92,-232.25 54.92,-325.12 76.1,-380.09 20.99,-54.93 63.31,-71.83 130.88,-97.24 67.47,-25.29 160.45,-59.08 219.65,-139.27 59.08,-80.26 84.35,-207.04 42.2,-312.64 -42.2,-105.53 -152.1,-190.01 -278.73,-228.03 -126.79,-37.95 -270.34,-29.56 -384.34,25.41 -114.16,54.9 -198.64,156.17 -223.93,270.2 -25.39,114.12 8.4,240.78 -8.49,430.87 -16.9,190.13 -84.45,443.45 -240.64,764.47 -156.32,321.02 -401.36,709.6 -536.42,878.55 -135.16,168.95 -160.57,118.28 -185.84,-4.23 -25.4,-122.43 -50.69,-316.79 -63.36,-413.89 -12.75,-97.14 -12.75,-97.14 42.18,-139.41 54.96,-42.22 164.72,-126.66 287.23,-274.5 122.51,-147.77 257.6,-359.04 380.09,-654.65 122.51,-295.61 232.31,-675.85 261.94,-910.16 29.53,-234.24 -21.04,-322.86 -189.98,-274.24 -168.97,48.71 -456.17,234.57 -646.18,403.52 -190.08,168.96 -283.07,321.02 -340.1,388.6 -57.01,67.56 -78.02,50.7 -126.52,-217.45 -48.64,-268.17 -124.6,-787.54 -145.65,-1062.04 -21.11,-274.43 12.67,-304.11 69.67,-359.04 56.98,-54.82 137.36,-135.16 179.66,-240.8 42.17,-105.48 46.29,-236.51 12.5,-363.29 -33.78,-126.66 -105.49,-249.09 -189.96,-320.9 -84.49,-71.85 -181.73,-92.87 -230.23,-103.47 -48.64,-10.58 -48.64,-10.58 -31.73,-73.89 16.88,-63.35 50.7,-190.11 59.19,-297.78 8.38,-107.7 -8.49,-196.46 -16.88,-240.83 -8.53,-44.35 -8.53,-44.35 67.59,50.7 75.96,95.04 228.02,285.17 411.78,424.56 183.67,139.46 399.17,228.03 608.24,164.72 138.21,-41.81 273.63,-150.25 360.53,-286.65 73.97,-154.27 147.98,-308.56 109.35,-461.05 -38.65,-152.5 -189.9,-303.21 -341.15,-453.94 -232.41,-200.45 -570.31,-348.17 -737.19,-421.96 -166.89,-73.79 -162.74,-73.79 -2.17,-84.34 160.46,-10.58 477.2,-31.62 699.02,-101.4 1.39,-0.4 2.79,-0.81 4.18,-1.22 75.55,-21.92 151.44,-45.54 244.37,-163.31 94.63,-119.98 206.94,-337.62 154.9,-529.78 -52.03,-192.16 -268.41,-358.89 -484.81,-525.6l-3.12 -0.81c-175.37,-44.23 -365.38,-40.1 -565.94,59.2 -200.66,99.31 -411.94,293.55 -551.2,401.25 -139.46,107.8 -207.05,128.86 -213.38,42.27 -6.27,-86.54 48.54,-280.9 59.08,-464.66 10.62,-183.66 -23.18,-356.84 -118.25,-458.23 -95.06,-101.37 -251.23,-130.94 -329.37,-145.72 -78.18,-14.73 -78.18,-14.73 -78.18,-84.49 0,-69.68 0,-209.09 0,-278.84 0,-69.64 0,-69.64 114.02,-166.78 114,-97.1 342.16,-291.46 613.51,-551.25 271.36,-259.72 586.06,-584.89 743.43,-747.52 44.87,-46.37 76.93,-79.52 101.49,-102.44 250.26,-302.9 500.55,-605.8 723.96,-918.7 223.44,-312.93 419.99,-635.88 599.01,-972.85 179.03,-336.98 340.49,-687.99 431.75,-888.05 91.27,-200.1 112.31,-249.24 189.54,-252.75 77.23,-3.51 210.61,38.61 372.08,14.04 161.48,-24.57 351.02,-115.82 508.98,-284.29 157.97,-168.5 284.31,-414.23 350.41,-655.51 66.1,-241.28 71.9,-478.15 77.74,-715.02 -11.09,-63.66 -35.11,-122.31 -72.06,-172.6 -105.64,-143.57 -316.85,-219.65 -506.87,-190.01 -190.08,29.56 -359.03,164.6 -456.18,249.09 -97.1,84.46 -122.5,118.25 -130.89,63.42 -8.53,-54.92 0,-198.58 4.22,-337.92 4.17,-139.39 4.17,-274.55 -67.57,-367.42 -71.83,-92.99 -215.52,-143.69 -397.07,-135.16 -181.65,8.38 -401.28,75.96 -489.88,236.53 -88.75,160.45 -46.57,413.89 -29.67,565.93 16.88,152.05 8.51,202.77 -151.94,207.02 -160.58,4.13 -473.19,-38.04 -646.29,-38.04 -173.18,0 -206.97,42.17 -240.76,143.52 -33.8,101.37 -67.59,261.94 -50.69,430.89 16.89,168.85 84.48,346.31 194.35,447.68 109.75,101.39 261.83,126.66 367.44,143.57 105.6,16.88 164.68,25.4 164.68,59.19 0,33.79 -59.08,92.87 -105.48,181.59 -46.53,88.76 -80.32,207.01 -67.57,346.4 12.6,139.34 71.68,299.91 92.86,418.14 21.11,118.18 4.22,194.24 -152.1,464.59 -156.28,270.2 -451.89,734.91 -824.61,1175.92 -372.87,440.89 -822.6,858.07 -1064.45,1087.8 -241.82,229.8 -275.6,272.07 -296.76,77.83 -21.15,-194.34 -29.52,-625.21 -25.3,-857.5 4.15,-232.28 21.04,-266.07 97.15,-308.25 75.97,-42.31 211.13,-93.01 350.53,-194.38 139.33,-101.37 282.98,-253.32 396.98,-422.27 114,-168.95 198.53,-354.81 240.79,-510.99 42.22,-156.32 42.22,-283.07 -25.41,-354.81 -67.59,-71.83 -202.63,-88.71 -375.83,-59.19 -173.17,29.56 -384.32,105.64 -481.46,122.5 -97.22,16.91 -80.31,-25.36 -54.92,-223.88 25.29,-198.49 59.08,-553.27 181.57,-1119.37 122.56,-566.03 333.77,-1343.26 456.33,-1744.46 122.48,-401.36 156.28,-426.76 280.91,-447.83 124.58,-21.13 340.09,-38.01 542.84,-183.78 202.73,-145.74 392.69,-420.17 422.38,-587.09 29.51,-166.87 -101.48,-225.98 -238.76,-266.05 -137.22,-40.26 -280.9,-61.27 -350.54,-88.76 -69.61,-27.46 -65.48,-61.25 -4.23,-200.54 61.27,-139.44 179.52,-384.45 245.06,-525.94 65.36,-141.51 78.15,-179.41 130.91,-164.63 52.71,14.74 145.71,82.32 299.82,135.19 154.15,52.75 369.68,90.7 523.77,27.34 154.13,-63.3 247.11,-228.12 270.34,-409.73 23.25,-181.59 -23.23,-380.1 -33.66,-475.02 -10.61,-95.05 14.71,-86.66 141.47,-99.32 126.65,-12.63 354.81,-46.42 483.63,-122.39 128.76,-76.08 158.39,-194.36 133.11,-369.66 -25.4,-175.26 -105.71,-407.68 -230.35,-528.01 -124.58,-120.31 -293.53,-128.83 -411.8,-128.83 -118.23,0 -185.82,8.52 -200.52,-8.39 -14.87,-16.88 23.21,-59.19 76.08,-198.51 52.74,-139.41 120.33,-375.94 156.28,-532.12 35.85,-156.34 40.01,-232.42 75.97,-198.63 35.86,33.79 103.45,177.45 213.33,342.17 109.75,164.68 261.69,350.56 432.84,422.37 171.06,71.73 361.02,29.56 477.25,-82.39 116.18,-111.95 158.35,-293.55 131,-483.52 -27.46,-190.13 -124.73,-388.6 -198.59,-515.26 -73.92,-126.78 -124.63,-181.75 -118.28,-209.21 6.34,-27.47 69.76,-27.47 190.1,-6.33 120.32,21.18 297.77,63.35 473.07,19.1 175.28,-44.39 348.38,-175.42 386.44,-352.75 38.02,-177.46 -59.08,-401.21 -183.66,-546.95 -124.64,-145.74 -276.68,-213.32 -462.53,-238.64 -185.86,-25.38 -405.39,-8.47 -515.14,-25.38 -109.9,-16.88 -109.9,-67.48 -59.2,-135.07 50.68,-67.58 152.06,-152.06 202.73,-253.41 50.71,-101.37 50.71,-219.65 168.96,-270.32 118.28,-50.7 354.69,-33.79 675.7,-50.7 321.05,-16.88 726.56,-67.58 1208.09,-236.53 481.48,-168.95 1038.9,-456.21 1199.51,-658.95 160.45,-202.76 -76.12,-320.9 -346.44,-405.39 -270.34,-84.48 -574.34,-135.16 -954.44,-118.27 -380.16,16.9 -836.37,101.37 -1039.13,109.89 -202.75,8.38 -152.04,-59.2 8.53,-236.55 160.45,-177.46 430.79,-464.68 608.23,-608.2 177.37,-143.69 261.82,-143.69 582.82,-76.11 321.03,67.58 878.46,202.77 1419.14,126.76 540.68,-76.06 1064.31,-363.29 1393.82,-557.53 329.39,-194.36 464.55,-295.73 422.38,-422.39 -42.28,-126.81 -261.93,-278.73 -557.54,-380.12 -295.72,-101.38 -667.3,-152.05 -1039.01,-177.34 -371.71,-25.41 -743.43,-25.41 -946.17,-59.2 -202.77,-33.79 -236.56,-101.37 -59.08,-304.11 177.33,-202.72 565.97,-540.64 811.02,-726.5 244.91,-185.84 346.17,-219.63 430.66,-202.74 84.48,16.9 152.05,84.48 405.5,236.55 253.39,152.05 692.69,388.55 1174.27,464.66 481.47,75.96 1005.13,-8.48 1300.88,-109.9 295.57,-101.34 363.16,-219.6 346.25,-388.57 -16.88,-168.95 -118.23,-388.48 -472.92,-544.8 -354.81,-156.32 -962.93,-249.17 -1283.84,-316.75 -321.02,-67.72 -354.81,-109.89 -278.73,-194.38 75.99,-84.49 261.71,-211.24 379.98,-274.55 118.28,-63.35 168.95,-63.35 405.51,-16.91 236.54,46.43 658.9,139.39 1055.99,152.07 397.02,12.61 768.61,-54.97 1157.22,-173.25 388.6,-118.23 794.05,-287.11 1072.9,-375.82 278.73,-88.72 430.65,-97.1 641.91,-46.45 211.16,50.6 481.48,160.45 688.47,122.43 206.89,-38.04 350.54,-223.8 401.24,-443.42 50.72,-219.63 8.4,-473.07 -143.52,-650.42 -152.08,-177.48 -414.01,-278.85 -625.17,-295.76 -211.11,-16.88 -371.69,50.7 -506.87,160.59 -135.17,109.76 -244.93,261.83 -515.26,422.39 -270.33,160.45 -701.22,329.41 -1123.48,430.8 -422.4,101.37 -836.4,135.16 -1119.35,130.89 -283.01,-4.23 -434.95,-46.43 -494.03,-88.62 -59.19,-42.27 -25.49,-84.58 481.36,-375.97 506.89,-291.46 1486.71,-832.12 2014.74,-1093.94 528,-261.92 603.96,-245.06 701.2,-207 97.14,38.02 215.27,97.1 375.87,92.99 160.45,-4.27 363.18,-71.85 515.26,-194.24 152.04,-122.55 253.4,-299.98 304.1,-447.8 50.66,-147.79 50.66,-266.07 109.86,-354.83 59.08,-88.69 177.35,-147.77 350.58,-236.53 173.05,-88.72 401.21,-206.85 540.67,-270.2 139.27,-63.43 189.96,-71.81 266.07,0 75.96,71.73 177.34,223.8 329.39,405.36 152.08,181.63 354.81,392.85 561.81,523.78 206.89,130.94 418.12,181.59 620.85,147.8 202.65,-33.77 397.02,-152.05 435.07,-350.56 37.91,-198.47 -80.38,-477.29 -283.11,-696.82 -202.75,-219.65 -489.85,-380.24 -675.71,-468.86 -185.87,-88.72 -270.3,-105.62 -228.03,-147.8 42.16,-42.31 211.05,-109.89 460.22,-206.99 249.16,-97.14 578.68,-223.9 768.82,-282.98 189.96,-59.2 240.65,-50.69 443.39,215.4 202.77,266.07 557.58,789.71 937.76,1131.87 380.09,342.2 785.48,502.65 1136.07,549.19 350.51,46.4 646.25,-21.18 794.05,-168.97 147.85,-147.8 147.85,-375.95 0,-675.83 -147.8,-299.86 -443.54,-671.58 -848.91,-933.4 -405.5,-261.94 -920.76,-413.96 -1157.27,-498.45 -236.53,-84.49 -194.25,-101.37 -105.53,-114.03 88.64,-12.63 223.81,-21.13 574.35,-88.71 350.52,-67.58 916.63,-194.24 1229.11,-244.94 312.53,-50.67 371.73,-25.38 591.38,346.31 219.53,371.67 599.7,1089.67 1038.99,1419.24 439.15,329.4 937.64,270.2 1144.64,59.05 206.89,-211.14 122.43,-574.46 -131,-937.65 -253.58,-363.31 -675.98,-726.5 -887.19,-908.11 -211.24,-181.72 -211.24,-181.72 12.63,-185.86 223.78,-4.22 671.55,-12.75 912.36,-8.47 240.66,4.25 274.45,21.13 358.93,194.33 84.49,173.11 219.65,502.63 409.74,764.45 190.01,261.8 435.05,456.16 688.45,574.43 253.34,118.26 515.24,160.45 743.38,135.17 228.04,-25.41 422.29,-118.28 515.3,-295.62 92.83,-177.47 84.49,-439.36 -54.97,-671.69 -139.42,-232.26 -409.62,-435 -570.07,-557.44 -160.58,-122.5 -211.24,-164.82 -206.99,-181.7 4.12,-16.91 63.31,-8.38 156.17,50.82 92.87,59.08 219.64,168.83 464.58,316.74 244.92,147.82 608.25,333.56 789.84,426.55 181.61,92.87 181.61,92.87 114.02,152.07 -67.57,59.08 -202.61,177.33 -265.97,316.74 -63.43,139.41 -54.92,299.86 54.85,515.38 109.76,215.38 321.02,485.58 667.66,553.18 346.63,67.58 828.81,-67.46 1166.71,-244.79 337.88,-177.5 531.55,-397.15 581.91,-405.53 50.36,-8.5 -42.5,194.24 -139.42,460.31 -96.76,266.12 -197.55,595.64 -247.91,874.34 -50.31,278.73 -50.31,506.86 152.06,680.08 202.39,173.09 607.3,291.34 906.83,244.94 299.53,-46.47 493.88,-257.71 586.75,-557.57 92.88,-299.87 84.47,-688.47 75.96,-941.88 -8.37,-253.46 -16.88,-371.74 63.36,-308.39 80.33,63.31 249.29,308.39 388.59,506.86 139.43,198.51 249.32,350.58 422.37,473.06 173.24,122.53 409.78,215.42 574.46,181.63 164.72,-33.79 257.69,-194.24 321.05,-266.09 63.31,-71.81 97.09,-54.93 147.76,164.72 50.71,219.65 118.28,642.02 570.23,1279.78 451.93,637.81 1288.19,1490.95 1718.98,1871.17 430.87,380.1 456.16,287.11 388.59,-156.3 -67.48,-443.57 -228.04,-1237.51 -367.44,-1811.97 -139.33,-574.46 -257.61,-929.24 -447.69,-1309.34 -189.97,-380.22 -451.9,-785.58 -633.53,-1089.72 -181.59,-304.13 -282.95,-506.88 -54.93,-523.78 228.16,-16.89 785.61,152.07 1093.82,240.83 308.4,88.57 367.57,97.09 405.54,278.7 38.01,181.59 54.9,536.42 63.31,899.73 8.49,363.17 8.49,734.79 88.73,1267.03 80.33,532.16 240.78,1224.78 751.9,2065.31 511.11,840.51 1372.69,1828.95 1845.78,2133.06 473.08,304.11 557.43,-76.08 510.98,-760.27 -46.43,-684.21 -223.89,-1672.7 -424.59,-2420.24 -200.51,-747.66 -424.32,-1254.51 -622.91,-1621.98 -198.49,-367.54 -371.59,-595.57 -432.84,-699.02 -61.31,-103.54 -10.62,-82.41 289.27,114.01 299.87,196.43 849.03,568.01 1131.99,770.75 283.01,202.76 299.89,236.55 268.15,572.4 -31.62,335.71 -111.93,973.62 -145.71,1457.26 -33.67,483.57 -21.07,812.95 143.65,1288.09 164.82,475.16 481.57,1096.05 859.61,1564.86 378,468.81 817.31,785.6 1062.21,889.15 245.06,103.42 295.76,-6.45 323.23,-340.08 27.46,-333.7 31.58,-891.1 2.06,-1364.19 -29.53,-473.09 -92.97,-861.57 -207.01,-1288.07 -114,-426.64 -278.73,-891.34 -396.97,-1165.82 -118.28,-274.58 -189.97,-359.06 -211.16,-401.23 -21.13,-42.32 8.39,-42.32 132.99,82.31 124.61,124.56 344.26,373.77 593.43,627.19 249.17,253.43 528.01,510.98 813.04,836.25 285.15,325.29 576.48,718 863.73,973.52 287.24,255.52 570.3,373.67 739.28,434.93 168.95,61.13 223.76,65.4 259.62,86.54 35.99,21.15 52.88,59.05 50.71,152.04 -2.1,92.87 -23.11,240.71 4.37,392.73 27.44,152.07 103.42,308.41 202.73,401.4 99.28,92.87 221.7,122.36 339.98,109.76 118.29,-12.78 232.27,-67.59 308.27,-116.09 76.06,-48.64 114.12,-90.93 139.42,-50.69 25.41,40.12 38.01,162.5 78.14,297.66 40.11,135.16 107.72,283 215.37,380.1 107.7,97.14 255.65,143.69 394.92,112.07 139.42,-31.74 270.36,-141.59 361.16,-211.27 90.77,-69.63 141.44,-99.27 295.61,-14.71 154.25,84.49 411.94,283.01 485.85,407.68 73.97,124.61 -35.9,175.28 -179.47,238.64 -143.53,63.3 -320.97,139.41 -316.73,308.36 4.24,168.85 190.01,430.8 413.77,519.49 223.87,88.64 485.81,4.17 646.25,-38.02 160.61,-42.29 219.65,-42.29 354.84,59.08 135.16,101.37 346.44,304.11 688.44,743.38 342.17,439.28 815.15,1115.01 1081.25,1507.84 266.16,392.78 325.24,502.65 211.24,549.07 -114.04,46.45 -401.26,29.54 -599.73,21.14 -198.51,-8.48 -308.4,-8.48 -304.14,126.68 4.23,135.14 122.51,405.46 282.96,599.82 160.57,194.24 363.19,312.52 519.54,375.87 156.29,63.31 266.05,71.83 380.1,76.06 114.12,4.13 232.4,4.13 308.36,59.08 76.1,54.97 109.9,164.72 185.86,388.6 76.08,223.92 194.24,561.7 244.93,730.68 50.68,168.95 33.8,168.95 -80.25,152.02 -113.99,-16.86 -325.25,-50.65 -553.29,-135.14 -228.02,-84.49 -473.09,-219.65 -785.6,-401.25 -312.53,-181.59 -692.69,-409.74 -954.54,-599.75 -261.81,-190.11 -405.48,-342.15 -494.24,-447.68 -88.59,-105.62 -122.39,-164.82 -143.55,-253.39 -21.12,-88.76 -29.51,-207.04 -76.06,-291.51 -46.47,-84.48 -130.93,-135.13 -207.03,-219.62 -75.96,-84.51 -143.43,-202.74 -96.98,-287.23 46.42,-84.46 206.99,-135.04 316.77,-295.49 109.75,-160.57 168.95,-430.89 109.75,-637.81 -59.08,-206.97 -236.55,-350.66 -413.89,-409.74 -177.35,-59.2 -354.81,-33.79 -511.1,29.57 -156.22,63.3 -291.38,164.67 -371.75,177.42 -80.19,12.66 -105.49,-63.44 -152.03,-181.72 -46.43,-118.26 -113.92,-278.71 -198.41,-380.08 -84.44,-101.37 -185.8,-143.68 -333.65,-118.28 -147.76,25.29 -342.13,118.28 -422.38,244.94 -80.19,126.66 -46.55,287.23 8.42,418.17 54.94,130.88 130.92,232.25 101.35,253.39 -29.52,21.18 -164.68,-38.02 -321,-38.02 -156.22,0 -333.66,59.2 -435.07,185.98 -101.37,126.66 -126.65,320.9 -59.04,468.79 67.57,147.84 228.02,249.09 388.47,304.01 160.58,54.93 321.15,63.36 367.56,88.72 46.45,25.31 -21.12,67.58 -122.51,173.25 -101.37,105.48 -236.55,274.43 -270.34,472.94 -33.78,198.49 33.79,426.64 202.76,578.71 168.97,152.07 439.29,228.03 642.04,160.45 202.75,-67.6 337.8,-278.73 422.28,-443.45 84.47,-164.82 118.23,-282.96 181.55,-240.66 63.45,42.17 156.33,244.81 270.38,363.07 114.09,118.28 249.25,152.07 346.41,147.94 97.08,-4.26 156.28,-46.57 253.43,29.53 97.1,75.97 232.28,270.35 350.56,401.24 118.28,130.93 219.65,198.51 118.28,299.88 -101.4,101.37 -405.54,236.51 -435.17,435.03 -29.57,198.51 215.52,460.43 477.34,566.07 261.83,105.48 540.66,54.81 713.73,-59.2 173.22,-114.02 240.79,-291.5 354.81,-312.51 114.12,-21.16 274.57,114 603.98,236.55 329.53,122.39 827.92,232.26 1102.35,304.11 274.62,71.69 325.29,105.48 414.01,367.45 88.73,261.84 215.61,751.69 304.34,1051.65 88.77,299.86 139.44,409.66 92.89,637.76 -46.45,228.06 -189.98,574.49 -274.47,950.43 -84.48,375.85 -109.9,781.24 -21.14,1110.73 88.72,329.4 291.49,582.84 468.81,1085.45 177.49,502.65 329.41,1254.42 388.49,1621.88 59.2,367.44 25.53,350.54 -181.49,92.99 -206.88,-257.71 -587.09,-756.16 -1098.19,-1170.05 -511.03,-413.89 -1153.05,-743.43 -1545.93,-912.27 -392.73,-168.95 -536.39,-177.45 -591.31,-4.22 -54.85,173.2 -21.07,527.89 143.66,975.69 164.69,447.68 460.46,988.23 802.46,1419.09 342.21,430.78 730.78,751.81 1174.2,1026.33 443.53,274.51 941.91,502.66 1212.25,637.79 270.32,135.16 312.49,177.34 325.13,511.16 12.77,333.62 -4.15,958.66 -25.29,1245.86 -21.13,287.23 -46.43,236.54 -139.39,21.14 -92.86,-215.35 -253.43,-595.57 -646.28,-1072.88 -392.77,-477.25 -1017.79,-1051.59 -1562.69,-1452.82 -544.77,-401.32 -1009.51,-629.35 -1258.64,-718.06 -249.22,-88.76 -283.01,-38.07 -316.81,206.99 -33.78,244.93 -67.57,684.18 80.28,1203.69 147.76,519.49 477.3,1119.23 906.02,1706.44 428.67,587.19 956.61,1161.77 1423.37,1548.27 466.71,386.64 872.11,585.15 1091.76,697.1 219.64,111.93 253.43,137.22 219.64,439.18zm3175.91 796.28c489.97,-460.34 1098.21,-1203.6 1444.53,-1858.32 346.42,-654.65 430.79,-1220.73 430.79,-1507.93 0,-287.11 -84.37,-295.59 -502.54,-122.39 -418.11,173.18 -1170.05,527.87 -1812.06,946.04 -641.92,418.11 -1174.07,899.7 -1469.82,1148.87 -295.6,249.21 -354.69,266.09 -384.32,143.54 -29.57,-122.41 -29.57,-384.33 -4.28,-587.07 25.42,-202.62 76.08,-346.31 515.38,-709.52 439.29,-363.19 1267.08,-946.13 1832.98,-1883.76 566.09,-937.65 870.1,-2229.93 984.12,-2884.65 114.12,-654.67 38.04,-671.55 -367.48,-439.25 -405.36,232.26 -1140.27,713.75 -1659.78,1199.45 -519.49,485.73 -823.62,975.66 -1001.1,1241.75 -177.33,266.05 -228.04,308.36 -253.42,236.53 -25.28,-71.85 -25.28,-257.69 -25.28,-392.87 0,-135.16 0,-219.53 42.17,-287.11 42.28,-67.58 126.77,-118.26 367.46,-363.17 240.78,-245 637.9,-684.3 899.72,-1115.07 261.83,-430.91 388.59,-853.18 485.73,-1326.25 97.1,-473.06 164.57,-996.85 198.36,-1419.24 33.8,-422.36 33.8,-743.38 8.41,-937.62 -25.28,-194.36 -75.98,-261.94 -198.5,-266.12 -122.39,-4.23 -316.76,54.85 -578.57,274.5 -261.85,219.65 -591.39,599.82 -878.6,1060.25 -287.11,460.33 -532.14,1000.88 -667.3,1250.05 -135.16,249.21 -160.45,207.01 -181.64,118.28 -21.11,-88.72 -38.01,-223.76 -42.29,-325.13 -4.11,-101.37 4.28,-168.95 54.98,-375.87 50.67,-207 143.65,-553.42 181.57,-937.75 38.08,-384.37 21.16,-806.71 -54.92,-1157.3 -75.98,-350.56 -211.14,-629.4 -278.73,-823.64 -67.57,-194.24 -67.57,-304.12 92.87,-527.87 160.57,-223.9 481.59,-561.8 633.63,-857.42 152.06,-295.75 135.08,-549.07 33.71,-755.97 -101.38,-206.99 -287.24,-367.56 -506.89,-333.77 -219.65,33.79 -473.09,261.94 -616.76,375.99 -143.55,114.01 -177.35,114.01 -223.76,-16.93 -46.45,-130.91 -105.64,-392.85 -131.05,-574.43 -25.27,-181.61 -16.78,-282.98 8.52,-354.69 25.38,-71.86 67.57,-114.15 202.74,-232.31 135.16,-118.25 363.34,-312.59 464.7,-528.01 101.37,-215.37 75.96,-451.91 -71.83,-620.86 -147.82,-168.97 -418.15,-270.34 -604.01,-223.9 -185.84,46.43 -287.24,240.79 -359.04,367.57 -71.74,126.66 -114,185.73 -173.2,97.09 -59.08,-88.69 -135.04,-325.24 -190.02,-485.69 -54.92,-160.6 -88.71,-245.06 -105.59,-540.67 -16.92,-295.71 -16.92,-802.47 -88.77,-1191.07 -71.68,-388.6 -215.36,-659.06 -287.22,-836.4 -71.7,-177.47 -71.7,-261.91 -20.99,-312.61 50.66,-50.7 152.04,-67.58 261.82,-168.95 109.87,-101.37 228.14,-287.11 287.22,-523.64 59.15,-236.56 59.15,-523.79 -16.9,-701.12 -75.96,-177.48 -228.04,-245.06 -388.61,-152.09 -160.44,92.87 -329.4,346.33 -413.89,430.79 -84.49,84.49 -84.49,0 -135.16,-135.16 -50.69,-135.18 -152.06,-321.02 -202.77,-447.68 -50.69,-126.78 -50.69,-194.36 16.9,-236.55 67.6,-42.29 202.75,-59.18 312.5,-160.52 109.9,-101.42 194.4,-287.14 168.98,-456.11 -25.29,-168.93 -160.45,-321 -312.51,-422.37 -152.08,-101.37 -320.91,-152.04 -346.32,-202.74 -25.25,-50.68 92.88,-101.37 202.63,-194.24 109.9,-92.99 211.26,-228.15 202.77,-405.51 -8.39,-177.48 -126.67,-397.1 -304.14,-498.5 -177.34,-101.37 -413.77,-84.46 -599.6,0 -185.86,84.49 -321.02,236.56 -397.14,211.27 -75.96,-25.41 -92.82,-228.15 -185.8,-380.22 -92.88,-152.02 -261.83,-253.32 -464.58,-261.7 -202.75,-8.5 -439.16,75.89 -549.05,236.41 -109.76,160.45 -92.88,397.01 -8.39,574.46 84.48,177.36 236.41,295.64 227.88,354.84 -8.35,59.08 -177.18,59.08 -329.25,118.27 -152.06,59.06 -287.26,177.34 -363.34,211.13 -75.96,33.79 -92.86,-16.89 -135.16,-67.58 -42.2,-50.7 -109.77,-101.37 -211.14,-126.66 -101.37,-25.41 -236.53,-25.41 -329.51,-59.2 -92.89,-33.79 -143.53,-101.37 -168.94,-244.94 -25.29,-143.68 -25.29,-363.31 -75.96,-523.76 -50.71,-160.57 -152.08,-261.92 -278.85,-287.23 -126.67,-25.41 -278.6,25.31 -396.87,118.26 -118.27,92.86 -202.75,228.05 -312.63,219.64 -109.77,-8.5 -244.93,-160.57 -354.83,-236.53 -109.75,-76.06 -194.24,-76.06 -287.24,-92.99 -92.87,-16.86 -194.24,-50.65 -320.96,-118.23 -126.67,-67.6 -278.73,-168.88 -473.09,-244.84 -194.25,-76.1 -430.66,-126.75 -684.1,-253.41 -253.43,-126.78 -523.79,-329.53 -625.15,-430.9 -101.37,-101.37 -33.76,-101.37 152.07,-75.98 185.86,25.29 489.96,75.98 946.15,109.77 456.15,33.79 1064.28,50.68 1503.58,-25.28 439.3,-76.09 709.52,-245.06 878.48,-397.13 168.95,-152.07 236.52,-287.23 42.16,-481.47 -194.24,-194.36 -650.3,-447.68 -1174.08,-692.59 -523.75,-245.04 -1115.01,-481.57 -1841.49,-532.26 -726.5,-50.68 -1588.25,84.36 -2065.59,130.88 -477.36,46.47 -570.23,4.18 -701.24,-76.08 -130.89,-80.19 -299.87,-198.47 -367.44,-257.55 -67.59,-59.19 -33.8,-59.19 185.85,-105.64 219.65,-46.54 625.12,-139.41 1132,-232.28 506.86,-92.99 1114.99,-185.98 1625.96,-346.43 511.13,-160.45 925.14,-388.6 1132.04,-519.49 206.98,-130.93 206.98,-164.7 185.8,-215.37 -21.13,-50.7 -63.31,-118.28 -236.51,-219.65 -173.22,-101.37 -477.24,-236.53 -777.08,-358.96 -299.89,-122.51 -595.58,-232.41 -1030.63,-325.25 -435.01,-93.01 -1009.36,-168.98 -1550.01,-152.07 -540.65,16.88 -1047.52,126.64 -1503.73,278.7 -456.18,152.07 -861.55,346.43 -1136.11,460.44 -274.57,114.02 -418.12,147.81 -532.3,147.81 -113.96,0 -198.33,-33.79 -380.09,-109.75 -181.58,-76.08 -460.31,-194.36 -561.68,-253.44 -101.38,-59.2 -25.4,-59.2 190.02,-130.93 215.49,-71.81 570.18,-215.5 958.8,-375.95 388.56,-160.45 810.94,-337.92 1237.52,-540.66 426.61,-202.75 857.52,-430.78 1161.52,-654.68 304.13,-223.87 481.57,-443.4 536.4,-574.33 54.97,-131.01 -12.67,-173.18 -299.84,-228.15 -287.24,-54.93 -793.99,-122.51 -1262.8,-160.45 -468.86,-38.02 -899.74,-46.55 -1339,0 -439.18,46.47 -887.01,147.84 -1419.16,346.3 -532.16,198.52 -1148.87,494.23 -1571.27,735.03 -422.3,240.66 -650.42,426.5 -785.62,519.49 -135.04,92.87 -177.33,92.87 -194.24,75.98 -16.88,-16.9 -8.37,-50.69 54.97,-215.37 63.31,-164.72 181.59,-460.45 173.07,-671.6 -8.39,-211.22 -143.55,-337.88 -367.45,-409.74 -223.77,-71.8 -536.37,-88.71 -903.94,4.28 -367.47,92.99 -789.96,295.71 -1005.48,376.06 -215.52,80.21 -223.89,38.02 -240.78,-181.61 -16.91,-219.65 -42.31,-616.6 -97.22,-975.57 -54.85,-359.06 -139.34,-680.08 -380.1,-844.8 -240.7,-164.68 -637.78,-173.2 -903.5,-38.02 -265.63,135.16 -399.87,414.01 -399.87,684.33 0,270.23 134.24,532.14 214.14,739.16 79.88,206.87 105.17,358.92 92.48,392.71 -12.6,33.79 -63.31,-50.68 -244.92,-202.74 -181.57,-152.07 -494.22,-371.67 -726.5,-494.08 -232.31,-122.53 -384.36,-147.94 -587.12,-147.94 -202.73,0 -456.14,25.41 -595.46,114.15 -139.39,88.62 -164.79,240.64 -135.16,392.7 29.56,152.07 114.02,304.12 143.53,392.88 29.57,88.59 4.28,113.98 -240.64,113.98 -245.05,0 -709.76,-25.39 -937.78,-38.02 -228.03,-12.65 -219.65,-12.65 -114,-97.14 105.62,-84.47 308.35,-253.44 439.26,-418.12 130.94,-164.72 190.14,-325.27 168.96,-485.74 -21.14,-160.52 -122.51,-320.97 -274.57,-405.46 -152.08,-84.49 -354.81,-92.99 -667.31,-25.41 -312.58,67.58 -734.87,211.27 -1081.15,430.87 -346.44,219.55 -616.63,515.26 -785.62,688.51 -168.94,173.06 -236.55,223.75 -380.1,249.14 -143.67,25.29 -363.3,25.29 -578.67,21.18 -215.44,-4.27 -426.64,-12.78 -498.38,-33.79 -71.83,-21.18 -4.23,-54.97 202.77,-202.74 206.84,-147.96 553.26,-409.78 777.2,-608.27 223.75,-198.59 325,-333.63 379.97,-519.49 54.91,-185.86 63.31,-422.39 -97.14,-625.16 -160.45,-202.74 -489.97,-371.71 -840.54,-304.13 -350.52,67.6 -722.13,371.71 -1060.03,819.51 -337.93,447.68 -642.07,1038.93 -819.39,1359.92 -177.49,321 -228.16,371.7 -380.22,409.76 -152.03,37.9 -405.47,63.31 -506.84,54.92 -101.36,-8.5 -50.69,-50.81 130.89,-392.82 181.61,-342.2 494.23,-984.1 637.88,-1406.49 143.57,-422.39 118.17,-625.15 71.77,-794.11 -46.48,-168.95 -114.05,-304.11 -316.8,-388.6 -202.72,-84.48 -540.52,-118.27 -861.55,54.98 -321.02,173.05 -625.15,553.27 -777.21,1017.86 -152.04,464.56 -152.04,1013.71 -135.16,1410.69 16.9,397 50.69,642.06 42.3,772.95 -8.52,130.93 -59.18,147.84 -245.05,202.74 -185.86,54.85 -506.75,147.84 -725.33,207.8 -218.77,59.92 -334.96,87.05 -325.51,-9.26 9.41,-96.33 144.59,-315.98 212.18,-527.13 67.57,-211.24 67.57,-414.01 21.13,-527.99 -46.55,-114.05 -139.41,-139.41 -354.78,-59.08 -215.55,80.19 -553.33,265.93 -747.58,527.87 -194.36,261.82 -245.05,599.77 -278.84,827.92 -33.78,228.03 -50.64,346.29 -92.86,418.12 -42.27,71.73 -109.86,97.14 -304.1,168.95 -194.35,71.74 -515.38,190.01 -802.62,342.03 -287.22,152.07 -540.53,337.93 -696.83,435.07 -156.35,97.1 -215.43,105.6 -308.29,105.6 -92.94,0 -219.73,-8.5 -329.5,-4.22 -109.76,4.22 -202.73,21.11 -295.61,131 -92.98,109.75 -185.85,312.52 -249.22,443.45 -63.39,130.91 -97.2,190.09 -582.9,468.82 -485.74,278.72 -1423.37,777.17 -1917.52,1055.88 -494.23,278.73 -544.89,337.92 -468.81,143.68 75.96,-194.36 278.73,-642.13 557.56,-1051.77 278.73,-409.73 633.42,-781.33 832.03,-975.57 198.47,-194.38 240.64,-211.27 375.8,-190.09 135.2,20.99 363.34,80.19 570.34,71.81 206.89,-8.5 392.75,-84.61 523.64,-211.27 130.94,-126.66 207.02,-304.11 202.74,-502.58 -4.23,-198.49 -88.7,-418.13 -240.76,-549.07 -152.07,-131 -371.6,-173.18 -625.03,-88.71 -253.44,84.48 -540.67,295.61 -684.22,439.29 -143.69,143.52 -143.69,219.6 -304.13,380.05 -160.55,160.45 -481.57,405.51 -832.1,836.28 -350.58,430.8 -730.8,1047.45 -950.33,1478.23 -219.63,430.75 -278.8,675.8 -439.26,912.33 -160.45,236.42 -422.39,464.59 -582.83,591.37 -160.45,126.66 -219.65,151.95 -232.3,88.59 -12.64,-63.3 21.03,-215.37 25.28,-451.93 4.28,-236.53 -21.14,-557.55 -88.59,-785.58 -67.59,-228.12 -177.49,-363.17 -316.79,-439.18 -139.42,-76.05 -308.37,-92.96 -481.45,54.83 -173.23,147.84 -350.7,460.43 -452.07,789.84 -101.38,329.4 -126.67,675.85 -109.75,1013.75 16.88,337.81 75.96,667.31 80.22,861.55 4.26,194.24 -46.44,253.44 -202.73,413.89 -156.33,160.45 -418.14,422.39 -553.3,451.95 -135.17,29.51 -143.67,-173.13 -168.96,-434.95 -25.29,-261.94 -67.57,-582.96 -190.01,-832.13 -122.5,-249.16 -325.25,-426.61 -464.66,-481.47 -139.44,-54.92 -215.41,12.66 -316.79,304.12 -101.38,291.38 -228.16,806.62 -270.32,1258.57 -42.2,451.91 0,840.53 29.69,1106.58 29.51,266.09 46.39,409.78 -50.71,642.06 -97.26,232.26 -308.37,553.28 -451.95,756.02 -143.63,202.76 -219.72,287.25 -266.2,249.21 -46.4,-38.06 -63.29,-198.51 -122.37,-553.32 -59.2,-354.81 -160.57,-903.84 -342.18,-1309.23 -181.59,-405.48 -443.56,-667.44 -642.01,-806.76 -198.53,-139.41 -333.69,-156.3 -447.69,126.66 -114.02,283 -207.02,865.84 -135.16,1499.38 71.81,633.49 308.24,1317.84 460.28,1735.96 152.08,418.16 219.65,570.23 249.22,675.85 29.39,105.48 20.92,164.68 -29.88,236.54 -50.81,71.68 -143.68,156.17 -228.17,308.24 -84.49,152.04 -160.57,371.69 -198.47,481.59 -38.08,109.77 -38.08,109.77 -122.54,-42.29 -84.49,-152.07 -253.45,-456.21 -502.62,-604 -249.16,-147.82 -578.68,-139.44 -781.33,-42.17 -202.74,97.09 -278.82,282.83 -308.38,439.17 -29.52,156.3 -12.64,282.96 59.2,401.24 71.73,118.27 198.52,228.15 168.96,287.23 -29.64,59.07 -215.51,67.58 -392.84,160.56 -177.5,92.87 -346.3,270.21 -354.69,481.47 -8.53,211.1 143.4,456.16 346.16,561.81 202.77,105.47 456.22,71.68 625.16,25.29 168.95,-46.59 253.44,-105.65 247.12,-25.41 -6.33,80.11 -103.47,299.72 -171.03,413.77 -67.59,113.9 -105.64,122.41 -152.07,116.08 -46.57,-6.45 -101.37,-27.46 -187.94,-42.29 -86.66,-14.86 -204.93,-23.24 -320.99,38.01 -116.21,61.18 -230.23,192.19 -232.31,363.19 -2.18,171.03 107.73,382.3 192.18,513.23 84.49,130.89 143.57,181.56 130.9,217.55 -12.61,35.87 -97.1,57 -202.75,105.65 -105.59,48.5 -232.25,124.56 -314.68,221.7 -82.4,97.1 -120.33,215.37 -147.8,274.57 -27.46,59.08 -44.35,59.08 -86.54,44.37 -42.3,-14.8 -109.87,-44.49 -198.52,-65.5 -88.72,-21.16 -198.59,-33.79 -293.5,-27.46 -95.09,6.3 -175.43,31.69 -226.11,42.26 -50.69,10.49 -71.73,6.33 -54.85,-52.75 16.92,-59.2 71.75,-173.32 95.1,-297.92 23.18,-124.56 14.69,-259.72 -25.42,-384.33 -40.12,-124.61 -111.96,-238.59 -268.27,-303.99 -156.29,-65.53 -396.99,-82.44 -576.53,-25.41 -179.51,57.02 -297.79,187.91 -361.08,354.81 -63.36,166.78 -71.63,369.4 -96.92,460.19 -25.38,90.79 -67.57,69.66 -139.42,44.39 -71.82,-25.4 -173.06,-54.97 -348.38,-42.19 -175.27,12.63 -424.58,67.46 -561.79,202.64 -137.21,135.17 -162.62,350.66 -99.21,513.28 63.37,162.51 215.31,272.4 325.18,346.31 109.74,73.91 177.31,111.81 136.19,214.35 -41.24,102.4 -191.16,269.17 -280.8,416.06 -89.74,146.77 -119.19,273.55 9.79,472.18 128.83,198.49 415.93,468.69 597.54,511.01 181.59,42.15 257.69,-143.57 299.99,-84.37 42.2,59.08 50.57,363.07 46.42,544.66 -4.22,181.63 -21.13,240.8 -114.01,228.15 -92.98,-12.73 -261.95,-97.1 -430.91,-143.57 -168.95,-46.52 -337.9,-54.9 -430.77,80.26 -92.99,135.04 -109.77,413.89 33.92,616.61 143.53,202.62 447.54,329.4 650.3,392.75 202.75,63.31 304.13,63.31 380.21,244.94 75.98,181.56 126.65,544.9 223.78,941.9 97.14,396.98 240.81,827.85 342.17,1085.56 101.25,257.55 160.45,342.04 194.25,591.23 33.79,249.16 42.16,663.19 46.39,870.16 4.3,206.9 4.3,206.9 -46.39,194.24 -50.7,-12.73 -152.08,-38.02 -316.79,-97.09 -164.68,-59.2 -392.84,-152.17 -544.79,-198.64 -152.04,-46.4 -228.14,-46.4 -278.83,-33.67 -50.71,12.66 -75.97,37.95 -88.63,139.32 -12.74,101.37 -12.74,278.84 84.4,494.22 97.09,215.36 291.48,468.66 502.6,625 211.15,156.27 439.3,215.35 587.07,253.44 147.84,38.02 215.41,54.9 244.93,245.03 29.57,190.11 21.18,553.3 4.28,730.66 -16.88,177.45 -42.3,169.07 -194.24,76.08 -152.08,-92.87 -430.89,-270.34 -735.03,-326.77 -304.13,-56.57 -633.54,7.93 -641.93,265.47 -8.51,257.72 304,708.62 481.48,967.79 177.33,259.26 219.65,326.85 105.62,373.29 -114.14,46.42 -384.47,71.83 -561.8,173.2 -177.48,101.37 -261.91,278.73 -232.28,430.8 29.52,152.04 173.08,278.8 380.1,392.83 206.96,114 477.2,215.37 612.36,278.72 135.18,63.31 135.18,88.72 0,164.68 -135.16,76.11 -405.4,202.77 -570.08,388.6 -164.84,185.86 -223.91,430.92 -190.1,599.75 33.78,168.97 160.45,261.96 304.11,291.48 143.55,29.56 304.13,-4.23 485.73,-8.5 181.6,-4.13 384.37,21.16 549.05,-25.29 164.71,-46.42 291.5,-164.68 350.65,-194.34 59.08,-29.56 50.6,29.66 59.08,185.86 8.42,156.3 33.79,409.73 101.36,565.91 67.51,156.34 177.37,215.54 240.71,270.32 63.31,54.97 80.19,105.67 105.6,156.32 25.3,50.72 59.08,101.37 114.05,160.45 54.9,59.2 130.9,126.78 190.07,270.32 59.08,143.69 101.4,363.34 67.61,443.58 -33.82,80.18 -143.69,21.13 -342.17,-59.2 -198.5,-80.24 -485.71,-181.61 -675.71,-223.93 -190.11,-42.17 -283.07,-25.26 -337.92,-4.1 -54.93,21.13 -71.8,46.42 -16.9,185.85 54.85,139.42 181.62,392.86 354.82,612.5 173.11,219.63 392.72,405.37 612.37,527.87 219.65,122.55 439.3,181.63 553.31,236.56 114.01,54.92 122.52,105.6 139.42,274.57 16.77,168.95 42.18,456.06 118.27,869.95 75.97,414.01 202.64,954.68 249.17,1208.12 46.44,253.39 12.65,219.6 -152.06,92.87 -164.68,-126.66 -460.44,-346.31 -734.89,-620.93 -274.6,-274.43 -528.03,-603.98 -667.3,-819.35 -139.41,-215.4 -164.83,-316.79 -152.09,-413.89 12.68,-97.14 63.34,-190.11 84.48,-342.18 21.04,-152.07 12.65,-363.17 -54.92,-515.23 -67.59,-152.07 -194.36,-245.04 -388.61,-287.35 -194.24,-42.17 -456.17,-33.67 -637.76,76.1 -181.63,109.88 -282.99,321 -282.99,527.99 0,206.99 101.36,409.62 228.17,527.89 126.64,118.28 278.57,152.07 388.48,270.33 109.74,118.27 177.33,321.02 582.83,747.66 405.46,426.76 1149.01,1077.44 1554.5,1428.1 405.5,350.67 473.07,401.35 612.5,663.19 139.26,261.94 350.53,734.89 464.57,988.33 113.99,253.41 130.87,287.2 8.52,249.18 -122.56,-37.94 -384.5,-147.84 -604.03,-202.76 -219.65,-54.83 -397.08,-54.83 -620.87,16.88 -223.88,71.83 -494.2,215.52 -603.97,312.66 -109.91,97.1 -59.2,147.77 109.77,274.43 168.94,126.78 456.18,329.4 743.4,472.97 287.18,143.66 574.3,228.15 848.92,274.6 274.54,46.56 536.39,54.95 701.19,84.48 164.73,29.66 232.3,80.34 388.6,325.27 156.23,245.04 401.23,684.22 527.9,933.38 126.65,249.28 135.18,308.36 114.05,342.15 -21.19,33.79 -71.83,42.3 -228.06,33.79 -156.3,-8.38 -418.23,-33.79 -650.54,-67.58 -232.28,-33.79 -435.03,-75.96 -701.09,-173.17 -266.1,-97.15 -595.6,-249.22 -789.83,-337.96 -194.24,-88.57 -253.44,-113.97 -295.63,-194.24 -42.29,-80.18 -67.57,-215.35 -118.26,-333.62 -50.68,-118.28 -126.76,-219.65 -295.61,-261.94 -168.96,-42.18 -430.93,-25.29 -587.13,63.42 -156.31,88.76 -206.98,249.21 -177.43,426.55 29.53,177.47 139.39,371.79 308.36,477.34 168.96,105.59 397,122.5 549.05,122.5 152.08,0 228.16,-16.91 443.53,97.14 215.37,113.98 570.06,359.04 1013.64,494.2 443.41,135.19 975.7,160.69 1313.58,160.69 337.91,0 481.46,-25.31 570.23,0 88.7,25.38 122.49,101.35 177.45,173.2 54.8,71.83 130.88,139.32 232.28,228.06 101.25,88.69 228.02,198.46 261.82,291.33 33.79,92.99 -25.41,169.07 -97.1,257.72 -71.87,88.69 -156.35,190.06 -147.84,316.72 8.38,126.8 109.78,278.87 223.81,354.83 114,76.11 240.78,76.11 304.09,168.95 63.34,92.99 63.34,278.85 97.13,397.13 33.8,118.23 101.37,168.83 253.45,164.56 152.06,-4.11 388.69,-63.31 511.24,-54.81 122.49,8.48 130.89,84.49 92.97,308.36 -38.07,223.88 -122.53,595.48 -109.75,1203.61 12.6,608.24 122.37,1453 354.78,2124.48 232.31,671.56 587,1170.06 848.94,1482.57 261.81,312.47 430.75,439.25 536.38,468.82 105.64,29.51 147.8,-38.07 185.87,-354.84 38.01,-316.72 71.8,-882.68 67.57,-1512.06 -4.27,-629.31 -46.44,-1321.88 21.15,-1600.73 67.45,-278.7 244.9,-143.66 346.3,-59.17 101.37,84.46 126.66,118.25 156.29,447.68 29.56,329.52 63.36,954.51 202.77,1520.44 139.32,566.1 384.36,1072.96 726.5,1567.06 342.04,494.22 781.22,975.69 1064.21,1212.25 282.96,236.53 409.71,228.03 473.08,105.47 63.3,-122.38 63.3,-358.94 33.75,-836.25 -29.51,-477.22 -88.71,-1195.22 -143.51,-1655.68 -54.97,-460.31 -105.65,-663.05 -109.81,-760.15 -4.21,-97.14 37.96,-88.76 84.49,-63.47 46.45,25.41 97,67.7 177.38,316.91 80.23,249.17 189.98,705.23 316.75,1085.33 126.66,380.21 270.34,684.3 625.15,1127.76 354.69,443.52 920.73,1026.38 1292.44,1313.59 371.61,287.2 549.06,278.73 663.05,211.15 114.04,-67.46 164.74,-194.24 160.45,-544.83 -4.22,-350.53 -63.3,-924.87 -211.13,-1368.4 -147.92,-443.45 -384.33,-756.04 -519.49,-925.01 -135.2,-168.95 -168.98,-194.24 -126.67,-177.34 42.18,16.89 160.46,75.97 321.03,211.13 160.45,135.18 363.06,346.4 625,587.09 261.85,240.78 582.83,510.98 954.53,667.33 371.7,156.29 793.98,198.46 1022.15,228.03 228.02,29.63 261.82,46.54 257.66,173.2 -4.23,126.78 -46.52,363.19 -38.01,595.47 8.37,232.31 67.57,460.46 194.23,654.7 126.67,194.33 321.03,354.78 506.89,456.15 185.8,101.37 363.16,143.67 502.6,101.37 139.39,-42.17 240.66,-168.95 282.95,-367.41 42.18,-198.49 25.3,-468.84 -42.29,-663.2 -67.58,-194.24 -185.73,-312.49 -63.19,-333.68 122.37,-21.01 485.69,54.98 701.08,101.37 215.42,46.59 282.87,63.48 316.66,122.56 33.8,59.2 33.8,160.57 71.82,316.74 38.06,156.34 114.04,367.56 211.27,574.46 97.13,206.99 215.39,409.61 384.32,561.68 168.97,152.05 388.52,253.44 540.54,266.1 152.08,12.75 236.57,-63.36 287.24,-223.81 50.7,-160.45 67.57,-405.48 46.57,-578.68 -21.16,-173.11 -80.36,-274.45 -76.1,-325.18 4.23,-50.65 71.82,-50.65 211.16,-23.18 139.27,27.46 350.41,82.29 489.73,109.75 139.32,27.46 206.88,27.46 325.13,99.2 118.28,71.83 287.22,215.51 718.15,492.17 430.77,276.62 1123.37,686.26 1490.82,914.27 367.44,228.15 409.73,274.74 441.47,390.79 31.62,116.2 52.64,302.06 94.93,521.71 42.16,219.65 105.65,473.09 213.31,635.71 107.7,162.65 259.78,234.36 411.84,223.76 152.07,-10.58 304.12,-103.43 365.37,-272.4 61.24,-168.95 31.61,-413.99 35.95,-553.4 4.25,-139.31 42.57,-172.99 152.41,-149.77 109.89,23.23 291.49,103.56 399.18,145.74 107.69,42.29 141.47,46.44 154.23,52.75 12.66,6.44 4.14,14.83 -2.18,101.37 -6.3,86.66 -10.58,251.38 48.62,456.18 59.08,204.94 181.49,449.87 350.51,563.9 168.98,114.12 384.39,97.1 572.41,50.58 187.95,-46.47 348.51,-122.43 504.79,-46.47 156.21,75.99 308.17,304.14 494.03,401.28 185.83,97.1 405.45,63.31 574.41,-50.7 168.97,-114.02 287.22,-308.38 342.19,-485.74 54.81,-177.33 46.41,-337.88 75.96,-388.58 29.53,-50.67 97.1,8.48 198.47,21.14 101.4,12.65 236.56,-21.14 327.83,-126.78 91.13,-105.48 138.24,-282.96 161.92,-447.68 23.61,-164.68 23.61,-316.75 -143.55,-392.85 -167.25,-75.97 -501.7,-75.97 -601.24,-105.48 -99.65,-29.54 35.42,-88.76 124.16,-215.42 88.72,-126.64 130.88,-321.02 135.18,-451.91 4.22,-130.93 -29.57,-198.51 48.96,-244.91 78.46,-46.47 269.26,-71.86 438.22,-190.14 168.95,-118.27 315.95,-329.37 410.69,-392.85 94.71,-63.3 136.87,21.16 267.77,147.82 131.02,126.76 350.58,295.71 527.93,342.18 177.43,46.52 312.59,-29.57 350.65,-177.36 38.04,-147.82 -21.14,-367.44 -42.29,-506.88 -21.05,-139.29 -4.15,-198.46 38.03,-223.87 42.3,-25.29 109.89,-16.79 173.25,21.13 63.29,38.07 122.48,105.65 240.64,156.32 118.27,50.7 295.75,84.49 468.85,75.99 173.2,-8.41 342.15,-59.08 456.16,-152.07 114.03,-92.87 173.23,-228.03 223.89,-312.52 50.71,-84.46 92.87,-118.25 232.29,-135.16 139.42,-16.88 375.95,-16.88 743.42,-71.86 367.44,-54.8 865.81,-164.7 1275.43,-266.07 409.73,-101.25 730.74,-194.24 903.85,-223.75 173.2,-29.57 198.62,4.1 33.82,151.95 -164.71,147.91 -519.4,409.73 -891.1,663.17 -371.7,253.44 -760.32,498.45 -1026.38,616.63 -266.11,118.28 -409.78,109.85 -532.28,63.3 -122.44,-46.39 -223.81,-130.88 -426.53,-164.67 -202.73,-33.79 -506.75,-16.91 -616.62,198.47 -109.76,215.42 -25.29,629.38 122.51,857.41 147.81,228.17 359.06,270.34 536.39,244.94 177.36,-25.29 321.01,-118.14 443.45,-215.38 122.5,-97.14 223.88,-198.51 494.19,-346.28 270.36,-147.84 709.53,-342.2 1195.23,-718.03 485.83,-375.82 1018.24,-933.37 1305.48,-1250.17 287.2,-316.62 329.49,-392.73 380.17,-443.42 50.68,-50.54 109.77,-75.97 282.99,-152.05 173.2,-75.99 460.29,-202.65 570.07,-219.53 109.9,-16.91 42.29,75.96 -33.79,219.53 -75.99,143.69 -160.33,338.05 -202.63,515.38 -42.17,177.36 -42.17,337.93 -33.81,502.6 8.52,164.73 25.44,333.66 71.83,439.18 46.44,105.65 122.56,147.91 206.89,126.78 84.49,-21.13 177.49,-105.64 342.17,-278.85 164.72,-173.08 401.27,-435.02 587.09,-794.1 185.86,-358.94 321.02,-815.01 388.59,-1064.17 67.59,-249.19 67.59,-291.5 244.95,-426.67 177.45,-135.16 532.14,-363.16 722.24,-443.52 190.13,-80.21 215.42,-12.63 202.75,122.53 -12.62,135.18 -63.31,337.9 -92.94,667.3 -29.57,329.52 -37.96,785.59 71.83,967.22 109.86,181.7 337.9,88.71 553.27,-135.16 215.5,-223.81 418.17,-578.62 544.82,-967.22 126.79,-388.57 177.43,-810.85 185.82,-1093.85 8.53,-282.95 -25.26,-426.64 177.47,-625.11 202.75,-198.51 642.05,-451.95 823.62,-473.08 181.61,-21.16 105.65,190.08 67.59,473.08 -38.02,282.96 -38.02,637.79 29.55,975.7 67.59,337.87 202.73,658.77 337.88,832.02 135.2,173.18 270.36,198.47 473.09,-76.1 202.72,-274.45 473.06,-848.79 544.81,-1452.82 71.8,-603.97 -54.85,-1237.63 -118.28,-1575.51 -63.36,-337.9 -63.36,-380.09 25.4,-489.97 88.72,-109.75 266.05,-287.25 384.33,-405.5 118.25,-118.16 177.48,-177.36 194.25,-21.02 16.87,156.32 -8.4,527.89 33.79,768.65 42.29,240.83 152.05,350.59 325.26,375.87 173.22,25.41 409.76,-33.67 557.56,-206.89 147.82,-173.2 206.98,-460.31 223.79,-705.35 16.88,-244.93 -8.37,-447.7 84.49,-413.91 92.94,33.79 304.12,304.14 532.12,430.8 228.16,126.78 473.22,109.89 616.75,-12.66 143.55,-122.5 185.87,-350.54 130.93,-578.71 -54.97,-228.03 -206.89,-456.18 -392.74,-599.72 -185.86,-143.57 -405.51,-202.72 -430.9,-245.04 -25.28,-42.17 143.67,-67.48 308.38,-130.93 164.68,-63.31 325.28,-164.68 439.25,-202.74 114.05,-37.9 181.64,-12.61 367.49,-25.29 185.85,-12.61 489.86,-63.31 705.23,-190.09 215.5,-126.66 342.16,-329.4 359.09,-523.78 16.86,-194.24 -76.01,-380.08 -272.43,-416.06 -196.44,-35.85 -496.16,78.28 -658.83,137.35 -162.5,59.2 -187.91,63.36 -29.51,-139.41 158.39,-202.62 500.55,-612.35 682.14,-813.04 181.61,-200.59 202.74,-192.07 257.71,-147.84 54.9,44.39 143.55,124.72 363.18,223.92 219.65,99.29 570.2,217.55 916.5,293.53 346.44,76.09 688.46,109.88 1005.21,19.11 316.92,-90.82 608.24,-306.31 768.69,-542.84 160.61,-236.56 190.22,-494.15 -39.99,-705.4 -230.21,-211.14 -720.2,-375.82 -1199.56,-380.07 -479.43,-4.13 -948.24,152.07 -1165.84,209.05 -217.42,57.14 -183.62,14.85 -78.15,-109.76 105.66,-124.6 283.1,-331.45 382.29,-441.35 99.33,-109.77 120.46,-122.5 432.94,-133.11 312.67,-10.57 916.63,-18.96 1429.85,-175.25 513.17,-156.34 935.43,-460.34 1140.26,-758.14 204.92,-297.79 192.3,-589.13 86.66,-758.1 -105.48,-168.95 -304.09,-215.49 -578.71,-230.32 -274.43,-14.74 -625.02,2.17 -886.93,111.92 -261.82,109.9 -434.95,312.64 -557.44,414.03 -122.55,101.37 -194.35,101.37 -156.43,-52.79 38.04,-154.01 185.94,-462.16 272.52,-662.7 86.54,-200.45 111.94,-293.41 255.49,-365.29 143.57,-71.69 405.51,-122.36 756.06,-316.72 350.51,-194.24 789.8,-532.05 1013.62,-840.41 223.89,-308.42 232.4,-587.12 147.91,-781.46 -84.47,-194.24 -261.97,-304.13 -456.21,-325.29 -194.24,-21.01 -405.49,46.57 -532.26,97.26 -126.66,50.68 -168.84,84.47 -135.04,25.27 33.79,-59.06 143.55,-211.12 232.3,-413.87 88.7,-202.76 156.3,-456.2 202.75,-591.39 46.41,-135.16 71.82,-152.04 139.41,-105.59 67.57,46.54 177.32,156.29 320.89,228.12 143.69,71.86 321.14,105.65 452.04,54.98 130.93,-50.7 215.42,-185.86 236.41,-359.07 21.17,-173.1 -20.99,-384.37 -50.67,-515.25 -29.52,-130.94 -46.44,-181.64 122.54,-156.35 168.95,25.41 523.75,126.78 747.54,4.28 223.87,-122.44 316.84,-468.82 295.73,-701.12 -21.18,-232.28 -156.34,-350.54 -333.77,-418.12 -177.38,-67.58 -396.91,-84.48 -511.03,-105.64 -114,-21.14 -122.39,-46.43 -50.69,-147.8 71.83,-101.37 223.89,-278.84 291.48,-456.32 67.57,-177.33 50.78,-354.69 55.09,-451.93 4.22,-97.1 29.5,-113.98 147.77,-173.18 118.28,-59.08 329.53,-160.45 620.87,-299.88 291.51,-139.3 663.1,-316.75 1153.06,-777.18z"/>
 </g>
</svg>
