<?xml version="1.0" encoding="UTF-8"?>
<!DOCTYPE svg PUBLIC "-//W3C//DTD SVG 1.1//EN" "http://www.w3.org/Graphics/SVG/1.1/DTD/svg11.dtd">
<!-- Creator: CorelDRAW 2020 (64-Bit) -->
<svg xmlns="http://www.w3.org/2000/svg" xml:space="preserve" width="215.9mm" height="279.4mm" version="1.1" style="shape-rendering:geometricPrecision; text-rendering:geometricPrecision; image-rendering:optimizeQuality; fill-rule:evenodd; clip-rule:evenodd"
viewBox="0 0 21590 27940"
 xmlns:xlink="http://www.w3.org/1999/xlink"
 xmlns:xodm="http://www.corel.com/coreldraw/odm/2003">
 <defs>
  <style type="text/css">
   <![CDATA[
    .fil0 {fill:#A2662E}
   ]]>
  </style>
 </defs>
 <g id="Capa_x0020_1">
  <metadata id="CorelCorpID_0Corel-Layer"/>
  <path class="fil0" d="M-31508.71 269846.9c258.58,-28.15 516.32,-60.03 772.9,-95.93 149.81,134 181.51,207.23 183.86,280.59 2.86,97.44 -46.1,195.23 -95.05,262.52 -48.82,67.3 -97.81,104.06 -134.57,119.28 -36.78,15.28 -61.19,9.31 -275.19,-180.47 -108.65,-96.25 -266.07,-239.58 -451.95,-385.99zm16237.66 -8264.03c1062.85,-1164.49 2020.8,-2426.59 2858.08,-3772.11 52.69,220.63 121.18,440.26 187.07,620.41 110.32,299.74 214.23,489.35 266.22,593.42 52.06,103.89 52.06,122.36 30.52,152.83 -21.2,30.67 -64.22,73.55 -391.62,355.04 -327.22,281.47 -938.97,801.33 -1535.47,1217.37 -524.12,365.68 -1036.72,651.06 -1414.8,833.04zm-9614.06 2043.37c0,1175.84 -936.77,2129.08 -2092.3,2129.08 -1155.72,0 -2092.45,-953.24 -2092.45,-2129.08 0,-1175.88 936.73,-2128.95 2092.45,-2128.95 1155.53,0 2092.3,953.07 2092.3,2128.95zm-35256.82 -19430.93c0,12670.88 9133.12,23208.8 21175.37,25390.1 -36.79,13.9 -76.77,27.96 -120.33,42.03 -437.38,140.81 -1229.77,281.29 -1689.99,351.62 -460.42,70.32 -588.69,70.32 -744.78,45.9 -156.08,-24.57 -339.62,-73.54 -630.21,-174.52 -290.64,-100.82 -688.19,-253.67 -1110.28,-360.8 -422.31,-107.09 -868.85,-168.25 -1205.2,-58.27 -336.71,110.31 -562.95,391.79 -645.46,630.38 -82.9,238.6 -21.53,434.33 168.07,602.4 189.64,168.29 507.71,309.12 847.3,348.95 339.62,39.62 700.55,-21.53 1046.24,-116.43 345.72,-94.72 675.99,-223.17 951.35,-278.24 275.37,-55.09 495.64,-36.6 859.65,-85.58 364,-48.98 871.71,-165.39 1125.71,-205.06 253.85,-39.8 253.85,-3.05 21.53,198.8 -232.65,201.99 -697.66,569.02 -994.4,905.39 -296.7,336.55 -425.17,642.6 -403.62,862.72 21.33,220.29 192.67,354.87 446.5,321.12 253.86,-33.56 590.42,-235.37 1015.74,-660.54 425.19,-425.18 938.99,-1073.86 1205.18,-1413.48 265.9,-339.4 284.53,-370.07 376.21,-513.93 51.36,-80.34 125.75,-196.08 238.46,-316.72 360.44,54.23 723.24,100.13 1088.25,139.29 -284.21,198.27 -653.29,413.82 -944.24,639.54 -394.85,305.87 -645.47,630.04 -706.62,1000.12 -61.19,370.28 67.07,786.13 226.18,920.69 159,134.72 348.95,-11.88 810.87,-587.18 408.4,-508.55 1029.65,-1351.96 1489.54,-1893.69 210.51,15.4 421.79,28.46 633.97,38.81 -90.15,228.77 -195.4,478.22 -254.54,677.14 -110.32,370.28 -61.33,565.82 55.08,651.58 116.25,85.57 299.59,61.14 553.61,-116.28 254.03,-177.4 578.03,-507.84 749.35,-792.38 83.71,-138.78 130.82,-266.7 165.4,-388.56l5.26 0c147.76,0 295.35,-1.19 442.45,-3.71 61.99,131.49 200.29,250.96 393.46,358.74 284.54,159.12 688.19,293.84 1134.88,357.88 446.68,64.22 935.91,58.32 1180.61,55.25 244.69,-3.04 244.69,-3.04 168.26,134.55 -76.6,137.78 -229.27,412.96 -305.88,550.58 -76.4,137.76 -76.4,137.76 -256.89,9.15 -180.48,-128.3 -541.4,-385.36 -981.98,-559.73 -440.45,-174.19 -960.32,-266.21 -1358.23,-198.94 -397.55,67.46 -672.72,293.66 -767.65,623.96 -94.86,330.61 -9.13,764.92 262.99,975.89 272.17,211.14 731.22,198.81 1244.84,94.89 513.99,-104.04 1083,-299.76 1367.36,-397.72 284.53,-97.77 284.53,-97.77 156.08,122.53 -128.46,220.11 -385.36,660.75 -529.21,877.79 -143.69,217.25 -174.2,211.15 -412.79,107.12 -238.79,-104.25 -685.29,-305.88 -1156.39,-419.1 -471.11,-113.17 -966.59,-137.75 -1358.23,-30.66 -391.42,107.1 -678.98,345.87 -798.12,639.54 -119.49,293.67 -70.52,642.25 70.15,871.67 140.65,229.28 373.33,339.6 697.66,364.16 324.16,24.41 740.18,-36.94 1137.74,-174.51 397.72,-137.61 777.13,-351.79 997.08,-443.63 220.32,-91.69 281.64,-61.18 278.43,30.49 -3.04,92.02 -70.18,245.04 -183.36,388.56 -113.35,143.86 -272.33,278.56 -734.25,529.22 -461.95,250.97 -1226.69,618 -1761.85,1061.65 -535.49,443.48 -841.53,963.55 -893.39,1333.63 -51.86,370.11 149.81,590.38 422.1,712.73 272.33,122.38 614.79,146.94 969.82,85.61 354.85,-61.2 721.88,-207.96 1039.98,-596.49 318.24,-388.58 587.34,-1018.64 731.05,-1373.46 143.86,-354.87 162.14,-434.35 201.98,-458.75 39.79,-24.57 100.81,5.91 131.48,210.98 30.67,204.89 30.67,584.31 162.19,884.06 131.49,299.8 394.49,519.92 642.24,538.39 247.9,18.46 480.42,-165.22 654.61,-624.12 174.54,-458.71 290.8,-1193 189.8,-1768.12 -101.02,-575 -418.9,-990.98 -578.21,-1199.07 -158.94,-207.95 -158.94,-207.95 -70.13,-382.32 88.78,-174.37 266.03,-522.97 354.65,-697.51 88.82,-174.19 88.82,-174.19 116.26,-134.53 27.63,39.81 82.52,119.31 113.22,244.7 30.67,125.41 36.59,296.72 36.59,571.9 0,275.41 -5.92,654.82 82.51,994.23 88.8,339.75 272.49,639.37 511.08,783.22 238.46,143.88 532.12,131.51 706.48,-76.58 174.53,-207.92 229.43,-611.58 165.22,-1058.42 -64.05,-446.69 -247.72,-935.92 -489.56,-1275.54 -241.49,-339.42 -541.25,-529.23 -691.23,-624.08 -149.78,-94.75 -149.78,-94.75 -88.8,-238.63 61.36,-143.69 183.87,-431.27 250.98,-574.95 67.31,-143.73 79.65,-143.73 107.12,-122.53 27.44,21.49 70.48,64.37 189.61,367.21 119.3,302.82 315.18,865.57 520.08,1241.95 204.83,376.22 419.03,566 639.34,630.23 220.31,64.22 446.35,3.03 580.93,-156.07 134.68,-158.95 177.74,-416.02 95.03,-752.57 -82.51,-336.37 -290.61,-752.38 -620.87,-1046.08 -330.3,-293.66 -783.24,-464.96 -1009.64,-550.91 -226.24,-85.38 -226.24,-85.38 -214.04,-119.14 12.38,-33.7 36.78,-100.8 76.63,-146.74 39.63,-45.92 94.72,-70.31 206.04,-71.84 102.34,-1.34 251.98,16.95 405.84,-1.69 156.42,166.07 317.23,308.91 492.12,407.72 562.92,318.23 1272.45,183.68 1841.32,-73.37 569.03,-256.9 997.43,-636.33 1187.08,-1174.71 109.8,-311.64 139.63,-676.62 154.88,-981.14 170.62,-57.61 340.25,-117.43 509.2,-178.61l21.01 34.06c299.77,489.56 752.58,1309.23 1174.68,1762.01 422.29,452.82 813.76,538.39 1150.31,501.62 336.38,-36.61 618.02,-195.74 752.58,-428.22 134.53,-232.52 122.33,-538.39 171.13,-728.01 48.98,-189.65 159.3,-263.15 312,-318.24 153.01,-54.89 348.9,-91.68 532.25,-220.3 183.68,-128.29 354.99,-348.57 477.34,-526 122.39,-177.26 195.76,-311.98 293.68,-324.34 97.96,-12.23 220.12,98.1 397.56,128.63 177.41,30.49 409.91,-18.48 465.01,-244.72 55.08,-226.22 -67.31,-630.2 -397.76,-1033.88 -224.49,-274.5 -545.14,-548.84 -800.65,-769.68 383.82,-231.63 760.86,-473.29 1131.28,-723.73 74.38,156.59 163.21,314.5 272.14,464.49 284.54,391.44 706.48,728 1113.36,984.9 406.86,257.07 798.47,434.28 1024.71,397.52 226.4,-36.6 287.75,-287.21 9.14,-773.73 -278.38,-486.35 -896.26,-1208.44 -1266.37,-1676.47 -39.48,-49.65 -75.9,-96.75 -109.77,-140.96 271.95,-204.21 539.7,-413.32 803.19,-627.69 25.94,36.76 53.21,76.92 83.04,120.64 177.42,259.95 439.23,639.05 814.78,984.73 375.68,345.69 865.24,657.51 1268.91,831.87 403.98,174.56 722.05,211.15 890.16,122.33 168.43,-88.42 186.74,-302.77 -21.35,-697.29 -208.1,-394.49 -642.44,-969.82 -1122.68,-1364.33 -392.3,-322.29 -815.1,-524.1 -1086.89,-700.69 340.26,-301.8 672.75,-611.74 996.59,-930.66l7.8 19.3c122.34,311.99 318.05,752.38 874.74,1140.8 556.81,388.75 1474.62,725.11 2028.25,893.23 553.61,168.29 743.4,168.29 822.89,39.84 79.64,-128.31 48.96,-385.39 -183.72,-737.18 -232.3,-351.79 -666.64,-798.3 -1113.31,-1061.48 -446.54,-263.01 -905.63,-342.48 -1196.22,-397.57 -290.64,-55.22 -412.81,-85.75 -449.58,-116.23 -36.59,-30.67 12.37,-61.19 330.45,-260.11 318.25,-198.79 905.44,-565.82 1238.72,-700.56 333.51,-134.56 412.99,-36.58 835.28,211.14 422.1,247.94 1186.88,645.46 1814.07,786.12 626.99,140.84 1116.56,24.42 1410.2,-67.26 293.69,-91.68 391.63,-159.11 247.57,-385.53 -143.51,-226.21 -529.21,-611.74 -871.83,-856.45 -342.47,-244.69 -642.25,-348.54 -991.01,-406.85 -348.72,-58.13 -746.29,-70.33 -978.94,-79.64 -232.34,-9.17 -299.78,-15.08 -333.51,-36.61 -33.57,-21.2 -33.57,-58.12 205.06,-275.39 238.76,-217.06 715.8,-614.58 957.58,-822.67 241.66,-207.95 247.59,-226.43 354.88,-171.36 106.92,55.12 315.02,183.55 685.07,284.36 370.12,101 902.58,174.56 1300.12,143.88 397.69,-30.5 660.72,-165.2 853.38,-296.72 192.86,-131.52 315.2,-259.79 266.22,-400.77 -48.98,-140.66 -269.09,-293.68 -526.33,-397.73 -256.72,-104.04 -550.57,-158.92 -886.94,-155.91 -336.38,3.25 -715.98,64.25 -905.58,94.92 -189.46,30.68 -189.46,30.68 39.81,-220.29 229.44,-250.81 688.51,-752.59 942.34,-1003.36 253.86,-250.79 302.85,-250.79 510.77,-207.94 208.1,42.72 575.14,128.46 933.04,119.13 357.9,-9.14 706.47,-113.03 960.49,-244.69 254.03,-131.51 412.98,-290.63 504.65,-437.39 92,-146.92 116.42,-281.44 45.91,-394.68 -70.15,-113.03 -235.56,-205.02 -431.26,-260.08 -195.89,-54.94 -422.11,-73.22 -645.47,-48.84 -223.2,24.57 -443.47,91.72 -575.12,100.83 -131.53,9.32 -174.41,-39.67 -91.86,-171.3 82.67,-131.52 290.77,-345.53 443.78,-458.75 152.88,-113.17 250.8,-125.37 501.46,-189.6 250.97,-64.22 654.79,-180.51 939.14,-318.08 284.51,-137.77 449.71,-296.72 495.49,-492.6 46.07,-195.72 -27.29,-428.2 -152.84,-556.81 -125.24,-128.32 -302.83,-152.86 -428.23,-152.86 -125.41,0 -198.77,24.54 -269.29,-52.04 -70.31,-76.43 -137.42,-253.69 -281.46,-388.39 -143.51,-134.56 -363.82,-226.57 -574.96,-186.78 -211,39.84 -412.8,211.17 -529.22,394.68 -116.08,183.52 -146.59,379.42 -128.27,669.87 18.28,290.82 85.57,676.18 119.13,877.99 33.69,201.98 33.69,220.44 -24.42,299.74 -58.12,79.46 -174.36,220.47 -260.11,296.86 -85.57,76.45 -140.67,88.84 -168.3,49.01 -27.43,-39.81 -27.43,-131.49 -15.38,-281.64 12.36,-149.8 36.91,-357.74 -5.94,-486.18 -42.9,-128.62 -153.03,-177.58 -296.92,-128.62 -143.69,49.02 -320.95,195.74 -421.93,342.65 -101,146.75 -125.4,293.67 -125.4,526.14 0,232.52 24.4,550.59 33.55,728.04 9.13,177.4 3.22,214.18 -287.41,575.11 -290.63,360.97 -865.77,1046.23 -1186.89,1382.6 -321.13,336.58 -388.57,324.38 -425.34,253.88 -36.77,-70.31 -42.7,-198.58 -15.23,-425.18 27.44,-226.4 88.77,-550.56 6.1,-905.42 -58.65,-251.97 -189.64,-519.04 -338.42,-694.45 1980.47,-3651.79 3105.5,-7834.87 3105.5,-12281.12 0,-14251.47 -11553.49,-25805.14 -25804.93,-25805.14 -14251.64,0 -25805.15,11553.67 -25805.15,25805.14zm23560.32 21293.26c-428.21,39.83 -660.69,198.96 -669.87,388.57 -9.14,189.61 204.9,409.92 657.66,587.35 452.81,177.43 1144.03,311.96 1914.88,406.84 752.06,92.69 1579.52,147.13 2014.36,175.24 -28.28,94.72 -43.88,189.78 -46.42,283.51l-1560.39 785.79 -65.39 0c-282.49,0 -563.28,-6.62 -843.22,-16.29 -239.81,-148.26 -563.81,-345.68 -820.35,-488.04 -336.55,-186.4 -556.69,-278.42 -914.76,-376.21 -357.9,-97.92 -853.39,-201.82 -1266.19,-226.2 -413.15,-24.6 -743.57,30.31 -908.63,57.78 -165.22,27.76 -165.22,27.76 -186.59,-360.81 -21.33,-388.53 -64.37,-1165.32 -122.52,-1676.42 -58.1,-510.75 -131.48,-755.42 -382.11,-951.33 -250.98,-195.76 -679.33,-342.49 -1006.58,-266.06 -327.42,76.58 -553.63,376.18 -620.89,639.19 -67.45,263.15 24.56,489.56 70.46,602.76 45.78,113.22 45.78,113.22 -113.16,73.38 -159.13,-39.81 -477.39,-119.3 -731.22,-30.5 -254.02,88.78 -443.82,345.72 -489.4,621.08 -46.1,275.35 51.86,568.86 379.94,822.02 327.72,253.2 885.74,465.87 1418.02,618.89 532.25,153.01 1038.96,246.21 1292.1,292.81 219.79,40.52 248.59,45.74 250.63,140.15 -1381.16,-293.42 -2717.93,-706.67 -3999.69,-1227.13l0.55 18.92c-8156.45,-3275 -14034.51,-10920.89 -14833.09,-20054.59l-0.36 -4.11c-13.91,-159.6 -26.27,-319.62 -37.07,-480.08 -1.97,-28.95 -3.95,-57.81 -5.81,-86.78 -8.59,-134.79 -15.97,-269.9 -22.35,-405.28 -2.06,-42.97 -4.34,-85.88 -6.15,-128.95 -5.32,-127.44 -9.33,-255.23 -12.68,-383.21 -1.18,-45.15 -2.85,-90.19 -3.87,-135.37 -3.76,-169.6 -5.63,-339.67 -5.63,-510.18 0,-191.48 2.66,-382.1 7.25,-572.48 0.74,-31.26 1.58,-62.48 2.43,-93.73l0.44 -11.33c43.45,-1561.2 237.2,-3084.63 566,-4557.17l-0.97 0.49c7.84,-35.09 15.76,-70.16 23.75,-105.18 9.33,-41.96 19.23,-83.69 28.95,-125.5 34.97,-149.48 71.3,-298.43 109.04,-446.79 11.37,-44.68 22.87,-89.31 34.47,-133.89 37.68,-144.65 76.67,-288.76 116.98,-432.29 13.33,-47.41 26.78,-94.75 40.36,-142.08 40.42,-140.61 82.09,-280.68 125.02,-420.22 15.06,-49.02 30.32,-97.96 45.7,-146.87 43.08,-136.96 87.37,-273.41 132.89,-409.32 16.79,-50.2 33.75,-100.35 50.88,-150.41 40.11,-117.25 81.1,-234.05 123,-350.46l0.25 0.53c666.73,-1854.06 1555.83,-3602.01 2635.31,-5211.53l5.2 -7.72c24.12,-35.93 48.26,-71.82 72.55,-107.6 91.34,-134.63 183.98,-268.33 277.99,-401.02 9.92,-14 19.81,-27.99 29.78,-41.96 82.86,-116.44 166.74,-232.1 251.65,-346.96 20.93,-28.18 41.85,-56.24 62.87,-84.24 277.12,-371.15 565.84,-733.07 863.6,-1087.13l1.66 -2.16c4.83,-5.73 9.78,-11.37 14.58,-17.1 126.09,-149.62 253.94,-297.65 383.6,-444.09l39.12 -44.1c127.25,-142.98 256.21,-284.47 386.78,-424.41 11.4,-12.22 22.74,-24.52 34.19,-36.73 353.79,-377.49 719.68,-743.48 1097.07,-1097.37 23.25,-21.81 46.65,-43.44 69.99,-65.17 125.03,-116.28 251.24,-231.34 378.74,-344.98 29.37,-26.18 58.81,-52.33 88.3,-78.37 122.07,-107.73 245.31,-214.17 369.55,-319.42 33.07,-28.03 66.04,-56.11 99.24,-83.94 122.81,-102.87 246.8,-204.35 371.67,-304.83 34.41,-27.69 68.65,-55.55 103.18,-83.1 74.84,-59.65 150.17,-118.64 225.77,-177.32 47.37,-36.73 95.05,-73 142.7,-109.39 111.17,-84.9 222.92,-169.1 335.6,-252.13 51.49,-37.94 103.22,-75.56 155,-113.05 108.49,-78.54 217.54,-156.31 327.36,-233.11 56.31,-39.4 112.84,-78.61 169.54,-117.52 100.71,-69.14 202.02,-137.5 303.87,-205.14 67.29,-44.74 134.85,-89.2 202.57,-133.38 68.71,-44.77 137.65,-89.3 206.89,-133.31 102.09,-64.83 204.76,-128.88 307.9,-192.18 67.01,-41.13 134.2,-81.9 201.62,-122.4 107.1,-64.35 214.54,-128.16 322.74,-190.81 62.92,-36.42 126.19,-72.24 189.44,-108.1 87.39,-49.62 175.13,-98.68 263.22,-147.18 81.16,-44.68 162.6,-88.92 244.35,-132.69 90.09,-48.28 180.54,-95.96 271.29,-143.16 66.71,-34.7 133.49,-69.23 200.61,-103.28 111.46,-56.58 223.5,-112.11 335.95,-166.97 57.16,-27.88 114.31,-55.76 171.75,-83.22 124.81,-59.64 250.2,-118.19 376.25,-175.67 55.58,-25.36 111.31,-50.46 167.13,-75.45 129.94,-58.11 260.35,-115.43 391.51,-171.25 49.53,-21.11 99.32,-41.67 149.03,-62.42 124.4,-52.02 249.22,-103.14 374.64,-153.09 50.69,-20.18 101.51,-40.07 152.35,-59.93 125.18,-48.81 250.95,-96.46 377.05,-143.34 41.92,-15.55 83.68,-31.36 125.71,-46.68 144.39,-52.61 289.62,-103.51 435.37,-153.35 45.22,-15.47 90.44,-31.04 135.78,-46.25 146.18,-49.05 293,-96.73 440.41,-142.98 43.73,-13.71 87.52,-27.24 131.34,-40.73 151.3,-46.53 303.11,-91.94 455.64,-135.53 36.52,-10.45 73.18,-20.46 109.77,-30.73 157.12,-44.12 314.76,-87.03 473.17,-128.05 22.68,-5.89 45.46,-11.53 68.16,-17.34 157.11,-40.1 314.91,-78.43 473.21,-115.46 29.7,-6.95 59.28,-14.14 89.03,-20.97 163.46,-37.53 327.71,-73.07 492.44,-107.22 35.39,-7.32 70.76,-14.75 106.21,-21.94 163.8,-33.15 328.2,-64.67 493.19,-94.48 34.79,-6.28 69.61,-12.39 104.44,-18.54 168.66,-29.7 337.82,-57.94 507.64,-84.1 26.24,-4.04 52.54,-7.78 78.79,-11.72 179.66,-27.03 359.78,-52.61 540.73,-75.65 5.48,-0.72 11,-1.29 16.47,-1.99 179.95,-22.77 360.64,-43.2 541.78,-61.94 22.98,-2.37 45.87,-4.98 68.84,-7.27 176.56,-17.78 353.77,-33.37 531.45,-47.22 30.53,-2.39 61.01,-4.83 91.54,-7.08 175.87,-13.11 352.19,-24.31 529.09,-33.56 29.91,-1.53 59.83,-2.95 89.77,-4.41 180.15,-8.77 360.77,-15.84 541.97,-20.6 21.92,-0.57 43.93,-0.87 65.91,-1.4 190.7,-4.49 381.81,-7.28 573.58,-7.28 1773.89,0 3502.06,194.81 5165.88,561.12 10727.41,2361.76 18754.68,11922.44 18754.68,23359.47 0,90.46 -0.54,180.77 -1.57,270.97l-0.21 19.12c-1.09,88.76 -2.56,177.42 -4.57,265.94l-0.37 14.38c-2,85.63 -4.49,171.1 -7.41,256.47l-0.79 23.95c-3.02,86.41 -6.49,172.7 -10.42,258.84l-1.13 23.73c-3.88,82.84 -8.13,165.52 -12.84,248.15l-1.39 24.81c-4.89,83.64 -10.16,167.16 -15.89,250.57l-2.6 37.41c-5.47,78.08 -11.32,156.1 -17.52,233.99l-3.18 39.48c-6.29,77.41 -12.98,154.69 -20.02,231.91l-4.68 50.47c-6.97,74.66 -14.25,149.2 -21.93,223.67l-6.03 57.63c-7.21,68.75 -14.76,137.42 -22.57,205.99 -2.47,21.59 -4.9,43.14 -7.44,64.73 -8.19,70.2 -16.69,140.3 -25.51,210.33 -3.2,25.34 -6.46,50.69 -9.69,76.02 -7.78,60.21 -15.78,120.35 -24,180.39 -4.24,31.08 -8.53,62.12 -12.88,93.14 -8.23,58.56 -16.7,117.04 -25.37,175.5 -5.06,34.09 -10.19,68.14 -15.4,102.15 -7.86,51.57 -15.9,103.07 -24.13,154.5 -7.01,43.86 -14.09,87.7 -21.35,131.47 -7.38,44.72 -14.87,89.43 -22.49,134.04 -7.81,45.59 -15.73,91.11 -23.81,136.59 -6.74,38.24 -13.63,76.45 -20.59,114.61 -10.08,55.29 -20.31,110.55 -30.76,165.71 -4.92,25.89 -9.88,51.77 -14.86,77.6 -14.19,73.6 -28.71,147.08 -43.57,220.4l-9.25 45.37c-839.36,4102.58 -2728.68,7822.73 -5375.43,10867.05l0.07 -2.93 -9.15 10.55c-51.7,-155.38 -138.3,-186.22 -259.62,-147.27 -145.39,46.79 -341.13,193.36 -573.79,422.8 -232.3,229.45 -501.6,541.6 -685.11,801.54 -183.54,259.94 -281.49,468.02 -379.26,752.39 -18.47,53.53 -37.09,109.99 -55.72,167.95 -532.12,484.64 -1085.73,945.42 -1659.89,1380.74 181.36,-682.25 222.85,-1418.21 222.85,-1881 0,-562.93 -61.18,-721.91 -318.23,-630.05 -256.71,91.7 -709.68,434.33 -1015.57,831.86 -305.88,397.74 -464.81,850.7 -544.45,1076.77 -79.65,226.56 -79.65,226.56 -257.08,140.79 -177.27,-85.57 -532.27,-256.9 -709.7,-342.64 -177.25,-85.56 -177.25,-85.56 67.44,-220.28 244.72,-134.55 734.29,-403.66 1107.24,-893.23 373.32,-489.37 630.41,-1198.9 605.81,-1749.63 -24.39,-550.57 -330.45,-942.19 -746.46,-1180.79 -415.85,-238.59 -942.17,-324.17 -1205.18,-367.04 -263.01,-42.88 -263.01,-42.88 -238.58,-214.2 24.54,-171.33 73.36,-513.78 -36.77,-838.15 -110,-324.16 -379.26,-630.21 -832.05,-758.66 -452.81,-128.43 -1088.8,-79.47 -1523.27,208.12 -434.32,287.54 -666.82,813.71 -783.06,1076.73 -116.27,263.16 -116.27,263.16 -318.26,-104.05 -172.65,-314.01 -492.94,-896.28 -942.03,-1241.97 -36.77,-28.29 -74.53,-55.09 -113,-79.99 2.69,-2.05 5.57,-3.9 8.47,-5.93 -34.59,-25.26 -74.07,-50.36 -123.05,-75.41 -104.37,-53.37 -251.28,-106.42 -477.51,-116.59 -226.42,-10.35 -532.28,22.02 -754.62,72.86 -222.5,51.2 -361.6,120.66 -500.57,190.33 -20,12.69 -39.63,25.75 -58.65,39.31 -458.89,324.16 -630.17,826.09 -715.93,1064.51 -85.56,238.62 -85.56,214.21 -214.02,171.18 -128.45,-42.7 -385.54,-103.89 -593.63,122.35 -207.91,226.56 -366.86,740.36 -311.96,1254.34 55.06,513.93 324.35,1027.77 458.89,1284.63 134.56,256.91 134.56,256.91 -91.68,214.21 -226.4,-42.71 -679.18,-128.47 -1064.55,-116.28 -385.49,12.2 -703.55,122.52 -899.31,354.87 -195.84,232.48 -269.25,587.33 -232.66,881.01 36.82,293.67 183.71,526.18 257.08,636.14 73.39,110.14 73.39,98.12 -85.74,171.5 -158.95,73.37 -477.02,232.49 -721.73,581.25 -244.7,348.75 -416.02,886.95 -263.15,1327.53 153.02,440.43 630.22,783.04 1315.32,935.95 685.28,152.99 1578.32,116.4 2024.85,97.93 446.68,-18.3 446.68,-18.3 18.49,171.31 -428.23,189.8 -1284.7,569.05 -1763.4,1053.69 -68.95,69.98 -130.15,142.18 -183.34,215.87 -729.19,-286.73 -1557.67,-624.26 -2243.97,-838.96 -832.21,-259.95 -1456.31,-339.42 -1884.55,-299.78z"/>
 </g>
</svg>
