<?xml version="1.0" encoding="UTF-8"?>
<!DOCTYPE svg PUBLIC "-//W3C//DTD SVG 1.1//EN" "http://www.w3.org/Graphics/SVG/1.1/DTD/svg11.dtd">
<!-- Creator: CorelDRAW 2020 (64-Bit) -->
<svg xmlns="http://www.w3.org/2000/svg" xml:space="preserve" width="215.9mm" height="279.4mm" version="1.1" style="shape-rendering:geometricPrecision; text-rendering:geometricPrecision; image-rendering:optimizeQuality; fill-rule:evenodd; clip-rule:evenodd"
viewBox="0 0 21590 27940"
 xmlns:xlink="http://www.w3.org/1999/xlink"
 xmlns:xodm="http://www.corel.com/coreldraw/odm/2003">
 <defs>
  <style type="text/css">
   <![CDATA[
    .fil0 {fill:#A2662E}
   ]]>
  </style>
 </defs>
 <g id="Capa_x0020_1">
  <metadata id="CorelCorpID_0Corel-Layer"/>
  <path class="fil0" d="M-150715.53 376306.53c1330.34,1375.47 2285.02,2851.85 2918.54,4387.14 175.12,514.28 350.19,1028.61 525.28,1542.89 990.52,3635.61 356.81,7512.14 -1224.66,11108.69 -425.45,834.86 -850.93,1669.7 -1276.38,2504.57 -1448.94,2496.89 -3313.93,4780.3 -5335.27,6649.43 -7661.08,7084.15 -16305.6,12454.97 -16562.53,12614.08 -256.95,-159.11 -8901.44,-5529.93 -16562.5,-12614.08 -1573.48,-1455.03 -3051.95,-3161.33 -4313.73,-5023.59 -868.97,-1621.42 -1737.94,-3242.91 -2606.88,-4864.34 -1308.84,-3276.84 -1807.25,-6753.17 -1001.26,-10045.91 225.16,-674.16 450.3,-1348.34 675.48,-2022.47 633.32,-1481.16 1567.23,-2906.08 2853.88,-4236.41 7329.27,-7578.12 17011.07,-3138.86 20955.03,2509.29 3944,-5648.15 13625.73,-10087.41 20955,-2509.29zm-20955.02 38806.8l5.88 3.66 -11.71 0c0.11,-0.08 2.04,-1.32 5.83,-3.66zm19874.96 -10915.64c8470.87,-8136.63 14659,-22568.21 5271.12,-32651.66 -8795.22,-9446.93 -20413.25,-3912.93 -25146.06,3128.19 -4732.85,-7041.12 -16350.85,-12575.12 -25146.11,-3128.19 -9387.83,10083.45 -3199.71,24515.03 5271.17,32651.66 9192.97,8830.94 19566.15,15526.13 19874.92,15724.79 308.75,-198.66 10681.97,-6893.85 19874.96,-15724.79z"/>
 </g>
</svg>
