<?xml version="1.0" encoding="UTF-8"?>
<!DOCTYPE svg PUBLIC "-//W3C//DTD SVG 1.1//EN" "http://www.w3.org/Graphics/SVG/1.1/DTD/svg11.dtd">
<!-- Creator: CorelDRAW 2020 (64-Bit) -->
<svg xmlns="http://www.w3.org/2000/svg" xml:space="preserve" width="215.9mm" height="279.4mm" version="1.1" style="shape-rendering:geometricPrecision; text-rendering:geometricPrecision; image-rendering:optimizeQuality; fill-rule:evenodd; clip-rule:evenodd"
viewBox="0 0 21590 27940"
 xmlns:xlink="http://www.w3.org/1999/xlink"
 xmlns:xodm="http://www.corel.com/coreldraw/odm/2003">
 <defs>
  <style type="text/css">
   <![CDATA[
    .fil0 {fill:#A2662E}
   ]]>
  </style>
 </defs>
 <g id="Capa_x0020_1">
  <metadata id="CorelCorpID_0Corel-Layer"/>
  <path class="fil0" d="M-219549.3 -51175.78c2476.36,7094.34 7230.46,13201.66 13194.15,16065.41l337.43 158.28 204.36 91.95c606.22,375.56 1227.33,717.67 1862.26,1022.51l337.43 158.3c792.13,361.27 1604.14,690.93 2432.06,987.8 -2100.58,-468.39 -4139.48,-1152.72 -6057.95,-2027.82l-319.61 -149.13c-5681.69,-2728.52 -10225.34,-8588.24 -12606.94,-15410.98 -2303.55,-6599.72 -2576.81,-14085.47 104.82,-20497.5 -2092.23,6279.1 -1676.03,13332.35 511.99,19601.18zm52150.95 -18690.92c-160.24,-422.8 -320.4,-845.54 -480.64,-1268.36 -244.22,-600.03 -509.51,-1191.02 -795.16,-1772.09 -175.21,-397.5 -350.41,-794.96 -525.66,-1192.49l-1137.08 -1843.01c416.34,526.5 811.84,1066.77 1186.2,1619.63 201.03,312.86 402.08,625.8 603.06,938.65l1.3 -4.83c31.49,50.93 62.82,102.01 93.95,153.13 434.43,713.31 834.77,1445.51 1199.72,2194.8 183.55,405.97 367.15,811.92 550.76,1217.9l5.56 1.48c23.16,54.32 46.09,108.71 68.88,163.19 341.52,816.51 642.33,1650.84 901.15,2500.58 231.88,761.35 429.46,1535.49 592.76,2320.05 74.24,402.54 148.39,805.02 222.59,1207.58 218.38,1360.12 333.52,2749.09 340.13,4158.45 -5.45,361.73 -10.84,723.44 -16.26,1085.2 -43.8,1267.17 -174.96,2548.89 -397.24,3838.72 -100.3,502.5 -200.53,1004.97 -300.8,1507.47 -536.19,2365.58 -1381.21,4750.98 -2557.17,7118.69 -3386.9,6819.07 -8656.38,10868.01 -14496.68,12726.26 -829.74,263.98 -1671.28,483.62 -2520.78,661.28 2487.88,-932.13 4857.5,-2260.23 7012.16,-4026.99 3425.38,-2342.65 6413.58,-5669.08 8627.6,-10126.78 1335.72,-2689.14 2258.98,-5401.96 2801.01,-8087.85 65.54,-357.61 131.05,-715.21 196.59,-1072.86 210.77,-1280.62 335.53,-2553.48 377.02,-3812.93 5.1,-291.29 10.28,-582.53 15.41,-873.83 3.65,-1487.13 -108.35,-2953.62 -330.49,-4390.37 -39.49,-234.2 -79.04,-468.47 -118.54,-702.69 -192.6,-1063.35 -445.76,-2109.33 -757.71,-3133.93 -112.96,-370.93 -233.53,-739.04 -361.64,-1104.05zm-3005.72 -1834.37c-734.43,-1483.61 -1601.94,-2902.3 -2593.69,-4241.67 -171.89,-225.21 -343.71,-450.48 -515.62,-675.68 -73.61,-93.47 -147.74,-186.4 -222.61,-278.99 -166.93,-200.56 -333.9,-401.17 -500.83,-601.74 -2325.91,-2720.28 -5203.68,-5052.69 -8549.94,-6855.84 -361.09,-194.42 -741.35,-387.72 -1140.15,-579.1 -762.37,-365.95 -1535.01,-693.06 -2315.51,-982.71 1916.18,404.3 3808.87,1027 5641.76,1880.41 2691.02,1589.54 5039.66,3545.47 6994.26,5780.65 173.94,205.07 347.91,410.16 521.85,615.24 272.74,331.1 537.08,667.83 792.89,1010.01 168.01,232.21 335.95,464.39 503.95,696.61 951.28,1359.96 1771.59,2799.52 2451.83,4303.38 44.69,98.76 88.78,197.86 132.26,297.18l-13 -1.98c98.33,243 220.19,545.49 362.25,916.32 434.6,1134.05 825.93,2204.35 1108.32,3387.69 130.9,533.33 245.74,1071.76 343.77,1615.4 38.1,227.8 76.2,455.63 114.3,683.43 332.08,2158.64 404.6,4388.68 197.04,6656.06 -5.93,65.15 -12.1,130.32 -18.52,195.52l-2.71 1.5c-25.84,239.21 -51.69,478.47 -77.53,717.73 -37.04,297.73 -78.61,595.94 -125.3,894.57 -28.43,171.21 -56.87,342.47 -85.32,513.66 -360.7,2063.39 -954.46,4147.9 -1796.59,6228.1 729.64,-2130.43 1212.48,-4259.29 1463.47,-6362.13 19.11,-172.56 38.19,-345.16 57.32,-517.72 17.96,-177.23 34.31,-354.25 49,-531.21 18.2,-260.94 36.4,-521.92 54.6,-782.84 132.2,-2350.37 -24.97,-4658.25 -449.82,-6887.2 -45.24,-222.08 -90.47,-444.15 -135.66,-666.22 -49.4,-228.3 -101.42,-455.81 -156.32,-682.4 -183.3,-650.68 -366.71,-1301.42 -550.01,-1952.12 -139.48,-433.42 -289.52,-862.75 -449.89,-1287.83 -363.29,-835.36 -726.55,-1670.73 -1089.85,-2506.08zm-46105.34 -644.08c-72.53,151.03 -138.74,292.21 -199.09,424.72 -3120.09,6840.25 -2910.53,14930.16 -436.7,22017.42 996.78,2855.82 2362.91,5551.49 4028.31,7940.12 -2276.02,-2728.49 -4108.93,-6027.34 -5352.26,-9589.36 -2384.09,-6830.4 -2593.76,-14609.76 396.54,-21165.76 66.36,-145.6 130.08,-282.04 190.04,-406.93 162.36,-338.06 340.96,-687.65 534.42,-1046.84 1610.59,-2988.97 3765.27,-5539.44 6286.02,-7596.04 2168.86,-1492.56 4553.3,-2652.19 7058.89,-3447.99 835.31,-265.27 1684.44,-489.85 2543.07,-673.45 -6033.87,2223.13 -11290.88,6506 -14492.44,12447.74 -184.76,342.96 -370.6,708.6 -556.8,1096.37zm32089.62 -11557.97c349.67,167.85 713.69,353.68 1090.51,556.73 3280.4,1767.66 6091.46,4062.02 8348.78,6739.67 178.01,217.71 356.04,435.48 534.04,653.18 2082.51,2630.69 3647.37,5604.65 4619.09,8795.42 125.96,413.6 241.78,830.8 347.73,1251.46 110.07,497.89 220.14,995.77 330.2,1493.67 452.19,2363.57 590.01,4821.03 386.21,7325.99 -3.15,38.89 -6.41,77.76 -9.74,116.68l-1.4 0.77c-20.29,212.8 -40.49,425.65 -60.72,638.44 -371.92,3429.18 -1384.29,6938.12 -3108.33,10409.15 -1753.59,3530.98 -4012.31,6319.01 -6593.37,8444.9 -1945.03,1325.11 -4036.16,2318.25 -6206.23,3008.56 -6749.67,2147.63 -14268.44,1382.42 -20541.59,-1407.62 -4825.64,-3017.36 -8659.95,-8328.66 -10780.49,-14403.34 -2384.1,-6830.4 -2593.76,-14609.77 396.49,-21165.86 66.37,-145.49 130.2,-282 190.14,-406.84 162.32,-338.15 340.9,-687.68 534.42,-1046.95 3268.74,-6066.29 8777.76,-10327.09 15041.82,-12316.7 5699.21,-1810.26 10045.94,-1297.63 15482.44,1312.69zm2189.95 -2303.65c-6563.23,-3151.41 -13886.68,-3446.52 -20421.5,-1370.96 -3300.99,1048.54 -6401.42,2702.04 -9101.87,4897.5 -3381.46,2335.96 -6258.86,5449.87 -8300.5,9238.71 -184.71,342.96 -370.52,708.6 -556.72,1096.37 -72.55,151.03 -138.74,292.21 -199.1,424.72 -3120.01,6840.25 -2910.4,14930.16 -436.67,22017.42 2476.25,7094.26 7230.39,13201.63 13194.15,16065.38l337.38 158.3c3645.21,1662.64 8375.42,2661.58 13128.28,2913.53 0,0 2828.3,60.74 2828.3,60.74 3503.22,-35.62 6902.99,-491.13 9764.19,-1401.49 6120.3,-1947.24 11638.33,-6182.22 15177.94,-13308.82 1551.52,-3123.93 2546.88,-6279.61 3034.17,-9387.64 32.05,-220 64.15,-439.93 96.21,-659.93 149.46,-1115.23 233.36,-2223.48 254.52,-3321.14 1.58,-249.36 3.1,-498.71 4.67,-748.06 -6.17,-913.05 -55.98,-1818.38 -148.47,-2713.26 -99.96,-703.2 -199.99,-1406.42 -299.91,-2109.62 -192.67,-1063.77 -445.74,-2110.03 -757.93,-3134.87 -289.94,-952.33 -630.53,-1886.06 -1019.83,-2798.09 -184.26,-404.43 -368.52,-808.89 -552.74,-1213.29 -567.22,-1169.67 -1216.78,-2299.6 -1944.53,-3382.97 -222.64,-317.26 -445.25,-634.52 -667.87,-951.78 -913.43,-1245.58 -1934.14,-2423.09 -3055.07,-3521.32 -484.28,-443.67 -968.58,-887.34 -1452.82,-1330.99 -1616.22,-1383.68 -3408.68,-2614.96 -5360.23,-3666.66 -360.94,-194.42 -741.25,-387.72 -1140,-579.1l-214.38 -101.24c-344.71,-203.39 -694.39,-400.92 -1049.66,-592.35 -360.95,-194.48 -741.22,-387.77 -1140.01,-579.09z"/>
 </g>
</svg>
