<?xml version="1.0" encoding="UTF-8"?>
<!DOCTYPE svg PUBLIC "-//W3C//DTD SVG 1.1//EN" "http://www.w3.org/Graphics/SVG/1.1/DTD/svg11.dtd">
<!-- Creator: CorelDRAW 2020 (64-Bit) -->
<svg xmlns="http://www.w3.org/2000/svg" xml:space="preserve" width="215.9mm" height="279.4mm" version="1.1" style="shape-rendering:geometricPrecision; text-rendering:geometricPrecision; image-rendering:optimizeQuality; fill-rule:evenodd; clip-rule:evenodd"
viewBox="0 0 21590 27940"
 xmlns:xlink="http://www.w3.org/1999/xlink"
 xmlns:xodm="http://www.corel.com/coreldraw/odm/2003">
 <defs>
  <style type="text/css">
   <![CDATA[
    .fil0 {fill:#A2662E}
   ]]>
  </style>
 </defs>
 <g id="Capa_x0020_1">
  <metadata id="CorelCorpID_0Corel-Layer"/>
  <path class="fil0" d="M-49335.52 462421.8l13.5 1.33c-29.22,66.51 -59.53,131.93 -90.79,196.23 -61.41,126.35 -127.21,249.61 -196.63,370.7l-6.18 -5.34c101.46,-183.82 195.13,-371.84 280.1,-562.92zm-42065.76 -23616.43c-224.71,-21.61 -384.89,-122.96 -369.85,-216.82 15,-93.87 205.18,-180.33 308.9,-344.58 103.75,-164.27 121.03,-406.31 73.47,-609.49 -47.56,-203.14 -159.89,-367.39 -99.38,-341.4 60.47,25.89 293.9,242.02 548.94,397.61 212.08,129.39 439.12,216.99 663.72,265.19 -99.69,69.98 -196.36,139.29 -289.94,207.82 -299.65,219.63 -567.13,431.54 -811.85,643.71l-24.01 -2.04zm-2152.24 4961.22c198.64,-332.4 389.08,-647.17 566.72,-937.4 550.49,-899.4 980.12,-1566.27 1451.25,-2136.79 460.16,-557.2 967.67,-1029.92 1684.01,-1554.87 760.96,-557.78 1753.44,-1173.6 2844.93,-1761.11 725.28,-390.3 1492.51,-767.09 2262.83,-1104.96 -39.59,117.86 -92.98,255.93 -163.35,419.58 -134.34,312.3 -330.51,717.73 -535.82,1142.24 -656.1,347.41 -1289.89,719.24 -1929.25,1117.04 -952.53,592.49 -1920.74,1244.59 -2882.57,1969.27 -961.35,724.28 -1918.65,1523.44 -2850.71,2411.33 -150.14,143.02 -299.6,288.38 -448.04,435.67zm12482.77 -7717.92c-936.97,279.41 -1783.87,587.65 -2577.56,926.39 42.35,-349.93 76.35,-680.12 97.97,-942.47 7.82,-94.15 13.96,-179.51 18.5,-258.06 1030.54,-391.82 2041.02,-695.62 3030.34,-931.18 1068.23,-254.34 2105.35,-427.84 3112.47,-545.77 1015.88,-119.06 1996.45,-182.82 2960.58,-167.28 957.54,15.43 1917.36,109.88 2903.84,307.16 193.36,38.65 387.34,81.21 581.56,127.37 -512.42,0.97 -1034.95,15 -1565.97,42.44 -1434.5,74.08 -2932.62,244.92 -4381.32,488.83 -1482.27,249.53 -2915.76,575.45 -4180.41,952.57zm27563.62 9670.2c-757.69,-1145.66 -1525.74,-2257.69 -2215.04,-3212.43 172.85,113.33 341.85,225.51 506.34,336.53 706.62,476.85 1310.16,916.47 1827.53,1325.63 520.88,411.91 975.42,808.16 1377.08,1192.95 390.27,373.82 724.77,732.81 1014.33,1097.12 285.91,359.71 526.05,720.83 730.83,1102.92 206.97,386.13 385.19,806.68 544.59,1257.24 165.28,466.96 305.01,947.29 432.09,1443.51 128.21,500.53 246.8,1025.13 353.31,1555.43 105.56,524.75 202.98,1083.73 289.5,1653.19 66.76,439.23 123.25,866.08 166.64,1353.39 -43.39,-107.46 -88.02,-216.11 -133.95,-326.11 -323.82,-775.58 -708.75,-1614.05 -1172.43,-2524.85 -458.6,-901.05 -1005.43,-1892.9 -1660.67,-2990.82 -625.38,-1048.02 -1338.27,-2172.28 -2060.15,-3263.7zm4074.55 19175.06c312.06,-434.41 616,-857.55 882.8,-1325.31 -29.66,476.06 -63.46,940.26 -101.44,1381.2 -97.03,1126.84 -220.46,2057.41 -416.93,2893.95 -193.4,823.74 -458.77,1563.33 -841.83,2321.31 -390.75,773.22 -906.77,1572.03 -1543.53,2383.5 -632.58,806.14 -1380.26,1619.73 -2238.54,2428.01 -72.39,68.18 -145.67,136.36 -219.53,204.45 285.61,-501.71 544.79,-1026.93 783.54,-1567.84 353,-799.62 666.23,-1642.24 957.45,-2498.4 133.94,-393.75 263.19,-790.18 391.22,-1183.2 410.46,-1259.79 809.6,-2484.55 1308.56,-3432.02 316.75,-601.44 683.28,-1111.56 1038.23,-1605.65zm-30587.29 19682.15c1442.87,97.97 2905.03,124.42 4230.71,124.42 1313.05,0 2515.04,-26.64 3666.79,-86.56 784.39,-40.81 1528.9,-96.54 2251.77,-169.19 -539.29,214.35 -1020.14,392.83 -1458.06,542.94 -757.65,259.75 -1371.42,428.78 -1928.25,548.34 -555.45,119.36 -1057.16,191.27 -1551.69,222.72 -493.94,31.47 -989.24,22.98 -1531.18,-18.34 -584.65,-44.54 -1217.74,-127.11 -1858.3,-262.7 -552.71,-117.02 -1111.18,-273.04 -1648.7,-477.41 -375.29,-142.74 -744.65,-310.64 -1116.87,-499.81 312.05,29.03 627.18,54.06 943.78,75.59zm-17727.14 -32712.67c131.82,-376.45 292.04,-785.25 488.57,-1237.02 39,-83.72 79.58,-168.1 121.72,-253.16 21.41,23.59 44.9,46.69 70.48,69.01 203.1,177.23 534.93,304.32 700.87,424.11 165.91,119.73 165.91,232.12 114.06,435.24 -43.6,170.51 -123.63,405.01 -117.57,608.85 -111.25,-59.27 -235,-109.85 -363.94,-145.09 -133.39,-36.5 -273.72,-57.99 -414.26,-57.99 -48.27,0 -102.12,3.87 -158.87,11.17 -161.07,20.14 -310.31,70.49 -441.06,144.88zm3442.84 22745c202.37,383.46 407.89,753.03 623.52,1113.95 -206.3,-220.69 -406.7,-439.77 -599.86,-656.1 -734.79,-822.96 -1376.66,-1620.35 -1945.9,-2404.59 -564.97,-778.46 -1048.05,-1530.84 -1470.83,-2271.91 -423.58,-742.29 -789.43,-1475.34 -1087.08,-2241.74 -294.81,-759.02 -525.67,-1560.19 -683.41,-2448.67 -157.97,-889.72 -241.95,-1854.44 -256.33,-2841.18 -14.82,-1016.67 44.11,-2073.39 171.81,-3111.96 81.58,-663.18 191.74,-1316.28 317.29,-1951.64 290.04,1474.98 791.38,3493.71 1257.48,5370.63 158.47,638.43 314.47,1266.45 405.49,1639.05 150.53,616.44 241.24,994.11 328.25,1356.55 390.07,1624.96 704.05,2932.65 1101.31,4151.72 253.37,777.65 546.29,1535.27 861.93,2262.87 316.21,729.06 646.25,1407.56 976.33,2033.02zm136.19 -24802.34c-95.11,-73.45 -155.57,-255.05 -267.97,-497.07 -112.37,-242.06 -276.64,-544.61 -445.19,-644.01 -168.57,-99.43 -341.47,4.31 -466.79,159.87 -125.37,155.6 -203.14,363.15 -268.02,363.15 -64.83,0 -116.75,-207.55 -99.42,-592.22 7.38,-164.49 27.49,-361.44 39.22,-554.27 270.66,-367.11 562.4,-740.67 870.53,-1114.75 764.94,-928.7 1633.38,-1865.06 2532.18,-2721.22 512.96,-488.62 1036.09,-950.91 1565.37,-1389.05 8.09,14.59 15.25,30.47 21.14,47.75 69.15,203.14 -24.65,605.23 -335.14,1065.62 -310.57,460.39 -837.86,979.03 -1079.92,1372.39 -242.07,393.38 -198.8,661.34 -103.68,925.02 95.04,263.67 241.99,522.95 280.89,799.59 38.89,276.59 -30.27,570.57 25.94,708.87 56.12,138.3 237.76,121 570.58,-194.53 332.81,-315.53 816.87,-929.28 1123.77,-1642.49 306.87,-713.19 436.53,-1525.76 448.01,-2156.32 11.43,-630.58 -95.32,-1079.11 -173.07,-1360.04 -16.13,-58.31 -31.09,-109.3 -46.69,-153.77 149.55,-116.68 299.42,-231.54 449.5,-344.62 931.2,-701.6 1869.32,-1333.38 2792.71,-1907.8 151.95,-94.53 303.49,-187.53 454.88,-278.92 -219.89,619.74 -224.49,955.71 -170.34,1191.4 61.79,268.92 200.16,407.28 364.41,467.77 164.25,60.49 354.39,43.19 579.2,-116.72 224.74,-159.96 484.06,-462.5 713.21,-717.49 229.04,-255.04 427.86,-462.52 592.14,-851.53 134.2,-317.9 245.3,-756.98 341.84,-1278.81 945.41,-442.49 1963.18,-836.19 3133.07,-1185.03 1221.66,-364.25 2604.89,-678.85 4033.87,-919.44 1409.38,-237.32 2860.87,-403.12 4244.17,-474.6 1390.22,-71.85 2710.84,-49.47 3933.68,61.99 702.03,63.95 1373.69,157.59 2009.65,279.77 308.34,142.97 613.38,290.58 914.19,441.6 1713.35,860.45 3312.62,1846.27 4891.83,2819.65 941.95,580.62 -657.36,-401.17 558.92,346.56l1411.83 862.81 97.68 111.48 1.17 -1.09c580.37,667.46 1175.63,1441.98 1852.4,2375.8 707.54,976.27 1494.58,2113.41 2262.18,3274.03 720.96,1090.18 1424.96,2199.56 2031.81,3216.45 624.11,1045.76 1158.08,2016.4 1618.06,2919.92 454.97,893.72 826.84,1702.47 1134.69,2439.79 306.05,733 550.83,1398.7 725.19,2041.76 171.68,633.36 275.84,1244.42 303.81,1876.98 28.7,647.3 -20.58,1325.94 -146.32,1982.73 -16.99,88.72 -35.34,176.94 -55.11,264.52 -19.89,88.21 -41.2,175.76 -63.94,262.51l-5.75 -4.04c3.33,-12.88 6.62,-25.76 9.87,-38.65 -15.34,50.26 -34.75,111.06 -60.23,187.55 -77.42,232.35 -210.97,609.55 -319.25,875.33 -108.3,265.78 -191.35,420.12 -301.31,607.47 -109.97,187.35 -246.84,407.69 -383.71,628.04 -124.56,181.41 -253.95,361.53 -384.94,543.79 -382.79,532.8 -777.99,1082.88 -1128.03,1747.48 -79.76,151.49 -156.7,307.89 -231.27,468.61 -13.66,-38.57 -27.96,-79.43 -42.8,-122.75 -66.07,-193.12 -143.39,-436.28 -230.81,-673.96 -61.19,-173.77 -122.35,-347.55 -235.7,-529.79 -113.32,-182.24 -278.82,-372.96 -444.32,-563.67 -38.47,-29.97 -77.84,-57.37 -118.18,-82.48 -229.03,-142.59 -488.34,-211.79 -717.49,-324.18 -3.42,-1.68 -6.83,-3.36 -10.27,-5.06 -22.38,-10.24 -56.21,-18.51 -172.07,-12.58 -90.37,4.64 -230.68,17.89 -353.38,57.95 -59.42,118.8 -118.83,237.6 -151.48,399.9 -32.64,162.29 -38.52,368.07 17.9,639.29 56.42,271.21 175.15,607.84 293.87,944.48 134.01,217.41 290.19,429.13 461.9,621.28 375.63,420.38 825.26,747.41 1176.18,941.59 -218.71,597.24 -423.51,1225.56 -631.03,1862.53 -126.54,388.45 -254.32,780.33 -386.51,1168.94 -279.18,820.88 -579.91,1629.66 -919.6,2399.15 -299.54,678.51 -625.94,1320.18 -989.78,1903.08 -72.24,-217.12 -20.06,-505.8 102.83,-920.52 148.04,-499.75 398.78,-1182.65 511.18,-1679.77 112.37,-497.05 86.38,-808.24 -13.06,-998.48 -99.37,-190.14 -272.27,-259.3 -363.01,-449.46 -90.78,-190.17 -99.43,-501.39 -159.96,-747.76 -60.47,-246.36 -172.9,-427.95 -371.71,-306.96 -198.79,121.07 -484.09,544.68 -678.61,1439.37 -194.52,894.75 -298.19,2260.59 -151.28,3254.72 86.08,582.6 258.33,1037.46 439.2,1382.17 -274.82,349.24 -570.02,682.89 -886.23,1008.7 -547.08,563.7 -1153.2,1100.72 -1821.85,1651.6 -128.53,105.98 -259.45,212.4 -392.63,319.01 91.08,-176.86 189.13,-405.93 265.72,-699.7 185.87,-713.21 244.77,-1807.11 40.87,-2561.55 -203.95,-754.44 -670.74,-1169.36 -956.06,-1156.41 -285.27,13.01 -388.97,453.82 -605.12,808.3 -216.12,354.44 -544.56,622.41 -752.06,968.18 -207.44,345.75 -293.89,769.41 -298.24,1331.32 -4.31,561.88 73.5,1262.13 194.5,1802.38 59,263.41 128.29,488.86 213.93,670.75 -1061.31,600.27 -2178.73,1185.57 -3273.95,1729.78 -365.2,181.39 -727.89,358.34 -1085.21,529.72 -260.43,74.5 -523.21,143.16 -787.97,206.64 -949,227.41 -1947.69,392.01 -2971.85,520.56 -1031.67,129.48 -2065.87,219.49 -3159.2,276.46 -1089.13,56.67 -2273.28,81.88 -3605.34,81.88 -1319.5,0 -2762.04,-25.41 -4150.31,-119.7 -1372.77,-93.22 -2702.94,-252.03 -3827.33,-516.73 -1279.38,-790.76 -2716.67,-1685.38 -3960.33,-2590.66 -664.72,-483.77 -1280.86,-975.57 -1844.02,-1475.23 -554.89,-492.28 -1055.51,-990.74 -1497.36,-1495.22 -441.19,-503.52 -822.65,-1011.14 -1171.47,-1540.58 -348.62,-529.12 -672.39,-1093.4 -995.76,-1706.28 -326.88,-619.28 -645.4,-1272.22 -938.53,-1947.92 -200.89,-462.96 -394.27,-946.44 -575.74,-1449.2 -298.04,-1116.93 -596.06,-2233.75 -862.69,-3234.37 29.86,4.57 60.44,8 91.82,10.25 -472.07,-1693.22 -944.15,-3386.45 -1416.21,-5079.67 -428.13,-1726.59 -866.19,-3517.19 -1123.83,-4841.37 -123.21,-633.31 -204.28,-1153.94 -250.12,-1604.85 6.93,-778.08 -55.26,-1415.5 70.95,-2156.58 26.43,-154.96 56.73,-313.31 92.21,-476.8 21.41,41.17 46.14,81.39 74.6,121.16 25.61,35.5 54.05,69.95 85.64,103.76 132.46,753.16 69.41,1838.7 454.42,2275.88 268.92,305.35 777.48,408.64 1143.06,345.09 235.72,-41 411.93,-151.4 517.85,-320.23 101.96,-428.92 203.91,-857.85 233.59,-1408.94 29.65,-551.1 -12.97,-1224.36 -34.27,-1560.99 -15.18,-239.54 -19.55,-308.63 -2.54,-314.26 -6.23,-7.49 -12.5,-14.96 -18.79,-22.38 139.12,-2.25 271.23,-46.8 380.94,-123.89 159.89,-112.35 272.35,-293.95 389.02,-397.66 116.67,-103.77 237.74,-129.69 410.61,-4.31 172.89,125.34 397.66,401.97 665.64,544.6 267.94,142.6 579.18,151.27 682.9,-34.57 103.72,-185.89 0,-566.26 -151.26,-821.23 -151.32,-255.04 -350.06,-384.67 -388.99,-462.44 -38.9,-77.82 82.13,-103.8 267.99,-129.75 185.84,-25.89 436.56,-51.84 587.87,-224.78 151.25,-172.86 203.12,-492.68 25.9,-687.2 -177.21,-194.53 -583.54,-263.67 -851.51,-280.95 -268.03,-17.3 -397.7,17.28 -492.77,-56.22zm-2542.71 -216.67c136.83,-231.52 287.13,-470.21 449.19,-714.02 34.11,138.73 84.09,283.7 152.78,425.01 151.26,311.15 393.35,605.16 308.17,650.43 -85.21,45.29 -497.66,-158.05 -821.84,-222.93 -54.89,-10.98 -107.2,-17.97 -156.76,-21.28 22.42,-38.89 45.29,-77.96 68.46,-117.21zm-5518.41 -721.26c-298.3,371.71 -246.37,579.21 -155.59,713.22 90.74,133.96 220.42,194.43 406.28,151.24 185.85,-43.25 427.9,-190.18 613.77,-233.43 185.82,-43.19 315.51,17.28 466.79,121.02 151.33,103.76 324.17,250.71 622.4,298.27 298.23,47.55 721.84,-4.37 1210.24,-185.86 368.79,-137.11 774.69,-348.07 1161.51,-586.51 -147.59,305.35 -281.19,593.5 -402.35,866.55 -280.86,587.08 -489.11,1140.66 -663.98,1694.7 -136.9,412.94 -241.32,789.28 -323.2,1142.81 -59.72,230.49 -118.38,464.78 -178.45,705.27l-192.98 765.83c-20.86,82.24 -41.85,165.21 -63.03,248.84 -109.62,443.54 -219.26,887.1 -328.87,1330.66 -275.35,1155.9 -537.21,2404.06 -696.48,3698.94 -131.9,1072.26 -192.39,2183.39 -176.54,3272.7 15.46,1067.09 104.18,2098.09 270.58,3035 170.66,961.39 424.06,1837.52 749.55,2675.51 322.52,830.47 713.21,1614.8 1162.7,2402.49 450.19,789.04 957.05,1579.83 1541.75,2385.44 580.5,799.8 1248.31,1627.75 2026.29,2499.04 763.96,855.73 1622.89,1739.59 2504.07,2585.31 900.16,864.02 1833.78,1698.29 2723.04,2431.89 892.33,736.26 1736.61,1368.23 2663.49,1889.86 899.62,506.25 1877,909.06 3048.94,1202.33l189.04 116.81c1362.77,842 2514.52,1553.62 3777.84,2034.06 600.35,228.3 1217.38,401.15 1823.66,529.49 700.8,148.27 1387.85,238.19 2019.11,286.3 591.16,45.1 1139.26,53.87 1696.61,18.42 556.78,-35.5 1115.06,-115.08 1726.56,-246.37 610.17,-131.04 1270.75,-312.23 2070.06,-586.22 783.54,-268.62 1716.26,-632.63 2887.97,-1135.02 951.25,-407.78 2058.25,-906.69 3222.86,-1463.81 690.94,-201.19 1362.41,-439.47 2008.53,-724.72 940.4,-415.01 1834.61,-931.78 2672.37,-1491.71 567.57,-379.31 1108.31,-778.67 1619.14,-1179.35l159.46 -99.74c135.07,91.68 282.75,271.42 565.96,539.32 319.79,302.58 812.6,717.5 1443.62,1037.32 631.13,319.9 1400.45,544.64 2040.17,566.24 639.7,21.59 1149.76,-159.9 1495.5,-432.21 345.79,-272.28 527.37,-635.36 423.59,-821.3 -103.69,-185.81 -492.74,-194.44 -773.71,-358.7 -280.89,-164.29 -453.77,-484.12 -687.18,-713.23 -233.41,-229.05 -527.34,-367.39 -821.26,-402.01 -293.91,-34.52 -587.87,34.66 -998.51,108.13 -410.58,73.48 -937.9,151.26 -1266.37,60.49 -177.79,-49.13 -297.36,-147.62 -413.47,-237.2 470.99,-314.47 925.53,-631.53 1363.78,-950.93 971.05,-707.81 1853.37,-1420.88 2648.36,-2135.29 15.38,7 30.19,15.19 44.33,24.79 134.05,90.77 207.88,300.81 396.07,574.3 188.2,273.55 490.77,610.75 948.88,844.14 458.22,233.41 1071.98,363.1 1551.71,324.2 479.82,-38.93 825.62,-246.37 1028.8,-466.83 203.14,-220.43 263.67,-453.86 194.51,-618.1 -69.14,-164.21 -268.01,-259.34 -523.06,-406.31 -254.97,-146.93 -566.19,-345.78 -881.74,-501.37 -315.51,-155.63 -635.38,-267.97 -1015.94,-296.97 -380.47,-28.9 -821.69,25.57 -1106.99,42.87 -44.27,2.68 -84.81,4.45 -122.1,5.29 893.01,-843.83 1670.42,-1690.93 2327.68,-2528.54 404.23,-515.1 764.71,-1028.62 1080.49,-1537.66 54.99,-44.82 111.08,-86.67 168.3,-124.27 460.01,-302.5 992.92,-338.98 1289.54,-339.88 296.7,-0.91 357.17,33.65 201.57,154.65 -155.56,121.06 -527.25,328.57 -613.73,527.4 -86.44,198.83 112.38,388.97 402,466.74 289.56,77.81 669.94,43.3 1041.62,-8.63 371.71,-51.84 734.84,-121 842.84,-17.28 108.07,103.72 -38.82,380.43 -17.22,648.4 21.59,267.97 211.74,527.25 440.81,665.59 229.15,138.37 497.08,155.58 687.26,0 190.23,-155.64 302.57,-484.08 354.41,-756.41 51.94,-272.27 43.26,-488.37 151.33,-544.59 108.08,-56.18 332.88,47.54 561.92,112.36 229.07,64.85 462.49,90.8 687.25,12.99 224.78,-77.81 440.86,-259.36 466.75,-475.47 25.97,-216.07 -138.3,-466.79 -380.33,-626.71 -242.03,-159.95 -561.88,-229.11 -769.38,-319.88 -207.41,-90.74 -302.54,-203.16 -255.04,-384.69 47.63,-181.51 237.77,-432.24 289.62,-752.11 51.87,-319.81 -34.58,-708.87 -177.19,-929.28 -142.65,-220.39 -341.47,-272.32 -596.53,-172.93 -254.98,99.42 -566.18,350.18 -743.4,518.73 -177.18,168.56 -220.47,255.02 -337.14,233.39 -116.67,-21.6 -306.9,-151.25 -540.35,-289.62 -233.34,-138.31 -509.96,-285.2 -747.67,-237.69 -237.78,47.55 -436.6,289.62 -488.53,535.98 -51.85,246.37 43.28,497.07 177.3,678.62 133.98,181.51 306.85,293.92 384.59,371.65 77.84,77.87 60.58,121.08 -30.14,134.01 -90.77,13.02 -255.06,-4.24 -577.24,-31.03 -322.2,-26.68 -802.34,-62.89 -1182.68,-45.6 -45.17,2.07 -88.92,4.85 -131.32,8.42l31.51 -61.89c429.46,-849.79 726.06,-1675.07 941.1,-2590.89 82.42,-350.95 152.61,-714.21 213.7,-1096.55 235.9,22.32 575.79,42.11 1028.99,126.34 674.31,125.38 1599.27,393.35 2342.67,233.41 743.47,-159.95 1305.44,-747.75 1435.03,-1175.71 129.73,-427.86 -172.84,-695.89 -782.31,-778.02 -609.43,-82.06 -1525.79,21.6 -2321.09,255.03 -661.08,194.03 -1238.51,477.58 -1613.2,711.81 54.28,-421.27 100.35,-867.09 141.56,-1345.12 67.2,-780.87 122.13,-1669.82 164.98,-2588.58 488.43,-41.17 1074.85,-151.19 1583.32,-400.1 812.64,-397.62 1426.36,-1149.74 1728.93,-1737.59 302.61,-587.79 293.93,-1011.35 220.48,-1309.63 -73.5,-298.21 -211.83,-471.07 -371.71,-475.39 -159.92,-4.35 -341.5,159.9 -484.13,276.6 -142.64,116.69 -246.32,185.85 -540.28,181.55 -293.89,-4.33 -778,-82.16 -1093.61,242.04 -315.52,324.16 -462.41,1050.3 -669.96,1534.4 -100.1,233.63 -214.34,410.82 -326.15,544.36 48.42,-1363.26 69.16,-2707.58 64.64,-3779.91 -4.38,-1059.21 -32.58,-1839.89 -80,-2485.55 -49.32,-672.07 -117.76,-1210.01 -201.4,-1759.98 -81.1,-533.69 -182.95,-1109.85 -303.6,-1709.98 -110.18,-548.3 -233.47,-1093.45 -367.5,-1616.87 -140.81,-549.67 -290.76,-1067.94 -460.46,-1547.51 -175.47,-495.98 -377.74,-970.29 -620.29,-1422.66 -244.58,-456.36 -523.32,-877.7 -848.99,-1287.36 -321.87,-404.9 -692.13,-802.52 -1123.08,-1215.2 -419.36,-401.8 -903.03,-822.73 -1466.94,-1268.66 -567.4,-448.7 -1195.98,-908.36 -1898.4,-1382.31 -987.27,-666.32 -2164.24,-1392.85 -3398.15,-2147.92 -544.18,-605.38 -1092.5,-1139.8 -1695.77,-1643.81 -683.02,-570.8 -1437.11,-1100.74 -2295.05,-1567.2 -857.16,-465.98 -1810.89,-864.22 -2891.6,-1170.39 -419.31,-118.76 -858.7,-223.88 -1316.51,-314.95 -705.81,-323.74 -1425.31,-622.85 -2147.85,-885.62 -1005.35,-365.58 -2015.84,-662.53 -3003.45,-860.05 -1044.92,-208.99 -2077.78,-309.2 -3121.36,-326.03 -1037.01,-16.85 -2066.6,48.93 -3116.61,171.97 -1058.96,123.96 -2144.18,305.16 -3254.33,569.45 -951.33,226.53 -1925.97,515.29 -2924.38,883.17 -81.61,-209.49 -197.2,-428.86 -361.71,-640.33 -272.28,-350.15 -678.62,-678.67 -1188.66,-791.04 -510.02,-112.35 -1123.77,-8.65 -1564.68,194.55 -440.88,203.09 -708.85,505.64 -566.19,799.58 142.61,293.91 695.9,579.22 1045.99,734.84 350.15,155.6 497.09,181.49 675.83,201.03 158.69,17.3 342.44,29.52 505.7,86.54 -824.3,359.09 -1645.56,761.33 -2420.03,1178.19 -752.12,404.77 -1462.03,824.55 -2089.52,1233.11 -270.36,-25.89 -515.56,-56.9 -713.54,-97.25 -423.58,-86.48 -631.06,-216.09 -553.24,-267.95 77.77,-51.88 440.87,-25.97 678.61,-95.13 237.7,-69.14 350.07,-233.41 298.2,-401.95 -51.88,-168.6 -267.96,-341.48 -501.37,-462.52 -233.42,-121.02 -484.13,-190.18 -652.66,-267.97 -168.63,-77.83 -255.02,-164.28 -246.34,-401.97 8.64,-237.73 112.3,-626.79 38.89,-873.16 -73.49,-246.38 -324.19,-350.04 -536,-298.2 -211.79,51.82 -384.71,259.38 -514.37,440.9 -129.71,181.5 -216.1,337.12 -354.4,337.12 -138.32,0 -328.49,-155.62 -557.59,-259.3 -229.1,-103.78 -497.06,-155.64 -695.91,-112.45 -198.85,43.25 -328.49,181.61 -397.64,315.59 -69.15,133.98 -77.83,263.59 69.15,453.83 146.97,190.16 449.52,440.85 497.09,622.4 47.51,181.53 -159.98,293.96 -350.12,393.38 -190.23,99.4 -363.07,185.82 -406.28,363.04 -43.24,177.21 43.21,445.22 168.59,622.43 125.32,177.23 289.56,263.65 514.33,263.65 224.75,0 510.02,-86.42 704.51,-138.27 194.5,-51.87 298.25,-69.17 363.04,47.5 64.85,116.69 90.83,367.41 159.98,548.96 69.15,181.49 181.52,293.86 25.94,306.9 -155.6,12.91 -579.18,-73.47 -1015.7,-129.65 -436.59,-56.23 -886.16,-82.2 -1331.35,4.24 -445.21,86.48 -886.02,285.31 -1257.77,497.12 -371.75,211.75 -674.23,436.57 -834.19,687.26 -159.94,250.67 -177.27,527.33 -25.95,695.94 151.28,168.55 471.1,229.02 1093.59,237.71 622.37,8.59 1547.34,-34.63 2273.49,-95.11 345,-28.79 645.04,-61.42 909.48,-111.88 -380.62,513.61 -753.28,1099.99 -1199.69,1829.28 -390.88,638.63 -837.97,1385.94 -1296.02,2172.41 -150.35,36.79 -300.49,76 -436.54,103.87 -337.14,69.16 -587.87,69.16 -609.46,47.53 -21.66,-21.6 185.89,-64.79 345.79,-207.44 159.91,-142.67 272.27,-384.69 246.38,-583.52 -25.96,-198.87 -190.25,-354.45 -445.21,-397.7 -255.07,-43.19 -600.78,25.99 -855.77,34.66 -255.06,8.65 -419.32,-43.27 -523.07,-172.92 -103.73,-129.67 -146.98,-337.15 -198.82,-475.45 -51.88,-138.32 -112.35,-207.49 -216.13,-337.13 -103.78,-129.7 -250.67,-319.9 -453.84,-345.83 -203.14,-25.89 -462.46,112.41 -613.7,367.45 -151.33,255 -194.54,626.71 -220.48,838.5 -25.89,211.8 -34.57,263.67 -207.44,203.19 -172.87,-60.53 -510.11,-233.45 -790.99,-237.75 -281,-4.35 -505.74,159.92 -587.83,367.36 -82.13,207.48 -21.63,458.19 172.84,652.68 194.52,194.51 523.01,332.83 691.61,432.26 168.56,99.38 177.21,159.85 73.48,475.46 -103.73,315.51 -319.85,885.99 -220.45,1184.27 99.4,298.21 514.31,324.19 834.21,268.07 319.82,-56.22 544.61,-194.6 704.53,-337.22 159.95,-142.65 255.08,-289.56 363.14,-276.59 107.97,12.92 229.06,185.82 384.69,328.44 155.56,142.65 345.73,255.05 540.23,315.6 194.51,60.44 393.36,69.14 531.63,-25.93 138.34,-95.14 216.18,-293.94 198.88,-505.71 -17.3,-211.83 -129.67,-436.59 -250.73,-639.74 -121.02,-203.12 -250.69,-384.73 -216.1,-445.2 34.55,-60.48 233.38,-0.01 477.6,62.35 236.92,60.47 516.59,122.7 817.3,110.61 -130.84,228.79 -261.36,458.87 -390.48,688.62 -285.16,507.38 -566.24,1018.45 -832.99,1517.31 -79.16,13.45 -166.08,21.16 -264.53,20.06 -389.05,-4.3 -958.13,-146.99 -1549.58,-166.45 -591.42,-19.45 -1205.17,84.29 -1836.22,404.14 -631.08,319.86 -1279.45,855.8 -1577.67,1227.52z"/>
 </g>
</svg>
