<?xml version="1.0" encoding="UTF-8"?>
<!DOCTYPE svg PUBLIC "-//W3C//DTD SVG 1.1//EN" "http://www.w3.org/Graphics/SVG/1.1/DTD/svg11.dtd">
<!-- Creator: CorelDRAW 2020 (64-Bit) -->
<svg xmlns="http://www.w3.org/2000/svg" xml:space="preserve" width="215.9mm" height="279.4mm" version="1.1" style="shape-rendering:geometricPrecision; text-rendering:geometricPrecision; image-rendering:optimizeQuality; fill-rule:evenodd; clip-rule:evenodd"
viewBox="0 0 21590 27940"
 xmlns:xlink="http://www.w3.org/1999/xlink"
 xmlns:xodm="http://www.corel.com/coreldraw/odm/2003">
 <defs>
  <style type="text/css">
   <![CDATA[
    .fil0 {fill:#A2662E}
   ]]>
  </style>
 </defs>
 <g id="Capa_x0020_1">
  <metadata id="CorelCorpID_0Corel-Layer"/>
  <path class="fil0" d="M-17286.13 103218.18c-3694.54,7518.67 -12298.72,12137.12 -23143.1,11029.14 2242.52,-433.25 3144.48,791.57 5046.98,-741.32 755.5,-608.63 727.85,-961.87 1343.3,-1623.38 411.49,-442.48 782.31,-536.77 1057.6,-757.71 82.39,-70.37 237.81,-274.76 248.74,-392.27 6.97,-75.17 -51.13,-111.35 -136.01,-138.26 -84.89,-26.91 -196.61,-44.55 -390.65,-26.91 -413.32,37.56 -1180.87,232.16 -1652.52,324.55 -343.7,67.33 -679.25,120.07 -980.07,150.77 16.49,2.7 32.94,5.33 49.35,7.92 -209.99,32.66 -408.39,38.75 -596.96,30.9 -762.2,-31.79 -1364.65,-291.58 -1929.13,52.5 -866.39,528.3 -766.36,2533.49 -4108.57,2642.76 396.07,-1208.65 1003.65,-1932.93 1782.17,-2684.55 259.68,-251.21 514.29,-499.98 691,-710.9 188.99,-225.53 288.96,-407.78 311.78,-569.8 22.84,-162.02 -31.41,-303.78 -85.71,-445.56 -30.36,-28.57 -65.01,-56.68 -104.21,-84.21 -654.11,-295.74 -779.36,144.43 -1124.13,398.05 -264.39,194.51 -314.64,167.64 -649.09,107.08 -544.33,-98.54 -822.83,-41.01 -1387.75,137.7 0.31,0.51 0.61,1.01 0.91,1.52l-570.63 190.58c-1205.07,442.6 -1712.95,1657.67 -2003.34,3052.19 -667.25,-7.75 -2108.56,-158.27 -2348.47,-735.39 1111.13,-499.36 632.02,423.81 1232.93,-939.58 71.7,-162.72 336.83,-633.9 366.66,-724.74 280.29,-852.77 -87.34,-785.34 -113.89,-810.04 -526.25,-398.21 -1730.77,-301.81 -2453.82,-156.07 -514.29,715.32 -572.89,1401.18 -939.2,1952.12 -492.58,-175.76 -1841.56,-915.25 -2213.06,-1349.74 661.68,-446.11 630.89,-78.7 1277.86,-312.15 217.43,-463.43 487.01,-1375.74 365.78,-1935.73 -1604.58,-721.96 -2148.56,534.17 -2582.34,1583.95 -1546.88,-535.83 -5267.79,-5007.47 -6050.4,-6852.33 66.52,24.31 133.45,52.32 201.07,82.92 -169.58,-207.19 -335.46,-485.59 -477.59,-740l-112.85 -227.79c0.74,0.13 1.52,0.26 2.26,0.4 -612.71,-1260.9 -1214.44,-2518.26 -1621.93,-3712.59 -431.98,-1266.12 -645.69,-2461.43 -859.4,-3656.74 -117.08,-1433.23 -206.83,-2869.8 -95.51,-4330.82 128.86,-1690.82 527,-3414.38 793.7,-4458.08 54.91,-214.93 104.25,-400.99 149.18,-564.18 -147.32,284.54 -284.36,582.12 -411.24,892.81 72.64,-208.46 155.97,-408.4 248.03,-599.32 93.5,-270 192.84,-540.47 295.61,-816.69 15.88,-44.63 31.67,-88.82 47.33,-132.54 1.35,-1.82 2.73,-3.64 4.12,-5.51 4.17,-11.18 8.34,-22.35 12.52,-33.55 62.83,-168.38 126.76,-339.28 191.48,-512.06 0.05,-0.13 0.1,-0.3 0.16,-0.43 160.45,-428.29 325.79,-868.08 491.92,-1309.73 -6.84,3.87 -13.65,7.74 -20.44,11.61 38.28,-88.35 76.32,-175.32 114.19,-260.9 3441.87,-7776.88 5290.26,-4164.51 6830.58,-6258.93 70.91,-203.32 141.85,-406.65 180.84,-649.43 39,-242.76 46.07,-525 144.84,-761.35 98.77,-236.37 289.27,-426.87 604.22,-764.73 314.96,-337.87 754.37,-823.11 1193.79,-1308.34 751.61,-924.26 1642.59,-1737.35 2679.64,-2388.07 726.38,-455.87 1508.78,-859.07 2389.78,-1201.24 1259.44,579.89 1998.74,-352.89 2795.67,-814.08 291.52,-63.79 589.12,-124.03 892.41,-181.34 -71.9,1099.34 -705.02,515.59 -845.81,1827.93 -86.73,808.75 -111.1,1853.92 248.07,2459.44 34.47,-1.42 68.99,-2.83 143.43,-10.1 74.4,-7.31 188.82,-20.49 433.14,-135.82 244.27,-115.33 618.5,-332.82 992.72,-550.33 409.97,-336.03 747.11,-721.84 947.96,-982.26 1007.05,-1305.55 726.01,-1524.98 478.73,-2996.36 5757.91,-806.18 10434.96,414.96 15339.04,3676.3 3538.29,2352.7 7237.63,6920.67 8303.82,10841.69 184.98,210.28 66.69,-323.19 273.45,407.25 152.74,539.56 -52.89,299.83 -78.31,348.64 -148.35,-131.77 -247.68,-210.07 -467.3,-406.47 -205.85,-677.75 -958,-863.69 -1370.03,-1950.11 -326.33,-860.19 -653.62,-1573.65 -1235.71,-2036.17 -763.79,-606.95 -1523.51,-789.94 -2546.39,-870.68 -1340.35,-105.54 -1338.3,-816.08 -2642.75,-628.87 21.03,273.02 122.78,518.69 271.24,740.88 444.49,666.44 888.98,1332.87 1351.09,1838.95 462.15,506.07 941.92,851.81 1189.21,1097.87 247.28,246.04 262.1,392.43 298.52,504.03 36.45,111.6 94.55,188.44 152.63,265.27 643.34,676.39 1876.77,244.85 2857,669.2 211.91,91.75 1543.23,1254.83 1743.72,1919.65 -1311.98,0.78 -1856.49,112.6 -3095.48,-264.95 -969.62,-295.39 -1748.91,-866.81 -2101.01,241.94 192.15,378.06 377.61,487.98 592.86,575.69 34.65,14.1 70.08,27.64 106.43,41.65 -4.12,6.54 -8.26,13.05 -12.38,19.55 55.62,36.59 112.71,75.16 173.81,119.12 95.91,68.97 201.75,151.28 313.74,289.58 90.4,111.62 184.81,259.69 280,414.81 5.33,-8.4 10.61,-16.77 15.86,-25.18 14.7,45.38 30.64,89.9 52.41,137.07 45.99,99.6 118.12,210.97 260.05,366.72 154.4,169.72 342.9,325.07 554.64,544.35 43.29,30.35 86.6,60.66 234.05,157.74 147.42,97.05 399,260.87 579.28,356.24 104.08,55.06 184.4,87.33 254.69,109.89 -0.09,-3.14 -0.25,-6.23 -0.38,-9.34 47.54,17.5 95.61,33.83 143.95,48.64 48.67,14.89 97.65,28.25 146.63,39.8 114.91,21.83 229.82,43.72 411.54,50.74 181.69,7.01 430.2,-0.79 678.72,-8.65l1077.27 -81.89c694.87,-531.24 537.33,-257.26 824.23,-240.63 287.08,491.43 265.15,838.9 354.7,1453.42l10.88 1377.39c-4.42,-20.83 -34.82,89.18 -53.62,133.22 -493.27,-166.02 -491.22,-132.7 -649.54,-376.26 -74.26,-27.25 -155.53,-51.77 -243.6,-71.49 -388.25,-86.97 -912.5,-80.14 -1358.41,25.82 -197.4,46.81 -379.43,113.12 -536.95,181.38 -181.63,96.74 -363.28,193.47 -454.08,288.63 -90.83,95.17 -90.83,188.78 -41.52,312.9 49.33,124.11 147.96,278.74 246.56,433.36 44.01,70.68 90.57,142.36 138.83,212.48 111.66,162.16 232.73,316.02 242.69,488.31 110.37,141.34 242.11,254.84 411.27,322.3 685.48,273.06 1737.09,-157.36 2478.59,-270.16l-187.41 2776.17c-505.09,61.35 -673.72,-257.08 -890.62,-721.65 -70.29,-70.16 -140.63,-140.35 -195.71,-176.84 -55.09,-36.5 -94.95,-39.31 -176.3,-42.41 -81.34,-3.12 -204.17,-6.52 -410.39,32.07 -191.88,35.93 -455.98,108.19 -725.08,183 -78.21,34.17 -156.41,68.35 -229.36,106.28 -72.98,37.94 -140.71,79.64 -196.41,117.25 -55.69,37.59 -99.36,71.07 -110.21,129.66 -10.86,58.56 11.09,142.23 71.44,305.77 60.37,163.54 159.16,406.95 282.61,578.04 123.49,171.1 271.66,269.88 504.47,361 232.8,91.13 550.25,174.63 867.72,258.1 304.43,6.47 631.87,-10.71 969.4,-34.98 -46.17,828.41 -247.19,1920.32 -567.58,2973.38 -41.98,138 -86.01,275.34 -132.03,411.33 -29.27,92.8 -63.81,203.29 -106.33,340.48 -20.24,65.19 -42.25,136.42 -65.77,212.72l-65.5 212.77 -1.56 -3.63c-168.02,523.99 -336.02,1047.99 -504.04,1571.98 4.13,-2.57 8.28,-5.16 12.36,-7.78 -24.07,65.76 -48.25,130.89 -72.51,195.3 -56.91,151.09 -114.31,298.33 -172.01,441.08 -40.19,178.35 -1.1,168.23 -105.23,375.7 -231.44,460.84 -48.27,128.8 -155.34,232.93 -120.49,264.77 -243.75,511.69 -389.18,777.77zm-27905.5 12654.74c590.42,1157.92 431.55,1617.49 1489.45,2411.12 473.35,355.29 1974.79,1228.33 2519.09,1229.24 1279.55,290.04 733.57,-658.76 722.34,-703.7 -135.61,-625.02 -60.26,-1879.9 -366.87,-2316.24 -184.46,-262.59 -424.18,-345.69 -688.59,-717.73 -158.68,-223.15 -343.5,-546.34 -460.34,-769.5 966.29,-81.46 2644.26,165.65 3805.46,179.86 5454.27,66.52 6109.86,-549.85 10532.51,-1725.1 -262.62,472.44 -3609.46,1714.4 -4391.12,1989.5 -861.06,303.15 -1552.63,542.7 -2473.05,824.62 -904.75,276.95 -1998.1,285.78 -2107.02,1151.14 1094.13,464.7 3782.57,-460.53 4803.02,-802.16 655.99,-219.83 5603.58,-2208.97 5907.98,-2694.34 2121.12,-709.99 3181.76,1940.32 4576.84,1204.92 234.2,-493.29 183.15,-855 -324.3,-1116.82 -253.93,-131.21 -557.41,-125.49 -741.68,-210.08 -589.83,-271.05 -210.08,117.75 -321.73,-438.02 1900.71,-673.84 3068.95,1564.26 4442.48,729.88 474.85,-560.32 -354.53,-1033.17 -883.92,-1207.86 -553.36,-182.42 -1205.08,-181.69 -1785.56,-255.74 311.06,-509.31 484.63,-400.81 924.48,-726.24 -45.16,-2175.09 -1792.19,-258.11 -2907.01,46.27 455.33,-490.52 1130.15,-857.39 1767.12,-1378.33 2600.39,-2126.81 5374.73,-4919.18 7246.48,-7740.86 478.56,-721.39 388.25,-1269.74 1395.48,-1570.28 1010.87,-301.66 1495.88,-31.33 2271.43,-655.08 -44.02,-627.43 -238.22,-988.61 -939.37,-1006.64 -620.26,-15.84 -706.13,316.55 -1447.62,427.49 457.73,-2030.82 3226.53,-1231.81 3323.1,-3243.46 -1461.77,-1170.49 -1415,338.67 -2658.6,1280.85 -21.59,-30.97 -47.35,-75.76 -57.88,-97.3l-141.33 -321.74c-63.2,-165.1 -71.15,-274.74 -162.73,-457.52 -177.44,-354.19 -276.01,-442.24 -730.24,-550.43 -685.1,467.48 -646.76,2116.31 -916.72,2857.62 -1326.17,3641.45 -3049.99,5947.75 -5618.66,8506.66 1999.1,-2933.73 4787.61,-5352.59 5382.99,-12213.39 991.16,-129.36 1886.51,148.91 2396.38,-672.39 344.96,-555.4 91.78,-864.2 232.72,-1359.53 178.03,-625.21 384.6,-44.58 442.99,-1180.77 -839.14,5.88 -1586.17,611.77 -2764.19,1167.34l134.53 -2611.99c1272.73,-294.45 2220.03,-160.69 2771.2,-1271.25 408.34,-822.53 1042.02,-2278.58 435.03,-3313.22 -1591.87,-386.98 -3129.05,1951.13 -3490.21,2169.32l-262.35 -1717.32c161.77,-203.99 9.73,-24.51 231.4,-251.52l2185.04 -2820.61c589.28,-1120.14 544.16,-3300.77 91.94,-4551.92 -855.19,-64.89 -648.44,122.71 -1097.11,600.15 -276.41,294.11 -680.3,396.36 -1066.73,650.85 -871.03,573.81 -575.45,1330.56 -1272.36,2174.5l-265.14 -398.37c-822.04,-1686.77 -604.22,-2169.38 -2476.38,-5138.84 -774.85,-1229.06 -2744.83,-3747.05 -3746.5,-4420.2 0,0 -397.49,-375.74 61.71,-115.33 2342.59,1113.32 5232.26,4643.32 5749.69,4739.15 -44.24,-1681.09 -1214.33,-2475.65 -2043.34,-3193.36 -5547.92,-4802.37 -10037.57,-7080.45 -17429.84,-8758.4 -653.52,-148.31 -4057.65,-742.96 -4354.11,-973.3 -710.35,-551.87 -1452.21,-2578.81 -2872.01,-1803.24 -92.29,924.46 552.63,935.36 871.22,1664.87 -2575.5,72.41 -2434.89,-2488.92 -3632.45,-3111.72 -630.22,-327.64 -1749.81,-24.13 -2775.61,-502.5 -413.48,-192.74 -665.36,-327.8 -1133.57,-594.24 -1108.41,-630.77 -1000.27,-170.66 -1022.35,-151.48 -741.5,789.57 443.35,1178.57 977.54,1769.14 498.81,551.33 800.1,1150.39 1181.34,1775.78 1129.39,1852.81 2185.93,457.15 4763.47,1333.92 -252.8,407.03 -20.08,181.5 -381.06,410.9 -515.2,327.47 -783.16,-35.74 -913.79,760.11 758.07,697.47 1689.52,14.36 2602.41,-129.89 1240.85,-196.25 3347.35,-136.74 5266.7,124.75 -2566.08,299.42 -5120.05,606.95 -7322.75,1135.62 -1441.72,-460.47 -1457.56,-597.93 -2155.58,640.15 -1074.24,394.33 -2017.49,871.58 -2890.39,1419.4 -1016.97,638.12 -1926.11,1363.04 -2830.33,2160.36 -718.48,633.49 -1445.04,1323.4 -2175.83,2046.46 -254.31,64.34 -536.55,121.62 -852.04,168.61 -1908.1,284.3 -2010,1463.82 -2633.93,3044.25l-2170.13 3610.55c-430.05,743.52 -1462.3,3372.64 -1951.33,3791.68 44.76,-1066.92 823.27,-3347.06 450.13,-4195.6 -866.77,-13.62 -1043.12,1910.51 -1299.26,3200.34 -250.59,1262.03 -451.46,2612.75 -578.43,3933.74 -283.37,2951.33 -187.03,5869.58 187.98,8704.7 659.85,4988.11 2888.22,10047.3 2930.74,10748.46 96.94,1592.61 -1237.89,2350.14 -484.78,3691.95 1395.07,259.84 1279.92,-890.73 1365.25,-1342l299.42 -654.14c552.77,669.42 326.69,2017.91 297.97,2832.37 -29.69,839.51 -141.52,2339.81 988.96,1715.9 486.42,-911 -147.98,-2302.43 -20.08,-3376.51 546.71,449.43 637.91,847.61 1487.56,811.5 231.42,-933.7 -1461.43,-2551.92 -2280.1,-4370.98l-417.76 -617.85c-104.45,-262.95 -145.39,-398.57 -200.48,-689.89l787.94 1095.26c922.44,1249.52 3058.64,3816.37 4365.84,4473.63 -281.94,691.73 -1225.01,1645.69 -417.95,2612.93 254.84,305.51 731.16,392.13 1008.52,709.04 387.69,442.99 53.44,681.44 796.21,846.91 386.56,-524.05 291.87,-2016.07 246.34,-2893.73l2207.54 1243.63c-56.36,1676.45 -1135.48,1793.27 200.48,3422.72 410.75,501.04 1225.91,1277.73 1815.39,1476.16 2008.34,676.66 568.66,-3236.63 350.87,-3883.78l852.23 202.89c1654.32,181.13 1395.61,1209.17 1659.66,2065.27z"/>
 </g>
</svg>
