<?xml version="1.0" encoding="UTF-8"?>
<!DOCTYPE svg PUBLIC "-//W3C//DTD SVG 1.1//EN" "http://www.w3.org/Graphics/SVG/1.1/DTD/svg11.dtd">
<!-- Creator: CorelDRAW 2020 (64-Bit) -->
<svg xmlns="http://www.w3.org/2000/svg" xml:space="preserve" width="215.9mm" height="279.4mm" version="1.1" style="shape-rendering:geometricPrecision; text-rendering:geometricPrecision; image-rendering:optimizeQuality; fill-rule:evenodd; clip-rule:evenodd"
viewBox="0 0 21590 27940"
 xmlns:xlink="http://www.w3.org/1999/xlink"
 xmlns:xodm="http://www.corel.com/coreldraw/odm/2003">
 <defs>
  <style type="text/css">
   <![CDATA[
    .fil0 {fill:#A2662E}
   ]]>
  </style>
 </defs>
 <g id="Capa_x0020_1">
  <metadata id="CorelCorpID_0Corel-Layer"/>
  <path class="fil0" d="M-123552.48 34612.52c-2354.57,-680.04 -4565.57,-1698.5 -6576.88,-2999.42 122.46,-405.93 213.37,-955.47 152.13,-1629.13 -7.55,-67.11 -15.14,-134.17 -79.52,-379.16 -64.35,-244.94 -185.52,-667.79 -338.27,-1079.31 -152.73,-411.48 -336.99,-811.61 -458.11,-1014.33 -121.09,-202.71 -179.02,-208 -310.64,-35.05 -131.62,172.96 -336.91,524.08 -542.22,875.23 -180.81,383.44 -355.22,865.02 -448.23,1422.06 -20.73,124.47 -26.06,247.18 -18.51,366.91 -512.29,-410.16 -1007.86,-840.01 -1485.84,-1288.37 216.38,-400.09 430.06,-968.2 491.5,-1711.9 105.84,-1287.97 -580.26,-2646.85 -580.26,-2646.85 0,0 -986.59,761.13 -1524.1,2150.88 -55.3,142.78 -87.73,287.22 -101.5,431.49 -275.36,-315.01 -542.94,-637.42 -802.22,-966.18 248.24,-343.37 501.58,-810.49 669.65,-1422.85 341.56,-1246.44 -82.58,-2708.18 -82.58,-2708.18 0,0 -1109.2,565.8 -1894.16,1832.66 -54.63,88.33 -98.99,179.43 -134.61,272.22 -176.66,-276.74 -348.04,-557.44 -514.07,-841.59 347.25,-317.29 777.53,-834.72 1083.32,-1624.54 466.23,-1204.6 193.75,-2702.17 193.75,-2702.17 0,0 -1162.03,450.4 -2071.29,1631.15 -145.46,188.64 -238.99,396.97 -293.61,613.5 -223.78,-482.79 -432.58,-974.34 -625.74,-1473.48 382.4,-230.93 836.96,-596.94 1256.76,-1171.05 762.37,-1042.66 886.69,-2560.15 886.69,-2560.15 0,0 -1238.7,134.83 -2422.7,1039.11 -191.74,146.56 -337.22,326.17 -446.5,524.02 -173.42,-610.53 -323.87,-1230.63 -450.88,-1859.19 354.51,-139.76 754.33,-354.73 1165.37,-685.59 1006.43,-810.01 1518.92,-2243.65 1518.92,-2243.65 0,0 -1231.89,-190.5 -2609.25,376.71 -160.48,65.85 -302.07,155.04 -427.43,260.09 -70.09,-659.42 -114.25,-1326.6 -131.69,-2000.15 408.06,-72.19 943.95,-245.15 1518.29,-639.36 959.03,-657.86 1517.72,-1909.92 1517.72,-1909.92 0,0 -1092.77,-255.99 -2368.8,159.07 -256.24,83.16 -467.27,231.01 -640.88,413.48 53.78,-1029.97 170.71,-2042.94 346.19,-3035.84 273.91,-11.51 599.43,-64.95 960.88,-198.92 851.52,-316.25 1512.59,-1157.32 1512.59,-1157.32 0,0 -103.07,-53.12 -284.44,-117.34 -236.4,-81.7 -601.6,-135.63 -894.22,-142.25 -292.62,-6.64 -629.59,30.24 -798.1,48.68 -81.4,8.9 -123.46,13.49 -145.19,15.87 31.37,-36.65 101.58,-193.1 250.62,-775.4 218.12,-852.2 557.78,-1823.22 1214.24,-3496.07 -11.41,6.24 -22.78,12.5 -34.15,18.77 61.91,-138.2 125.05,-275.72 189.4,-412.58 1232.63,-2621.52 2909.21,-4992.85 4933.29,-7016.74 4501.36,-4501.56 10720.83,-7285.83 17590.15,-7285.83 2601.21,0 5108.73,399.16 7465.66,1140 -46.86,44.95 -90.81,94.65 -130.68,149.61 -401.01,550.98 -572.19,1112.99 -642.88,1438.36 -15.64,93.67 -31.25,187.3 -28.33,261.09 2.96,73.79 24.51,127.71 253.75,102.01 229.29,-25.7 666.32,-131.03 1011.21,-320.35 344.9,-189.34 597.63,-462.69 850.4,-736.05 110.33,-112.45 203.75,-224.38 282.58,-332.32 941.72,368.44 1855.31,792.85 2737.02,1268.68 -223.34,53.83 -437.07,150.89 -625.45,308.2 -522.41,436.33 -873.47,924.47 -1092.69,1299.64 -111.33,199.29 -222.71,398.57 -270.5,502.18 -47.77,103.58 -31.94,111.46 9.37,119.19 41.34,7.73 108.19,15.25 175.03,22.81 425.02,32.97 1400.43,58.73 2209.48,-291.7 627.12,-271.76 1053.98,-625.68 1332.54,-929.18 561.59,364.8 1107.4,751.69 1636.32,1159.36 -154.35,50.14 -303.53,122.53 -443.69,222.56 -1212.94,864.87 -1706.54,2009.18 -1706.54,2009.18 0,0 1486.73,328.59 2707.92,-93.29 507.52,-175.26 907.83,-404.55 1216.66,-634.52 218.26,202.85 432.35,409.74 642.97,620.37 250.1,250.02 494.82,505.48 734.2,766.29 -244.49,-21.23 -494.21,3.49 -739.97,95.55 -1395.43,521.68 -2168.51,1499.39 -2168.51,1499.39 0,0 1351.52,701.51 2639.91,610.32 746.31,-53.04 1318.21,-260.99 1720.94,-473.28 346.29,453.09 677.44,918.49 992.5,1395.25 -251.77,-102.93 -524.67,-156.17 -813.89,-128.17 -1483.41,142.12 -2482.73,887.06 -2482.73,887.06 0,0 1123.6,1026.8 2391.64,1272.5 904.55,175.13 1614.3,54.32 2066.13,-87.02 169.1,314.71 331.48,633.48 487.21,956.25 -146.88,-44.59 -301.86,-70.05 -464.36,-70.89 -1489.83,-8.35 -2559.29,629.81 -2559.29,629.81 0,0 1012.75,1136.35 2249.79,1510.16 688.4,207.29 1277.3,223.34 1723.19,175.29 161.12,439.66 309.87,885.21 446.34,1336.08 -186.58,-129.73 -397.83,-226.52 -635.77,-272.53 -1462.83,-283.51 -2631.89,147.58 -2631.89,147.58 0,0 785.81,1303.59 1932.87,1898.4 762.08,395.16 1435.23,495.7 1906.67,501.2 141.17,700.33 252.94,1411.75 333.91,2132.12 -152.66,-155.69 -333.91,-286 -548.66,-375.57 -171.23,-71.41 -340.22,-131.01 -504.94,-180.69 -173.52,-43.13 -347.02,-86.26 -647.64,-104.27 -300.58,-18.03 -728.31,-10.91 -981.65,-7.37 -253.33,3.56 -332.27,3.56 -298.08,161.52 34.25,157.95 181.65,473.88 369.73,783.3 188.12,309.39 416.92,612.29 645.69,915.21 99.87,104.03 206,203.12 318.37,294.41 467.54,379.48 921.24,608.4 1309.48,746.06 172.24,105.86 344.46,211.67 430.59,264.59 86.12,52.94 86.12,52.94 75.57,395.17 -10.51,342.26 -31.59,1026.72 -75.31,1562.71 -43.7,536.02 -110.13,923.49 -176.5,1311.01 29.42,-55.08 57.9,-111.1 85.42,-168.03 -534.7,4792.1 -2430.55,9173.04 -5292.27,12747.04l11.84 -62.56c-819.93,960.92 -1639.86,1921.83 -2284.55,2576.21 -644.67,654.38 -1114.16,1002.23 -1583.62,1350.08 -1948.51,1566.08 -4137.97,2844.74 -6504.04,3771.36 -55.28,21.67 -110.66,43.14 -166.15,64.4 -47.76,18.59 -106.7,41.63 -184.24,72.09 -195.7,76.76 -509.69,200.53 -785.86,300.56 -276.2,100.09 -514.62,176.53 -840.66,271.68 -326.15,95.14 -739.93,209.07 -1118.74,304.6 -378.82,95.57 -722.54,172.72 -1065.72,242.05 -343.19,69.43 -685.79,131.04 -1008.61,182.9 -322.81,51.91 -625.82,94 -973.9,133.87 -348.06,39.91 -741.22,77.62 -1236.2,107.08 -494.94,29.54 -1091.65,50.86 -1714.56,48.88 -622.85,-1.96 -1271.89,-27.22 -1924.19,-78.68 -652.37,-51.48 -1308,-129.24 -1875.46,-213.73 -567.53,-84.43 -1046.95,-175.63 -1547.06,-294.26 -500.19,-118.61 -1021.05,-264.77 -1541.99,-410.85zm-17228.68 -29810.11c-18.06,21.05 -23.28,2.54 -23.28,2.54 0,0 0,0 23.28,-2.54zm7252.85 27355.77c-2020.13,567.75 -2616,1737.41 -2616,1737.41 0,0 1768.17,1155.6 3172.04,792.74 931.48,-241.01 1571.37,-866.34 1966.11,-1398.31 4151,2647.01 9080.59,4181.21 14368.55,4181.21 2788.92,0 5478.22,-426.62 8006.16,-1218.34 675.27,-241.92 1350.54,-483.93 2025.74,-725.85 3355.36,-1357.71 6372.77,-3376.11 8890.62,-5894.01 4842.81,-4842.66 7838.25,-11533.09 7838.25,-18922.56 0,-121.77 -1.07,-243.04 -2.71,-364.53 625.88,-79.02 1385.78,-309.2 2009.82,-898.92 1053.96,-996.17 1015.36,-3108.12 1015.36,-3108.12 0,0 -1307.54,-117.13 -2862,1291.84 -106.08,96.21 -206.32,206.89 -300.43,327.12 -85.91,-840.84 -211.04,-1670.01 -372.95,-2485.79 604.1,-201.28 1318.53,-581.48 1819.75,-1298.65 831.44,-1188.54 366.24,-3249.74 366.24,-3249.74 0,0 -1304.07,149.95 -2542.16,1844.88 -80.93,110.7 -153.46,233.42 -219.18,363.96 -152.52,-517.25 -320.21,-1027.73 -502.67,-1531.37 600.65,-293.19 1357.64,-821.75 1766.03,-1724.55 597.67,-1320.87 -239.44,-3260.92 -239.44,-3260.92 0,0 -1254.32,387.36 -2158.23,2281.09 -93.48,196.01 -161.7,417.51 -210.83,649.11 -222.77,-484.49 -459.88,-961.43 -710.17,-1429.93 500.32,-365.55 1034.42,-916.28 1297.85,-1703.72 460.08,-1375.07 -569.61,-3219.94 -569.61,-3219.94 0,0 -1208.41,512.84 -1915.53,2488.82 -34.11,95.37 -62.02,195.66 -84.89,299.49 -347.21,-525.7 -712.4,-1038.37 -1094.82,-1537.13 448.42,-488.87 943.6,-1238.6 1002.62,-2202.73 88.49,-1447.64 -1383.8,-2962.15 -1383.8,-2962.15 0,0 -1034.12,808.37 -1205.55,2899.88 -10,122.63 -9.61,250.06 -0.56,379.97 -241.64,-261.58 -488.47,-518.45 -740.39,-770.4 -242.5,-242.47 -489.88,-480.02 -741.37,-713.07 359.72,-563.63 842.91,-1583.89 605.74,-2746.67 -288.49,-1420.73 -2102.72,-2503.47 -2102.72,-2503.47 0,0 -789.92,1048.62 -413.66,3112.91 42.35,232.57 126.8,472.23 235.08,707.3 -644.42,-505.69 -1312.68,-982.22 -2002.66,-1428.12 196.45,-532.37 327.96,-1234.01 116.93,-1976.75 -357.32,-1256.39 -2060.61,-2103.6 -2060.61,-2103.6 0,0 -637.21,995.58 -158.42,2823.58l9.85 35.15c-879.3,-461.14 -1787.09,-874.6 -2720.63,-1237.28 38.82,-431.45 -4.14,-963.64 -293.24,-1464.68 -509.21,-883.18 -1959.71,-1200.65 -1959.71,-1200.65 0,0 -268.15,800.74 330.65,2002.09 -2458.46,-744.48 -5066.27,-1145.01 -7767.75,-1145.01 -7389.44,0 -14079.84,2995.39 -18922.56,7838.27 -3285.2,3285.26 -5719.81,7420.86 -6946.18,12048.19 -681.38,-1041.14 -1445.01,-1226.15 -1445.01,-1226.15 0,0 -502.2,1397.59 -24.8,2298.39 253.34,478.74 644.97,789.25 1010.58,988.19 -175.77,967.6 -300.04,1953.13 -368.64,2953.88 -1286.13,-1357.32 -2456.41,-1347.2 -2456.41,-1347.2 0,0 -188.02,1892.92 686.35,2863.6 509.42,565.51 1161.99,827.96 1712.5,947.12 18.47,829.15 74.65,1648.74 166.67,2457.8 -141.18,-216.03 -298.4,-413.72 -472.25,-572.73 -1548.53,-1415.73 -2856.43,-1304.63 -2856.43,-1304.63 0,0 -47.71,2112.39 1002.17,3112.14 866.7,826.61 2000.59,954.59 2667.02,947.02 140.08,704.61 307.74,1399.18 501.99,2082.63 -121.88,-92.54 -247,-174.02 -374.44,-240.22 -1862.33,-966.85 -3096.65,-520.95 -3096.65,-520.95 0,0 499.7,2052.25 1773.16,2746.95 876.6,478.59 1807.21,439.75 2464.35,309.42 235.88,611.96 493.78,1213.06 772.44,1802.35 -139.56,-56.72 -279.46,-102.36 -417.37,-132.72 -2049.26,-451.3 -3126.43,299.14 -3126.43,299.14 0,0 1015.29,1853.17 2424.47,2194.56 859.15,208.17 1654.42,14.07 2242.51,-238.74 299.83,510.04 615.82,1008.99 947.84,1496.57 -294.23,-126.55 -597.09,-222.32 -885.62,-255.88 -2084.67,-241.4 -3079.99,614.86 -3079.99,614.86 0,0 1198.19,1740.66 2634.53,1936.42 1062.33,145.13 1970.41,-288.47 2533.41,-665.08 372.56,467.02 760.31,921.59 1162.64,1362.38 -237.11,-40.44 -471.58,-58.8 -691.45,-43.44 -2093.28,147.22 -2914.18,1171.73 -2914.18,1171.73 0,0 1498.64,1490.2 2947.06,1418.03 964.35,-47.67 1719.5,-534.01 2213.66,-976.63 662.09,615.39 1355.4,1197.59 2077.48,1744.17 -264.09,4.88 -521.11,33.9 -753.12,98.97z"/>
 </g>
</svg>
