<?xml version="1.0" encoding="UTF-8"?>
<!DOCTYPE svg PUBLIC "-//W3C//DTD SVG 1.1//EN" "http://www.w3.org/Graphics/SVG/1.1/DTD/svg11.dtd">
<!-- Creator: CorelDRAW 2020 (64-Bit) -->
<svg xmlns="http://www.w3.org/2000/svg" xml:space="preserve" width="215.9mm" height="279.4mm" version="1.1" style="shape-rendering:geometricPrecision; text-rendering:geometricPrecision; image-rendering:optimizeQuality; fill-rule:evenodd; clip-rule:evenodd"
viewBox="0 0 21590 27940"
 xmlns:xlink="http://www.w3.org/1999/xlink"
 xmlns:xodm="http://www.corel.com/coreldraw/odm/2003">
 <defs>
  <style type="text/css">
   <![CDATA[
    .fil0 {fill:#A2662E}
   ]]>
  </style>
 </defs>
 <g id="Capa_x0020_1">
  <metadata id="CorelCorpID_0Corel-Layer"/>
  <path class="fil0" d="M-122180.4 121218.07c-764.83,-1.32 -1559.74,-35.57 -2306.17,-101.32 19.59,-83.15 33.63,-174.94 40.45,-284.06 17.54,-291.95 -18.08,-711.2 -128.04,-1166.88 -110.45,-456.07 -295.6,-948.13 -630.87,-1358.35 -335.24,-410.53 -820.05,-738.85 -1230.08,-797.99 -410.46,-59.55 -745.31,150.47 -824.5,506.09 -79.6,355.58 96.83,856.75 339.66,1344.67 242.42,487.48 550.88,961.77 696.47,1294.67 43.62,99.18 72.43,186.07 87.2,263.8 -700.05,-106.72 -1390.95,-241.91 -2071.75,-403.14 13.97,-33.15 23.18,-65.01 30.82,-98.03 35.18,-150.53 43.93,-323.38 26.35,-719.87 -17.59,-396.53 -61.61,-1016.78 -162.79,-1522.46 -101.61,-506.13 -260.45,-898.09 -578.02,-1139.64 -317.65,-241.87 -793.7,-332.85 -1142.15,-195.98 -348.39,136.48 -568.83,501.17 -471.64,1048.23 96.84,547.06 511.24,1276.43 678.88,1705.2 96,245.22 110.84,392 40.83,495.36 -1029.72,-314.22 -2032.57,-690.53 -3004.66,-1124.27 53.62,-100.46 58.03,-229.9 62.01,-447.37 8.76,-474.29 17.6,-1367.43 -79.24,-2010.01 -97.15,-642.92 -300.02,-1034.97 -608.39,-1285.54 -308.85,-250.98 -723.69,-360.13 -988.09,-287.37 -264.87,72.8 -379.26,328.31 -396.85,857.15 -18.03,528.51 61.61,1331.04 -8.83,1778.01 -21.97,139.34 -58.79,244.4 -109.18,325.41 -469.6,-263.81 -930.46,-542.08 -1382.16,-833.11 66.08,-41.4 74.84,-72.44 84.43,-112.47 22.05,-91.38 48.4,-227.87 39.64,-847.68 -8.83,-620.25 -52.85,-1723.4 -202.87,-2434.63 -149.96,-711.24 -405.56,-1030.01 -745.22,-1166.87 -339.61,-136.84 -763.25,-90.99 -1023.28,32.24 -260.05,122.82 -357.2,323.37 -370.42,843.12 -13.2,519.72 57.6,1358.27 79.57,1823.51 6.85,139.7 8.4,246.01 2.83,327.87 -655.68,-522.61 -1285.33,-1076.72 -1888.18,-1658.93 107.66,-96.75 120.84,-262.55 134.45,-561.05 26.43,-588.02 52.77,-1690.81 4.37,-2461.12 -48.75,-770.33 -171.97,-1208.26 -374.8,-1508.78 -202.87,-301.06 -485.24,-465.19 -745.26,-428.85 -260.07,36.36 -498.42,273.73 -590.84,793.53 -92.85,519.28 -39.65,1321.89 -105.63,1768.45 -30.8,207.96 -87.64,338.67 -166.05,423.85 -452.38,-536.28 -883.65,-1090.81 -1292.88,-1663.03 50.79,-90.99 116.46,-232.44 210.43,-456.52 229.24,-547.08 626.46,-1586.6 754.5,-2347.79 127.6,-761.25 -13.65,-1244.15 -251.67,-1517.55 -238.4,-273.71 -573.2,-337.75 -864.02,-260.01 -291.22,77.29 -538.5,296.04 -688.07,756.69 -150.01,460.21 -203.23,1162.24 -269.25,1563.39 -32.8,197.18 -67.98,321.64 -105.99,404.38 -312.43,-523.94 -607.29,-1059.77 -883.66,-1606.39 150.02,-370.93 343.25,-996.97 470.85,-1537.38 140.8,-597.47 202.82,-1089.57 172.01,-1499.76 -31.21,-410.57 -154.86,-738.46 -379.69,-966.31 -225.15,-228.26 -551.24,-355.62 -776.03,-296.43 -225.23,59.09 -348.45,305.54 -494.01,706.66 -78,214.56 -162.06,473.42 -240.43,712.39 -196.85,-540.86 -376.43,-1089.94 -538.42,-1646.48 236.8,-463.9 635.58,-1273.13 905.61,-1914.92 277.66,-661.13 418.83,-1144.49 401.24,-1563.8 -17.59,-419.22 -194.03,-774.88 -476.01,-975.38 -282.47,-200.53 -670.84,-246.45 -944.11,-91.43 -273.59,155.11 -432.04,510.72 -599.65,1012.29l-40.74 123.21c-202.43,-1324.43 -307.3,-2680.63 -307.3,-4061.67 0,-732.29 30.05,-1457.53 87.63,-2174.94 251.67,357.65 573.3,857.59 899.7,1201.54 432.03,455.68 872.83,638.08 1181.68,473.9 308.81,-164.14 485.2,-674.38 414.84,-1257.85 -70.82,-583.42 -388.46,-1240.06 -767.63,-1777.57 -379.26,-537.94 -820.49,-957.68 -1199.75,-1313.2l-150.76 -139.82c71.99,-380.38 152.39,-757.93 240.35,-1132.53 91.22,134.81 185.66,263 275.65,364.26 198.41,223.28 374.85,314.25 555.62,337.42 180.82,22.77 366.09,-23.17 489.63,-127.75 123.21,-105.05 185.26,-269.22 211.62,-537.92 26.43,-269.25 17.67,-643 -48.4,-975.46 -66.35,-332.85 -189.57,-624.8 -454.04,-998.6 -99.95,-141.36 -220.42,-294.41 -353.15,-441.19 237.61,-706.61 503.59,-1399.23 797.24,-2077.78 122.79,378.39 291.58,870.84 450.82,1215.31 189.65,410.15 366.05,610.65 590.88,674.81 224.79,63.64 498.38,-9.55 683.65,-210.07 185.15,-200.55 282.03,-528.47 286.8,-938.64 4.42,-410.62 -84.05,-902.64 -220.42,-1385.97 -136.82,-483.38 -322.02,-957.29 -502.83,-1317.41 -57.24,-113.75 -114.03,-216.27 -174.45,-307.26 303.68,-550.31 626.07,-1088.7 966.47,-1613.78 33.2,166.63 55.61,365.91 98.82,617.29 66,387.47 180.39,897.71 339.23,1212.33 158.81,314.66 361.67,432.99 586.82,437.52 224.84,4.54 471.68,-104.62 652.49,-346.1 180.78,-241.86 295.6,-615.66 295.6,-1094.12 0,-478.8 -114.82,-1062.27 -259.98,-1567.93 -126.05,-437.84 -274.86,-817.91 -412.86,-1089.15 358.46,-461.88 731.7,-911.31 1119.32,-1347.96 13.61,236.15 28.82,504.91 56.36,763.74 52.85,501.57 149.65,966.31 357.29,1267.33 207.16,301.05 524.37,437.49 798,369.22 273.23,-68.17 502.84,-341.93 622.04,-683.45 118.84,-341.97 127.68,-752.58 127.68,-1135.47 0,-382.89 -8.84,-738.5 -57.24,-1290.05 -28.37,-323.83 -70.44,-714.98 -176.43,-1063.95 648.87,-606.16 1328.9,-1179.29 2036.15,-1717.64l14.41 310.94c26.43,515.24 88.4,1371.95 198.81,1846.25 110,473.83 268.85,565.26 502.84,601.63 233.66,36.38 542.04,18.23 754.06,-405.6 211.61,-424.28 326.08,-1253.77 396.88,-2001.33 64.76,-688.87 92.38,-1307.84 75.59,-1696.97 542.04,-340.3 1097.29,-660.3 1664.49,-960.92 -21.61,123.59 -42.75,251 -59.99,374.18 -57.58,414.71 -66.41,788.52 -21.96,1139.6 43.94,351.09 140.82,678.95 277.57,843.14 136.84,164.13 313.23,164.13 476.45,82.26 163.27,-82.26 312.84,-246.45 546.82,-966.79 202.06,-623.47 467.3,-1662.98 623.32,-2356.87 949.28,-410.53 1927.74,-766.19 2930.58,-1063.47 29.26,151.36 7.65,334.89 -118.4,680.99 -167.6,460.21 -520.43,1207.83 -533.64,1686.63 -13.22,478.39 312.87,688.51 634.89,706.66 322.03,18.22 639.24,-155.06 934.87,-697.56 295.61,-542.51 568.8,-1454.27 670.41,-2096.77 43.26,-272.95 55.24,-497.45 24.79,-701.31 624.51,-141.81 1256.9,-261.3 1897.36,-357.26 -27.17,79.4 -61.6,164.15 -105.18,256.01 -101.61,214.11 -251.27,469.68 -392.48,743.39 -141.17,273.35 -273.18,564.88 -295.15,829.48 -22.41,264.19 65.94,501.13 251.22,688.06 185.14,186.87 467.22,323.74 802.45,314.64 335.19,-9.12 723.2,-164.14 979.25,-733.92 255.6,-569.8 378.87,-1554.69 418.81,-2224.57l4.03 -67.83c734.42,-62.41 1477.25,-94.68 2227.75,-94.68 750.43,0 1493.26,32.27 2227.77,94.68l3.94 67.83c40.02,669.88 163.22,1654.77 418.84,2224.57 256.02,569.78 644.03,724.8 979.31,733.92 335.26,9.1 617.24,-127.77 802.46,-314.64 185.2,-186.93 273.64,-423.87 251.2,-688.06 -22.01,-264.6 -153.96,-556.13 -295.21,-829.48 -141.21,-273.71 -290.79,-529.28 -392.4,-743.39 -43.66,-91.86 -78.01,-176.61 -105.27,-256.01 640.48,95.96 1272.95,215.45 1897.37,357.26 -30.36,203.86 -18.39,428.36 24.79,701.31 101.61,642.5 374.89,1554.26 670.49,2096.77 295.63,542.5 612.85,715.78 934.86,697.56 322,-18.15 648.05,-228.27 634.82,-706.66 -13.2,-478.8 -365.95,-1226.42 -533.64,-1686.63 -125.97,-346.1 -147.57,-529.63 -118.41,-680.99 1002.93,297.28 1981.4,652.94 2930.67,1063.47 156.02,693.89 421.26,1733.4 623.25,2356.87 233.98,720.34 383.62,884.53 546.84,966.79 163.21,81.87 339.63,81.87 476.43,-82.26 136.84,-164.19 233.62,-492.05 277.64,-843.14 44.38,-351.08 35.62,-724.89 -22.04,-1139.6 -17.16,-123.18 -38.32,-250.59 -59.97,-374.18 567.26,300.62 1122.51,620.62 1664.55,960.92 -16.78,389.13 10.76,1008.1 75.59,1696.97 70.82,747.56 185.19,1577.05 396.8,2001.33 212.02,423.83 520.5,441.98 754.07,405.6 234.03,-36.37 392.84,-127.8 502.85,-601.63 110.44,-474.3 172.44,-1331.01 198.8,-1846.25l14.39 -310.94c707.27,538.35 1387.38,1111.48 2036.17,1717.64 -106,348.97 -148.03,740.12 -176.36,1063.95 -48.43,551.55 -57.23,907.16 -57.23,1290.05 0,382.89 8.8,793.5 127.59,1135.47 119.2,341.52 348.81,615.28 622.05,683.45 273.64,68.27 590.84,-68.17 798.09,-369.22 207.62,-301.02 304.42,-765.76 357.19,-1267.33 27.63,-258.83 42.84,-527.59 56.41,-763.74 387.65,436.65 760.91,886.08 1119.35,1347.96 -138.07,271.24 -286.84,651.31 -412.89,1089.15 -145.2,505.66 -260.02,1089.13 -260.02,1567.93 0,478.46 114.82,852.26 295.64,1094.12 180.85,241.48 427.6,350.64 652.45,346.1 225.22,-4.53 428,-122.86 586.81,-437.52 158.85,-314.62 273.23,-824.86 339.31,-1212.33 43.18,-251.38 65.55,-450.66 98.77,-617.29 340.37,525.08 662.85,1063.47 966.46,1613.78 -60.42,90.99 -117.23,193.51 -174.38,307.26 -180.8,360.12 -366.04,834.03 -502.84,1317.41 -136.41,483.33 -224.84,975.35 -220.42,1385.97 4.78,410.17 101.59,738.09 286.77,938.64 185.27,200.52 458.9,273.71 683.69,210.07 224.84,-64.16 401.23,-264.66 590.88,-674.81 159.2,-344.47 327.94,-836.92 450.82,-1215.31 293.56,678.55 559.64,1371.17 797.25,2077.78 -132.81,146.78 -253.21,299.83 -353.24,441.19 -264.39,373.8 -387.61,665.75 -454.05,998.6 -65.98,332.46 -74.82,706.21 -48.35,975.46 26.39,268.7 88.36,432.87 211.58,537.92 123.61,104.58 308.8,150.52 489.62,127.75 180.87,-23.17 357.22,-114.14 555.7,-337.42 89.99,-101.26 184.4,-229.45 275.61,-364.26 88.01,374.6 168.41,752.15 240.39,1132.53l-150.84 139.82c-379.18,355.52 -820.41,775.26 -1199.66,1313.2 -379.26,537.51 -696.82,1194.15 -767.63,1777.57 -70.45,583.47 105.95,1093.71 414.75,1257.85 308.85,164.18 749.72,-18.22 1181.77,-473.9 326.39,-343.95 648.03,-843.89 899.61,-1201.54 57.66,717.41 87.65,1442.65 87.65,2174.94 0,1381.04 -104.8,2737.24 -307.22,4061.67l-40.86 -123.21c-167.54,-501.57 -325.95,-857.18 -599.63,-1012.29 -273.18,-155.02 -661.62,-109.1 -944.03,91.43 -282.06,200.5 -458.49,556.16 -476.08,975.38 -17.54,419.31 123.67,902.67 401.23,1563.8 270.07,641.79 668.89,1451.02 905.7,1914.92 -161.99,556.54 -341.66,1105.62 -538.42,1646.48 -78.41,-238.97 -162.42,-497.83 -240.44,-712.39 -145.6,-401.12 -268.86,-647.57 -494.08,-706.66 -224.79,-59.19 -550.81,68.17 -776.03,296.43 -224.84,227.85 -348.41,555.74 -379.62,966.31 -30.8,410.19 31.21,902.29 172.01,1499.76 127.6,540.41 320.81,1166.45 470.85,1537.38 -276.47,546.62 -571.3,1082.45 -883.69,1606.39 -37.96,-82.74 -73.22,-207.2 -105.99,-404.38 -65.99,-401.15 -119.2,-1103.18 -269.21,-1563.39 -149.6,-460.65 -396.86,-679.4 -688.07,-756.69 -290.83,-77.74 -625.63,-13.7 -864.11,260.01 -238.01,273.4 -379.17,756.3 -251.58,1517.55 128.05,761.19 525.25,1800.71 754.41,2347.79 94.05,224.08 159.65,365.53 210.43,456.52 -409.22,572.22 -840.42,1126.75 -1292.83,1663.03 -78.45,-85.18 -135.29,-215.89 -166.08,-423.85 -65.97,-446.56 -12.8,-1249.17 -105.59,-1768.45 -92.43,-519.8 -330.83,-757.17 -590.81,-793.53 -260.07,-36.34 -542.48,127.79 -745.31,428.85 -202.78,300.52 -326,738.45 -374.84,1508.78 -48.4,770.31 -21.98,1873.1 4.45,2461.12 13.58,298.5 26.79,464.3 134.43,561.05 -602.91,582.21 -1232.56,1136.32 -1888.24,1658.93 -5.56,-81.86 -3.93,-188.17 2.84,-327.87 22.05,-465.24 92.84,-1303.79 79.64,-1823.51 -13.22,-519.75 -110.45,-720.3 -370.42,-843.12 -260.03,-123.23 -683.67,-169.08 -1023.27,-32.24 -339.7,136.86 -595.25,455.63 -745.31,1166.87 -150.01,711.23 -194.04,1814.38 -202.78,2434.63 -8.85,619.81 17.58,756.3 39.57,847.68 9.57,40.03 18.41,71.07 84.44,112.47 -451.65,291.03 -912.5,569.3 -1382.12,833.11 -50.45,-81.01 -87.2,-186.07 -109.24,-325.41 -70.38,-446.97 9.2,-1249.5 -8.75,-1778.01 -17.67,-528.84 -132.07,-784.35 -396.85,-857.15 -264.47,-72.76 -679.24,36.39 -988.09,287.37 -308.46,250.57 -511.24,642.62 -608.43,1285.54 -96.81,642.58 -88.04,1535.72 -79.21,2010.01 3.94,217.47 8.4,346.91 62.01,447.37 -972.07,433.74 -1975.01,810.05 -3004.69,1124.27 -69.96,-103.36 -55.2,-250.14 40.84,-495.36 167.59,-428.77 581.98,-1158.14 678.84,-1705.2 97.19,-547.06 -123.24,-911.75 -471.61,-1048.23 -348.5,-136.87 -824.45,-45.89 -1142.12,195.98 -317.64,241.55 -476.39,633.51 -578.05,1139.64 -101.17,505.68 -145.25,1125.93 -162.84,1522.46 -17.55,396.49 -8.78,569.34 26.43,719.87 7.56,33.02 16.85,64.88 30.82,98.03 -680.88,161.23 -1371.7,296.42 -2071.78,403.14 14.81,-77.73 43.61,-164.62 87.24,-263.8 145.59,-332.9 454.01,-807.19 696.4,-1294.67 242.85,-487.92 419.29,-989.09 339.64,-1344.67 -79.19,-355.62 -414.03,-565.64 -824.42,-506.09 -410.09,59.14 -894.91,387.46 -1230.14,797.99 -335.21,410.22 -520.45,902.28 -630.85,1358.35 -110.01,455.68 -145.63,874.93 -128,1166.88 6.82,109.12 20.81,200.91 40.45,284.06 -746.51,65.75 -1501.4,100 -2264.63,101.32l-5.12 0 -7.22 0 -16.77 0 -7.22 0 -5.24 0zm-9379.1 -508.61c-507.29,195.98 -904.5,469.29 -979.33,838.51 -75.14,369.24 172.06,834.43 511.67,1003.15 339.63,168.26 771.7,40.95 1402.54,-296.49 461.21,-246.8 1028.84,-605.36 1474.53,-912.54 720.86,192.27 1452.48,355.18 2195.35,487.92l-159.6 82.7c-383.64,195.98 -842.45,415.12 -1014.07,820.76 -172.03,405.66 -57.68,998.12 163.22,1290.06 220.37,291.5 546.42,282.46 1066.85,-54.96 520.43,-337.44 1234.93,-1002.74 1649.73,-1476.6 125.16,-143.05 223.19,-268.33 301.2,-380.38 896.06,91.34 1846.14,138.91 2767.01,140.14l11.56 0 18.48 0 11.53 0c920.07,-1.23 1829.32,-48.8 2725.42,-140.14 77.99,112.05 176.02,237.33 301.27,380.38 414.79,473.86 1129.21,1139.16 1649.68,1476.6 520.46,337.42 846.43,346.46 1066.89,54.96 220.82,-291.94 335.24,-884.4 163.21,-1290.06 -171.6,-405.64 -630.43,-624.78 -1014.07,-820.76l-159.6 -82.7c742.83,-132.74 1474.51,-295.65 2195.35,-487.92 445.63,307.18 1013.26,665.74 1474.53,912.54 630.81,337.44 1062.85,464.75 1402.54,296.49 339.62,-168.72 586.82,-633.91 511.59,-1003.15 -74.82,-369.22 -472.03,-642.53 -979.25,-838.51 -60.05,-23.21 -120.79,-45.1 -183.24,-66.15 860.09,-311.84 1699.72,-665.74 2517.38,-1059.76 521.26,231.08 1162.54,498.65 1670.18,688.42 745.67,277.89 1204.07,387.03 1521.7,209.63 317.65,-177.82 494.02,-642.94 401.23,-1021.28 -92.42,-378.38 -454.01,-669.88 -860.06,-865.85 -171.26,-82.76 -349.62,-148.46 -524.87,-203.86 479.67,-288.59 949.28,-592.55 1409.33,-909.28 730.06,219.54 1707.36,493.68 2374.61,638.83 860.06,186.94 1204.06,159.6 1424.51,-100.02 220.77,-260.1 317.63,-752.15 198.41,-1098.69 -118.82,-346.46 -454.05,-547.05 -802.51,-665.3 -348.37,-118.65 -710.05,-155.47 -1084.88,-210.08l-177.14 -27.26c690.04,-571.84 1351.26,-1176.34 1981.69,-1812.71l163.23 -166.64c775.23,24.39 1799.39,28.5 2450.98,-3.31 842.48,-41.35 1062.89,-141.45 1186.16,-405.61 123.62,-264.66 150.39,-693.43 17.98,-975.86 -132.42,-282.86 -423.28,-419.31 -745.31,-487.51 -321.98,-68.62 -674.81,-68.62 -1023.27,-68.62l-165.97 0c425.18,-527.6 831.69,-1071.35 1217.71,-1630.44 487.98,12.03 1178.48,21.94 1700.11,-1.22 613.24,-27.7 992.47,-100.43 1239.3,-355.54 247.21,-255.61 361.58,-693.45 264.39,-984.95 -96.77,-291.93 -405.2,-437.52 -758.02,-496.58 -352.84,-59.58 -750.05,-31.88 -1076.53,-18.23l-197.62 6.99c270.8,-467.65 528.48,-943.98 772.09,-1428.59 399.61,-15.69 968.07,-47.91 1554.49,-160.03 714.5,-136.8 1455.35,-392.36 1922.61,-720.24 467.61,-328.32 661.64,-729.82 551.22,-1030.43 -110,-301.05 -524.48,-501.57 -1066.93,-578.86 -542.4,-77.73 -1212.48,-31.88 -1605.29,0l-264.04 22.68c248.87,-645.4 474.09,-1302.9 674.88,-1971.11l70.78 -21.02c498.5,-150.56 1442.51,-451.17 2024.58,-642.57 582.03,-191.45 802.88,-273.72 988.07,-382.93 185.24,-109.53 334.8,-246.01 374.46,-519.36 39.95,-273.71 -30.83,-684.32 -207.25,-921.25 -176.4,-236.86 -458.42,-301.01 -762.83,-273.28 -304.42,27.31 -630.48,145.51 -939.33,286.96 -308.8,141.38 -599.63,305.56 -784.81,387.82 -113.61,50.5 -187.64,69.54 -240.03,67.86 150.39,-685.56 275.24,-1381.52 373.99,-2085.22 18.82,-15.34 82.02,-71.56 382.04,-322.52 361.67,-301.84 1067.34,-885.72 1561.34,-1405.06 494.07,-519.77 776.06,-975.83 890.84,-1431.52 114.84,-455.63 61.62,-911.7 -114.78,-1175.94 -176.42,-264.16 -476.01,-337.35 -837.67,-209.63 -361.58,127.77 -785.22,455.71 -1102.88,665.35 -222.01,146.71 -392.39,235.21 -510.79,319.15l1.94 -321.22c0,-824.12 -35.98,-1640.33 -106.42,-2446.21 321.64,177.39 811.32,396.93 1285.76,396.93 511.58,0 1005.66,-255.13 1040.86,-656.15 35.62,-401.5 -388.02,-948.13 -934.88,-1486.08 -546.85,-537.98 -1217.24,-1066.8 -1711.33,-1185.05 -33.99,-8.32 -66.79,-14.52 -99.23,-18.67 -122.04,-618.13 -264.04,-1228.83 -426.01,-1831.29 65.21,-36.03 140.39,-39.3 261.63,-20.67 176.44,27.22 450.02,100.43 824.87,219.11 374.8,118.29 850.86,282.42 1230.06,296.03 379.66,13.7 661.66,-122.78 802.87,-346.03 141.25,-223.76 141.25,-533.43 48.39,-784.03 -92.41,-250.93 -277.56,-442.41 -736.47,-661.15 -458.37,-218.72 -1190.46,-465.16 -1759.33,-606.17 -515.57,-128.16 -897.28,-170.38 -1266.49,-20.7 -261.22,-746.7 -553.63,-1478.63 -875.27,-2193.96 102.81,24.43 220.02,58.71 350.81,99.23 339.7,104.64 772.1,250.57 1173.31,314.69 401.25,63.65 771.69,45.5 1053.73,-105.02 282.38,-150.53 476.85,-432.92 476.85,-747.61 0,-314.68 -194.47,-661.13 -542.93,-920.79 -348.36,-260.13 -850.85,-433.39 -1327.25,-533.4 -476.05,-100.54 -926.04,-127.77 -1371.74,-141.46 -286.43,-8.67 -570.8,-11.98 -819.65,19.9 -335.23,-607.48 -692.45,-1200.39 -1070.86,-1778 138.43,9.47 296.03,38.44 479.59,62.35 313.26,40.96 701.28,68.3 1080.51,18.27 379.26,-50.5 749.68,-177.87 956.92,-382.95 207.2,-205.06 251.58,-487.87 136.75,-743.04 -114.82,-255.11 -388.02,-483.34 -868.88,-606.11 -480.78,-123.24 -1168.42,-141.46 -1764.13,-145.99 -510.79,-3.7 -953.24,2.11 -1269.27,44.69 -392.47,-507.82 -801.69,-1001.06 -1227.73,-1479.5 315.26,45.92 729.32,102.16 1081.36,112.86 458.81,13.71 811.65,-50.42 1058.45,-255.56 247.19,-205.09 388.02,-551.55 335.23,-920.77 -52.86,-369.24 -300.05,-761.27 -811.65,-952.67 -511.24,-191.43 -1287.71,-182.4 -2006.61,-150.53 -576,25.59 -1114.9,66.11 -1498.9,287.32 -624.06,-578.45 -1275.32,-1128.37 -1950.98,-1646.89 288.04,-40.48 678.05,-51.71 1104.11,-108.35 445.65,-59.15 930.46,-168.71 1194.92,-419.3 264.81,-250.54 308.82,-642.9 154.36,-870.79 -154.36,-227.77 -507.18,-291.86 -979.21,-287.35 -471.69,4.53 -1062.56,77.73 -1733,164.57 -547.61,70.72 -1148.44,150.48 -1576.11,229.52 -726.03,-468.09 -1476.12,-902.27 -2246.96,-1300.03l110.01 -28.1c361.59,-91.43 1005.24,-255.57 1441.69,-424.29 436.84,-168.7 666.46,-341.92 807.26,-606.16 141.21,-264.63 194.43,-619.81 48.8,-838.55 -145.63,-219.18 -489.57,-301.05 -930.86,-241.91 -440.87,59.19 -978.85,259.7 -1600.87,497.07 -621.7,236.86 -1327.37,510.25 -1702.16,665.27 -52.86,21.92 -99.23,41.35 -139.27,60.82 -740.8,-309.74 -1497.69,-587.22 -2269.78,-831.56 433.23,-261.77 1110.51,-574.32 1526.95,-865.46 436.81,-305.5 586.45,-588.37 595.21,-838.91 8.88,-250.59 -123.19,-469.77 -370.42,-578.91 -246.75,-109.56 -608.44,-109.56 -943.62,-36.37 -335.26,72.75 -643.65,218.31 -1155.28,573.88 -457.28,317.56 -1076.51,803.46 -1482.93,1237.99 -764.5,-183.19 -1541.72,-333.69 -2330.21,-450.25 81.59,-126.53 212.05,-269.22 434.86,-436.27 370.42,-278.27 996.85,-624.73 1420.12,-962.17 423.2,-337.39 644.02,-665.31 670.39,-956.8 26.48,-291.93 -141.21,-547.49 -441.18,-643.01 -299.66,-95.89 -732.05,-31.8 -1186.48,141.44 -454.1,172.86 -930.07,455.67 -1366.93,870.4 -436.47,414.72 -833.68,961.77 -1054.11,1413.32 -63.99,131.01 -112.79,253.84 -149.2,378.7 -760.48,-64.51 -1530.15,-98 -2307.35,-98 -777.28,0 -1546.94,33.49 -2307.34,98 -36.39,-124.86 -85.23,-247.69 -149.27,-378.7 -220.41,-451.55 -617.61,-998.6 -1054.02,-1413.32 -436.86,-414.73 -912.91,-697.54 -1366.91,-870.4 -454.44,-173.24 -886.91,-237.33 -1186.53,-141.44 -300.02,95.52 -467.63,351.08 -441.23,643.01 26.39,291.49 247.19,619.41 670.47,956.8 423.21,337.44 1049.71,683.9 1420.13,962.17 222.76,167.05 353.19,309.74 434.78,436.27 -788.42,116.56 -1565.72,267.06 -2330.16,450.25 -406.4,-434.53 -1025.71,-920.43 -1482.89,-1237.99 -511.63,-355.57 -820.05,-501.13 -1155.3,-573.88 -335.22,-73.19 -696.85,-73.19 -943.69,36.37 -247.25,109.14 -379.21,328.32 -370.43,578.91 8.84,250.54 158.41,533.41 595.22,838.91 416.43,291.14 1093.72,603.69 1526.98,865.46 -772.13,244.34 -1528.93,521.82 -2269.79,831.56 -39.99,-19.47 -86.4,-38.9 -139.21,-60.82 -374.88,-155.02 -1080.47,-428.41 -1702.15,-665.27 -622.04,-237.37 -1160.1,-437.88 -1600.89,-497.07 -441.27,-59.14 -785.31,22.73 -930.94,241.91 -145.59,218.74 -92.41,573.92 48.8,838.55 140.81,264.24 370.42,437.46 807.31,606.16 436.41,168.72 1080.07,332.86 1441.72,424.29l110.01 28.1c-770.92,397.76 -1520.92,831.94 -2246.96,1300.03 -427.66,-79.04 -1028.49,-158.8 -1576.18,-229.52 -670.4,-86.84 -1261.32,-160.04 -1732.93,-164.57 -472.02,-4.51 -824.85,59.58 -979.29,287.35 -154.37,227.89 -110.35,620.25 154.44,870.79 264.39,250.59 749.28,360.15 1194.89,419.3 426.01,56.64 816.02,67.87 1104.07,108.35 -675.62,518.52 -1326.91,1068.44 -1950.91,1646.89 -384.08,-221.21 -922.93,-261.73 -1498.96,-287.32 -718.84,-31.87 -1495.31,-40.9 -2006.54,150.53 -511.69,191.4 -758.88,583.43 -811.65,952.67 -52.86,369.22 87.95,715.68 335.2,920.77 246.84,205.14 599.67,269.27 1058.49,255.56 351.99,-10.7 766.08,-66.94 1081.26,-112.86 -426.03,478.44 -835.26,971.68 -1227.65,1479.5 -316.01,-42.58 -758.48,-48.39 -1269.35,-44.69 -595.62,4.53 -1283.25,22.75 -1764.12,145.99 -480.87,122.77 -754.07,351 -868.89,606.11 -114.82,255.17 -70.36,537.98 136.83,743.04 207.25,205.08 577.67,332.45 956.85,382.95 379.3,50.03 767.32,22.69 1080.51,-18.27 183.63,-23.91 341.25,-52.88 479.66,-62.35 -378.41,577.61 -735.7,1170.52 -1070.86,1778 -248.83,-31.88 -533.29,-28.57 -819.73,-19.9 -445.61,13.69 -895.67,40.92 -1371.69,141.46 -476.45,100.01 -978.85,273.27 -1327.3,533.4 -348.46,259.66 -542.85,606.11 -542.85,920.79 0,314.69 194.39,597.08 476.85,747.61 281.99,150.52 652.42,168.67 1053.65,105.02 401.23,-64.12 833.69,-210.05 1173.36,-314.69 130.74,-40.52 247.95,-74.8 350.76,-99.23 -321.64,715.33 -614.05,1447.26 -875.26,2193.96 -369.22,-149.68 -750.83,-107.46 -1266.49,20.7 -568.83,141.01 -1300.89,387.45 -1759.34,606.17 -458.82,218.74 -644.05,410.22 -736.47,661.15 -92.77,250.6 -92.77,560.27 48.4,784.03 141.21,223.25 423.28,359.73 802.9,346.03 379.26,-13.61 855.23,-177.74 1230.11,-296.03 374.84,-118.68 648.39,-191.89 824.87,-219.11 121.15,-18.63 196.41,-15.36 261.56,20.67 -161.98,602.46 -303.99,1213.16 -426.02,1831.29 -32.36,4.15 -65.15,10.35 -99.22,18.67 -494.01,118.25 -1164.49,647.07 -1711.3,1185.05 -546.86,537.95 -970.51,1084.58 -934.89,1486.08 35.23,401.02 529.24,656.15 1040.91,656.15 474.43,0 964.05,-219.54 1285.67,-396.93 -70.36,805.88 -106.42,1622.09 -106.42,2446.21l2.03 321.22c-118.41,-83.94 -288.79,-172.44 -510.88,-319.15 -317.56,-209.64 -741.2,-537.58 -1102.87,-665.35 -361.59,-127.72 -661.24,-54.53 -837.68,209.63 -176.4,264.24 -229.61,720.31 -114.78,1175.94 114.78,455.69 396.85,911.75 890.84,1431.52 494.09,519.34 1199.76,1103.22 1561.38,1405.06 299.98,250.96 363.22,307.18 382.01,322.52 98.82,703.7 223.59,1399.66 374,2085.22 -52.41,1.68 -126.36,-17.36 -239.95,-67.86 -185.27,-82.26 -476.1,-246.44 -784.91,-387.82 -308.82,-141.45 -634.82,-259.65 -939.25,-286.96 -304.43,-27.73 -586.5,36.42 -762.9,273.28 -176.35,236.93 -247.21,647.54 -207.16,921.25 39.56,273.35 189.21,409.83 374.37,519.36 185.26,109.21 406.04,191.48 988.08,382.93 582.05,191.4 1526.15,492.01 2024.56,642.57l70.86 21.02c200.79,668.21 426.02,1325.71 674.82,1971.11l-264.04 -22.68c-392.83,-31.88 -1062.83,-77.73 -1605.28,0 -542.47,77.29 -956.88,277.81 -1066.93,578.86 -110.36,300.61 83.67,702.11 551.28,1030.43 467.26,327.88 1208.1,583.44 1922.52,720.24 586.42,112.12 1154.9,144.34 1554.53,160.03 243.65,484.61 501.28,960.94 772.05,1428.59l-197.61 -6.99c-326.4,-13.65 -723.61,-41.35 -1076.44,18.23 -352.84,59.06 -661.26,204.65 -758.12,496.58 -97.19,291.5 17.27,729.34 264.47,984.95 246.77,255.11 626.06,327.84 1239.3,355.54 521.64,23.16 1212.05,13.25 1700.13,1.22 386.02,559.09 792.43,1102.84 1217.69,1630.44l-166.04 0c-348.39,0 -701.21,0 -1023.23,68.62 -322.07,68.2 -612.85,204.65 -745.27,487.51 -132.41,282.43 -105.63,711.2 17.95,975.86 123.21,264.16 343.64,364.26 1186.1,405.61 651.69,31.81 1675.76,27.7 2450.99,3.31l163.22 166.64c630.44,636.37 1291.73,1240.87 1981.75,1812.71l-177.19 27.26c-374.81,54.61 -736.43,91.43 -1084.89,210.08 -348.45,118.25 -683.61,318.84 -802.49,665.3 -119.17,346.54 -22.38,838.59 198.44,1098.69 220.42,259.62 564.49,286.96 1424.54,100.02 667.25,-145.15 1644.52,-419.29 2374.54,-638.83 460.05,316.73 929.74,620.69 1409.33,909.28 -175.24,55.4 -353.62,121.1 -524.81,203.86 -406.04,195.97 -767.71,487.47 -860.13,865.85 -92.73,378.34 83.67,843.46 401.31,1021.28 317.57,177.4 776.03,68.26 1521.7,-209.63 507.65,-189.77 1148.92,-457.34 1670.11,-688.42 817.65,394.02 1657.36,747.92 2517.42,1059.76 -62.41,21.05 -123.23,42.94 -183.21,66.15z"/>
 </g>
</svg>
