<?xml version="1.0" encoding="UTF-8"?>
<!DOCTYPE svg PUBLIC "-//W3C//DTD SVG 1.1//EN" "http://www.w3.org/Graphics/SVG/1.1/DTD/svg11.dtd">
<!-- Creator: CorelDRAW 2020 (64-Bit) -->
<svg xmlns="http://www.w3.org/2000/svg" xml:space="preserve" width="215.9mm" height="279.4mm" version="1.1" style="shape-rendering:geometricPrecision; text-rendering:geometricPrecision; image-rendering:optimizeQuality; fill-rule:evenodd; clip-rule:evenodd"
viewBox="0 0 21590 27940"
 xmlns:xlink="http://www.w3.org/1999/xlink"
 xmlns:xodm="http://www.corel.com/coreldraw/odm/2003">
 <defs>
  <style type="text/css">
   <![CDATA[
    .fil0 {fill:#A2662E}
   ]]>
  </style>
 </defs>
 <g id="Capa_x0020_1">
  <metadata id="CorelCorpID_0Corel-Layer"/>
  <path class="fil0" d="M3154.3 377381.19c-55.53,-67.15 100.09,60.25 254.48,-839.68 124.88,-729.57 310.96,-1809.62 598.71,-3556.78 238.46,-1444.97 484.47,-2990.37 670.25,-4289.45 191.09,-1339.24 331.96,-2507.16 367.44,-3556.13 2848.55,98.52 5416.57,1303.77 7293.32,3202.17 1968.69,1990.99 3186.8,4746.03 3186.8,7791.63 0,3045.61 -1218.11,5800.66 -3186.8,7791.62 -1959.6,1982.19 -4672.58,3208.77 -7671.76,3208.77 -231.26,0 -456.86,-6.59 -676.5,-19.46 537.2,-502.66 985.89,-1104.2 1290.9,-1807.39 318.5,-735.2 457.5,-1547.91 437.74,-2367.84 -20.42,-816.77 -195.8,-1647.69 -504.89,-2414.89 -568.9,-1412.36 -1555.44,-2557.36 -2049,-3130.01l-10.69 -12.56zm-11555.18 -327.27c444.35,-819.31 1677.19,-1527.84 1749.68,-2091.07 88.48,-686.89 -1167.27,-1083.51 -2917.25,-253.23 -112.97,-350.51 -247.59,-661.47 -394.43,-935.72l-2.84 1.57 -81.58 -147.15c934.46,-2045.59 1871.74,-4065.43 2833.79,-5852.11 512.42,-952.03 1024.22,-1819.96 1569.56,-2563.95 506.47,-691.28 1047.12,-1281.5 1653.99,-1740.26 572.32,-432.71 1222.49,-760.94 1880.52,-977.77 680.9,-224.35 1348.32,-326.33 1927.26,-300.28 477.89,21.65 883,131.48 1187.04,326.96 240.38,154.69 427.07,380 540.66,674.01 164.11,424.87 215.88,1018.87 194.23,1777.28 -25.1,872.01 -159.4,1964.62 -343.58,3256.16 -194.88,1364.03 -433.35,2863.94 -657.71,4224.83 -174.47,1058.71 -430.18,2548.24 -598.71,3530.39 -425.17,2477.67 -425.47,2478.3 521.22,3575.92l77.82 90.67c390.33,454.68 1060.89,1262.06 1400.72,2106.15 166.62,413.88 261.41,848.16 271.45,1260.15 8.78,360.86 -43.95,699.12 -165.39,979.64 -111.08,256.06 -302.49,498.62 -544.71,720.77l3.14 3.14c-303.14,277.08 -690.33,513.05 -1112.08,703.2 -411.06,185.44 -835.3,317.23 -1282.42,389.1 -462.86,74.04 -980.61,88.79 -1567.7,38.9 -617.53,-52.72 -1278.36,-173.83 -1917.84,-341.08 -675.27,-176.66 -1333.61,-404.47 -1902.19,-657.7 -527.79,-235.03 -982.45,-499.23 -1386.31,-784.78 -398.18,-281.46 -741.79,-582.39 -1054.95,-895.54l-6.27 -6.28c-300.28,-300.29 -570.13,-608.75 -776.29,-929.44 -175.09,-272.36 -304.08,-550.06 -361.17,-832.47 -62.15,-305.95 -62.77,-655.5 -18.2,-1009.45 52.07,-414.19 164.43,-817.72 312.53,-1159.12 33.58,-77.82 391.29,-1118.66 968.01,-2181.44zm-5920.51 -1987.22c37.67,-37.64 62.46,-58.05 76.26,-65.57 30.11,-16.33 59.31,-26.99 86.6,-33.89l33.88 -7.84c30.46,2.5 61.5,-3.46 96.67,-9.11 90.67,-14.74 208.66,-26.04 288.37,-30.44 27.28,-1.26 50.19,-1.88 73.72,-5.02 71.54,5.02 143.08,10.68 214.32,18.83 82.54,9.11 155.63,20.09 207.43,33.58 27.28,6.9 56.48,17.56 86.6,33.89 13.8,7.52 38.59,27.93 76.23,65.57 70.92,70.92 140.89,160.36 199.57,270.18l0 6.59c71.54,133.36 139.32,303.74 197.07,518.05 142.78,528.74 225.29,1260.17 297.48,2023.61l-17.28 39.85c-266.71,615.03 -467.23,1330.15 -558.52,2054.67 -44.87,356.77 -64.64,720.45 -53.99,1080.69 -44.23,231.57 -91.31,443.07 -151.86,549.44 -19.16,33.57 -51.47,71.85 -91.93,110.13 -46.14,43.61 -93.85,78.76 -136.84,101.05 -32,16.63 -87.52,33.26 -153.44,48.63l0 6.59c-31.69,7.52 -85.33,16.94 -150.28,26.98 -64.95,-10.04 -118.61,-19.46 -150.3,-26.98l0 -6.59c-65.91,-15.37 -121.44,-32 -153.46,-48.63 -42.97,-22.29 -90.67,-57.44 -136.81,-101.05 -40.46,-38.28 -72.8,-76.56 -91.93,-110.13 -60.58,-106.37 -107.64,-317.87 -151.87,-549.44 10.66,-360.24 -9.11,-723.92 -53.99,-1080.69 -91.31,-724.52 -291.8,-1439.64 -558.54,-2054.67l-17.25 -39.85c72.16,-763.44 154.7,-1494.87 297.48,-2023.61 57.74,-214.31 125.5,-384.69 197.04,-518.05l0 -6.59c58.7,-109.82 128.67,-199.26 199.57,-270.18zm-13221.05 916.88c-168.49,-982.15 -424.24,-2471.68 -598.71,-3530.39 -224.36,-1360.89 -462.83,-2860.8 -657.69,-4224.83 -184.2,-1291.54 -318.48,-2384.15 -343.58,-3256.16 -21.65,-758.41 30.12,-1352.41 194.21,-1777.28 113.61,-294.01 300.32,-519.32 540.66,-674.01 304.06,-195.48 709.15,-305.31 1187.07,-326.96 578.94,-26.05 1246.36,75.93 1927.26,300.28 658,216.83 1308.17,545.06 1880.51,977.77 606.88,458.76 1147.54,1048.98 1653.97,1740.26 545.37,743.99 1057.17,1611.92 1569.58,2563.95 962.07,1786.68 1899.33,3806.52 2833.79,5852.11l-81.58 147.15 -2.84 -1.57c-146.84,274.25 -281.46,585.21 -394.43,935.72 -1749.98,-830.28 -3005.73,-433.66 -2917.25,253.23 72.47,563.23 1305.33,1271.76 1749.66,2091.07 576.75,1062.78 934.46,2103.62 968.02,2181.44 148.11,341.4 260.46,744.93 312.54,1159.12 44.56,353.95 43.92,703.5 -18.2,1009.45 -57.1,282.41 -186.08,560.11 -361.16,832.47 -206.16,320.69 -476,629.15 -776.32,929.44l-6.25 6.28c-313.18,313.15 -656.76,614.08 -1054.95,895.54 -403.84,285.55 -858.52,549.75 -1386.33,784.78 -568.56,253.23 -1226.89,481.04 -1902.17,657.7 -639.48,167.25 -1300.31,288.36 -1917.86,341.08 -587.07,49.89 -1104.84,35.14 -1567.68,-38.9 -447.12,-71.87 -871.36,-203.66 -1282.44,-389.1 -421.72,-190.15 -808.94,-426.12 -1112.05,-703.2l3.14 -3.14c-242.25,-222.15 -433.66,-464.71 -544.72,-720.77 -121.44,-280.52 -174.16,-618.78 -165.39,-979.64 10.04,-411.99 104.81,-846.27 271.43,-1260.15 339.85,-844.09 1010.41,-1651.47 1400.74,-2106.15l77.83 -90.67c946.69,-1097.62 946.39,-1098.25 521.19,-3575.92zm-2258.93 17795.11c410.1,-1489.87 1022,-2902.22 1801.43,-4205.05l352.08 -569.51c136.8,28.86 275.82,54.6 416.69,77.18 748.08,119.87 1528.47,148.74 2359.05,77.82 778.51,-66.21 1632.62,-224.67 2475.77,-445.25 852.89,-223.12 1690.68,-513.67 2421.17,-839.08 751.53,-334.8 1387.56,-702.87 1943.58,-1096.03 558.55,-395.06 1044.29,-819.92 1489.88,-1265.19l6.25 -6.27c278.04,-278.02 542.23,-566.69 784.48,-870.45l228.43 128.67c318.17,165.05 617.21,266.08 905.27,334.17l1.57 -6.28c287.74,68.42 485.74,97.9 680.93,126.14l3.77 -26.98c180.72,16.63 331.35,16.01 460.3,8.16l2.83 18.82c195.17,-28.24 393.17,-57.72 680.91,-126.14l1.57 6.28c288.08,-68.09 587.1,-169.12 905.27,-334.17l228.46 -128.67c242.22,303.76 506.43,592.43 784.45,870.45l6.28 6.27c445.59,445.27 931.33,870.13 1489.85,1265.19 556.05,393.16 1192.09,761.23 1943.61,1096.03 730.47,325.41 1568.29,615.96 2421.17,839.08 843.13,220.58 1697.27,379.04 2475.77,445.25 830.6,70.92 1610.98,42.05 2359.03,-77.82 140.89,-22.58 279.92,-48.32 416.72,-77.18l352.05 569.51c779.46,1302.83 1391.35,2715.18 1801.45,4205.05 395.69,1436.2 607.49,2966.52 607.49,4563.07 0,4679.49 -1872.66,8913.1 -4899.77,11974.4 -3018.31,3052.5 -7193.54,4941.17 -11807.75,4941.17 -4614.21,0 -8789.47,-1888.67 -11807.78,-4941.17 -3027.08,-3061.3 -4899.77,-7294.91 -4899.77,-11974.4 0,-1596.55 211.83,-3126.87 607.51,-4563.07zm-13126.63 -17645.74c0,-3045.6 1218.11,-5800.64 3186.83,-7791.63 1876.75,-1898.4 4444.77,-3103.65 7293.32,-3202.17 35.45,1048.97 176.35,2216.89 367.45,3556.13 185.74,1299.08 431.75,2844.48 670.25,4289.45 287.74,1747.16 473.82,2827.21 598.68,3556.78 154.39,899.93 310.04,772.53 254.48,839.68l-10.66 12.56c-493.59,572.65 -1480.11,1717.65 -2049.01,3130.01 -309.08,767.2 -484.5,1598.12 -504.9,2414.89 -19.77,819.93 119.26,1632.64 437.73,2367.84 305,703.19 753.71,1304.73 1290.92,1807.39 -219.65,12.87 -445.27,19.46 -676.53,19.46 -2999.15,0 -5712.16,-1226.58 -7671.73,-3208.77 -1968.72,-1990.96 -3186.83,-4746.01 -3186.83,-7791.62zm825.9 -10113.63c-2562.06,2590.93 -4147.02,6167.78 -4147.02,10113.63 0,3945.87 1584.96,7522.7 4147.02,10113.65 2553.91,2583.05 6073.02,4186.81 9957.67,4207.2 -331.97,792.95 -615.96,1612.87 -848.14,2455.69 -480.11,1743.09 -737.42,3566.18 -737.42,5432.27 0,5580.06 2239.49,10635.16 5859.95,14296.4 3628.94,3670.05 8639.18,5940.29 14168.71,5940.29 5529.52,0 10539.74,-2270.24 14168.68,-5940.29 3620.46,-3661.24 5859.94,-8716.34 5859.94,-14296.4 0,-1866.09 -257.28,-3689.18 -737.39,-5432.27 -232.2,-842.82 -516.16,-1662.74 -848.17,-2455.69 3884.68,-20.39 7403.79,-1624.15 9957.7,-4207.2 2562.07,-2590.95 4147,-6167.78 4147,-10113.65 0,-3945.85 -1584.93,-7522.7 -4147,-10113.63 -2570.23,-2599.73 -6118.19,-4207.87 -10032.69,-4207.87l0 281.15 -34.19 -91.31c-379.36,-980.27 -1012.59,-1738.39 -1837.85,-2269.31 -799.2,-513.99 -1764.71,-797.64 -2834.41,-845.96 -982.17,-44.56 -2059.69,110.45 -3107.74,455.93 -983.72,324.45 -1964.32,821.48 -2840.08,1483.57 -880.48,665.54 -1638.29,1485.78 -2328.62,2428.09 -652.36,889.88 -1239.77,1882.4 -1816.18,2953.03 -888.34,1650.51 -1775.71,3540.14 -2662.47,5474l-293.41 -41.74c-173.21,-19.44 -345.15,-29.81 -515.87,-40.16l-0.61 10.68 -94.46 2.5 -98.52 5.02 -0.95 -18.2c-170.68,10.35 -342.66,20.72 -515.87,40.16l-293.38 41.74c-886.76,-1933.86 -1774.13,-3823.49 -2662.47,-5474 -576.44,-1070.63 -1163.84,-2063.15 -1816.2,-2953.03 -690.33,-942.31 -1448.11,-1762.55 -2328.58,-2428.09 -875.8,-662.09 -1856.38,-1159.12 -2840.08,-1483.57 -1048.06,-345.48 -2125.61,-500.49 -3107.75,-455.93 -1069.71,48.32 -2035.21,331.97 -2834.42,845.96 -825.26,530.92 -1458.49,1289.04 -1837.85,2269.31l-34.22 91.31 0 -281.15c-3914.46,0 -7462.46,1608.14 -10032.66,4207.87z"/>
 </g>
</svg>
