<?xml version="1.0" encoding="UTF-8"?>
<!DOCTYPE svg PUBLIC "-//W3C//DTD SVG 1.1//EN" "http://www.w3.org/Graphics/SVG/1.1/DTD/svg11.dtd">
<!-- Creator: CorelDRAW 2020 (64-Bit) -->
<svg xmlns="http://www.w3.org/2000/svg" xml:space="preserve" width="215.9mm" height="279.4mm" version="1.1" style="shape-rendering:geometricPrecision; text-rendering:geometricPrecision; image-rendering:optimizeQuality; fill-rule:evenodd; clip-rule:evenodd"
viewBox="0 0 21590 27940"
 xmlns:xlink="http://www.w3.org/1999/xlink"
 xmlns:xodm="http://www.corel.com/coreldraw/odm/2003">
 <defs>
  <style type="text/css">
   <![CDATA[
    .fil0 {fill:#A2662E}
   ]]>
  </style>
 </defs>
 <g id="Capa_x0020_1">
  <metadata id="CorelCorpID_0Corel-Layer"/>
  <path class="fil0" d="M-208888.17 176928.75c239.37,756.77 519.94,1504.92 840.79,2235.47 548.82,1249.5 1213.31,2446.06 1928.65,3557.89 833.11,1294.87 1738.64,2480.58 2612.25,3504.1 249.63,292.55 496.65,571.84 740.94,838.56 -849.11,-558.16 -1656.9,-1142.05 -2402.74,-1771.71 -986.32,-832.77 -1871.28,-1751.92 -2657.22,-2751.22 -799.7,-1016.77 -1495.22,-2113.47 -2089.33,-3283.7 -72.88,-143.6 -144.2,-288.3 -214.04,-434.03 73.67,-64.06 139.19,-121.12 194.87,-168.99 351.01,-301.96 307.89,-240.43 427.2,-434.53 119.22,-194.02 400.9,-643.68 539.32,-976.01 51.7,-124.1 83.42,-231.83 79.31,-315.83zm10457.53 14125.03c1939.3,1102.63 3916.86,2227.1 6097.44,3156.63 -393.03,-53.36 -792.17,-119.66 -1199.15,-198.22 -958.82,-184.94 -1955.22,-437.09 -3011.31,-747.92 -1061.74,-312.44 -2180.51,-682.54 -3326.25,-1166.61 -1143.79,-483.3 -2325.26,-1083.86 -3521.19,-1860.26 -1252.02,-812.68 -2518.69,-1817.49 -3617.06,-2907.71 -988.28,-980.96 -1836.32,-2026.52 -2407.03,-3055.56 -587.96,-1060.01 -885.25,-2116.51 -1037.05,-3170.88 -16.2,-112.31 -30.7,-224.66 -43.83,-336.99 509.66,892.02 1077.31,1738.04 1704.27,2535.08 835.06,1061.68 1777.65,2040.26 2830.38,2929.14 1988.86,1679.2 4347.19,3016.95 6768.41,4390.36l762.37 432.94zm-10083.28 -27911.16c-437.89,1210.36 -794.46,2436.43 -1037.27,3696.05 -130.93,679.41 -228.97,1369.99 -288.99,2074.79 -113.1,122.73 -201.97,296.6 -251.23,467.02 -54.63,188.74 -60.85,373.27 59.16,591.72 33.13,60.36 75.99,123.28 127.06,185.24 -4.1,210.07 -4.75,421.41 -1.74,634.21 19.18,1376.8 189.92,2806.87 507,4232.88 133.96,602.32 293.81,1203.87 479.19,1800.19 -50.44,-71.1 -162.91,-103.26 -364.54,-83.93 -323.79,31.04 -877.5,194.93 -1517.64,506.38 -227.64,-604.76 -426.07,-1225.28 -590.18,-1860.47 -322.4,-1247.9 -513.99,-2554.11 -536.6,-3910.22 -22.88,-1367.25 127.05,-2796.47 409.35,-4223.94 241.82,-1222.85 579.91,-2437.32 989.13,-3604.84 225.7,-48.23 430.6,-104.87 606.41,-164.19 501.43,-169.26 766.07,-359.99 929.12,-464.58 163.06,-104.66 224.61,-123.07 289.48,-92.24 48.64,23.1 99.13,73.81 192.29,215.93zm1615.09 -3619.62c-393.09,722.38 -741.37,1451.6 -1053.24,2186.49 -68.16,1.81 -129,11.17 -185.17,23.45 -196.96,43.04 -338.44,122.99 -406.13,126.14 -67.75,3.06 -61.53,-70.82 -188.36,-251.66 -124.05,-176.8 -375.24,-455.95 -700.92,-641.33 316.42,-672.7 653.74,-1323.73 1006.15,-1950.1 721.69,-1282.66 1502.15,-2452.83 2291.31,-3488.07 748.62,-982.2 1504.99,-1843.58 2371.58,-2647.53 863.68,-801.24 1844.16,-1550.92 3044.6,-2313.14 1249.15,-793.28 2729.4,-1595.62 4275.41,-2295.54 650.38,70.04 1322.13,106.1 1914.11,107.09 -1052.6,481.96 -2081,1020.52 -3072.99,1625 -1339.29,816.03 -2614.82,1753.37 -3783.16,2765.74 -1189.86,1030.91 -2268.7,2140.03 -3190.84,3278.44 -916.63,1131.47 -1678.71,2292.07 -2322.35,3475.02zm13917.82 -12437.88c-60.64,-30.68 -123.5,-60.96 -188.52,-90.68 371.52,-120.02 740.24,-229.76 1103.74,-327.71 1466.69,-395.1 2852.58,-598.78 4133.39,-691.42 169.34,-12.29 336.87,-22.54 502.36,-31.18 -515.6,127.26 -1029.53,264.83 -1541.76,411.21 -1139.84,325.62 -2280.27,697.42 -3408.99,1126.5 -136.19,-134.87 -349.62,-269.8 -600.22,-396.72zm25210.21 3226.29c6.35,287.8 37.12,555.42 84.63,791.4 -745.76,-576.36 -1520.21,-1114.09 -2320.44,-1613.28 -1251.32,-780.58 -2571.43,-1468.8 -3862.17,-2057.3 -424.42,-193.46 -844.34,-375.69 -1256.76,-546.57 1176.12,300.43 2337.08,704.39 3473.49,1211.69 1351.35,603.3 2667.26,1353.11 3881.25,2214.06zm4976.88 5687.31c-1003.29,-1302.44 -2106.01,-2489.07 -3294.18,-3561.08 -89.37,-80.66 -179.24,-160.63 -269.66,-240.01 69.84,-34.48 140.03,-75.09 211.28,-118.9 99.07,-60.96 200.24,-128.3 305.94,-223.33 453.84,410.18 882.78,836.54 1282,1276.43 911.19,1004.05 1665.82,2078.29 2273.36,3200.26 210.35,388.48 403.19,782.45 578.88,1181.04 -347.45,-518.73 -710.4,-1024.7 -1087.62,-1514.41zm1780.02 19809.52c-13.4,143.53 -28.26,286.61 -44.46,429.02 -114.9,1012.56 -300.2,1990.53 -561.71,2964.36 -54.68,203.72 -112.66,407.18 -173.99,610.55 -256.48,-80.8 -538.56,-142.94 -848.2,-193.12 228.64,-453.42 451.48,-923.62 667.27,-1408.93 339.66,-763.89 661.78,-1566.66 961.09,-2401.88zm-4353.27 6050.89c-1192.96,1763.84 -2594.98,3297.65 -4234.58,4651.95 -957.92,791.24 -2101.66,1599.88 -3253.5,2339.08 -307,-268.1 -675.01,-443.68 -1091.74,-436.05 -335.39,6.15 -704.53,129.22 -1070.68,332.25 -366.09,203.09 -729.16,486.15 -873.81,861.52 -112.37,291.75 -92.71,639.28 25.64,1003.56 -2025.77,1069.12 -3847.01,1795.18 -6023.43,2412.07 -1145.17,324.64 -2262.27,579.48 -3303.14,786.36 -826,164.24 -1597.79,297.35 -2336.2,392.31 124.74,-526.43 178.91,-1134.51 14.02,-1667.64 -157.28,-508.46 -514.21,-951.51 -957.26,-1406.88 -443.01,-455.33 -972.15,-922.91 -1341.36,-1126.01 -369.25,-203.04 -578.39,-141.5 -719.89,270.77 -141.54,412.27 -215.43,1175.27 55.32,1827.47 425.84,1025.82 1667.31,1751.32 1946.07,2160.83 -557.72,-160.75 -1107.23,-335.81 -1642.49,-525.23 -198.22,-70.12 -394.54,-142.4 -589.4,-216.41 -1297.74,-593.61 -2595.31,-1187.69 -3840.67,-1814.58 -1315.47,-662.08 -2441.71,-1303.11 -3670.15,-2211.55 -1533.43,-1133.98 -2950.12,-2483.9 -4299.41,-4064.77 -1088.07,-1274.81 -2174.95,-2752.12 -3095.16,-4317.87 271.73,204.43 523.68,372.36 731.85,503.94 535.36,338.44 781.44,436.89 941.42,258.43 159.97,-178.42 233.86,-633.78 -104.59,-1347.61 -338.46,-713.72 -1089.09,-1685.89 -1741.39,-2516.64 -652.27,-830.68 -1206.01,-1519.86 -1655.18,-1827.54 -141.24,-96.71 -272.06,-155.73 -391.77,-185.32 -505.69,-1764.51 -787.09,-3612.46 -793.97,-5389.09 396.07,-75.97 637.35,-318.23 751.77,-691.22 76.88,-250.74 83.1,-524.52 -16.89,-752.17 -114.15,-259.82 -359.36,-452.96 -632.62,-527.17 154.84,-1439.52 476.96,-2831.48 922.1,-4206.2 392.92,470.4 926.2,894.9 1332.17,1158.73 108.77,70.69 206.74,128.52 295.76,175.2 179.54,40.57 359.09,81.15 475.67,103.25 183.41,34.77 263.3,36.75 372.81,-115.04 55.56,-77.01 120,-197.33 130.81,-384.79 14.45,-250.97 -75.21,-697.97 -121.43,-909.21 -101.22,-418.49 -281.08,-915.28 -620.36,-1358.9 -278.39,-364.06 -664.09,-692.32 -1020.18,-932.97 812.58,-1911.25 1839.62,-3679.1 3188.32,-5343.98 1805.86,-2229.22 4165.39,-4249.31 6661.58,-5770.27 1864.77,-1136.23 3860.92,-2030.26 5914.63,-2749.68 -160.66,255.84 -335.66,582.98 -520.4,998.26 -310.78,698.38 -649.16,1646 -769.15,2322.9 -120,676.82 -21.55,1082.89 199.95,1215.23 221.52,132.29 566.12,-9.27 944.55,-520 666.09,-898.94 1535.45,-3120.26 1793.69,-4153.44 46.03,-184.26 69.77,-320.59 71.37,-423.21 1815.09,-549 3683.46,-1000.93 5520.48,-1260.46 67.8,80.51 145.2,149.09 232.48,200.87 279.98,166.13 661.47,159.92 916.85,6.06 144.43,-86.99 248.44,-221.23 327.13,-374.93 325.13,-27.7 649.92,-48.99 974.33,-63.42 886.77,152.46 1803.6,378.15 2878.55,717.29 2566.89,809.79 5398.5,2052.95 7823.02,3565.51 867.23,541.06 1703.21,1129.71 2503.77,1766.35 -691.29,-18.97 -1592.21,144.36 -2315.22,516.02 -766.09,393.77 -1332.2,1021.34 -1482.96,1489.01 -150.78,467.66 113.86,775.29 587.66,999.94 473.8,224.59 1156.76,366.07 1889,329.16 732.3,-36.9 1513.8,-252.29 2027.58,-747.57 399.28,-384.91 636.78,-938.88 676.74,-1406.34 2281.07,2088.64 4088.62,4494.16 5553.58,7234.72 289.98,542.47 562.85,1092.87 817.44,1647.34 18.88,155.03 35.92,310.2 51.13,465.5 -108.83,108.29 -196.26,226.55 -250.33,351.21 -174.48,402.24 -1.88,871 344.37,1171.22 52.07,1920.85 -137.01,3894.08 -484.05,5770.33 -241.78,-1154.03 -602.05,-1964.58 -996.77,-2730.95 -95.43,-185.29 -289.27,-543.84 -449.99,-652.14 -80.63,-54.33 -154.32,-47.32 -192.94,-3.44 -38.61,43.88 -42.12,124.61 -13.27,255.55 28.83,130.95 90.06,312.09 151.26,493.24 430.74,816.71 832.63,1703.21 1069.97,2984.16 59.17,319.19 108.29,663.08 147.24,1025.46 -248.81,1083.3 -545.42,2127.31 -877.09,3124.95 -558.1,1678.92 -1249.71,3335.3 -2051.36,4861.53 -684.93,-43.94 -1375.94,-45.42 -1868.78,10.75 -96.57,11.02 -185.46,24.22 -266.98,39.85 -284.72,71.63 -569.44,143.25 -674.55,300.1 -105.11,156.85 -30.61,398.93 43.89,641 154.61,406.98 547.27,912.24 1189.91,1298.84 51.5,30.97 104.65,61.19 159.21,90.62zm2506.39 792.17c-366.22,821.18 -784.82,1655.69 -1235.75,2471.43 -554.44,1003.09 -1157.54,1975.82 -1771.44,2857.83 -605.32,869.82 -1219.58,1649 -1855.86,2331.36 -634.76,680.8 -1291.5,1266.38 -1983.27,1750.5 -690.72,483.57 -1421.64,869.6 -2230.81,1206.6 -812.39,338.37 -1705.79,627.57 -2717.73,916.41 -1025.95,292.9 -2158.23,581.94 -3343.55,868.92 -721.71,174.78 -1480.85,352.9 -2254.26,532.34 -284.86,-7.89 -574.88,-20.79 -871.41,-38.86 -388.26,-23.67 -787.98,-55.89 -1196.57,-96.86 -159.47,-169.94 -360.82,-259.67 -552.4,-281.92 -201.56,-23.38 -392.31,27.84 -580.01,89.38 -40.33,13.17 -80.44,26.99 -119.93,43.53 -513.64,-70.6 -1036.42,-153.99 -1563.6,-249.99l180.5 -35.51c1063.42,-211.33 2211,-473.54 3399.31,-810.38 1189.82,-337.19 2414.98,-748.28 3628.56,-1256.27 910.97,-381.36 1813.93,-816.36 2684.31,-1277.25 174.61,184.05 380.3,339.15 617.73,439.67 523.06,221.53 1199.96,178.41 1673.76,-123.13 473.8,-301.48 744.52,-861.37 821.4,-1332.1 47.66,-291.58 20.94,-548.82 -48.7,-779.25 314.02,-201.59 616.99,-401.4 906.86,-597.59 930.11,-629.38 1731.97,-1224.32 2455.53,-1822.03 721.78,-596.25 1367.61,-1198.35 1987.17,-1843.3 618.87,-644.18 1205.83,-1325.76 1764.83,-2065.1 293.24,-387.85 579.98,-793.14 860.81,-1218.73 465.98,144.56 939.31,250.8 1344.52,320.3zm4050.26 -3987.47c-390.21,1554.9 -921.94,3083.88 -1590.67,4497.69 -673.34,1423.66 -1485.47,2731.89 -2417.1,3921.68 -956.95,1222 -2042.43,2322.41 -3235.69,3297.57l-2.38 0c-1132.62,925.69 -2360.14,1737.75 -3604.9,2425.54 -1360.7,751.91 -2741.53,1356.66 -4042.08,1800.53 -1237.71,422.53 -2404.26,699.31 -3603.27,849.52 -163.59,20.51 -327.84,38.58 -492.9,54.48 1176.1,-285.49 2289.27,-569.94 3278.54,-852.37 1026.93,-293.11 1936.87,-588.01 2771.58,-935.68 838,-349.06 1598.78,-751.48 2323.04,-1258.49 723.51,-506.39 1406.2,-1114.29 2062.12,-1817.77 654.71,-702.09 1283.32,-1499.01 1900.08,-2385.22 621.85,-893.46 1234.16,-1881.19 1798.38,-2902.05 478.12,-865.06 922.48,-1756.23 1309.51,-2635.95 601.21,65.64 1006.96,25.87 1395.65,-84.08 467.69,-132.28 910.7,-366.14 959.89,-809.2 49.25,-443.02 -295.34,-1095.22 -821.46,-1519.85 -154.73,-124.87 -325.14,-230.01 -512.46,-319.33 67.13,-220.81 130.27,-441.49 189.55,-662.24 267.45,-995.89 457.21,-1997.92 575.13,-3037.49 84.77,-746.8 132.28,-1514.13 144.28,-2266.05 267.08,-884.73 504.29,-1792.07 703.55,-2716.45 254.72,-1182.31 451,-2407.3 572.59,-3666.14 55.2,-571.08 94.62,-1147.44 115.48,-1726.79 358.76,1162.84 624.8,2314.8 793.63,3480.22 208.18,1436.55 271.13,2898.41 181.32,4431.72 -91.74,1566.74 -343.87,3212.41 -751.41,4836.2zm1123.85 6913.53c30.77,-935.25 -67.75,-1821.33 -244.27,-2390.45 -176.43,-569.1 -430.96,-821.32 -744.78,-821.32 -13.48,0 -27.06,0.57 -40.7,1.47 441.04,-1101.59 807.66,-2247.83 1098.12,-3405.17 425.04,-1693.59 688.47,-3417.93 785.05,-5067 36.7,-626.59 49.26,-1241.75 38.09,-1848.32 68.3,-0.97 135.77,-6.97 201.08,-18.85 372.29,-67.67 673.76,-326.16 799.91,-609.22 126.12,-283.04 76.94,-590.65 -144.09,-860.02 -221.03,-269.39 -613.9,-500.4 -964.62,-534.24l-20.04 -1.75c-29.01,-267.55 -62.79,-533.99 -101.31,-799.61 -219.9,-1517.83 -591.89,-3004.13 -1107.87,-4507.94l-30.48 -88.32c109.96,-59.43 205.13,-139.74 298.21,-244.41 221.52,-249.2 430.67,-636.91 399.91,-996.85 -30.77,-360.02 -301.47,-692.27 -631.48,-914.96 -285.21,-192.57 -614.74,-303 -1018.92,-249.9 -29.5,-66.37 -59.3,-132.72 -89.36,-199.01 -103.41,-786.5 -252.49,-1569.67 -454.48,-2343.75 -352.34,-1350.74 -863.4,-2669.11 -1544.76,-3927.38 -655.07,-1209.75 -1467.19,-2366.25 -2446.55,-3445.42 -464.94,-512.4 -968.04,-1007.41 -1502.25,-1481.57 239.37,-510.78 476.45,-1170.58 605.64,-1778.21 166.2,-781.49 153.85,-1476.81 -110.72,-2012.16 -264.55,-535.31 -781.49,-910.62 -1206.09,-910.62 -424.55,0 -756.81,375.31 -1089.12,1018.35 -253.66,490.83 -507.28,1137.74 -662.36,1788.61 -1121.15,-747.79 -2314.82,-1406.41 -3537.17,-1952.07 -1409.41,-629.18 -2858.82,-1108.57 -4331.98,-1437.75 -1481.85,-331.18 -2986.85,-509.52 -4498.39,-534.92 -430.41,-7.24 -861.1,-2.09 -1291.94,14.59l-15.68 -2.58c-294.71,-48.5 -587.59,-89.87 -882.73,-125.31 -68.92,-149.99 -178.88,-274.4 -326.11,-363.57 -212.01,-128.43 -501.29,-183.77 -722.82,-189.91 -221.49,-6.21 -375.26,36.91 -525.75,110.31 -120.38,58.74 -238.56,136.94 -320.39,287.25 -91.96,-4.83 -184.83,-9.37 -278.66,-13.63 -1100.07,-50.29 -2333.91,-69.19 -3672.36,27.72 -1352.7,97.87 -2816.04,312.85 -4364.21,729.91 -924.85,249.09 -1879.3,570.36 -2829.91,940.85 -669.3,-104.78 -1422.24,-168.56 -2124.61,-196.54 -849.18,-33.83 -1624.45,-15.42 -2129.02,83.1 -504.57,98.43 -738.44,276.84 -858.38,446.1 -120.01,169.19 -126.14,329.18 332.3,581.46 306.79,168.85 821.77,379.13 1493.14,562.33 -1033.84,525.59 -2010.38,1081.3 -2878.05,1632.28 -187.8,119.22 -370.69,238.31 -548.94,357.56 -46.89,-104.18 -115.25,-203.67 -216.83,-297 -190.78,-175.43 -498.45,-329.25 -802.99,-360.02 -304.62,-30.77 -606.16,61.53 -849.16,255.35 -243.09,193.81 -427.68,489.22 -479.94,756.94 -52.35,267.62 27.63,507.57 255.34,710.67 93.92,83.71 212.87,161.16 347.73,221.29 -323.37,264.35 -631.48,532.9 -927.72,807.72 -920.96,854.42 -1721.42,1765.39 -2511,2801.32 -825.03,1082.34 -1638.61,2301.42 -2387.43,3632.33 -397.7,706.97 -778.47,1448.48 -1134.46,2220.97 -304.52,-31.26 -548.79,-31.05 -711.28,-38.99 -177.31,-8.73 -257.26,-27.15 -681.8,55.95 -424.61,83.03 -1193.81,267.56 -1806.06,504.49 -612.27,236.89 -1067.61,526.15 -1332.17,793.84 -264.64,267.65 -338.51,513.71 -175.4,759.85 163.05,246.16 562.97,492.31 1175.26,698.47 612.24,206.09 1436.84,372.23 2218.32,381.45l70.27 0.4c-346.89,1055 -636.09,2138.58 -851.06,3225.45 -296.17,1497.53 -453.09,3011.57 -428.6,4478.74 24.37,1459.21 229.69,2861.59 575.11,4198.64 193.14,747.23 429.57,1473.68 702.6,2177.86 -867.3,588.08 -1735.82,1366.57 -2184.76,1865.41 -498.44,553.77 -480.04,763.01 -326.18,972.18 153.83,209.23 443.03,418.39 901.2,348.14 443.19,-67.95 1044.59,-397.53 1704.47,-878.52 25.47,364.75 61.9,730.27 114.65,1096.84 170.85,1186.64 508.95,2381.99 1181.2,3593.95 629.59,1135.23 1549.48,2273.17 2613.81,3329.6 1158.82,1150.09 2494.46,2209.81 3814.09,3066.39 1259.01,817.34 2505.35,1450.69 3713.48,1961.13 1206.23,509.59 2364.43,893.46 3456.17,1214.77 1097.34,322.96 2131.81,584.81 3126.56,776.67 160.91,31.04 320.95,60.27 480.24,87.69 -827.55,169.46 -1445.97,388.54 -1791.32,626.88 -436.92,301.55 -436.92,633.85 -104.6,836.89 332.25,203.02 996.8,276.91 1962.88,190.74 966.04,-86.17 2233.61,-332.24 3082.77,-658.42 658.41,-252.83 1065.17,-553.75 1307.12,-741.71 99.77,-6.28 199.76,-13.39 299.96,-21.22 832.95,230.81 1677.85,430.2 2517.26,598.29 652.41,130.67 1303.42,242.72 1944.59,336.21 17.73,176.03 71.64,343.91 179.65,472.48 273.87,326.09 895.29,400 1267.56,353.8 372.29,-46.12 495.38,-212.3 572.25,-412.26 21.22,-55.2 38.95,-112.89 52.63,-172.98 269.03,23.11 534.34,42.65 795.16,58.47 1456.01,88.61 2765.74,63.36 4039.44,-96.2 1280.74,-160.47 2526.55,-456.09 3848.41,-907.27 1367.75,-466.83 2816.16,-1100.76 4239.1,-1887.06 1312.24,-725.12 2603.87,-1579.1 3792.45,-2550.55l-0.96 -1.21c1262.13,-1031.66 2411.58,-2197.31 3426.59,-3493.42 446.65,-570.42 867.02,-1165.55 1259.2,-1785.1 142.19,368.43 354.9,825.22 573.91,1241.33 307.67,584.59 627.71,1089.15 959.96,1273.77 332.31,184.62 676.9,49.18 929.18,-510.78 252.28,-559.91 412.29,-1544.49 443.05,-2479.81z"/>
 </g>
</svg>
