<?xml version="1.0" encoding="UTF-8"?>
<!DOCTYPE svg PUBLIC "-//W3C//DTD SVG 1.1//EN" "http://www.w3.org/Graphics/SVG/1.1/DTD/svg11.dtd">
<!-- Creator: CorelDRAW 2020 (64-Bit) -->
<svg xmlns="http://www.w3.org/2000/svg" xml:space="preserve" width="215.9mm" height="279.4mm" version="1.1" style="shape-rendering:geometricPrecision; text-rendering:geometricPrecision; image-rendering:optimizeQuality; fill-rule:evenodd; clip-rule:evenodd"
viewBox="0 0 21590 27940"
 xmlns:xlink="http://www.w3.org/1999/xlink"
 xmlns:xodm="http://www.corel.com/coreldraw/odm/2003">
 <defs>
  <style type="text/css">
   <![CDATA[
    .fil0 {fill:#A2662E}
   ]]>
  </style>
 </defs>
 <g id="Capa_x0020_1">
  <metadata id="CorelCorpID_0Corel-Layer"/>
  <path class="fil0" d="M-26251.27 348877.79l19.95 -42.24c310.12,10.88 621.28,16.85 934,16.85l428.27 -3.9 427.73 3.9c202.33,0 404.15,-2.34 605.46,-7.01l11.92 42.23c-366.85,14.51 -735.52,22.02 -1106,22.02 -443.04,0 -883.48,-11.14 -1321.33,-31.85zm28220.84 -25701.55c-51.82,-106.21 -107.78,-220.21 -166.85,-336.8 2.85,-159.06 4.41,-318.92 4.41,-478.78 0,-1509.65 -125.13,-2990.03 -365.82,-4430.78 51.04,-39.89 97.15,-58.03 139.89,-65.55 262.46,1484.01 399.25,3010.25 399.25,4568.1 0,248.72 -3.87,496.65 -10.88,743.81zm-1130.61 -1765.88c-37.84,-864.55 -117.38,-1717.97 -236.57,-2558.66 23.08,-10.64 45.35,-22.03 66.87,-34.47 145.08,-83.42 254.4,-202.6 368.67,-359.59l19.95 -27.74c175.9,1173.11 274.62,2371.87 290.17,3590.86 -181.62,-281.88 -348.73,-471.53 -509.09,-610.4zm-48509.92 -11393.56l-108.02 41.44c433.94,-783.97 907.28,-1542.82 1417.43,-2273.93 -471.27,720.23 -908.34,1465.34 -1309.41,2232.49zm48591.52 5034.45l-172.55 -162.71c-797.19,-2741.06 -2021.35,-5297.93 -3595.25,-7591.82 1657.84,2337.15 2941.86,4949.97 3767.8,7754.53zm-4324.05 23272.91l-33.94 -74.11c2725.53,-3663.65 4531.84,-8063.61 5073.58,-12850.64 66.57,-23.56 113.98,-17.86 154.15,-4.13l22.27 8.54c-546.65,4814.75 -2405.31,9240.1 -5216.06,12920.34zm-4796.86 4848.42l253.89 -204.42 3.12 0.77c-85.49,68.4 -170.74,136.29 -257.01,203.65zm-2790.81 1406.54c873.88,-574.12 1711.49,-1199.55 2508.4,-1871.59l24.61 22.53 39.91 33.17c-818.7,655.99 -1677.8,1262.5 -2572.92,1815.89zm-40264.42 -18708.18c590.94,4748.69 2444.16,9104.08 5211.91,12716.19l-77.72 165.81c-2760.5,-3465.99 -4662.4,-7626.29 -5389.64,-12171.07 84.98,-115.81 136.01,-248.98 180.83,-411.69 26.15,-95.59 50.26,-201.3 74.62,-299.24zm723.07 -602.87c455.21,4207.46 1886.9,8118.79 4061.09,11499.02 -46.63,48.45 -70.99,109.84 -63.74,182.39 17.64,181.36 232.41,430.06 385.53,655.72 72.03,106.23 130.57,207.28 169.42,306.51 -2625.52,-3567.03 -4358.49,-7837.45 -4866.3,-12478.35l13.23 11.92c41.44,44.82 60.09,140.15 96.11,187.83 35.74,47.92 88.85,49.23 142.24,49.74 39.37,-35.75 78.25,-71.77 73.56,-131.36 -4.66,-59.33 -53.36,-143.52 -51.54,-204.15 0.78,-32.38 16.07,-58.55 40.4,-79.27zm2095.19 -13657.67c-1438.92,3266.75 -2242.86,6881.69 -2251.93,10684.72l-238.6 490.69 -71.78 144.05c-1.53,-115.81 -2.31,-231.88 -2.31,-347.94 0,-3939.3 879.04,-7672.4 2450.38,-11012.71 21.76,0 45.32,6.22 68.9,16.32 15.29,6.21 30.59,13.99 45.34,24.87zm-3019.57 11306c-22.3,-7.53 -45.6,-9.6 -67.62,-8.03 -38.34,1.81 -72.81,14.76 -107.02,27.71 -34.19,12.69 -68.65,25.92 -98.96,50.01 -30.06,23.32 -55.95,57.76 -63.74,102.08 -7.75,44.03 2.85,98.7 18.93,153.62 16.07,55.2 36.77,110.64 43.53,147.17 6.2,37.04 -1.81,54.67 -18.39,68.4 -7.78,5.95 -17.38,11.39 -70.24,-3.12 -13.2,-339.14 -19.67,-679.57 -19.67,-1021.81 0,-3802.51 815.33,-7417.71 2282.24,-10686.27 33.94,-18.66 67.86,-39.65 103.36,-62.7 118.16,-77.47 249.23,-180.06 345.37,-228.52 49.98,-25.64 90.67,-36.53 125.14,-38.85 -1587.14,3389.03 -2475,7173.41 -2475,11165.83l2.07 334.48zm3367.51 -13242.88c-29,-1.82 -61.14,4.66 -87.57,26.16 -26.68,21.25 -47.67,57.78 -66.06,97.16 -18.64,39.12 -34.46,81.34 -49.23,105.45 -14.51,24.09 -27.7,29.78 -44.28,29.53 -15.04,-0.78 -32.65,-7.25 -167.63,-277.22 664.03,-1183.74 1417.43,-2312.03 2251.13,-3376.07 51.04,72.03 107.52,135.77 163.5,184.99 28.24,24.87 55.95,45.85 83.94,63.99 -765.6,994.61 -1462,2045.68 -2081.46,3146.26l-2.34 -0.25zm11345.13 -10719.19c-1941.82,950.57 -3749.4,2135.09 -5385.51,3517.28l-7.25 -44.31c-18.4,-156.73 41.97,-307.78 147.42,-472.56 3749.4,-3027.09 8345.48,-5076.93 13385.62,-5753.91 -2899.1,466.34 -5639.89,1411.99 -8140.28,2753.5zm29599.4 4093.48c-54.67,-20.22 -130.86,-50.27 -236.82,-94.32 -233.93,-96.88 -614.52,-261.4 -993.57,-405.72 -3004.28,-2561 -6591.5,-4452.81 -10533.68,-5446.38 37.56,-45.85 69.43,-97.15 97.42,-152.86 4424.83,994.36 8420.89,3136.17 11666.65,6099.28zm1049.5 1692.82c18.41,-19.95 31.62,-42.48 29.03,-73.57 -3.63,-45.09 -40.41,-108.55 -39.13,-154.68 1.31,-46.38 41.47,-75.39 91.73,-92.22 50.51,-17.11 111.66,-21.52 207.77,27.45 58.3,29.53 129.54,78.76 202.87,130.07 2543.39,2744.18 4505.41,6045.37 5686.81,9702.28 -203.12,-179.28 -407.29,-351.32 -595.37,-494.84 -59.07,-45.09 -116.6,-87.57 -172.8,-127.22 -1201.1,-3339.02 -3056.39,-6363.25 -5410.91,-8917.27zm2480.96 32980.12c-3.37,-189.37 84.98,-374.89 223.59,-579.3 153.38,-225.65 367.89,-474.88 385.24,-655.99 4.42,-43.26 -2.58,-82.38 -18.64,-117.37 1934.29,-3144.18 3226.84,-6728.57 3694.22,-10568.65 75.66,12.7 152.61,13.22 224.11,1.81 85.75,-13.98 163.75,-44.81 244.06,-89.64 -566.87,4453.59 -2248.06,8554.84 -4752.58,12009.14zm-37337.31 5337.31c16.82,-20.2 33.14,-41.19 49.23,-62.95 764.78,622.05 1565.07,1202.13 2396.98,1736.09 -848.49,-511.16 -1665.1,-1070.25 -2446.21,-1673.14zm-446.67 316.07c24.37,-8.55 48.98,-17.61 74.09,-28.24 2646,2062.28 5697.19,3626.09 9012.38,4550.75l1.81 4.66c-3339.54,-934.76 -6414.57,-2488.72 -9088.28,-4527.17zm1397.23 -1530.36c205.69,-40.42 332.91,-232.66 415.29,-457.8 82.92,-225.15 121.26,-482.92 241.48,-657.55 120.47,-174.61 322.81,-266.34 586.81,-334.48 263.98,-68.38 589.4,-113.47 722.57,-237.82 133.41,-124.63 74.08,-328.52 -95.86,-485.26 -169.95,-157.26 -450.29,-267.63 -796.41,-318.94 -345.87,-50.77 -757.29,-42.75 -1383.99,145.09 -626.72,187.58 -1468.73,555.21 -1901.39,734.49 -432.93,179.03 -456.76,169.97 -472.56,157.52 -15.57,-12.69 -22.8,-29.27 -16.86,-63.2 5.97,-33.94 25.64,-85.76 40.16,-136.8 14.76,-51.04 25.14,-101.83 17.89,-143.02 -7.26,-41.19 -31.37,-73.06 -59.61,-95.07 -27.96,-21.77 -59.83,-33.94 -91.69,-45.86 -31.63,-11.92 -63.74,-24.11 -99.24,-26.17 -35.5,-2.07 -74.87,5.95 -107.53,32.12 -32.64,26.18 -58.29,70.99 -81.09,119.18 -22.8,47.92 -42.22,99.74 -60.11,129.29 -17.86,29.53 -34.18,36.79 -54.39,36.26 -19.95,-1.04 -44.06,-10.11 -250.54,-430.34 -206.73,-420.47 -596.13,-1252.65 -942.53,-1807.34 -346.4,-554.94 -650.04,-832.67 -943.3,-1022.85 -235.78,-152.86 -464.53,-248.72 -665.32,-277.72 -2167.74,-3324 -3601.22,-7179.65 -4067.56,-11331.41 107.78,69.71 231.34,162.45 345.59,237.59 155.97,102.34 294.86,172.02 453.67,197.67 158.56,25.39 337.58,7 495.61,-60.11 158.03,-66.58 295.36,-182.12 383.71,-310.63 88.35,-128.76 127.73,-270.49 217.11,-421.79 89.88,-151.29 229.8,-311.41 265.8,-590.95 36.29,-280.34 -31.61,-680.1 -189.39,-943.05 -157.76,-262.97 -405.98,-389.15 -530.08,-452.11 -124.1,-63.73 -124.1,-63.73 30.83,-119.69 154.69,-55.95 464.53,-167.89 601.86,-347.16 138.07,-178.78 104.14,-424.64 10.35,-665.84 -93.27,-240.68 -245.35,-476.46 -272.53,-703.4 -26.96,-226.7 71.74,-444.59 236.53,-687.87 165.04,-243.02 396.12,-511.41 415.05,-706.51 19.42,-195.87 -173.58,-318.14 -422.56,-324.36 -249.25,-6.48 -554.69,103.89 -871.28,309.07 -316.09,204.69 -642.79,503.93 -1015.86,1101.36 -98.71,158.04 -200.54,336.81 -301.31,522.83 120.72,-3227.36 823.34,-6304.45 2005.28,-9127.13 31.87,95.08 71.49,175.9 130.57,247.93 77.47,94.04 188.62,172.56 311.94,213.75 123.31,40.67 258.82,44.29 373.32,15.28 114.53,-29.28 208.04,-90.15 334.49,-131.36 126.41,-41.19 286.28,-61.92 446.63,-203.11 160.37,-141.2 321.78,-402.09 363.51,-630.34 41.97,-228.52 -36.03,-424.37 -75.13,-522.32 -38.62,-97.92 -38.62,-97.92 77.19,-52.32 116.06,45.6 348.22,137.05 515.84,103.89 167.89,-32.9 271.5,-189.65 338.62,-373.07 67.62,-183.7 98.95,-393.81 196.9,-536.3 98.18,-142.24 263.21,-217.11 478.5,-272.56 215.3,-55.95 480.61,-92.75 589.16,-194.05 108.81,-101.56 60.36,-267.88 -78.25,-395.61 -138.61,-128.25 -367.1,-218.16 -649.23,-260.13 -282.16,-41.45 -617.39,-34.7 -1128.58,118.4 -313.72,93.79 -693.8,243.29 -1022.06,378.27 560.13,-1018.44 1186.06,-1994.92 1871.61,-2923.71 66.3,-1.56 133.92,-12.7 198.19,-33.94 123.31,-41.19 234.21,-119.69 311.93,-213.75 77.19,-94.05 121,-203.11 158.56,-339.13 37.31,-136.28 68.4,-299.76 108.28,-399.77l12.97 -29.78 90.67 -110.12c11.13,-7.26 22.8,-12.7 34.19,-17.61 48.97,-20.73 98.19,-25.14 129.82,8.54 31.59,33.68 45.6,105.71 72.8,141.99 27.18,36.27 67.34,37.04 107.5,37.81 29.8,-27.2 59.61,-54.39 55.98,-99.48 -3.63,-45.07 -40.44,-108.56 -39.13,-154.67 1.28,-46.37 41.44,-75.39 91.7,-92.23 50.54,-17.1 111.69,-21.51 207.79,27.46 96.11,48.7 227.21,150.79 345.37,228.25 117.87,77.72 222.8,130.58 343.02,150 120.19,19.44 255.7,5.19 375.14,-45.33 119.68,-50.78 223.58,-138.1 290.42,-235.24 66.86,-97.42 96.64,-204.94 164.53,-319.45 67.86,-114.26 173.83,-235.51 201.03,-447.44 27.22,-211.92 -23.83,-514.27 -143.51,-713.5 -119.44,-199.23 -307.28,-294.83 -401.08,-342.51 -93.78,-47.92 -93.78,-47.92 23.34,-90.15 117.09,-42.5 351.56,-127.22 455.7,-262.71 63.74,-82.65 78.78,-183.95 65.05,-291.72 1605.24,-1486.62 3397.81,-2770.61 5338.07,-3812.12 2471.64,-1208.35 5165.56,-2030.92 8002.98,-2388.71 -17.11,38.85 -33.15,79.27 -47.16,121.24 -136.26,408.06 -106.99,975.45 27.21,1347.74 134.48,372.04 374.89,548.47 543.3,728.27 168.39,179.29 265.56,361.69 425.4,510.91 159.85,149.24 382.93,265.05 619.46,308.83 236.55,43.53 487.08,14.77 696.68,-68.4 209.32,-83.43 377.74,-221.51 560.13,-409.1 182.14,-187.3 378.25,-424.89 532.67,-551.84 153.38,-126.69 266.34,-143.27 364.26,-132.64 97.42,10.1 181.61,46.63 202.6,129.79 20.98,82.91 -20.21,212.45 -8.54,295.36 11.66,83.16 76.15,120.47 140.92,157.26 72.56,-17.36 145.09,-34.98 179.55,-111.41 34.47,-76.43 31.09,-212.17 74.37,-286.01 43.5,-73.59 134.45,-85.51 231.34,-67.36 96.89,17.35 200.29,64.51 312.47,229.27 112.43,165.04 233.93,448.22 356.22,679.06 122.28,231.35 245.35,410.9 423.08,549.76 177.74,138.36 410.14,236.55 649.27,261.16 239.37,24.35 486.02,-24.35 681.38,-122.55 195.59,-98.45 339.65,-246.39 551.56,-371.52 212.2,-124.88 492.27,-227.21 725.42,-546.4 233.72,-319.71 420.77,-856.26 404.45,-1286.08 -16.08,-429.55 -235.5,-752.37 -345.11,-913.5 -109.32,-161.94 -109.32,-161.94 118.39,-125.92l56.48 8.54c3928.46,817.15 7528.62,2534.58 10577.23,4927.72 -229.28,-29.28 -414.52,-21.51 -581.37,3.1 -282.16,41.46 -510.91,131.62 -649.26,259.86 -138.61,127.72 -187.06,294.05 -78.26,395.62 108.56,101.3 373.86,138.08 589.16,193.78 215.3,55.71 380.33,130.32 478.53,272.82 97.93,142.23 129.26,352.61 196.88,536.04 67.11,183.68 170.76,340.42 338.64,373.33 167.6,32.9 399.76,-58.3 515.82,-103.89 115.81,-45.6 115.81,-45.6 76.96,52.34 -38.87,97.92 -116.87,293.8 -74.9,522.3 41.72,228.51 203.13,489.14 363.76,630.34 160.38,141.2 319.97,162.19 446.38,203.13 126.45,41.18 219.97,102.32 334.49,131.35 114.52,28.75 250.01,25.65 373.32,-15.29 123.33,-41.19 234.22,-119.69 311.93,-213.74 77.23,-94.04 121.01,-203.13 158.57,-339.14 24.37,-89.38 46.13,-190.43 69.68,-277.47 2272.67,2415.92 4085.7,5272.79 5299.23,8429.42 -217.37,-101.55 -412.18,-161.92 -596.66,-202.07 -383.44,-83.44 -721.27,-78.5 -961.71,19.17 -240.41,97.41 -383.43,287.83 -292.76,471.26 90.41,183.17 414.01,359.34 664.03,535.51 250.01,176.19 425.92,352.36 483.19,583.2 56.98,230.84 -4.66,516.61 -7,785.54 -2.59,268.92 54.66,521.01 254.66,644.85 199.76,123.83 542.53,118.91 714.04,116.57 171.26,-2.32 171.26,-2.32 73.84,104.94 -97.68,107 -293.01,321.26 -350.03,635.51 -57.25,314.28 23.83,728.29 161.94,987.88 137.83,259.34 333.17,364 475.92,478.26 142.76,114.26 233.18,238.09 366.59,331.1 130.59,90.95 302.37,151.84 476.98,161.16 100.26,712.46 171.51,1434.78 212.69,2164.86 -149.21,-66.84 -289.63,-101.04 -412.18,-97.93 -188.35,4.67 -334.72,97.42 -319.96,245.35 14.24,147.94 189.38,350.79 314.25,534.75 124.88,183.93 199.25,348.98 178.77,520.75 -20.46,171.76 -135.77,350.27 -206.23,532.4 -70.71,182.39 -96.64,368.68 7.79,504.17 104.14,135.51 338.61,219.96 455.97,262.46l2.86 1.03 -3.9 101.81c-98.97,51.31 -267.1,146.91 -376.96,330.07 -119.69,199.24 -170.73,501.58 -143.52,713.52 27.2,211.92 133.42,333.17 201.03,447.43 67.63,114.5 97.42,221.76 164.52,319.43l12.18 17.11c-439.91,3874.54 -1733.78,7488.19 -3687.75,10647.16 -222.03,8.56 -486.02,109.33 -759.36,286.81 -293.54,189.9 -596.66,467.63 -943.06,1022.32 -346.9,554.96 -736.3,1387.12 -942.53,1807.86 -206.76,419.71 -230.59,429.05 -250.79,429.82 -20.21,0.77 -36.53,-6.99 -54.67,-36.27 -17.61,-29.01 -37.03,-80.83 -59.83,-129.03 -22.8,-48.19 -48.46,-92.75 -81.34,-119.16 -32.4,-26.43 -71.77,-34.21 -107.27,-31.61 -35.49,1.55 -67.61,13.73 -99.23,25.64 -31.87,11.92 -63.74,24.09 -91.99,46.38 -27.96,21.76 -51.8,53.63 -59.06,94.83 -7.24,40.93 2.6,91.7 17.37,142.49 15.02,51.29 34.19,102.85 40.42,136.79 5.94,34.19 -1.57,50.78 -17.11,63.48 -15.79,12.18 -39.63,21.49 -472.31,-157.78 -432.91,-178.77 -1274.67,-546.4 -1901.38,-734.24 -626.97,-187.58 -1037.89,-195.86 -1384,-144.57 -346.13,50.79 -626.47,161.16 -796.17,318.16 -170.2,156.99 -229.53,361.16 -96.36,485 133.17,124.86 458.55,169.69 722.83,237.82 264.26,68.67 466.34,160.37 586.8,334.99 120.23,174.63 158.57,432.15 241.48,657.29 82.64,225.66 209.6,417.65 415.56,458.05 205.71,40.42 489.65,-71.75 632.68,-127.72 141.7,-55.45 141.7,-55.45 94.04,64.77 -47.92,119.96 -143.27,359.87 -91.98,640.18 23.33,126.44 76.43,260.9 145.86,386.55 -2166.68,1830.4 -4638.83,3308.19 -7328.61,4344.77 -351.56,-39.11 -773.08,-15.8 -1388.13,168.4 -672.85,201.57 -1577.03,596.41 -2041.81,788.91 -464.8,192.5 -490.7,182.64 -507.56,169.17 -16.57,-13.73 -24.33,-31.34 -18.14,-67.87 6.48,-36.53 27.48,-91.98 43.29,-146.65 15.79,-55.17 26.93,-109.33 19.17,-153.62 -7.79,-44.32 -33.68,-78.77 -63.99,-102.34 -29.8,-23.58 -64.27,-36.54 -98.45,-49.22 -34.21,-12.97 -68.4,-25.65 -106.49,-28.24 -38.34,-2.09 -80.57,6.47 -115.56,34.44 -34.96,28.51 -62.68,76.43 -87.03,128.25 -24.37,51.3 -45.36,107 -64.53,138.62 -19.42,31.86 -37.03,39.89 -58.54,38.86 -21.52,-0.78 -47.17,-10.38 -269.18,-461.95 -221.77,-451.32 -639.95,-1345.14 -1011.97,-1941.03 -372.04,-595.89 -697.97,-893.82 -1013.26,-1098.5 -315.32,-204.16 -619.73,-314 -867.94,-307.78 -248.45,5.95 -440.94,128.24 -421.77,323.32 19.17,194.84 249.5,461.95 414.02,704.44 164.25,241.99 262.45,459.36 235.74,685.54 -26.92,226.42 -178.76,461.42 -272.03,701.58 -93.01,240.17 -126.94,485.26 10.37,664.03 137.06,178.24 445.87,289.91 600.3,345.61 154.14,55.71 154.14,55.71 30.81,119.17 -123.82,62.7 -371.26,188.61 -528.51,451.07 -94.3,156.74 -155.97,362.19 -182.93,561.94 -337.58,18.92 -676.97,31.34 -1017.9,37.04 -371.26,-6.2 -740.46,-20.21 -1107.84,-41.97 9.85,-35.22 17.63,-73.06 22.8,-113.72 31.08,-241.73 -27.21,-587.09 -163.73,-814.3 -136.54,-227.47 -350.81,-336.8 -457.79,-391.21 -107.28,-54.67 -107.28,-54.67 26.42,-102.85 133.67,-48.46 401.32,-145.08 520.23,-299.76 119.18,-154.94 89.63,-367.38 9.06,-575.42 -80.84,-208.29 -212.45,-411.93 -235.75,-608.05 -23.08,-196.13 61.65,-384.49 204.41,-594.59 142.5,-209.86 342.5,-441.48 358.82,-610.4 16.58,-168.92 -150,-274.62 -365.57,-280.06 -215.3,-5.19 -479.03,89.63 -752.35,266.84 -273.33,177.22 -555.75,435.52 -878.03,952.13 -322.82,516.6 -685.01,1290.99 -877.26,1682.2 -192.22,391.22 -214.76,399.76 -233.41,400.8 -18.66,0.52 -33.96,-6.48 -50.78,-33.67 -16.58,-27.48 -34.71,-75.93 -55.95,-120.49 -21,-44.82 -44.84,-86.52 -75.39,-110.87 -30.6,-24.62 -66.85,-31.87 -100.03,-29.81 -33.14,1.82 -62.95,12.96 -92.47,24.11 -29.56,11.39 -59.33,22.53 -85.26,43 -26.4,20.46 -48.69,50.01 -55.7,88.35 -6.48,38.08 3.13,85.49 16.86,133.17 13.73,47.67 31.87,95.59 37.31,127.2 5.69,31.61 -1.04,46.89 -15.55,58.82 -14.51,11.92 -37.06,20.21 -439.94,-146.64 -402.85,-166.85 -1186.56,-509.09 -1769.77,-683.98 -583.43,-174.61 -966.36,-182.14 -1288.4,-134.46 -303.89,44.82 -553.66,138.87 -713.5,272.29 -2628.11,-993.83 -5053.1,-2407.63 -7193.88,-4161.08 19.96,-55.7 35.25,-111.93 45.07,-166.07 51.57,-280.34 -44.04,-520.49 -91.95,-640.44 -47.41,-120.21 -47.41,-120.21 94.54,-64.26 142.5,55.96 426.97,167.88 632.69,127.48zm-6252.92 -600.55c33.44,259.85 163.48,408.56 246.67,548.72 82.9,140.42 119.43,272.03 201.56,391.72 81.85,119.18 209.58,226.18 356.22,288.37 146.65,61.91 312.72,79.53 460.15,55.96 147.39,-24.11 275.9,-89.14 420.74,-183.96 144.83,-95.08 305.71,-220.74 423.58,-280.32 117.62,-60.11 193.03,-54.41 254.67,-33.68 61.92,20.73 110.91,56.48 112.72,113.21 1.56,56.74 -43.78,134.21 -48.2,189.65 -4.41,55.45 31.87,88.61 68.65,122.04 49.51,-0.78 98.71,-1.82 131.89,-46.38 33.4,-44.31 50.76,-132.65 89.38,-174.11 9.57,-10.1 20.2,-17.61 32.12,-22.54 108.05,97.94 216.08,195.36 325.66,291.72 35.75,118.93 67.12,271.78 103.37,403.66 45.88,167.11 99.49,300.78 194.31,416.08 95.1,115.29 231.37,211.67 382.42,262.18 151.28,50.01 317.63,54.16 458.06,18.67 46.63,-11.92 90.41,-27.99 133.66,-46.13 2849.88,2221.36 6159.9,3896.58 9766.04,4863.46 76.69,186.29 190.68,338.88 366.07,373.34 191.21,37.57 456.24,-66.58 588.9,-118.66l27.46 -10.62 80.32 18.38 -19.95 52.08c-44.32,111.67 -133.43,335.26 -85.51,596.15 47.66,260.9 231.87,558.57 415.3,719.73 182.93,161.14 365.32,184.97 509.62,231.88 144.3,46.88 251.04,116.84 381.61,149.99 130.86,32.65 285.51,29.28 426.2,-17.61 140.94,-46.89 267.38,-136.54 356.24,-244.06 88.09,-107.25 138.09,-231.87 181.09,-387.06 42.48,-155.44 77.98,-342.24 123.58,-456.24 45.09,-114.25 101.05,-156.49 157.26,-179.8 23.32,-9.85 46.64,-16.58 68.66,-18.14l48.18 6.48c11.65,4.41 22.03,11.4 31.36,21.24 35.99,38.61 52.07,120.74 83.16,162.18 31.08,41.47 76.93,42.23 122.81,43.01 33.94,-30.82 67.87,-61.92 63.72,-113.47 -1.8,-23.32 -11.15,-50.52 -20.97,-78.5 228.75,27.21 458.55,51.55 688.89,73.06l23.58 15.54c134.7,88.6 254.41,148.97 391.72,171.26 137.05,22.27 291.73,5.95 428.25,-51.82 40.69,-17.36 79.81,-38.34 116.59,-62.17 547.97,32.37 1100.31,48.95 1656.31,48.95 451.04,0 899.53,-11.14 1345.13,-32.38 84.22,145.61 123.6,282.91 209.1,407.79 88.07,127.98 224.87,242.76 382.4,309.87 157.5,66.58 336.01,84.98 494.05,59.58 158.56,-25.64 296.66,-95.33 452.1,-197.41 155.44,-102.08 328.51,-236.81 454.96,-300.79 126.41,-64.53 207,-58.56 273.58,-36.03 66.31,22.04 118.92,60.64 120.98,121.25 1.57,60.89 -47.42,144.31 -51.82,203.91 -4.66,59.33 34.46,95.33 73.59,130.82 53.1,-0.77 106.22,-1.81 141.7,-49.47 35.78,-47.94 54.42,-142.75 95.86,-187.31 41.72,-44.57 106.49,-38.35 171.01,-11.14 64.52,27.19 129.29,75.91 181.36,207.52 53.11,131.86 93.79,347.17 143.02,526.44 49.21,179.29 107,323.07 208.54,446.92 102.33,123.32 248.45,227.21 410.64,281.35 162.72,53.63 341.21,58.3 492.27,19.95 150.77,-38.34 273.59,-118.66 440.17,-172.79 166.59,-54.16 376.97,-81.88 588.36,-267.64 211.17,-185.75 423.86,-529.3 478.78,-830.36 55.2,-300.52 -47.66,-558.82 -98.7,-687.58 -51.04,-129.03 -51.04,-129.03 101.55,-69.18 152.87,60.11 458.33,180.58 679.32,137.05 220.98,-43.53 357.28,-250.01 446.13,-491.73 88.88,-241.72 130.07,-518.69 259.08,-705.99 62.17,-90.17 144.84,-159.6 245.1,-215.83 168.92,-55.95 337.33,-113.47 504.68,-172.55 255.98,-59.07 533.19,-111.14 656.52,-226.42 8.29,-7.51 15.8,-15.55 22.52,-23.59 2768.03,-1060.4 5317.36,-2551.42 7563.33,-4389.07 127.23,21.77 270.5,13.48 402.1,-30.31 151.31,-50.27 287.57,-147.17 382.68,-262.2 95.08,-115.28 148.43,-248.97 194.29,-416.08 15.02,-54.67 29.54,-112.96 43.52,-170.98 155.18,-140.17 308.57,-282.15 460.39,-425.67 15.01,36.01 28.24,73.59 46.63,97.92 33.15,44.56 82.38,45.87 132.14,46.37 36.53,-33.15 72.54,-66.57 68.13,-122.01 -4.14,-55.18 -49.49,-133.17 -47.68,-189.38 0.27,-10.1 2.08,-19.43 4.94,-28.24l73.84 -71.77 33.67 -13.21c61.92,-20.73 137.06,-26.42 254.69,33.16 118.13,60.11 278.5,185.76 423.33,280.85 144.82,94.81 273.59,159.58 420.99,183.41 147.18,23.58 313.5,6.47 460.15,-55.7 146.63,-61.92 274.09,-169.18 356.22,-288.34 81.87,-119.7 118.66,-251.32 201.57,-391.74 83.42,-140.41 213.22,-288.87 246.64,-548.47 33.68,-260.12 -29.29,-631.38 -175.66,-875.44 -98.7,-163.99 -234.98,-270.73 -348.99,-340.94 112.71,-134.2 223.6,-269.96 333.71,-406.5 42.75,-32.12 80.84,-67.1 110.37,-105.71 25.64,-33.15 44.81,-68.9 58.55,-106.21 2985.38,-3780.77 4969.94,-8364.94 5561.16,-13367.25 33.95,24.09 66.32,63.47 94.04,133.68 39.89,99.74 70.99,263.23 108.57,399.25 37.29,136.27 81.08,245.35 158.29,339.39 77.46,94.05 188.61,172.55 311.93,213.74 123.32,40.68 258.83,44.31 373.32,15.29 114.53,-29.27 208.04,-90.17 334.48,-131.35 126.45,-41.2 286.3,-61.93 446.67,-203.13 160.36,-141.2 321.77,-402.08 363.48,-630.34 41.97,-228.5 -36,-424.38 -75.12,-522.3 -38.63,-97.94 -38.63,-97.94 77.18,-52.34 116.08,45.59 348.22,137.06 515.85,103.89 167.88,-32.91 271.51,-189.65 338.61,-373.08 67.62,-183.68 98.97,-393.79 196.91,-536.29 98.18,-142.24 263.2,-217.11 478.5,-272.55 215.31,-55.97 480.6,-92.75 589.16,-194.05 108.81,-101.56 60.35,-267.9 -78.24,-395.62 -138.61,-128.24 -367.12,-218.15 -649.25,-260.12 -282.15,-41.44 -617.4,-34.71 -1128.55,118.41 -510.92,152.85 -1197.48,452.61 -1550.35,598.72 -352.87,146.13 -372.3,138.61 -385.24,128.51 -12.7,-10.36 -18.66,-23.83 -13.73,-51.55 4.91,-27.73 20.98,-69.95 32.63,-111.41 12.18,-41.71 20.47,-83.17 14.78,-116.58 -5.97,-33.68 -25.66,-59.6 -48.73,-77.73 -22.8,-17.62 -48.69,-27.72 -74.87,-37.3 -25.64,-9.85 -51.81,-19.69 -80.81,-21.26 -29.02,-1.81 -61.16,4.67 -87.57,26.18 -26.71,21.24 -47.68,57.77 -66.08,97.15 -18.64,39.12 -34.46,81.36 -49.23,105.45l-0.25 0.52c25.4,-476.19 38.34,-955.75 38.34,-1438.16 0,-1514.58 -126.94,-2999.88 -371.26,-4446.32 2.06,-19.18 5.44,-37.06 11.67,-52.08 24.34,-58.82 89.89,-76.94 162.95,-74.09 73.06,2.59 154.15,26.42 253.91,136.01 99.98,109.34 219.17,304.68 333.42,461.69 114.26,156.99 223.59,276.17 368.66,359.59 145.37,83.16 326.45,130.58 504.96,123.59 178.52,-7.25 354.69,-68.92 487.86,-161.68 133.42,-93.01 223.84,-216.84 366.6,-331.1 142.74,-114.26 338.09,-218.92 475.91,-478.26 138.11,-259.59 219.19,-673.6 161.94,-987.88 -57,-314.25 -252.35,-528.51 -350.02,-635.51 -97.43,-107.26 -97.43,-107.26 73.83,-104.94 171.52,2.34 514.29,7.26 714.04,-116.57 200,-123.84 257.27,-375.93 254.67,-644.85 -2.35,-268.93 -63.99,-554.7 -7.01,-785.54 57.27,-230.84 233.19,-407.01 483.2,-583.2 250.01,-176.17 573.61,-352.34 664.02,-535.51 90.67,-183.43 -52.34,-373.85 -292.76,-471.26 -240.44,-97.67 -578.27,-102.61 -961.7,-19.17 -383.18,83.41 -811.45,254.67 -1394.64,699.77 -583.19,445.1 -1321.04,1164.05 -1704.22,1523.39 -383.18,359.35 -411.95,359.35 -433.45,352.35 -21.25,-7.26 -35.48,-21.51 -42.74,-59.58 -7,-38.09 -7,-100.02 -11.91,-159.35 -4.68,-59.58 -14,-116.84 -37.84,-157.25 -23.84,-40.43 -61.93,-64.26 -100.01,-76.18 -38.07,-11.92 -76.41,-11.92 -114.51,-11.92 -38.09,0 -76.43,0 -114.51,11.92 -38.08,11.92 -76.17,35.75 -100,76.18 -23.83,40.41 -33.17,97.67 -37.83,157.25 -4.93,59.33 -4.93,121.26 -11.92,159.35 -7.25,38.07 -21.49,52.32 -42.75,59.58 -10.1,3.37 -21.5,4.92 -69.43,-30.06 -1102.64,-4170.42 -3195.5,-7947.28 -6016.62,-11074.11l8.04 -11.41c66.83,-97.41 96.63,-204.93 164.5,-319.43 67.88,-114.26 173.86,-235.51 201.05,-447.43 27.2,-211.94 -23.85,-514.28 -143.53,-713.52 -119.44,-199.22 -307.28,-294.84 -401.06,-342.5 -93.77,-47.94 -93.77,-47.94 23.32,-90.16 117.09,-42.5 351.57,-127.2 455.72,-262.71 104.41,-135.49 78.51,-321.78 7.78,-503.9 -70.72,-182.4 -186.03,-360.91 -206.48,-532.67 -20.21,-171.78 54.14,-336.82 179.01,-520.76 124.88,-183.95 300.02,-386.8 314.53,-534.74 14.51,-147.93 -131.62,-240.68 -320.22,-245.35 -188.62,-4.66 -419.71,78.51 -659.11,233.69 -239.38,155.19 -486.8,381.62 -769.21,833.97 -282.66,452.62 -600.04,1130.9 -768.42,1473.65l-21.51 43.53c-3402.22,-3083.57 -7600.36,-5329.79 -12256.83,-6405.76 19.17,-281.35 24.37,-565.05 116.6,-792.26 119.96,-296.92 388.37,-497.95 754.97,-685.28 366.85,-187.04 831.9,-360.38 987.34,-587.32 155.97,-226.96 1.3,-508.06 -300.26,-683.72 -301.84,-176.43 -751.09,-247.17 -1278.32,-209.08 -526.71,38.09 -1130.09,184.72 -1992.31,666.62 -828.03,462.71 -1894.16,1234.51 -2490.28,1655 -251.33,-18.65 -503.65,-33.68 -756.79,-45.34 -3.1,-12.96 -6.99,-25.12 -11.66,-36.53 -24.08,-58.3 -70.47,-97.42 -118.91,-120.22 -48.2,-23.56 -99.48,-30.82 -150,-38.07 -50.78,-7.26 -101.82,-14.51 -155.21,-5.71 -52.83,8.56 -108.27,33.17 -147.65,82.4 -20.73,25.89 -37.06,58.8 -50.54,95.33 -175.64,-4.41 -351.84,-6.48 -528.26,-7.26l-126.7 -156.73c-442.25,-552.11 -1288.65,-1651.12 -1980.91,-2355.57 -692.52,-704.44 -1230.38,-1014.3 -1725.49,-1198.76 -495.1,-184.47 -946.39,-242.23 -1285.29,-158.04 -339.13,83.94 -566.07,310.9 -480.07,572.05 85.24,261.68 482.92,558.07 782.69,840.72 299.48,282.66 500.55,551.07 532.67,869.48 32.12,318.66 -104.68,687.6 -158.81,1045.64 -49.76,323.85 -31.36,638.12 152.08,845.63 -4734.43,706 -9070.93,2606.35 -12682.5,5378.77 -56.73,-34.46 -132.92,-54.4 -217.64,-56.48 -188.59,-4.66 -419.71,78.5 -659.08,233.7 -239.41,155.19 -486.83,381.62 -769.21,833.98 -132.13,211.67 -272.03,472.56 -400.53,725.42 -164.26,153.9 -326.7,309.34 -487.07,467.12 -128.77,126.7 -256.49,254.67 -382.69,383.96l-30.83 11.13c-25.9,9.86 -51.79,19.7 -74.59,37.57 -23.08,17.89 -42.75,43.78 -48.73,77.46 -1.81,10.89 -2.31,22.55 -1.53,34.72l-177.23 186.28 -172.8 -69.94c-352.87,-146.12 -1039.44,-445.89 -1550.35,-599 -511.16,-153.12 -846.39,-159.6 -1128.55,-117.88 -282.13,41.45 -510.91,131.61 -649.26,259.86 -138.58,127.73 -187.03,294.05 -78.22,395.62 108.56,101.3 373.85,138.09 589.15,193.79 215.3,55.7 380.33,130.32 478.5,272.81 97.93,142.24 129.3,352.61 196.91,536.04 67.11,183.68 170.73,340.43 338.61,373.33 167.64,32.91 399.76,-58.29 515.85,-103.89 115.81,-45.6 115.81,-45.6 76.93,52.33 -37.05,93.53 -110.11,276.7 -79.78,492.26 -844.35,1057.55 -1609.93,2178.59 -2288.46,3355.08 -165.83,-338.62 -372.3,-746.15 -562.73,-1051.08 -282.41,-452.36 -529.83,-678.79 -768.96,-833.99 -239.65,-155.19 -470.75,-238.35 -659.36,-233.69 -188.33,4.66 -334.73,97.42 -319.94,245.35 14.23,147.93 189.36,350.8 314.24,534.74 124.89,183.95 199.23,348.99 178.77,520.75 -20.45,171.76 -135.76,350.27 -206.22,532.41 -70.74,182.39 -96.64,368.67 7.76,504.16 104.17,135.5 338.64,219.97 455.98,262.45 116.85,42.5 116.85,42.5 23.08,90.42 -93.79,47.94 -281.63,143.27 -401.07,342.51 -119.68,199.23 -170.72,501.58 -143.52,713.51 27.21,211.92 133.42,333.17 201.04,447.42 67.61,114.52 97.42,221.77 164.51,319.46 66.58,97.14 170.75,184.46 290.45,235.23 27.45,11.66 55.94,21.26 84.44,29.02 -1421.32,3257.67 -2208.91,6846.2 -2208.91,10615.55 0,282.66 4.91,564.54 13.73,845.13 -473.09,-195.87 -1360.42,-582.17 -2023.95,-781.14 -675.41,-202.07 -1118.17,-210.89 -1490.99,-155.7 -372.83,54.67 -674.91,173.58 -857.81,342.75 -183.17,169.19 -247.16,389.15 -103.64,522.57 143.52,134.46 494.08,182.65 778.53,256.24 284.72,73.84 502.36,172.54 632.15,360.63 129.54,188.36 171.01,465.58 260.14,708.08 89.1,243.26 225.9,450.02 447.67,493.53 221.77,43.53 527.51,-77.19 681.64,-137.56 152.62,-59.86 152.62,-59.86 101.32,69.68 -51.57,129.3 -154.43,387.85 -98.98,689.68 55.45,301.58 268.68,646.14 480.6,832.94 211.91,186.28 423.08,214.01 590.19,268.42 166.85,54.14 290.41,134.46 441.47,173.31 151.03,38.09 330.33,33.95 493.27,-20.21l28.24 -9.83c787.37,4652.03 2787.21,8901.47 5668.42,12422.38 9.6,73.58 34.97,141.71 81.35,201.81 58.29,75.65 149.49,138.61 245.35,189.4 83.16,97.92 166.6,195.35 251.07,291.98 -121.78,68.4 -286.82,181.36 -400.82,371.52 -146.9,244.32 -209.32,615.05 -175.92,875.18z"/>
 </g>
</svg>
