<?xml version="1.0" encoding="UTF-8"?>
<!DOCTYPE svg PUBLIC "-//W3C//DTD SVG 1.1//EN" "http://www.w3.org/Graphics/SVG/1.1/DTD/svg11.dtd">
<!-- Creator: CorelDRAW 2020 (64-Bit) -->
<svg xmlns="http://www.w3.org/2000/svg" xml:space="preserve" width="215.9mm" height="279.4mm" version="1.1" style="shape-rendering:geometricPrecision; text-rendering:geometricPrecision; image-rendering:optimizeQuality; fill-rule:evenodd; clip-rule:evenodd"
viewBox="0 0 21590 27940"
 xmlns:xlink="http://www.w3.org/1999/xlink"
 xmlns:xodm="http://www.corel.com/coreldraw/odm/2003">
 <defs>
  <style type="text/css">
   <![CDATA[
    .fil0 {fill:#A2662E}
   ]]>
  </style>
 </defs>
 <g id="Capa_x0020_1">
  <metadata id="CorelCorpID_0Corel-Layer"/>
  <path class="fil0" d="M-143537.52 461443.64c369.03,-5.14 753.43,5.59 1167.38,48.59 418.74,43.48 865.94,121.95 1330.42,244.04 414.76,108.93 849.56,256.71 1297.85,450.35 492.24,212.59 983.66,473.78 1441.91,790.03 411.83,284.47 802.06,612.24 1149.44,987.7 376.08,406.42 714.6,883.24 999.74,1423.47 273.2,517.74 491.74,1085.71 640.77,1697.04 162.07,664.56 244.87,1382.69 217.58,2110.98 -24.2,645.3 -137.82,1302.46 -363.39,1940.89 -235.37,666.49 -591.42,1310.34 -1021.24,1884.57 -447.18,597.5 -971,1119.42 -1520.06,1514.44 -523.06,376.43 -1085.41,642.27 -1667.01,834.33 -614.02,202.8 -1234.49,322.18 -1848.66,400.79 -1275.69,163.5 -2625.22,163.5 -3974.22,163.5l-24043.82 0 -9268.4 0c-1676.66,0 -3060.65,0 -4307.16,-89.85 -601.06,-43.35 -1179.27,-107.5 -1734.76,-237.31 -528.16,-123.7 -1043.18,-308.35 -1549.23,-595.39 -528.84,-300.03 -1063.77,-715.45 -1555.38,-1200 -491.27,-484.22 -934.41,-1033.74 -1280.65,-1602.35 -324.43,-532.5 -564.14,-1087.34 -731.81,-1650.03 -184.03,-617.2 -280.79,-1237.33 -307.25,-1843.17 -25.03,-570.55 12.04,-1129.7 138.49,-1672.97 122.26,-524.97 330.83,-1038.23 651.57,-1535.95 329.54,-511.65 773.64,-1011.62 1269.58,-1461.16 543.45,-492.59 1147.99,-925.95 1735.86,-1252.45 560.44,-311.24 1106.42,-524.63 1644.9,-688.26 537.49,-163.65 1128.9,-291.37 1720.29,-418.79l1164.17 -256.38 -288.64 -1052.53c-125.97,-687.19 -252.07,-1374.7 -315.57,-2051.78 -61.96,-660.38 -69.98,-1347.57 29.64,-2087.04 103.84,-770.65 327.18,-1607.52 673.9,-2441.81 321.04,-771.59 741.41,-1529.38 1262.86,-2216.23 551.77,-726.81 1227.41,-1390.92 1996.07,-1957.45 749.78,-552.59 1582,-1006.63 2467.18,-1329.45 856.6,-312.37 1771.64,-506.69 2676.71,-604.4 1018.5,-110.05 2022.72,-97.37 2918.65,5.93 836.58,96.45 1569.49,271 2224.25,499.63 660.55,230.88 1250.01,517.62 1791.06,835.78 518.06,304.85 995.7,640.8 1419.45,984.16 460.3,373.05 850.35,748.64 1155.35,1097.11 273.76,312.87 485.21,616.13 664.88,913.89 206.2,341.76 351.71,632.5 496.78,922.73l689.87 1176.25 972.77 -760.52c359.89,-255.26 720.26,-511.19 1084.93,-747.35 358.76,-232.49 745.43,-462.24 1186.35,-685.26 465.92,-235.85 992.18,-463.07 1564.33,-649.16 481.35,-156.59 994.61,-283.51 1529.7,-360.68 578.54,-83.27 1187.6,-109.28 1827.64,-64.84 643.99,44.62 1322.03,161.75 2035.56,364.05 764.83,216.75 1561.14,527.87 2300.6,930.27 642.92,349.94 1245.08,769.5 1745.65,1255.81 489.05,474.92 887.42,1019.96 1202.22,1584.55 367.44,659.13 622.06,1342.93 775.9,1975.1 144.09,591.87 200.89,1141.7 213.73,1669.87 13,536.73 -21.5,1101.47 -56,1665.76l-172.49 1313.42 1366.39 -119.56c409.1,-23.88 818.59,-48.3 1163.37,-52.91zm6519.84 -324.29c-603.63,-416.65 -1224.86,-749.42 -1830.83,-1011.13 -539.25,-232.95 -1082.53,-416.01 -1616.5,-556.26 -579.37,-152.26 -1142.7,-250.78 -1675.03,-305.95 -494.01,-51.18 -965.07,-64.17 -1424.13,-57.63l-17.8 0.34c3.53,-195.76 3.53,-396.45 -1.6,-604.72 -16.52,-677.22 -89.69,-1384.01 -275.63,-2147.72 -198.66,-815.86 -525.78,-1695.88 -997.04,-2541.14 -416.99,-747.8 -946.78,-1471.9 -1600.13,-2106.3 -652.81,-634.23 -1424.58,-1174.16 -2241.05,-1618.41 -903.48,-491.77 -1860.57,-867.2 -2769.17,-1124.73 -866.21,-245.79 -1697.81,-388.27 -2495.37,-443.63 -800.96,-55.68 -1566.42,-22.77 -2296.46,82.46 -672.45,96.94 -1312.75,254.96 -1909.92,449.25 -687.04,223.49 -1320.31,497.06 -1882.69,781.69 -513.74,259.92 -971,531.89 -1398.75,809.14l-114.4 74.58c-225.9,-367.87 -500.89,-753.77 -867.36,-1172.69 -386.68,-441.84 -870.23,-909.05 -1429.71,-1362.48 -503.33,-407.71 -1075.64,-809.79 -1702.51,-1178.66 -661.49,-389.04 -1381.76,-739.46 -2188.91,-1021.55 -812.98,-283.97 -1708.26,-498.95 -2710.73,-614.49 -1045.13,-120.48 -2219.3,-135.08 -3413.8,-5.93 -1075.46,116.16 -2170.84,349.92 -3207.47,727.92 -1095.52,399.68 -2118.36,956.26 -3033.18,1630.46 -935.73,689.59 -1767,1509.63 -2455.95,2417.28 -652.71,859.66 -1169.17,1784.93 -1554.55,2711.34 -421.5,1014.03 -694.73,2045.67 -824.37,3007.85 -124.53,922.91 -114.89,1775.01 -38.36,2591.21 38.51,411.55 92.58,803.83 154.19,1186.98 -271.46,67.22 -550.5,142.15 -842.47,231.04 -681.91,207.28 -1374.38,477.96 -2087.42,874.11 -727.15,403.83 -1476.25,941.15 -2151.4,1553.09 -644.82,584.65 -1224.68,1238.46 -1658.82,1912.34 -469.34,727.94 -774,1477.22 -952.28,2243.15 -174.08,747.85 -225.24,1509.98 -191.4,2283.34 34.67,793.23 159.33,1598.49 395.83,2391.59 219.49,736.76 537.33,1469.52 970.51,2180.74 441.21,724.57 1003.6,1422.5 1625.62,2035.56 627.68,618.69 1323.22,1156.18 2023.89,1553.62 719.92,408.33 1432.13,666.31 2150.59,834.45 691.36,161.73 1381.28,239.42 2088.67,290.24 1371.17,98.84 2770.76,98.84 4466.34,98.84l33312.22 0c1386.56,0 2773.78,-0.15 4257.26,-190.1 765.32,-98.05 1531.1,-244.37 2273.15,-489.38 774.19,-255.76 1539.03,-621.24 2277.38,-1152.61 731.94,-526.6 1423.31,-1213.13 2006.19,-1991.96 568.64,-759.85 1038.74,-1609.1 1348.54,-2485.94 302.14,-854.98 454.56,-1740 487.27,-2613.13 35.32,-941.36 -71.05,-1866.81 -279.47,-2721.32 -196.41,-805.27 -481.18,-1547.67 -835.29,-2218.81 -372.05,-705.14 -827.91,-1342.26 -1344.68,-1900.94 -473.95,-512.28 -989.01,-947.57 -1521.02,-1315z"/>
 </g>
</svg>
