<?xml version="1.0" encoding="UTF-8"?>
<!DOCTYPE svg PUBLIC "-//W3C//DTD SVG 1.1//EN" "http://www.w3.org/Graphics/SVG/1.1/DTD/svg11.dtd">
<!-- Creator: CorelDRAW 2020 (64-Bit) -->
<svg xmlns="http://www.w3.org/2000/svg" xml:space="preserve" width="215.9mm" height="279.4mm" version="1.1" style="shape-rendering:geometricPrecision; text-rendering:geometricPrecision; image-rendering:optimizeQuality; fill-rule:evenodd; clip-rule:evenodd"
viewBox="0 0 21590 27940"
 xmlns:xlink="http://www.w3.org/1999/xlink"
 xmlns:xodm="http://www.corel.com/coreldraw/odm/2003">
 <defs>
  <style type="text/css">
   <![CDATA[
    .fil0 {fill:#A2662E}
   ]]>
  </style>
 </defs>
 <g id="Capa_x0020_1">
  <metadata id="CorelCorpID_0Corel-Layer"/>
  <path class="fil0" d="M-30357.03 185146.33c-16.61,-92.25 -26.09,-285.99 -63.85,-458.49 -37.82,-172.62 -103.95,-323.93 -174.85,-425.54 -71.06,-101.67 -146.68,-153.71 -75.68,-151.25 70.88,2.22 288.29,59.06 491.68,134.62 203.24,75.63 392.3,170.22 546.13,297.94 153.59,127.66 271.6,288.28 321.23,427.88 49.76,139.49 30.73,257.49 2.46,297.82 -28.38,40.04 -66.27,2.23 -153.66,-42.55 -87.5,-44.96 -224.47,-97.05 -335.63,-118.24 -111.14,-21.25 -196.14,-11.88 -274.16,11.77 -78.03,23.7 -148.91,61.51 -196.22,85.22 -47.22,23.47 -70.94,33.01 -87.45,-59.18zm-15725.82 -44491.99c-517.14,341.02 -1034.3,682.09 -1551.45,1023.11 -1998.92,1150.01 -3834.54,2544.64 -5463.42,4141.9 -4899.97,4805.04 -7930.9,11443.05 -7930.9,18774.74 0,650.66 24.3,1295.7 71.35,1934.66 -190.06,-1256.66 -288.87,-2543.29 -288.87,-3852.86 0,-7075.79 2875.48,-13480.6 7524,-18115.19 3931.93,-3920.12 9133.66,-6575.5 14938.09,-7302.19 -2620.02,769.07 -5074.75,1922.94 -7298.8,3395.83zm39173.03 23939.75c0,-6256.72 -2207.77,-12008 -5900.31,-16546.42 -1043.55,-1608.8 -2253.78,-3100.18 -3607.09,-4449.32 -1835.38,-1830 -3933.12,-3398.29 -6232.02,-4644.06 3685.29,1283.99 6987.41,3380.49 9689.67,6074.68 4648.63,4634.47 7524.09,11039.34 7524.09,18115.08 0,6922.71 -2752.83,13202.85 -7225.27,17811.5 3602.92,-4509.2 5750.93,-10189.55 5750.93,-16361.46zm-14808.8 21274.61c1936.54,-1150.54 3716.9,-2535.39 5301.4,-4115.33 4898.45,-4883.53 7928.28,-11628.9 7928.28,-19077.48 0,-599.56 -19.84,-1194.32 -58.47,-1784.1 181.56,1208.37 276.09,2444.42 276.09,3702.3 0,6954.16 -2874.4,13249.99 -7521.45,17806.84 -1512.92,1483.53 -3214.04,2782.69 -5065.11,3860.59 -58.94,-27.86 -119.81,-55.79 -181.68,-83.18 -89.56,-105.36 -335.93,-192.57 -679.06,-309.64zm-1223.87 -45523.54c-3368.33,-1477.33 -7100.15,-2298.97 -11026.82,-2298.97 -1066,0 -2117.44,60.76 -3151.33,178.65 1921.02,-456.86 3925.62,-699.19 5987.17,-699.19 177.41,0 354.12,2.23 530.66,5.74 2733.24,531.02 5311.42,1493.49 7660.32,2813.77zm-4448.87 49530.23c75.7,-694.91 18.86,-1526.85 -9.42,-1975.92 -28.44,-449.13 -28.44,-515.39 141.84,-628.83 170.14,-113.5 510.4,-274.17 779.9,-368.71 269.55,-94.53 467.92,-122.92 680.74,-89.73 212.71,33.07 439.6,127.55 841.36,203.23 401.79,75.57 978.57,132.41 1597.91,85.11l78.67 -6.5c84.65,-2.16 193.82,-8.31 339.98,-16.33 172.08,-9.48 395.63,-21.89 639.06,-36.23 -129.77,64.91 -259.88,128.71 -390.82,191.46 -121.41,36.53 -234.79,90.5 -338.04,159.16 -333.41,222.01 -552.21,596.1 -552.21,1020.06 0,531.84 344.41,985.13 827.02,1158.44 -20.94,55.55 -84.45,104.43 -233.43,203.12 -282.66,187.01 -872.5,553.32 -1205.14,731.73 -332.78,178.23 -408.33,168.87 -455.63,102.72 -23.41,-32.6 -39.8,-79.31 -55.56,-144.81 434.27,-195.03 735.83,-623.79 735.83,-1121.45 0,-681.45 -565.08,-1233.83 -1262.03,-1233.83 -696.98,0 -1262.18,552.38 -1262.18,1233.83 0,558.88 380.42,1030.96 901.9,1182.5 -26.53,154.94 -30.56,243.74 -97.35,322.7 -85.75,101.26 -274.75,186.54 -695.37,351.9 -420.81,165.42 -1073.23,411.32 -1361.61,505.79 -288.34,94.53 -212.71,37.87 -70.83,-269.37 141.83,-307.24 349.74,-865.13 425.41,-1560.04zm-4576.8 -7634.49c-359.28,-293.08 -803.78,-529.56 -1300.1,-548.41 -496.31,-18.96 -1044.59,179.64 -1313.96,269.49 -269.47,89.79 -260.11,70.77 -463.35,-33.25 -203.22,-104.01 -619.17,-293.02 -1195.83,-250.4 -576.86,42.49 -1314.2,316.66 -1758.54,709.07 -444.39,392.3 -595.75,902.77 -694.96,1214.87 -99.34,311.93 -146.52,425.37 -260.06,496.37 -113.38,70.88 -293.15,99.15 -515.35,250.52 -222.07,151.25 -486.88,425.54 -713.75,737.47 -226.93,311.92 -415.95,661.84 -510.48,836.8 -94.52,174.84 -94.52,174.84 -141.7,132.22 -47.35,-42.61 -141.88,-127.6 -326.26,-311.98 -184.4,-184.44 -458.56,-467.98 -666.59,-912.25 -208.03,-444.5 -349.74,-1049.57 -401.78,-1470.25 -52.03,-420.8 -14.22,-657.21 137.03,-846.22 151.25,-189.06 416,-330.95 685.55,-633.33 269.37,-302.62 543.59,-765.98 685.49,-1290.67 141.83,-524.7 151.13,-1110.8 141.83,-1427.52 -9.55,-316.91 -37.83,-364.02 -236.42,-331.01 -198.56,33.13 -567.43,146.51 -931.33,519.95 -363.97,373.45 -723.18,1007.08 -888.55,1621.56 -165.65,614.49 -137.25,1210.25 -160.91,1550.56 -23.59,340.26 -99.21,425.42 -316.61,170.22 -217.62,-255.33 -576.72,-851.08 -898.2,-1531.71 -321.53,-680.75 -605.12,-1446.49 -761.16,-1871.91 -156,-425.54 -184.32,-510.65 -70.89,-789.5 46.77,-114.91 117.47,-262.7 187.6,-444.04 62.11,-322.93 124.21,-645.8 86.39,-1056.83 -37.75,-410.96 -175.42,-909.96 -314.67,-1262.63 -139.2,-352.66 -279.91,-558.94 -420.68,-765.21 -273.23,284.83 -642.3,755.09 -819.76,1221.83 -203.18,534.12 -156.06,1063.56 -37.83,1588.32 118.25,524.69 307.32,1044.71 482.33,1470.19 174.78,425.42 335.57,756.25 425.3,945.32 89.85,189.18 108.76,236.53 -23.65,198.72 -132.28,-37.81 -415.99,-160.91 -784.64,-222.25 -368.77,-61.46 -822.58,-61.46 -1224.29,4.85 -401.84,66.03 -751.7,198.32 -978.62,321.24 -227.01,122.86 -330.9,236.36 -293.08,392.41 37.75,155.99 217.38,354.48 595.58,538.92 378.24,184.38 954.92,354.42 1441.8,363.96 486.94,9.42 883.98,-141.71 1158.26,-241.04 274.18,-99.27 425.43,-146.57 571.93,23.65 146.58,170.09 288.47,557.82 666.58,1176.99 378.08,619.35 992.69,1470.13 1304.72,1895.67 311.75,425.43 321.17,425.43 202.94,345.12 -118.29,-80.43 -364.19,-241.1 -661.96,-321.47 -297.75,-80.36 -647.73,-80.36 -1087.2,-28.39 -192.87,22.77 -403.13,55.61 -600.56,91.14 -1571.15,-1002.21 -3025.66,-2169.96 -4338.7,-3479.01 -1068.99,-1065.72 -2043.93,-2225.33 -2911.99,-3465.02 -0.65,-0.94 -1.22,-1.81 -1.87,-2.75 -98.81,-141.13 -196.2,-283.3 -292.19,-426.48 3.33,-4.15 6.61,-8.31 9.82,-12.47 -65.62,-107.58 -146.85,-243.26 -250.81,-419.62 -338.97,-575.16 -918.92,-1582.4 -1498.88,-2589.65 -1651.24,-3382.78 -2578.05,-7182.79 -2578.05,-11199.01 0,-7075.74 2875.52,-13480.61 7523.97,-18115.08 882.22,-879.64 1828.78,-1695.31 2831.23,-2440.15l16.61 10.42 2.29 1.58c425.37,-225.71 850.74,-451.35 1276.09,-677.06 1072.51,-510.3 2186.76,-949.48 3336.42,-1311.8 76.39,-24.12 152.95,-47.82 229.69,-71.24 -4.67,6.56 -9.31,13.12 -13.98,19.67 776.15,-185.49 1523.98,-364.72 1935.65,-470.55 192.39,-49.4 311.4,-82.83 388.37,-107 -6.33,-9.42 -12.76,-18.73 -19.27,-27.92 59.25,-12.29 118.53,-24.41 177.9,-36.29 1672.13,-335.05 3403.56,-510.83 5176.94,-510.83 5611.68,0 10801.92,1761.52 15027.07,4750.84 279.67,207.32 559.35,414.65 839.01,621.97l1.18 -2.22c31.32,24.12 62.51,48.29 93.71,72.52 776.27,603.6 1516.02,1250.4 2215.57,1936.3 664.82,652.01 1293.3,1339.72 1882.21,2059.74 2569.63,3988.2 4060.13,8734.7 4060.13,13828.94 0,3209.87 -592.07,6281.6 -1672.78,9112.76 -23.76,62.28 -47.82,124.5 -72.06,186.54 -2.57,-0.76 -5.21,-1.52 -7.85,-2.28 -321.64,741.45 -644.51,1478.68 -984.58,2161.48 -368.24,739.39 -756.49,1414.93 -1144.81,2090.47 -1038.44,1658.84 -2262.16,3190.44 -3641.96,4565.98 -1834.97,1829.41 -3946.59,3382.96 -6266.81,4594.08 -635.25,-32.31 -1274.56,127.72 -1641.81,245.43 -368.81,118.12 -463.34,193.75 -491.62,179.58 -28.5,-14.17 9.31,-118.24 307.18,-505.85 297.82,-387.49 855.72,-1058.87 1219.67,-1536.27 363.96,-477.52 534.12,-761 647.68,-945.38 113.38,-184.44 170.09,-269.55 491.56,-222.25 321.54,47.17 907.57,226.93 1474.94,241.1 567.3,14.1 1115.48,-137.03 1583.46,-363.97 467.97,-226.87 855.75,-529.49 959.82,-789.44 103.9,-260.01 -75.73,-477.52 -543.82,-609.86 -467.99,-132.41 -1224.25,-179.64 -1848.26,-94.48 -624.04,84.99 -1115.6,302.45 -1356.77,378.07 -241.09,75.69 -231.62,9.54 9.55,-411.26 241.05,-420.74 713.64,-1195.9 907.5,-1876.65 193.93,-680.74 108.76,-1266.84 -99.1,-1829.41 -142.87,-386.56 -343.94,-761.93 -549.21,-1080.24 -27.51,-41.79 -55.02,-83.58 -83.64,-125.79 -69.66,-102.61 -146.16,-207.62 -246.08,-320.94 -140.96,-159.85 -328.55,-336.27 -516.15,-512.64 -51.04,-31.02 -98.34,-52.33 -141.25,-63.86 -174.96,-47.35 -279.02,66.03 -401.83,567.14 -15.98,64.85 -32.19,136.38 -48.34,212.94 -32.56,303.32 -65.1,606.65 -92.38,872.39 -27.28,265.8 -49.29,494.08 -71.29,722.31 2.04,113.08 7.84,224.88 18.08,333.75 70.84,751.52 354.49,1366.24 562.46,1853.12 207.86,486.83 339.9,846.05 70.47,1422.78 -269.66,576.79 -940.99,1370.86 -1309.68,1758.53 -368.66,387.61 -434.92,368.76 -468.04,132.4 -32.95,-236.47 -32.95,-690.28 -141.72,-1196.13 -108.69,-505.79 -326.27,-1063.5 -699.71,-1512.63 -373.45,-449.07 -902.82,-789.44 -1238.51,-647.56 -335.64,141.71 -477.52,765.68 -439.71,1290.44 37.81,524.63 255.38,950.17 567.37,1299.91 311.87,349.8 718.55,624.03 978.51,902.94 260,278.97 373.44,562.57 397.09,832.12 23.71,269.37 -42.56,524.69 -378.12,992.67 -335.63,467.98 -940.81,1148.61 -1262.23,1488.98 -321.46,340.38 -359.34,340.38 -496.31,193.92 -137.08,-146.56 -373.55,-439.7 -501.21,-576.73 -127.56,-137.2 -146.51,-118.18 -136.97,-260 9.41,-141.83 47.17,-444.33 28.26,-742.1 -18.85,-297.76 -94.53,-591.01 -274.06,-879.29 -179.75,-288.45 -463.28,-572.05 -841.48,-732.72 -378.17,-160.74 -850.9,-198.61 -1087.25,-217.46 -236.48,-19.02 -236.48,-19.02 -373.45,-193.8 -137.09,-174.96 -411.37,-524.82 -770.48,-817.83zm-14367.2 3223.92c-178.01,47.23 -340.21,131.58 -477.76,243.85 -2370.09,-1153.82 -4535.83,-2660.07 -6427.88,-4450.85 -3999.03,-4439.9 -6426.07,-10273.78 -6426.07,-16663.73 0,-5823.33 2015.85,-11184.79 5399.98,-15450.14 -2490.9,4081.91 -3925.63,8874.53 -3925.63,14000.1 0,7448.69 3029.82,14194 7928.11,19077.47 1202.79,1199.24 2518.35,2285.98 3929.25,3243.3zm10209.44 -1866.35c-115.77,184.38 -130.01,250.52 -170.21,267.15 -40.09,16.5 -106.3,-16.63 -238.7,-33.13 -132.35,-16.57 -330.9,-16.57 -571.94,-7.09 -241.15,9.43 -524.82,28.33 -742.26,63.8 -217.52,35.36 -368.65,87.45 -432.39,82.71 -63.8,-4.68 -40.34,-66.08 87.45,-278.91 127.54,-212.71 359.11,-576.73 628.65,-815.55 269.43,-238.7 576.68,-352.02 926.53,-408.8 349.8,-56.72 742.14,-56.72 997.47,-21.25 255.2,35.41 373.33,106.36 361.63,172.62 -11.89,66.08 -153.78,127.48 -333.35,309.41 -179.53,182.04 -397.09,484.6 -512.88,669.04zm2036.68 82.24c-529.51,44.83 -1068.53,295.42 -1311.86,321.52 -243.5,25.99 -191.51,-172.67 21.14,-430.28 212.64,-257.66 586.32,-574.27 997.51,-772.82 411.27,-198.55 860.33,-278.97 1292.9,-184.38 432.51,94.47 848.5,363.85 1148.73,619.17 300.16,255.21 484.42,496.48 588.5,839.14 103.95,342.71 127.54,787.1 85.1,1196.14 -42.56,408.74 -151.37,782.36 -208.09,898.14 -56.66,115.78 -61.28,-26.05 -136.97,-233.96 -75.67,-208.09 -222.31,-482.38 -385.26,-822.58 -163.08,-340.37 -342.83,-747 -692.63,-1030.6 -349.74,-283.71 -869.76,-444.45 -1399.07,-399.49zm97.21 1529.48c-375.9,47.3 -607.63,191.47 -843.99,410.15 -236.47,218.51 -477.63,511.58 -617.05,816.66 -139.42,304.85 -177.31,621.45 -191.47,829.48 -14.16,208.09 -4.79,307.25 -49.58,281.2 -44.94,-25.93 -144.11,-177.18 -238.64,-439.47 -94.53,-262.47 -184.44,-635.91 -208.09,-983.31 -23.65,-347.51 18.79,-668.98 129.95,-950.12 111.09,-281.43 290.73,-522.47 520.02,-680.75 229.16,-158.45 508.25,-234.01 901.88,-260.06 393.64,-25.93 901.94,-2.28 1225.86,130.12 323.81,132.34 463,373.27 563.45,541.2 100.27,167.64 161.61,262.17 -67.55,284.71 -229.27,22.59 -749.06,-27.04 -1124.79,20.19zm44.62 983.37c-354.5,28.33 -633.53,165.3 -751.64,177.12 -118.23,11.89 -75.61,-101.61 14.29,-238.64 89.78,-137.09 226.81,-297.88 444.37,-406.57 217.4,-108.76 515.17,-165.48 791.61,-179.64 276.69,-14.23 531.9,14.16 789.52,111.03 257.65,96.94 517.67,262.41 666.63,432.63 148.79,170.21 186.67,345.05 151.25,574.39 -35.46,229.16 -144.35,512.81 -222.25,673.72 -77.96,160.56 -125.31,198.37 -179.59,127.55 -54.43,-71.06 -115.78,-250.65 -198.47,-458.56 -82.83,-208.08 -186.85,-444.5 -453.87,-602.84 -267.22,-158.39 -697.33,-238.58 -1051.85,-210.19zm293.07 1694.67c-217.4,54.32 -477.34,54.32 -708.96,-23.59 -231.68,-78.14 -435.07,-234.02 -489.34,-444.45 -54.44,-210.37 40.11,-475.12 219.85,-631.11 179.63,-155.93 444.33,-203.29 697.25,-184.44 252.8,18.97 493.9,104.08 666.52,222.31 172.51,118.12 276.52,269.38 295.3,406.58 19.03,136.97 -47.12,259.89 -167.7,375.67 -120.68,115.78 -295.46,224.65 -512.92,279.03zm458.37 1349.43c-368.63,-85.16 -775.21,-207.97 -1072.56,-372.62 -297.36,-164.83 -485.6,-371.28 -589.49,-546.12 -104.08,-174.9 -123.86,-318.37 41.16,-286 165.05,32.31 514.78,240.34 978.13,316.03 463.19,75.56 1039.85,18.84 1489.05,-203.35 449.01,-222.08 770.53,-609.8 1006.89,-1058.93 236.37,-449.07 387.56,-959.55 477.41,-1191.16 89.78,-231.74 118.24,-184.39 222.3,70.82 103.97,255.21 283.55,718.56 326.04,1200.76 42.61,482.09 -51.93,983.31 -382.75,1361.5 -331.02,378.07 -898.33,633.45 -1347.45,737.52 -449.02,103.9 -779.96,56.6 -1148.73,-28.45zm-131.41 1986.46c-519.25,48.18 -1066.06,-25.52 -1661.58,-190.88 -595.76,-165.53 -1240.21,-422.73 -1713.86,-910.66 -473.66,-488 -776.57,-1206.62 -837.97,-1863.78 -61.53,-657.04 118.52,-1252.62 307.65,-1687.46 189.3,-434.79 387.91,-709.08 463.58,-647.5 75.58,61.46 28.28,458.55 79.03,899.89 50.86,441.29 199.88,926.71 615.89,1442.1 415.88,515.15 1099.09,1060.16 1847.19,1337.38 747.95,277.27 1560.99,286.75 2142.46,239.63 581.42,-47.41 931.39,-151.48 936.06,4.57 4.64,156.05 -335.69,572.11 -751.74,865.19 -416.05,293.08 -907.5,463.12 -1426.71,511.52zm755.45 1256.37c-529.51,-151.25 -926.42,-387.67 -898.03,-467.98 28.32,-80.42 482.02,-4.74 1030.42,-113.38 548.35,-108.75 1191.17,-401.95 1673.49,-959.66 482.13,-557.82 803.6,-1380.51 902.87,-2264.43 99.16,-884.04 -23.69,-1829.41 -85.1,-2302.13 -61.52,-472.78 -61.52,-472.78 18.85,-458.56 80.37,14.17 241.1,42.5 548.76,262.7 307.59,220.21 762.11,632.34 1050.49,1218.44 288.28,586.33 410.68,1346.51 325.17,2038.79 -85.46,692.16 -378.54,1316.07 -865.42,1859.67 -487.01,543.61 -1167.69,1007.02 -1838.9,1205.51 -671.45,198.42 -1333.06,132.4 -1862.6,-18.97zm-15214.37 -5058.01l60.12 34.82 -61.12 -14.81 1 -20.01zm7185.88 1885.54c207.92,534.12 491.64,1044.65 633.47,1300.09 141.82,255.21 141.82,255.21 -94.54,170.1 -236.47,-85.1 -709.07,-255.38 -1454.68,-543.01 -212.07,-81.78 -446.37,-173.15 -688.82,-270.49 100.56,-180.98 187,-414.59 233.9,-657.16 75.67,-392.41 47.3,-808.23 -122.87,-1191.22 -170.16,-382.92 -482.31,-732.72 -841.36,-869.87 -359.33,-137.14 -766.04,-61.46 -950.36,156 -184.26,217.39 -146.5,576.73 -20.53,950.17 125.95,373.39 339.84,761 519.59,1087.27l14.52 26.34c-214.88,-99.45 -417.98,-199.31 -598.62,-297.06 -690.05,-373.5 -1051.98,-715.34 -1232.85,-886.32 -180.85,-170.92 -180.85,-170.92 -171.38,-345.76 3.17,-57.42 7.31,-133.8 8.55,-216.81 373.62,-214.4 624.55,-610.85 624.55,-1064.78 0,-426.95 -221.89,-803.2 -559.11,-1024.81 72.88,-43.26 146.28,-85.23 217.62,-123.51 394.41,244.67 906.52,523.53 1348.74,638.37 619.22,160.62 1101.55,-0.11 1370.98,-108.81 269.42,-108.7 326.09,-165.42 529.37,-61.35 203.3,103.9 553.15,368.59 728.05,500.99 174.84,132.41 174.84,132.41 151.19,307.31 -23.71,174.84 -70.88,524.81 -28.32,978.62 42.42,453.7 174.84,1011.46 382.91,1545.7zm3353.4 2217.67c-723.24,-132.4 -1394.67,-340.49 -1919.37,-898.14 -524.69,-558 -902.77,-1465.51 -1072.99,-2297.63 -170.21,-831.94 -132.34,-1588.25 141.9,-2146.02 274.1,-557.88 784.58,-917.16 1276.26,-1139.36 491.68,-222.19 964.28,-307.3 1224.4,-349.79 259.9,-42.56 307.2,-42.56 85,250.64 -222.19,293.08 -713.88,879.06 -893.45,1640.29 -179.7,761.05 -47.36,1697.12 193.74,2410.88 241.15,713.88 591.01,1205.45 1092,1607.28 501.1,401.72 1153.58,713.76 1536.51,893.52 382.81,179.52 496.31,226.7 165.41,222.19 -331,-4.8 -1106.21,-61.52 -1829.41,-193.86zm-1859.55 429.64c179.57,326.09 538.86,978.56 1125.01,1569.46 412.31,415.53 936.72,800.62 1456.67,1096.51 257.5,136.8 514.92,273.65 1043.72,385.04 528.85,111.45 1328.99,197.49 1905.44,111.45 576.49,-86.05 929.23,-344.12 1105.58,-473.19 176.42,-129.07 176.42,-129.07 292.56,-107.59 116.19,21.54 348.44,64.57 618.82,83.06 270.37,18.5 578.83,12.41 834.27,-11.76 255.51,-24.18 458.09,-66.44 660.62,-108.76 140.07,-39.39 280.26,-87.45 417.7,-147.27 288.74,-125.9 565.25,-303.55 797.46,-465.11 -20.55,88.51 -31.5,180.52 -31.5,275.05 0,681.22 565.09,1233.66 1262.06,1233.66 696.95,0 1262.03,-552.44 1262.03,-1233.66 0,-681.45 -565.08,-1233.71 -1262.03,-1233.71l-19.68 0.17c-14.68,-58.76 -32.9,-113.14 -56.02,-160.2 -104.07,-212.89 -302.56,-278.92 -307.29,-354.6 -4.69,-75.68 184.32,-160.73 567.25,-293.08 382.74,-132.34 959.66,-311.98 1356.69,-411.26 397.03,-99.21 614.49,-118.23 808.4,47.3 134.29,114.72 257.26,317.95 356.48,488.64 -242.62,224.94 -393.99,542.96 -393.99,895.56 0,681.34 565.03,1233.66 1261.99,1233.66 696.95,0 1262.04,-552.32 1262.04,-1233.66 0,-681.39 -565.09,-1233.71 -1262.04,-1233.71 -67.72,0 -134.46,5.33 -199.37,15.45l-10.82 -42.85c-37.76,-141.88 -102.86,-323.92 -149.74,-424.36 -46.82,-100.62 -75.16,-119.59 109.28,-251.93 184.33,-132.35 581.48,-378.07 893.47,-500.94 311.92,-122.92 538.79,-122.92 789.38,-4.68 132.46,62.46 271.82,157.98 399.37,251.81 -71.99,155 -111.97,327.32 -111.97,508.6 0,681.39 565.03,1233.66 1262.04,1233.66 696.97,0 1262.05,-552.27 1262.05,-1233.66 0,-681.39 -565.08,-1233.71 -1262.05,-1233.71 -189.47,0 -369.23,41.09 -530.54,114.08 -33.42,-35.88 -65.97,-68.95 -92.38,-99.45 -89.89,-104.07 -108.8,-179.64 108.71,-326.15 217.44,-146.57 671.26,-364.14 1044.7,-520.01 163.38,-68.25 311.4,-124.8 439.35,-177.36 123.98,554.08 628.83,968.91 1232.79,968.91 696.95,0 1262.16,-552.44 1262.16,-1233.66 0,-681.39 -565.21,-1233.83 -1262.16,-1233.83 -534.89,0 -991.92,325.33 -1175.71,784.7l-82.12 -8.48c-257.08,-25.58 -598.63,-53.5 -923.54,-93.77l-16.92 -2.17c-0.77,-67.96 -7.2,-134.57 -18.86,-199.54 3426.57,-1368.99 6507.43,-3416.61 9074.9,-5976.47 4898.52,-4883.47 7928.27,-11628.78 7928.27,-19077.47 0,-7448.71 -3029.75,-14194.02 -7928.27,-19077.55 -4749.54,-4735.43 -11255.74,-7718.84 -18458.66,-7894.03 -1647.84,-312.69 -3348.43,-476.58 -5087.28,-476.58 -7469.96,0 -14234.05,3019.99 -19131.28,7902.46 -4898.22,4883.41 -7928.09,11628.72 -7928.09,19077.54 0,7448.58 3029.87,14193.95 7928.09,19077.48 152.95,152.36 307.77,303.09 464.29,451.82 360.58,398.85 733.25,786.81 1117.52,1163.53 1077.97,1057.24 2246.53,2025.33 3492.9,2892.8 -417.35,201.29 -704.29,621.27 -704.29,1106.93 0,681.21 565.15,1233.66 1262.1,1233.66 422.16,0 795.84,-202.82 1024.93,-513.99 387.96,99.39 835.68,228.69 1210.19,373.74 585.97,226.93 992.67,491.68 1195.91,638.19 203.21,146.45 203.21,174.96 80.42,217.45 -104.78,36.18 -298.47,82.6 -467.63,101.56 -225.65,-334.81 -613.66,-556.07 -1054.6,-556.07 -696.97,0 -1262.05,552.27 -1262.05,1233.72 0,681.27 565.08,1233.65 1262.05,1233.65 696.95,0 1262.16,-552.38 1262.16,-1233.65l-0.64 -36.65c360.51,-8.72 759.59,-25.28 1064.26,-5.15 501.11,33.02 746.89,165.42 869.92,231.74 122.87,66.02 122.87,66.02 -52.08,241.04 -72.53,72.58 -175.2,175.13 -284.13,287.22l-26.92 -0.29c-697.03,0 -1262.06,552.44 -1262.06,1233.83 0,681.22 565.03,1233.66 1262.06,1233.66 696.95,0 1261.98,-552.44 1261.98,-1233.66 0,-383.92 -179.12,-726.87 -460.48,-953.16 120.29,-75.16 252.39,-140.3 393.58,-184.79 359.28,-113.44 775.15,-94.53 1261.98,4.8 487,99.27 1044.89,278.8 1323.81,368.7 278.79,89.85 278.79,89.85 82.99,245.61 -195.85,155.76 -587.67,467.51 -767.26,684.9l-26.22 33.02c-547.65,134.74 -953.22,619.34 -953.22,1196.48 0,681.34 565.03,1233.66 1261.98,1233.66 697.03,0 1262.11,-552.32 1262.11,-1233.66 0,-403 -197.62,-760.88 -503.39,-986 62.22,-105.83 125.97,-210.13 191.35,-299.45 193.8,-264.69 401.76,-397.1 505.84,-463.3 103.84,-66.2 103.84,-66.2 283.6,260.07z"/>
 </g>
</svg>
