<?xml version="1.0" encoding="UTF-8"?>
<!DOCTYPE svg PUBLIC "-//W3C//DTD SVG 1.1//EN" "http://www.w3.org/Graphics/SVG/1.1/DTD/svg11.dtd">
<!-- Creator: CorelDRAW 2020 (64-Bit) -->
<svg xmlns="http://www.w3.org/2000/svg" xml:space="preserve" width="215.9mm" height="279.4mm" version="1.1" style="shape-rendering:geometricPrecision; text-rendering:geometricPrecision; image-rendering:optimizeQuality; fill-rule:evenodd; clip-rule:evenodd"
viewBox="0 0 21590 27940"
 xmlns:xlink="http://www.w3.org/1999/xlink"
 xmlns:xodm="http://www.corel.com/coreldraw/odm/2003">
 <defs>
  <style type="text/css">
   <![CDATA[
    .fil0 {fill:#A2662E}
   ]]>
  </style>
 </defs>
 <g id="Capa_x0020_1">
  <metadata id="CorelCorpID_0Corel-Layer"/>
  <path class="fil0" d="M-21492.52 -63537.3c10.63,-22.2 19.89,-44.05 27.76,-65.66 32.37,243.9 62.39,487.44 89.94,730.4 -36.55,-219.06 -75.8,-440.78 -117.7,-664.74zm-19326.61 -23172.66c-1593.66,-305.25 -3299.04,-505.78 -5097.56,-559.02 -1953.24,-58.04 -4018.1,57.53 -6066.7,357.75 -1942.9,284.82 -3877.05,737.81 -5692.23,1368.38 -1800.75,625.43 -3481.08,1425.38 -5027.72,2351.94 -251.13,150.42 -498.56,304.22 -742.36,460.92 1355.05,-1106.84 2834.02,-2094.22 4484.21,-2925.97 1897.11,-956.24 4023.22,-1708.49 6229.51,-2186.8 2111.39,-457.78 4297.79,-664.32 6427.93,-558.08 2082.52,103.86 4113.43,507.53 6054.35,1139.18 1640.96,533.96 3219.07,1231.05 4711.54,2047.38l-374.32 -140.08c-1478.97,-542.26 -3122.78,-1014.31 -4906.65,-1355.6zm19290.26 22645.09c-23.6,-29.74 -51.1,-56.31 -82.66,-79.78 -227.58,-1111.57 -518.15,-2269.4 -871.05,-3431.33 -521.73,-1718.03 -1179.81,-3450.87 -1971.66,-5064.67 -819.38,-1669.89 -1780.71,-3211.76 -2837.22,-4598.21 -1104.24,-1448.86 -2314.99,-2731.39 -3579.09,-3817.42 -939.82,-807.46 -1909.85,-1506.48 -2935.51,-2112.47 397.55,200.02 784.7,411.11 1164.35,635.43 1135.11,670.47 2209.56,1461.31 3299.82,2431.71 1092.93,972.28 2202.4,2124.34 3231.95,3546.87 1028.63,1421.31 1980,3116.76 2759.18,5178.59 786.84,2082.07 1397.89,4534.5 1774.66,6993.94 16.17,105.76 31.88,211.58 47.23,317.34zm-623.58 15039.42c-52.38,-38.76 -106.61,-76.91 -162.69,-113.9 375.23,-778.86 732.59,-1585.69 1052.68,-2450.76 615.08,-1662.74 1077.09,-3506.63 1231.95,-5711.04 153.41,-2180.79 6.25,-4723.59 -381.85,-7258.55 -389.4,-2543.06 -1021.54,-5079.71 -1835.93,-7234.25 -167.2,-442.19 -342.07,-868.65 -523.65,-1280.1 283.98,449.34 554.73,906.13 811.33,1372.36 914.5,1660.93 1651.43,3445.67 2166.88,5433.46 492.42,1898.66 783.57,3988.6 905.98,6052.1 134.68,2272.73 63.78,4508.98 -169.08,6421.11 -220.49,1812.49 -585.89,3328.86 -1069.6,4682.09l-51.4 141.91c-55.98,44.03 -109.02,88.4 -158.77,132.79 -354.23,316.21 -535.25,626.92 -625.43,782.55 -90.59,155.06 -90.59,155.06 -195.39,19.25 -105.17,-136.14 -315.23,-408.11 -676.29,-729.01 -96,-85.34 -202.68,-174.1 -318.74,-260.01zm-53647.23 -7184.01c271.9,1649.37 675.43,3355.51 1256.3,5065.09 579.72,1706.23 1336.69,3413.4 2317.21,5067.67 950.45,1603.65 2108.73,3152.79 3450.27,4596.79 1237.85,1685.58 2643.1,3215.83 4107.08,4543.95 2155.9,1955.72 4437.04,3473.25 6755.83,4859.32 -576.43,-145.22 -1125.85,-305.19 -1656.56,-482.56 -930.29,-311.05 -1806.96,-677.18 -2674.79,-1113.17 -872.53,-438.67 -1730.33,-943.87 -2571.9,-1520.84 -846.69,-580.55 -1685.75,-1238.52 -2515.84,-1979.23 -829.98,-740.63 -1648.73,-1561.25 -2442.46,-2509.78 -794.16,-949.38 -1567.9,-2031.98 -2309.5,-3296.98 -756.15,-1290.31 -1478.71,-2773.21 -2099.82,-4313.79 -596.4,-1479.47 -1097.17,-3010.58 -1441.53,-4472.88 -349.3,-1483.94 -536.76,-2895.23 -610.3,-4268.59 -66.4,-1243.89 -39.19,-2463.57 45.88,-3682.65 63.28,1134.28 192.46,2308.46 390.13,3507.65zm14594.56 20570.34c966.31,524.71 1962.23,1000.42 2973.43,1420.99 1990.19,827.94 4042.13,1444.66 6046.79,1803.85 1935.33,346.77 3832.84,454.15 5654.62,366.25 1959,-94.28 3827.49,-415.6 5562.24,-906.38 1466.71,-416.78 2838.33,-956.7 4158.89,-1614.03 233.63,245.44 476.74,489.6 723.22,729.83 -681.75,287.94 -1366.87,553.02 -2047.82,790.47 -1711.47,597.31 -3409.74,1025 -5050.84,1323.29 -1892.27,344.09 -3713.87,514.08 -5395.75,572.62 -1566.06,54.13 -3003.5,10.67 -4322.42,-101.2 -526.72,-44.63 -1035.55,-100.44 -1527.03,-165.18 -2291.68,-1305.2 -4582.24,-2614.87 -6775.33,-4220.51zm-5808.24 -33403.27c262.1,-626.29 524.21,-1252.58 723.46,-1925.29 199.26,-672.73 335.63,-1391.87 180.63,-1894.01 -154.98,-502.17 -601.32,-787.34 -1063.62,-925.76 885.59,-1288.82 1771.19,-2577.65 2804.99,-3740.21 982.9,-1105.3 2099.78,-2096.48 3223.26,-3082.04 -6.6,0.97 -13.2,1.94 -19.8,2.91 64.53,-52.11 129.31,-104.13 194.45,-156.05 618.71,-493 1270.58,-975.43 2052.8,-1416.19 741.55,-417.77 1600.26,-798.09 2493.27,-1167.45 246.06,-107.27 494.25,-210.5 744.28,-309.52 126.18,-49.98 252.8,-98.93 379.92,-146.73 1575.26,-592.85 3219.67,-1019.37 4894.86,-1254.55 1747.88,-245.21 3531.95,-283.4 5264.99,-164.19 1909.66,131.3 3761.87,454.03 5440.08,901.81 1592.78,424.69 3024.05,961.33 4347.82,1642.9 1320.05,679.62 2539.38,1506.73 3712.56,2514.76 1201,1032.04 2354.09,2254.02 3408.07,3636.76 1013.35,1329.91 1934.69,2807.19 2718.86,4405.32 763.49,1555.74 1398.62,3229.17 1902.92,4889.58 368.38,1213.06 666.41,2417.43 893.19,3563.08 86.05,491.64 172.06,983.31 258.1,1474.95 329.15,2186.32 383.89,4116.81 188.68,6155.68 -16.51,172.73 -34.73,345.11 -54.46,517.48 -8.83,12.48 -17.7,24.9 -26.57,37.26 -83.1,568.83 -166.25,1137.59 -249.32,1706.4 2.26,-2.2 4.47,-4.37 6.74,-6.58l-364.41 1915.44c-25.77,123.97 -48.55,231.14 -72.34,326.86l18.99 -15.94c-130.22,538.86 -280.45,1080.42 -457.72,1622.21 -40.5,124.25 -82.63,248.65 -126.23,372.98 -0.66,1.92 -1.3,3.78 -1.99,5.68 -53.52,0.97 -107.3,4.15 -161.25,9.4 -467.04,45.7 -942.64,252.23 -1306.7,612.58 -484.35,479.42 -771.62,1230.19 -636.31,2019.41 15.46,90.32 36.54,181.12 62.82,272.33 86.25,203.81 172.45,407.67 340.65,696.03 168.21,288.37 418.38,661.27 668.57,1034.21 121.61,146.5 250.92,293.42 386.95,440.21 328.82,354.94 695.81,709.85 1052.81,1037.78 -367.45,510.54 -761.11,1015.54 -1187.62,1514.6 -60.84,71.09 -122.16,141.99 -184.13,212.87 -48.89,-65.02 -99.63,-129.04 -152.01,-191.82 -333.51,-400.29 -731.77,-751.79 -1129.14,-1002.14 -77.6,-45.11 -155.26,-90.17 -269.64,-144.24 -114.36,-54.05 -265.41,-117.02 -536.15,-181.65 -270.75,-64.62 -661.03,-130.94 -1027.86,-115.42 -366.8,15.61 -710.11,112.99 -1053.34,210.37 -307.73,118.27 -612.53,270.9 -898.43,441.9 -358.91,259.81 -717.77,519.63 -994.75,768.22 -276.92,248.6 -471.92,485.95 -666.91,723.31 -141.16,197.98 -239.09,366.32 -306.54,482.43 -149.43,256.75 -149.43,256.75 -323.08,32.01 -173.71,-224.86 -520.94,-674.35 -1117.66,-1204.88 -208.12,-184.98 -446.58,-379.86 -710.63,-560.92 -63.95,-31.5 -127.87,-62.99 -191.64,-94.24 -198.59,-94.05 -397.19,-188.1 -818.95,-296.2 -421.73,-108.12 -1066.64,-230.3 -1770.38,-71.3 -703.72,159 -1466.24,599.15 -2005.6,1225.32 -539.35,626.14 -855.54,1438.26 -883.3,2186.52 -27.72,748.27 232.99,1432.63 493.67,2117.02 319.93,626.55 764.03,1261.76 1295.99,1899.01 -1165.57,560.69 -2375.87,1026.1 -3663.7,1394.26 -1651.87,469.27 -3431.96,775.08 -5297.41,865.15 -1728.79,83.51 -3535.76,-19.7 -5387.28,-351.49 -1924.59,-344.9 -3893.47,-936.35 -5802.27,-1730.38 -1917.35,-797.46 -3774.44,-1798.08 -5464.97,-2956.17 -1662.21,-1138.85 -3167.98,-2432.98 -4492.47,-3832.08l-135.25 -143.97c-1296.93,-1773.81 -2401.53,-3736.32 -3160.3,-5792.39 -85.59,-232.1 -167.12,-465.9 -244.39,-700.99 -290.87,-970.99 -470.61,-1586.42 -606.93,-2234.46 -0.02,-0.25 -0.08,-0.5 -0.13,-0.76 -50.86,-241.85 -95.66,-488.25 -137.89,-759.4 -149.15,-846.04 -280.54,-1717.14 -335.15,-2696.72 -66.63,-1194.82 -19.06,-2550.97 123.61,-4005.89 80.12,-634.5 160.25,-1268.99 240.36,-1903.48 -5.02,7.93 -9.98,15.92 -14.86,24.02 32.13,-232.6 65.72,-466.68 100.46,-701.92 127.71,-864.54 270.95,-1744.71 414.19,-2624.92 271.08,-1116.88 596.5,-2218.45 968.37,-3292.78 150.5,-434.81 308.53,-864.6 473.36,-1288.66 444.76,259 880.89,484.81 1179.31,640.31 455.82,237.98 590.63,311.96 657.7,348.84 67.18,37.11 67.18,37.11 302.51,-343.19 197.25,-318.91 560.24,-905.77 897.23,-1473.2zm1724.46 -10889.92c984.85,-808.81 2050.58,-1565.79 3190.49,-2248.89l1.99 -1.24c1476.45,-884.73 3082.92,-1649.42 4806.42,-2247.91 568.3,-197.43 1149.82,-376.95 1741.22,-538.57 -189.9,69.87 -378.83,141.94 -566.67,216.43 -1805.8,715.34 -3521.76,1641.93 -5094.94,2743.48 -862.74,604.06 -1681.16,1260.19 -2457.21,1970.22 -877.96,844.55 -1755.93,1689.13 -2436.7,2470.98 -680.73,781.84 -1164.3,1500.98 -1640.28,2272.17 -340.25,551.3 -676.64,1129.21 -1011.92,1714.7 -80.52,98.88 -151.31,225.41 -239.82,386.75 -188.55,343.74 -457.61,845.55 -726.64,1347.33l-74.62 -41.9c-290.82,-158.73 -690.11,-326.84 -1101.13,-289.22 -411.1,37.71 -833.84,281.61 -1083.23,676.31 -249.52,395.04 -325.32,940.84 -113.19,1447.23 176.05,419.44 549.99,811.65 1036.78,1180.82 -203.72,513.09 -397.13,1033.77 -579.7,1560.86 -713.57,2061.01 -1262.3,4230.01 -1594.05,6427.57 -101.64,673.49 -182.8,1349.42 -241.96,2026.02 -94.46,560.35 -142.96,1113.17 -142.96,1643.47 0,228.41 9.16,455.67 27.33,681.02 -9.6,872.09 19.72,1741.59 90.8,2604.61 108.56,1320.83 314.65,2626.13 628.54,3902.07 -202.45,-497.78 -388.05,-997.86 -558.04,-1498.08 -555.53,-1635.08 -943.55,-3279.22 -1207.04,-4877.41 -254.56,-1543.94 -391.4,-3038.91 -416.25,-4452.16 75.21,40.18 116.91,63.39 146.08,79.29 67.19,37.1 67.19,37.1 302.52,-343.2 235.06,-380.03 705.32,-1140.48 1086.58,-1795.09 381.8,-654.55 674.13,-1203.39 830.76,-1667.28 156.37,-464.1 176.78,-843.33 -17.4,-1179.74 -194.7,-336.32 -603.75,-629.84 -973.55,-758.58 -270.84,-94.39 -520.34,-100.51 -758.93,-31.74 177.69,-670.11 394.1,-1314.64 650.01,-1951.54 439.77,-1094.21 1001.65,-2172.65 1688.24,-3324.52 680.07,-1140.98 1475.57,-2343.25 2397.77,-3533.09 420.97,307.33 556.15,410.62 626.79,464.59 78.23,59.8 78.23,59.8 448.95,-377.77 139.02,-164.24 330.32,-390.13 547.24,-648.42 455.33,-515.05 910.67,-1030.12 1271.23,-1487.52 360.59,-457.4 626.42,-857.16 822.34,-1162.6 195.89,-305.44 321.87,-516.55 447.88,-727.68 113.85,-221.97 197.84,-431.19 246.27,-631.77zm-8168.84 712.16c173.23,681.88 718.96,1368.41 1446.97,2040.11 337.64,311.45 714.6,619.82 1074.93,899.72 -572.77,790.1 -1118.37,1591.88 -1629.24,2394.45 -1055.76,1659.09 -1961.25,3322.17 -2649.76,4894.24 -541.5,1236.34 -948.53,2416.51 -1257.05,3562.51l-18.17 -10.06c-290.88,-158.66 -690.14,-326.82 -1101.09,-289.15 -411.19,37.68 -833.89,281.58 -1083.37,676.22 -249.38,395.09 -325.24,940.93 -113.13,1447.33 212.34,505.84 712.81,972.47 1351.7,1406.44 93.92,63.77 190.93,126.85 289.55,188.87 -79.87,605.39 -140.84,1206.71 -188.81,1807.25 -110.95,1393.88 -153.19,2791.88 -76.24,4232.38 77.2,1443.53 273.44,2923.34 638.77,4475.18 357.35,1517.59 877.51,3107.9 1497.23,4645.06 640.4,1588.37 1389.26,3123.93 2176.62,4467.51 774.45,1321.22 1586.07,2456.28 2421.87,3455.15 836.26,999.44 1693.62,1859.28 2559.61,2631.93 865.42,772.24 1744.37,1461.12 2635.61,2072.16 896.3,614.61 1799.27,1147.25 2707.81,1603.95 913.49,459.02 1841.36,846.24 2831.06,1177.07 983.64,328.57 2026.22,600.03 3175.42,829.79 1142.52,228.17 2393.49,415.56 3762.89,531.77 333.78,28.28 674.21,52.47 1021.69,71.98 298.69,25.98 597.38,51.87 896.04,77.81 773.36,21.11 1546.7,42.2 2468.31,-1.03 921.13,-43.19 1990.28,-150.63 3059.56,-258.14 0.61,-0.02 1.25,-0.13 1.81,-0.15 839.98,-93.23 1703.43,-217.01 2584.49,-377.22 1693.24,-307.86 3450.41,-750.92 5228.49,-1371.18 865.9,-302 1734.36,-644.93 2593.06,-1020.7 738.13,673.42 1440.9,1271.48 1949.59,1706.67 942.11,805.88 1217.67,1052.82 1355.53,1176.35 137.88,123.57 137.88,123.57 896.54,-641.79 758.7,-765.22 2276.05,-2295.81 3527.12,-3626.12 1251.24,-1330.33 2236.1,-2460.46 2855.45,-3465.23 581.2,-942.74 840.47,-1775.15 644.04,-2614.07 -12.98,-55.23 -27.88,-110.5 -44.78,-165.79l-2.37 -7.84c167.04,-183.68 329.53,-367.86 487.38,-552.68 423.07,-495.04 814.61,-994.19 1180.48,-1497.05 134.7,116.19 259.1,222.31 368.63,315.98 569.86,487.85 736.83,637.21 820.02,711.82 83.49,74.8 83.49,74.8 542.59,-388.35 458.91,-463.07 1376.95,-1389.09 2133.99,-2194.08 757.15,-804.97 1353.1,-1488.76 1727.88,-2096.86 374.88,-607.9 528.14,-1140.05 362.66,-1681.97 -165.9,-541.92 -651.03,-1093.6 -1134.29,-1397.9 -405.26,-255.33 -809.12,-337.09 -1226.53,-278.83 361.11,-1191.11 639.58,-2501.03 821.64,-3997.11 240.75,-1977.31 314.11,-4287.77 175.2,-6633.26 -126.52,-2132.69 -429.38,-4300.34 -942.99,-6280.48 -541,-2086.25 -1314.85,-3959.87 -2275.07,-5704.14 -956.31,-1737.14 -2095.44,-3342.84 -3371.53,-4900.99 -1332.37,-1627.27 -2818.57,-3207.31 -4462.45,-4668.72 -1497.64,-1331.41 -3127.33,-2563.98 -4891.91,-3643.47 -1930.17,-1180.74 -4023,-2178.18 -6228.3,-2895.74 -2039.05,-663.62 -4174.21,-1087.8 -6365.74,-1197.12 -2231.25,-111.2 -4521.49,105.23 -6734.14,584.96 -2305.88,499.97 -4527.9,1286.43 -6511.6,2286.08 -1944.91,980.34 -3659.96,2164.19 -5216.61,3498.55 -520.06,445.83 -1021.67,907.74 -1507.98,1383.94 -68.15,-45.44 -136.68,-86.29 -205.03,-122.22 -444.48,-233.47 -870.16,-250.91 -1303.24,-100 -433.08,150.29 -873.71,468.17 -1162.3,769.88 -288.81,301.51 -425.98,586.1 -494.39,728.84 -68.65,142.07 -68.65,142.07 -169.74,29.97 -101.43,-111.98 -304.29,-335.56 -642.71,-591.9 -338.73,-256.51 -813.01,-545.65 -1341.52,-575.93 -528.38,-30.24 -1110.53,198.73 -1501.81,651.97 -391.41,453.33 -591.11,1131.03 -418.34,1813.38z"/>
 </g>
</svg>
