<?xml version="1.0" encoding="UTF-8"?>
<!DOCTYPE svg PUBLIC "-//W3C//DTD SVG 1.1//EN" "http://www.w3.org/Graphics/SVG/1.1/DTD/svg11.dtd">
<!-- Creator: CorelDRAW 2020 (64-Bit) -->
<svg xmlns="http://www.w3.org/2000/svg" xml:space="preserve" width="215.9mm" height="279.4mm" version="1.1" style="shape-rendering:geometricPrecision; text-rendering:geometricPrecision; image-rendering:optimizeQuality; fill-rule:evenodd; clip-rule:evenodd"
viewBox="0 0 21590 27940"
 xmlns:xlink="http://www.w3.org/1999/xlink"
 xmlns:xodm="http://www.corel.com/coreldraw/odm/2003">
 <defs>
  <style type="text/css">
   <![CDATA[
    .fil0 {fill:#A2662E}
   ]]>
  </style>
 </defs>
 <g id="Capa_x0020_1">
  <metadata id="CorelCorpID_0Corel-Layer"/>
  <path class="fil0" d="M-174112.85 115155.41c4813.75,-4813.6 7791.37,-11464.16 7791.37,-18809.85 0,-6263.46 -2165.18,-12021.22 -5787.34,-16566.15 452.74,-622.26 996.12,-1835.35 1275.94,-2991.58 285.81,-1181.06 296.7,-2302.91 -53.82,-3030.96 -350.63,-728.04 -1062.52,-1062.41 -1628.78,-819.77 -566.38,242.76 -986.95,1062.41 -1089.45,2151.86 -95.26,1012.89 84.5,2258.76 192.62,3174.41 -229.08,-246.91 -462.41,-489.68 -700.54,-727.79 -1351.54,-1351.54 -2847.75,-2558.4 -4463.58,-3595 94.77,-352.36 171.09,-802.79 230.9,-1337.85 107.87,-965.32 161.82,-2205.81 -118.63,-3349.18 -280.43,-1143.27 -895.23,-2189.54 -1709.51,-2621.02 -814.39,-431.48 -1828.38,-248.03 -1973.93,312.84 -145.65,560.87 577.02,1499.28 1224.22,2453.82 647.09,954.68 1218.87,1925.38 1407.57,2728.89 113,481.49 88.66,902.94 32.53,1256.25 -1659.49,-973.25 -3433.59,-1771.75 -5297.42,-2370.4 -80.24,-97.59 -221.63,-214.76 -430.27,-352.72 -318.23,-210.35 -792.74,-469.13 -1272.78,-997.72 -480.01,-528.58 -965.42,-1326.7 -1423.8,-2081.79 -458.52,-755.08 -889.86,-1466.86 -1391.42,-1876.82 -501.54,-409.83 -1073.3,-517.69 -1499.28,-415.21 -426.07,102.49 -706.65,415.21 -728.15,781.99 -21.65,366.79 215.72,787.37 517.81,1164.91 301.95,377.54 668.62,711.91 889.73,959.93 221.11,248.15 296.7,409.96 -80.85,237.37 -377.53,-172.55 -1208.08,-679.61 -2130.22,-1137.99 -922.26,-458.38 -1936.26,-868.32 -2642.64,-1057.04 -706.54,-188.71 -1105.73,-156.42 -1289.05,113.25 -183.34,269.67 -151.05,776.61 91.71,1272.78 242.66,496.16 695.77,981.59 1677.35,1493.89 403.59,210.73 896.33,425.99 1397.41,626.54 -7277.21,46.25 -13861.48,3014.09 -18637.66,7790.28 -4813.6,4813.73 -7791.26,11464.29 -7791.26,18809.98 0,5051.47 1408.06,9774.33 3853.06,13796.9 -339.14,-334.62 -661.87,-658.47 -927.28,-925.94 -695.76,-701.14 -997.72,-1013.86 -1294.3,-1639.55 -296.7,-625.57 -587.9,-1563.97 -1003.09,-2599.5 -415.34,-1035.38 -954.67,-2168.01 -1461.62,-2847.5 -506.93,-679.5 -981.58,-906 -1429.19,-1019.25 -447.63,-113.25 -868.2,-113.25 -1148.63,-21.65 -280.58,91.73 -420.73,275.18 -361.4,560.99 59.32,285.82 318.1,674.12 841.29,1391.41 523.07,717.3 1310.57,1763.45 1747.42,2345.84 436.86,582.51 523.09,701.27 382.92,641.95 -140.26,-59.3 -506.93,-296.7 -1057.02,-436.99 -550.13,-140.14 -1283.66,-183.19 -1547.83,48.7 -264.31,231.87 -59.44,738.8 393.66,1170.16 453.01,431.47 1154.05,787.49 1849.79,1078.68 695.65,291.2 1386.04,517.81 2000.84,906.12 614.8,388.31 1154.13,938.29 2173.52,1801.11 741.98,628.14 1738.38,1422.11 2535.52,2009.4 436.23,563.8 894.14,1109.99 1373.3,1636.61 -131.72,71.92 -275.66,139.43 -435.74,177.83 -382.93,91.72 -857.44,16.14 -1407.57,-210.36 -550.1,-226.51 -1175.79,-603.91 -1903.84,-906 -728.04,-301.95 -1558.6,-528.57 -2135.61,-523.2 -577.13,5.38 -900.62,242.77 -1024.61,609.43 -124.14,366.77 -48.55,862.94 447.6,1305.18 496.07,442.24 1412.95,830.54 2292.04,997.73 878.97,167.18 1720.38,113.25 2572.59,-86.35 841.05,-196.91 1692.5,-535.67 2165.67,-757.04 99.18,102.37 198.98,204.37 299.77,305.14 1368.89,1368.78 2886.29,2588.85 4525.82,3634.52 -763.89,0.24 -1625.74,19.69 -2272.34,91.11 -976.17,107.87 -1461.6,334.37 -1742.03,717.29 -280.43,382.92 -356.02,922.14 -204.96,1272.65 151.02,350.64 528.57,512.43 1089.43,571.75 560.86,59.32 1305.19,16.26 2216.57,-350.52 847.65,-341.08 1839.87,-962.11 2456.14,-1390.04 3783.86,2068.56 8125.25,3244.6 12741.35,3244.6 2538.71,0 4994.36,-355.89 7320.02,-1020.1 210.11,356.38 514.89,843.02 888.76,1306.53 404.43,501.67 889.73,976.2 1358.98,1299.8 469.16,323.61 922.16,496.17 1310.45,388.3 388.31,-107.86 711.92,-496.17 798.27,-916.88 86.2,-420.59 -64.71,-873.71 -647.09,-1353.74 -538.85,-443.95 -1446.82,-911.01 -2139.16,-1226.18 3769.9,-1336.36 7149.06,-3498.38 9919.75,-6269.09zm-6079.52 2061.13c-2447.96,1496.21 -5179.29,2574.29 -8095.04,3133.92 -29.86,-41.45 87.81,-108.34 493.85,-277.61 582.38,-242.64 1758.05,-695.64 2561.69,-1391.4 803.51,-695.65 1234.97,-1634.06 1094.83,-2173.39 -140.29,-539.35 -852.18,-679.51 -1709.65,-172.57 -857.56,506.94 -1860.67,1661.08 -2507.76,2410.65 -647.19,749.7 -938.53,1094.83 -1380.76,1305.07 -442.24,210.35 -1035.4,285.93 -1660.96,415.33 -406.89,84.14 -827.35,191.15 -1211.12,320.91 -105.08,1.34 -210.25,1.96 -315.54,1.96 -2032.87,0 -4007.78,-248.39 -5896.08,-716.19 -15.78,-329.97 -74.61,-768.41 -179.9,-1287.57 -156.41,-771.23 -415.22,-1720.4 -906,-2631.9 -490.78,-911.38 -1213.46,-1784.97 -1936.14,-2216.45 -722.65,-431.46 -1445.33,-420.71 -1806.61,118.51 -361.4,539.35 -361.4,1607.26 124,2739.77 331.45,773.55 889.63,1577.3 1469.44,2230.87 -2089.48,-842.15 -4035.89,-1964.25 -5792.61,-3320.32 11.25,-253.04 3.8,-571.63 -25.45,-977.79 -80.96,-1121.73 -328.99,-2912.34 -695.77,-3985.63 -366.75,-1073.18 -852.06,-1429.08 -1283.51,-1596.26 -431.49,-167.19 -809.04,-145.66 -1116.38,-5.39 -307.46,140.28 -544.84,399.07 -609.54,814.28 -64.7,415.33 43.18,987.08 480.05,1952.4 222.44,491.4 530.03,1084.92 836.15,1668.05 -4391.54,-4418.95 -7105.52,-10507.53 -7105.52,-17230.23 0,-6750.22 2735.99,-12861.3 7159.22,-17284.65 4423.23,-4423.22 10534.54,-7159.33 17284.65,-7159.33 2287.74,0 4501.85,314.55 6602,902.34 -102.5,338.39 83.64,763.88 468.15,1104 420.6,372.15 1078.58,641.71 1930.76,684.87 590.84,29.96 1275.09,-49.03 1847.71,-157.88 1181.78,586.19 2309.39,1265.54 3373.27,2027.84 -790.79,-200.68 -1723.07,-413.12 -2508.37,-575.53 -1094.82,-226.5 -1903.73,-356.02 -2453.83,-280.57 -550.1,75.59 -841.42,356.02 -884.47,814.41 -43.18,458.49 161.7,1094.82 776.62,1510.04 614.8,415.32 1639.41,609.54 3127.95,668.86 1477.74,58.94 3412.64,-15.17 4390.45,-132.34 208.25,194.22 413.12,391.98 614.42,593.29 1401.56,1401.55 2633.48,2972.62 3662.76,4679.79 -1023.02,-499.84 -2298.62,-1042.61 -3339.15,-1252.34 -1337.47,-269.67 -2286.65,10.76 -2631.78,539.22 -345.13,528.59 -86.35,1305.18 625.57,1995.45 711.92,690.39 1876.81,1294.42 3268.21,1574.86 1251.39,252.18 2685.96,242.64 3574.12,49.89 1286.34,2973.13 1999.59,6252.1 1999.59,9697.78 0,6750.21 -2735.97,12861.3 -7159.32,17284.53 -699.19,699.19 -1440.57,1356.18 -2219.99,1966.7 -12.23,-76.93 -27.39,-150.79 -44.52,-221.36 -97.11,-399.05 -258.78,-690.26 -582.39,-717.28 -323.6,-26.91 -809.02,210.47 -1175.67,922.25 -229.31,445.06 -412.27,1075.63 -531.63,1636.14z"/>
 </g>
</svg>
