<?xml version="1.0" encoding="UTF-8"?>
<!DOCTYPE svg PUBLIC "-//W3C//DTD SVG 1.1//EN" "http://www.w3.org/Graphics/SVG/1.1/DTD/svg11.dtd">
<!-- Creator: CorelDRAW 2020 (64-Bit) -->
<svg xmlns="http://www.w3.org/2000/svg" xml:space="preserve" width="210mm" height="297mm" version="1.1" shape-rendering="geometricPrecision" text-rendering="geometricPrecision" image-rendering="optimizeQuality" fill-rule="evenodd" clip-rule="evenodd"
viewBox="0 0 21000 29700"
 xmlns:xlink="http://www.w3.org/1999/xlink"
 xmlns:xodm="http://www.corel.com/coreldraw/odm/2003">
 <g id="Capa_x0020_1">
  <metadata id="CorelCorpID_0Corel-Layer"/>
  <path id="aro_x0020_19.svg" fill="#A2662E" d="M8107.41 60821.56l2.34 -4.96c36.4,1.28 72.93,1.98 109.64,1.98l50.27 -0.46 50.21 0.46c23.75,0 47.44,-0.28 71.07,-0.82l1.4 4.95c-43.06,1.71 -86.34,2.59 -129.83,2.59 -52,0 -103.7,-1.31 -155.1,-3.74zm3312.69 -3016.97c-6.08,-12.46 -12.65,-25.84 -19.59,-39.53 0.34,-18.67 0.52,-37.44 0.52,-56.2 0,-177.21 -14.69,-350.98 -42.94,-520.11 5.99,-4.68 11.4,-6.81 16.42,-7.69 30.81,174.2 46.87,353.36 46.87,536.22 0,29.2 -0.46,58.3 -1.28,87.31zm-132.72 -207.28c-4.44,-101.49 -13.78,-201.67 -27.77,-300.35 2.71,-1.25 5.33,-2.59 7.85,-4.05 17.03,-9.79 29.86,-23.78 43.28,-42.21l2.34 -3.25c20.65,137.7 32.24,278.42 34.06,421.51 -21.32,-33.09 -40.93,-55.35 -59.76,-71.65zm-5694.31 -1337.43l-12.68 4.86c50.94,-92.02 106.5,-181.1 166.38,-266.92 -55.32,84.54 -106.62,172.01 -153.7,262.06zm5703.89 590.97l-20.25 -19.1c-93.58,-321.76 -237.28,-621.9 -422.03,-891.17 194.6,274.35 345.33,581.05 442.28,910.27zm-507.58 2731.88l-3.98 -8.7c319.94,-430.06 531.97,-946.55 595.56,-1508.47 7.81,-2.76 13.38,-2.1 18.09,-0.48l2.62 1c-64.17,565.18 -282.35,1084.64 -612.29,1516.65zm-563.07 569.13l29.8 -24 0.37 0.09c-10.04,8.03 -20.05,16 -30.17,23.91zm-327.6 165.1c102.58,-67.39 200.9,-140.81 294.45,-219.69l2.89 2.64 4.68 3.89c-96.1,77.01 -196.95,148.2 -302.02,213.16zm-4726.42 -2196.05c69.37,557.42 286.91,1068.68 611.8,1492.69l-9.13 19.46c-324.03,-406.85 -547.29,-895.21 -632.66,-1428.7 9.98,-13.59 15.97,-29.22 21.23,-48.32 3.07,-11.22 5.9,-23.63 8.76,-35.13zm84.88 -70.77c53.43,493.89 221.49,953.02 476.71,1349.81 -5.48,5.69 -8.34,12.89 -7.49,21.41 2.08,21.29 27.29,50.48 45.26,76.97 8.46,12.47 15.33,24.33 19.89,35.98 -308.2,-418.71 -511.62,-919.99 -571.23,-1464.76l1.55 1.4c4.87,5.26 7.06,16.45 11.28,22.04 4.2,5.63 10.43,5.78 16.7,5.84 4.62,-4.19 9.19,-8.42 8.64,-15.42 -0.55,-6.96 -6.27,-16.84 -6.05,-23.96 0.09,-3.8 1.88,-6.87 4.74,-9.31zm245.94 -1603.2c-168.91,383.47 -263.28,807.81 -264.34,1254.22l-28.01 57.6 -8.42 16.91c-0.18,-13.59 -0.28,-27.22 -0.28,-40.84 0,-462.41 103.19,-900.62 287.64,-1292.72 2.55,0 5.32,0.73 8.09,1.91 1.79,0.73 3.59,1.65 5.32,2.92zm-354.45 1327.15c-2.62,-0.88 -5.35,-1.12 -7.94,-0.94 -4.5,0.21 -8.54,1.73 -12.56,3.25 -4.01,1.49 -8.06,3.05 -11.62,5.87 -3.53,2.74 -6.56,6.78 -7.48,11.99 -0.91,5.17 0.34,11.58 2.22,18.03 1.89,6.48 4.32,12.99 5.11,17.27 0.73,4.35 -0.21,6.42 -2.16,8.03 -0.91,0.7 -2.04,1.34 -8.24,-0.36 -1.55,-39.81 -2.31,-79.77 -2.31,-119.95 0,-446.35 95.71,-870.72 267.9,-1254.4 3.98,-2.19 7.97,-4.65 12.13,-7.36 13.87,-9.09 29.26,-21.14 40.54,-26.82 5.87,-3.01 10.65,-4.29 14.69,-4.56 -186.3,397.81 -290.52,842.04 -290.52,1310.69l0.24 39.26zm395.29 -1554.51c-3.4,-0.21 -7.17,0.55 -10.28,3.08 -3.13,2.49 -5.59,6.78 -7.75,11.4 -2.19,4.59 -4.05,9.55 -5.78,12.38 -1.7,2.83 -3.25,3.49 -5.2,3.46 -1.76,-0.09 -3.83,-0.85 -19.67,-32.54 77.94,-138.95 166.38,-271.39 264.24,-396.3 5.99,8.46 12.62,15.94 19.2,21.72 3.31,2.92 6.56,5.38 9.85,7.51 -89.87,116.75 -171.62,240.13 -244.33,369.32l-0.28 -0.03zm1331.75 -1258.26c-227.94,111.58 -440.13,250.62 -632.18,412.87l-0.85 -5.2c-2.16,-18.4 4.93,-36.13 17.3,-55.47 440.13,-355.33 979.63,-595.95 1571.27,-675.42 -340.31,54.74 -662.04,165.74 -955.54,323.22zm3474.51 480.51c-6.42,-2.38 -15.36,-5.9 -27.8,-11.07 -27.46,-11.38 -72.14,-30.69 -116.63,-47.63 -352.66,-300.62 -773.74,-522.69 -1236.49,-639.32 4.41,-5.38 8.15,-11.4 11.43,-17.94 519.41,116.72 988.48,368.13 1369.49,715.96zm123.19 198.71c2.16,-2.34 3.71,-4.99 3.41,-8.64 -0.43,-5.29 -4.74,-12.74 -4.59,-18.15 0.15,-5.45 4.86,-8.85 10.76,-10.83 5.93,-2.01 13.11,-2.53 24.39,3.22 6.85,3.47 15.21,9.25 23.82,15.27 298.55,322.13 528.86,709.63 667.54,1138.9 -23.84,-21.05 -47.81,-41.24 -69.89,-58.09 -6.93,-5.29 -13.68,-10.28 -20.28,-14.93 -140.99,-391.95 -358.77,-746.95 -635.16,-1046.75zm291.23 3871.36c-0.4,-22.23 9.97,-44.01 26.24,-68.01 18.01,-26.48 43.19,-55.74 45.23,-77 0.51,-5.08 -0.31,-9.67 -2.19,-13.78 227.05,-369.07 378.78,-789.83 433.64,-1240.59 8.88,1.49 17.92,1.55 26.31,0.21 10.06,-1.64 19.22,-5.26 28.65,-10.52 -66.54,522.78 -263.89,1004.2 -557.88,1409.69zm-4382.82 626.51c1.97,-2.37 3.89,-4.83 5.78,-7.39 89.77,73.02 183.71,141.12 281.36,203.79 -99.6,-60 -195.45,-125.63 -287.14,-196.4zm-52.44 37.1c2.86,-1 5.75,-2.06 8.7,-3.31 310.6,242.08 668.76,425.65 1057.92,534.19l0.21 0.54c-392.01,-109.72 -752.97,-292.13 -1066.83,-531.42zm164.02 -179.64c24.14,-4.74 39.08,-27.31 48.75,-53.73 9.73,-26.43 14.23,-56.69 28.34,-77.19 14.14,-20.5 37.89,-31.26 68.88,-39.26 30.99,-8.03 69.19,-13.32 84.82,-27.92 15.66,-14.63 8.7,-38.56 -11.25,-56.96 -19.95,-18.46 -52.86,-31.42 -93.49,-37.44 -40.6,-5.96 -88.89,-5.02 -162.45,17.03 -73.57,22.02 -172.41,65.17 -223.2,86.22 -50.82,21.01 -53.61,19.95 -55.47,18.49 -1.83,-1.49 -2.68,-3.44 -1.98,-7.42 0.7,-3.98 3.01,-10.07 4.72,-16.06 1.73,-5.99 2.95,-11.95 2.1,-16.79 -0.86,-4.83 -3.69,-8.57 -7,-11.16 -3.28,-2.55 -7.02,-3.98 -10.76,-5.38 -3.72,-1.4 -7.49,-2.83 -11.65,-3.07 -4.17,-0.24 -8.79,0.7 -12.63,3.77 -3.83,3.07 -6.84,8.33 -9.52,13.99 -2.67,5.62 -4.95,11.71 -7.05,15.18 -2.1,3.46 -4.01,4.31 -6.39,4.25 -2.34,-0.12 -5.17,-1.18 -29.41,-50.51 -24.26,-49.36 -69.97,-147.04 -110.63,-212.16 -40.67,-65.14 -76.31,-97.74 -110.73,-120.06 -27.68,-17.95 -54.53,-29.2 -78.1,-32.6 -254.46,-390.19 -422.73,-842.78 -477.47,-1330.14 12.65,8.19 27.16,19.07 40.57,27.89 18.31,12.02 34.61,20.2 53.25,23.21 18.61,2.98 39.63,0.82 58.18,-7.06 18.55,-7.81 34.67,-21.38 45.04,-36.46 10.37,-15.12 14.99,-31.75 25.49,-49.51 10.55,-17.76 26.97,-36.56 31.2,-69.37 4.26,-32.91 -3.71,-79.84 -22.24,-110.7 -18.51,-30.87 -47.65,-45.68 -62.22,-53.07 -14.57,-7.48 -14.57,-7.48 3.62,-14.05 18.16,-6.57 54.53,-19.71 70.65,-40.75 16.21,-20.99 12.22,-49.85 1.21,-78.16 -10.94,-28.25 -28.8,-55.93 -31.99,-82.57 -3.16,-26.61 8.42,-52.19 27.77,-80.75 19.37,-28.52 46.5,-60.03 48.72,-82.93 2.28,-22.99 -20.38,-37.34 -49.6,-38.07 -29.26,-0.77 -65.11,12.19 -102.28,36.28 -37.1,24.02 -75.45,59.15 -119.24,129.28 -11.59,18.55 -23.54,39.53 -35.37,61.37 14.17,-378.84 96.64,-740.04 235.39,-1071.38 3.74,11.16 8.39,20.64 15.32,29.1 9.1,11.04 22.14,20.26 36.62,25.09 14.47,4.77 30.38,5.2 43.82,1.79 13.45,-3.43 24.42,-10.58 39.27,-15.42 14.83,-4.83 33.6,-7.26 52.42,-23.84 18.83,-16.57 37.78,-47.2 42.67,-73.99 4.93,-26.82 -4.23,-49.81 -8.82,-61.31 -4.53,-11.5 -4.53,-11.5 9.07,-6.14 13.62,5.35 40.87,16.08 60.55,12.19 19.7,-3.86 31.87,-22.26 39.75,-43.79 7.93,-21.56 11.61,-46.23 23.11,-62.95 11.52,-16.7 30.9,-25.49 56.17,-32 25.27,-6.57 56.41,-10.89 69.16,-22.78 12.77,-11.92 7.08,-31.44 -9.19,-46.44 -16.27,-15.05 -43.09,-25.6 -76.21,-30.53 -33.12,-4.87 -72.47,-4.07 -132.48,13.9 -36.82,11.01 -81.44,28.56 -119.97,44.4 65.75,-119.55 139.22,-234.17 219.7,-343.2 7.78,-0.18 15.72,-1.49 23.26,-3.98 14.48,-4.84 27.49,-14.05 36.62,-25.09 9.06,-11.04 14.2,-23.85 18.61,-39.81 4.38,-16 8.03,-35.19 12.71,-46.93l1.52 -3.49 10.65 -12.93c1.3,-0.85 2.67,-1.49 4.01,-2.07 5.75,-2.43 11.52,-2.95 15.24,1 3.71,3.96 5.35,12.41 8.54,16.67 3.19,4.26 7.91,4.35 12.62,4.44 3.5,-3.19 7,-6.38 6.57,-11.68 -0.42,-5.29 -4.74,-12.74 -4.59,-18.15 0.15,-5.45 4.86,-8.85 10.76,-10.83 5.94,-2.01 13.11,-2.52 24.4,3.22 11.28,5.72 26.67,17.7 40.54,26.8 13.83,9.12 26.15,15.33 40.26,17.6 14.11,2.29 30.02,0.61 44.04,-5.32 14.05,-5.96 26.24,-16.21 34.09,-27.61 7.85,-11.44 11.34,-24.06 19.31,-37.5 7.97,-13.41 20.41,-27.64 23.6,-52.52 3.19,-24.88 -2.8,-60.37 -16.85,-83.75 -14.02,-23.39 -36.07,-34.61 -47.08,-40.21 -11.01,-5.63 -11.01,-5.63 2.74,-10.58 13.75,-4.99 41.27,-14.94 53.49,-30.84 7.49,-9.7 9.25,-21.59 7.64,-34.24 188.43,-174.51 398.85,-325.23 626.61,-447.49 290.13,-141.84 606.35,-238.4 939.42,-280.4 -2.01,4.57 -3.89,9.31 -5.53,14.24 -16,47.9 -12.56,114.5 3.19,158.2 15.79,43.67 44.01,64.38 63.78,85.49 19.76,21.04 31.17,42.45 49.93,59.97 18.77,17.52 44.95,31.11 72.72,36.25 27.76,5.11 57.17,1.74 81.78,-8.03 24.57,-9.79 44.34,-26 65.75,-48.02 21.38,-21.98 44.4,-49.87 62.52,-64.78 18.01,-14.87 31.27,-16.81 42.76,-15.57 11.44,1.19 21.32,5.48 23.78,15.24 2.47,9.73 -2.37,24.94 -1,34.67 1.37,9.76 8.94,14.14 16.54,18.46 8.52,-2.04 17.04,-4.11 21.08,-13.08 4.05,-8.97 3.65,-24.9 8.73,-33.57 5.11,-8.64 15.78,-10.04 27.16,-7.91 11.37,2.04 23.51,7.57 36.68,26.91 13.19,19.38 27.45,52.62 41.81,79.72 14.35,27.15 28.8,48.23 49.66,64.53 20.87,16.24 48.15,27.77 76.22,30.66 28.1,2.85 57.05,-2.86 79.98,-14.39 22.96,-11.56 39.87,-28.92 64.75,-43.61 24.9,-14.66 57.78,-26.67 85.15,-64.14 27.43,-37.53 49.39,-100.51 47.47,-150.97 -1.88,-50.42 -27.64,-88.31 -40.51,-107.23 -12.83,-19.01 -12.83,-19.01 13.9,-14.78l6.63 1.01c461.14,95.92 883.74,297.52 1241.6,578.43 -26.91,-3.43 -48.65,-2.52 -68.24,0.37 -33.12,4.86 -59.97,15.45 -76.21,30.5 -16.27,14.99 -21.96,34.52 -9.19,46.44 12.74,11.89 43.89,16.21 69.16,22.75 25.27,6.54 44.64,15.29 56.17,32.02 11.5,16.7 15.17,41.39 23.11,62.92 7.88,21.57 20.05,39.96 39.75,43.83 19.68,3.86 46.93,-6.85 60.55,-12.2 13.6,-5.35 13.6,-5.35 9.04,6.15 -4.57,11.49 -13.72,34.48 -8.8,61.31 4.9,26.82 23.85,57.41 42.7,73.99 18.83,16.57 37.56,19.04 52.4,23.84 14.84,4.84 25.82,12.01 39.27,15.42 13.44,3.38 29.34,3.01 43.82,-1.79 14.47,-4.84 27.49,-14.05 36.61,-25.09 9.07,-11.04 14.21,-23.85 18.62,-39.81 2.86,-10.49 5.41,-22.36 8.18,-32.57 266.77,283.59 479.59,618.94 622.04,989.48 -25.51,-11.92 -48.38,-19.01 -70.04,-23.72 -45.01,-9.79 -84.66,-9.21 -112.89,2.25 -28.22,11.44 -45,33.79 -34.36,55.32 10.61,21.5 48.6,42.18 77.95,62.86 29.34,20.68 49.99,41.36 56.72,68.46 6.68,27.1 -0.55,60.64 -0.83,92.21 -0.3,31.57 6.42,61.16 29.9,75.69 23.45,14.54 63.68,13.96 83.81,13.69 20.11,-0.27 20.11,-0.27 8.67,12.32 -11.46,12.56 -34.39,37.71 -41.09,74.6 -6.72,36.89 2.8,85.49 19.01,115.96 16.18,30.44 39.11,42.72 55.87,56.14 16.76,13.41 27.37,27.95 43.03,38.86 15.33,10.68 35.49,17.83 55.99,18.92 11.77,83.63 20.13,168.42 24.97,254.12 -17.52,-7.84 -34,-11.86 -48.39,-11.49 -22.11,0.54 -39.29,11.43 -37.56,28.8 1.68,17.36 22.24,41.17 36.89,62.77 14.66,21.59 23.39,40.96 20.99,61.13 -2.4,20.16 -15.94,41.11 -24.21,62.49 -8.3,21.41 -11.34,43.28 0.91,59.18 12.23,15.91 39.75,25.82 53.53,30.81l0.33 0.12 -0.45 11.95c-11.62,6.03 -31.36,17.25 -44.25,38.75 -14.05,23.39 -20.04,58.88 -16.85,83.76 3.19,24.87 15.66,39.1 23.6,52.52 7.94,13.44 11.43,26.03 19.31,37.49l1.43 2.01c-51.64,454.81 -203.52,879 -432.89,1249.81 -26.06,1.01 -57.05,12.84 -89.13,33.67 -34.46,22.29 -70.04,54.89 -110.7,120.01 -40.72,65.14 -86.43,162.82 -110.64,212.21 -24.27,49.27 -27.07,50.36 -29.44,50.45 -2.37,0.09 -4.29,-0.82 -6.42,-4.25 -2.07,-3.41 -4.34,-9.49 -7.02,-15.15 -2.68,-5.66 -5.69,-10.89 -9.55,-13.99 -3.8,-3.1 -8.42,-4.01 -12.59,-3.71 -4.17,0.18 -7.94,1.61 -11.65,3.01 -3.74,1.4 -7.48,2.83 -10.8,5.45 -3.28,2.55 -6.08,6.29 -6.93,11.13 -0.85,4.8 0.31,10.76 2.04,16.72 1.76,6.02 4.01,12.08 4.74,16.06 0.7,4.01 -0.18,5.96 -2,7.45 -1.86,1.43 -4.66,2.53 -55.45,-18.52 -50.81,-20.98 -149.62,-64.14 -223.19,-86.19 -73.6,-22.02 -121.83,-22.99 -162.46,-16.97 -40.63,5.97 -73.54,18.92 -93.46,37.35 -19.98,18.43 -26.94,42.39 -11.31,56.93 15.63,14.66 53.83,19.92 84.85,27.92 31.02,8.06 54.74,18.82 68.88,39.32 14.11,20.5 18.62,50.73 28.35,77.16 9.7,26.49 24.6,49.02 48.78,53.76 24.15,4.75 57.48,-8.42 74.26,-14.99 16.64,-6.51 16.64,-6.51 11.04,7.61 -5.62,14.08 -16.81,42.24 -10.79,75.14 2.74,14.84 8.97,30.63 17.12,45.38 -254.34,214.86 -544.53,388.33 -860.27,510.01 -41.26,-4.59 -90.74,-1.86 -162.94,19.76 -78.98,23.66 -185.12,70.01 -239.68,92.61 -54.56,22.6 -57.6,21.44 -59.58,19.86 -1.94,-1.61 -2.85,-3.68 -2.13,-7.97 0.76,-4.29 3.23,-10.8 5.08,-17.21 1.86,-6.48 3.17,-12.84 2.25,-18.04 -0.91,-5.2 -3.95,-9.24 -7.51,-12.01 -3.5,-2.77 -7.54,-4.29 -11.55,-5.78 -4.02,-1.52 -8.03,-3.01 -12.5,-3.31 -4.5,-0.25 -9.46,0.76 -13.57,4.04 -4.1,3.35 -7.36,8.97 -10.21,15.06 -2.87,6.02 -5.33,12.56 -7.58,16.27 -2.28,3.74 -4.35,4.68 -6.87,4.56 -2.53,-0.09 -5.54,-1.22 -31.6,-54.23 -26.03,-52.98 -75.12,-157.9 -118.79,-227.84 -43.67,-69.95 -81.93,-104.92 -118.94,-128.95 -37.01,-23.97 -72.75,-36.86 -101.88,-36.13 -29.17,0.7 -51.76,15.05 -49.51,37.95 2.25,22.87 29.29,54.23 48.6,82.69 19.28,28.41 30.81,53.93 27.67,80.48 -3.16,26.57 -20.98,54.16 -31.93,82.35 -10.92,28.19 -14.9,56.96 1.22,77.95 16.08,20.92 52.33,34.03 70.46,40.57 18.09,6.54 18.09,6.54 3.62,13.98 -14.54,7.36 -43.58,22.14 -62.04,52.95 -11.07,18.4 -18.31,42.52 -21.47,65.97 -39.63,2.22 -79.47,3.68 -119.49,4.34 -43.58,-0.72 -86.92,-2.37 -130.04,-4.92 1.15,-4.14 2.07,-8.58 2.67,-13.35 3.65,-28.38 -3.19,-68.92 -19.22,-95.59 -16.02,-26.7 -41.18,-39.53 -53.73,-45.92 -12.6,-6.42 -12.6,-6.42 3.1,-12.07 15.69,-5.69 47.11,-17.03 61.06,-35.19 13.99,-18.19 10.53,-43.12 1.07,-67.55 -9.49,-24.45 -24.94,-48.35 -27.68,-71.37 -2.7,-23.02 7.24,-45.13 24,-69.8 16.73,-24.63 40.2,-51.82 42.12,-71.65 1.95,-19.83 -17.61,-32.23 -42.91,-32.87 -25.28,-0.61 -56.23,10.52 -88.32,31.32 -32.08,20.8 -65.23,51.12 -103.06,111.77 -37.9,60.64 -80.41,151.54 -102.98,197.46 -22.56,45.92 -25.21,46.93 -27.4,47.05 -2.19,0.06 -3.99,-0.76 -5.96,-3.95 -1.95,-3.23 -4.07,-8.92 -6.57,-14.15 -2.46,-5.26 -5.26,-10.15 -8.85,-13.01 -3.59,-2.89 -7.84,-3.74 -11.74,-3.5 -3.89,0.21 -7.39,1.52 -10.85,2.83 -3.47,1.33 -6.97,2.64 -10.01,5.05 -3.1,2.4 -5.72,5.87 -6.54,10.37 -0.76,4.47 0.37,10.03 1.98,15.63 1.61,5.59 3.74,11.22 4.38,14.93 0.67,3.71 -0.12,5.5 -1.83,6.9 -1.7,1.4 -4.35,2.38 -51.64,-17.21 -47.29,-19.58 -139.28,-59.76 -207.74,-80.29 -68.49,-20.49 -113.44,-21.38 -151.24,-15.78 -35.67,5.26 -64.99,16.3 -83.76,31.96 -308.49,-116.66 -593.15,-282.62 -844.45,-488.44 2.35,-6.54 4.14,-13.14 5.3,-19.5 6.05,-32.91 -5.17,-61.1 -10.8,-75.18 -5.56,-14.11 -5.56,-14.11 11.1,-7.54 16.73,6.57 50.12,19.71 74.27,14.96zm-734 -70.49c3.93,30.5 19.19,47.96 28.96,64.41 9.73,16.48 14.02,31.93 23.66,45.98 9.6,13.99 24.6,26.55 41.81,33.85 17.22,7.27 36.71,9.34 54.02,6.57 17.3,-2.83 32.38,-10.46 49.38,-21.59 17.01,-11.16 35.89,-25.91 49.73,-32.91 13.8,-7.05 22.65,-6.39 29.89,-3.95 7.27,2.43 13.02,6.63 13.23,13.29 0.19,6.66 -5.14,15.75 -5.66,22.26 -0.51,6.51 3.75,10.4 8.06,14.33 5.81,-0.1 11.59,-0.22 15.48,-5.45 3.92,-5.2 5.96,-15.57 10.5,-20.44 1.12,-1.18 2.37,-2.06 3.77,-2.64 12.68,11.49 25.36,22.93 38.22,34.24 4.2,13.96 7.88,31.9 12.14,47.38 5.38,19.62 11.68,35.31 22.81,48.85 11.16,13.53 27.16,24.84 44.89,30.77 17.76,5.87 37.28,6.36 53.77,2.19 5.47,-1.4 10.61,-3.28 15.69,-5.41 334.53,260.75 723.07,457.4 1146.38,570.89 9,21.87 22.38,39.78 42.97,43.83 22.44,4.41 53.55,-7.82 69.13,-13.93l3.22 -1.25 9.43 2.16 -2.34 6.11c-5.21,13.11 -15.67,39.36 -10.04,69.98 5.59,30.63 27.22,65.57 48.75,84.49 21.47,18.91 42.88,21.71 59.82,27.22 16.94,5.5 29.47,13.71 44.79,17.6 15.37,3.83 33.52,3.44 50.03,-2.06 16.55,-5.51 31.39,-16.03 41.82,-28.65 10.34,-12.59 16.21,-27.22 21.26,-45.44 4.98,-18.24 9.15,-40.17 14.5,-53.55 5.3,-13.42 11.87,-18.37 18.46,-21.11 2.74,-1.16 5.48,-1.95 8.06,-2.13l5.66 0.76c1.37,0.52 2.59,1.34 3.68,2.49 4.23,4.54 6.11,14.18 9.76,19.04 3.65,4.87 9.03,4.96 14.42,5.05 3.98,-3.62 7.97,-7.27 7.48,-13.32 -0.21,-2.74 -1.31,-5.93 -2.46,-9.21 26.85,3.19 53.82,6.05 80.86,8.57l2.77 1.83c15.81,10.4 29.86,17.48 45.98,20.1 16.09,2.61 34.25,0.7 50.27,-6.08 4.78,-2.04 9.37,-4.5 13.69,-7.3 64.32,3.8 129.16,5.75 194.42,5.75 52.95,0 105.59,-1.31 157.9,-3.81 9.89,17.1 14.51,33.21 24.55,47.87 10.33,15.03 26.39,28.5 44.88,36.38 18.49,7.81 39.45,9.97 58,6.99 18.61,-3.01 34.82,-11.19 53.07,-23.17 18.24,-11.99 38.56,-27.8 53.4,-35.31 14.84,-7.58 24.3,-6.87 32.12,-4.23 7.78,2.59 13.96,7.12 14.2,14.23 0.18,7.15 -5.57,16.94 -6.09,23.94 -0.54,6.96 4.05,11.19 8.64,15.36 6.24,-0.1 12.47,-0.22 16.64,-5.81 4.2,-5.63 6.38,-16.76 11.25,-21.99 4.9,-5.23 12.5,-4.5 20.07,-1.31 7.58,3.19 15.18,8.91 21.29,24.36 6.24,15.48 11.01,40.76 16.79,61.8 5.78,21.04 12.56,37.92 24.48,52.46 12.01,14.48 29.16,26.67 48.2,33.03 19.1,6.29 40.05,6.84 57.79,2.34 17.69,-4.5 32.11,-13.93 51.67,-20.28 19.55,-6.36 44.25,-9.62 69.06,-31.42 24.79,-21.81 49.75,-62.13 56.2,-97.47 6.48,-35.28 -5.59,-65.6 -11.58,-80.71 -6,-15.15 -6,-15.15 11.92,-8.12 17.94,7.05 53.8,21.19 79.74,16.08 25.94,-5.11 41.94,-29.34 52.37,-57.72 10.43,-28.37 15.26,-60.89 30.41,-82.87 7.3,-10.59 17,-18.74 28.77,-25.34 19.83,-6.56 39.6,-13.32 59.24,-20.25 30.05,-6.93 62.59,-13.05 77.07,-26.58 0.97,-0.88 1.85,-1.82 2.64,-2.77 324.92,-124.47 624.18,-299.5 887.82,-515.21 14.93,2.56 31.75,1.59 47.2,-3.56 17.76,-5.9 33.75,-17.27 44.92,-30.77 11.16,-13.54 17.42,-29.23 22.8,-48.84 1.77,-6.42 3.47,-13.26 5.11,-20.08 18.22,-16.45 36.22,-33.12 54.05,-49.96 1.76,4.22 3.31,8.64 5.47,11.49 3.89,5.23 9.67,5.39 15.51,5.45 4.29,-3.9 8.52,-7.82 8,-14.33 -0.49,-6.47 -5.81,-15.63 -5.6,-22.23 0.03,-1.18 0.25,-2.28 0.58,-3.31l8.67 -8.43 3.95 -1.55c7.27,-2.43 16.09,-3.1 29.9,3.89 13.86,7.06 32.69,21.81 49.69,32.97 17,11.13 32.12,18.73 49.42,21.53 17.27,2.77 36.8,0.76 54.01,-6.54 17.21,-7.26 32.18,-19.86 41.82,-33.84 9.61,-14.05 13.93,-29.5 23.66,-45.99 9.79,-16.48 25.03,-33.91 28.95,-64.38 3.95,-30.53 -3.44,-74.11 -20.62,-102.76 -11.59,-19.25 -27.58,-31.78 -40.97,-40.02 13.23,-15.76 26.25,-31.69 39.18,-47.72 5.01,-3.77 9.49,-7.88 12.95,-12.41 3.01,-3.89 5.26,-8.09 6.88,-12.47 350.43,-443.8 583.39,-981.91 652.79,-1569.1 3.98,2.82 7.78,7.45 11.04,15.69 4.68,11.7 8.33,30.9 12.74,46.86 4.38,16 9.52,28.8 18.58,39.84 9.1,11.04 22.14,20.26 36.62,25.09 14.47,4.78 30.38,5.2 43.82,1.8 13.45,-3.44 24.42,-10.59 39.26,-15.42 14.85,-4.84 33.61,-7.27 52.44,-23.85 18.82,-16.57 37.77,-47.19 42.66,-73.99 4.93,-26.82 -4.22,-49.81 -8.82,-61.31 -4.53,-11.49 -4.53,-11.49 9.06,-6.14 13.63,5.35 40.88,16.09 60.56,12.19 19.7,-3.86 31.87,-22.26 39.74,-43.79 7.94,-21.56 11.62,-46.23 23.12,-62.95 11.52,-16.7 30.89,-25.49 56.17,-32 25.27,-6.57 56.41,-10.88 69.16,-22.77 12.77,-11.93 7.08,-31.45 -9.19,-46.44 -16.27,-15.06 -43.09,-25.61 -76.21,-30.54 -33.12,-4.86 -72.47,-4.07 -132.47,13.9 -59.98,17.94 -140.57,53.13 -181.99,70.28 -41.42,17.15 -43.7,16.27 -45.22,15.09 -1.49,-1.22 -2.19,-2.8 -1.61,-6.05 0.57,-3.26 2.46,-8.22 3.83,-13.08 1.43,-4.9 2.4,-9.77 1.73,-13.69 -0.7,-3.95 -3.01,-6.99 -5.72,-9.12 -2.68,-2.07 -5.71,-3.26 -8.79,-4.38 -3.01,-1.16 -6.08,-2.31 -9.48,-2.5 -3.41,-0.21 -7.18,0.55 -10.28,3.08 -3.14,2.49 -5.6,6.78 -7.76,11.4 -2.19,4.59 -4.04,9.55 -5.78,12.38l-0.03 0.06c2.98,-55.9 4.5,-112.19 4.5,-168.82 0,-177.79 -14.9,-352.14 -43.58,-521.93 0.24,-2.25 0.64,-4.35 1.37,-6.11 2.86,-6.9 10.55,-9.03 19.13,-8.7 8.58,0.31 18.09,3.1 29.81,15.97 11.73,12.83 25.72,35.76 39.13,54.19 13.42,18.43 26.25,32.42 43.28,42.21 17.06,9.77 38.32,15.33 59.27,14.51 20.96,-0.85 41.64,-8.09 57.27,-18.98 15.66,-10.91 26.28,-25.45 43.03,-38.86 16.76,-13.42 39.69,-25.7 55.87,-56.14 16.21,-30.47 25.73,-79.07 19.01,-115.96 -6.69,-36.89 -29.63,-62.04 -41.09,-74.6 -11.44,-12.59 -11.44,-12.59 8.67,-12.32 20.13,0.27 60.37,0.85 83.81,-13.69 23.48,-14.53 30.2,-44.12 29.9,-75.69 -0.28,-31.57 -7.51,-65.11 -0.82,-92.21 6.72,-27.1 27.37,-47.78 56.72,-68.46 29.34,-20.68 67.33,-41.36 77.94,-62.86 10.64,-21.53 -6.14,-43.88 -34.36,-55.32 -28.23,-11.46 -67.88,-12.04 -112.89,-2.25 -44.98,9.79 -95.25,29.89 -163.71,82.14 -68.46,52.25 -155.07,136.64 -200.05,178.82 -44.98,42.19 -48.36,42.19 -50.88,41.37 -2.5,-0.86 -4.17,-2.53 -5.02,-7 -0.82,-4.47 -0.82,-11.74 -1.4,-18.7 -0.55,-7 -1.64,-13.72 -4.44,-18.46 -2.8,-4.75 -7.27,-7.55 -11.74,-8.94 -4.47,-1.4 -8.97,-1.4 -13.44,-1.4 -4.47,0 -8.97,0 -13.44,1.4 -4.47,1.39 -8.94,4.19 -11.74,8.94 -2.8,4.74 -3.89,11.46 -4.44,18.46 -0.58,6.96 -0.58,14.23 -1.4,18.7 -0.85,4.47 -2.52,6.14 -5.02,7 -1.18,0.39 -2.52,0.57 -8.15,-3.53 -129.43,-489.55 -375.1,-932.89 -706.26,-1299.93l0.95 -1.34c7.84,-11.44 11.34,-24.06 19.31,-37.5 7.97,-13.41 20.41,-27.64 23.6,-52.52 3.19,-24.88 -2.8,-60.37 -16.85,-83.76 -14.02,-23.38 -36.07,-34.61 -47.08,-40.2 -11.01,-5.63 -11.01,-5.63 2.74,-10.58 13.74,-4.99 41.27,-14.93 53.49,-30.84 12.26,-15.91 9.22,-37.77 0.92,-59.15 -8.31,-21.41 -21.84,-42.37 -24.24,-62.53 -2.37,-20.16 6.35,-39.54 21.01,-61.13 14.66,-21.59 35.22,-45.4 36.92,-62.77 1.71,-17.36 -15.45,-28.25 -37.59,-28.8 -22.14,-0.55 -49.26,9.22 -77.37,27.43 -28.09,18.22 -57.14,44.8 -90.29,97.9 -33.18,53.13 -70.43,132.75 -90.2,172.98l-2.52 5.11c-399.37,-361.96 -892.17,-625.63 -1438.77,-751.94 2.25,-33.02 2.86,-66.32 13.69,-92.99 14.08,-34.86 45.59,-58.46 88.62,-80.45 43.07,-21.95 97.65,-42.3 115.9,-68.94 18.31,-26.64 0.15,-59.64 -35.24,-80.26 -35.44,-20.71 -88.17,-29.01 -150.06,-24.54 -61.83,4.47 -132.65,21.68 -233.87,78.25 -97.19,54.32 -222.34,144.91 -292.32,194.27 -29.5,-2.19 -59.12,-3.95 -88.83,-5.32 -0.37,-1.52 -0.82,-2.95 -1.37,-4.29 -2.83,-6.84 -8.27,-11.43 -13.96,-14.11 -5.66,-2.76 -11.68,-3.62 -17.61,-4.47 -5.96,-0.85 -11.95,-1.7 -18.22,-0.67 -6.2,1.01 -12.7,3.9 -17.33,9.67 -2.43,3.04 -4.35,6.91 -5.93,11.19 -20.62,-0.51 -41.3,-0.76 -62.01,-0.85l-14.87 -18.39c-51.92,-64.81 -151.27,-193.82 -232.53,-276.51 -81.29,-82.69 -144.43,-119.07 -202.55,-140.72 -58.11,-21.65 -111.09,-28.43 -150.87,-18.55 -39.81,9.85 -66.45,36.5 -56.35,67.15 10,30.72 56.69,65.51 91.87,98.69 35.16,33.18 58.76,64.68 62.53,102.06 3.77,37.41 -12.29,80.71 -18.64,122.74 -5.84,38.02 -3.68,74.91 17.85,99.27 -555.75,82.87 -1064.79,305.94 -1488.73,631.38 -6.66,-4.04 -15.6,-6.38 -25.55,-6.63 -22.13,-0.55 -49.26,9.22 -77.36,27.43 -28.1,18.22 -57.15,44.8 -90.29,97.9 -15.51,24.85 -31.94,55.47 -47.02,85.15 -19.28,18.07 -38.35,36.32 -57.18,54.84 -15.11,14.87 -30.1,29.89 -44.92,45.07l-3.62 1.3c-3.04,1.16 -6.08,2.32 -8.75,4.41 -2.71,2.1 -5.02,5.14 -5.72,9.1 -0.21,1.27 -0.27,2.64 -0.18,4.07l-20.81 21.87 -20.28 -8.21c-41.42,-17.15 -122.01,-52.34 -181.99,-70.31 -60,-17.98 -99.35,-18.74 -132.47,-13.84 -33.12,4.86 -59.97,15.45 -76.21,30.5 -16.27,15 -21.96,34.52 -9.19,46.44 12.75,11.89 43.89,16.21 69.16,22.75 25.27,6.54 44.65,15.3 56.17,32.02 11.5,16.7 15.18,41.39 23.11,62.93 7.88,21.56 20.05,39.96 39.75,43.82 19.68,3.86 46.93,-6.84 60.55,-12.2 13.6,-5.35 13.6,-5.35 9.03,6.15 -4.34,10.98 -12.92,32.48 -9.36,57.78 -99.11,124.14 -188.98,255.73 -268.63,393.83 -19.47,-39.74 -43.7,-87.58 -66.06,-123.38 -33.15,-53.1 -62.19,-79.68 -90.26,-97.89 -28.13,-18.22 -55.26,-27.98 -77.4,-27.43 -22.11,0.54 -39.29,11.43 -37.55,28.8 1.67,17.36 22.22,41.17 36.88,62.77 14.66,21.59 23.39,40.96 20.99,61.12 -2.4,20.17 -15.94,41.12 -24.21,62.5 -8.3,21.41 -11.34,43.28 0.91,59.18 12.23,15.91 39.75,25.82 53.53,30.81 13.71,4.99 13.71,4.99 2.71,10.61 -11.01,5.63 -33.06,16.82 -47.08,40.21 -14.05,23.38 -20.04,58.88 -16.85,83.75 3.19,24.88 15.66,39.11 23.6,52.52 7.93,13.45 11.43,26.04 19.31,37.5 7.81,11.41 20.04,21.66 34.09,27.62 3.23,1.36 6.57,2.49 9.92,3.4 -166.85,382.4 -259.3,803.64 -259.3,1246.1 0,33.18 0.58,66.27 1.62,99.21 -55.54,-22.99 -159.7,-68.34 -237.59,-91.7 -79.28,-23.72 -131.25,-24.75 -175.01,-18.27 -43.77,6.42 -79.23,20.37 -100.7,40.23 -21.5,19.86 -29.01,45.68 -12.16,61.34 16.84,15.79 57.99,21.44 91.38,30.08 33.43,8.67 58.97,20.26 74.21,42.33 15.2,22.11 20.07,54.66 30.53,83.12 10.46,28.56 26.52,52.83 52.55,57.93 26.04,5.11 61.93,-9.06 80.02,-16.14 17.91,-7.03 17.91,-7.03 11.89,8.18 -6.05,15.17 -18.13,45.52 -11.62,80.95 6.51,35.4 31.54,75.85 56.42,97.78 24.87,21.86 49.66,25.12 69.28,31.51 19.58,6.35 34.09,15.78 51.82,20.34 17.73,4.47 38.77,3.99 57.9,-2.37l3.32 -1.16c92.42,546.08 327.17,1044.9 665.38,1458.2 1.13,8.64 4.11,16.63 9.55,23.69 6.84,8.88 17.55,16.27 28.8,22.23 9.76,11.5 19.56,22.93 29.47,34.28 -14.29,8.02 -33.67,21.28 -47.05,43.61 -17.24,28.68 -24.57,72.19 -20.65,102.73z"/>
 </g>
</svg>
