<?xml version="1.0" encoding="UTF-8"?>
<!DOCTYPE svg PUBLIC "-//W3C//DTD SVG 1.1//EN" "http://www.w3.org/Graphics/SVG/1.1/DTD/svg11.dtd">
<!-- Creator: CorelDRAW 2020 (64-Bit) -->
<svg xmlns="http://www.w3.org/2000/svg" xml:space="preserve" width="210mm" height="297mm" version="1.1" shape-rendering="geometricPrecision" text-rendering="geometricPrecision" image-rendering="optimizeQuality" fill-rule="evenodd" clip-rule="evenodd"
viewBox="0 0 21000 29700"
 xmlns:xlink="http://www.w3.org/1999/xlink"
 xmlns:xodm="http://www.corel.com/coreldraw/odm/2003">
 <g id="Capa_x0020_1">
  <metadata id="CorelCorpID_0Corel-Layer"/>
  <path id="aro_x0020_12.svg" fill="#A2662E" d="M20303.58 25585.49c-1.26,-13.37 5.21,-36.55 51.65,-57.19 46.42,-20.65 132.82,-38.71 195.25,-44.74 62.44,-6.07 100.92,-0.12 120.42,10.09 19.53,10.17 20.06,24.59 -1.36,38.07 -21.42,13.44 -64.8,25.96 -126.27,38.18 -61.46,12.2 -140.98,24.12 -185.23,28.31 -44.26,4.17 -53.2,0.64 -54.46,-12.72zm35.26 193.9c80.13,-30.24 232.09,-71.51 324.12,-96.73 92.03,-25.2 124.1,-34.37 147.17,-37.5 23.08,-3.14 37.17,-0.22 42.8,8.95 5.65,9.19 2.85,24.62 -29.34,44.99 -32.21,20.38 -93.83,45.69 -168.63,73.39 -74.81,27.71 -162.83,57.83 -226.1,73.88 -63.25,16.06 -101.75,18.06 -128.75,16.01 -26.98,-2.05 -42.44,-8.15 -46.04,-20.83 -3.59,-12.67 4.66,-31.91 84.77,-62.16zm152.53 185.31c-3.49,-12.96 3.67,-19.39 46.6,-30.91 42.94,-11.5 121.61,-28.07 183.48,-38.06 61.87,-9.99 106.89,-13.39 131.66,-8.26 24.78,5.16 29.29,18.86 14.55,35.21 -14.73,16.36 -48.7,35.36 -109.34,51.45 -60.63,16.12 -147.89,29.31 -198.61,26.16 -50.72,-3.15 -64.86,-22.62 -68.34,-35.59zm-1010.2 -160.1c-79.41,-65.46 -155.22,-134.41 -227.32,-206.5 5.25,0.2 11.17,1.22 17.66,3.14 39.71,11.72 100.05,56.71 191.42,90.13 91.37,33.43 213.77,55.31 285.03,42.4 71.28,-12.88 91.43,-60.52 79.13,-124.95 -12.29,-64.42 -57,-145.59 -205.81,-216.27 -148.81,-70.67 -401.69,-130.83 -573.34,-172.13 -55.8,-13.42 -103.01,-24.86 -142.9,-35.08 -28.91,-40.71 -56.85,-82.01 -83.83,-123.93 20.58,-1.69 40.22,-5.55 55.05,-14.67 39.33,-24.17 45,-85.48 10.39,-155.4 -8.53,-17.24 -19.52,-35.01 -32.69,-53.19 -4.05,-5.36 -8.1,-10.72 -31.05,-35.84 -22.95,-25.13 -64.8,-70.02 -98.8,-101.81 -31.74,-29.68 -56.65,-47.95 -81.1,-65.46 -0.01,0.08 -0.02,0.15 -0.03,0.23 -1.72,-1.32 -3.46,-2.65 -5.19,-3.97 -23.94,-18.27 -48.54,-36.29 -72.86,-53.61 -166.54,-390.71 -256.57,-814.16 -259.55,-1245.98 0.91,-47.3 1.82,-94.6 2.73,-141.91 -0.19,0.13 -0.38,0.26 -0.57,0.38 0.32,-8.44 0.66,-16.89 1.05,-25.33 15.7,-347.95 88.32,-699.27 223.42,-1041.39 59.67,-151.12 129.52,-295.2 208.35,-431.84 -1.06,4.7 -2.09,9.42 -3.1,14.17 69.09,-107.92 138.18,-215.84 210.51,-315.4 60.38,-83.11 123.02,-160.4 186.03,-236.72 -1.43,0.15 -2.86,0.3 -4.29,0.47 13.79,-15.39 27.71,-30.64 41.76,-45.73 306.16,-328.95 675.48,-587.25 1080.6,-763 758.79,-329.19 1643.24,-368.91 2473.4,-41.11 830.18,327.8 1448.89,961.07 1778.06,1719.86 258.8,596.54 338.64,1270.76 201.68,1935.19 -8.34,40.45 -17.48,80.85 -27.43,121.21 -0.24,-2.81 -0.5,-5.59 -0.76,-8.36 -6.9,25.33 -15.64,56.39 -27,95.75 -36.91,127.79 -101.57,342.96 -164.36,494.37 -62.77,151.4 -123.67,239.04 -184.56,326.66 -152.59,251.82 -336.32,477.17 -544.07,672.93 4.98,-34.7 11.65,-77.17 16.47,-121.01 8.47,-76.72 11.31,-157.66 6.73,-209.77 -4.57,-52.11 -16.56,-75.37 -52.08,-67.57 -35.51,7.83 -94.56,46.73 -135.56,108.64 -40.97,61.91 -63.92,146.82 -98.87,255.46 -34.96,108.64 -81.92,240.99 -109.85,313.35 -4.79,12.41 -9.03,23.05 -13.04,32.36 -129.8,89.16 -265.77,168.61 -406.63,237.8 -0.96,-20.55 4.96,-55.22 19.94,-85.81 17.11,-34.94 46.01,-64.57 40.29,-91.99 -5.72,-27.4 -46.07,-52.59 -132.41,-31.75 -86.32,20.84 -218.61,87.72 -310.47,177.87 -82.47,80.95 -132.34,180.67 -177.14,245.1 -232.27,64.78 -472.4,103.88 -716.02,115.33 9.96,-5.49 21.54,-11.34 35.05,-17.57 68.79,-31.73 187.26,-73.65 263.11,-109.89 75.86,-36.21 109.11,-66.78 132.19,-93.39 23.1,-26.62 36.02,-49.32 33.96,-75.94 -2.06,-26.62 -19.11,-57.18 -118.7,-61.44 -99.58,-4.24 -281.69,17.83 -430.99,67.4 -149.29,49.6 -265.8,126.71 -346.58,185.48 -47.54,34.59 -82.73,62.82 -111.11,84.81 -149.92,-18.46 -299.91,-47.72 -448.97,-88.14l8.96 -0.51c74.29,-3.75 221.08,-0.07 303.2,-15.3 82.14,-15.2 99.58,-49.36 53.79,-92.6 -45.81,-43.23 -154.86,-95.55 -282.42,-116.15 -127.54,-20.57 -273.6,-9.41 -401.49,-2.33 -107.57,5.96 -202.3,9.05 -288.33,-4.22 -125.71,-62.82 -245.74,-133.02 -359.8,-209.83 10.51,-2.44 24.65,-3.81 43.15,-3.65 60.02,0.53 165.95,17.2 320.96,45.33 155.02,28.12 359.13,67.67 524.81,50.36 165.69,-17.3 292.91,-91.48 366.18,-144.62 73.27,-53.14 92.57,-85.23 84.13,-105.78 -8.44,-20.53 -44.59,-29.51 -66.22,-33.43 -21.62,-3.9 -28.7,-2.72 -5.78,-15.51 22.92,-12.8 75.83,-39.54 112.12,-79.5 36.29,-39.93 55.95,-93.06 37.57,-138.72 -18.38,-45.64 -74.79,-83.77 -133.92,-89.92 -59.12,-6.13 -120.97,19.73 -151.88,32.67 -30.93,12.95 -30.93,12.95 -32.36,-0.19 -1.43,-13.13 -4.29,-39.42 -22.24,-64.38 -17.94,-24.95 -50.96,-48.58 -114.93,-62.6 -63.96,-14 -158.85,-18.37 -246.81,-3.46 -87.95,14.91 -168.97,49.1 -226.6,97.83 -57.62,48.73 -91.86,111.97 -129.56,170.55 -37.68,58.58 -78.84,112.5 -130.44,151.01 -51.62,38.53 -113.69,61.66 -201.84,61.93 -80.68,0.26 -183.18,-18.65 -275.23,-53.62zm-789.7 -512.1c150.56,216.7 326.5,417.18 525.57,596.46l1.92 4.56c51.29,121.53 134.06,327.61 219.28,495.61 85.21,168.01 172.91,297.94 239.07,371.72 66.17,73.78 110.84,91.42 139.38,86.14 28.56,-5.27 41.02,-33.44 33.17,-100.74 -7.84,-67.3 -35.99,-173.71 -78.28,-274.46 -42.27,-100.75 -98.7,-195.84 -138.65,-260.59l-1.67 -2.71c195.5,128.4 406.99,238.83 633.09,328.12 83.24,32.86 166.98,62.29 251.09,88.33 24.55,28.55 51.01,61.24 79.05,97.66 65.19,84.65 139.04,189.25 261.68,289.3 122.65,100.06 294.1,195.55 397.41,242.3 103.32,46.76 138.52,44.78 156.48,22.75 17.97,-22.03 18.7,-64.1 -34.43,-134.07 -53.12,-69.94 -160.09,-167.78 -265.88,-255.22 -78.68,-65.04 -156.71,-124.32 -215.51,-168.34 114.65,21.78 229.51,37.62 344.2,47.61 36.87,14.36 73.61,28.9 109.08,43.2 165.02,66.48 302.46,127.38 433.5,212.88 131.03,85.49 255.66,195.59 374.36,257.01 118.7,61.44 231.48,74.21 304.42,48.73 72.93,-25.47 106.02,-89.16 73.14,-155.09 -32.86,-65.93 -131.71,-134.09 -268.31,-185.38 -136.59,-51.29 -310.97,-85.72 -444.76,-124 -99.61,-28.49 -176.72,-59.1 -226.21,-84.89 118.68,-1.95 236.73,-9.99 353.7,-23.99 21.78,4.51 43.25,9.31 64.01,14.41 137.56,33.81 244.99,80.19 376.76,101.78 131.79,21.6 287.93,18.38 377.74,-16.3 89.8,-34.69 113.31,-100.87 34.15,-140.07 -75.52,-37.4 -244.41,-50.24 -336.08,-61.93 155.23,-43.1 307.18,-96.86 454.7,-160.86 81.24,-35.24 161.09,-73.65 239.46,-114.98 13.01,1.99 26.85,3.98 41.67,5.87 98.94,12.59 241.17,21.1 343.18,5.78 102.02,-15.31 163.81,-54.43 177.91,-98.52 14.08,-44.08 -19.51,-93.07 -102.8,-106.78 -38.31,-6.3 -87.13,-5.12 -135.15,-0.96 111.41,-75.27 218.69,-157.16 321.18,-245.39 96.29,-15.95 228.64,-36.69 316.83,-66.69 106.26,-36.12 148.33,-85.7 163.1,-131.51 14.79,-45.78 2.24,-87.77 -34.62,-101.68 -32.42,-12.21 -83.66,-2.69 -152.22,15.64 278.31,-303.85 506.79,-662.75 667.14,-1068.83 351.75,-890.8 309.11,-1839.94 -44.18,-2654.28 -353.27,-814.33 -1017.21,-1493.92 -1908.04,-1845.68 -890.81,-351.75 -1839.95,-309.11 -2654.29,44.17 -814.34,353.29 -1493.93,1017.25 -1845.68,1908.05 -183.68,465.17 -259.76,946.23 -240.28,1415.7 10.92,117.51 21.84,235.02 32.76,352.53 44.37,306.16 129.41,604.19 251.7,886.06 40.43,93.19 84.96,184.6 133.42,273.97 -4.24,34.63 -13.76,68.73 -21.23,105.5 -13.32,65.55 -20.06,139.65 -14.8,218.5 5.26,78.85 22.56,162.44 44.08,221.91 21.53,59.47 47.29,94.79 78.01,110.88 30.7,16.1 66.33,12.97 88.61,-16.63 22.28,-29.58 31.17,-85.64 31.92,-149.56 0.7,-59.3 -5.65,-125.36 -4.85,-163z"/>
 </g>
</svg>
