<?xml version="1.0" encoding="UTF-8"?>
<!DOCTYPE svg PUBLIC "-//W3C//DTD SVG 1.1//EN" "http://www.w3.org/Graphics/SVG/1.1/DTD/svg11.dtd">
<!-- Creator: CorelDRAW 2020 (64-Bit) -->
<svg xmlns="http://www.w3.org/2000/svg" xml:space="preserve" width="210mm" height="297mm" version="1.1" shape-rendering="geometricPrecision" text-rendering="geometricPrecision" image-rendering="optimizeQuality" fill-rule="evenodd" clip-rule="evenodd"
viewBox="0 0 21000 29700"
 xmlns:xlink="http://www.w3.org/1999/xlink"
 xmlns:xodm="http://www.corel.com/coreldraw/odm/2003">
 <g id="Capa_x0020_1">
  <metadata id="CorelCorpID_0Corel-Layer"/>
  <path id="aro_x0020_16.svg" fill="#A2662E" d="M6428.17 50901.45c32.48,-3.53 64.86,-7.54 97.09,-12.05 18.82,16.84 22.81,26.04 23.1,35.25 0.36,12.24 -5.79,24.53 -11.94,32.98 -6.13,8.46 -12.29,13.07 -16.91,14.99 -4.62,1.92 -7.68,1.17 -34.57,-22.68 -13.65,-12.09 -33.42,-30.09 -56.77,-48.49zm2039.9 -1038.19c133.53,-146.29 253.87,-304.85 359.06,-473.89 6.62,27.72 15.22,55.31 23.5,77.95 13.86,37.65 26.91,61.47 33.44,74.55 6.54,13.05 6.54,15.37 3.84,19.2 -2.66,3.85 -8.07,9.24 -49.2,44.6 -41.11,35.36 -117.96,100.67 -192.9,152.93 -65.84,45.94 -130.24,81.8 -177.74,104.66zm-1207.79 256.7c0,147.72 -117.69,267.48 -262.86,267.48 -145.19,0 -262.87,-119.76 -262.87,-267.48 0,-147.72 117.68,-267.45 262.87,-267.45 145.17,0 262.86,119.73 262.86,267.45zm-4429.25 -2441.07c0,1591.82 1147.37,2915.68 2660.22,3189.71 -4.62,1.75 -9.65,3.51 -15.12,5.28 -54.95,17.69 -154.49,35.34 -212.31,44.18 -57.84,8.83 -73.95,8.83 -93.56,5.76 -19.61,-3.08 -42.67,-9.24 -79.18,-21.92 -36.51,-12.67 -86.45,-31.87 -139.48,-45.33 -53.05,-13.45 -109.15,-21.14 -151.41,-7.32 -42.3,13.86 -70.72,49.22 -81.08,79.19 -10.42,29.98 -2.71,54.57 21.11,75.68 23.82,21.14 63.78,38.84 106.45,43.84 42.66,4.98 88,-2.7 131.43,-14.63 43.43,-11.9 84.93,-28.03 119.52,-34.95 34.59,-6.92 62.27,-4.6 108,-10.75 45.72,-6.16 109.51,-20.78 141.42,-25.76 31.89,-5 31.89,-0.39 2.7,24.97 -29.23,25.38 -87.64,71.49 -124.92,113.74 -37.28,42.28 -53.42,80.73 -50.71,108.39 2.68,27.67 24.21,44.58 56.09,40.34 31.9,-4.22 74.18,-29.57 127.61,-82.99 53.41,-53.41 117.96,-134.9 151.4,-177.57 33.41,-42.64 35.75,-46.49 47.27,-64.56 6.45,-10.1 15.79,-24.64 29.95,-39.79 45.28,6.81 90.86,12.58 136.72,17.5 -35.71,24.91 -82.07,51.98 -118.62,80.34 -49.61,38.43 -81.09,79.15 -88.78,125.64 -7.68,46.52 8.43,98.77 28.42,115.67 19.97,16.92 43.84,-1.49 101.87,-73.77 51.3,-63.88 129.35,-169.84 187.12,-237.9 26.45,1.94 52.99,3.58 79.65,4.88 -11.33,28.74 -24.55,60.08 -31.98,85.07 -13.86,46.51 -7.7,71.08 6.92,81.85 14.61,10.75 37.64,7.68 69.55,-14.61 31.91,-22.28 72.62,-63.79 94.14,-99.54 10.52,-17.44 16.43,-33.51 20.78,-48.81l0.66 0c18.56,0 37.1,-0.15 55.58,-0.47 7.79,16.52 25.17,31.53 49.43,45.07 35.75,19.99 86.46,36.91 142.58,44.96 56.11,8.06 117.57,7.32 148.31,6.94 30.74,-0.38 30.74,-0.38 21.14,16.9 -9.62,17.31 -28.8,51.88 -38.42,69.17 -9.6,17.31 -9.6,17.31 -32.28,1.15 -22.67,-16.12 -68.01,-48.41 -123.36,-70.32 -55.33,-21.88 -120.64,-33.44 -170.63,-24.99 -49.95,8.47 -84.52,36.89 -96.44,78.39 -11.92,41.53 -1.15,96.09 33.04,122.59 34.19,26.53 91.86,24.98 156.38,11.93 64.58,-13.07 136.06,-37.66 171.78,-49.97 35.75,-12.28 35.75,-12.28 19.61,15.39 -16.14,27.66 -48.41,83.01 -66.48,110.28 -18.05,27.29 -21.89,26.53 -51.86,13.46 -30,-13.1 -86.09,-38.43 -145.28,-52.65 -59.18,-14.22 -121.43,-17.31 -170.63,-3.86 -49.17,13.46 -85.3,43.46 -100.26,80.35 -15.02,36.89 -8.86,80.68 8.81,109.5 17.67,28.81 46.9,42.67 87.64,45.75 40.73,3.07 92.99,-4.64 142.94,-21.92 49.96,-17.29 97.63,-44.19 125.26,-55.73 27.68,-11.52 35.38,-7.69 34.98,3.83 -0.39,11.56 -8.82,30.78 -23.04,48.81 -14.24,18.07 -34.21,35 -92.24,66.49 -58.04,31.53 -154.11,77.64 -221.34,133.37 -67.27,55.71 -105.72,121.05 -112.23,167.54 -6.52,46.5 18.82,74.17 53.02,89.54 34.22,15.37 77.24,18.46 121.84,10.76 44.58,-7.69 90.69,-26.13 130.65,-74.94 39.98,-48.82 73.79,-127.97 91.84,-172.55 18.07,-44.58 20.37,-54.56 25.38,-57.63 4.99,-3.08 12.66,0.74 16.51,26.51 3.86,25.74 3.86,73.4 20.38,111.06 16.52,37.66 49.56,65.32 80.68,67.64 31.15,2.32 60.36,-20.76 82.24,-78.41 21.93,-57.63 36.53,-149.87 23.84,-222.13 -12.69,-72.23 -52.62,-124.49 -72.64,-150.63 -19.96,-26.13 -19.96,-26.13 -8.81,-48.03 11.16,-21.91 33.43,-65.7 44.56,-87.63 11.16,-21.88 11.16,-21.88 14.6,-16.9 3.48,5 10.37,14.99 14.23,30.74 3.85,15.76 4.59,37.28 4.59,71.85 0,34.6 -0.74,82.26 10.37,124.9 11.16,42.68 34.23,80.32 64.21,98.4 29.95,18.07 66.85,16.52 88.75,-9.63 21.93,-26.12 28.82,-76.83 20.76,-132.96 -8.05,-56.12 -31.12,-117.58 -61.51,-160.25 -30.33,-42.64 -67.99,-66.48 -86.83,-78.4 -18.82,-11.9 -18.82,-11.9 -11.16,-29.98 7.71,-18.05 23.1,-54.18 31.53,-72.23 8.46,-18.05 10.01,-18.05 13.46,-15.39 3.44,2.7 8.85,8.09 23.82,46.13 14.99,38.04 39.59,108.74 65.33,156.03 25.74,47.26 52.65,71.1 80.32,79.17 27.68,8.07 56.08,0.38 72.98,-19.61 16.92,-19.96 22.33,-52.26 11.94,-94.54 -10.36,-42.26 -36.51,-94.52 -78,-131.42 -41.49,-36.89 -98.39,-58.41 -126.83,-69.21 -28.43,-10.72 -28.43,-10.72 -26.89,-14.96 1.55,-4.24 4.62,-12.67 9.62,-18.44 4.98,-5.77 11.9,-8.83 25.89,-9.02 12.85,-0.17 31.65,2.12 50.98,-0.22 19.65,20.87 39.85,38.81 61.83,51.22 70.71,39.98 159.85,23.08 231.32,-9.21 71.48,-32.28 125.3,-79.94 149.13,-147.58 13.79,-39.15 17.54,-85 19.46,-123.26 21.43,-7.24 42.74,-14.75 63.97,-22.44l2.64 4.28c37.65,61.5 94.54,164.48 147.57,221.36 53.05,56.89 102.23,67.64 144.51,63.02 42.26,-4.6 77.64,-24.59 94.54,-53.8 16.91,-29.21 15.37,-67.64 21.5,-91.46 6.16,-23.82 20.02,-33.06 39.2,-39.98 19.22,-6.89 43.83,-11.51 66.87,-27.67 23.07,-16.12 44.59,-43.79 59.96,-66.08 15.38,-22.27 24.6,-39.2 36.9,-40.75 12.3,-1.54 27.65,12.32 49.94,16.16 22.29,3.83 51.5,-2.32 58.42,-30.74 6.92,-28.42 -8.46,-79.17 -49.97,-129.89 -28.2,-34.48 -68.48,-68.95 -100.58,-96.69 48.21,-29.1 95.58,-59.46 142.12,-90.92 9.34,19.67 20.5,39.51 34.19,58.35 35.74,49.18 88.75,91.46 139.86,123.73 51.12,32.3 100.31,54.56 128.74,49.94 28.44,-4.6 36.15,-36.08 1.15,-97.2 -34.98,-61.1 -112.6,-151.82 -159.1,-210.61 -4.96,-6.24 -9.53,-12.16 -13.79,-17.71 34.17,-25.66 67.8,-51.93 100.91,-78.86 3.26,4.62 6.68,9.67 10.43,15.16 22.29,32.66 55.18,80.28 102.36,123.71 47.19,43.43 108.7,82.6 159.41,104.5 50.75,21.93 90.71,26.53 111.83,15.37 21.16,-11.11 23.46,-38.03 -2.68,-87.6 -26.15,-49.56 -80.71,-121.83 -141.04,-171.39 -49.29,-40.49 -102.4,-65.85 -136.55,-88.03 42.75,-37.92 84.52,-76.85 125.2,-116.92l0.98 2.43c15.37,39.19 39.96,94.52 109.89,143.31 69.95,48.84 185.26,91.1 254.81,112.22 69.55,21.14 93.39,21.14 103.38,5 10,-16.12 6.15,-48.41 -23.08,-92.61 -29.19,-44.19 -83.75,-100.29 -139.87,-133.35 -56.09,-33.04 -113.77,-43.02 -150.28,-49.95 -36.51,-6.93 -51.86,-10.77 -56.48,-14.6 -4.59,-3.85 1.56,-7.68 41.52,-32.67 39.98,-24.98 113.75,-71.09 155.62,-88.01 41.89,-16.91 51.88,-4.6 104.93,26.52 53.03,31.15 149.11,81.09 227.9,98.76 78.77,17.69 140.27,3.07 177.16,-8.45 36.9,-11.52 49.2,-19.99 31.1,-48.43 -18.03,-28.42 -66.48,-76.86 -109.52,-107.6 -43.03,-30.74 -80.69,-43.78 -124.5,-51.11 -43.81,-7.3 -93.76,-8.83 -122.99,-10 -29.18,-1.16 -37.66,-1.9 -41.89,-4.6 -4.22,-2.67 -4.22,-7.31 25.76,-34.6 29.99,-27.27 89.92,-77.21 120.3,-103.35 30.36,-26.13 31.1,-28.45 44.58,-21.53 13.43,6.93 39.57,23.06 86.06,35.72 46.5,12.69 113.39,21.93 163.34,18.08 49.96,-3.83 83,-20.75 107.2,-37.28 24.23,-16.52 39.6,-32.63 33.45,-50.34 -6.15,-17.67 -33.81,-36.9 -66.12,-49.97 -32.25,-13.07 -69.17,-19.96 -111.43,-19.59 -42.26,0.41 -89.95,8.07 -113.76,11.93 -23.81,3.85 -23.81,3.85 5,-27.68 28.82,-31.51 86.49,-94.54 118.38,-126.05 31.89,-31.5 38.05,-31.5 64.17,-26.12 26.14,5.37 72.25,16.14 117.21,14.97 44.97,-1.15 88.76,-14.2 120.67,-30.74 31.91,-16.53 51.88,-36.52 63.4,-54.95 11.56,-18.46 14.62,-35.36 5.77,-49.59 -8.82,-14.2 -29.6,-25.75 -54.18,-32.67 -24.61,-6.9 -53.03,-9.2 -81.09,-6.13 -28.04,3.08 -55.71,11.52 -72.25,12.66 -16.53,1.17 -21.91,-4.98 -11.54,-21.52 10.38,-16.52 36.53,-43.41 55.75,-57.63 19.2,-14.22 31.5,-15.75 62.99,-23.82 31.53,-8.07 82.26,-22.68 117.99,-39.96 35.74,-17.31 56.49,-37.27 62.24,-61.88 5.79,-24.59 -3.42,-53.8 -19.2,-69.95 -15.73,-16.12 -38.04,-19.21 -53.79,-19.21 -15.76,0 -24.98,3.09 -33.83,-6.54 -8.84,-9.6 -17.27,-31.87 -35.36,-48.79 -18.03,-16.9 -45.71,-28.46 -72.23,-23.46 -26.51,5 -51.86,26.53 -66.49,49.58 -14.58,23.06 -18.42,47.67 -16.11,84.15 2.29,36.54 10.75,84.95 14.96,110.31 4.23,25.37 4.23,27.69 -3.07,37.65 -7.3,9.98 -21.9,27.7 -32.67,37.29 -10.75,9.61 -17.68,11.17 -21.15,6.16 -3.44,-5 -3.44,-16.52 -1.93,-35.38 1.55,-18.82 4.64,-44.94 -0.74,-61.08 -5.39,-16.16 -19.23,-22.31 -37.31,-16.16 -18.05,6.16 -40.32,24.59 -53,43.05 -12.69,18.44 -15.76,36.89 -15.76,66.1 0,29.21 3.07,69.17 4.22,91.46 1.15,22.29 0.4,26.91 -36.11,72.25 -36.51,45.35 -108.76,131.44 -149.11,173.69 -40.34,42.29 -48.81,40.76 -53.43,31.9 -4.62,-8.83 -5.36,-24.95 -1.91,-53.42 3.44,-28.44 11.15,-69.16 0.76,-113.74 -7.36,-31.66 -23.82,-65.21 -42.51,-87.24 248.8,-458.77 390.14,-984.28 390.14,-1542.86 0,-1790.39 -1451.45,-3241.85 -3241.83,-3241.85 -1790.41,0 -3241.85,1451.46 -3241.85,3241.85zm2959.84 2675.03c-53.8,5.01 -83.01,25 -84.16,48.82 -1.15,23.82 25.74,51.5 82.62,73.79 56.89,22.29 143.72,39.19 240.56,51.11 94.48,11.64 198.44,18.48 253.07,22.01 -3.56,11.9 -5.52,23.84 -5.84,35.62l-196.03 98.72 -8.21 0c-35.49,0 -70.76,-0.83 -105.93,-2.05 -30.13,-18.63 -70.83,-43.43 -103.06,-61.31 -42.28,-23.42 -69.94,-34.98 -114.92,-47.26 -44.96,-12.31 -107.21,-25.36 -159.07,-28.42 -51.9,-3.09 -93.41,3.81 -114.15,7.26 -20.76,3.49 -20.76,3.49 -23.44,-45.33 -2.68,-48.81 -8.09,-146.4 -15.39,-210.61 -7.3,-64.16 -16.52,-94.9 -48.01,-119.51 -31.53,-24.59 -85.34,-43.03 -126.45,-33.42 -41.13,9.62 -69.55,47.25 -78,80.3 -8.48,33.06 3.08,61.5 8.85,75.72 5.75,14.22 5.75,14.22 -14.22,9.22 -19.99,-5 -59.97,-14.99 -91.86,-3.83 -31.91,11.15 -55.76,43.43 -61.48,78.02 -5.79,34.59 6.51,71.47 47.73,103.27 41.17,31.81 111.27,58.53 178.14,77.75 66.87,19.22 130.53,30.93 162.33,36.79 27.61,5.09 31.23,5.74 31.48,17.6 -173.51,-36.86 -341.45,-88.78 -502.47,-154.16l0.07 2.38c-1024.68,-411.43 -1763.13,-1371.97 -1863.46,-2519.42l-0.04 -0.52c-1.75,-20.05 -3.3,-40.15 -4.66,-60.31 -0.25,-3.64 -0.49,-7.26 -0.73,-10.9 -1.08,-16.94 -2,-33.91 -2.81,-50.92 -0.25,-5.4 -0.54,-10.79 -0.77,-16.2 -0.67,-16.01 -1.17,-32.06 -1.59,-48.14 -0.15,-5.67 -0.36,-11.33 -0.49,-17.01 -0.47,-21.3 -0.7,-42.67 -0.7,-64.09 0,-24.05 0.33,-48 0.91,-71.92 0.09,-3.93 0.19,-7.85 0.3,-11.77l0.06 -1.43c5.46,-196.13 29.8,-387.51 71.1,-572.51l-0.12 0.07c0.99,-4.41 1.98,-8.82 2.98,-13.22 1.18,-5.27 2.42,-10.51 3.64,-15.76 4.39,-18.78 8.96,-37.5 13.7,-56.13 1.43,-5.62 2.87,-11.22 4.33,-16.82 4.73,-18.18 9.63,-36.28 14.7,-54.31 1.67,-5.96 3.36,-11.91 5.07,-17.85 5.07,-17.67 10.31,-35.26 15.7,-52.79 1.89,-6.16 3.81,-12.31 5.74,-18.45 5.42,-17.21 10.98,-34.35 16.7,-51.43 2.11,-6.3 4.24,-12.6 6.39,-18.89 5.04,-14.73 10.19,-29.4 15.45,-44.03l0.03 0.07c83.76,-232.92 195.46,-452.52 331.07,-654.72l0.66 -0.97c3.03,-4.51 6.06,-9.02 9.11,-13.51 11.48,-16.92 23.11,-33.71 34.92,-50.38 1.25,-1.76 2.49,-3.52 3.75,-5.28 10.4,-14.62 20.94,-29.15 31.61,-43.58 2.63,-3.54 5.26,-7.07 7.9,-10.59 34.81,-46.62 71.08,-92.09 108.49,-136.57l0.21 -0.27c0.61,-0.72 1.23,-1.43 1.83,-2.15 15.84,-18.8 31.9,-37.39 48.19,-55.79l4.92 -5.54c15.98,-17.96 32.18,-35.74 48.59,-53.32 1.43,-1.53 2.85,-3.08 4.29,-4.61 44.45,-47.43 90.41,-93.4 137.82,-137.86 2.93,-2.74 5.87,-5.46 8.8,-8.19 15.7,-14.61 31.56,-29.06 47.58,-43.34 3.69,-3.29 7.39,-6.57 11.09,-9.85 15.34,-13.53 30.82,-26.9 46.43,-40.12 4.15,-3.52 8.29,-7.05 12.46,-10.55 15.43,-12.92 31.01,-25.67 46.7,-38.29 4.32,-3.48 8.62,-6.98 12.96,-10.44 9.4,-7.5 18.86,-14.91 28.36,-22.28 5.95,-4.61 11.94,-9.17 17.93,-13.74 13.96,-10.67 28,-21.25 42.16,-31.68 6.47,-4.76 12.97,-9.49 19.47,-14.2 13.63,-9.87 27.33,-19.64 41.13,-29.28 7.07,-4.95 14.17,-9.88 21.3,-14.77 12.65,-8.68 25.38,-17.27 38.17,-25.77 8.45,-5.62 16.94,-11.21 25.45,-16.76 8.63,-5.62 17.29,-11.21 25.99,-16.74 12.83,-8.15 25.72,-16.19 38.68,-24.15 8.42,-5.16 16.86,-10.29 25.33,-15.37 13.46,-8.09 26.95,-16.1 40.55,-23.97 7.9,-4.58 15.85,-9.08 23.8,-13.59 10.97,-6.23 22,-12.39 33.06,-18.49 10.2,-5.61 20.43,-11.17 30.7,-16.66 11.32,-6.07 22.68,-12.06 34.08,-17.99 8.38,-4.36 16.77,-8.7 25.2,-12.97 14.01,-7.11 28.08,-14.09 42.21,-20.98 7.18,-3.5 14.36,-7.01 21.58,-10.46 15.68,-7.49 31.43,-14.84 47.26,-22.06 6.99,-3.19 13.99,-6.34 21,-9.48 16.32,-7.3 32.71,-14.5 49.18,-21.52 6.23,-2.65 12.48,-5.23 18.73,-7.84 15.62,-6.53 31.31,-12.96 47.06,-19.23 6.37,-2.54 12.75,-5.04 19.14,-7.53 15.73,-6.13 31.53,-12.12 47.37,-18.01 5.27,-1.95 10.51,-3.94 15.79,-5.86 18.14,-6.61 36.39,-13.01 54.7,-19.27 5.68,-1.94 11.36,-3.9 17.05,-5.81 18.37,-6.16 36.81,-12.15 55.33,-17.96 5.5,-1.72 11,-3.42 16.5,-5.12 19.01,-5.84 38.08,-11.55 57.24,-17.02 4.59,-1.32 9.2,-2.57 13.79,-3.86 19.74,-5.55 39.55,-10.94 59.45,-16.09 2.85,-0.74 5.71,-1.45 8.56,-2.18 19.74,-5.04 39.56,-9.85 59.45,-14.5 3.73,-0.88 7.45,-1.78 11.18,-2.64 20.54,-4.71 41.17,-9.18 61.87,-13.47 4.44,-0.92 8.89,-1.85 13.34,-2.75 20.58,-4.17 41.23,-8.13 61.96,-11.87 4.37,-0.79 8.74,-1.56 13.12,-2.33 21.19,-3.73 42.44,-7.28 63.77,-10.57 3.3,-0.51 6.6,-0.98 9.9,-1.47 22.57,-3.4 45.2,-6.61 67.93,-9.5 0.69,-0.09 1.39,-0.17 2.07,-0.25 22.61,-2.86 45.31,-5.43 68.07,-7.79 2.88,-0.29 5.76,-0.62 8.64,-0.91 22.18,-2.23 44.45,-4.19 66.77,-5.93 3.83,-0.3 7.66,-0.61 11.5,-0.89 22.09,-1.65 44.24,-3.05 66.47,-4.22 3.75,-0.19 7.51,-0.37 11.27,-0.55 22.64,-1.1 45.33,-1.99 68.09,-2.59 2.76,-0.07 5.52,-0.11 8.28,-0.17 23.96,-0.57 47.97,-0.92 72.06,-0.92 222.85,0 439.96,24.47 648.98,70.49 1347.67,296.71 2356.12,1497.8 2356.12,2934.61 0,11.37 -0.07,22.71 -0.2,34.04l-0.03 2.4c-0.13,11.16 -0.32,22.29 -0.57,33.41l-0.05 1.81c-0.25,10.76 -0.56,21.5 -0.93,32.22l-0.1 3.01c-0.38,10.85 -0.81,21.7 -1.31,32.52l-0.14 2.98c-0.49,10.4 -1.02,20.79 -1.61,31.17l-0.18 3.12c-0.61,10.51 -1.27,21 -1.99,31.48l-0.33 4.7c-0.69,9.81 -1.42,19.61 -2.2,29.39l-0.4 4.96c-0.79,9.73 -1.63,19.44 -2.51,29.14l-0.59 6.34c-0.88,9.38 -1.79,18.74 -2.76,28.1l-0.76 7.24c-0.9,8.63 -1.85,17.26 -2.83,25.88 -0.31,2.71 -0.62,5.42 -0.94,8.13 -1.02,8.82 -2.09,17.62 -3.2,26.42 -0.4,3.18 -0.81,6.37 -1.22,9.55 -0.98,7.57 -1.98,15.12 -3.01,22.66 -0.54,3.91 -1.07,7.81 -1.62,11.7 -1.03,7.36 -2.1,14.71 -3.19,22.05 -0.63,4.28 -1.28,8.56 -1.93,12.83 -0.99,6.48 -2,12.95 -3.03,19.41 -0.88,5.51 -1.77,11.02 -2.69,16.52 -0.92,5.62 -1.86,11.24 -2.82,16.84 -0.98,5.73 -1.98,11.45 -2.99,17.16 -0.85,4.8 -1.72,9.6 -2.59,14.4 -1.27,6.94 -2.55,13.89 -3.86,20.82 -0.62,3.25 -1.25,6.5 -1.87,9.74 -1.78,9.25 -3.61,18.48 -5.47,27.69l-1.17 5.7c-105.44,515.4 -342.8,982.76 -675.3,1365.21l0.01 -0.37 -1.15 1.33c-6.5,-19.52 -17.38,-23.4 -32.62,-18.5 -18.26,5.87 -42.85,24.29 -72.08,53.11 -29.19,28.83 -63.02,68.04 -86.07,100.7 -23.06,32.65 -35.36,58.79 -47.65,94.52 -2.32,6.72 -4.66,13.82 -7,21.1 -66.85,60.88 -136.4,118.77 -208.53,173.46 22.79,-85.71 28,-178.17 28,-236.31 0,-70.72 -7.69,-90.69 -39.98,-79.15 -32.25,11.52 -89.15,54.56 -127.58,104.5 -38.43,49.97 -58.4,106.88 -68.4,135.28 -10.01,28.46 -10.01,28.46 -32.3,17.68 -22.27,-10.75 -66.87,-32.27 -89.16,-43.04 -22.26,-10.75 -22.26,-10.75 8.48,-27.67 30.74,-16.91 92.24,-50.72 139.1,-112.22 46.9,-61.48 79.19,-150.61 76.1,-219.8 -3.06,-69.17 -41.51,-118.37 -93.77,-148.34 -52.25,-29.98 -118.37,-40.73 -151.41,-46.11 -33.04,-5.39 -33.04,-5.39 -29.97,-26.91 3.08,-21.53 9.22,-64.55 -4.62,-105.3 -13.82,-40.72 -47.64,-79.17 -104.53,-95.31 -56.88,-16.13 -136.78,-9.98 -191.36,26.15 -54.57,36.12 -83.78,102.22 -98.38,135.27 -14.6,33.06 -14.6,33.06 -39.98,-13.08 -21.69,-39.44 -61.93,-112.59 -118.35,-156.02 -4.62,-3.56 -9.36,-6.92 -14.19,-10.05 0.34,-0.26 0.7,-0.49 1.06,-0.75 -4.34,-3.17 -9.3,-6.32 -15.46,-9.47 -13.11,-6.7 -31.56,-13.37 -59.99,-14.65 -28.44,-1.3 -66.86,2.77 -94.8,9.16 -27.95,6.43 -45.42,15.16 -62.88,23.91 -2.52,1.59 -4.98,3.23 -7.37,4.94 -57.65,40.72 -79.17,103.78 -89.94,133.73 -10.75,29.98 -10.75,26.91 -26.89,21.5 -16.14,-5.36 -48.43,-13.05 -74.58,15.37 -26.11,28.47 -46.08,93.01 -39.19,157.58 6.92,64.57 40.75,129.12 57.65,161.39 16.91,32.28 16.91,32.28 -11.51,26.91 -28.45,-5.36 -85.33,-16.14 -133.74,-14.61 -48.43,1.54 -88.39,15.4 -112.98,44.58 -24.6,29.21 -33.83,73.79 -29.23,110.68 4.63,36.9 23.08,66.11 32.3,79.92 9.22,13.84 9.22,12.33 -10.77,21.55 -19.97,9.21 -59.93,29.2 -90.67,73.02 -30.74,43.81 -52.27,111.42 -33.06,166.77 19.22,55.33 79.17,98.38 165.24,117.59 86.09,19.21 198.28,14.62 254.38,12.3 56.11,-2.3 56.11,-2.3 2.32,21.52 -53.8,23.84 -161.39,71.49 -221.53,132.37 -8.67,8.79 -16.35,17.86 -23.04,27.12 -91.6,-36.02 -195.68,-78.42 -281.9,-105.4 -104.55,-32.65 -182.96,-42.64 -236.75,-37.66z"/>
 </g>
</svg>
