<?xml version="1.0" encoding="UTF-8"?>
<!DOCTYPE svg PUBLIC "-//W3C//DTD SVG 1.1//EN" "http://www.w3.org/Graphics/SVG/1.1/DTD/svg11.dtd">
<!-- Creator: CorelDRAW 2020 (64-Bit) -->
<svg xmlns="http://www.w3.org/2000/svg" xml:space="preserve" width="210mm" height="297mm" version="1.1" shape-rendering="geometricPrecision" text-rendering="geometricPrecision" image-rendering="optimizeQuality" fill-rule="evenodd" clip-rule="evenodd"
viewBox="0 0 21000 29700"
 xmlns:xlink="http://www.w3.org/1999/xlink"
 xmlns:xodm="http://www.corel.com/coreldraw/odm/2003">
 <g id="Capa_x0020_1">
  <metadata id="CorelCorpID_0Corel-Layer"/>
  <path id="aro_x0020_11.svg" fill="#A2662E" d="M6357.07 24637.84c30.07,95.07 65.32,189.06 105.63,280.84 68.95,156.97 152.42,307.29 242.29,446.97 104.66,162.67 218.42,311.63 328.17,440.21 31.36,36.76 62.4,71.84 93.09,105.35 -106.68,-70.12 -208.16,-143.47 -301.86,-222.58 -123.9,-104.62 -235.08,-220.09 -333.82,-345.63 -100.46,-127.73 -187.84,-265.51 -262.48,-412.52 -9.15,-18.04 -18.11,-36.22 -26.89,-54.53 9.26,-8.05 17.49,-15.21 24.49,-21.23 44.09,-37.93 38.68,-30.2 53.66,-54.59 14.98,-24.37 50.37,-80.86 67.76,-122.61 6.49,-15.59 10.48,-29.13 9.96,-39.68zm1313.76 1774.5c243.63,138.52 492.07,279.79 766.01,396.56 -49.37,-6.7 -99.52,-15.03 -150.64,-24.9 -120.46,-23.23 -245.64,-54.91 -378.31,-93.96 -133.38,-39.25 -273.93,-85.74 -417.87,-146.56 -143.69,-60.71 -292.12,-136.16 -442.36,-233.7 -157.29,-102.09 -316.42,-228.33 -454.41,-365.29 -124.15,-123.23 -230.69,-254.59 -302.39,-383.86 -73.86,-133.17 -111.21,-265.9 -130.28,-398.36 -2.03,-14.1 -3.86,-28.22 -5.51,-42.33 64.03,112.06 135.34,218.35 214.11,318.48 104.91,133.37 223.32,256.31 355.57,367.98 249.86,210.95 546.13,379.01 850.31,551.55l95.77 54.39zm-1266.74 -3506.43c-55.01,152.06 -99.81,306.09 -130.31,464.33 -16.45,85.35 -28.77,172.11 -36.31,260.65 -14.21,15.42 -25.37,37.26 -31.56,58.67 -6.86,23.72 -7.64,46.9 7.43,74.34 4.17,7.58 9.55,15.49 15.97,23.27 -0.52,26.39 -0.6,52.94 -0.22,79.68 2.41,172.96 23.86,352.62 63.69,531.77 16.83,75.67 36.91,151.24 60.2,226.15 -6.34,-8.93 -20.47,-12.97 -45.8,-10.54 -40.67,3.9 -110.24,24.49 -190.65,63.61 -28.6,-75.97 -53.53,-153.93 -74.15,-233.72 -40.5,-156.78 -64.57,-320.87 -67.41,-491.24 -2.87,-171.76 15.96,-351.31 51.43,-530.64 30.38,-153.63 72.85,-306.2 124.26,-452.87 28.35,-6.06 54.09,-13.18 76.18,-20.63 62.99,-21.27 96.24,-45.23 116.72,-58.37 20.49,-13.14 28.22,-15.46 36.37,-11.58 6.11,2.9 12.45,9.27 24.16,27.12zm202.9 -454.72c-49.38,90.75 -93.14,182.36 -132.32,274.68 -8.56,0.23 -16.2,1.4 -23.26,2.95 -24.74,5.4 -42.52,15.45 -51.02,15.84 -8.51,0.39 -7.73,-8.89 -23.66,-31.61 -15.59,-22.21 -47.15,-57.28 -88.06,-80.57 39.75,-84.51 82.13,-166.3 126.4,-244.99 90.67,-161.14 188.71,-308.14 287.85,-438.2 94.05,-123.39 189.07,-231.6 297.94,-332.6 108.5,-100.66 231.68,-194.84 382.49,-290.6 156.93,-99.66 342.89,-200.45 537.11,-288.38 81.71,8.8 166.1,13.33 240.47,13.45 -132.24,60.55 -261.44,128.21 -386.06,204.15 -168.25,102.51 -328.49,220.27 -475.27,347.45 -149.48,129.51 -285.01,268.85 -400.86,411.87 -115.15,142.14 -210.89,287.94 -291.75,436.56zm1748.47 -1562.55c-7.62,-3.86 -15.52,-7.66 -23.68,-11.39 46.67,-15.08 92.99,-28.87 138.66,-41.17 184.25,-49.64 358.36,-75.23 519.27,-86.87 21.27,-1.54 42.32,-2.83 63.11,-3.91 -64.78,15.98 -129.34,33.27 -193.69,51.66 -143.2,40.9 -286.47,87.61 -428.27,141.52 -17.11,-16.95 -43.92,-33.9 -75.4,-49.84zm3167.11 405.31c0.8,36.16 4.66,69.78 10.63,99.42 -93.69,-72.4 -190.98,-139.96 -291.51,-202.67 -157.2,-98.06 -323.04,-184.52 -485.2,-258.46 -53.32,-24.3 -106.07,-47.19 -157.88,-68.66 147.75,37.74 293.6,88.49 436.37,152.22 169.76,75.79 335.08,169.99 487.59,278.15zm625.24 714.49c-126.05,-163.63 -264.58,-312.7 -413.85,-447.38 -11.22,-10.13 -22.51,-20.17 -33.87,-30.15 8.77,-4.33 17.59,-9.43 26.54,-14.93 12.45,-7.66 25.16,-16.12 38.43,-28.06 57.02,51.53 110.91,105.09 161.06,160.35 114.47,126.14 209.27,261.1 285.6,402.05 26.42,48.8 50.65,98.3 72.72,148.37 -43.65,-65.17 -89.24,-128.73 -136.63,-190.25zm223.62 2488.63c-1.69,18.03 -3.55,36.01 -5.59,53.9 -14.43,127.21 -37.71,250.07 -70.57,372.41 -6.86,25.59 -14.15,51.15 -21.85,76.7 -32.22,-10.15 -67.66,-17.96 -106.56,-24.26 28.72,-56.96 56.72,-116.03 83.83,-177 42.67,-95.97 83.13,-196.82 120.74,-301.75zm-546.9 760.17c-149.87,221.58 -326,414.27 -531.98,584.41 -120.34,99.4 -264.03,200.99 -408.73,293.86 -38.57,-33.68 -84.8,-55.74 -137.15,-54.78 -42.14,0.77 -88.51,16.23 -134.51,41.74 -45.99,25.51 -91.6,61.07 -109.78,108.23 -14.11,36.65 -11.64,80.31 3.22,126.07 -254.49,134.31 -483.29,225.53 -756.71,303.03 -143.86,40.78 -284.2,72.8 -414.96,98.79 -103.77,20.63 -200.73,37.35 -293.5,49.28 15.67,-66.13 22.48,-142.52 1.76,-209.5 -19.75,-63.88 -64.6,-119.54 -120.25,-176.74 -55.66,-57.21 -122.13,-115.95 -168.52,-141.46 -46.39,-25.51 -72.66,-17.78 -90.44,34.01 -17.78,51.8 -27.06,147.65 6.95,229.58 53.5,128.88 209.46,220.02 244.48,271.47 -70.06,-20.2 -139.09,-42.19 -206.34,-65.99 -24.9,-8.81 -49.56,-17.89 -74.04,-27.19 -163.04,-74.57 -326.05,-149.2 -482.5,-227.96 -165.26,-83.17 -306.75,-163.71 -461.07,-277.83 -192.65,-142.46 -370.62,-312.05 -540.13,-510.65 -136.69,-160.15 -273.24,-345.74 -388.84,-542.45 34.14,25.68 65.79,46.78 91.94,63.31 67.26,42.52 98.17,54.89 118.27,32.47 20.1,-22.42 29.38,-79.62 -13.14,-169.3 -42.52,-89.66 -136.82,-211.8 -218.77,-316.16 -81.94,-104.36 -151.51,-190.94 -207.93,-229.59 -17.75,-12.15 -34.18,-19.57 -49.22,-23.28 -63.53,-221.68 -98.88,-453.83 -99.75,-677.03 49.76,-9.54 80.07,-39.97 94.45,-86.83 9.66,-31.5 10.44,-65.9 -2.13,-94.5 -14.34,-32.64 -45.14,-56.9 -79.47,-66.22 19.45,-180.85 59.92,-355.72 115.84,-528.42 49.36,59.09 116.36,112.42 167.36,145.57 13.66,8.88 25.97,16.14 37.16,22.01 22.55,5.1 45.11,10.19 59.75,12.97 23.04,4.37 33.08,4.62 46.84,-14.45 6.98,-9.68 15.07,-24.79 16.43,-48.34 1.82,-31.53 -9.45,-87.69 -15.25,-114.23 -12.72,-52.57 -35.31,-114.98 -77.94,-170.71 -34.97,-45.74 -83.43,-86.98 -128.16,-117.21 102.08,-240.11 231.11,-462.2 400.54,-671.35 226.87,-280.06 523.29,-533.84 836.88,-724.91 234.27,-142.75 485.04,-255.06 743.05,-345.44 -20.19,32.14 -42.17,73.24 -65.38,125.41 -39.04,87.74 -81.55,206.78 -96.63,291.82 -15.07,85.03 -2.7,136.04 25.12,152.67 27.83,16.62 71.12,-1.17 118.67,-65.33 83.68,-112.93 192.89,-391.99 225.33,-521.79 5.79,-23.15 8.77,-40.27 8.97,-53.17 228.03,-68.97 462.75,-125.74 693.53,-158.34 8.51,10.11 18.24,18.73 29.2,25.23 35.18,20.87 83.1,20.09 115.19,0.76 18.14,-10.93 31.21,-27.79 41.09,-47.1 40.85,-3.48 81.65,-6.15 122.41,-7.97 111.4,19.16 226.58,47.51 361.62,90.11 322.48,101.74 678.21,257.91 982.79,447.93 108.95,67.98 213.97,141.93 314.55,221.91 -86.85,-2.39 -200.03,18.13 -290.86,64.82 -96.24,49.47 -167.36,128.31 -186.3,187.07 -18.94,58.75 14.3,97.39 73.83,125.62 59.52,28.21 145.32,45.98 237.31,41.35 92,-4.64 190.17,-31.7 254.72,-93.92 50.16,-48.35 80,-117.95 85.02,-176.67 286.56,262.39 513.64,564.59 697.68,908.88 36.43,68.15 70.71,137.3 102.7,206.95 2.37,19.48 4.51,38.97 6.42,58.48 -13.67,13.61 -24.66,28.46 -31.45,44.13 -21.92,50.53 -0.24,109.42 43.26,147.13 6.54,241.32 -17.21,489.21 -60.81,724.92 -30.37,-144.98 -75.63,-246.81 -125.22,-343.08 -11.99,-23.28 -36.34,-68.33 -56.53,-81.93 -10.13,-6.83 -19.39,-5.95 -24.24,-0.43 -4.85,5.51 -5.29,15.65 -1.67,32.1 3.63,16.45 11.32,39.21 19.01,61.97 54.11,102.6 104.6,213.97 134.41,374.89 7.44,40.1 13.61,83.3 18.5,128.83 -31.26,136.09 -68.52,267.25 -110.19,392.58 -70.11,210.92 -156.99,419.01 -257.7,610.74 -86.05,-5.52 -172.86,-5.7 -234.78,1.36 -12.13,1.38 -23.29,3.04 -33.54,5 -35.76,9 -71.53,18 -84.74,37.7 -13.2,19.71 -3.84,50.12 5.52,80.53 19.42,51.13 68.75,114.6 149.48,163.17 6.47,3.89 13.15,7.69 20,11.39zm314.88 99.51c-46.01,103.17 -98.6,208.01 -155.25,310.49 -69.65,126.01 -145.42,248.21 -222.54,359.02 -76.05,109.27 -153.21,207.16 -233.15,292.89 -79.74,85.52 -162.25,159.09 -249.15,219.91 -86.78,60.75 -178.6,109.24 -280.26,151.58 -102.06,42.51 -214.29,78.84 -341.42,115.13 -128.89,36.79 -271.13,73.11 -420.04,109.16 -90.67,21.96 -186.04,44.33 -283.2,66.88 -35.79,-1 -72.22,-2.62 -109.48,-4.89 -48.77,-2.97 -98.99,-7.02 -150.32,-12.17 -20.03,-21.34 -45.33,-32.62 -69.4,-35.41 -25.32,-2.94 -49.28,3.5 -72.86,11.23 -5.07,1.65 -10.11,3.39 -15.07,5.47 -64.53,-8.87 -130.2,-19.35 -196.43,-31.41l22.68 -4.46c133.59,-26.55 277.76,-59.49 427.04,-101.81 149.48,-42.36 303.39,-94 455.85,-157.82 114.45,-47.91 227.88,-102.56 337.23,-160.46 21.93,23.12 47.78,42.61 77.6,55.23 65.71,27.84 150.75,22.42 210.27,-15.46 59.53,-37.88 93.54,-108.22 103.2,-167.35 5.98,-36.63 2.63,-68.95 -6.12,-97.9 39.45,-25.32 77.51,-50.43 113.92,-75.07 116.85,-79.07 217.59,-153.81 308.49,-228.9 90.67,-74.91 171.81,-150.55 249.64,-231.57 77.75,-80.93 151.49,-166.56 221.71,-259.44 36.84,-48.72 72.87,-99.64 108.15,-153.1 58.54,18.16 118,31.5 168.91,40.23zm508.82 -500.93c-49.02,195.34 -115.82,387.42 -199.83,565.03 -84.59,178.85 -186.62,343.21 -303.66,492.68 -120.22,153.51 -256.58,291.76 -406.49,414.26l-0.3 0c-142.29,116.3 -296.5,218.32 -452.88,304.72 -170.94,94.46 -344.41,170.44 -507.79,226.2 -155.5,53.08 -302.05,87.85 -452.68,106.72 -20.55,2.58 -41.18,4.85 -61.92,6.85 147.75,-35.87 287.6,-71.6 411.88,-107.09 129.01,-36.82 243.32,-73.87 348.19,-117.54 105.27,-43.86 200.85,-94.41 291.84,-158.11 90.89,-63.61 176.65,-139.98 259.06,-228.36 82.25,-88.2 161.22,-188.32 238.7,-299.65 78.12,-112.24 155.05,-236.33 225.93,-364.58 60.06,-108.68 115.89,-220.63 164.51,-331.15 75.53,8.25 126.5,3.25 175.33,-10.56 58.76,-16.62 114.41,-46 120.59,-101.66 6.19,-55.66 -37.1,-137.59 -103.2,-190.94 -19.44,-15.68 -40.84,-28.89 -64.38,-40.11 8.44,-27.74 16.37,-55.47 23.82,-83.2 33.59,-125.11 57.43,-250.99 72.25,-381.59 10.65,-93.82 16.62,-190.22 18.12,-284.68 33.56,-111.15 63.36,-225.14 88.39,-341.27 32,-148.53 56.66,-302.42 71.93,-460.57 6.94,-71.74 11.89,-144.15 14.51,-216.93 45.07,146.08 78.49,290.8 99.7,437.21 26.16,180.47 34.06,364.13 22.78,556.75 -11.52,196.83 -43.2,403.57 -94.4,607.57zm141.19 868.53c3.87,-117.49 -8.51,-228.81 -30.69,-300.31 -22.16,-71.49 -54.14,-103.18 -93.56,-103.18 -1.7,0 -3.4,0.07 -5.12,0.19 55.41,-138.39 101.47,-282.39 137.96,-427.79 53.4,-212.76 86.49,-429.39 98.62,-636.56 4.61,-78.72 6.19,-156 4.79,-232.2 8.58,-0.12 17.06,-0.87 25.26,-2.37 46.77,-8.5 84.64,-40.97 100.49,-76.53 15.85,-35.56 9.67,-74.2 -18.1,-108.05 -27.77,-33.84 -77.12,-62.86 -121.18,-67.11l-2.52 -0.22c-3.65,-33.61 -7.89,-67.09 -12.73,-100.45 -27.62,-190.69 -74.36,-377.41 -139.18,-566.33l-3.83 -11.09c13.82,-7.47 25.77,-17.56 37.47,-30.71 27.83,-31.31 54.1,-80.01 50.24,-125.23 -3.87,-45.23 -37.88,-86.97 -79.34,-114.95 -35.83,-24.19 -77.22,-38.06 -128,-31.39 -3.71,-8.34 -7.45,-16.67 -11.23,-25 -12.99,-98.81 -31.72,-197.2 -57.09,-294.44 -44.27,-169.7 -108.47,-335.32 -194.07,-493.39 -82.29,-151.98 -184.32,-297.27 -307.35,-432.85 -58.41,-64.37 -121.62,-126.56 -188.73,-186.12 30.07,-64.17 59.86,-147.06 76.09,-223.4 20.88,-98.17 19.33,-185.53 -13.91,-252.78 -33.24,-67.25 -98.18,-114.4 -151.52,-114.4 -53.34,0 -95.08,47.15 -136.83,127.93 -31.86,61.67 -63.72,142.94 -83.21,224.7 -140.84,-93.94 -290.8,-176.68 -444.36,-245.23 -177.07,-79.04 -359.15,-139.27 -544.22,-180.62 -186.17,-41.61 -375.24,-64.01 -565.13,-67.21 -54.07,-0.9 -108.18,-0.26 -162.3,1.84l-1.97 -0.33c-37.03,-6.09 -73.82,-11.29 -110.9,-15.74 -8.66,-18.84 -22.47,-34.47 -40.97,-45.67 -26.63,-16.14 -62.97,-23.09 -90.8,-23.86 -27.83,-0.78 -47.15,4.64 -66.05,13.86 -15.12,7.38 -29.97,17.2 -40.25,36.08 -11.55,-0.6 -23.22,-1.17 -35.01,-1.71 -138.2,-6.32 -293.2,-8.69 -461.35,3.48 -169.94,12.3 -353.77,39.31 -548.27,91.7 -116.19,31.29 -236.09,71.65 -355.51,118.2 -84.09,-13.17 -178.68,-21.18 -266.92,-24.69 -106.68,-4.25 -204.07,-1.94 -267.46,10.44 -63.39,12.36 -92.77,34.78 -107.84,56.04 -15.07,21.25 -15.84,41.35 41.75,73.05 38.54,21.21 103.24,47.63 187.58,70.64 -129.88,66.03 -252.56,135.84 -361.56,205.06 -23.6,14.98 -46.57,29.94 -68.97,44.92 -5.89,-13.09 -14.48,-25.58 -27.24,-37.31 -23.96,-22.04 -62.62,-41.36 -100.87,-45.23 -38.27,-3.86 -76.16,7.73 -106.68,32.08 -30.54,24.35 -53.73,61.46 -60.3,95.09 -6.57,33.62 3.47,63.77 32.08,89.28 11.8,10.52 26.74,20.25 43.69,27.8 -40.63,33.21 -79.34,66.95 -116.55,101.48 -115.7,107.34 -216.26,221.78 -315.45,351.92 -103.65,135.97 -205.86,289.13 -299.93,456.33 -49.97,88.81 -97.8,181.97 -142.52,279.01 -38.26,-3.93 -68.95,-3.9 -89.36,-4.9 -22.27,-1.09 -32.32,-3.41 -85.65,7.03 -53.35,10.43 -149.98,33.62 -226.9,63.38 -76.91,29.76 -134.12,66.1 -167.35,99.73 -33.25,33.62 -42.53,64.54 -22.04,95.46 20.49,30.92 70.73,61.85 147.65,87.75 76.91,25.89 180.5,46.76 278.68,47.92l8.83 0.05c-43.58,132.53 -79.91,268.66 -106.92,405.2 -37.21,188.14 -56.92,378.34 -53.84,562.66 3.06,183.32 28.85,359.5 72.25,527.47 24.26,93.87 53.96,185.13 88.26,273.6 -108.95,73.88 -218.06,171.68 -274.46,234.35 -62.62,69.57 -60.31,95.85 -40.98,122.13 19.32,26.29 55.66,52.56 113.22,43.74 55.67,-8.54 131.23,-49.94 214.12,-110.37 3.2,45.82 7.78,91.74 14.41,137.79 21.46,149.08 63.94,299.25 148.39,451.51 79.09,142.61 194.66,285.57 328.37,418.29 145.58,144.48 313.37,277.61 479.15,385.22 158.17,102.68 314.75,182.25 466.52,246.38 151.54,64.02 297.04,112.24 434.19,152.61 137.86,40.57 267.82,73.46 392.79,97.57 20.21,3.9 40.32,7.57 60.33,11.01 -103.96,21.29 -181.65,48.82 -225.04,78.76 -54.89,37.88 -54.89,79.63 -13.14,105.14 41.74,25.5 125.23,34.78 246.59,23.96 121.36,-10.83 280.61,-41.74 387.29,-82.72 82.71,-31.76 133.81,-69.57 164.21,-93.18 12.53,-0.79 25.09,-1.68 37.68,-2.66 104.64,28.99 210.78,54.04 316.24,75.16 81.96,16.41 163.74,30.49 244.29,42.24 2.23,22.11 9,43.2 22.57,59.35 34.41,40.97 112.48,50.25 159.24,44.45 46.77,-5.79 62.24,-26.67 71.89,-51.79 2.67,-6.94 4.9,-14.18 6.62,-21.73 33.79,2.9 67.12,5.35 99.89,7.34 182.92,11.13 347.46,7.96 507.47,-12.08 160.9,-20.16 317.4,-57.3 483.47,-113.98 171.82,-58.65 353.79,-138.29 532.55,-237.07 164.85,-91.1 327.12,-198.38 476.44,-320.42l-0.12 -0.15c158.55,-129.61 302.96,-276.05 430.47,-438.88 56.11,-71.66 108.92,-146.42 158.19,-224.25 17.87,46.28 44.59,103.67 72.1,155.94 38.65,73.44 78.86,136.83 120.6,160.02 41.75,23.2 85.04,6.18 116.73,-64.17 31.69,-70.34 51.8,-194.03 55.66,-311.53z"/>
 </g>
</svg>
