<?xml version="1.0" encoding="UTF-8"?>
<!DOCTYPE svg PUBLIC "-//W3C//DTD SVG 1.1//EN" "http://www.w3.org/Graphics/SVG/1.1/DTD/svg11.dtd">
<!-- Creator: CorelDRAW 2020 (64-Bit) -->
<svg xmlns="http://www.w3.org/2000/svg" xml:space="preserve" width="210mm" height="297mm" version="1.1" shape-rendering="geometricPrecision" text-rendering="geometricPrecision" image-rendering="optimizeQuality" fill-rule="evenodd" clip-rule="evenodd"
viewBox="0 0 21000 29700"
 xmlns:xlink="http://www.w3.org/1999/xlink"
 xmlns:xodm="http://www.corel.com/coreldraw/odm/2003">
 <g id="Capa_x0020_1">
  <metadata id="CorelCorpID_0Corel-Layer"/>
  <path id="aro_x0020_13.svg" fill="#A2662E" d="M576.83 38929.84c-2.08,-11.59 -3.27,-35.93 -8.02,-57.6 -4.75,-21.68 -13.06,-40.69 -21.96,-53.46 -8.93,-12.77 -18.43,-19.31 -9.51,-19 8.9,0.28 36.22,7.42 61.77,16.91 25.53,9.5 49.28,21.39 68.61,37.43 19.29,16.04 34.12,36.22 40.35,53.76 6.25,17.52 3.86,32.34 0.31,37.41 -3.56,5.03 -8.32,0.28 -19.3,-5.34 -10.99,-5.65 -28.2,-12.2 -42.17,-14.86 -13.96,-2.67 -24.64,-1.49 -34.44,1.48 -9.8,2.98 -18.71,7.73 -24.65,10.71 -5.93,2.94 -8.91,4.14 -10.99,-7.44zm-1975.6 -5589.45c-64.97,42.85 -129.94,85.69 -194.91,128.54 -251.12,144.47 -481.72,319.67 -686.36,520.34 -615.57,603.64 -996.34,1437.56 -996.34,2358.63 0,81.74 3.05,162.78 8.96,243.05 -23.87,-157.87 -36.29,-319.51 -36.29,-484.03 0,-888.92 361.24,-1693.54 945.23,-2275.78 493.96,-492.47 1147.44,-826.06 1876.64,-917.36 -329.14,96.62 -637.53,241.58 -916.93,426.61zm4921.23 3007.51c0,-786.02 -277.35,-1508.54 -741.24,-2078.69 -131.1,-202.12 -283.14,-389.47 -453.15,-558.96 -230.58,-229.9 -494.11,-426.93 -782.92,-583.43 462.98,161.31 877.81,424.69 1217.29,763.15 584,582.22 945.24,1386.85 945.24,2275.77 0,869.68 -345.83,1658.65 -907.7,2237.62 452.63,-566.48 722.48,-1280.09 722.48,-2055.46zm-1860.4 2672.69c243.29,-144.54 466.95,-318.51 666.01,-517 615.38,-613.51 996.01,-1460.92 996.01,-2396.67 0,-75.32 -2.49,-150.04 -7.34,-224.13 22.81,151.8 34.68,307.09 34.68,465.11 0,873.64 -361.1,1664.57 -944.91,2237.04 -190.06,186.38 -403.77,349.59 -636.32,485 -7.4,-3.5 -15.05,-7.01 -22.82,-10.45 -11.25,-13.24 -42.2,-24.19 -85.31,-38.9zm-153.75 -5719.04c-423.16,-185.59 -891.98,-288.81 -1385.28,-288.81 -133.92,0 -266.01,7.63 -395.9,22.44 241.34,-57.39 493.17,-87.84 752.16,-87.84 22.29,0 44.49,0.28 66.67,0.72 343.37,66.72 667.26,187.63 962.35,353.49zm-558.9 6222.39c9.51,-87.3 2.37,-191.81 -1.19,-248.23 -3.57,-56.42 -3.57,-64.74 17.82,-79 21.38,-14.25 64.12,-34.44 97.98,-46.32 33.86,-11.87 58.78,-15.44 85.52,-11.27 26.72,4.16 55.23,16.03 105.7,25.53 50.47,9.5 122.93,16.64 200.74,10.7l9.88 -0.82c10.64,-0.27 24.35,-1.05 42.71,-2.05 21.62,-1.19 49.71,-2.75 80.29,-4.55 -16.3,8.15 -32.65,16.17 -49.1,24.05 -15.25,4.59 -29.5,11.37 -42.47,19.99 -41.88,27.89 -69.37,74.89 -69.37,128.15 0,66.82 43.27,123.76 103.9,145.53 -2.63,6.98 -10.61,13.12 -29.33,25.52 -35.51,23.5 -109.61,69.51 -151.4,91.93 -41.8,22.39 -51.3,21.21 -57.24,12.9 -2.94,-4.09 -5,-9.96 -6.98,-18.19 54.56,-24.5 92.44,-78.37 92.44,-140.89 0,-85.6 -70.99,-155 -158.54,-155 -87.56,0 -158.57,69.4 -158.57,155 0,70.22 47.79,129.52 113.31,148.56 -3.34,19.46 -3.84,30.62 -12.23,40.54 -10.78,12.72 -34.52,23.43 -87.36,44.21 -52.87,20.78 -134.83,51.67 -171.06,63.54 -36.22,11.88 -26.72,4.76 -8.9,-33.84 17.82,-38.6 43.94,-108.69 53.45,-195.99zm-574.98 -959.1c-45.13,-36.82 -100.98,-66.53 -163.33,-68.9 -62.35,-2.38 -131.23,22.57 -165.07,33.86 -33.85,11.28 -32.68,8.89 -58.21,-4.18 -25.53,-13.07 -77.78,-36.81 -150.23,-31.46 -72.47,5.34 -165.1,39.78 -220.92,89.08 -55.83,49.29 -74.84,113.42 -87.31,152.62 -12.48,39.19 -18.4,53.44 -32.67,62.36 -14.24,8.91 -36.83,12.46 -64.74,31.47 -27.9,19.01 -61.17,53.46 -89.67,92.65 -28.51,39.19 -52.25,83.15 -64.13,105.13 -11.87,21.96 -11.87,21.96 -17.8,16.61 -5.95,-5.36 -17.82,-16.03 -40.99,-39.2 -23.16,-23.17 -57.6,-58.79 -83.74,-114.6 -26.13,-55.84 -43.94,-131.86 -50.47,-184.7 -6.54,-52.87 -1.79,-82.57 17.21,-106.31 19,-23.76 52.26,-41.58 86.13,-79.57 33.84,-38.02 68.29,-96.23 86.11,-162.14 17.82,-65.92 18.99,-139.55 17.82,-179.34 -1.2,-39.81 -4.75,-45.73 -29.7,-41.58 -24.95,4.16 -71.29,18.4 -117,65.32 -45.73,46.91 -90.85,126.51 -111.63,203.71 -20.81,77.2 -17.24,152.04 -20.21,194.79 -2.97,42.75 -12.47,53.45 -39.78,21.39 -27.34,-32.08 -72.45,-106.92 -112.84,-192.43 -40.39,-85.52 -76.02,-181.72 -95.62,-235.16 -19.6,-53.46 -23.16,-64.15 -8.91,-99.19 5.88,-14.43 14.76,-33 23.57,-55.78 7.8,-40.57 15.6,-81.13 10.85,-132.77 -4.74,-51.62 -22.03,-114.31 -39.53,-158.62 -17.49,-44.3 -35.16,-70.22 -52.85,-96.13 -34.32,35.78 -80.69,94.86 -102.98,153.5 -25.53,67.1 -19.61,133.61 -4.75,199.53 14.85,65.92 38.6,131.25 60.59,184.7 21.96,53.45 42.16,95.01 53.43,118.76 11.29,23.77 13.66,29.71 -2.97,24.96 -16.62,-4.75 -52.26,-20.21 -98.57,-27.92 -46.33,-7.72 -103.34,-7.72 -153.81,0.61 -50.48,8.3 -94.43,24.92 -122.94,40.36 -28.52,15.43 -41.57,29.69 -36.82,49.3 4.74,19.59 27.31,44.53 74.82,67.7 47.52,23.16 119.97,44.53 181.13,45.72 61.17,1.19 111.05,-17.8 145.51,-30.28 34.45,-12.47 53.45,-18.41 71.85,2.97 18.42,21.37 36.24,70.08 83.74,147.87 47.5,77.81 124.71,184.69 163.91,238.15 39.17,53.44 40.35,53.44 25.5,43.35 -14.86,-10.1 -45.76,-30.29 -83.16,-40.38 -37.41,-10.1 -81.38,-10.1 -136.59,-3.57 -24.23,2.86 -50.64,6.99 -75.44,11.45 -197.38,-125.9 -380.11,-272.61 -545.07,-437.06 -134.29,-133.88 -256.77,-279.56 -365.82,-435.3 -0.09,-0.12 -0.16,-0.23 -0.24,-0.35 -12.41,-17.73 -24.65,-35.59 -36.71,-53.58 0.42,-0.52 0.83,-1.04 1.24,-1.56 -8.25,-13.52 -18.45,-30.56 -31.51,-52.72 -42.59,-72.26 -115.44,-198.79 -188.3,-325.33 -207.45,-424.98 -323.88,-902.36 -323.88,-1406.91 0,-888.92 361.25,-1693.55 945.22,-2275.77 110.84,-110.51 229.75,-212.98 355.69,-306.55l2.08 1.31 0.29 0.2c53.44,-28.36 106.88,-56.7 160.31,-85.06 134.74,-64.11 274.72,-119.28 419.15,-164.8 9.6,-3.03 19.22,-6.01 28.86,-8.95 -0.59,0.83 -1.17,1.65 -1.76,2.47 97.51,-23.3 191.46,-45.82 243.17,-59.11 24.17,-6.21 39.12,-10.41 48.79,-13.44 -0.79,-1.19 -1.6,-2.36 -2.42,-3.51 7.45,-1.55 14.89,-3.07 22.35,-4.56 210.07,-42.09 427.58,-64.18 650.37,-64.18 704.99,0 1357.03,221.3 1887.82,596.84 35.14,26.05 70.27,52.1 105.41,78.14l0.14 -0.28c3.94,3.03 7.86,6.07 11.78,9.11 97.52,75.83 190.45,157.09 278.33,243.26 83.53,81.91 162.48,168.3 236.46,258.76 322.82,501.03 510.07,1097.32 510.07,1737.3 0,403.25 -74.38,789.15 -210.15,1144.82 -2.98,7.82 -6.01,15.64 -9.05,23.44 -0.32,-0.1 -0.66,-0.2 -0.99,-0.29 -40.4,93.15 -80.97,185.76 -123.69,271.54 -46.26,92.89 -95.03,177.76 -143.82,262.62 -130.46,208.4 -284.19,400.81 -457.53,573.62 -230.52,229.82 -495.8,424.99 -787.29,577.15 -79.8,-4.06 -160.12,16.04 -206.26,30.83 -46.33,14.84 -58.2,24.34 -61.76,22.56 -3.58,-1.78 1.17,-14.86 38.59,-63.55 37.42,-48.68 107.51,-133.02 153.23,-193 45.72,-59.99 67.1,-95.6 81.36,-118.77 14.25,-23.17 21.37,-33.86 61.76,-27.92 40.39,5.93 114.01,28.51 185.29,30.29 71.27,1.77 140.14,-17.21 198.93,-45.72 58.79,-28.5 107.51,-66.52 120.58,-99.18 13.05,-32.66 -9.51,-59.99 -68.32,-76.61 -58.79,-16.64 -153.8,-22.57 -232.19,-11.87 -78.4,10.67 -140.15,37.99 -170.45,47.49 -30.29,9.51 -29.1,1.2 1.2,-51.66 30.28,-52.86 89.65,-150.24 114.01,-235.76 24.36,-85.52 13.66,-159.15 -12.45,-229.83 -17.95,-48.56 -43.21,-95.72 -69,-135.71 -3.46,-5.25 -6.91,-10.5 -10.51,-15.8 -8.75,-12.89 -18.36,-26.08 -30.91,-40.32 -17.71,-20.08 -41.28,-42.24 -64.84,-64.4 -6.42,-3.9 -12.36,-6.58 -17.75,-8.02 -21.98,-5.95 -35.05,8.29 -50.48,71.25 -2.01,8.14 -4.04,17.13 -6.07,26.75 -4.09,38.1 -8.18,76.21 -11.61,109.59 -3.43,33.4 -6.19,62.07 -8.96,90.75 0.26,14.2 0.99,28.25 2.28,41.92 8.9,94.42 44.53,171.64 70.66,232.81 26.11,61.16 42.7,106.29 8.85,178.74 -33.88,72.46 -118.22,172.22 -164.53,220.92 -46.32,48.69 -54.64,46.33 -58.8,16.63 -4.14,-29.7 -4.14,-86.72 -17.81,-150.26 -13.65,-63.55 -40.98,-133.61 -87.9,-190.03 -46.92,-56.42 -113.42,-99.18 -155.59,-81.35 -42.17,17.8 -59.99,96.19 -55.24,162.11 4.75,65.91 32.08,119.37 71.28,163.31 39.18,43.94 90.27,78.39 122.93,113.43 32.66,35.05 46.91,70.68 49.88,104.54 2.98,33.84 -5.35,65.91 -47.5,124.71 -42.17,58.79 -118.19,144.29 -158.57,187.05 -40.39,42.76 -45.15,42.76 -62.35,24.37 -17.22,-18.42 -46.93,-55.24 -62.97,-72.46 -16.02,-17.23 -18.41,-14.85 -17.21,-32.66 1.19,-17.82 5.93,-55.82 3.55,-93.23 -2.36,-37.41 -11.87,-74.25 -34.43,-110.46 -22.58,-36.24 -58.2,-71.87 -105.71,-92.05 -47.51,-20.2 -106.9,-24.96 -136.59,-27.32 -29.71,-2.39 -29.71,-2.39 -46.92,-24.35 -17.22,-21.98 -51.67,-65.93 -96.79,-102.74zm-1804.92 405.01c-22.37,5.94 -42.74,16.53 -60.02,30.64 -297.75,-144.96 -569.83,-334.18 -807.53,-559.15 -502.39,-557.78 -807.29,-1290.68 -807.29,-2093.44 0,-731.57 253.25,-1405.12 678.39,-1940.97 -312.93,512.8 -493.17,1114.89 -493.17,1758.81 0,935.76 380.63,1783.16 995.99,2396.66 151.11,150.66 316.38,287.19 493.63,407.45zm1282.59 -234.46c-14.54,23.16 -16.33,31.47 -21.38,33.56 -5.04,2.07 -13.36,-2.09 -29.99,-4.16 -16.63,-2.09 -41.57,-2.09 -71.85,-0.89 -30.3,1.18 -65.94,3.55 -93.25,8.01 -27.33,4.44 -46.31,10.99 -54.32,10.39 -8.02,-0.59 -5.07,-8.3 10.98,-35.04 16.03,-26.72 45.12,-72.45 78.98,-102.45 33.85,-29.99 72.45,-44.23 116.4,-51.36 43.94,-7.13 93.23,-7.13 125.31,-2.67 32.06,4.45 46.9,13.36 45.43,21.69 -1.49,8.3 -19.32,16.01 -41.88,38.87 -22.55,22.87 -49.88,60.88 -64.43,84.05zm255.86 10.33c-66.52,5.63 -134.23,37.11 -164.8,40.39 -30.59,3.27 -24.06,-21.69 2.65,-54.06 26.72,-32.36 73.66,-72.14 125.32,-97.08 51.67,-24.95 108.08,-35.05 162.42,-23.17 54.34,11.87 106.6,45.71 144.32,77.79 37.7,32.06 60.85,62.37 73.93,105.42 13.06,43.05 16.02,98.88 10.69,150.27 -5.35,51.35 -19.02,98.28 -26.14,112.83 -7.12,14.54 -7.7,-3.27 -17.21,-29.39 -9.51,-26.14 -27.93,-60.6 -48.4,-103.34 -20.49,-42.76 -43.07,-93.85 -87.01,-129.47 -43.94,-35.65 -109.27,-55.84 -175.77,-50.19zm12.22 192.14c-47.23,5.95 -76.34,24.06 -106.03,51.53 -29.71,27.45 -60.01,64.27 -77.52,102.6 -17.52,38.29 -22.28,78.07 -24.06,104.2 -1.77,26.14 -0.6,38.6 -6.22,35.33 -5.65,-3.26 -18.11,-22.26 -29.98,-55.21 -11.88,-32.97 -23.18,-79.89 -26.15,-123.53 -2.97,-43.66 2.36,-84.05 16.33,-119.36 13.96,-35.36 36.52,-65.64 65.33,-85.53 28.79,-19.9 63.85,-29.39 113.3,-32.67 49.45,-3.25 113.31,-0.28 154,16.35 40.68,16.63 58.17,46.89 70.79,67.99 12.59,21.06 20.3,32.94 -8.49,35.77 -28.8,2.84 -94.1,-3.4 -141.3,2.53zm5.6 123.54c-44.53,3.56 -79.59,20.77 -94.43,22.25 -14.85,1.5 -9.49,-12.76 1.8,-29.98 11.28,-17.22 28.49,-37.42 55.82,-51.07 27.32,-13.67 64.72,-20.79 99.45,-22.57 34.76,-1.79 66.83,1.78 99.19,13.95 32.37,12.18 65.03,32.96 83.75,54.35 18.69,21.38 23.45,43.35 19,72.16 -4.46,28.79 -18.14,64.42 -27.92,84.64 -9.8,20.17 -15.75,24.92 -22.56,16.02 -6.84,-8.93 -14.55,-31.49 -24.94,-57.61 -10.4,-26.14 -23.47,-55.84 -57.02,-75.73 -33.57,-19.9 -87.6,-29.97 -132.14,-26.41zm36.82 212.9c-27.31,6.83 -59.97,6.83 -89.07,-2.96 -29.1,-9.82 -54.65,-29.4 -61.47,-55.84 -6.84,-26.43 5.04,-59.69 27.62,-79.28 22.57,-19.59 55.82,-25.54 87.59,-23.17 31.76,2.38 62.05,13.07 83.74,27.92 21.67,14.84 34.74,33.85 37.09,51.08 2.4,17.21 -5.92,32.65 -21.06,47.2 -15.16,14.54 -37.12,28.22 -64.44,35.05zm57.58 169.53c-46.31,-10.7 -97.38,-26.13 -134.74,-46.81 -37.36,-20.71 -61.01,-46.65 -74.06,-68.61 -13.07,-21.97 -15.56,-40 5.17,-35.93 20.74,4.06 64.67,30.19 122.88,39.7 58.19,9.49 130.64,2.37 187.07,-25.55 56.41,-27.9 96.8,-76.6 126.5,-133.03 29.69,-56.41 48.68,-120.54 59.97,-149.64 11.28,-29.11 14.86,-23.17 27.93,8.9 13.06,32.06 35.62,90.27 40.96,150.85 5.35,60.56 -6.53,123.53 -48.09,171.04 -41.58,47.49 -112.85,79.58 -169.27,92.65 -56.41,13.05 -97.99,7.11 -144.32,-3.57zm-16.51 249.55c-65.23,6.05 -133.92,-3.2 -208.74,-23.98 -74.84,-20.79 -155.8,-53.1 -215.31,-114.4 -59.5,-61.31 -97.55,-151.59 -105.27,-234.15 -7.73,-82.54 14.89,-157.36 38.65,-211.99 23.78,-54.62 48.73,-89.08 58.24,-81.34 9.5,7.72 3.55,57.6 9.93,113.05 6.39,55.44 25.11,116.42 77.37,181.17 52.25,64.71 138.08,133.18 232.06,168.01 93.96,34.83 196.1,36.02 269.15,30.1 73.05,-5.95 117.01,-19.03 117.6,0.58 0.58,19.6 -42.17,71.87 -94.44,108.69 -52.27,36.82 -114.01,58.18 -179.24,64.26zm94.91 157.84c-66.52,-19 -116.38,-48.71 -112.82,-58.79 3.56,-10.11 60.56,-0.6 129.45,-14.25 68.89,-13.66 149.65,-50.49 210.24,-120.56 60.57,-70.08 100.95,-173.43 113.43,-284.47 12.45,-111.06 -2.98,-229.83 -10.7,-289.22 -7.72,-59.39 -7.72,-59.39 2.37,-57.6 10.1,1.78 30.29,5.33 68.94,33 38.64,27.66 95.74,79.44 131.97,153.07 36.22,73.66 51.6,169.16 40.85,256.13 -10.73,86.95 -47.55,165.33 -108.72,233.62 -61.18,68.3 -146.69,126.51 -231.01,151.45 -84.36,24.93 -167.47,16.63 -234,-2.38zm-1911.35 -635.43l7.55 4.37 -7.68 -1.86 0.13 -2.51zm902.75 236.88c26.12,67.1 61.76,131.23 79.58,163.32 17.81,32.07 17.81,32.07 -11.88,21.37 -29.71,-10.69 -89.08,-32.08 -182.75,-68.21 -26.64,-10.28 -56.07,-21.76 -86.53,-33.98 12.63,-22.74 23.49,-52.09 29.38,-82.56 9.51,-49.3 5.94,-101.54 -15.43,-149.65 -21.38,-48.11 -60.6,-92.05 -105.7,-109.28 -45.14,-17.23 -96.24,-7.72 -119.39,19.59 -23.15,27.32 -18.41,72.46 -2.58,119.37 15.82,46.91 42.69,95.61 65.27,136.59l1.83 3.31c-27,-12.49 -52.51,-25.04 -75.21,-37.32 -86.69,-46.92 -132.16,-89.86 -154.88,-111.34 -22.72,-21.47 -22.72,-21.47 -21.53,-43.44 0.4,-7.21 0.92,-16.81 1.08,-27.24 46.93,-26.93 78.46,-76.74 78.46,-133.76 0,-53.64 -27.88,-100.91 -70.24,-128.75 9.15,-5.43 18.37,-10.71 27.34,-15.51 49.54,30.73 113.88,65.77 169.44,80.19 77.79,20.18 138.38,-0.01 172.23,-13.67 33.85,-13.65 40.96,-20.78 66.5,-7.7 25.54,13.05 69.49,46.3 91.47,62.93 21.96,16.64 21.96,16.64 18.99,38.61 -2.98,21.97 -8.9,65.93 -3.56,122.94 5.33,57 21.97,127.07 48.11,194.19zm421.28 278.6c-90.86,-16.64 -175.21,-42.78 -241.13,-112.83 -65.92,-70.1 -113.41,-184.11 -134.8,-288.65 -21.38,-104.52 -16.62,-199.53 17.83,-269.6 34.43,-70.09 98.57,-115.22 160.33,-143.14 61.77,-27.91 121.14,-38.6 153.82,-43.94 32.65,-5.35 38.6,-5.35 10.68,31.49 -27.91,36.82 -89.68,110.43 -112.24,206.06 -22.58,95.61 -5.95,213.21 24.34,302.88 30.29,89.68 74.25,151.44 137.18,201.92 62.96,50.46 144.93,89.67 193.03,112.25 48.09,22.55 62.35,28.48 20.78,27.91 -41.58,-0.6 -138.97,-7.73 -229.82,-24.35zm-233.61 53.97c22.55,40.97 67.69,122.94 141.33,197.17 51.8,52.2 117.68,100.58 183,137.75 32.35,17.19 64.69,34.38 131.12,48.38 66.44,14 166.96,24.81 239.37,14 72.43,-10.81 116.74,-43.23 138.9,-59.45 22.16,-16.21 22.16,-16.21 36.75,-13.52 14.6,2.71 43.77,8.12 77.74,10.44 33.97,2.32 72.72,1.56 104.81,-1.48 32.1,-3.04 57.55,-8.35 82.99,-13.66 17.6,-4.95 35.21,-10.99 52.48,-18.5 36.27,-15.82 71.01,-38.14 100.18,-58.43 -2.58,11.12 -3.96,22.67 -3.96,34.55 0,85.58 70.99,154.98 158.55,154.98 87.56,0 158.55,-69.4 158.55,-154.98 0,-85.61 -70.99,-154.99 -158.55,-154.99l-2.47 0.02c-1.84,-7.38 -4.13,-14.21 -7.04,-20.12 -13.07,-26.75 -38.01,-35.04 -38.6,-44.55 -0.59,-9.51 23.15,-20.19 71.26,-36.82 48.08,-16.63 120.56,-39.19 170.44,-51.67 49.88,-12.46 77.2,-14.85 101.56,5.95 16.87,14.41 32.32,39.94 44.78,61.38 -30.48,28.26 -49.49,68.21 -49.49,112.51 0,85.6 70.98,154.98 158.54,154.98 87.55,0 158.54,-69.38 158.54,-154.98 0,-85.6 -70.99,-154.99 -158.54,-154.99 -8.51,0 -16.9,0.67 -25.05,1.94l-1.36 -5.38c-4.74,-17.82 -12.92,-40.69 -18.81,-53.31 -5.88,-12.64 -9.44,-15.03 13.73,-31.65 23.16,-16.63 73.05,-47.5 112.24,-62.93 39.19,-15.45 67.69,-15.45 99.17,-0.59 16.64,7.85 34.15,19.85 50.17,31.63 -9.04,19.48 -14.06,41.12 -14.06,63.9 0,85.6 70.98,154.98 158.54,154.98 87.56,0 158.55,-69.38 158.55,-154.98 0,-85.6 -70.99,-154.99 -158.55,-154.99 -23.8,0 -46.38,5.16 -66.65,14.33 -4.19,-4.51 -8.28,-8.66 -11.6,-12.49 -11.29,-13.08 -13.67,-22.57 13.66,-40.98 27.31,-18.41 84.32,-45.74 131.24,-65.32 20.52,-8.58 39.12,-15.68 55.19,-22.29 15.58,69.61 79,121.73 154.88,121.73 87.55,0 158.56,-69.41 158.56,-154.99 0,-85.6 -71.01,-155 -158.56,-155 -67.2,0 -124.62,40.87 -147.71,98.58l-10.31 -1.06c-32.3,-3.22 -75.21,-6.73 -116.02,-11.78l-2.13 -0.28c-0.1,-8.54 -0.9,-16.9 -2.37,-25.07 430.47,-171.98 817.52,-429.22 1140.06,-750.81 615.4,-613.5 996.02,-1460.9 996.02,-2396.67 0,-935.76 -380.62,-1783.16 -996.02,-2396.67 -596.67,-594.91 -1414.03,-969.71 -2318.92,-991.72 -207.02,-39.28 -420.66,-59.87 -639.11,-59.87 -938.44,0 -1788.2,379.4 -2403.43,992.77 -615.35,613.5 -995.99,1460.9 -995.99,2396.68 0,935.75 380.64,1783.16 995.99,2396.67 19.22,19.14 38.67,38.08 58.33,56.76 45.3,50.11 92.12,98.85 140.39,146.17 135.43,132.82 282.23,254.44 438.81,363.42 -52.43,25.29 -88.48,78.05 -88.48,139.06 0,85.58 71,154.98 158.56,154.98 53.03,0 99.98,-25.48 128.76,-64.57 48.74,12.49 104.98,28.73 152.03,46.95 73.62,28.51 124.71,61.77 150.24,80.18 25.53,18.4 25.53,21.98 10.1,27.32 -13.16,4.54 -37.49,10.37 -58.74,12.76 -28.35,-42.07 -77.1,-69.86 -132.49,-69.86 -87.56,0 -158.55,69.38 -158.55,154.99 0,85.58 70.99,154.98 158.55,154.98 87.56,0 158.56,-69.4 158.56,-154.98l-0.08 -4.61c45.29,-1.09 95.43,-3.17 133.7,-0.64 62.96,4.14 93.83,20.78 109.29,29.11 15.43,8.29 15.43,8.29 -6.54,30.28 -9.12,9.12 -22.01,22 -35.7,36.08l-3.38 -0.03c-87.57,0 -158.55,69.4 -158.55,155 0,85.58 70.98,154.98 158.55,154.98 87.56,0 158.54,-69.4 158.54,-154.98 0,-48.23 -22.5,-91.31 -57.85,-119.74 15.11,-9.45 31.71,-17.63 49.45,-23.22 45.13,-14.25 97.38,-11.87 158.54,0.61 61.18,12.47 131.26,35.02 166.3,46.31 35.03,11.29 35.03,11.29 10.43,30.86 -24.61,19.57 -73.83,58.73 -96.39,86.04l-3.29 4.15c-68.8,16.93 -119.76,77.81 -119.76,150.31 0,85.6 70.99,154.98 158.54,154.98 87.57,0 158.56,-69.38 158.56,-154.98 0,-50.63 -24.83,-95.59 -63.24,-123.87 7.82,-13.29 15.83,-26.4 24.04,-37.62 24.35,-33.25 50.47,-49.88 63.55,-58.2 13.04,-8.32 13.04,-8.32 35.63,32.67z"/>
 </g>
</svg>
