<?xml version="1.0" encoding="UTF-8"?>
<!DOCTYPE svg PUBLIC "-//W3C//DTD SVG 1.1//EN" "http://www.w3.org/Graphics/SVG/1.1/DTD/svg11.dtd">
<!-- Creator: CorelDRAW 2020 (64-Bit) -->
<svg xmlns="http://www.w3.org/2000/svg" xml:space="preserve" width="210mm" height="297mm" version="1.1" shape-rendering="geometricPrecision" text-rendering="geometricPrecision" image-rendering="optimizeQuality" fill-rule="evenodd" clip-rule="evenodd"
viewBox="0 0 21000 29700"
 xmlns:xlink="http://www.w3.org/1999/xlink"
 xmlns:xodm="http://www.corel.com/coreldraw/odm/2003">
 <g id="Capa_x0020_1">
  <metadata id="CorelCorpID_0Corel-Layer"/>
  <path id="aro_x0020_15.svg" fill="#A2662E" d="M27204 33099.01l-251.27 11.13c19.89,-19.03 43.23,-35.47 85.28,-50.54 47.79,-17.15 119.73,-32.51 155.7,-40.19 35.97,-7.68 35.97,-7.68 27.19,18.32 -4.91,14.51 -12.55,37.14 -16.9,61.28zm1527.05 5578.32l92.1 -68.11 411.51 -137.53c6.03,6.68 11.48,12.32 15.81,16.8 16.84,17.43 16.84,17.43 -29.26,32.21 -46.09,14.77 -138.29,44.33 -196.2,73.57 -57.92,29.26 -81.56,58.22 -115.24,79.2 -33.69,20.98 -77.42,33.97 -106.97,41.95 -29.55,7.99 -44.91,10.94 -53.77,5.32 -7.09,-4.48 -10.01,-14.43 -17.98,-43.41zm-30.67 -106.58l-0.5 -1.72 31 -8.48 -30.5 10.2zm-298.92 -180.38c0.59,-30.43 5.91,-25.71 18.61,-9.16 12.71,16.55 32.81,44.92 55.26,86.58 22.46,41.66 47.28,96.62 61.75,130.89 14.49,34.28 18.62,47.87 -3.84,39.59 -22.44,-8.26 -71.5,-38.41 -96.62,-56.43 -25.11,-18.02 -26.3,-23.93 -28.96,-59.69 -2.66,-35.75 -6.79,-101.34 -6.2,-131.78zm-478.11 -5070.14c0,39.16 -33.74,70.91 -75.34,70.91 -41.61,0 -75.35,-31.75 -75.35,-70.91 0,-39.17 33.74,-70.92 75.35,-70.92 41.6,0 75.34,31.75 75.34,70.92zm-884.32 5601.4c-2.66,-49.94 7.4,-113.17 14.2,-140.36 6.79,-27.18 10.33,-18.32 21.26,-3.55 10.94,14.77 29.25,35.47 44.63,49.65 15.36,14.18 27.76,21.86 35.45,29.24 7.69,7.39 10.63,14.49 8.86,62.65 -1.76,48.17 -8.27,137.4 -10.93,183.79 -2.66,46.4 -1.48,49.94 -14.18,33.1 -12.71,-16.85 -39.31,-54.07 -60.28,-91.02 -20.98,-36.93 -36.35,-73.57 -39.01,-123.5zm-1432.89 -1315.39c59.21,0 107.22,48 107.22,107.22 0,59.21 -48.01,107.22 -107.22,107.22 -59.21,0 -107.22,-48.01 -107.22,-107.22 0,-59.22 48.01,-107.22 107.22,-107.22zm3204.16 854.47c93.25,-70.58 186.06,-144.56 277.61,-227.79 27.04,-24.57 54.05,-50.08 80.98,-76.37 -3.95,21.5 -6.77,42.25 -8.54,62.19 -4.78,54.1 -1.81,102.35 10.01,143.4l-360.06 98.57zm-1994.94 -4399.67c-0.6,-5.62 0.59,-11.54 23.92,-48.47 23.35,-36.94 68.86,-104.9 91.61,-138.87 22.75,-33.99 22.75,-33.99 -1.49,-26.3 -24.22,7.67 -72.68,23.05 -102.52,29.85 -29.84,6.79 -41.08,5.01 -45.81,-0.89 -4.73,-5.91 -2.95,-15.96 5.62,-23.63 8.56,-7.69 23.94,-13.02 55.55,-23.94 31.62,-10.94 79.49,-27.49 109.34,-39.89 29.83,-12.42 41.66,-20.69 55.54,-36.05 13.89,-15.37 29.85,-37.82 37.82,-49.05 7.98,-11.24 7.98,-11.24 -16.25,-3.85 -24.23,7.39 -72.68,22.16 -104,27.48 -31.33,5.32 -45.51,1.19 -51.72,-6.19 -6.21,-7.39 -4.43,-18.04 5.92,-26.02 10.33,-7.97 29.25,-13.29 63.23,-21.56 33.97,-8.27 83.03,-19.51 109.91,-27.18 26.89,-7.69 31.62,-11.83 39.31,-24.23 7.67,-12.42 18.32,-33.1 28.07,-44.32 9.75,-11.23 18.61,-13.01 23.93,-9.75 5.31,3.25 7.09,11.51 2.66,26 -4.44,14.47 -15.07,35.15 -20.39,48.45 -5.31,13.29 -5.31,19.21 1.19,43.44 6.5,24.23 19.49,66.77 24.52,100.76 5.02,33.97 2.07,59.39 -3.25,72.09 -5.32,12.71 -13,12.71 -17.14,8.28 -4.14,-4.44 -4.73,-13.29 -12.4,-39.88 -7.69,-26.6 -22.47,-70.93 -29.85,-93.09 -7.39,-22.16 -7.39,-22.16 -18.61,-3.84 -11.24,18.32 -33.69,54.95 -44.92,75.06 -11.23,20.09 -11.23,23.62 -8.57,50.82 2.66,27.17 7.97,78 9.45,111.99 1.48,33.97 -0.88,51.1 -4.72,60.56 -3.84,9.46 -9.17,11.24 -12.71,8.88 -3.54,-2.37 -5.33,-8.88 -10.34,-33.11 -5.03,-24.23 -13.3,-66.18 -18.02,-87.45 -4.74,-21.28 -5.93,-21.87 -25.71,5.91 -19.8,27.76 -58.22,83.91 -83.62,114.34 -25.42,30.43 -37.83,35.16 -45.22,34.87 -7.38,-0.3 -9.74,-5.62 -10.33,-11.22zm-1200.15 4401.56c59.21,0 107.22,48.01 107.22,107.22 0,59.21 -48.01,107.22 -107.22,107.22 -59.21,0 -107.23,-48.01 -107.23,-107.22 0,-59.21 48.02,-107.22 107.23,-107.22zm225.34 -4669.89c1.47,-20.98 3.25,-53.48 4.14,-69.73 0.88,-16.25 0.88,-16.25 -26.3,3.84 -27.19,20.09 -81.56,60.27 -112.88,82.14 -31.32,21.86 -39.59,25.41 -46.98,23.06 -7.39,-2.38 -13.89,-10.65 -0.3,-32.22 13.6,-21.57 47.28,-56.44 98.11,-96.32 50.82,-39.89 118.78,-84.81 152.76,-107.26 33.98,-22.47 33.98,-22.47 14.78,-22.47 -19.21,0 -57.63,0 -96.04,5.63 -38.42,5.6 -76.83,16.84 -102.54,24.52 -25.71,7.68 -38.7,11.82 -46.98,8.28 -8.28,-3.55 -11.81,-14.78 -9.15,-24.53 2.66,-9.75 11.51,-18.02 38.4,-28.96 26.89,-10.93 71.81,-24.53 128.55,-31.32 56.72,-6.8 125.28,-6.8 158.97,-6.8 33.68,0 32.49,0 61.16,-12.99 28.65,-13.01 87.16,-39.02 116.42,-52.01 29.24,-13.01 29.24,-13.01 14.47,-15.95 -14.78,-2.96 -44.32,-8.87 -74.16,-11.82 -29.85,-2.96 -59.99,-2.96 -85.69,-4.14 -25.71,-1.19 -46.99,-3.55 -53.77,-10.04 -6.8,-6.51 0.87,-17.14 16.25,-23.34 15.36,-6.21 38.4,-7.99 74.75,-5.62 36.34,2.36 85.98,8.86 119.67,14.48 33.69,5.61 51.41,10.33 59.69,12.99 8.27,2.66 7.08,3.25 39.59,-7.38 32.51,-10.64 98.7,-32.5 132.97,-44.32 34.28,-11.83 36.64,-13.6 5.62,-24.53 -31.03,-10.93 -95.45,-31.02 -152.47,-44.02 -57.03,-13.01 -106.68,-18.92 -131.5,-26.31 -24.81,-7.38 -24.81,-16.24 -21.57,-22.74 3.25,-6.5 9.76,-10.64 23.35,-11.23 13.58,-0.59 34.28,2.35 96.92,17.12 62.64,14.78 167.24,41.38 222.79,55.87 55.55,14.47 62.05,16.83 66.49,18.02 4.43,1.18 6.79,1.18 18.61,-2.66 11.82,-3.85 33.1,-11.53 48.17,-10.35 15.06,1.18 23.92,11.23 18.6,20.09 -5.31,8.87 -24.82,16.55 -34.56,20.39 -9.76,3.84 -9.76,3.84 -15.97,27.48 -6.2,23.64 -18.61,70.91 -41.94,127.65 -23.35,56.73 -57.63,122.91 -80.97,159.86 -23.35,36.93 -35.75,44.61 -42.25,47.26 -6.51,2.66 -7.1,0.31 -7.39,-4.12 -0.3,-4.44 -0.3,-10.95 15.37,-41.96 15.65,-31.03 46.98,-86.59 67.96,-132.67 20.97,-46.11 31.62,-82.74 36.64,-107.86 5.02,-25.12 4.43,-38.7 4.14,-45.5 -0.3,-6.79 -0.3,-6.79 -23.94,2.66 -23.64,9.46 -70.92,28.37 -94.56,37.82 -23.64,9.46 -23.64,9.46 -30.72,32.51 -7.11,23.04 -21.28,69.14 -43.14,118.78 -21.87,49.63 -51.42,102.82 -70.93,128.53 -19.5,25.71 -28.96,23.93 -34.27,19.5 -5.32,-4.44 -6.5,-11.52 2.96,-34.57 9.46,-23.05 29.54,-62.06 46.1,-104.31 16.54,-42.25 29.53,-87.76 36.04,-110.51 6.5,-22.75 6.5,-22.75 -26.89,-7.08 -33.39,15.66 -100.16,46.97 -133.54,62.64 -33.4,15.66 -33.4,15.66 -38.13,41.07 -4.73,25.41 -14.18,76.24 -27.48,123.8 -13.3,47.58 -30.43,91.89 -46.98,124.1 -16.55,32.2 -32.51,52.31 -45.81,61.17 -13.3,8.86 -23.93,6.5 -30.14,1.18 -6.2,-5.32 -7.97,-13.59 -8.86,-19.5 -0.89,-5.92 -0.89,-9.45 7.68,-24.82 8.57,-15.37 25.7,-42.55 39.01,-70.62 13.29,-28.07 22.75,-57.03 29.25,-86.58 6.5,-29.54 10.04,-59.68 11.82,-74.75 1.77,-15.07 1.77,-15.07 -21.87,0.89 -23.64,15.95 -70.91,47.86 -95.43,64.41 -24.53,16.54 -26.31,17.73 -26.9,32.5 -0.59,14.78 0,43.14 -4.14,70.03 -4.14,26.89 -12.99,52.3 -21.27,62.64 -8.27,10.34 -15.95,5.61 -19.2,-1.48 -3.26,-7.09 -2.07,-16.54 -0.59,-37.52zm2495.22 -394.54c-13.18,-6.24 -26.4,-12.39 -39.63,-18.5 5.62,-4.46 11,-9.28 16.06,-14.55 15.04,-15.63 27.29,-35.1 36.14,-55.88 156.97,57.65 316.29,121.34 488.24,217.56 106.58,59.64 218.02,131.75 326.57,211.25 106.54,78.03 210.45,163.27 304.42,250.87 94.75,88.34 179.39,179.08 256.87,275.26 77.65,96.39 148.19,198.25 214.57,308.62 65.34,108.61 126.9,225.84 180.99,342.21 36.17,77.84 68.9,154.99 97.08,228.64 -61.89,34.44 -103.76,100.5 -103.76,176.34 0,111.38 90.29,201.67 201.67,201.67 4.64,0 9.24,-0.18 13.81,-0.48 1.81,8.86 3.55,17.64 5.21,26.35 16.56,86.47 26.34,164.78 34.2,237.93 7.93,73.69 13.94,141.95 16.03,212.3 2.1,70.86 0.36,144.72 -7.16,229.6 -7.62,85.88 -21.2,183.43 -39.07,282.55 -17.49,96.99 -39.33,196.07 -63.92,287.72 -23.36,87.09 -48.89,166.04 -75.48,237.12 -29.51,78.91 -60.67,149.13 -91.91,210.67 -33.47,65.96 -66.98,121.79 -100.54,173.21 -2.56,-2.76 -5.36,-5.35 -8.41,-7.73 -24.24,-18.91 -64.43,-24.82 -128.84,14.18 -64.41,39.01 -153.05,122.92 -212.73,171.38 -10.07,8.18 -19.31,15.34 -27.89,21.64 21.86,-30.79 43.21,-62.03 63.95,-93.74 58.75,-89.81 112.92,-183.96 160.22,-283.66 45.14,-95.19 83.86,-195.33 116.44,-296.64 6.19,-19.27 12.16,-38.58 17.91,-57.89 12.56,2.45 25.51,3.74 38.79,3.74 111.38,0 201.67,-90.29 201.67,-201.67 0,-94.36 -64.81,-173.57 -152.34,-195.58 9.13,-60.47 16.02,-120.12 20.65,-179.32 7.7,-98.75 9.03,-196.52 3.91,-295.03 -5.1,-98.47 -16.65,-197 -34.13,-298.07 -17.44,-100.86 -40.9,-204.78 -69.89,-314.16 -30.6,-115.52 -67.59,-237.52 -110.45,-357.14 -37.7,-105.19 -79.91,-208.22 -126.23,-302.81 -49.69,-101.53 -103.82,-192.88 -158.45,-275.39 -54.35,-82.09 -109.71,-156.13 -161.84,-222.94 -27.87,-35.72 -54.86,-69.4 -82.23,-101.95 5.15,-17.83 7.93,-36.67 7.93,-56.16 0,-111.38 -90.29,-201.67 -201.67,-201.67 -18.84,0 -37.07,2.6 -54.36,7.42l-7.11 -6.05c-71.34,-60.46 -155.38,-124.8 -243.73,-186.81 -86.56,-60.76 -177.59,-119.51 -265.24,-170.42 -88.42,-51.39 -173.28,-94.72 -256.32,-133.99zm1022.12 4837.94c1.18,-30.43 1.77,-84.21 18.03,-149.22 16.25,-65 48.16,-141.23 70.32,-181.71 22.16,-40.48 34.57,-45.21 44.91,-40.48 10.35,4.73 18.62,18.9 22.17,32.2 3.55,13.3 2.36,25.7 -10.35,64.41 -12.7,38.71 -36.93,103.72 -51.41,150.7 -14.48,46.98 -19.21,75.94 -19.51,91.89 -0.29,15.96 3.85,18.91 11.53,18.32 7.69,-0.59 18.92,-4.72 40.48,-16.25 21.57,-11.53 53.48,-30.43 64.41,-50.52 10.93,-20.09 0.89,-41.37 10.35,-96.63 9.46,-55.24 38.41,-144.49 59.39,-183.2 20.98,-38.7 33.98,-26.88 38.4,-12.4 4.44,14.47 0.31,31.62 -6.48,62.34 -6.8,30.73 -16.26,75.06 -21.88,109.92 -5.6,34.87 -7.38,60.28 -6.2,73.27 1.19,13.01 5.31,13.6 17.72,7.69 12.42,-5.91 33.11,-18.32 59.41,-35.45 26.29,-17.14 58.2,-39.01 75.04,-57.62 16.85,-18.61 18.62,-33.99 19.5,-73.88 0.89,-39.88 0.89,-104.3 13.6,-163.99 12.7,-59.68 38.12,-114.64 59.98,-139.76 21.88,-25.11 40.19,-20.39 49.34,-13 9.17,7.39 9.17,17.44 -2.07,52.9 -11.22,35.45 -33.67,96.32 -44.91,143.59 -11.22,47.28 -11.22,80.97 -10.04,98.69 1.18,17.74 3.54,19.51 6.79,20.69 3.26,1.18 7.39,1.77 26.89,-16.25 19.5,-18.03 54.38,-54.67 72.69,-76.83 18.32,-22.16 20.1,-29.84 17.44,-58.2 -2.66,-28.37 -9.75,-77.42 -7.68,-98.99 2.07,-21.57 13.3,-15.66 19.21,-4.44 5.9,11.24 6.49,27.78 8.56,45.21 2.08,17.44 5.61,35.76 9.75,45.5 4.14,9.76 8.87,10.95 14.18,10.06 5.32,-0.89 11.24,-3.84 37.24,-28.67 26.01,-24.82 72.09,-71.5 99.87,-92.19 27.78,-20.68 37.23,-15.36 39.89,-4.14 2.66,11.24 -1.47,28.37 -46.09,78.31 -44.62,49.94 -129.72,132.67 -173.16,176.1 -43.43,43.44 -45.21,47.58 -14.48,39.31 30.73,-8.27 93.97,-28.96 136.81,-43.73 42.85,-14.78 65.3,-23.64 79.48,-19.51 14.19,4.14 20.11,21.27 -5.9,40.47 -26,19.22 -83.92,40.5 -134.45,53.79 -50.52,13.3 -93.66,18.61 -123.21,25.41 -29.55,6.8 -45.51,15.06 -78.02,33.97 -32.49,18.92 -81.54,48.48 -108.14,65.91 -26.59,17.43 -30.73,22.75 -24.23,27.48 6.51,4.72 23.64,8.85 66.48,7.96 42.85,-0.88 111.4,-6.79 145.68,-6.19 34.27,0.59 34.27,7.68 28.06,15.66 -6.19,7.97 -18.61,16.84 -44.61,23.64 -25.99,6.8 -65.6,11.52 -112.58,12.11 -46.98,0.59 -101.35,-2.95 -132.08,-3.54 -30.72,-0.59 -37.82,1.76 -44.03,4.42 -6.19,2.67 -11.53,5.62 -36.05,20.98 -24.53,15.37 -68.25,43.14 -87.17,58.21 -18.91,15.07 -12.99,17.44 17.44,22.76 30.43,5.31 85.4,13.58 142.12,17.42 56.74,3.85 115.24,3.26 142.13,11.24 26.89,7.97 22.16,24.52 12.12,35.45 -10.05,10.93 -25.41,16.25 -74.76,10.93 -49.34,-5.31 -132.67,-21.27 -198.56,-31.9 -65.89,-10.63 -114.36,-15.97 -145.97,-15.68 -31.62,0.3 -46.39,6.22 -57.62,6.51 -11.23,0.3 -18.9,-5.01 -22.16,-12.11 -3.26,-7.09 -2.06,-15.96 5.61,-23.64 7.69,-7.68 21.87,-14.18 29.85,-20.98 7.97,-6.79 9.76,-13.88 10.93,-44.32zm-611.94 -339.5c-13.29,-26.58 -32.8,-57.91 -38.7,-81.25 -5.91,-23.34 1.76,-38.7 10.64,-42.84 8.86,-4.14 18.91,2.96 33.68,25.71 14.77,22.75 34.28,61.16 46.68,73.27 12.41,12.12 17.73,-2.06 28.07,-26.29 10.34,-24.23 25.72,-58.51 31.03,-82.15 5.32,-23.64 0.59,-36.63 -10.04,-66.48 -10.64,-29.84 -27.19,-76.52 -29.56,-103.12 -2.36,-26.59 9.46,-33.1 17.44,-32.21 7.98,0.89 12.12,9.16 21.57,34.57 9.46,25.41 24.23,67.96 33.69,89.53 9.46,21.57 13.58,22.17 29.84,-4.43 16.25,-26.59 44.61,-80.37 63.53,-111.1 18.91,-30.73 28.36,-38.41 36.04,-37.82 7.69,0.59 13.59,9.45 15.95,17.73 2.37,8.27 1.2,15.95 -18.61,54.36 -19.79,38.42 -58.2,107.57 -73.87,142.43 -15.66,34.87 -8.56,35.46 21.86,24.22 30.44,-11.23 84.23,-34.27 113.48,-40.18 29.26,-5.91 33.98,5.32 32.5,12.41 -1.48,7.09 -9.15,10.05 -42.55,26.29 -33.39,16.25 -92.49,45.81 -127.94,65.31 -35.46,19.5 -47.28,28.96 -60.29,48.46 -12.99,19.5 -27.18,49.05 -29.55,64.41 -2.35,15.36 7.1,16.54 32.51,6.79 25.42,-9.75 66.78,-30.43 89.24,-35.74 22.46,-5.32 26,4.72 20.97,12.99 -5.01,8.28 -18.61,14.78 -51.11,31.92 -32.51,17.14 -83.92,44.91 -114.95,75.63 -31.02,30.74 -41.65,64.43 -51.42,82.45 -9.74,18.02 -18.6,20.39 -24.81,18.02 -6.21,-2.36 -9.75,-9.46 -5.62,-39 4.14,-29.55 15.96,-81.54 18.32,-118.49 2.37,-36.94 -4.73,-58.8 -18.02,-85.4zm-405.92 905.93c25.42,-51.42 29.56,-98.69 33.7,-121.15 4.14,-22.46 8.27,-20.09 29.83,4.73 21.58,24.82 60.59,72.1 81.57,111.99 20.98,39.89 23.93,72.39 15.95,115.82 -7.97,43.44 -26.88,97.82 -62.05,156.91 -35.17,59.1 -86.57,122.93 -138.29,176.71 -51.71,53.77 -103.72,97.5 -133.56,118.49 -29.84,20.98 -37.53,19.2 -37.83,12.99 -0.29,-6.2 6.81,-16.85 19.51,-52.6 12.71,-35.75 31.02,-96.62 41.07,-155.42 10.04,-58.81 11.82,-115.53 13.29,-145.97 1.48,-30.44 2.67,-34.57 5.62,-40.19 2.96,-5.61 7.69,-12.7 33.4,-44.03 25.7,-31.32 72.38,-86.87 97.79,-138.28zm-131.22 16.56c-17.73,29.55 -19.5,26.6 -27.78,-25.99 -8.27,-52.6 -23.05,-154.84 -58.21,-252.65 -35.16,-97.79 -90.72,-191.16 -153.36,-241.4 -62.63,-50.23 -132.37,-57.31 -200.33,-55.25 -67.96,2.06 -134.15,13.3 -162.82,12.11 -28.66,-1.18 -19.79,-14.76 29.55,-41.65 49.35,-26.89 139.17,-67.08 234.32,-71.81 95.15,-4.73 195.61,26.01 267.71,69.14 72.1,43.14 115.83,98.7 137.1,176.4 21.28,77.72 20.1,177.58 2.67,258.55 -17.44,80.96 -51.12,143.01 -68.85,172.55zm-112.26 225.43c18.32,-23.93 23.63,-18.01 19.79,26.31 -3.84,44.33 -16.84,127.06 -38.99,190.88 -22.16,63.82 -53.49,108.74 -96.63,150.11 -43.13,41.37 -98.1,79.19 -166.06,98.98 -67.96,19.8 -148.93,21.58 -223.09,1.48 -74.17,-20.09 -141.54,-62.04 -190.89,-117.6 -49.34,-55.54 -80.67,-124.69 -99.87,-192.65 -19.21,-67.97 -26.3,-134.75 -25.71,-162.23 0.59,-27.49 8.86,-15.66 27.77,18.62 18.91,34.27 48.47,91.01 100.18,132.08 51.71,41.07 125.58,66.49 191.47,79.49 65.9,13 123.81,13.59 192.66,-4.14 68.85,-17.72 148.63,-53.78 204.17,-98.69 55.56,-44.91 86.89,-98.69 105.2,-122.64zm-324.18 -299c9.16,-51.7 10.94,-111.98 -1.17,-172.56 -12.12,-60.57 -38.13,-121.44 -77.72,-163.4 -39.59,-41.96 -92.78,-65 -119.38,-78.3 -26.58,-13.3 -26.58,-16.84 3.25,-19.79 29.85,-2.95 89.54,-5.32 152.78,11.52 63.23,16.84 130.01,52.9 168.71,106.38 38.72,53.48 49.35,124.39 41.07,192.05 -8.28,67.67 -35.45,132.08 -70.33,175.22 -34.86,43.14 -77.4,65.01 -101.93,75.94 -24.52,10.93 -31.03,10.93 -26.01,-10.64 5.03,-21.56 21.58,-64.71 30.73,-116.42zm-90.11 -44.76c0,-26.16 -11.52,-52.45 -20.38,-69.3 -8.87,-16.84 -15.08,-24.23 -11.83,-25.7 3.25,-1.48 15.96,2.95 31.77,14.03 15.81,11.09 34.72,28.81 43.73,54.22 9.01,25.41 8.13,58.51 0.89,82.74 -7.24,24.23 -20.84,39.59 -41.08,50.38 -20.24,10.78 -47.13,16.99 -63.38,20.24 -16.25,3.25 -21.86,3.55 -13.88,-5.03 7.97,-8.57 29.54,-26 46.09,-47.72 16.55,-21.71 28.07,-47.72 28.07,-73.86zm-212.75 -128.39c12.41,-37.52 47.88,-70.62 91.61,-79.79 43.73,-9.15 95.73,5.62 124.69,16.56 28.95,10.93 34.87,18.02 17.14,24.82 -17.74,6.79 -59.1,13.3 -89.83,29.26 -30.73,15.95 -50.82,41.37 -65.6,65.3 -14.77,23.93 -24.22,46.38 -30.15,70.6 -5.9,24.24 -8.26,50.24 -14.18,49.65 -5.9,-0.59 -15.36,-27.77 -25.4,-62.35 -10.05,-34.56 -20.68,-76.52 -8.28,-114.05zm149.84 481.02c46.38,-6.19 98.98,-23.34 149.8,-50.23 50.83,-26.89 99.88,-63.52 139.76,-113.46 39.89,-49.94 70.63,-113.18 80.09,-185.58 9.45,-72.39 -2.38,-153.93 -6.8,-192.64 -4.43,-38.71 -1.48,-34.58 22.44,-6.51 23.95,28.08 68.87,80.08 94.57,165.78 25.71,85.69 32.21,205.05 -6.2,294.89 -38.41,89.83 -121.75,150.11 -191.19,180.24 -69.44,30.15 -124.99,30.15 -183.79,21.87 -58.8,-8.28 -120.85,-24.82 -162.52,-42.26 -41.66,-17.43 -62.93,-35.75 -76.83,-49.05 -13.88,-13.29 -20.38,-21.56 -16.84,-25.11 3.55,-3.55 17.14,-2.37 44.04,0.58 26.88,2.96 67.07,7.68 113.47,1.48zm-326.24 -369.62c9.16,-43.14 29.86,-73.29 59.1,-100.76 29.26,-27.48 67.07,-52.3 85.09,-62.06 18.04,-9.74 16.25,-4.42 6.5,17.14 -9.75,21.58 -27.47,59.4 -36.04,99.58 -8.57,40.2 -7.98,82.74 5.9,124.1 13.9,41.37 41.07,81.56 81.56,118.78 40.48,37.24 94.27,71.51 124.4,88.95 30.14,17.43 36.65,18.02 21.58,21.86 -15.08,3.84 -51.71,10.93 -94.27,10.04 -42.55,-0.89 -91.01,-9.74 -135.03,-38.11 -44.03,-28.37 -83.63,-76.23 -104.61,-128.23 -20.97,-52.01 -23.34,-108.15 -14.18,-151.29zm-137.99 -23.94c-10.05,-55.84 -10.05,-126.16 14.77,-180.54 24.82,-54.37 74.47,-92.77 124.4,-111.09 49.94,-18.32 100.17,-16.54 148.92,-6.49 48.76,10.04 96.04,28.35 119.38,40.17 23.34,11.82 22.75,17.14 17.43,20.39 -5.32,3.24 -15.36,4.44 -53.77,7.1 -38.42,2.65 -105.19,6.79 -161.34,31.9 -56.14,25.12 -101.64,71.22 -122.41,129.42 -20.76,58.21 -16.8,128.54 -18.86,165.17 -2.06,36.64 -10.18,39.59 -24.28,20.39 -14.1,-19.2 -34.2,-60.57 -44.24,-116.42zm-747.89 -801.94c42.55,17.43 114.05,46.39 155.12,61.45 41.07,15.08 51.72,16.27 57.93,16.56 6.2,0.3 7.97,-0.3 2.66,-6.51 -5.33,-6.2 -17.73,-18.02 -24.83,-26.89 -7.09,-8.85 -8.87,-14.77 -39.29,-48.76 -30.45,-33.97 -89.55,-96.01 -135.05,-141.23 -45.51,-45.2 -77.41,-73.57 -84.21,-90.13 -6.8,-16.54 11.53,-21.27 33.4,-15.95 21.86,5.32 47.28,20.69 103.71,70.03 56.43,49.35 143.9,132.68 190.59,175.52 46.68,42.85 52.59,45.21 50.83,22.75 -1.79,-22.46 -11.24,-69.72 -26.6,-115.53 -15.37,-45.8 -36.65,-90.13 -42.56,-112.88 -5.9,-22.75 3.55,-23.94 13.9,-16.55 10.34,7.39 21.57,23.35 35.75,54.97 14.18,31.61 31.32,78.89 44.61,128.53 13.3,49.65 22.75,101.64 44.62,159.85 21.87,58.22 56.14,122.64 76.53,155.14 20.39,32.5 26.89,33.1 25.71,-17.14 -1.18,-50.22 -10.05,-151.28 -17.43,-233.73 -7.39,-82.43 -13.31,-146.26 -8.87,-171.67 4.43,-25.41 19.21,-12.42 32.22,39.29 12.99,51.72 24.23,142.13 28.66,226.34 4.42,84.21 2.07,162.23 2.07,205.08 0,42.84 2.35,50.52 10.63,67.65 8.28,17.15 22.45,43.74 31.91,52.31 9.45,8.57 14.18,-0.89 29.25,-40.78 15.07,-39.89 40.48,-110.21 55.26,-155.72 14.77,-45.5 18.91,-66.18 25.12,-70.03 6.2,-3.83 14.47,9.16 18.61,30.14 4.14,20.98 4.14,49.94 -12.12,98.69 -16.25,48.76 -48.74,117.31 -65,152.18 -16.25,34.86 -16.25,36.05 -12.7,49.63 3.54,13.6 10.63,39.61 13,57.04 2.36,17.43 -0.01,26.3 -4.43,31.03 -4.43,4.72 -10.94,5.31 -15.08,0.29 -4.14,-5.02 -5.91,-15.66 -11.81,-23.04 -5.92,-7.39 -15.97,-11.53 -33.4,-12.12 -17.43,-0.59 -42.25,2.36 -88.05,-0.3 -45.8,-2.66 -112.58,-10.93 -161.33,-22.75 -48.76,-11.81 -79.49,-27.19 -96.34,-39.89 -16.84,-12.71 -19.79,-22.75 -10.03,-23.93 9.74,-1.18 32.19,6.5 65.88,13.29 33.68,6.8 78.61,12.71 122.64,17.13 44.01,4.44 87.16,7.39 111.97,7.98 24.82,0.6 31.33,-1.18 34.58,-2.07 3.25,-0.88 3.25,-0.88 -5.31,-12.99 -8.59,-12.12 -25.72,-36.34 -43.74,-54.67 -18.03,-18.32 -36.93,-30.72 -84.8,-46.69 -47.87,-15.95 -124.7,-35.45 -176.7,-52.29 -52.01,-16.85 -79.19,-31.03 -93.08,-44.33 -13.88,-13.29 -14.49,-25.7 -9.46,-33.39 5.02,-7.68 15.66,-10.62 28.37,-9.16 12.7,1.48 27.48,7.39 67.36,18.62 39.9,11.23 104.9,27.77 139.19,36.93 34.27,9.16 37.81,10.95 40.47,11.83 2.66,0.88 4.44,0.88 -13.89,-28.07 -18.32,-28.96 -56.73,-86.88 -86.57,-118.2 -29.84,-31.32 -51.12,-36.05 -98.69,-50.23 -47.57,-14.19 -121.45,-37.82 -172.86,-59.7 -51.41,-21.86 -80.37,-41.95 -91.31,-57.02 -10.93,-15.07 -3.83,-25.12 6.51,-27.19 10.34,-2.07 23.93,3.85 66.48,21.28zm97.33 887.88c19.38,5.86 39.05,11.58 58.48,17.19 79.77,23.05 155.41,44.33 218.65,72.69 21.39,9.59 41.37,20 59.07,32.7 -81.19,-3.81 -165.14,-10.7 -257.82,-27.33 -61.83,-11.1 -128.96,-26.9 -196.94,-45.23 -60.73,-16.37 -121.11,-34.5 -178.33,-52.94l296.89 2.92zm-1704 -1584.89c93.34,-28.58 161.17,-114.86 161.17,-216.86 0,-125.32 -102.4,-226.92 -228.7,-226.92 -27.65,0 -54.16,4.87 -78.7,13.79 -17.43,-62.44 -33.42,-124.62 -47.54,-184.38 -25.14,-106.39 -44.12,-204.34 -55.57,-304.86 -11.49,-100.87 -15.56,-204.73 -10.93,-322.73 4.88,-124.05 19.41,-264.37 44.61,-410.12 22.85,-132.16 54.48,-268.38 95.61,-400.39 22.38,-71.87 47.6,-142.51 75.06,-211.1 12.28,2.33 24.96,3.57 37.92,3.57 111.38,0 201.67,-90.29 201.67,-201.66 0,-61.07 -27.15,-115.8 -70.03,-152.78 34.81,-60.33 70.92,-117 107.72,-169.18 90.09,-127.72 184.93,-229.02 281.4,-321.19 12.17,7.71 27.59,13.2 46.7,16.42 52.6,8.85 132.96,0.59 206.25,-23.06 73.27,-23.63 139.46,-62.63 174.92,-79.77 35.46,-17.14 40.17,-12.42 40.76,15.94 0.59,28.37 -2.95,80.38 30.74,109.34 33.69,28.96 104.59,34.86 183.79,0 79.19,-34.87 166.65,-110.52 217.48,-154.25 50.81,-43.73 65,-55.54 82.14,-62.04 17.13,-6.51 37.23,-7.7 58.51,3.54 21.26,11.22 43.71,34.86 85.68,18.91 41.96,-15.95 103.41,-71.51 157.79,-144.79 54.36,-73.27 101.63,-164.27 136.51,-255.88 27.82,-73.08 47.73,-146.55 60.34,-196.67 91.39,-18.96 185.8,-35.5 293.13,-41.67 58,-3.34 119.87,-3.76 184.02,-2.47 -2.57,4.94 -7.9,11.65 -16.27,22.16 -23.04,28.96 -69.14,86.86 -98.1,121.14 -28.95,34.27 -40.77,44.92 -51.4,52.02 -10.65,7.08 -20.11,10.62 -73.88,31.9 -53.78,21.27 -151.88,60.28 -231.65,111.1 -79.79,50.82 -141.24,113.46 -172.56,164.88 -31.32,51.41 -32.51,91.6 -14.19,115.24 18.32,23.63 56.14,30.73 75.05,34.27 18.91,3.54 18.91,3.54 1.78,40.78 -17.15,37.22 -51.42,111.69 -43.74,182.61 7.68,70.91 57.33,138.27 112.28,144.19 54.96,5.9 115.25,-49.65 145.38,-77.42 30.14,-27.78 30.14,-27.78 57.33,-28.96 27.17,-1.18 81.56,-3.55 126.46,-37.22 44.91,-33.69 80.38,-98.7 98.11,-131.19 17.72,-32.51 17.72,-32.51 35.45,-28.96 17.73,3.53 53.19,10.64 80.96,2.36 27.78,-8.28 47.87,-31.92 56.73,-70.33 8.87,-38.41 6.5,-91.59 -14.18,-160.14 -20.68,-68.55 -59.69,-152.48 -79.19,-194.43 -19.51,-41.96 -19.51,-41.96 10.63,-78.59 30.15,-36.65 90.42,-109.93 121.74,-146.56 31.32,-36.64 33.69,-36.64 57.32,-28.96 23.64,7.68 68.56,23.04 91.01,30.73 22.46,7.68 22.46,7.68 -7.67,31.32 -30.14,23.64 -90.43,70.91 -119.38,119.37 -28.96,48.45 -26.59,98.1 -2.96,148.93 23.64,50.82 68.56,102.81 115.83,122.92 47.28,20.09 96.93,8.26 147.15,-31.92 50.23,-40.18 101.06,-108.74 126.47,-143.02 25.41,-34.27 25.41,-34.27 34.87,-13.58 9.45,20.68 28.36,62.04 70.31,107.55 41.96,45.5 106.98,95.15 172.57,106.37 65.6,11.23 131.78,-15.95 163.1,-51.4 31.32,-35.47 27.79,-79.2 2.37,-128.84 -25.41,-49.63 -72.69,-105.19 -96.33,-132.96 -23.64,-27.78 -23.64,-27.78 10.63,-34.27 10.92,-2.07 25.31,-4.8 41.28,-9.05 31.87,14.31 64.19,29.12 97.24,44.75 81.23,38.41 164.24,80.8 250.71,131.05 85.5,49.67 174.63,107.21 259.62,166.86 79.85,56.05 155.9,113.86 221.71,168.65 -45.6,36.98 -74.75,93.44 -74.75,156.71 0,111.38 90.29,201.68 201.68,201.68 62.68,0 118.68,-28.6 155.66,-73.45 20.08,24.44 40.21,49.74 60.91,76.28 50.68,64.93 104.68,137.19 158.31,218.2 53.36,80.59 105.94,169.24 153.71,266.84 45.01,91.93 86.15,192.35 122.96,295.11 41.74,116.46 78.08,236.49 108.41,350.94 28.32,106.88 51.27,208.64 68.41,307.66 17.07,98.82 28.33,194.43 33.24,289.2 4.92,94.71 3.59,189.34 -3.91,285.57 -4.64,59.48 -11.68,119.54 -21.08,180.58 -98.88,12.95 -175.22,97.53 -175.22,199.94 0,71.19 36.89,133.77 92.59,169.65 -6.22,21.09 -12.69,42.15 -19.43,63.13 -31.54,98.03 -69.06,195.06 -112.88,287.47 -45.48,95.88 -97.99,187.06 -155.2,274.51 -42.67,65.24 -87.84,128.24 -134.59,189.46 -22.12,3.42 -44.3,6.41 -64.59,12.05 -31.92,8.87 -59.09,24.23 -96.32,78.01 -37.24,53.77 -84.51,145.96 -117.01,229.88 -1.78,4.59 -3.52,9.16 -5.2,13.7 -56.75,59.85 -114.95,117.1 -174.21,170.97 -120.12,109.19 -243.14,202.69 -366.6,293.76 -11.26,-37.64 -10.59,-38.88 7.32,-71.28 18.62,-33.69 55.85,-101.06 90.42,-141.25 34.57,-40.18 66.48,-53.18 116.42,-74.16 49.94,-20.98 117.91,-49.93 187.94,-110.51 70.03,-60.57 142.11,-152.77 176.98,-221.91 34.86,-69.13 32.5,-115.23 17.73,-140.05 -14.77,-24.82 -41.96,-28.37 -61.46,-24.23 -19.5,4.14 -31.32,15.95 -30.14,-19.5 1.18,-35.46 15.37,-118.2 12.41,-184.98 -2.95,-66.77 -23.04,-117.6 -63.82,-141.83 -40.78,-24.23 -102.24,-21.86 -144.2,-3.55 -41.96,18.32 -64.42,52.61 -86.29,75.06 -21.85,22.46 -43.12,33.09 -67.96,41.36 -24.82,8.27 -53.18,14.2 -82.13,46.69 -28.96,32.5 -58.51,91.61 -77.43,129.42 -18.91,37.83 -27.17,54.38 -34.86,54.38 -7.68,0 -14.77,-16.55 -24.82,-30.74 -10.05,-14.18 -23.04,-26 -39.6,-14.77 -16.54,11.22 -36.64,45.51 -50.82,86.28 -14.18,40.78 -22.45,88.05 -8.27,149.52 14.19,61.46 50.82,137.1 78.01,191.47 27.19,54.37 44.91,87.45 44.91,129.42 0,41.96 -17.72,92.78 -26.59,118.18 -8.86,25.42 -8.86,25.42 -50.83,-25.4 -41.95,-50.82 -125.87,-152.47 -236.39,-230.47 -110.49,-78.01 -247.6,-132.39 -381.76,-156.62 -134.14,-24.22 -265.34,-18.31 -365.8,14.78 -100.47,33.09 -170.2,93.38 -204.48,122.92 -34.27,29.55 -33.09,28.36 -37.22,4.72 -4.14,-23.63 -13.6,-69.73 -30.84,-113.46 -17.22,-43.73 -42.23,-85.09 -75.32,-101.05 -33.1,-15.96 -74.28,-6.5 -94.86,-1.77 -20.6,4.72 -20.6,4.72 -35.96,-40.2 -15.36,-44.91 -46.1,-134.73 -96.04,-207.13 -49.94,-72.38 -119.08,-127.33 -178.17,-158.36 -59.11,-31.02 -108.16,-38.11 -137.4,-19.21 -29.26,18.91 -38.72,63.83 -43.44,86.28 -4.73,22.47 -4.73,22.47 -63.53,-27.77 -58.8,-50.23 -176.41,-150.68 -265.35,-203.58 -88.94,-52.89 -149.21,-58.21 -182.01,-26.89 -32.8,31.32 -38.12,99.28 -29.26,173.74 8.87,74.47 31.91,155.42 43.43,195.91 11.53,40.48 11.53,40.48 -10.04,47.87 -21.57,7.38 -64.71,22.16 -79.49,57.91 -14.77,35.75 -1.18,92.48 44.92,158.37 46.09,65.89 124.7,140.95 164,178.48 39.3,37.52 39.3,37.52 37.23,42.83 -2.07,5.32 -6.21,15.97 -8.28,43.15 -2.07,27.18 -2.07,70.92 18.32,122.62 20.4,51.71 61.17,111.4 81.56,141.23 20.39,29.85 20.39,29.85 -10.93,4.73 -31.32,-25.11 -93.97,-75.35 -172.27,-145.38 -78.31,-70.02 -172.27,-159.85 -240.01,-236.71 -67.73,-76.84 -109.23,-140.73 -134.05,-176.49 -7.39,-10.64 -13.3,-18.8 -18.19,-25.01 14.84,-30.32 23.17,-64.4 23.17,-100.43 0,-126.37 -102.45,-228.82 -228.81,-228.82 -126.37,0 -228.82,102.45 -228.82,228.82 0,126.36 102.45,228.81 228.82,228.81 15.9,0 31.43,-1.61 46.42,-4.71 10.93,10.38 24.46,23.93 40.88,41.94 51.99,57.04 133.11,158.75 233.94,257.47 100.83,98.73 221.39,194.47 281.68,252.39 17.35,16.67 29.69,30.2 38.68,41.68l-15.82 -5.11c-92.44,-30.29 -183.22,-66.39 -270.52,-114.06 -87.5,-47.78 -172.56,-107.72 -254.4,-173.81 -82.26,-66.44 -161.2,-139.08 -236.09,-211.94 -71.7,-69.71 -139.88,-139.85 -203.48,-208.4 -69.76,-75.2 -133.22,-147.53 -189.2,-214.72 -53.9,-64.66 -101.47,-125.16 -145.09,-191.39 -43.26,-65.68 -83.17,-137.9 -122.33,-227.01 -3.42,-7.78 -6.84,-15.7 -10.25,-23.71zm-655.92 -1398.62c92.71,-18.18 162.64,-99.86 162.64,-197.88 0,-76.02 -42.07,-142.2 -104.18,-176.57 17.41,-76.64 38.73,-158.48 64.59,-242.02 27.96,-90.33 61.37,-182.76 101.06,-272.79 43.38,-98.41 94.07,-193.44 152.69,-286.84 58.94,-93.92 126.04,-186.53 201.89,-279.59 74.35,-91.22 157.2,-182.98 240.12,-267.58 86.25,-88 172.77,-168.37 249.94,-232.38 74.49,-61.79 140.17,-108.12 201.41,-146.67 8.5,19.17 20.53,35.2 28.29,45.55 14.18,18.92 14.18,18.92 -11.81,37.24 -26.01,18.31 -78.02,54.96 -111.12,102.82 -31.01,44.85 -45.4,99.57 -42.72,141.29 -104.45,98.61 -207.58,206.97 -306.34,346.98 -38.06,53.96 -75.38,112.55 -111.34,174.87 -20.76,-7.22 -43.05,-11.15 -66.27,-11.15 -111.39,0 -201.68,90.3 -201.68,201.68 0,71.6 37.32,134.48 93.57,170.27 -28.18,70.41 -54.04,142.83 -76.98,216.47 -42.18,135.39 -74.59,274.91 -97.97,410.12 -25.63,148.28 -40.47,292.03 -45.49,419.88 -4.81,122.49 -0.61,229.93 11.24,333.97 11.89,104.36 31.33,205.02 57.02,313.71 15.65,66.28 33.73,135.89 53.61,205.91 -50.39,41.62 -82.48,104.32 -82.48,174.47 0,121.93 96.9,221.37 218.46,226.68 6.26,15.15 12.55,29.95 18.87,44.32 40.59,92.33 82.58,168.16 128.54,237.94 45.59,69.22 94.69,131.69 150.11,198.19 58.02,69.63 122.49,143.2 191.86,217.98 64.05,69.03 133.09,140.02 206.14,211.06 76.38,74.3 157.03,148.51 241.41,216.65 84.79,68.49 173.49,130.9 265.63,181.21 85.66,46.78 173.52,82.69 262.5,112.77l-346.88 16.34c1.99,-12.16 3.05,-24.62 3.05,-37.35 0,-126.37 -102.44,-228.82 -228.81,-228.82 -63.87,0 -121.6,26.17 -163.11,68.37 -134.13,-100.77 -268.22,-203.6 -401.39,-332.46 -71.68,-69.37 -143.37,-146.54 -212.18,-227.97 -69.15,-81.8 -135.52,-168.13 -196.17,-255.29 -60.3,-86.64 -114.5,-173.39 -162.32,-259.57 -48.14,-86.75 -90.36,-173.8 -126.37,-260.49 -35.77,-86.07 -65.28,-171.55 -90.12,-259.57 -24.82,-87.96 -45.07,-178.98 -62.34,-276.12 -17.43,-98.09 -31.69,-201.21 -41.9,-301.54 -10.34,-101.3 -16.79,-200.44 -18.53,-289.57 -1.28,-65.45 -0.02,-125.74 3.86,-184.52zm-240.71 -197.88c0,98.88 71.19,181.15 165.11,198.35 -3.72,59.05 -4.9,119.74 -3.61,185.53 1.8,91.6 8.35,192.73 18.83,295.49 10.58,103.9 25.04,208.96 42.49,307.13 17.59,99.07 38.42,192.47 64.11,283.52 25.69,91.02 56.16,179.32 93.08,268.16 36.85,88.7 80.35,178.32 130.21,268.15 49.6,89.39 105.08,178.31 166.16,266.07 61.61,88.54 129.48,176.77 200.6,260.91 70.21,83.08 143.6,162.06 217.21,233.29 136.77,132.35 273.72,237.21 410.63,340.06 -14.33,29.9 -22.36,63.4 -22.36,98.77 0,126.37 102.45,228.82 228.82,228.82 86.49,0 161.79,-48.01 200.69,-118.83 98.33,39.06 199.01,78.16 315.55,117.34 74.67,25.09 155.38,50.17 235.04,71.65 68.4,18.43 137.41,34.6 203.15,46.4 122.4,21.97 228.62,27.58 332.67,31.02 4.09,10.44 7.44,21.79 9.98,34.22 16.55,80.97 -1.18,207.43 18.33,301.98 19.5,94.56 76.22,157.2 151.87,225.16 75.65,67.96 170.2,141.25 270.07,190.3 99.88,49.05 205.06,73.87 314.99,65.59 109.92,-8.27 224.56,-49.64 295.48,-69.74 70.92,-20.09 98.1,-18.9 188.51,-67.96 90.43,-49.05 244.07,-148.32 344.53,-273.61 100.47,-125.28 147.74,-276.57 171.38,-352.22 23.64,-75.63 23.64,-75.63 46.69,-57.32 23.05,18.32 69.14,54.96 112.87,111.1 43.73,56.15 85.11,131.78 118.79,215.7 33.69,83.92 59.68,176.11 95.14,243.48 35.47,67.37 80.37,109.92 128.24,120.02 47.87,10.11 98.69,-12.24 106.97,-91.43 8.27,-79.18 -26,-215.22 -79.78,-318.1 -53.76,-102.87 -127.03,-172.6 -156.87,-206.58 -29.83,-33.98 -16.25,-32.2 13.3,-26 29.54,6.21 75.06,16.86 113.17,39.6 38.11,22.75 68.85,57.62 112.28,90.41 43.44,32.8 99.57,63.53 161.33,75.94 61.76,12.42 129.13,6.51 177,-18.61 47.87,-25.11 76.24,-69.44 73.28,-114.35 -2.95,-44.91 -37.22,-90.42 -93.96,-125.87 -56.73,-35.46 -135.92,-60.87 -211.86,-60.28 -75.95,0.59 -148.63,27.19 -240.82,22.16 -92.19,-5.03 -203.88,-41.66 -260.62,-64.12 -56.72,-22.46 -58.5,-30.73 -49.05,-38.71 9.46,-7.97 30.14,-15.66 110.5,-9.16 80.38,6.5 220.45,27.19 319.73,20.09 99.28,-7.09 157.79,-41.95 190.87,-81.26 33.1,-39.29 40.78,-83.02 44.62,-104.89 3.84,-21.86 3.84,-21.86 95.44,-40.18 91.6,-18.31 274.79,-54.96 388.25,-93.37 113.47,-38.4 157.2,-78.59 178.47,-113.46 21.29,-34.86 20.11,-64.41 1.19,-85.69 -18.91,-21.27 -55.54,-34.27 -73.27,-46.68 -17.74,-12.42 -16.55,-24.23 6.49,-37.82 23.05,-13.6 67.96,-28.97 134.73,-93.98 66.78,-65 155.44,-179.64 189.71,-251.15 34.28,-71.51 14.18,-99.86 2.36,-120.55 -11.81,-20.69 -15.35,-33.68 6.5,-86.87 21.88,-53.18 69.15,-146.56 74.46,-205.66 5.32,-59.09 -31.31,-83.91 -113.45,-59.09 -82.15,24.82 -209.8,99.29 -278.36,135.33 -68.55,36.05 -78,33.69 -80.37,22.45 -1.42,-6.8 -0.26,-16.83 0.5,-29.46 47.34,-69.08 94.72,-142.66 142.15,-236.18 32.17,-63.36 64.41,-136.07 95.17,-218.34 27.78,-74.28 54.16,-155.62 77.84,-243.92 24.71,-92.07 46.97,-193.39 65.1,-293.94 18.22,-101.06 32.11,-200.95 39.94,-289.34 7.83,-88.26 9.64,-164.84 7.46,-238.16 -2.17,-73.82 -8.29,-143.6 -16.32,-218.21 -8.08,-75.16 -18.12,-155.57 -35.09,-244.15 -1.98,-10.33 -4.05,-20.78 -6.22,-31.34 67.85,-32.48 114.71,-101.76 114.71,-182.01 0,-111.38 -90.29,-201.67 -201.67,-201.67 -8.9,0 -17.66,0.57 -26.24,1.69 -29.2,-76.67 -62.99,-156.55 -100.2,-236.63 -55,-118.32 -117.84,-237.94 -184.82,-349.28 -68.32,-113.59 -140.82,-218.29 -220.5,-317.2 -79.86,-99.14 -166.92,-192.51 -264.24,-283.23 -96.12,-89.62 -202.34,-176.75 -311.22,-256.49 -111.31,-81.51 -225.37,-155.35 -334.25,-216.27 -179.66,-100.53 -345.5,-166.17 -508.96,-226.03 0.1,-16.03 -2.29,-31.12 -7.45,-44.1 -19.5,-49.05 -78.6,-67.96 -145.97,-64.41 -67.37,3.53 -143.01,29.55 -180.82,42.55 -37.83,12.99 -37.83,12.99 -31.92,-34.87 5.9,-47.87 17.73,-143.6 -16.56,-205.07 -34.27,-61.46 -114.64,-88.64 -173.74,-75.63 -59.09,12.99 -96.91,66.18 -117.6,98.1 -20.68,31.9 -24.22,42.55 -30.72,50.23 -6.5,7.68 -15.96,12.41 -20.69,14.78 -4.73,2.36 -4.73,2.36 -5.32,-4.73 -0.59,-7.1 -1.78,-21.28 -23.05,-45.51 -21.26,-24.23 -62.64,-58.51 -104.01,-75.64 -41.36,-17.14 -82.73,-17.14 -122.33,-7.68 -39.59,9.45 -77.4,28.35 -96.31,37.81 -18.91,9.45 -18.91,9.45 -40.2,2.96 -21.27,-6.51 -63.81,-19.51 -98.09,-43.73 -34.28,-24.23 -60.28,-59.7 -77.42,-111.1 -17.14,-51.42 -25.41,-118.78 -43.13,-200.34 -17.73,-81.55 -44.92,-177.28 -105.19,-236.96 -60.28,-59.7 -153.66,-83.34 -195.02,-53.79 -41.37,29.55 -30.74,112.28 13,187.34 43.72,75.05 120.55,142.42 166.66,195.01 46.08,52.6 61.44,90.41 60.27,109.33 -1.19,18.9 -18.92,18.9 -38.42,14.18 -19.5,-4.73 -40.78,-14.18 -92.19,-49.64 -51.41,-35.46 -132.96,-96.92 -221.01,-147.74 -88.06,-50.81 -182.61,-91.01 -242.3,-82.73 -59.69,8.28 -84.51,65 -75.64,117.01 8.86,52.01 51.41,99.27 114.05,132.96 62.64,33.69 145.38,53.78 222.21,66.78 76.82,13 147.74,18.91 188.51,23.05 40.77,4.13 51.42,6.5 83.92,24.82 32.5,18.31 86.87,52.59 114.06,69.73 27.18,17.13 27.18,17.13 13,19.5 -14.19,2.36 -42.55,7.09 -73.87,4.14 -31.32,-2.96 -65.6,-13.59 -103.43,-25.41 -37.82,-11.82 -79.18,-24.81 -135.33,-23.64 -56.14,1.18 -127.05,16.54 -171.37,46.09 -44.33,29.55 -62.05,73.28 -70.92,95.15 -8.87,21.86 -8.87,21.86 -102.82,27.18 -93.97,5.32 -281.89,15.96 -417.22,41.96 -135.33,26 -218.07,67.37 -233.43,106.96 -15.37,39.6 36.63,77.42 68.55,95.74 31.91,18.33 43.73,17.14 -11.22,39 -54.96,21.86 -176.71,66.79 -256.49,111.7 -55.56,31.28 -90.77,62.55 -108.62,92.64 -76.13,45.2 -157.74,99.9 -253.75,179.54 -78.58,65.19 -167.03,147.39 -255.55,237.71 -84.44,86.14 -168.91,179.72 -244.86,272.89 -77.79,95.44 -146.65,190.49 -207.2,286.99 -60.89,97.01 -113.36,195.28 -158.01,296.6 -40.65,92.22 -75.08,187.52 -104.03,281.05 -25.61,82.72 -46.89,164.07 -64.44,240.67 -8.36,-1.05 -16.87,-1.6 -25.53,-1.6 -111.38,0 -201.67,90.3 -201.67,201.68z"/>
 </g>
</svg>
