<?xml version="1.0" encoding="UTF-8"?>
<!DOCTYPE svg PUBLIC "-//W3C//DTD SVG 1.1//EN" "http://www.w3.org/Graphics/SVG/1.1/DTD/svg11.dtd">
<!-- Creator: CorelDRAW 2020 (64-Bit) -->
<svg xmlns="http://www.w3.org/2000/svg" xml:space="preserve" width="210mm" height="297mm" version="1.1" shape-rendering="geometricPrecision" text-rendering="geometricPrecision" image-rendering="optimizeQuality" fill-rule="evenodd" clip-rule="evenodd"
viewBox="0 0 21000 29700"
 xmlns:xlink="http://www.w3.org/1999/xlink"
 xmlns:xodm="http://www.corel.com/coreldraw/odm/2003">
 <g id="Capa_x0020_1">
  <metadata id="CorelCorpID_0Corel-Layer"/>
  <path id="aro_x0020_10.svg" fill="#A2662E" d="M-932.94 26356.99c-464.14,944.56 -1545.06,1524.77 -2907.42,1385.57 281.72,-54.42 395.03,99.45 634.04,-93.13 94.91,-76.46 91.44,-120.84 168.75,-203.94 51.7,-55.59 98.28,-67.43 132.87,-95.19 10.35,-8.84 29.87,-34.52 31.25,-49.28 0.87,-9.44 -6.43,-13.99 -17.09,-17.37 -10.66,-3.38 -24.7,-5.6 -49.08,-3.38 -51.92,4.72 -148.35,29.17 -207.6,40.77 -43.18,8.46 -85.33,15.09 -123.12,18.94 2.07,0.34 4.14,0.67 6.2,1 -26.38,4.1 -51.31,4.87 -75,3.88 -95.75,-3.99 -171.44,-36.63 -242.35,6.6 -108.84,66.37 -96.28,318.27 -516.15,332 49.75,-151.84 126.08,-242.83 223.89,-337.25 32.62,-31.56 64.61,-62.81 86.81,-89.31 23.74,-28.34 36.3,-51.23 39.17,-71.59 2.86,-20.35 -3.95,-38.16 -10.77,-55.97 -3.82,-3.59 -8.17,-7.12 -13.09,-10.58 -82.18,-37.15 -97.91,18.15 -141.23,50.01 -33.21,24.43 -39.52,21.06 -81.54,13.45 -68.38,-12.38 -103.37,-5.15 -174.34,17.3 0.04,0.06 0.08,0.13 0.11,0.19l-71.68 23.94c-151.39,55.6 -215.2,208.25 -251.68,383.44 -83.83,-0.97 -264.89,-19.88 -295.03,-92.38 139.59,-62.74 79.4,53.24 154.89,-118.04 9,-20.44 42.31,-79.64 46.06,-91.05 35.21,-107.13 -10.97,-98.66 -14.31,-101.76 -66.11,-50.03 -217.43,-37.92 -308.27,-19.61 -64.61,89.87 -71.97,176.03 -117.99,245.24 -61.88,-22.08 -231.35,-114.98 -278.02,-169.56 83.13,-56.05 79.26,-9.89 160.54,-39.22 27.31,-58.22 61.18,-172.83 45.95,-243.18 -201.58,-90.7 -269.92,67.11 -324.42,198.99 -194.33,-67.32 -661.78,-629.08 -760.1,-860.85 8.36,3.06 16.77,6.58 25.26,10.42 -21.3,-26.03 -42.14,-61 -60,-92.97l-14.17 -28.61c0.09,0.01 0.19,0.03 0.28,0.05 -76.97,-158.41 -152.57,-316.37 -203.76,-466.41 -54.27,-159.06 -81.12,-309.22 -107.96,-459.39 -14.71,-180.05 -25.99,-360.52 -12,-544.07 16.19,-212.41 66.2,-428.94 99.71,-560.06 6.9,-27 13.1,-50.38 18.74,-70.88 -18.51,35.75 -35.72,73.13 -51.66,112.16 9.12,-26.18 19.59,-51.3 31.16,-75.29 11.74,-33.92 24.22,-67.89 37.13,-102.6 2,-5.6 3.98,-11.15 5.95,-16.65 0.17,-0.23 0.34,-0.45 0.52,-0.69 0.52,-1.4 1.04,-2.81 1.57,-4.21 7.89,-21.16 15.92,-42.63 24.05,-64.33 0.01,-0.02 0.02,-0.04 0.02,-0.06 20.16,-53.8 40.93,-109.05 61.8,-164.54 -0.86,0.49 -1.71,0.98 -2.56,1.46 4.81,-11.1 9.58,-22.02 14.34,-32.77 432.4,-977 664.61,-523.18 858.11,-786.3 8.91,-25.54 17.82,-51.09 22.72,-81.59 4.9,-30.5 5.79,-65.95 18.2,-95.65 12.41,-29.69 36.34,-53.62 75.91,-96.07 39.56,-42.44 94.77,-103.4 149.97,-164.36 94.42,-116.11 206.36,-218.26 336.64,-300.01 91.25,-57.27 189.54,-107.92 300.22,-150.91 158.22,72.85 251.1,-44.33 351.22,-102.27 36.62,-8.01 74.01,-15.58 112.11,-22.78 -9.03,138.11 -88.57,64.77 -106.26,229.64 -10.9,101.6 -13.96,232.9 31.17,308.97 4.33,-0.18 8.66,-0.35 18.01,-1.27 9.35,-0.92 23.73,-2.57 54.42,-17.06 30.69,-14.49 77.7,-41.81 124.71,-69.14 51.51,-42.21 93.86,-90.68 119.09,-123.4 126.52,-164.01 91.21,-191.58 60.14,-376.42 723.36,-101.28 1310.93,52.13 1927.02,461.84 444.51,295.57 909.25,869.43 1043.19,1362.03 23.24,26.41 8.38,-40.61 34.36,51.16 19.18,67.78 -6.65,37.66 -9.84,43.8 -18.64,-16.56 -31.12,-26.39 -58.71,-51.07 -25.86,-85.14 -120.35,-108.5 -172.11,-244.99 -41,-108.06 -82.12,-197.69 -155.24,-255.8 -95.96,-76.25 -191.4,-99.24 -319.9,-109.38 -168.39,-13.26 -168.13,-102.52 -332,-79 2.64,34.3 15.42,65.16 34.07,93.07 55.84,83.73 111.68,167.45 169.74,231.03 58.05,63.57 118.33,107.01 149.39,137.92 31.07,30.91 32.93,49.3 37.51,63.32 4.58,14.02 11.87,23.67 19.17,33.33 80.82,84.97 235.78,30.76 358.92,84.07 26.62,11.52 193.87,157.64 219.06,241.16 -164.82,0.1 -233.23,14.14 -388.88,-33.29 -121.81,-37.11 -219.71,-108.89 -263.94,30.4 24.14,47.49 47.43,61.3 74.48,72.32 4.35,1.77 8.8,3.47 13.37,5.23 -0.52,0.82 -1.04,1.64 -1.56,2.46 6.99,4.6 14.16,9.44 21.84,14.96 12.05,8.67 25.34,19.01 39.41,36.38 11.36,14.03 23.22,32.63 35.18,52.11 0.67,-1.05 1.33,-2.1 1.99,-3.16 1.85,5.7 3.85,11.3 6.58,17.22 5.78,12.51 14.84,26.51 32.67,46.07 19.4,21.32 43.08,40.84 69.68,68.39 5.44,3.81 10.88,7.62 29.4,19.81 18.52,12.2 50.13,32.78 72.78,44.76 13.07,6.91 23.16,10.97 31.99,13.8 -0.01,-0.39 -0.03,-0.78 -0.04,-1.17 5.97,2.2 12.01,4.25 18.08,6.11 6.12,1.87 12.27,3.55 18.42,5 14.44,2.74 28.87,5.49 51.7,6.37 22.83,0.89 54.05,-0.09 85.27,-1.08l135.33 -10.29c87.3,-66.74 67.51,-32.32 103.55,-30.23 36.07,61.74 33.31,105.39 44.56,182.59l1.37 173.04c-0.56,-2.62 -4.38,11.2 -6.74,16.74 -61.97,-20.86 -61.71,-16.67 -81.6,-47.27 -9.33,-3.43 -19.54,-6.51 -30.6,-8.98 -48.78,-10.93 -114.64,-10.07 -170.66,3.24 -24.79,5.88 -47.66,14.21 -67.45,22.79 -22.82,12.15 -45.64,24.3 -57.05,36.26 -11.41,11.95 -11.41,23.71 -5.21,39.31 6.19,15.59 18.58,35.01 30.97,54.44 5.53,8.88 11.38,17.88 17.44,26.69 14.03,20.37 29.24,39.7 30.49,61.35 13.87,17.75 30.42,32.01 51.67,40.49 86.11,34.3 218.23,-19.77 311.38,-33.94l-23.54 348.76c-63.46,7.71 -84.64,-32.29 -111.89,-90.66 -8.83,-8.81 -17.67,-17.63 -24.59,-22.21 -6.92,-4.59 -11.93,-4.94 -22.15,-5.33 -10.22,-0.39 -25.65,-0.82 -51.55,4.03 -24.11,4.51 -57.29,13.59 -91.09,22.99 -9.83,4.29 -19.65,8.58 -28.82,13.35 -9.17,4.77 -17.67,10 -24.67,14.73 -7,4.72 -12.48,8.93 -13.85,16.29 -1.36,7.35 1.4,17.87 8.98,38.41 7.58,20.55 19.99,51.13 35.5,72.62 15.51,21.49 34.13,33.9 63.38,45.35 29.24,11.45 69.12,21.94 109.01,32.43 38.24,0.81 79.38,-1.35 121.78,-4.4 -5.8,104.07 -31.05,241.25 -71.3,373.54 -5.28,17.34 -10.81,34.59 -16.59,51.68 -3.68,11.65 -8.02,25.53 -13.36,42.77 -2.54,8.19 -5.31,17.14 -8.26,26.72l-8.23 26.73 -0.2 -0.45c-21.1,65.83 -42.21,131.65 -63.32,197.48 0.52,-0.32 1.04,-0.65 1.56,-0.98 -3.03,8.27 -6.07,16.45 -9.11,24.54 -7.15,18.98 -14.36,37.48 -21.61,55.41 -5.05,22.41 -0.14,21.14 -13.22,47.2 -29.08,57.9 -6.07,16.18 -19.52,29.26 -15.13,33.27 -30.62,64.29 -48.89,97.71zm-3505.72 1589.79c74.18,145.47 54.22,203.21 187.12,302.91 59.47,44.63 248.09,154.31 316.47,154.43 160.75,36.43 92.16,-82.76 90.75,-88.41 -17.04,-78.52 -7.57,-236.17 -46.09,-290.98 -23.18,-32.99 -53.29,-43.43 -86.51,-90.17 -19.93,-28.03 -43.15,-68.64 -57.83,-96.67 121.39,-10.23 332.19,20.81 478.07,22.59 685.21,8.36 767.57,-69.07 1323.18,-216.72 -32.99,59.36 -453.45,215.38 -551.65,249.94 -108.17,38.08 -195.05,68.18 -310.68,103.6 -113.66,34.79 -251.02,35.9 -264.7,144.61 137.45,58.38 475.19,-57.85 603.39,-100.77 82.41,-27.62 703.97,-277.51 742.21,-338.49 266.47,-89.19 399.72,243.76 574.98,151.37 29.42,-61.97 23.01,-107.41 -40.74,-140.3 -31.9,-16.48 -70.03,-15.76 -93.18,-26.39 -74.1,-34.05 -26.39,14.79 -40.42,-55.03 238.79,-84.65 385.55,196.52 558.11,91.69 59.65,-70.39 -44.54,-129.79 -111.05,-151.74 -69.52,-22.91 -151.39,-22.82 -224.32,-32.12 39.08,-63.99 60.89,-50.36 116.14,-91.24 -5.67,-273.25 -225.15,-32.43 -365.2,5.81 57.2,-61.62 141.98,-107.71 222,-173.16 326.68,-267.18 675.22,-617.98 910.36,-972.47 60.12,-90.62 48.78,-159.51 175.32,-197.27 126.99,-37.89 187.92,-3.93 285.35,-82.29 -5.53,-78.83 -29.93,-124.2 -118.01,-126.47 -77.92,-1.99 -88.71,39.77 -181.86,53.71 57.5,-255.13 405.34,-154.75 417.47,-407.47 -183.64,-147.05 -177.76,42.55 -333.99,160.91 -2.71,-3.89 -5.95,-9.52 -7.27,-12.22l-17.76 -40.42c-7.94,-20.74 -8.94,-34.52 -20.44,-57.48 -22.29,-44.5 -34.68,-55.56 -91.74,-69.15 -86.07,58.73 -81.25,265.87 -115.17,359 -166.6,457.47 -383.16,747.2 -705.86,1068.67 251.14,-368.56 601.46,-672.43 676.26,-1534.34 124.51,-16.25 237,18.71 301.05,-84.47 43.34,-69.78 11.53,-108.57 29.24,-170.8 22.36,-78.54 48.31,-5.6 55.65,-148.34 -105.42,0.74 -199.27,76.86 -347.26,146.65l16.9 -328.14c159.89,-36.99 278.9,-20.18 348.14,-159.7 51.3,-103.33 130.91,-286.25 54.65,-416.23 -199.98,-48.62 -393.1,245.11 -438.47,272.52l-32.96 -215.74c20.33,-25.63 1.23,-3.08 29.07,-31.6l274.51 -354.35c74.03,-140.72 68.36,-414.67 11.55,-571.84 -107.44,-8.16 -81.47,15.41 -137.83,75.39 -34.73,36.95 -85.47,49.79 -134.01,81.77 -109.43,72.08 -72.3,167.15 -159.85,273.17l-33.31 -50.04c-103.27,-211.91 -75.9,-272.54 -311.1,-645.59 -97.34,-154.4 -344.83,-470.73 -470.66,-555.3 0,0 -49.94,-47.2 7.75,-14.49 294.29,139.87 657.32,583.34 722.32,595.38 -5.56,-211.2 -152.55,-311.02 -256.7,-401.18 -696.98,-603.31 -1261,-889.5 -2189.68,-1100.3 -82.1,-18.63 -509.75,-93.34 -547,-122.28 -89.24,-69.33 -182.44,-323.97 -360.8,-226.53 -11.6,116.13 69.42,117.5 109.45,209.15 -323.56,9.1 -305.89,-312.68 -456.34,-390.92 -79.17,-41.16 -219.83,-3.03 -348.7,-63.13 -51.94,-24.21 -83.58,-41.18 -142.4,-74.65 -139.25,-79.24 -125.67,-21.44 -128.44,-19.03 -93.15,99.19 55.7,148.06 122.81,222.25 62.66,69.27 100.51,144.52 148.41,223.09 141.88,232.77 274.61,57.43 598.42,167.58 -31.76,51.13 -2.52,22.8 -47.87,51.62 -64.72,41.14 -98.39,-4.49 -114.8,95.49 95.24,87.62 212.25,1.8 326.94,-16.32 155.88,-24.65 420.52,-17.18 661.64,15.68 -322.37,37.61 -643.22,76.25 -919.94,142.66 -181.12,-57.85 -183.11,-75.12 -270.8,80.42 -134.96,49.54 -253.45,109.5 -363.11,178.32 -127.76,80.16 -241.98,171.23 -355.57,271.4 -90.27,79.58 -181.54,166.26 -273.35,257.09 -31.95,8.09 -67.4,15.28 -107.04,21.19 -239.71,35.71 -252.51,183.89 -330.9,382.44l-272.62 453.59c-54.03,93.4 -183.71,423.69 -245.15,476.34 5.63,-134.04 103.43,-420.49 56.55,-527.09 -108.89,-1.71 -131.04,240.02 -163.22,402.05 -31.48,158.55 -56.72,328.24 -72.67,494.19 -35.6,370.77 -23.49,737.39 23.62,1093.56 82.89,626.65 362.84,1262.22 368.18,1350.31 12.18,200.07 -155.51,295.24 -60.9,463.81 175.26,32.64 160.79,-111.9 171.51,-168.59l37.62 -82.18c69.44,84.1 41.04,253.51 37.43,355.82 -3.73,105.47 -17.78,293.95 124.24,215.57 61.11,-114.45 -18.59,-289.25 -2.52,-424.18 68.68,56.46 80.14,106.48 186.88,101.94 29.07,-117.3 -183.6,-320.59 -286.45,-549.12l-52.48 -77.61c-13.12,-33.04 -18.26,-50.08 -25.18,-86.67l98.98 137.59c115.89,156.98 384.26,479.44 548.48,562.02 -35.42,86.9 -153.9,206.74 -52.51,328.25 32.02,38.38 91.85,49.27 126.7,89.08 48.7,55.65 6.71,85.61 100.02,106.39 48.57,-65.83 36.67,-253.27 30.95,-363.53l277.33 156.23c-7.08,210.61 -142.65,225.29 25.19,429.99 51.6,62.95 154.01,160.52 228.06,185.45 252.31,85.01 71.44,-406.61 44.08,-487.91l107.06 25.49c207.83,22.75 175.33,151.9 208.5,259.45z"/>
 </g>
</svg>
