<?xml version="1.0" encoding="UTF-8"?>
<!DOCTYPE svg PUBLIC "-//W3C//DTD SVG 1.1//EN" "http://www.w3.org/Graphics/SVG/1.1/DTD/svg11.dtd">
<!-- Creator: CorelDRAW 2020 (64-Bit) -->
<svg xmlns="http://www.w3.org/2000/svg" xml:space="preserve" width="210mm" height="297mm" version="1.1" shape-rendering="geometricPrecision" text-rendering="geometricPrecision" image-rendering="optimizeQuality" fill-rule="evenodd" clip-rule="evenodd"
viewBox="0 0 21000 29700"
 xmlns:xlink="http://www.w3.org/1999/xlink"
 xmlns:xodm="http://www.corel.com/coreldraw/odm/2003">
 <g id="Capa_x0020_1">
  <metadata id="CorelCorpID_0Corel-Layer"/>
  <path id="aro_x0020_17.svg" fill="#A2662E" d="M15899.57 48537.83c-22.56,73.23 -39.01,143.8 -48.01,182.27 -9.03,38.47 -10.63,44.84 -19.39,23.35 -8.74,-21.5 -24.67,-70.84 -32.89,-141.4 -8.22,-70.58 -8.74,-162.39 -9,-212.52 -0.28,-50.15 -0.28,-58.64 6.88,-56.24 7.16,2.39 21.49,15.64 39.26,21.49 17.77,5.83 39,4.23 53.6,-6.11 14.59,-10.35 22.55,-29.44 20.17,-47.75 -2.4,-18.31 -15.13,-35.81 -24.41,-48.55 -9.29,-12.73 -15.14,-20.7 1.05,-29.19 16.19,-8.49 54.39,-17.5 77.48,-25.46 23.07,-7.97 31.03,-14.86 35.01,-27.33 3.98,-12.48 3.98,-30.51 6.63,-37.93 2.66,-7.44 7.95,-4.26 18.05,-0.81 10.08,3.45 24.94,7.16 33.96,10.35 9.01,3.18 12.21,5.83 -1.86,34.22 -14.07,28.39 -45.37,82.51 -75.34,147.51 -29.99,65 -58.64,140.87 -81.19,214.1zm3311.77 4044.32c88.61,-5.84 145.92,-13.27 179.88,-16.98 33.96,-3.72 44.56,-3.72 48.8,1.05 4.25,4.78 2.14,14.34 2.14,23.88 0,9.56 2.11,19.11 3.71,27.07 1.59,7.96 2.65,14.33 -3.71,16.45 -6.37,2.12 -20.17,0 -39.27,4.25 -19.1,4.24 -43.51,14.86 -61.03,31.31 -17.51,16.44 -28.11,38.74 -36.6,44.57 -8.49,5.83 -14.85,-4.78 -29.71,-16.46 -14.86,-11.67 -38.21,-24.41 -59.95,-23.88 -21.77,0.53 -41.94,14.33 -51.48,32.37 -9.56,18.05 -8.49,40.33 -12.2,50.94 -3.72,10.61 -12.21,9.56 -28.66,5.83 -16.44,-3.71 -40.86,-10.08 -87.02,-26.52 -46.17,-16.45 -114.08,-42.99 -168.72,-69.52 -54.66,-26.52 -96.05,-53.06 -109.84,-64.74 -13.81,-11.67 0,-8.48 25.47,-6.89 25.45,1.59 62.61,1.59 141.14,-0.53 78.52,-2.12 198.44,-6.37 287.05,-12.2zm2657.84 -5344.85c-45.62,-50.94 -75.34,-74.28 -92.86,-86.48 -17.49,-12.21 -22.81,-13.27 -22.81,-15.39 0,-2.12 5.32,-5.31 10.08,-11.68 4.78,-6.37 9.03,-15.91 16.98,-14.84 7.97,1.05 19.63,12.72 31.84,19.62 12.21,6.9 24.94,9.02 44.04,4.78 19.1,-4.25 44.57,-14.86 57.84,-16.45 13.27,-1.6 14.33,5.84 13.79,24.4 -0.52,18.57 -2.64,48.29 4.25,68.98 6.9,20.69 22.82,32.37 37.15,37.68 14.32,5.31 27.06,4.23 37.67,-4.26 10.62,-8.49 19.11,-24.4 25.47,-35.54 6.37,-11.15 10.62,-17.52 22.28,1.59 11.69,19.1 30.78,63.67 44.58,110.37 13.8,46.7 22.27,95.5 28.11,138.48 5.85,42.98 9.02,80.13 11.14,102.42 2.13,22.28 3.19,29.7 -13.79,7.96 -16.98,-21.76 -52,-72.7 -100.29,-137.43 -48.28,-64.75 -109.82,-143.27 -155.47,-194.21zm551.22 2547.07c-4.24,37.94 -16.98,110.64 -25.21,151.23 -8.22,40.59 -11.93,49.08 -14.85,49.88 -2.91,0.79 -5.03,-6.1 -10.6,-24.41 -5.58,-18.31 -14.59,-48.02 -25.48,-74.29 -10.87,-26.26 -23.61,-49.08 -55.44,-92.32l-2.77 -3.76c-1.35,-14.79 -5.05,-25.61 -11.12,-32.34 -7.59,-8.43 -15.6,-12.77 -24,-12.98 -28.58,-35.31 -63.39,-74.57 -100.08,-107.73 -36.26,-32.76 -74.34,-59.58 -104.62,-77.72 -15.78,-6.33 -31.56,-12.67 -39.45,-14.07 -7.89,-1.4 -7.89,2.13 -7.55,19.13 0.33,17 1,47.48 1.67,77.96 6.57,24.36 14.54,51.23 23.92,78.55 20.43,59.43 47.49,120.98 76.94,167.41 15.25,24.04 31.14,44.04 45.13,59.78 1.79,2.02 3.56,3.98 5.29,5.86 -0.08,0.1 -0.16,0.21 -0.24,0.31 4.19,5.29 8.57,11.41 13.61,20.41 7.09,12.67 15.47,31.05 23.85,49.43 -0.89,11.09 -0.36,24.92 4.7,39.61 8.75,25.47 31.04,53.59 40.58,68.17 9.55,14.6 6.37,15.67 -3.98,13.8 -10.35,-1.86 -27.85,-6.62 -48.28,-9.28 -20.44,-2.66 -43.77,-3.18 -64.74,5.04 -20.95,8.23 -39.53,25.21 -46.69,44.31 -7.17,19.11 -2.92,40.33 8.75,57.31 11.67,16.98 30.78,29.71 55.98,35.02 25.21,5.31 56.5,3.19 72.15,2.13 15.66,-1.05 15.66,-1.05 7.68,7.44 -7.95,8.49 -23.86,25.46 -35.02,40.31 -11.14,14.86 -17.51,27.6 -14.85,43.51 2.66,15.93 14.32,35.03 23.87,47.77 9.56,12.73 16.99,19.1 21.75,38.2 4.79,19.1 6.91,50.93 5.32,74.27 -1.59,23.35 -6.9,38.21 -11.68,37.68 -4.76,-0.52 -9.01,-16.45 -13.25,-38.21 -4.25,-21.74 -8.49,-49.33 -15.93,-71.63 -7.42,-22.28 -18.04,-39.26 -31.31,-53.59 -13.25,-14.32 -29.18,-26 -49.87,-30.25 -20.69,-4.22 -46.16,-1.05 -65.27,31.85 -19.1,32.9 -31.84,95.51 -13.27,151.75 18.57,56.24 68.46,106.13 95.52,135.31 27.06,29.18 31.3,37.67 20.16,70.56 -11.14,32.91 -37.68,90.21 -53.6,113.55 -15.92,23.35 -21.21,12.74 -29.7,-6.36 -8.49,-19.11 -20.17,-46.69 -33.97,-81.18 -13.79,-34.48 -29.71,-75.88 -53.06,-99.23 -23.33,-23.35 -54.11,-28.64 -80.12,-15.91 -25.99,12.74 -47.21,43.51 -49.87,74.28 -2.66,30.78 13.27,61.56 44.57,101.36 31.31,39.79 78,88.6 101.35,118.31 23.34,29.72 23.34,40.33 -1.59,82.25 -24.93,41.92 -74.82,115.14 -101.88,151.74 -27.06,36.62 -31.31,36.62 -35.03,33.43 -3.71,-3.18 -6.89,-9.53 -6.37,-33.41 0.53,-23.87 4.78,-65.27 3.19,-106.13 -1.58,-40.85 -9.03,-81.18 -21.22,-113.02 -12.21,-31.84 -29.19,-55.19 -49.87,-66.87 -20.7,-11.66 -45.12,-11.66 -68.47,-1.58 -23.33,10.09 -45.62,30.25 -56.23,66.86 -10.62,36.62 -9.55,89.67 4.24,137.96 13.81,48.29 40.34,91.83 62.37,128.17 22.03,36.36 39.53,65.54 46.95,80.66 7.44,15.13 4.78,16.19 -18.84,42.19 -23.61,26.01 -68.17,76.93 -92.05,101.87 -23.88,24.95 -27.07,23.88 -30.25,9.56 -3.18,-14.33 -6.37,-41.92 -10.35,-71.37 -3.98,-29.44 -8.74,-60.76 -17.77,-81.73 -9.02,-20.95 -22.29,-31.55 -41.92,-32.34 -19.64,-0.8 -45.63,8.21 -58.64,23.86 -13,15.66 -13,37.95 -19.9,45.11 -6.89,7.16 -20.69,-0.81 -36.09,-2.93 -15.37,-2.12 -32.35,1.6 -45.09,11.68 -12.74,10.08 -21.22,26.54 -21.5,50.68 -0.26,24.15 7.71,55.98 14.08,77.73 6.37,21.76 11.13,33.44 1.06,29.19 -10.09,-4.24 -35.02,-24.41 -63.41,-33.16 -28.39,-8.75 -60.22,-6.11 -81.45,7.96 -21.23,14.06 -31.84,39.53 -29.19,63.4 2.65,23.88 18.58,46.18 40.6,64.21 22.02,18.05 50.13,31.84 63.65,41.38 13.55,9.56 12.48,14.87 -3.18,26.8 -15.66,11.94 -45.92,30.52 -64.78,39.27 -18.84,8.76 -26.26,7.7 -45.11,2.39 -18.84,-5.3 -49.07,-14.86 -80.11,-17.24 -31.05,-2.39 -62.87,2.38 -95.78,10.87 -32.89,8.49 -66.86,20.71 -83.04,27.87 -16.18,7.16 -14.58,9.28 -0.8,22.81 13.81,13.53 39.8,38.47 66.6,55.45 26.8,16.98 54.38,25.99 80.9,30.49 26.54,4.52 52.01,4.52 65.54,5.32 13.53,0.79 15.13,2.39 -3.97,20.69 -19.1,18.31 -58.91,53.34 -81.47,70.84 -22.53,17.51 -27.85,17.51 -32.35,16.72 -4.51,-0.8 -8.23,-2.39 -15.93,-8.49 -7.68,-6.09 -19.36,-16.71 -41.64,-29.72 -22.28,-12.99 -55.19,-28.37 -99.23,-37.67 -44.04,-9.28 -99.24,-12.46 -143.81,-11.41 -44.58,1.07 -78.52,6.37 -102.41,13.27 -23.88,6.9 -37.67,15.39 -35.55,33.97 2.13,18.56 20.16,47.22 48.29,72.68 28.13,25.47 66.32,47.77 105.04,61.02 38.75,13.27 78.02,17.52 101.37,20.17 23.34,2.66 30.77,3.71 3.17,21.23 -27.58,17.51 -90.2,51.46 -124.16,67.37 -33.96,15.93 -39.26,13.81 -47.23,1.07 -7.96,-12.74 -18.55,-36.07 -46.68,-56.24 -28.11,-20.16 -73.76,-37.14 -121.51,-49.87 -47.75,-12.74 -97.63,-21.23 -128.94,-22.83 -31.3,-1.59 -44.04,3.73 -24.93,33.96 19.1,30.25 70.03,85.44 109.29,117.27 39.27,31.84 66.86,40.33 80.12,48.82 13.27,8.49 12.21,16.98 -2.12,23.87 -14.33,6.9 -41.91,12.22 -59.42,13.27 -17.51,1.07 -24.94,-2.13 -36.09,-7.44 -11.14,-5.3 -26,-12.72 -41.92,-19.09 -15.92,-6.36 -32.88,-11.68 -64.72,-19.63 -31.84,-7.96 -78.54,-18.57 -136.38,-24.42 -57.83,-5.83 -126.82,-6.89 -167.15,-8.49 -40.32,-1.59 -52,-3.71 -62.61,-9.54 -10.6,-5.84 -20.16,-15.39 -36.6,-23.35 -16.45,-7.95 -39.79,-14.32 -64.73,-6.9 -24.94,7.44 -51.48,28.66 -58.38,55.18 -6.89,26.54 5.84,58.37 21.22,77.47 15.4,19.1 33.43,25.47 51.47,28.13 18.04,2.66 36.1,1.59 50.42,-4.25 14.32,-5.83 24.93,-16.45 30.77,-26 5.83,-9.55 6.9,-18.04 33.42,-22.82 26.53,-4.76 78.54,-5.83 136.37,-0.53 57.84,5.31 121.52,16.99 158.12,26.54 36.62,9.54 46.18,16.98 48.82,22.81 2.66,5.84 -1.59,10.08 -58.36,25.99 -56.78,15.93 -166.08,43.52 -227.1,57.31 -61.02,13.81 -73.76,13.81 -85.96,11.68 -12.2,-2.12 -23.88,-6.36 -37.69,-11.68 -13.78,-5.3 -29.69,-11.66 -46.68,-14.85 -16.98,-3.18 -35.03,-3.18 -46.71,1.06 -11.66,4.25 -16.96,12.74 -25.45,14.86 -8.49,2.12 -20.17,-2.12 -30.79,-2.66 -10.59,-0.51 -20.16,2.66 -28.11,3.71 -7.96,1.07 -14.32,0.02 -14.32,-3.71 0,-3.71 6.36,-10.07 11.66,-24.93 5.32,-14.86 9.56,-38.21 8.49,-56.26 -1.05,-18.03 -7.42,-30.75 -23.35,-41.37 -15.91,-10.61 -41.38,-19.1 -63.67,-20.7 -22.28,-1.59 -41.39,3.72 -55.71,23.35 -14.32,19.63 -23.88,53.6 -27.07,71.63 -3.19,18.05 -0.03,20.17 -3.22,14.34 -3.19,-5.84 -12.76,-19.64 -28.13,-30.25 -15.39,-10.61 -36.62,-18.04 -58.89,-19.64 -22.3,-1.59 -45.65,2.66 -58.91,13.27 -13.26,10.61 -16.45,27.6 -13.8,48.28 2.66,20.7 11.15,45.11 0.01,59.97 -11.14,14.86 -41.93,20.15 -66.33,22.28 -24.42,2.12 -42.45,1.07 -49.35,-2.66 -6.9,-3.71 -2.66,-10.07 0,-26.52 2.65,-16.45 3.71,-42.99 2.12,-58.38 -1.59,-15.37 -5.83,-19.62 -25.99,-19.62 -20.17,0 -56.25,4.25 -82.25,22.28 -26,18.05 -41.92,49.89 -54.66,66.86 -12.73,16.99 -22.28,19.11 -72.15,22.82 -49.89,3.71 -140.09,9.02 -219.67,8.49 -79.6,-0.54 -148.59,-6.91 -188.9,-11.68 -40.33,-4.77 -52.01,-7.96 -54.13,-12.74 -2.13,-4.76 5.31,-11.13 18.58,-20.69 13.26,-9.54 32.36,-22.28 45.63,-38.73 13.25,-16.44 20.69,-36.61 16.44,-52.01 -4.24,-15.37 -20.17,-25.98 -49.87,-29.18 -29.71,-3.17 -73.24,1.07 -106.66,21.23 -33.43,20.17 -56.78,56.24 -72.69,75.87 -15.93,19.65 -24.42,22.82 -47.23,19.65 -22.81,-3.18 -59.96,-12.74 -88.08,-25.47 -28.12,-12.74 -47.23,-28.65 -56.24,-39.8 -9.02,-11.14 -7.97,-17.51 6.89,-28.66 14.85,-11.13 43.52,-27.06 95.51,-53.07 52,-25.99 127.36,-62.07 189.44,-85.42 62.08,-23.34 110.89,-33.96 137.96,-39.27 27.05,-5.3 32.35,-5.3 38.72,-1.59 6.37,3.72 13.81,11.15 26.01,19.1 12.2,7.97 29.18,16.46 45.62,17.51 16.45,1.07 32.38,-5.29 42.46,-10.07 10.08,-4.78 14.32,-7.96 14.32,1.58 0,9.56 -4.24,31.84 -0.52,56.25 3.72,24.41 15.38,50.95 37.14,66.33 21.76,15.39 53.58,19.64 81.71,13.8 28.13,-5.83 52.53,-21.76 62.09,-44.57 9.54,-22.81 4.24,-52.53 0,-69.51 -4.25,-16.98 -7.44,-21.23 7.95,-12.74 15.39,8.5 49.34,29.72 81.71,26.53 32.36,-3.18 63.15,-30.77 72.7,-55.71 9.55,-24.94 -2.13,-47.23 -27.07,-62.08 -24.93,-14.86 -63.14,-22.28 -81.71,-27.07 -18.57,-4.77 -17.52,-6.89 -6.36,-10.61 11.14,-3.71 32.37,-9.02 55.18,-23.35 22.81,-14.32 47.23,-37.67 50.42,-61.55 3.18,-23.87 -14.87,-48.29 -37.15,-61.02 -22.29,-12.74 -48.82,-13.79 -77.47,5.3 -28.66,19.1 -59.44,58.38 -75.89,78.53 -16.44,20.18 -18.57,21.23 -17.5,7.44 1.06,-13.79 5.3,-42.45 4.78,-64.75 -0.53,-22.28 -5.85,-38.19 -15.39,-53.05 -9.56,-14.85 -23.35,-28.65 -41.39,-35.02 -18.04,-6.36 -40.34,-5.3 -63.67,8.49 -23.34,13.8 -47.77,40.34 -56.26,64.21 -8.49,23.88 -1.05,45.1 6.91,62.09 7.95,16.98 16.44,29.7 12.2,35.53 -4.25,5.85 -21.23,4.78 -37.67,9.56 -16.45,4.78 -32.38,15.39 -45.1,23.88 -12.74,8.49 -22.29,14.86 -54.65,25.47 -32.37,10.62 -87.56,25.47 -113.03,30.77 -25.47,5.32 -21.23,1.07 -14.32,-19.1 6.9,-20.16 16.45,-56.24 18.57,-81.71 2.12,-25.47 -3.18,-40.33 -12.73,-49.35 -9.55,-9.02 -23.36,-12.21 -48.81,-1.59 -25.47,10.61 -62.63,35.03 -85.98,67.92 -23.35,32.89 -32.89,74.29 -37.13,99.23 -4.25,24.93 -3.2,33.42 -28.65,49.34 -25.47,15.92 -77.48,39.27 -114.62,63.14 -37.13,23.88 -59.43,48.3 -75.34,60.5 -15.93,12.2 -25.48,12.2 -76.42,-5.84 -50.94,-18.03 -143.26,-54.1 -192.06,-74.26 -48.83,-20.15 -54.14,-24.4 -67.39,-42.45 -13.27,-18.03 -34.5,-49.87 -62.61,-69.51 -28.13,-19.62 -63.16,-27.06 -89.68,-32.89 -26.54,-5.84 -44.57,-10.08 -84.9,-20.7 -40.34,-10.61 -102.96,-27.59 -142.75,-40.86 -39.8,-13.27 -56.76,-22.81 -46.68,-26.54 10.08,-3.7 47.23,-1.58 98.17,-7.42 50.92,-5.83 115.67,-19.63 175.64,-46.69 59.95,-27.06 115.12,-67.39 139.54,-89.69 24.4,-22.28 18.03,-26.51 -22.3,-37.65 -40.32,-11.15 -114.6,-29.19 -176.68,-39.28 -62.09,-10.08 -111.97,-12.2 -174.04,8.49 -62.09,20.69 -136.37,64.21 -178.28,85.96 -41.94,21.76 -51.48,21.76 -79.08,12.2 -27.59,-9.54 -73.23,-28.65 -102.42,-42.45 -29.17,-13.79 -41.91,-22.27 -41.38,-27.58 0.54,-5.3 14.33,-7.42 46.7,-10.61 32.37,-3.18 83.3,-7.43 134.24,-12.74 50.94,-5.3 101.89,-11.67 165.03,-28.65 63.14,-16.98 138.48,-44.57 177.22,-65.79 38.73,-21.23 40.85,-36.09 22.82,-52.54 -18.05,-16.44 -56.24,-34.49 -111.95,-49.88 -55.72,-15.38 -128.95,-28.12 -207.47,-29.71 -78.54,-1.6 -162.39,7.96 -225,24.95 -62.61,16.98 -104,41.38 -128.41,56.23 -24.4,14.86 -31.84,20.18 -51.46,8.49 -19.63,-11.66 -51.47,-40.32 -71.09,-59.96 -19.64,-19.62 -27.07,-30.24 7.95,-31.84 35.02,-1.59 112.5,5.85 204.29,-4.77 91.79,-10.61 197.92,-39.27 252.57,-56.78 54.65,-17.51 57.83,-23.87 39.26,-32.36 -18.57,-8.49 -58.9,-19.11 -108.24,-35.03 -49.35,-15.91 -107.73,-37.13 -169.27,-46.68 -61.55,-9.55 -126.28,-7.42 -175.1,6.36 -48.82,13.81 -81.71,39.26 -102.94,50.41 -21.22,11.15 -30.79,7.96 -34.49,1.05 -3.72,-6.89 -1.6,-17.49 3.18,-22.81 4.77,-5.3 12.21,-5.3 25.48,-13.25 13.25,-7.96 32.36,-23.87 38.19,-38.2 5.83,-14.32 -1.59,-27.05 -19.1,-32.9 -17.52,-5.84 -45.1,-4.77 -65.26,-5.3 -20.17,-0.54 -32.9,-2.66 -40.33,-8.49 -7.43,-5.83 -9.55,-15.39 -10.61,-25.48 -1.07,-10.07 -1.07,-20.68 -2.65,-28.64 -1.61,-7.95 -4.78,-13.27 -7.44,-17.51 -2.66,-4.25 -4.78,-7.42 -4.24,-16.45 0.53,-9.03 3.7,-23.89 5.83,-41.4 2.12,-17.5 3.19,-37.67 2.13,-58.36 -1.06,-20.7 -4.26,-41.92 -9.02,-56.24 -4.78,-14.33 -11.15,-21.76 -22.28,-23.88 -11.15,-2.13 -27.07,1.06 -45.64,11.67 -18.57,10.62 -39.8,28.65 -53.58,49.88 -13.81,21.22 -20.18,45.64 -25.48,57.31 -5.31,11.66 -9.55,10.61 -13.27,7.96 -3.72,-2.66 -6.9,-6.91 -8.49,-10.62 -1.6,-3.71 -1.6,-6.9 1.59,-14.86 3.18,-7.95 9.54,-20.69 17.52,-39.79 7.95,-19.11 17.5,-44.57 23.87,-68.99 6.36,-24.4 9.56,-47.74 11.14,-80.64 1.59,-32.9 1.59,-75.35 -0.53,-118.33 -2.12,-42.98 -6.37,-86.49 -8.49,-109.84 -2.12,-23.35 -2.12,-26.52 4.24,-34.5 6.37,-7.95 19.11,-20.67 21.23,-42.97 2.12,-22.28 -6.37,-54.12 -20.7,-73.22 -14.31,-19.1 -34.49,-25.47 -57.82,-25.47 -23.35,0 -49.89,6.37 -64.75,20.16 -14.86,13.8 -18.03,35.03 -15.37,53.59 2.64,18.57 11.12,34.5 20.16,45.63 9.02,11.15 18.56,17.52 24.41,25.47 5.83,7.96 7.95,17.52 10.07,50.41 2.13,32.89 4.23,89.15 2.65,150.17 -1.59,61.02 -6.9,126.82 -11.67,161.3 -4.78,34.49 -9.02,37.68 -16.44,34.49 -7.44,-3.17 -18.06,-12.74 -32.37,-36.08 -14.33,-23.33 -32.38,-60.48 -58.37,-109.3 -25.99,-48.81 -59.94,-109.28 -76.9,-142.71 -16.98,-33.42 -16.98,-39.79 -7.43,-48.28 9.55,-8.49 28.65,-19.11 46.17,-34.5 17.5,-15.38 33.43,-35.55 49.34,-66.85 15.91,-31.31 31.84,-73.75 39.27,-109.31 7.42,-35.54 6.36,-64.21 -12.73,-79.07 -19.1,-14.84 -56.26,-15.91 -91.81,7.44 -35.55,23.35 -69.51,71.12 -89.67,93.4 -20.17,22.28 -26.54,19.1 -32.9,5.83 -6.37,-13.27 -12.73,-36.6 -15.91,-49.87 -3.2,-13.27 -3.2,-16.45 2.65,-23.89 5.84,-7.42 17.51,-19.1 35.02,-42.98 17.51,-23.87 40.84,-59.95 59.43,-101.35 18.57,-41.38 32.36,-88.06 39.26,-117.26 6.9,-29.18 6.9,-40.85 9.56,-47.75 2.64,-6.9 7.95,-9.03 16.44,-12.22 8.48,-3.18 20.16,-7.42 27.6,-17.5 7.42,-10.08 10.59,-26.01 5.3,-39.27 -5.3,-13.26 -19.11,-23.87 -35.02,-28.65 -15.93,-4.77 -33.96,-3.71 -48.28,3.19 -14.34,6.9 -24.96,19.62 -28.13,33.95 -3.19,14.33 1.05,30.25 -1.07,54.13 -2.12,23.88 -10.61,55.71 -30.23,96.04 -19.64,40.33 -50.42,89.14 -67.39,110.37 -16.98,21.22 -20.17,14.86 -23.35,-0.53 -3.19,-15.39 -6.37,-39.8 -7.96,-52 -1.6,-12.2 -1.6,-12.2 5.3,-17.51 6.91,-5.31 20.69,-15.92 36.09,-34.49 15.39,-18.56 32.36,-45.11 47.75,-82.24 15.39,-37.14 29.18,-84.91 32.9,-114.34 3.71,-29.43 -2.64,-40.56 -23.86,-34.46 -21.23,6.12 -57.31,29.47 -81.18,50.7 -23.88,21.22 -35.56,40.33 -42.73,48.82 -7.16,8.48 -9.8,6.37 -15.89,-27.32 -6.11,-33.69 -15.66,-98.94 -18.3,-133.42 -2.65,-34.48 1.59,-38.21 8.75,-45.11 7.16,-6.89 17.26,-16.98 22.57,-30.25 5.3,-13.25 5.82,-29.71 1.57,-45.64 -4.24,-15.91 -13.25,-31.29 -23.86,-40.31 -10.62,-9.03 -22.83,-11.67 -28.93,-13 -6.11,-1.33 -6.11,-1.33 -3.98,-9.29 2.12,-7.95 6.37,-23.88 7.43,-37.41 1.06,-13.53 -1.06,-24.68 -2.12,-30.25 -1.07,-5.57 -1.07,-5.57 8.49,6.37 9.55,11.94 28.65,35.82 51.74,53.34 23.07,17.52 50.14,28.64 76.41,20.69 17.36,-5.25 34.37,-18.88 45.29,-36.01 9.29,-19.38 18.59,-38.77 13.74,-57.92 -4.86,-19.16 -23.86,-38.09 -42.86,-57.03 -29.2,-25.18 -71.65,-43.74 -92.61,-53.01 -20.97,-9.27 -20.45,-9.27 -0.27,-10.6 20.15,-1.33 59.95,-3.97 87.81,-12.74 0.18,-0.05 0.35,-0.1 0.53,-0.15 9.49,-2.75 19.02,-5.72 30.7,-20.51 11.89,-15.08 25.99,-42.42 19.46,-66.56 -6.54,-24.14 -33.72,-45.09 -60.91,-66.03l-0.39 -0.1c-22.03,-5.56 -45.9,-5.04 -71.1,7.44 -25.21,12.47 -51.75,36.87 -69.25,50.4 -17.52,13.55 -26.01,16.19 -26.8,5.31 -0.79,-10.87 6.1,-35.29 7.42,-58.37 1.33,-23.07 -2.91,-44.83 -14.86,-57.57 -11.94,-12.73 -31.56,-16.45 -41.37,-18.3 -9.82,-1.85 -9.82,-1.85 -9.82,-10.62 0,-8.75 0,-26.27 0,-35.03 0,-8.75 0,-8.75 14.32,-20.95 14.32,-12.2 42.98,-36.62 77.07,-69.25 34.09,-32.63 73.63,-73.48 93.4,-93.91 5.64,-5.83 9.66,-9.99 12.75,-12.87 31.44,-38.06 62.88,-76.11 90.95,-115.42 28.07,-39.31 52.76,-79.88 75.25,-122.21 22.49,-42.34 42.78,-86.44 54.24,-111.57 11.47,-25.14 14.11,-31.31 23.81,-31.75 9.71,-0.44 26.46,4.85 46.75,1.76 20.28,-3.08 44.1,-14.55 63.94,-35.71 19.84,-21.17 35.72,-52.04 44.02,-82.35 8.3,-30.31 9.03,-60.07 9.77,-89.83 -1.4,-8 -4.41,-15.37 -9.06,-21.68 -13.27,-18.04 -39.8,-27.6 -63.67,-23.87 -23.88,3.71 -45.11,20.67 -57.31,31.29 -12.2,10.61 -15.39,14.85 -16.45,7.97 -1.07,-6.9 0,-24.95 0.53,-42.46 0.53,-17.51 0.53,-34.49 -8.48,-46.15 -9.03,-11.69 -27.08,-18.06 -49.89,-16.98 -22.82,1.05 -50.41,9.54 -61.54,29.71 -11.15,20.16 -5.85,52 -3.73,71.1 2.12,19.1 1.07,25.47 -19.09,26.01 -20.17,0.51 -59.44,-4.78 -81.19,-4.78 -21.75,0 -26,5.29 -30.24,18.03 -4.25,12.73 -8.5,32.9 -6.37,54.13 2.12,21.21 10.61,43.5 24.41,56.24 13.79,12.74 32.9,15.91 46.16,18.04 13.27,2.12 20.69,3.19 20.69,7.43 0,4.25 -7.42,11.67 -13.25,22.81 -5.84,11.16 -10.09,26.01 -8.49,43.52 1.59,17.51 9.01,37.68 11.67,52.53 2.65,14.85 0.53,24.4 -19.11,58.37 -19.63,33.94 -56.77,92.32 -103.59,147.73 -46.85,55.39 -103.35,107.79 -133.73,136.66 -30.38,28.86 -34.62,34.18 -37.28,9.77 -2.66,-24.41 -3.71,-78.54 -3.18,-107.72 0.52,-29.18 2.64,-33.43 12.21,-38.73 9.54,-5.31 26.52,-11.68 44.03,-24.42 17.51,-12.73 35.55,-31.82 49.87,-53.05 14.33,-21.22 24.95,-44.57 30.25,-64.19 5.31,-19.64 5.31,-35.56 -3.19,-44.58 -8.49,-9.02 -25.45,-11.14 -47.21,-7.43 -21.76,3.71 -48.28,13.27 -60.49,15.39 -12.21,2.12 -10.09,-3.19 -6.9,-28.13 3.18,-24.93 7.43,-69.5 22.81,-140.62 15.4,-71.11 41.93,-168.75 57.33,-219.16 15.39,-50.42 19.63,-53.61 35.29,-56.26 15.65,-2.65 42.73,-4.77 68.2,-23.08 25.47,-18.31 49.33,-52.79 53.06,-73.76 3.71,-20.96 -12.75,-28.39 -29.99,-33.42 -17.24,-5.06 -35.29,-7.7 -44.04,-11.15 -8.75,-3.45 -8.23,-7.7 -0.53,-25.2 7.69,-17.51 22.55,-48.29 30.78,-66.07 8.21,-17.78 9.82,-22.54 16.45,-20.68 6.62,1.85 18.3,10.34 37.67,16.98 19.36,6.63 46.44,11.4 65.8,3.44 19.36,-7.96 31.04,-28.66 33.96,-51.48 2.92,-22.81 -2.92,-47.75 -4.23,-59.67 -1.33,-11.94 1.85,-10.89 17.77,-12.48 15.91,-1.59 44.58,-5.83 60.76,-15.38 16.18,-9.55 19.9,-24.41 16.72,-46.44 -3.19,-22.01 -13.28,-51.21 -28.94,-66.33 -15.65,-15.11 -36.87,-16.18 -51.73,-16.18 -14.85,0 -23.34,1.07 -25.19,-1.06 -1.87,-2.12 2.91,-7.43 9.56,-24.94 6.62,-17.51 15.11,-47.22 19.63,-66.85 4.5,-19.64 5.03,-29.19 9.54,-24.95 4.51,4.25 13,22.29 26.8,42.99 13.79,20.69 32.88,44.04 54.38,53.06 21.49,9.01 45.36,3.71 59.96,-10.35 14.59,-14.07 19.89,-36.88 16.45,-60.75 -3.45,-23.88 -15.67,-48.81 -24.94,-64.73 -9.29,-15.92 -15.66,-22.83 -14.86,-26.28 0.79,-3.45 8.76,-3.45 23.88,-0.79 15.11,2.66 37.41,7.95 59.43,2.4 22.02,-5.58 43.77,-22.04 48.55,-44.32 4.77,-22.29 -7.43,-50.4 -23.08,-68.71 -15.65,-18.31 -34.75,-26.8 -58.1,-29.98 -23.35,-3.19 -50.93,-1.07 -64.72,-3.19 -13.81,-2.12 -13.81,-8.48 -7.44,-16.97 6.37,-8.49 19.11,-19.1 25.47,-31.84 6.37,-12.73 6.37,-27.59 21.23,-33.95 14.86,-6.37 44.56,-4.25 84.89,-6.37 40.33,-2.12 91.27,-8.49 151.77,-29.72 60.48,-21.22 130.51,-57.31 150.69,-82.78 20.16,-25.47 -9.56,-40.32 -43.52,-50.93 -33.97,-10.61 -72.16,-16.98 -119.91,-14.86 -47.76,2.12 -105.07,12.74 -130.54,13.81 -25.47,1.05 -19.1,-7.44 1.07,-29.72 20.16,-22.29 54.12,-58.38 76.41,-76.41 22.28,-18.05 32.89,-18.05 73.22,-9.56 40.33,8.49 110.36,25.47 178.28,15.93 67.93,-9.56 133.71,-45.64 175.11,-70.05 41.38,-24.41 58.36,-37.15 53.06,-53.06 -5.31,-15.93 -32.91,-35.02 -70.04,-47.75 -37.16,-12.74 -83.84,-19.11 -130.53,-22.28 -46.7,-3.2 -93.4,-3.2 -118.87,-7.44 -25.47,-4.25 -29.72,-12.74 -7.42,-38.2 22.28,-25.47 71.1,-67.92 101.89,-91.27 30.76,-23.35 43.48,-27.6 54.1,-25.47 10.61,2.12 19.1,10.61 50.94,29.71 31.83,19.11 87.02,48.82 147.52,58.38 60.49,9.54 126.28,-1.07 163.43,-13.81 37.13,-12.73 45.62,-27.59 43.5,-48.81 -2.12,-21.23 -14.85,-48.81 -59.41,-68.45 -44.58,-19.63 -120.97,-31.3 -161.29,-39.79 -40.33,-8.51 -44.57,-13.8 -35.02,-24.42 9.55,-10.61 32.88,-26.54 47.74,-34.49 14.86,-7.96 21.22,-7.96 50.94,-2.12 29.72,5.83 82.78,17.51 132.67,19.1 49.87,1.58 96.55,-6.91 145.38,-21.76 48.81,-14.86 99.75,-36.07 134.78,-47.22 35.02,-11.14 54.1,-12.2 80.64,-5.83 26.53,6.35 60.49,20.15 86.5,15.38 25.99,-4.78 44.03,-28.12 50.4,-55.71 6.37,-27.59 1.06,-59.43 -18.03,-81.71 -19.1,-22.3 -52.01,-35.03 -78.54,-37.16 -26.52,-2.12 -46.69,6.37 -63.67,20.18 -16.99,13.79 -30.77,32.89 -64.74,53.06 -33.96,20.16 -88.09,41.39 -141.14,54.12 -53.06,12.74 -105.07,16.98 -140.62,16.45 -35.55,-0.53 -54.64,-5.84 -62.06,-11.14 -7.44,-5.31 -3.2,-10.62 60.47,-47.23 63.68,-36.61 186.77,-104.54 253.11,-137.43 66.33,-32.9 75.87,-30.79 88.09,-26 12.2,4.77 27.04,12.19 47.22,11.68 20.16,-0.54 45.62,-9.03 64.73,-24.4 19.1,-15.4 31.83,-37.69 38.2,-56.26 6.37,-18.57 6.37,-33.43 13.81,-44.58 7.42,-11.14 22.28,-18.56 44.04,-29.71 21.74,-11.15 50.4,-25.99 67.92,-33.95 17.5,-7.97 23.87,-9.02 33.43,0 9.54,9.01 22.28,28.12 41.38,50.93 19.1,22.82 44.57,49.35 70.58,65.8 25.99,16.45 52.52,22.81 77.99,18.57 25.46,-4.24 49.88,-19.1 54.66,-44.04 4.76,-24.94 -10.1,-59.96 -35.57,-87.54 -25.47,-27.6 -61.53,-47.77 -84.88,-58.9 -23.35,-11.15 -33.96,-13.27 -28.65,-18.57 5.3,-5.32 26.51,-13.81 57.82,-26.01 31.3,-12.2 72.69,-28.12 96.58,-35.55 23.87,-7.43 30.23,-6.36 55.7,27.06 25.48,33.43 70.05,99.21 117.81,142.2 47.75,42.99 98.68,63.15 142.73,68.99 44.03,5.83 81.18,-2.66 99.75,-21.23 18.57,-18.56 18.57,-47.23 0,-84.9 -18.57,-37.67 -55.72,-84.37 -106.65,-117.26 -50.94,-32.91 -115.67,-52.01 -145.38,-62.62 -29.72,-10.61 -24.41,-12.73 -13.26,-14.32 11.14,-1.59 28.12,-2.66 72.15,-11.15 44.04,-8.49 115.16,-24.4 154.42,-30.77 39.26,-6.37 46.7,-3.19 74.29,43.51 27.58,46.69 75.34,136.89 130.53,178.29 55.17,41.38 117.79,33.95 143.8,7.42 25.99,-26.52 15.38,-72.17 -16.46,-117.79 -31.86,-45.65 -84.92,-91.27 -111.46,-114.09 -26.54,-22.83 -26.54,-22.83 1.59,-23.35 28.11,-0.53 84.36,-1.6 114.62,-1.06 30.23,0.53 34.48,2.65 45.09,24.41 10.61,21.75 27.59,63.15 51.47,96.04 23.87,32.89 54.66,57.3 86.49,72.16 31.83,14.86 64.73,20.16 93.39,16.98 28.65,-3.19 53.05,-14.86 64.74,-37.13 11.66,-22.3 10.61,-55.2 -6.91,-84.39 -17.51,-29.18 -51.46,-54.65 -71.61,-70.03 -20.18,-15.39 -26.54,-20.7 -26.01,-22.83 0.52,-2.12 7.95,-1.05 19.62,6.39 11.67,7.42 27.59,21.21 58.37,39.79 30.76,18.57 76.41,41.91 99.22,53.59 22.82,11.66 22.82,11.66 14.33,19.1 -8.49,7.42 -25.46,22.28 -33.42,39.79 -7.97,17.52 -6.9,37.67 6.89,64.75 13.79,27.06 40.33,61 83.88,69.49 43.55,8.49 104.12,-8.47 146.57,-30.75 42.45,-22.3 66.78,-49.89 73.11,-50.94 6.32,-1.07 -5.34,24.4 -17.52,57.82 -12.15,33.44 -24.82,74.83 -31.14,109.85 -6.32,35.01 -6.32,63.67 19.1,85.43 25.43,21.75 76.29,36.6 113.92,30.77 37.63,-5.83 62.05,-32.37 73.72,-70.04 11.66,-37.67 10.61,-86.49 9.54,-118.33 -1.05,-31.84 -2.12,-46.7 7.96,-38.74 10.09,7.95 31.32,38.74 48.82,63.67 17.51,24.94 31.32,44.05 53.06,59.43 21.76,15.4 51.48,27.07 72.17,22.82 20.69,-4.24 32.37,-24.4 40.33,-33.43 7.95,-9.02 12.2,-6.9 18.56,20.7 6.37,27.59 14.86,80.65 71.64,160.77 56.77,80.13 161.83,187.31 215.95,235.08 54.13,47.75 57.31,36.06 48.82,-19.64 -8.48,-55.72 -28.65,-155.47 -46.16,-227.63 -17.51,-72.17 -32.36,-116.74 -56.24,-164.49 -23.87,-47.77 -56.78,-98.7 -79.59,-136.9 -22.82,-38.21 -35.55,-63.68 -6.9,-65.81 28.66,-2.12 98.69,19.11 137.41,30.26 38.74,11.13 46.18,12.2 50.95,35.01 4.77,22.81 6.89,67.39 7.95,113.03 1.07,45.63 1.07,92.31 11.15,159.18 10.09,66.85 30.25,153.87 94.46,259.46 64.21,105.59 172.45,229.77 231.88,267.97 59.43,38.21 70.03,-9.56 64.19,-95.51 -5.83,-85.96 -28.12,-210.14 -53.34,-304.05 -25.19,-93.93 -53.3,-157.6 -78.25,-203.77 -24.94,-46.17 -46.68,-74.82 -54.38,-87.81 -7.7,-13.01 -1.33,-10.36 36.34,14.32 37.67,24.68 106.66,71.36 142.21,96.83 35.56,25.47 37.68,29.72 33.69,71.91 -3.97,42.17 -14.06,122.31 -18.31,183.07 -4.23,60.75 -2.64,102.13 18.05,161.82 20.71,59.69 60.5,137.7 107.99,196.59 47.49,58.9 102.68,98.7 133.45,111.7 30.78,13 37.15,-0.81 40.6,-42.72 3.45,-41.92 3.97,-111.95 0.26,-171.38 -3.71,-59.43 -11.68,-108.24 -26.01,-161.82 -14.32,-53.6 -35.01,-111.98 -49.87,-146.46 -14.86,-34.49 -23.86,-45.11 -26.52,-50.4 -2.66,-5.32 1.05,-5.32 16.7,10.34 15.66,15.64 43.25,46.95 74.56,78.79 31.3,31.84 66.33,64.19 102.14,105.06 35.82,40.86 72.42,90.2 108.5,122.3 36.09,32.1 71.65,46.94 92.88,54.64 21.22,7.68 28.11,8.21 32.61,10.87 4.53,2.66 6.65,7.42 6.38,19.1 -0.27,11.67 -2.91,30.24 0.54,49.34 3.45,19.1 13,38.74 25.47,50.42 12.48,11.67 27.85,15.38 42.71,13.79 14.86,-1.6 29.18,-8.49 38.73,-14.58 9.56,-6.11 14.34,-11.42 17.52,-6.37 3.19,5.04 4.77,20.42 9.81,37.4 5.04,16.98 13.54,35.55 27.06,47.75 13.53,12.2 32.12,18.05 49.61,14.08 17.52,-3.99 33.97,-17.79 45.37,-26.55 11.41,-8.74 17.77,-12.47 37.14,-1.84 19.38,10.61 51.75,35.55 61.04,51.21 9.29,15.66 -4.51,22.02 -22.55,29.98 -18.03,7.95 -40.32,17.52 -39.79,38.74 0.53,21.21 23.87,54.12 51.98,65.26 28.13,11.14 61.03,0.53 81.19,-4.77 20.18,-5.32 27.59,-5.32 44.58,7.42 16.98,12.73 43.52,38.2 86.49,93.39 42.98,55.19 102.4,140.08 135.83,189.43 33.44,49.34 40.86,63.14 26.54,68.98 -14.33,5.83 -50.41,3.71 -75.34,2.65 -24.94,-1.06 -38.75,-1.06 -38.21,15.92 0.53,16.97 15.39,50.93 35.55,75.35 20.17,24.4 45.62,39.26 65.26,47.22 19.64,7.95 33.43,9.02 47.76,9.56 14.33,0.51 29.19,0.51 38.73,7.42 9.56,6.9 13.81,20.69 23.35,48.82 9.56,28.13 24.41,70.56 30.77,91.79 6.37,21.23 4.25,21.23 -10.08,19.1 -14.32,-2.12 -40.86,-6.36 -69.51,-16.98 -28.64,-10.61 -59.43,-27.59 -98.69,-50.41 -39.26,-22.81 -87.02,-51.47 -119.92,-75.34 -32.89,-23.89 -50.94,-42.99 -62.09,-56.24 -11.13,-13.27 -15.37,-20.71 -18.03,-31.84 -2.66,-11.15 -3.71,-26.01 -9.56,-36.62 -5.84,-10.61 -16.45,-16.98 -26.01,-27.59 -9.54,-10.62 -18.02,-25.47 -12.18,-36.08 5.83,-10.61 26,-16.97 39.8,-37.13 13.78,-20.17 21.22,-54.13 13.78,-80.12 -7.42,-26 -29.71,-44.06 -51.99,-51.48 -22.28,-7.43 -44.58,-4.24 -64.21,3.72 -19.63,7.95 -36.61,20.68 -46.7,22.29 -10.08,1.59 -13.26,-7.97 -19.1,-22.83 -5.84,-14.86 -14.31,-35.02 -24.93,-47.75 -10.61,-12.74 -23.34,-18.05 -41.92,-14.86 -18.56,3.18 -42.98,14.86 -53.06,30.77 -10.07,15.91 -5.85,36.08 1.06,52.53 6.9,16.45 16.45,29.18 12.73,31.84 -3.71,2.66 -20.69,-4.78 -40.32,-4.78 -19.63,0 -41.92,7.44 -54.66,23.37 -12.74,15.91 -15.91,40.31 -7.42,58.89 8.49,18.57 28.65,31.29 48.8,38.19 20.18,6.9 40.35,7.96 46.18,11.15 5.84,3.18 -2.65,8.49 -15.39,21.76 -12.74,13.25 -29.72,34.48 -33.96,59.42 -4.25,24.93 4.24,53.59 25.47,72.7 21.23,19.1 55.19,28.65 80.66,20.16 25.47,-8.5 42.43,-35.02 53.05,-55.71 10.61,-20.71 14.85,-35.55 22.81,-30.24 7.97,5.3 19.64,30.76 33.96,45.61 14.34,14.86 31.32,19.11 43.52,18.59 12.2,-0.54 19.64,-5.85 31.84,3.71 12.2,9.54 29.18,33.96 44.04,50.41 14.86,16.44 27.59,24.93 14.86,37.67 -12.74,12.73 -50.95,29.71 -54.67,54.65 -3.71,24.94 27.08,57.84 59.97,71.12 32.89,13.25 67.92,6.88 89.66,-7.44 21.76,-14.33 30.25,-36.62 44.58,-39.26 14.33,-2.66 34.49,14.32 75.87,29.72 41.4,15.37 104.01,29.17 138.49,38.2 34.5,9.01 40.87,13.25 52.01,46.16 11.15,32.9 27.09,94.44 38.23,132.12 11.16,37.67 17.52,51.47 11.67,80.12 -5.83,28.65 -23.86,72.17 -34.48,119.4 -10.61,47.22 -13.8,98.15 -2.65,139.54 11.14,41.38 36.62,73.22 58.89,136.36 22.3,63.15 41.39,157.59 48.81,203.76 7.44,46.16 3.21,44.04 -22.8,11.68 -25.99,-32.38 -73.76,-94.99 -137.97,-146.99 -64.2,-52 -144.85,-93.4 -194.21,-114.61 -49.34,-21.22 -67.38,-22.29 -74.28,-0.53 -6.89,21.76 -2.65,66.32 18.04,122.58 20.69,56.24 57.85,124.15 100.82,178.27 42.99,54.12 91.8,94.45 147.51,128.94 55.72,34.49 118.33,63.15 152.29,80.12 33.96,16.98 39.26,22.28 40.85,64.22 1.6,41.91 -0.52,120.44 -3.18,156.52 -2.65,36.08 -5.83,29.71 -17.51,2.65 -11.67,-27.05 -31.84,-74.82 -81.19,-134.78 -49.35,-59.96 -127.87,-132.11 -196.32,-182.52 -68.44,-50.41 -126.82,-79.06 -158.12,-90.21 -31.31,-11.15 -35.56,-4.78 -39.8,26.01 -4.25,30.77 -8.49,85.95 10.08,151.21 18.57,65.27 59.97,140.61 113.83,214.38 53.85,73.77 120.17,145.95 178.81,194.51 58.63,48.57 109.56,73.51 137.16,87.57 27.59,14.07 31.84,17.24 27.59,55.18zm398.98 100.03c61.56,-57.83 137.97,-151.2 181.48,-233.45 43.52,-82.25 54.12,-153.36 54.12,-189.44 0,-36.07 -10.6,-37.14 -63.14,-15.38 -52.52,21.76 -146.99,66.32 -227.64,118.85 -80.64,52.53 -147.5,113.03 -184.65,144.33 -37.14,31.31 -44.56,33.43 -48.28,18.03 -3.72,-15.37 -3.72,-48.28 -0.54,-73.75 3.19,-25.45 9.56,-43.51 64.74,-89.13 55.19,-45.63 159.19,-118.87 230.28,-236.66 71.12,-117.79 109.31,-280.14 123.63,-362.39 14.34,-82.25 4.78,-84.37 -46.16,-55.18 -50.93,29.17 -143.25,89.66 -208.52,150.68 -65.26,61.02 -103.47,122.57 -125.77,156 -22.27,33.42 -28.64,38.74 -31.83,29.71 -3.18,-9.02 -3.18,-32.37 -3.18,-49.35 0,-16.98 0,-27.58 5.3,-36.07 5.31,-8.49 15.93,-14.86 46.16,-45.62 30.25,-30.78 80.14,-85.97 113.03,-140.09 32.9,-54.13 48.82,-107.18 61.02,-166.61 12.2,-59.43 20.68,-125.24 24.92,-178.3 4.25,-53.06 4.25,-93.39 1.06,-117.79 -3.18,-24.42 -9.54,-32.91 -24.94,-33.43 -15.37,-0.54 -39.79,6.89 -72.68,34.48 -32.9,27.6 -74.3,75.36 -110.38,133.2 -36.07,57.83 -66.85,125.74 -83.83,157.04 -16.98,31.31 -20.16,26.01 -22.82,14.86 -2.65,-11.15 -4.77,-28.11 -5.31,-40.85 -0.52,-12.73 0.54,-21.22 6.91,-47.22 6.36,-26 18.04,-69.52 22.81,-117.8 4.78,-48.29 2.65,-101.35 -6.9,-145.39 -9.55,-44.04 -26.53,-79.07 -35.02,-103.48 -8.49,-24.4 -8.49,-38.2 11.67,-66.31 20.17,-28.13 60.5,-70.58 79.6,-107.72 19.1,-37.15 16.97,-68.98 4.23,-94.97 -12.73,-26 -36.08,-46.17 -63.68,-41.93 -27.59,4.25 -59.43,32.91 -77.48,47.24 -18.03,14.32 -22.28,14.32 -28.11,-2.13 -5.83,-16.45 -13.27,-49.35 -16.46,-72.17 -3.18,-22.81 -2.11,-35.55 1.07,-44.56 3.19,-9.02 8.49,-14.34 25.47,-29.18 16.98,-14.86 45.64,-39.27 58.38,-66.33 12.73,-27.06 9.54,-56.78 -9.03,-78 -18.57,-21.23 -52.53,-33.96 -75.88,-28.13 -23.34,5.83 -36.08,30.25 -45.1,46.18 -9.02,15.91 -14.33,23.33 -21.76,12.2 -7.42,-11.15 -16.97,-40.86 -23.87,-61.02 -6.9,-20.18 -11.15,-30.79 -13.27,-67.92 -2.12,-37.15 -2.12,-100.82 -11.15,-149.64 -9.01,-48.82 -27.06,-82.79 -36.08,-105.07 -9.01,-22.3 -9.01,-32.91 -2.64,-39.27 6.36,-6.37 19.1,-8.49 32.89,-21.23 13.8,-12.73 28.66,-36.07 36.08,-65.78 7.43,-29.72 7.43,-65.81 -2.12,-88.08 -9.54,-22.3 -28.65,-30.79 -48.82,-19.11 -20.16,11.67 -41.38,43.51 -52,54.12 -10.61,10.61 -10.61,0 -16.98,-16.98 -6.36,-16.98 -19.1,-40.33 -25.47,-56.24 -6.37,-15.93 -6.37,-24.42 2.12,-29.72 8.5,-5.31 25.47,-7.43 39.26,-20.17 13.81,-12.74 24.42,-36.07 21.23,-57.3 -3.18,-21.22 -20.16,-40.32 -39.26,-53.06 -19.1,-12.73 -40.31,-19.1 -43.51,-25.47 -3.17,-6.36 11.67,-12.73 25.46,-24.4 13.81,-11.68 26.54,-28.66 25.47,-50.94 -1.05,-22.3 -15.91,-49.89 -38.21,-62.63 -22.27,-12.73 -51.98,-10.61 -75.32,0 -23.35,10.62 -40.33,29.72 -49.89,26.54 -9.55,-3.19 -11.67,-28.66 -23.35,-47.76 -11.66,-19.1 -32.89,-31.83 -58.36,-32.88 -25.47,-1.07 -55.17,9.53 -68.98,29.7 -13.79,20.16 -11.67,49.87 -1.05,72.17 10.61,22.28 29.7,37.14 28.63,44.58 -1.05,7.42 -22.26,7.42 -41.37,14.85 -19.1,7.42 -36.08,22.28 -45.64,26.53 -9.54,4.24 -11.67,-2.12 -16.98,-8.49 -5.3,-6.37 -13.79,-12.74 -26.53,-15.91 -12.73,-3.2 -29.71,-3.2 -41.39,-7.44 -11.67,-4.25 -18.03,-12.74 -21.23,-30.77 -3.17,-18.05 -3.17,-45.65 -9.54,-65.8 -6.37,-20.17 -19.1,-32.91 -35.03,-36.09 -15.91,-3.19 -35,3.18 -49.86,14.86 -14.86,11.67 -25.47,28.65 -39.27,27.59 -13.79,-1.06 -30.77,-20.17 -44.58,-29.71 -13.79,-9.56 -24.4,-9.56 -36.09,-11.68 -11.66,-2.12 -24.4,-6.37 -40.32,-14.86 -15.91,-8.49 -35.01,-21.21 -59.43,-30.76 -24.4,-9.56 -54.1,-15.92 -85.94,-31.83 -31.84,-15.93 -65.81,-41.4 -78.54,-54.13 -12.73,-12.74 -4.24,-12.74 19.1,-9.55 23.35,3.18 61.56,9.55 118.87,13.79 57.3,4.25 133.7,6.37 188.89,-3.18 55.19,-9.55 89.14,-30.78 110.36,-49.89 21.23,-19.1 29.72,-36.08 5.3,-60.48 -24.4,-24.42 -81.7,-56.24 -147.5,-87.01 -65.8,-30.78 -140.08,-60.5 -231.34,-66.87 -91.27,-6.36 -199.53,10.6 -259.5,16.44 -59.97,5.84 -71.64,0.53 -88.09,-9.55 -16.45,-10.08 -37.68,-24.94 -46.17,-32.36 -8.49,-7.43 -4.24,-7.43 23.35,-13.27 27.6,-5.85 78.54,-17.51 142.21,-29.18 63.68,-11.68 140.08,-23.37 204.27,-43.52 64.21,-20.16 116.22,-48.82 142.22,-65.27 26,-16.44 26,-20.69 23.34,-27.05 -2.66,-6.37 -7.96,-14.86 -29.71,-27.6 -21.77,-12.73 -59.96,-29.71 -97.63,-45.09 -37.67,-15.39 -74.82,-29.2 -129.47,-40.86 -54.65,-11.69 -126.81,-21.23 -194.73,-19.11 -67.92,2.12 -131.6,15.91 -188.91,35.02 -57.31,19.1 -108.23,43.52 -142.73,57.84 -34.49,14.32 -52.52,18.57 -66.87,18.57 -14.32,0 -24.91,-4.25 -47.75,-13.79 -22.81,-9.56 -57.83,-24.42 -70.56,-31.84 -12.74,-7.43 -3.19,-7.43 23.87,-16.45 27.07,-9.02 71.63,-27.07 120.45,-47.23 48.82,-20.15 101.88,-42.45 155.47,-67.92 53.59,-25.47 107.73,-54.12 145.92,-82.24 38.21,-28.13 60.5,-55.71 67.39,-72.16 6.9,-16.46 -1.6,-21.75 -37.67,-28.66 -36.09,-6.9 -99.75,-15.39 -158.65,-20.16 -58.9,-4.77 -113.03,-5.84 -168.21,0 -55.17,5.84 -111.44,18.58 -178.29,43.51 -66.85,24.94 -144.33,62.09 -197.39,92.34 -53.06,30.23 -81.72,53.58 -98.7,65.26 -16.97,11.67 -22.28,11.67 -24.4,9.55 -2.12,-2.13 -1.05,-6.37 6.9,-27.06 7.96,-20.69 22.82,-57.84 21.75,-84.37 -1.06,-26.54 -18.04,-42.45 -46.17,-51.48 -28.11,-9.02 -67.38,-11.14 -113.56,0.54 -46.16,11.68 -99.24,37.15 -126.31,47.25 -27.08,10.07 -28.13,4.77 -30.25,-22.82 -2.13,-27.59 -5.32,-77.46 -12.22,-122.56 -6.89,-45.11 -17.5,-85.44 -47.75,-106.13 -30.24,-20.69 -80.12,-21.76 -113.5,-4.78 -33.37,16.98 -50.24,52.02 -50.24,85.98 0,33.94 16.87,66.85 26.9,92.85 10.04,25.99 13.22,45.1 11.62,49.34 -1.58,4.25 -7.95,-6.37 -30.77,-25.47 -22.81,-19.1 -62.08,-46.69 -91.26,-62.07 -29.19,-15.39 -48.29,-18.59 -73.76,-18.59 -25.47,0 -57.31,3.2 -74.81,14.34 -17.51,11.14 -20.7,30.24 -16.98,49.34 3.71,19.1 14.32,38.21 18.03,49.36 3.72,11.13 0.54,14.32 -30.23,14.32 -30.79,0 -89.17,-3.19 -117.81,-4.78 -28.65,-1.59 -27.6,-1.59 -14.32,-12.2 13.27,-10.62 38.73,-31.84 55.18,-52.53 16.45,-20.7 23.89,-40.87 21.23,-61.03 -2.66,-20.16 -15.39,-40.32 -34.5,-50.93 -19.1,-10.62 -44.57,-11.68 -83.83,-3.19 -39.27,8.49 -92.32,26.54 -135.82,54.12 -43.53,27.59 -77.47,64.74 -98.7,86.5 -21.22,21.74 -29.72,28.11 -47.75,31.3 -18.05,3.18 -45.64,3.18 -72.7,2.66 -27.06,-0.54 -53.6,-1.6 -62.61,-4.24 -9.02,-2.66 -0.53,-6.91 25.47,-25.47 25.99,-18.59 69.51,-51.48 97.64,-76.42 28.11,-24.95 40.83,-41.91 47.74,-65.26 6.9,-23.35 7.95,-53.07 -12.21,-78.54 -20.15,-25.47 -61.55,-46.7 -105.59,-38.21 -44.04,8.49 -90.72,46.7 -133.17,102.96 -42.45,56.24 -80.66,130.52 -102.94,170.84 -22.3,40.33 -28.66,46.7 -47.77,51.48 -19.1,4.76 -50.93,7.95 -63.67,6.9 -12.73,-1.07 -6.37,-6.39 16.44,-49.35 22.82,-42.99 62.09,-123.63 80.14,-176.7 18.04,-53.06 14.85,-78.53 9.02,-99.76 -5.84,-21.22 -14.33,-38.2 -39.8,-48.82 -25.47,-10.61 -67.91,-14.86 -108.24,6.91 -40.33,21.74 -78.53,69.5 -97.64,127.87 -19.1,58.36 -19.1,127.35 -16.98,177.22 2.13,49.88 6.37,80.66 5.32,97.11 -1.07,16.45 -7.44,18.57 -30.79,25.47 -23.35,6.89 -63.66,18.57 -91.12,26.1 -27.48,7.53 -42.08,10.94 -40.89,-1.16 1.18,-12.1 18.16,-39.7 26.65,-66.22 8.49,-26.54 8.49,-52.01 2.66,-66.33 -5.85,-14.33 -17.52,-17.52 -44.57,-7.43 -27.08,10.08 -69.52,33.41 -93.92,66.32 -24.42,32.89 -30.79,75.35 -35.03,104.01 -4.24,28.65 -6.36,43.5 -11.67,52.53 -5.31,9.01 -13.8,12.2 -38.2,21.22 -24.42,9.02 -64.75,23.87 -100.83,42.97 -36.09,19.11 -67.91,42.45 -87.54,54.66 -19.65,12.2 -27.07,13.26 -38.73,13.26 -11.68,0 -27.61,-1.06 -41.4,-0.53 -13.79,0.53 -25.47,2.66 -37.14,16.46 -11.68,13.79 -23.34,39.26 -31.3,55.71 -7.97,16.45 -12.22,23.88 -73.23,58.9 -61.03,35.01 -178.82,97.63 -240.9,132.65 -62.09,35.01 -68.45,42.45 -58.89,18.05 9.54,-24.42 35.01,-80.67 70.04,-132.13 35.02,-51.48 79.58,-98.16 104.53,-122.56 24.93,-24.42 30.23,-26.55 47.21,-23.88 16.98,2.63 45.65,10.07 71.65,9.02 25.99,-1.07 49.34,-10.63 65.78,-26.54 16.45,-15.92 26.01,-38.21 25.47,-63.14 -0.53,-24.94 -11.14,-52.53 -30.24,-68.98 -19.11,-16.46 -46.69,-21.76 -78.52,-11.15 -31.84,10.62 -67.93,37.14 -85.96,55.19 -18.05,18.03 -18.05,27.59 -38.21,47.75 -20.17,20.15 -60.5,50.94 -104.53,105.06 -44.05,54.12 -91.81,131.59 -119.39,185.7 -27.59,54.12 -35.03,84.9 -55.19,114.62 -20.15,29.7 -53.06,58.36 -73.22,74.29 -20.15,15.91 -27.59,19.09 -29.18,11.13 -1.59,-7.95 2.64,-27.06 3.18,-56.77 0.53,-29.72 -2.66,-70.05 -11.13,-98.7 -8.49,-28.65 -22.3,-45.62 -39.8,-55.17 -17.52,-9.55 -38.74,-11.68 -60.48,6.89 -21.77,18.57 -44.06,57.84 -56.8,99.23 -12.73,41.38 -15.91,84.9 -13.78,127.35 2.12,42.44 9.54,83.83 10.07,108.24 0.54,24.4 -5.83,31.84 -25.47,51.99 -19.63,20.16 -52.53,53.07 -69.51,56.78 -16.98,3.71 -18.04,-21.75 -21.22,-54.64 -3.18,-32.91 -8.49,-73.24 -23.87,-104.54 -15.39,-31.3 -40.86,-53.6 -58.38,-60.49 -17.51,-6.9 -27.06,1.59 -39.79,38.21 -12.74,36.6 -28.67,101.33 -33.96,158.11 -5.31,56.77 0,105.6 3.73,139.02 3.7,33.43 5.82,51.48 -6.38,80.66 -12.21,29.18 -38.74,69.51 -56.77,94.98 -18.05,25.47 -27.61,36.08 -33.44,31.3 -5.83,-4.78 -7.96,-24.93 -15.38,-69.51 -7.44,-44.57 -20.17,-113.55 -42.99,-164.47 -22.81,-50.94 -55.72,-83.85 -80.65,-101.36 -24.94,-17.51 -41.92,-19.63 -56.24,15.92 -14.33,35.55 -26.01,108.77 -16.98,188.36 9.02,79.58 38.72,165.56 57.82,218.09 19.11,52.53 27.6,71.63 31.31,84.9 3.69,13.25 2.63,20.69 -3.75,29.72 -6.39,9 -18.05,19.62 -28.67,38.72 -10.61,19.1 -20.17,46.7 -24.93,60.5 -4.79,13.79 -4.79,13.79 -15.4,-5.31 -10.61,-19.1 -31.84,-57.31 -63.14,-75.88 -31.3,-18.57 -72.7,-17.52 -98.16,-5.3 -25.47,12.2 -35.02,35.53 -38.74,55.18 -3.71,19.63 -1.59,35.54 7.44,50.4 9.01,14.86 24.94,28.66 21.23,36.09 -3.73,7.42 -27.08,8.49 -49.36,20.17 -22.29,11.66 -43.5,33.94 -44.55,60.48 -1.08,26.52 18.01,57.31 43.48,70.58 25.48,13.25 57.32,9.01 78.54,3.18 21.23,-5.85 31.84,-13.27 31.05,-3.19 -0.8,10.06 -13,37.65 -21.49,51.98 -8.49,14.31 -13.27,15.38 -19.1,14.58 -5.86,-0.81 -12.74,-3.45 -23.62,-5.31 -10.88,-1.87 -25.74,-2.92 -40.32,4.77 -14.6,7.69 -28.92,24.15 -29.19,45.63 -0.27,21.49 13.54,48.03 24.15,64.48 10.61,16.44 18.03,22.81 16.44,27.33 -1.58,4.5 -12.2,7.16 -25.47,13.27 -13.26,6.09 -29.18,15.65 -39.53,27.85 -10.35,12.2 -15.12,27.06 -18.57,34.5 -3.45,7.42 -5.57,7.42 -10.87,5.57 -5.32,-1.86 -13.8,-5.59 -24.94,-8.23 -11.15,-2.66 -24.95,-4.24 -36.87,-3.45 -11.95,0.79 -22.04,3.98 -28.41,5.31 -6.37,1.32 -9.01,0.8 -6.89,-6.63 2.13,-7.43 9.01,-21.77 11.95,-37.42 2.91,-15.65 1.84,-32.63 -3.2,-48.29 -5.04,-15.65 -14.06,-29.97 -33.7,-38.19 -19.63,-8.23 -49.87,-10.35 -72.43,-3.19 -22.55,7.17 -37.41,23.61 -45.36,44.58 -7.96,20.95 -9,46.4 -12.17,57.81 -3.19,11.4 -8.49,8.75 -17.52,5.58 -9.02,-3.2 -21.74,-6.91 -43.77,-5.3 -22.01,1.58 -53.33,8.47 -70.57,25.45 -17.24,16.98 -20.43,44.06 -12.47,64.49 7.97,20.41 27.05,34.22 40.86,43.5 13.78,9.29 22.27,14.05 17.11,26.93 -5.19,12.86 -24.02,33.82 -35.28,52.27 -11.28,18.44 -14.97,34.36 1.23,59.32 16.18,24.93 52.25,58.88 75.07,64.2 22.81,5.29 32.37,-18.04 37.68,-10.6 5.31,7.42 6.36,45.61 5.84,68.42 -0.53,22.82 -2.66,30.25 -14.33,28.66 -11.68,-1.6 -32.91,-12.2 -54.13,-18.03 -21.23,-5.85 -42.45,-6.9 -54.12,10.08 -11.68,16.96 -13.79,52 4.26,77.46 18.03,25.46 56.23,41.39 81.7,49.34 25.47,7.96 38.21,7.96 47.76,30.77 9.55,22.81 15.91,68.46 28.12,118.33 12.2,49.88 30.25,104.01 42.98,136.38 12.72,32.36 20.16,42.97 24.41,74.28 4.24,31.3 5.29,83.31 5.82,109.31 0.54,26 0.54,26 -5.82,24.41 -6.37,-1.6 -19.11,-4.78 -39.8,-12.2 -20.69,-7.44 -49.35,-19.12 -68.44,-24.96 -19.1,-5.83 -28.66,-5.83 -35.03,-4.23 -6.37,1.59 -9.55,4.77 -11.14,17.51 -1.6,12.73 -1.6,35.03 10.61,62.08 12.19,27.06 36.62,58.88 63.14,78.52 26.52,19.63 55.19,27.06 73.75,31.84 18.57,4.78 27.06,6.9 30.77,30.78 3.72,23.89 2.66,69.51 0.54,91.79 -2.12,22.3 -5.32,21.24 -24.4,9.56 -19.11,-11.66 -54.14,-33.96 -92.34,-41.05 -38.21,-7.11 -79.59,1 -80.65,33.35 -1.07,32.38 38.19,89.02 60.49,121.58 22.28,32.57 27.59,41.07 13.27,46.9 -14.34,5.83 -48.3,9.02 -70.58,21.76 -22.3,12.73 -32.9,35.01 -29.18,54.12 3.71,19.1 21.74,35.02 47.75,49.35 26,14.32 59.95,27.06 76.93,35.01 16.98,7.96 16.98,11.15 0,20.69 -16.98,9.56 -50.93,25.48 -71.62,48.82 -20.71,23.35 -28.13,54.14 -23.88,75.35 4.24,21.23 20.16,32.91 38.2,36.62 18.04,3.71 38.21,-0.54 61.03,-1.07 22.81,-0.52 48.28,2.66 68.97,-3.18 20.69,-5.83 36.62,-20.69 44.05,-24.41 7.43,-3.72 6.36,3.72 7.43,23.35 1.05,19.63 4.24,51.47 12.73,71.09 8.48,19.64 22.28,27.08 30.24,33.96 7.95,6.91 10.07,13.27 13.27,19.64 3.17,6.37 7.42,12.73 14.32,20.15 6.9,7.44 16.45,15.93 23.88,33.96 7.42,18.06 12.74,45.65 8.5,55.73 -4.25,10.07 -18.06,2.66 -42.99,-7.44 -24.94,-10.08 -61.02,-22.81 -84.89,-28.13 -23.88,-5.3 -35.56,-3.17 -42.45,-0.51 -6.9,2.65 -9.02,5.83 -2.12,23.34 6.89,17.52 22.81,49.36 44.57,76.95 21.75,27.59 49.34,50.93 76.93,66.32 27.6,15.39 55.19,22.82 69.51,29.72 14.33,6.9 15.4,13.26 17.52,34.49 2.11,21.22 5.3,57.29 14.86,109.29 9.54,52.01 25.45,119.93 31.3,151.77 5.83,31.84 1.59,27.59 -19.1,11.67 -20.69,-15.91 -57.85,-43.51 -92.33,-78.01 -34.49,-34.47 -66.33,-75.87 -83.83,-102.93 -17.51,-27.06 -20.71,-39.8 -19.11,-51.99 1.6,-12.21 7.96,-23.89 10.62,-42.99 2.64,-19.11 1.59,-45.63 -6.9,-64.73 -8.49,-19.1 -24.42,-30.78 -48.82,-36.1 -24.4,-5.3 -57.31,-4.23 -80.12,9.56 -22.82,13.81 -35.55,40.33 -35.55,66.33 0,26.01 12.73,51.46 28.66,66.32 15.91,14.86 35,19.1 48.8,33.96 13.79,14.86 22.28,40.33 73.22,93.93 50.94,53.61 144.35,135.35 195.29,179.41 50.95,44.05 59.43,50.42 76.95,83.31 17.5,32.91 44.04,92.33 58.36,124.17 14.32,31.83 16.44,36.08 1.07,31.3 -15.39,-4.77 -48.3,-18.57 -75.88,-25.47 -27.59,-6.89 -49.88,-6.89 -78,2.12 -28.12,9.02 -62.08,27.07 -75.87,39.28 -13.81,12.19 -7.44,18.56 13.79,34.47 21.22,15.93 57.31,41.38 93.39,59.42 36.08,18.05 72.15,28.66 106.65,34.5 34.49,5.85 67.38,6.9 88.09,10.61 20.69,3.73 29.18,10.09 48.82,40.86 19.62,30.79 50.4,85.96 66.31,117.26 15.92,31.32 16.99,38.74 14.33,42.99 -2.66,4.24 -9.02,5.31 -28.65,4.24 -19.63,-1.05 -52.54,-4.24 -81.72,-8.49 -29.19,-4.24 -54.66,-9.54 -88.08,-21.75 -33.43,-12.21 -74.83,-31.31 -99.23,-42.46 -24.4,-11.13 -31.84,-14.32 -37.14,-24.4 -5.31,-10.07 -8.48,-27.06 -14.85,-41.91 -6.37,-14.86 -15.93,-27.6 -37.14,-32.91 -21.23,-5.3 -54.14,-3.18 -73.76,7.97 -19.64,11.15 -26,31.3 -22.29,53.58 3.71,22.3 17.51,46.71 38.74,59.97 21.23,13.27 49.87,15.39 68.98,15.39 19.1,0 28.66,-2.12 55.72,12.2 27.05,14.32 71.61,45.11 127.34,62.09 55.7,16.98 122.57,20.19 165.02,20.19 42.45,0 60.48,-3.18 71.64,0 11.14,3.18 15.39,12.73 22.29,21.75 6.88,9.03 16.44,17.51 29.18,28.66 12.72,11.14 28.65,24.93 32.89,36.59 4.25,11.69 -3.19,21.24 -12.2,32.38 -9.02,11.14 -19.64,23.88 -18.57,39.79 1.05,15.93 13.79,35.03 28.12,44.58 14.32,9.56 30.25,9.56 38.2,21.22 7.96,11.68 7.96,35.03 12.2,49.89 4.25,14.86 12.74,21.21 31.84,20.68 19.11,-0.52 48.83,-7.96 64.23,-6.89 15.39,1.07 16.44,10.62 11.68,38.74 -4.78,28.13 -15.39,74.81 -13.79,151.21 1.58,76.41 15.37,182.53 44.57,266.89 29.19,84.37 73.75,146.99 106.65,186.25 32.89,39.26 54.12,55.19 67.39,58.9 13.27,3.71 18.56,-4.78 23.35,-44.58 4.77,-39.79 9.02,-110.89 8.49,-189.95 -0.54,-79.06 -5.84,-166.07 2.65,-201.1 8.48,-35.01 30.77,-18.05 43.51,-7.43 12.73,10.61 15.91,14.85 19.63,56.24 3.72,41.39 7.96,119.91 25.48,191.01 17.5,71.12 48.28,134.79 91.27,196.86 42.97,62.09 98.14,122.58 133.69,152.3 35.55,29.71 51.47,28.64 59.43,13.25 7.95,-15.38 7.95,-45.1 4.24,-105.06 -3.7,-59.95 -11.14,-150.15 -18.03,-208 -6.9,-57.83 -13.27,-83.3 -13.79,-95.5 -0.53,-12.2 4.77,-11.15 10.61,-7.97 5.84,3.19 12.19,8.51 22.29,39.81 10.08,31.31 23.86,88.6 39.79,136.35 15.91,47.77 33.96,85.97 78.54,141.68 44.56,55.72 115.67,128.94 162.36,165.02 46.69,36.08 68.98,35.02 83.3,26.53 14.33,-8.47 20.7,-24.4 20.16,-68.45 -0.53,-44.03 -7.95,-116.19 -26.53,-171.91 -18.58,-55.71 -48.28,-94.98 -65.26,-116.2 -16.98,-21.23 -21.23,-24.4 -15.91,-22.28 5.3,2.12 20.16,9.54 40.33,26.52 20.16,16.98 45.61,43.52 78.52,73.76 32.89,30.25 73.22,64.19 119.91,83.83 46.7,19.64 99.75,24.93 128.41,28.65 28.65,3.72 32.9,5.85 32.37,21.76 -0.53,15.93 -5.84,45.63 -4.77,74.81 1.05,29.18 8.49,57.84 24.4,82.25 15.91,24.41 40.33,44.57 63.68,57.3 23.34,12.74 45.62,18.05 63.14,12.74 17.51,-5.3 30.23,-21.23 35.55,-46.16 5.29,-24.94 3.17,-58.9 -5.32,-83.32 -8.49,-24.4 -23.33,-39.26 -7.94,-41.92 15.38,-2.64 61.02,6.91 88.08,12.74 27.06,5.85 35.54,7.97 39.78,15.39 4.25,7.44 4.25,20.18 9.02,39.8 4.78,19.64 14.33,46.17 26.55,72.16 12.2,26.01 27.05,51.46 48.28,70.57 21.22,19.1 48.81,31.84 67.9,33.43 19.11,1.6 29.72,-7.96 36.09,-28.12 6.37,-20.16 8.49,-50.94 5.85,-72.7 -2.66,-21.75 -10.1,-34.48 -9.56,-40.85 0.53,-6.36 9.02,-6.36 26.53,-2.91 17.49,3.45 44.02,10.34 61.52,13.78 17.5,3.45 25.99,3.45 40.85,12.47 14.86,9.02 36.08,27.07 90.22,61.83 54.11,34.75 141.12,86.21 187.29,114.86 46.16,28.66 51.47,34.51 55.46,49.09 3.97,14.6 6.61,37.95 11.92,65.54 5.3,27.6 13.28,59.44 26.8,79.86 13.53,20.44 32.64,29.45 51.74,28.12 19.1,-1.33 38.21,-13 45.9,-34.23 7.69,-21.22 3.97,-52 4.52,-69.52 0.53,-17.5 5.34,-21.73 19.14,-18.81 13.81,2.91 36.62,13.01 50.15,18.31 13.53,5.31 17.77,5.83 19.38,6.62 1.59,0.81 0.52,1.87 -0.28,12.74 -0.79,10.88 -1.33,31.58 6.11,57.31 7.42,25.74 22.8,56.51 44.04,70.84 21.22,14.33 48.29,12.2 71.91,6.35 23.61,-5.84 43.78,-15.38 63.41,-5.84 19.63,9.55 38.72,38.21 62.07,50.42 23.34,12.19 50.93,7.95 72.16,-6.37 21.23,-14.33 36.08,-38.74 42.99,-61.03 6.88,-22.27 5.83,-42.44 9.54,-48.81 3.71,-6.37 12.2,1.06 24.93,2.65 12.74,1.59 29.72,-2.65 41.19,-15.92 11.45,-13.25 17.37,-35.55 20.34,-56.24 2.97,-20.69 2.97,-39.8 -18.03,-49.36 -21.02,-9.54 -63.03,-9.54 -75.54,-13.25 -12.52,-3.71 4.45,-11.15 15.6,-27.06 11.15,-15.91 16.44,-40.33 16.98,-56.77 0.53,-16.45 -3.71,-24.94 6.15,-30.77 9.86,-5.84 33.83,-9.03 55.06,-23.89 21.22,-14.86 39.69,-41.38 51.59,-49.35 11.9,-7.95 17.2,2.66 33.64,18.57 16.46,15.92 44.04,37.15 66.32,42.99 22.29,5.84 39.27,-3.72 44.06,-22.29 4.77,-18.57 -2.66,-46.16 -5.32,-63.67 -2.64,-17.5 -0.52,-24.94 4.78,-28.13 5.31,-3.18 13.81,-2.11 21.77,2.66 7.95,4.78 15.38,13.27 30.23,19.63 14.85,6.37 37.15,10.62 58.9,9.55 21.76,-1.06 42.98,-7.42 57.3,-19.1 14.33,-11.67 21.77,-28.65 28.13,-39.27 6.37,-10.61 11.67,-14.85 29.18,-16.98 17.52,-2.12 47.23,-2.12 93.4,-9.02 46.16,-6.89 108.77,-20.69 160.23,-33.43 51.47,-12.72 91.8,-24.4 113.55,-28.11 21.76,-3.71 24.95,0.52 4.25,19.09 -20.7,18.58 -65.26,51.47 -111.95,83.31 -46.7,31.84 -95.52,62.62 -128.94,77.47 -33.43,14.86 -51.48,13.8 -66.87,7.95 -15.39,-5.83 -28.12,-16.44 -53.59,-20.68 -25.47,-4.25 -63.66,-2.13 -77.46,24.93 -13.79,27.06 -3.18,79.07 15.39,107.71 18.57,28.67 45.11,33.97 67.38,30.78 22.29,-3.18 40.33,-14.85 55.71,-27.06 15.39,-12.21 28.13,-24.94 62.09,-43.51 33.96,-18.57 89.14,-42.99 150.15,-90.2 61.04,-47.21 127.92,-117.26 164.01,-157.06 36.08,-39.77 41.39,-49.33 47.76,-55.7 6.36,-6.35 13.79,-9.55 35.55,-19.1 21.76,-9.55 57.83,-25.46 71.62,-27.58 13.8,-2.13 5.31,9.54 -4.25,27.58 -9.54,18.05 -20.14,42.46 -25.45,64.74 -5.3,22.28 -5.3,42.46 -4.25,63.14 1.07,20.7 3.19,41.92 9.02,55.18 5.84,13.27 15.4,18.58 25.99,15.92 10.62,-2.65 22.3,-13.27 42.99,-35.03 20.69,-21.74 50.41,-54.65 73.75,-99.76 23.35,-45.09 40.33,-102.39 48.82,-133.69 8.49,-31.31 8.49,-36.62 30.78,-53.6 22.29,-16.98 66.85,-45.62 90.73,-55.72 23.88,-10.08 27.06,-1.59 25.47,15.39 -1.59,16.99 -7.95,42.45 -11.68,83.83 -3.71,41.4 -4.76,98.7 9.03,121.51 13.8,22.83 42.45,11.15 69.5,-16.97 27.08,-28.12 52.54,-72.7 68.45,-121.52 15.93,-48.81 22.29,-101.86 23.34,-137.41 1.08,-35.55 -3.17,-53.6 22.3,-78.54 25.47,-24.93 80.66,-56.77 103.47,-59.43 22.81,-2.66 13.27,23.88 8.49,59.43 -4.78,35.55 -4.78,80.13 3.71,122.58 8.49,42.45 25.47,82.76 42.45,104.53 16.98,21.75 33.96,24.93 59.43,-9.56 25.47,-34.48 59.43,-106.64 68.45,-182.52 9.02,-75.88 -6.89,-155.48 -14.86,-197.93 -7.96,-42.45 -7.96,-47.75 3.19,-61.55 11.14,-13.79 33.42,-36.09 48.28,-50.94 14.86,-14.85 22.3,-22.29 24.4,-2.65 2.12,19.64 -1.05,66.32 4.25,96.57 5.31,30.25 19.1,44.04 40.86,47.22 21.76,3.19 51.48,-4.23 70.05,-25.99 18.57,-21.76 26,-57.83 28.11,-88.61 2.12,-30.77 -1.05,-56.25 10.62,-52 11.67,4.24 38.2,38.21 66.84,54.12 28.67,15.92 59.45,13.8 77.49,-1.59 18.03,-15.39 23.35,-44.04 16.44,-72.71 -6.9,-28.64 -25.99,-57.3 -49.34,-75.34 -23.34,-18.03 -50.94,-25.46 -54.13,-30.78 -3.17,-5.3 18.05,-8.48 38.74,-16.45 20.69,-7.95 40.87,-20.69 55.19,-25.47 14.32,-4.76 22.81,-1.58 46.16,-3.18 23.35,-1.58 61.54,-7.95 88.6,-23.88 27.07,-15.91 42.98,-41.38 45.11,-65.8 2.12,-24.4 -9.55,-47.75 -34.22,-52.27 -24.68,-4.5 -62.34,9.84 -82.77,17.26 -20.42,7.43 -23.61,7.96 -3.71,-17.52 19.9,-25.45 62.88,-76.93 85.7,-102.14 22.81,-25.2 25.47,-24.13 32.37,-18.57 6.9,5.58 18.04,15.67 45.63,28.13 27.59,12.47 71.63,27.33 115.14,36.88 43.52,9.55 86.49,13.8 126.28,2.4 39.81,-11.41 76.41,-38.48 96.57,-68.2 20.18,-29.72 23.9,-62.08 -5.03,-88.62 -28.92,-26.52 -90.47,-47.21 -150.69,-47.75 -60.23,-0.51 -119.13,19.11 -146.47,26.27 -27.31,7.18 -23.06,1.86 -9.81,-13.79 13.27,-15.65 35.56,-41.64 48.02,-55.45 12.48,-13.79 15.14,-15.39 54.39,-16.72 39.28,-1.33 115.16,-2.38 179.63,-22.02 64.47,-19.64 117.52,-57.83 143.25,-95.24 25.74,-37.41 24.16,-74.01 10.89,-95.24 -13.25,-21.22 -38.2,-27.07 -72.7,-28.93 -34.48,-1.86 -78.53,0.27 -111.43,14.06 -32.89,13.8 -54.64,39.27 -70.03,52.01 -15.39,12.74 -24.41,12.74 -19.65,-6.63 4.78,-19.35 23.36,-58.06 34.24,-83.26 10.87,-25.18 14.06,-36.86 32.09,-45.89 18.04,-9 50.95,-15.37 94.98,-39.78 44.04,-24.41 99.23,-66.85 127.34,-105.58 28.13,-38.75 29.2,-73.76 18.59,-98.18 -10.62,-24.4 -32.91,-38.21 -57.32,-40.86 -24.4,-2.64 -50.94,5.85 -66.86,12.22 -15.92,6.36 -21.22,10.61 -16.97,3.17 4.25,-7.42 18.04,-26.52 29.18,-51.99 11.15,-25.48 19.64,-57.32 25.48,-74.3 5.83,-16.98 9.02,-19.1 17.51,-13.26 8.49,5.84 22.28,19.63 40.31,28.65 18.05,9.03 40.35,13.28 56.79,6.91 16.45,-6.37 27.06,-23.35 29.7,-45.11 2.66,-21.74 -2.64,-48.29 -6.36,-64.73 -3.71,-16.45 -5.84,-22.82 15.39,-19.64 21.23,3.19 65.8,15.93 93.91,0.54 28.13,-15.38 39.81,-58.9 37.15,-88.08 -2.66,-29.18 -19.64,-44.04 -41.93,-52.53 -22.28,-8.49 -49.86,-10.61 -64.2,-13.27 -14.32,-2.66 -15.37,-5.84 -6.36,-18.57 9.02,-12.73 28.12,-35.03 36.61,-57.33 8.49,-22.27 6.38,-44.56 6.92,-56.77 0.53,-12.2 3.71,-14.32 18.57,-21.76 14.86,-7.42 41.4,-20.16 78,-37.67 36.62,-17.5 83.3,-39.79 144.85,-97.64z"/>
 </g>
</svg>
