<?xml version="1.0" encoding="UTF-8"?>
<!DOCTYPE svg PUBLIC "-//W3C//DTD SVG 1.1//EN" "http://www.w3.org/Graphics/SVG/1.1/DTD/svg11.dtd">
<!-- Creator: CorelDRAW 2020 (64-Bit) -->
<svg xmlns="http://www.w3.org/2000/svg" xml:space="preserve" width="210mm" height="297mm" version="1.1" shape-rendering="geometricPrecision" text-rendering="geometricPrecision" image-rendering="optimizeQuality" fill-rule="evenodd" clip-rule="evenodd"
viewBox="0 0 21000 29700"
 xmlns:xlink="http://www.w3.org/1999/xlink"
 xmlns:xodm="http://www.corel.com/coreldraw/odm/2003">
 <g id="Capa_x0020_1">
  <metadata id="CorelCorpID_0Corel-Layer"/>
  <path id="aro_x0020_14.svg" fill="#A2662E" d="M15355.88 39502.29c30.28,-11.87 75.25,-18.73 102.74,-22.16 27.46,-3.44 37.42,-3.44 39.93,4.69 2.48,8.12 -2.48,24.33 0.04,48.36 2.47,24.06 12.43,55.93 18.99,78.4 6.56,22.5 9.69,35.58 -7.17,44.93 -16.86,9.38 -53.69,15.02 -85.23,13.12 -31.54,-1.87 -57.74,-11.22 -78.64,-32.77 -20.94,-21.54 -36.57,-55.25 -36.57,-80.54 0,-25.29 15.63,-42.17 45.91,-54.03zm-2166.28 -805.49c30.28,-12.16 68.34,-17.16 95.53,-16.54 27.15,0.64 43.4,6.86 39.66,24.67 -3.74,17.8 -27.49,47.13 -39.35,75.85 -11.87,28.75 -11.87,56.86 -20.6,83.06 -8.77,26.24 -26.23,50.6 -46.22,58.08 -19.98,7.51 -42.48,-1.87 -62.43,-21.55 -19.98,-19.64 -37.48,-49.61 -44.04,-76.8 -6.56,-27.16 -2.17,-51.49 11.25,-73.37 13.42,-21.86 35.88,-41.2 66.2,-53.4zm1302.57 708.15c22.77,4.39 47.13,25.02 59.3,65.28 12.16,40.28 12.16,100.19 3.73,156.71 -8.42,56.52 -25.28,109.6 -53.04,143.93 -27.8,34.35 -66.54,49.99 -101.82,48.09 -35.28,-1.87 -67.12,-21.21 -86.15,-59.31 -19.07,-38.09 -25.29,-94.92 -29.03,-144.57 -3.77,-49.62 -4.99,-92.1 -0.91,-118.03 4.04,-25.89 13.39,-35.24 28.71,-39.62 15.3,-4.39 36.5,-3.74 56.49,-8.43 19.98,-4.69 38.71,-14.69 58.69,-25.63 19.98,-10.91 41.22,-22.77 64.03,-18.42zm-1949.5 -1538.37c38.4,-8.12 80.23,3.77 102.73,28.11 22.46,24.36 25.56,61.21 -1.29,86.79 -26.85,25.63 -83.67,39.97 -123.64,29.68 -39.96,-10.3 -63.04,-45.27 -57.09,-76.81 5.91,-31.54 40.88,-59.65 79.29,-67.77zm3216.61 1660.99c7.78,19.68 8.43,37.79 -1.56,53.7 -10,15.93 -30.62,29.7 -56.52,33.13 -25.93,3.43 -57.13,-3.47 -79.28,-16.58 -22.2,-13.09 -35.32,-32.46 -30.93,-53.7 4.35,-21.21 26.2,-44.32 50.87,-57.74 24.68,-13.42 52.14,-17.2 73.38,-8.46 21.24,8.77 36.23,29.98 44.04,49.65zm-1817.26 -675.59c58.39,18.42 105.83,47.17 125.2,67.16 19.37,19.98 10.61,31.19 -7.82,46.49 -18.42,15.32 -46.52,34.66 -63.99,61.51 -17.5,26.88 -24.36,61.21 -27.49,90.23 -3.13,29.05 -2.48,52.81 -18.73,64.98 -16.24,12.17 -49.31,12.81 -91.76,0.3 -42.48,-12.47 -94.34,-38.09 -133.97,-78.37 -39.66,-40.27 -67.15,-95.22 -61.51,-145.48 5.61,-50.27 44.35,-95.88 98.36,-114.6 53.99,-18.73 123.33,-10.64 181.71,7.78zm3302.7 19.68c22.46,-16.86 61.78,-18.73 101.14,-7.51 39.35,11.24 78.67,35.62 96.17,64.94 17.47,29.36 13.12,63.69 -0.61,85.85 -13.76,22.19 -36.84,32.18 -64.64,33.75 -27.8,1.56 -60.25,-5.31 -88.66,-22.81 -28.45,-17.47 -52.78,-45.57 -62.16,-75.55 -9.38,-29.97 -3.74,-61.81 18.76,-78.67zm-2948.31 -283.51c40.58,-9.34 83.64,-2.47 112.39,24.68 28.72,27.15 43.05,74.63 44.96,122.38 1.87,47.78 -8.77,95.87 -24.06,133.32 -15.29,37.49 -35.28,64.34 -63.38,78.06 -28.1,13.74 -64.3,14.38 -93.97,9.05 -29.67,-5.31 -52.77,-16.52 -73.37,-43.37 -20.63,-26.85 -38.71,-69.33 -41.53,-115.86 -2.82,-46.49 9.69,-97.09 34.97,-135.19 25.28,-38.06 63.38,-63.69 103.99,-73.07zm-1336.61 -215.12c27.15,-8.12 55.25,-1.26 73.37,9.99 18.11,11.25 26.2,26.85 20.59,42.79 -5.64,15.94 -24.98,32.15 -37.79,51.48 -12.81,19.38 -19.03,41.87 -32.76,57.47 -13.76,15.6 -34.97,24.37 -54.95,19.03 -19.99,-5.3 -38.75,-24.64 -46.53,-48.05 -7.81,-23.42 -4.69,-50.91 10,-76.19 14.68,-25.29 40.88,-48.4 68.07,-56.52zm-359.91 -1119.15c12.75,11.41 26.64,21.71 41.66,30.85 -1.1,6.96 -2.1,11.73 -3.66,14.54 -4.38,7.81 -13.12,0.31 -24.33,-19.06 -4.34,-7.46 -9.05,-16.69 -13.67,-26.33zm5775.63 -39.95c-13.11,18.46 -39.96,40.92 -79.28,41.22 -39.36,0.35 -91.18,-21.54 -134.28,-54.64 -19.49,-14.97 -37.19,-32.23 -52.4,-49.57 -27.93,-44.3 -55.85,-88.6 -73.35,-118.68 -17.49,-30.09 -24.54,-45.97 -18.39,-49.33 6.16,-3.36 25.52,5.78 72.21,32.61 46.69,26.82 120.71,71.33 194.73,115.84 24.93,10.16 47.49,19.92 63.61,28.55 39.63,21.24 40.27,35.58 27.15,54zm65.59 -103.96c-19.37,0.65 -48.69,-4.99 -66.17,-8.43 -14.63,-2.86 -20.97,-4.19 -45.1,-14.96 -25.51,-30.34 -51.01,-60.68 -66.41,-86.22 -15.4,-25.53 -20.69,-46.25 -23.34,-57.72 -2.65,-11.47 -2.65,-13.67 11.02,-13.67 13.68,0 41.02,2.2 75.27,12.55 34.26,10.35 75.44,28.83 116.61,47.32 11.04,7.11 19.46,15.01 25.28,24.04 14.67,22.8 12.78,52.78 7.17,71.19 -5.61,18.43 -14.99,25.29 -34.33,25.9zm-5865.41 -1000.55c26.54,-8.73 29.64,6.26 19.65,48.09 -10,41.84 -33.07,110.52 -60.87,163.26 -27.8,52.78 -60.26,89.66 -81.5,108.69 -21.24,19.06 -31.23,20.28 -39.02,12.78 -7.81,-7.48 -13.45,-23.69 -16.24,-50.58 -2.82,-26.84 -2.82,-64.29 6.25,-100.83 9.04,-36.53 27.16,-72.15 61.21,-106.16 34.02,-34.02 83.97,-66.51 110.52,-75.25zm528.97 1855.21c33.41,-9.99 75.85,-8.73 107.4,0 31.53,8.77 52.16,24.98 63.41,44.96 11.22,19.99 13.08,43.74 -9.38,64.64 -22.5,20.94 -69.33,39.02 -108.65,47.44 -39.36,8.43 -71.23,7.21 -92.44,-11.85 -21.24,-19.04 -31.88,-55.88 -24.98,-84.93 6.87,-29.03 31.2,-50.27 64.64,-60.26zm165.78 241.02c26.23,-8.73 45.57,-4.96 61.82,10.33 16.24,15.3 29.36,42.14 31.87,68.99 2.48,26.85 -5.64,53.74 -22.8,74.64 -17.19,20.93 -43.4,35.92 -72.12,34.66 -28.74,-1.26 -59.94,-18.73 -75.54,-44.35 -15.63,-25.59 -15.63,-59.34 0.92,-86.83 16.54,-27.46 49.61,-48.67 75.85,-57.44zm2277.11 975.68c30.28,-1.87 59.03,11.86 80.27,41.19 21.2,29.36 34.97,74.32 34.97,110.55 0,36.23 -13.77,63.69 -29.06,78.06 -15.29,14.38 -32.15,15.61 -57.43,5.61 -25.29,-9.99 -59.03,-31.2 -80.89,-66.16 -21.85,-34.98 -31.84,-83.71 -20.89,-116.81 10.9,-33.07 42.75,-50.57 73.03,-52.44zm1269.7 -541.35c27.15,-11.86 59.64,-13.73 84.62,-5.94 24.98,7.81 42.45,25.31 40.27,36.83 -2.18,11.56 -24.03,17.2 -45.57,33.41 -21.55,16.24 -42.79,43.12 -54.65,62.77 -11.86,19.68 -14.38,32.19 -26.23,35.62 -11.87,3.43 -33.07,-2.21 -46.19,-21.58 -13.12,-19.34 -18.11,-52.44 -9.69,-79.94 8.43,-27.46 30.28,-49.31 57.44,-61.17zm-3754.11 -967.89c10.6,21.55 11.24,48.39 1.25,73.98 -9.99,25.63 -30.62,49.96 -56.21,64.34 -25.59,14.37 -56.21,18.72 -79.93,8.42 -23.72,-10.29 -40.61,-35.27 -44.05,-66.51 -3.43,-31.23 6.56,-68.68 29.98,-92.13 23.41,-23.41 60.29,-32.76 89.01,-29.33 28.71,3.43 49.34,19.68 59.95,41.23zm4952.44 915.11c20.9,-34.66 76.5,-55.87 122.72,-52.13 46.18,3.74 83.03,32.49 104.87,62.46 21.86,29.98 28.76,61.18 23.46,89.28 -5.34,28.11 -22.81,53.09 -47.48,66.82 -24.67,13.73 -56.52,16.24 -90.54,8.42 -34.05,-7.81 -70.24,-25.89 -95.22,-59 -24.98,-33.09 -38.75,-81.19 -17.81,-115.85zm-620.39 662.88c5.61,-1.26 8.12,10.61 2.18,60.26 -5.95,49.65 -20.29,137.06 -32.15,187.32 -11.9,50.3 -21.24,63.39 -29.67,56.52 -8.43,-6.87 -15.94,-33.72 -25.28,-73.98 -9.38,-40.28 -20.6,-94.01 -28.41,-122.73 -7.82,-28.71 -12.18,-32.45 3.43,-41.19 15.6,-8.73 51.21,-22.5 73.37,-36.56 22.16,-14.04 30.93,-28.38 36.53,-29.64zm408.09 -560.17c5.3,34.36 -2.21,61.23 -15.94,89 -13.73,27.8 -33.71,56.52 -62.74,73.68 -29.05,17.2 -67.15,22.8 -105.55,17.5 -38.41,-5.29 -77.11,-21.54 -92.1,-63.72 -14.99,-42.14 -6.25,-110.18 36.84,-153.57 43.09,-43.4 120.51,-62.16 168.29,-50.61 47.79,11.55 65.86,53.39 71.2,87.72zm352.49 -516.1c38.1,-19.68 76.8,-15.91 106.17,-0.31 29.32,15.64 49.31,43.1 51.51,76.81 2.18,33.74 -13.45,73.68 -32.79,101.78 -19.37,28.11 -42.48,44.35 -72.45,53.7 -29.98,9.38 -66.82,11.89 -91.8,6.56 -24.98,-5.3 -38.06,-18.39 -48.35,-41.8 -10.33,-23.42 -17.82,-57.17 -2.83,-95.57 14.99,-38.4 52.44,-81.5 90.54,-101.17zm-1710.75 1335.68c23.41,-12.17 34.01,-29.02 71.19,-14.04 37.15,14.99 100.83,61.82 140.49,100.22 39.63,38.41 55.26,68.38 44.01,74.3 -11.25,5.95 -49.31,-12.14 -97.09,-32.77 -47.79,-20.59 -105.22,-43.7 -149.23,-60.9 -44.04,-17.16 -74.66,-28.37 -71.84,-37.75 2.82,-9.38 39.02,-16.86 62.47,-29.06zm489.34 -422.4c45.57,-18.73 95.53,-22.5 134.89,-8.47 39.32,14.08 68.03,45.95 66.77,84.02 -1.26,38.1 -32.45,82.44 -50.87,103.96 -18.42,21.54 -24.07,20.32 -45.27,28.75 -21.24,8.43 -58.08,26.54 -94.61,29.33 -36.53,2.82 -72.73,-9.65 -95.84,-37.45 -23.11,-27.8 -33.1,-70.86 -17.47,-109.27 15.6,-38.4 56.79,-72.15 102.4,-90.87zm-1056.79 502.3c18.12,-14.65 46.22,-21.51 78.71,8.15 32.46,29.67 69.29,95.84 79.59,145.8 10.3,49.96 -5.92,83.67 -31.2,101.45 -25.31,17.81 -59.64,19.71 -88.66,5.94 -29.06,-13.72 -52.81,-43.06 -73.1,-75.55 -20.29,-32.45 -37.15,-68.07 -36.5,-89.62 0.61,-21.54 18.73,-29.02 31.84,-44 13.12,-14.99 21.21,-37.49 39.32,-52.17zm-300.66 118.34c15.29,-5.61 28.41,6.25 44.65,14.68 16.25,8.42 35.58,13.42 51.22,15.9 15.6,2.51 27.46,2.51 25.9,20.63 -1.57,18.11 -16.55,54.34 -35.28,84.01 -18.72,29.67 -41.22,52.75 -67.42,63.05 -26.24,10.32 -56.22,7.81 -75.89,-7.49 -19.68,-15.28 -29.03,-43.39 -26.2,-68.68 2.78,-25.28 17.77,-47.78 34.01,-70.59 16.22,-22.76 33.71,-45.87 49.01,-51.51zm475.82 -307.88c-6.56,20.63 -22.78,37.53 -44.62,54.07 -21.86,16.56 -49.35,32.77 -73.68,43.67 -24.37,10.95 -45.61,16.59 -64.02,10.95 -18.43,-5.61 -34.06,-22.46 -45.58,-36.23 -11.56,-13.73 -19.07,-24.33 -17.5,-40.27 1.56,-15.94 12.2,-37.15 40.91,-59.34 28.72,-22.16 75.55,-45.23 112.73,-52.44 37.14,-7.17 64.6,1.56 79.93,18.11 15.29,16.56 18.39,40.89 11.83,61.48zm328.29 -275c7.48,40.91 3.71,98.96 -18.15,135.19 -21.85,36.23 -61.81,50.57 -84.93,59.3 -23.1,8.77 -29.32,11.9 -46.18,5.65 -16.86,-6.26 -44.35,-21.86 -63.08,-39.67 -18.72,-17.8 -28.71,-37.76 -27.46,-52.74 1.23,-14.99 13.73,-24.98 36.84,-34.36 23.08,-9.35 56.83,-18.11 81.19,-34.66 24.33,-16.55 39.32,-40.89 50.57,-63.39 11.22,-22.46 18.73,-43.09 31.85,-41.53 13.08,1.57 31.84,25.32 39.35,66.21zm360.38 -216.04c28.1,5.94 51.17,24.67 64.94,47.13 13.73,22.5 18.08,48.7 16.21,71.5 -1.87,22.81 -9.96,42.14 -28.99,58.39 -19.06,16.25 -49.04,29.36 -80.27,23.72 -31.23,-5.61 -63.69,-29.94 -74.94,-65.25 -11.25,-35.27 -1.26,-81.46 20.29,-108 21.55,-26.55 54.65,-33.41 82.76,-27.49zm204.48 -104.58c36.54,-23.72 85.27,-17.5 117.11,-3.77 31.84,13.76 46.83,34.97 51.83,58.38 4.99,23.42 0,49.05 -14.04,72.46 -14.07,23.42 -37.18,44.63 -58.73,55.53 -21.54,10.95 -41.52,11.59 -71.5,1.26 -29.97,-10.3 -69.94,-31.5 -77.72,-68.99 -7.81,-37.45 16.52,-91.15 53.05,-114.87zm289.45 -188.62c10.6,29.98 6.25,62.47 -6.87,83.98 -13.12,21.55 -34.97,32.18 -60.86,34.67 -25.93,2.51 -55.91,-3.13 -81.5,-21.24 -25.62,-18.09 -46.83,-48.7 -50.87,-81.5 -4.08,-32.76 9,-67.73 34.93,-84.93 25.9,-17.16 64.64,-16.52 96.79,-2.48 32.15,14.07 57.77,41.53 68.38,71.5zm216.99 -138.32c30.28,0.31 60.25,9.08 79.32,20.94 19.03,11.86 27.15,26.85 13.73,43.4 -13.43,16.55 -48.4,34.66 -71.81,61.82 -23.42,27.18 -35.31,63.38 -42.79,92.09 -7.51,28.76 -10.6,49.97 -22.77,54.35 -12.2,4.38 -33.4,-8.12 -49.96,-39.05 -16.54,-30.89 -28.44,-80.21 -27.18,-119.56 1.25,-39.35 15.6,-68.68 38.1,-87.45 22.46,-18.72 53.08,-26.84 83.36,-26.54zm251.35 -180.76c5,21.24 6.22,46.21 -3.43,66.51 -9.69,20.29 -30.32,35.92 -51.83,44.66 -21.55,8.73 -44.05,10.6 -64.94,-1.91 -20.94,-12.47 -40.27,-39.32 -49.32,-66.17 -9.07,-26.85 -7.85,-53.69 7.79,-73.99 15.6,-20.29 45.57,-34.05 71.19,-37.18 25.6,-3.12 46.8,4.39 61.79,16.86 14.99,12.51 23.75,29.98 28.75,51.22zm-3701.1 1078.14c41.53,5.34 74.63,26.54 98.05,41.53 23.41,14.99 37.14,23.75 34.66,39.35 -2.52,15.61 -21.24,38.11 -67.12,68.38 -45.91,30.28 -118.98,68.35 -167.68,86.77 -48.73,18.42 -73.07,17.19 -94.91,7.81 -21.86,-9.34 -41.23,-26.84 -52.75,-50.26 -11.56,-23.41 -15.33,-52.74 4.04,-83.37 19.34,-30.58 61.82,-62.43 108.04,-83.67 46.18,-21.2 96.14,-31.84 137.67,-26.54zm399.97 -122.11c-8.13,33.75 -29.34,54.99 -56.18,63.72 -26.88,8.77 -59.34,5 -89.01,-2.51 -29.66,-7.48 -56.51,-18.69 -83.05,-35.24 -26.55,-16.55 -52.75,-38.44 -68.04,-67.5 -15.33,-29.02 -19.68,-65.21 6.25,-97.4 25.9,-32.15 82.08,-60.22 135.16,-57.43 53.08,2.82 103.04,36.53 130.53,76.5 27.47,39.96 32.46,86.15 24.34,119.86zm341.88 -190.11c58.39,0.95 100.83,22.16 123.95,50.57 23.1,28.41 26.88,64.03 4.72,97.44 -22.19,33.4 -70.28,64.6 -127.1,81.76 -56.82,17.2 -122.41,20.33 -158.61,20.63 -36.23,0.3 -43.09,-2.17 -47.14,-19.98 -4.07,-17.81 -5.29,-50.88 -11.55,-79.63 -6.25,-28.71 -17.5,-53.05 -16.86,-71.16 0.62,-18.12 13.09,-29.98 56.48,-45.61 43.4,-15.6 117.73,-34.94 176.11,-34.02zm-1804.31 -428.72c30.58,-7.17 61.2,2.82 78.71,15.29 17.46,12.51 21.81,27.5 21.81,43.74 0,16.24 -4.35,33.71 -15.25,54.95 -10.95,21.24 -28.45,46.19 -44.66,60.87 -16.24,14.68 -31.23,19.03 -53.39,14.99 -22.2,-4.04 -51.52,-16.55 -65.89,-40.27 -14.38,-23.72 -13.74,-58.7 1.86,-88.37 15.6,-29.66 46.22,-54 76.81,-61.2zm326.28 -72.12c-12.2,25.63 -39.04,43.1 -64.33,55.26 -25.28,12.2 -49.04,19.07 -72.45,14.38 -23.42,-4.69 -46.5,-20.91 -58.97,-40.28 -12.51,-19.37 -14.41,-41.83 -5.98,-65.28 8.43,-23.42 27.19,-47.75 51.86,-63.99 24.64,-16.25 55.26,-24.34 82.41,-21.85 27.16,2.51 50.91,15.59 64.03,39.01 13.08,23.41 15.6,57.16 3.43,82.75zm312.22 -29.36c-12.17,17.5 -19.06,16.28 -44.65,15.02 -25.59,-1.26 -69.94,-2.52 -103.01,-12.51 -33.1,-9.99 -54.99,-28.71 -59.65,-49.65 -4.69,-20.9 7.79,-44.01 34.02,-60.56 26.24,-16.55 66.21,-26.54 105.25,-22.5 39.02,4.08 77.08,22.19 87.41,49.35 10.3,27.19 -7.2,63.38 -19.37,80.85zm-819.91 -374.35c33.4,1.57 55.9,18.42 67.76,39.63 11.86,21.24 13.09,46.86 8.74,71.2 -4.39,24.37 -14.38,47.48 -30.59,69.02 -16.24,21.55 -38.74,41.53 -62.46,51.22 -23.72,9.69 -48.7,9.04 -70.86,-5.95 -22.19,-14.99 -41.53,-44.31 -46.83,-79.93 -5.34,-35.59 3.43,-77.42 29.97,-105.22 26.55,-27.77 70.86,-41.53 104.27,-39.97zm-532.65 -730c45.27,-7.17 97.71,-2.17 130.51,13.43 32.79,15.63 45.87,41.83 54.64,62.73 8.74,20.94 13.09,36.57 6.22,42.18 -6.86,5.61 -24.94,1.26 -67.73,-12.51 -42.79,-13.73 -110.21,-36.8 -155.18,-48.36 -44.95,-11.55 -67.45,-11.55 -59.64,-21.24 7.82,-9.69 45.88,-29.02 91.18,-36.23zm-88.66 -497.71c44.01,30.32 73.99,71.51 87.1,107.09 13.12,35.62 9.35,65.59 -3.12,77.76 -12.51,12.2 -33.72,6.56 -70.55,-13.43 -36.85,-19.98 -89.32,-54.31 -126.77,-97.09 -37.48,-42.79 -59.95,-93.97 -65.25,-119.29 -5.34,-25.28 6.52,-24.63 41.49,-14.65 34.98,9.99 93.06,29.33 137.1,59.61zm-146.13 -431.81c37.14,16.24 62.12,36.87 81.49,66.51 19.34,29.67 33.1,68.41 39.97,96.48 6.86,28.1 6.86,45.61 -10.3,47.17 -17.2,1.57 -51.52,-12.81 -88.67,-34.97 -37.18,-22.16 -77.14,-52.13 -107.12,-86.8 -29.97,-34.66 -49.95,-73.98 -56.82,-96.17 -6.87,-22.16 -0.65,-27.16 27.15,-23.73 27.81,3.44 77.11,15.3 114.3,31.51zm714.29 110.67c-14.82,16.19 -28.75,32.29 -41.75,48.3 -33.1,40.69 -60.61,81.1 -82.35,121.19 -17.59,32.34 -32.12,63.66 -43.55,93.9 -3.28,-3.17 -5.3,-9.87 -7.75,-19.97 -4.69,-19.34 -10.91,-51.22 -13.73,-76.2 -2.82,-24.97 -2.17,-43.05 21.85,-75.54 24.03,-32.46 71.5,-79.29 104.3,-106.48 32.77,-27.15 50.88,-34.63 60.56,-29.33 7.69,4.21 10.04,16.48 2.42,44.13zm-618.25 -827.75c24.67,40.3 17.16,79.62 3.43,112.72 -13.73,33.11 -33.72,59.95 -73.04,37.46 -39.35,-22.47 -98.07,-94.28 -126.49,-148.31 -28.41,-54 -26.54,-90.2 -11.86,-108.01 14.68,-17.81 42.14,-17.16 84.32,3.74 42.14,20.93 98.96,62.12 123.64,102.4zm6459.5 1548.18c-86.83,219.78 -197.45,427.53 -328.7,620.13 -69.03,-9.38 -147.43,-24.78 -217,-23.07 -101.16,2.51 -183.62,41.22 -219.2,91.79 -35.58,50.6 -24.36,113.03 0,150.48 24.33,37.49 61.82,50 90.54,38.1 28.72,-11.86 48.7,-48.06 71.81,-74.91 23.11,-26.84 49.34,-44.35 86.83,-42.47 22.22,1.12 48.43,9.07 70.48,20.15 -63.48,81.7 -130.84,160.24 -201.83,235.31 -16.86,-12.51 -31.47,-17.67 -49.72,-19.92 -21.28,-2.61 -47.48,-1.39 -59.95,-1.39 -12.51,0 -11.28,-1.22 -10.64,-16.21 0.61,-14.98 0.61,-43.74 -9.99,-73.1 -10.64,-29.33 -31.84,-59.31 -60.56,-76.81 -28.75,-17.46 -64.95,-22.46 -98.66,-23.72 -33.74,-1.22 -64.98,1.26 -98.08,18.12 -33.1,16.89 -68.04,48.08 -74.9,93.05 -6.87,44.96 14.34,103.69 24.98,133.01 10.6,29.37 10.6,29.37 -14.38,30.59 -24.98,1.26 -74.93,3.77 -106.13,8.12 -31.23,4.39 -43.74,10.61 -54.96,18.73 -11.24,8.12 -21.23,18.11 -26.23,23.11 -4.99,5 -4.99,5 -16.24,-1.26 -11.25,-6.22 -33.72,-18.72 -63.69,-26.23 -29.98,-7.48 -67.46,-9.96 -101.17,-5.61 -33.72,4.38 -63.69,15.63 -90.54,36.87 -26.85,21.24 -50.6,52.44 -62.46,68.04 -11.87,15.63 -11.87,15.63 -33.72,17.5 -21.85,1.87 -65.55,5.61 -103.65,21.82 -38.1,16.25 -70.55,45 -83.67,86.19 -13.12,41.22 -6.87,94.95 -5.61,121.8 1.26,26.85 -2.51,26.85 -31.84,36.84 -29.37,9.99 -84.32,29.94 -116.16,63.04 -31.84,33.1 -40.61,79.32 -34.36,127.41 6.25,48.09 27.49,98.01 66.85,132.34 12.91,11.28 27.76,20.9 42.65,29.16 -70.66,24.33 -142.4,46.22 -215.2,65.59 4.12,-8.43 7.93,-17.64 11.12,-27.84 14.99,-48.09 15.43,-117.11 -9.92,-178.48 -25.39,-61.38 -76.57,-115.08 -100.29,-123.81 -23.76,-8.74 -19.99,27.46 -28.11,66.17 -8.12,38.74 -28.1,79.93 -56.21,116.77 -28.1,36.87 -64.3,69.33 -106.74,81.8 -42.49,12.51 -91.22,5.04 -137.41,17.5 -46.21,12.48 -89.92,44.96 -118.63,82.42 -28.72,37.48 -42.49,79.93 -71.81,39.96 -29.37,-39.93 -74.33,-162.34 -140.49,-234.15 -66.21,-71.81 -153.65,-93.02 -212.95,-74.94 -59.34,18.11 -90.54,75.58 -92.41,149.26 -1.56,60.7 16.82,132.37 30.66,185.05 -74.02,-4.93 -147.33,-12.34 -219.88,-22.26l0.47 -1.16c19.34,-44.31 61.28,-86.73 75.38,-140.42 14.07,-53.7 0.34,-118.65 -46.49,-166.73 -46.83,-48.09 -126.76,-79.29 -232.28,-78.67 -105.56,0.64 -236.68,33.1 -302.23,49.34 -65.59,16.25 -65.59,16.25 -58.72,-73.68 6.86,-89.92 20.62,-269.77 -22.47,-399.05 -43.1,-129.25 -143.01,-207.92 -231.07,-229.17 -88.05,-21.2 -164.21,14.99 -222.9,95.54 -58.72,80.58 -99.91,205.44 -120.51,267.87 -20.63,62.46 -20.63,62.46 -46.83,44.35 -26.24,-18.11 -78.71,-54.31 -140.53,-68.69 -61.81,-14.34 -132.98,-6.86 -168.56,-3.12 -35.61,3.77 -35.61,3.77 -22.5,-24.33 13.13,-28.11 39.32,-84.29 39.97,-127.39 0.61,-43.09 -24.37,-73.06 -66.82,-88.04 -42.48,-14.99 -102.43,-14.99 -132.4,-14.99 -29.98,0 -29.98,0 -26.2,-9.38 3.74,-9.35 11.22,-28.11 9.35,-54.35 -1.88,-26.2 -13.09,-59.91 -35.55,-84.28 -22.5,-24.33 -56.25,-39.32 -73.11,-46.83 -16.85,-7.48 -16.85,-7.48 -3.73,-23.11 13.11,-15.6 39.31,-46.8 48.7,-77.42 9.38,-30.59 1.87,-60.56 -24.98,-89.31 -26.85,-28.72 -73.03,-56.18 -123,-68.08 -49.95,-11.85 -103.68,-8.08 -130.53,-6.21 -26.85,1.86 -26.85,1.86 -7.47,-23.11 19.33,-24.98 58.07,-74.94 73.06,-123.03 14.99,-48.09 6.23,-94.27 -14.38,-140.49 -20.59,-46.22 -53.07,-92.41 -109.9,-99.92 -56.82,-7.48 -137.98,23.72 -189.81,73.68 -26.54,25.56 -45.36,56.04 -59.94,84.32 -19.54,-36.43 -38.44,-73.31 -56.62,-110.56l3.29 -12.13c19.34,-67.42 53.5,-123.16 96.18,-166.66 15.87,-16.17 32.91,-30.63 50.91,-43.85 23.31,-35.35 46.62,-70.69 49.9,-101.15 3.28,-30.47 -13.48,-56.04 -39.72,-63.26 -26.1,-7.19 -61.6,3.81 -83.41,10.23 -13.91,5.23 -26.55,8.54 -37.78,9.89 -11.87,1.42 -22.28,0.66 -31.08,-2.22 -4.98,-1.63 -9.53,-3.95 -13.64,-6.93 7.47,-31.98 17.77,-68.26 30.74,-103.48 24.32,-66.17 58.07,-128.63 66.81,-156.13 4,-12.59 2.76,-17.82 -3.78,-17.16 -9.14,4.12 -13.38,6.11 -19.23,9.37 -8.3,4.63 -19.86,11.79 -41.62,25.5 -4.54,3.06 -9.28,6.29 -14.17,9.67 0.18,-0.36 0.36,-0.72 0.54,-1.08 -1.41,0.89 -2.85,1.8 -4.33,2.74 -33.86,21.37 -86.2,54.42 -112.81,68.3 -26.61,13.88 -27.5,8.59 -26.61,3.74 0.88,-4.85 3.52,-9.26 35.72,-78.05 32.19,-68.8 93.92,-201.97 130.19,-287.91 36.26,-85.93 47.05,-124.64 57.83,-163.34 5.82,-61.84 -0.4,-102.47 -22.33,-113.16 -24.36,-11.86 -68.1,13.12 -128.02,55.57 -59.95,42.48 -136.14,102.43 -186.07,159.25 -16.03,18.25 -29.39,36.2 -40.77,53.63 -3.91,-25.59 -7.52,-51.35 -10.78,-77.15 33.31,-36.97 71.5,-76.53 102.12,-116.36 45.58,-59.31 74.3,-119.25 93.67,-197.32 19.33,-78.06 29.33,-174.2 26.85,-226.03 -2.52,-51.83 -17.51,-59.34 -71.82,-38.74 -45.6,17.33 -118.94,54.38 -175.29,93.93 3.13,-125.65 13.6,-249.46 30.91,-371.08 0.94,2.17 1.91,4.33 2.88,6.48 2.82,-18.57 6.15,-38.92 9.95,-61.3 19.78,-116.52 52.39,-287.86 94.76,-432.47 32.45,-110.74 70.61,-205.81 104.11,-282.32 -0.17,0.15 -0.34,0.3 -0.51,0.46 160.87,-386.12 395.75,-733.66 686.97,-1024.89 574.66,-574.66 1368.61,-930.1 2245.55,-930.1 876.93,0 1670.89,355.44 2245.53,930.1 574.65,574.65 930.1,1368.61 930.1,2245.56 0,13.46 -0.09,26.89 -0.26,40.3 -6.1,101.64 -12.2,203.29 -16.54,264.98 -1.21,17.11 -2.27,31.14 -3.25,42.95 0.5,-1 0.99,-2 1.48,-3 -2.35,21.81 -4.93,43.55 -7.73,65.23 -23.01,178.2 -60.79,351.77 -112.05,519.44 -26.6,-53.55 -56.39,-109.81 -130.01,-155.35 -53.44,-20.96 -106.87,-41.92 -160.31,-62.88 -24.9,-6.55 -50.94,-12.57 -77.37,-18.08 -121.87,-15.94 -243.74,-31.88 -310.41,-41.61 -66.66,-9.73 -78.13,-13.26 -83.86,-9.73 -5.73,3.52 -5.73,14.11 5.31,58.41 11.04,44.31 33.12,122.34 56.39,182.57 23.27,60.22 47.72,102.65 72.17,145.07 14.54,20.6 30.23,40.07 47.28,57.59 67.43,69.33 156.1,108.07 246.77,111.3 90.67,3.23 183.31,-28.99 243.26,-30.89l8.16 -0.07zm39.48 551.55c74.77,-130.06 141.32,-265.43 198.92,-405.45 46.42,-2.17 101.68,-10.73 148.24,-12.84 69.29,-3.13 119.25,8.12 167.96,-3.13 48.69,-11.21 96.17,-44.96 108.03,-87.44 11.86,-42.45 -11.86,-93.63 -52.44,-110.52 -40.61,-16.86 -98.04,0.64 -158.61,23.11 -56.31,20.9 -115.27,46.08 -159.42,51.55 132.34,-366.22 204.56,-761.19 204.56,-1173.06 0,-953.04 -386.34,-1815.92 -1010.91,-2440.5 -624.57,-624.57 -1487.45,-1010.92 -2440.47,-1010.92 -953.04,0 -1815.91,386.35 -2440.48,1010.92 -536.58,536.59 -897.33,1249.09 -988.34,2043.56 -15.98,-27.63 -34.94,-53.87 -57.57,-77.18 -86.8,-89.28 -227.94,-135.46 -297.23,-156.09 -69.33,-20.6 -66.82,-15.6 -57.44,35.58 9.35,51.21 25.56,148.65 61.79,242.92 36.23,94.31 92.4,185.46 162.99,252.89 54.65,52.23 117.86,90.26 165.1,134.34 0.98,96.01 5.88,191.06 14.51,285.03 -16.15,-4.35 -38.06,-12.24 -74.09,-24.13 -58.72,-19.34 -154.87,-49.31 -226.07,-66.81 -71.19,-17.47 -117.38,-22.47 -134.85,-7.48 -17.5,14.99 -6.28,49.96 34.33,115.51 40.57,65.59 110.52,161.74 149.22,212.95 38.71,51.22 46.23,57.44 29.37,57.44 -16.89,0 -58.08,-6.22 -81.19,-7.48 -23.11,-1.25 -28.11,2.52 -9.99,58.08 18.11,55.57 59.3,162.99 117.38,246.66 58.08,83.68 133.02,143.63 202.17,189.88 69.13,46.29 132.48,78.88 116.23,87.61 -16.24,8.74 -112.04,-6.35 -185.56,2.31 -73.54,8.67 -124.72,41.16 -147.83,71.14 -23.11,29.97 -18.11,57.43 4.39,71.81 22.46,14.37 62.43,15.59 129.28,28.71 66.81,13.12 160.47,38.1 245.74,67.43 57.13,19.68 110.48,41.36 152.9,63.28 20.79,43.47 42.51,86.46 65.05,128.9 -33.24,16.35 -86.6,29.23 -123.04,51.7 -44.04,27.18 -63.38,68.37 -66.81,106.17 -3.46,37.79 9.04,72.11 34.64,102.4 25.58,30.31 64.33,56.51 106.8,70.85 42.46,14.38 88.64,16.89 110.19,18.76 21.54,1.87 18.45,3.13 2.85,24.98 -15.63,21.85 -43.74,64.34 -54.99,106.78 -11.25,42.45 -5.61,84.93 22.5,121.12 28.07,36.23 78.67,66.21 119.25,77.77 40.58,11.55 71.2,4.69 86.49,1.25 15.3,-3.43 15.3,-3.43 20.29,7.17 5,10.64 14.99,31.84 29.67,51.83 14.68,19.98 34.02,38.74 41.53,48.08 7.48,9.39 3.13,9.39 -21.24,34.37 -24.37,24.97 -68.68,74.94 -85.54,117.08 -16.89,42.17 -6.25,76.49 18.42,104.6 24.64,28.1 63.38,49.96 104.61,60.87 41.18,10.94 84.92,10.94 106.78,10.94 21.85,0 21.85,0 30.28,15.29 8.43,15.3 25.28,45.92 45.91,67.12 20.59,21.24 44.93,33.1 81.8,36.84 36.84,3.74 86.15,-0.61 122.07,-19.02 35.89,-18.43 58.39,-50.92 69.64,-67.16 11.21,-16.22 11.21,-16.22 23.07,12.5 11.86,28.72 35.58,86.19 73.68,138.63 38.1,52.44 90.53,99.92 121.16,129.25 30.58,29.36 39.32,40.57 3.74,47.44 -35.62,6.9 -115.52,9.38 -185.46,14.99 -69.94,5.64 -129.88,14.41 -167.34,41.25 -37.48,26.85 -52.47,71.78 -44.35,121.09 8.12,49.35 39.32,103.07 76.81,126.19 37.45,23.11 81.19,15.6 116.76,-14.37 35.59,-29.98 63.08,-82.42 103.66,-117.39 40.58,-34.97 94.27,-52.47 139.24,-53.73 44.96,-1.22 81.18,13.76 57.46,41.22 -23.72,27.5 -107.42,67.46 -161.12,113.64 -53.69,46.23 -77.41,98.7 -68.03,151.14 9.34,52.44 51.82,104.91 121.76,128.63 69.91,23.73 167.34,18.73 276.64,-28.11 109.26,-46.82 230.38,-135.49 290.98,-178.58 60.55,-43.1 60.55,-40.58 60.55,18.11 0,58.69 0,173.6 25.63,273.51 25.59,99.92 76.77,184.81 142.98,215.4 66.2,30.62 147.35,6.9 199.18,-26.81 51.82,-33.72 74.33,-77.46 92.44,-125.54 18.08,-48.06 31.84,-100.53 43.7,-142.98 11.86,-42.45 21.85,-74.94 45.57,-90.54 23.73,-15.6 61.21,-14.37 96.79,-16.89 35.59,-2.48 69.34,-8.7 86.83,-29.33 17.47,-20.59 18.7,-55.56 7.48,-85.54 -6.45,-17.19 -17.03,-32.79 -25.35,-47.64 47.92,9.75 96.18,18.48 144.77,26.27l4.73 6.46c34.97,46.82 94.64,103.31 161.32,135.29 66.68,31.98 140.39,39.49 177.23,43.23 36.84,3.74 36.84,3.74 19.99,36.19 -16.86,32.49 -50.61,97.44 -49.97,152.39 0.62,54.95 35.59,99.91 86.19,114.26 50.57,14.37 116.74,-1.87 172.34,-53.69 55.56,-51.84 100.53,-139.28 123.02,-182.99 22.46,-43.7 22.46,-43.7 34.97,-18.11 12.48,25.63 37.45,76.81 76.16,119.25 38.71,42.49 91.18,76.23 140.53,78.1 49.31,1.87 95.49,-28.1 113,-69.94 17.46,-41.83 6.25,-95.57 7.51,-145.52 1.22,-49.96 14.99,-96.14 44.96,-121.13 29.98,-24.98 76.16,-28.72 147.97,-23.72 71.81,5 169.25,18.73 246.05,39.94 76.8,21.23 132.98,49.99 181.07,70.58 48.09,20.6 88.05,33.1 108.68,34.97 20.6,1.87 21.82,-6.86 -0.03,-50.57 -21.86,-43.7 -66.81,-122.41 -108.65,-179.88 -34.84,-47.85 -67.53,-80.95 -91.55,-103.28 64.73,-20.59 128.66,-43.06 191.7,-67.29 32.69,15.74 70.86,31.02 110.31,36.98 66.17,9.99 136.08,-6.26 179.17,-23.12 43.09,-16.85 59.34,-34.35 79.32,-28.75 19.98,5.65 43.71,34.4 55.57,100.57 11.86,66.19 11.86,169.85 17.5,223.55 5.61,53.7 16.86,57.47 28.11,55.57 11.24,-1.87 22.46,-9.35 47.44,-55.57 24.98,-46.22 63.68,-131.12 85.54,-219.17 21.85,-88.05 26.85,-179.2 35.28,-252.47 8.39,-73.27 20.18,-128.64 32.69,-166.12 3.06,-9.21 6.15,-17.27 9.28,-24.61 45.77,-30.69 90.84,-62.43 135.05,-95.23 21.61,1.77 45.4,3.61 68.72,1.37 45.57,-4.36 89.27,-24.34 126.79,-68.15 37.52,-43.77 68.86,-111.37 84.52,-145.18 15.67,-33.78 15.67,-33.78 38.1,-6.22 22.43,27.57 67.26,82.65 119.05,113.95 51.76,31.3 110.48,38.81 159.83,22.57 49.31,-16.25 89.28,-56.18 104.91,-112.39 15.6,-56.21 6.83,-128.63 -18.15,-176.11 -24.98,-47.44 -66.17,-69.94 -86.76,-81.19 -20.63,-11.22 -20.63,-11.22 7.48,-28.07 28.1,-16.86 84.28,-50.61 113.03,-88.09 28.72,-37.45 29.94,-78.64 26.85,-118 -1.6,-19.95 -4.29,-39.39 -7.48,-57.23 27.33,-37.45 53.9,-75.48 79.69,-114.05 15.37,-0.89 31.54,-1.26 47.69,-1.05 51.82,0.64 103,6.86 141.1,41.18 38.1,34.36 63.07,96.83 108.04,121.81 44.96,24.97 109.87,12.47 142.97,-21.24 33.1,-33.72 34.36,-88.67 -8.09,-134.89 -42.48,-46.19 -128.63,-83.68 -191.06,-122.38 -51.56,-31.95 -86.97,-64.74 -116.71,-82.99z"/>
 </g>
</svg>
