<?xml version="1.0" encoding="UTF-8"?>
<!DOCTYPE svg PUBLIC "-//W3C//DTD SVG 1.1//EN" "http://www.w3.org/Graphics/SVG/1.1/DTD/svg11.dtd">
<!-- Creator: CorelDRAW 2020 (64-Bit) -->
<svg xmlns="http://www.w3.org/2000/svg" xml:space="preserve" width="210mm" height="297mm" version="1.1" shape-rendering="geometricPrecision" text-rendering="geometricPrecision" image-rendering="optimizeQuality" fill-rule="evenodd" clip-rule="evenodd"
viewBox="0 0 21000 29700"
 xmlns:xlink="http://www.w3.org/1999/xlink"
 xmlns:xodm="http://www.corel.com/coreldraw/odm/2003">
 <g id="Capa_x0020_1">
  <metadata id="CorelCorpID_0Corel-Layer"/>
  <path fill="#A2662E" d="M28806.57 49734.46c-111.1,-27.17 -231.86,-59.77 -329.69,-74.26 -97.82,-14.49 -172.68,-10.85 -210.11,-5.43 -37.45,5.43 -37.45,12.69 -9.06,67.63 28.36,54.95 85.14,157.57 199.85,260.82 114.72,103.24 287.4,207.11 435.34,239.08 147.93,32.01 271.09,-7.82 352.88,-56.35 60.37,-35.82 98.19,-76.36 112.92,-114.35 28.05,27.44 56.71,54.31 85.85,80.64 -24.28,29.96 -49.64,86.12 -66.01,161.01 -21.33,97.53 -27.34,226.74 -0.16,375.27 27.14,148.53 87.54,316.37 161.8,435.3 74.26,118.95 162.39,189.01 210.1,219.17 47.69,30.2 54.95,20.58 71.25,-36.8 16.3,-57.34 41.67,-162.42 43.47,-265.67 1.81,-103.25 -19.91,-204.65 -77.88,-348.36 -54.77,-135.74 -141.86,-309.25 -200.58,-419.39 69.27,55.21 141.11,107.39 215.18,156.35 0.06,42.39 1.64,106.23 19.22,182.11 19.32,83.33 57.96,181.12 108.08,255.98 50.11,74.89 111.69,126.84 151.54,154.61 39.84,27.77 57.98,31.38 67.04,13.24 9.04,-18.1 9.04,-57.93 -3.64,-119.55 -12.69,-61.57 -38.03,-144.87 -86.2,-236.23 -26.42,-50.04 -59.71,-102.52 -92.01,-149.12 112.16,64.18 228.84,121.26 349.5,170.72 -15.41,22.7 -29.04,59.08 -33.54,120.39 -6.64,90.6 6.63,235.48 82.71,377.37 76.07,141.89 214.93,280.76 342.33,362.26 127.4,81.52 243.33,105.67 304.32,117.73 60.99,12.09 67,12.09 46.5,-40.45 -20.54,-52.51 -67.66,-157.6 -154.58,-291.05 -86.95,-133.41 -213.75,-295.21 -301.88,-405.72 -74.76,-93.65 -121.68,-150.43 -150.89,-189.01 123.61,43.77 250.98,79.65 381.47,107.03 7.19,40.74 20.46,89.34 35.19,130.71 24.02,67.56 51.82,115.87 101.93,155.1 50.12,39.27 122.54,69.43 185.96,89.35 63.39,19.95 117.71,29.61 150.34,33.81 32.59,4.24 43.43,3.06 51.3,0.04 7.84,-3.02 12.67,-7.86 5.44,-47.13 -7.26,-39.23 -26.58,-112.87 -92.63,-191.67 -34.82,-41.53 -82.64,-84.49 -130.51,-122.38 101.7,10.49 204.91,15.85 309.41,15.85 117.96,-0.13 234.31,-7.13 348.7,-20.54 -8.38,5.42 -16.79,11.07 -25.24,16.92 -67.75,46.96 -135.38,107.36 -174.02,158.06 -38.64,50.71 -48.31,91.78 -53.13,112.29 -4.83,20.53 -4.83,20.53 11.46,21.75 16.3,1.21 48.93,3.61 111.1,-16.92 62.2,-20.51 153.95,-63.98 226.11,-133.72 61.35,-59.28 108.5,-137.52 133.88,-194.53 163.28,-32.23 321.73,-77.78 474.3,-135.42 -61.75,67.6 -153.49,171.5 -223.88,266.86 -74.86,101.44 -125.59,193.19 -150.95,260.19 -25.34,67.04 -25.34,109.33 -25.34,130.46 0,21.12 0,21.12 38.02,14.49 38.05,-6.64 114.16,-19.95 182.37,-36.25 68.22,-16.29 128.62,-35.62 198.64,-96.61 70.03,-60.98 149.74,-163.6 193.84,-293.3 42.96,-126.23 52.19,-278 42.62,-356.18 76.47,-37.39 151.1,-77.98 223.72,-121.52 -9.66,17.68 -19.68,36.8 -29.87,57.38 -37.85,76.66 -77.69,173.23 -95.2,248.71 -17.51,75.49 -12.68,129.81 -10.28,156.98 2.43,27.17 2.43,27.17 36.24,-0.59 33.82,-27.77 101.41,-83.33 158.16,-156.39 56.78,-73.05 102.65,-163.6 126.64,-255.42 17.71,-67.75 23.46,-136.14 19.69,-185.56 60.1,-43.12 118.52,-88.39 175.17,-135.74 -7.42,17.71 -14.52,36.9 -21.42,58.06 -24.75,76.1 -46.47,177.51 -73.64,288.61 -27.18,111.1 -59.77,231.86 -74.26,329.69 -14.5,97.82 -10.85,172.68 -5.43,210.11 5.43,37.46 12.69,37.46 67.63,9.07 54.94,-28.36 157.56,-85.14 260.81,-199.86 103.25,-114.72 207.12,-287.39 239.1,-435.33 32,-147.94 -7.83,-271.1 -56.36,-352.89 -35.82,-60.36 -76.37,-98.18 -114.36,-112.91 27.44,-28.06 54.32,-56.71 80.64,-85.86 29.97,24.28 86.13,49.65 161.02,66.02 97.53,21.32 226.74,27.33 375.26,0.16 148.53,-27.14 316.38,-87.54 435.3,-161.81 118.96,-74.26 189.02,-162.39 219.18,-210.1 30.2,-47.69 20.58,-54.95 -36.8,-71.25 -57.34,-16.29 -162.43,-41.66 -265.68,-43.47 -103.24,-1.81 -204.65,19.91 -348.35,77.88 -135.75,54.78 -309.25,141.86 -419.39,200.58 55.2,-69.27 107.38,-141.1 156.34,-215.17 42.39,-0.07 106.24,-1.64 182.12,-19.23 83.33,-19.32 181.12,-57.96 255.97,-108.07 74.9,-50.12 126.85,-111.69 154.62,-151.55 27.76,-39.83 31.37,-57.97 13.24,-67.04 -18.11,-9.03 -57.94,-9.03 -119.55,3.65 -61.58,12.68 -144.88,38.02 -236.23,86.19 -50.05,26.42 -102.53,59.71 -149.12,92.01 64.18,-112.16 121.25,-228.84 170.71,-349.5 22.71,15.41 59.08,29.05 120.4,33.55 90.6,6.64 235.48,-6.64 377.37,-82.71 141.89,-76.07 280.75,-214.94 362.25,-342.34 81.53,-127.4 105.68,-243.33 117.74,-304.32 12.09,-60.99 12.09,-67 -40.45,-46.49 -52.52,20.53 -157.6,67.65 -291.05,154.57 -133.41,86.95 -295.21,213.75 -405.72,301.88 -93.65,74.76 -150.43,121.69 -189.02,150.9 43.77,-123.62 79.66,-250.98 107.03,-381.47 40.75,-7.2 89.35,-20.48 130.72,-35.2 67.56,-24.02 115.86,-51.82 155.1,-101.93 39.26,-50.11 69.44,-122.54 89.35,-185.96 19.94,-63.38 29.6,-117.7 33.81,-150.33 4.24,-32.6 3.06,-43.44 0.03,-51.29 -3.02,-7.86 -7.85,-12.69 -47.12,-5.46 -39.24,7.26 -112.88,26.59 -191.67,92.63 -41.54,34.83 -84.49,82.64 -122.37,130.52 10.48,-101.7 15.83,-204.91 15.83,-309.4 -0.13,-117.97 -7.13,-234.33 -20.54,-348.72 5.43,8.38 11.08,16.8 16.93,25.24 46.95,67.76 107.35,135.38 158.06,174.03 50.7,38.64 91.77,48.3 112.28,53.13 20.54,4.84 20.54,4.84 21.76,-11.47 1.21,-16.29 3.61,-48.92 -16.93,-111.1 -20.51,-62.2 -63.98,-153.95 -133.71,-226.11 -59.27,-61.35 -137.52,-108.5 -194.53,-133.87 -32.24,-163.29 -77.78,-321.74 -135.42,-474.31 67.6,61.75 171.5,153.49 266.86,223.88 101.44,74.86 193.19,125.59 260.18,150.96 67.04,25.33 109.34,25.33 130.47,25.33 21.12,0 21.12,0 14.49,-38.01 -6.64,-38.06 -19.95,-114.16 -36.25,-182.38 -16.3,-68.22 -35.62,-128.61 -96.61,-198.64 -60.99,-70.03 -163.61,-149.75 -293.31,-193.84 -126.21,-42.95 -278,-52.18 -356.17,-42.62 -37.4,-76.47 -77.98,-151.1 -121.52,-223.72 17.68,9.67 36.8,19.69 57.38,29.87 76.66,37.86 173.23,77.69 248.72,95.2 75.48,17.52 129.79,12.69 156.96,10.28 27.18,-2.43 27.18,-2.43 -0.58,-36.24 -27.77,-33.81 -83.34,-101.41 -156.38,-158.16 -73.05,-56.78 -163.62,-102.65 -255.43,-126.64 -67.76,-17.71 -136.14,-23.46 -185.56,-19.68 -43.11,-60.1 -88.4,-118.53 -135.75,-175.18 17.71,7.43 36.9,14.52 58.07,21.42 76.1,24.74 177.51,46.47 288.61,73.64 111.1,27.18 231.86,59.78 329.69,74.27 97.82,14.49 172.68,10.84 210.1,5.42 37.46,-5.42 37.46,-12.68 9.07,-67.63 -28.36,-54.94 -85.14,-157.56 -199.85,-260.81 -114.72,-103.25 -287.4,-207.12 -435.34,-239.09 -147.93,-32.01 -271.1,7.82 -352.88,56.35 -60.37,35.82 -98.19,76.37 -112.91,114.36 -28.06,-27.44 -56.72,-54.32 -85.86,-80.64 24.28,-29.97 49.65,-86.13 66.01,-161.01 21.33,-97.54 27.34,-226.74 0.16,-375.27 -27.14,-148.53 -87.54,-316.38 -161.79,-435.31 -74.27,-118.95 -162.4,-189 -210.11,-219.17 -47.69,-30.2 -54.95,-20.57 -71.25,36.8 -16.29,57.34 -41.67,162.43 -43.47,265.68 -1.81,103.24 19.91,204.65 77.88,348.35 54.77,135.75 141.86,309.25 200.57,419.4 -69.26,-55.21 -141.1,-107.39 -215.17,-156.35 -0.06,-42.39 -1.63,-106.24 -19.21,-182.11 -19.33,-83.34 -57.97,-181.13 -108.09,-255.99 -50.11,-74.89 -111.69,-126.84 -151.55,-154.6 -39.82,-27.77 -57.96,-31.39 -67.03,-13.25 -9.04,18.11 -9.04,57.93 3.64,119.55 12.69,61.58 38.02,144.88 86.2,236.23 26.42,50.05 59.71,102.53 92,149.12 -112.14,-64.18 -228.83,-121.25 -349.5,-170.7 15.41,-22.71 29.06,-59.09 33.55,-120.41 6.64,-90.6 -6.63,-235.47 -82.7,-377.37 -76.08,-141.89 -214.94,-280.76 -342.35,-362.25 -127.39,-81.52 -243.32,-105.68 -304.31,-117.74 -60.99,-12.09 -67.01,-12.09 -46.5,40.46 20.54,52.5 67.66,157.59 154.58,291.04 86.95,133.41 213.75,295.22 301.89,405.72 74.75,93.65 121.68,150.44 150.88,189.02 -123.61,-43.77 -250.98,-79.65 -381.47,-107.03 -7.19,-40.75 -20.47,-89.35 -35.19,-130.72 -24.02,-67.56 -51.82,-115.86 -101.93,-155.1 -50.11,-39.27 -122.54,-69.43 -185.96,-89.34 -63.39,-19.95 -117.7,-29.61 -150.33,-33.82 -32.6,-4.24 -43.45,-3.06 -51.3,-0.03 -7.85,3.02 -12.68,7.85 -5.45,47.12 7.26,39.23 26.58,112.87 92.63,191.67 34.83,41.54 82.64,84.49 130.52,122.38 -101.7,-10.48 -204.91,-15.84 -309.41,-15.84 -117.97,0.13 -234.32,7.13 -348.71,20.53 8.38,-5.42 16.79,-11.07 25.24,-16.92 67.75,-46.96 135.38,-107.35 174.02,-158.06 38.64,-50.7 48.31,-91.77 53.14,-112.28 4.83,-20.54 4.83,-20.54 -11.47,-21.76 -16.3,-1.21 -48.93,-3.61 -111.1,16.93 -62.2,20.51 -153.95,63.98 -226.11,133.71 -61.36,59.28 -108.51,137.52 -133.88,194.53 -163.27,32.24 -321.73,77.78 -474.3,135.42 61.75,-67.59 153.49,-171.5 223.88,-266.86 74.85,-101.44 125.59,-193.18 150.96,-260.19 25.33,-67.03 25.33,-109.32 25.33,-130.45 0,-21.13 0,-21.13 -38.02,-14.49 -38.05,6.63 -114.15,19.94 -182.37,36.24 -68.22,16.3 -128.62,35.62 -198.65,96.61 -70.01,60.99 -149.73,163.62 -193.83,293.31 -42.96,126.22 -52.19,278 -42.62,356.18 -76.47,37.39 -151.1,77.97 -223.72,121.51 9.66,-17.67 19.69,-36.8 29.87,-57.38 37.86,-76.65 77.68,-173.23 95.2,-248.71 17.51,-75.48 12.68,-129.8 10.28,-156.98 -2.43,-27.17 -2.43,-27.17 -36.24,0.59 -33.82,27.78 -101.4,83.34 -158.16,156.39 -56.78,73.05 -102.65,163.61 -126.64,255.42 -17.71,67.76 -23.46,136.14 -19.68,185.57 -60.11,43.11 -118.53,88.39 -175.18,135.74 7.42,-17.71 14.52,-36.9 21.42,-58.07 24.75,-76.1 46.46,-177.51 73.64,-288.61 27.18,-111.1 59.78,-231.86 74.26,-329.68 14.49,-97.83 10.85,-172.69 5.43,-210.11 -5.43,-37.47 -12.69,-37.47 -67.63,-9.07 -54.94,28.36 -157.56,85.14 -260.81,199.86 -103.25,114.71 -207.12,287.39 -239.09,435.33 -32.01,147.94 7.82,271.1 56.35,352.89 35.82,60.36 76.37,98.18 114.36,112.91 -27.44,28.06 -54.32,56.71 -80.64,85.86 -29.97,-24.29 -86.13,-49.66 -161.02,-66.02 -97.52,-21.33 -226.73,-27.34 -375.26,-0.16 -148.53,27.14 -316.38,87.54 -435.3,161.8 -118.96,74.27 -189.02,162.4 -219.18,210.11 -30.2,47.68 -20.57,54.94 36.81,71.24 57.33,16.3 162.42,41.67 265.67,43.47 103.24,1.81 204.65,-19.91 348.35,-77.87 135.75,-54.78 309.25,-141.86 419.39,-200.58 -55.2,69.27 -107.38,141.1 -156.35,215.16 -42.38,0.07 -106.23,1.65 -182.1,19.23 -83.34,19.32 -181.13,57.96 -255.99,108.08 -74.89,50.11 -126.84,111.69 -154.61,151.55 -27.76,39.82 -31.38,57.96 -13.24,67.03 18.11,9.04 57.94,9.04 119.55,-3.65 61.58,-12.68 144.88,-38.01 236.23,-86.19 50.05,-26.41 102.53,-59.7 149.12,-92 -64.17,112.15 -121.25,228.83 -170.71,349.5 -22.71,-15.41 -59.08,-29.05 -120.4,-33.56 -90.6,-6.63 -235.48,6.64 -377.37,82.71 -141.89,76.08 -280.76,214.95 -362.25,342.35 -81.52,127.39 -105.68,243.33 -117.74,304.31 -12.09,61 -12.09,67.01 40.45,46.51 52.52,-20.55 157.6,-67.67 291.05,-154.58 133.41,-86.95 295.22,-213.76 405.73,-301.89 93.64,-74.76 150.43,-121.68 189,-150.89 -43.77,123.61 -79.65,250.99 -107.02,381.47 -40.75,7.2 -89.35,20.47 -130.72,35.19 -67.56,24.03 -115.86,51.82 -155.1,101.94 -39.27,50.11 -69.43,122.53 -89.35,185.96 -19.94,63.38 -29.6,117.7 -33.81,150.33 -4.24,32.59 -3.06,43.44 -0.03,51.29 3.02,7.86 7.85,12.69 47.12,5.46 39.24,-7.26 112.88,-26.58 191.67,-92.64 41.54,-34.83 84.49,-82.64 122.38,-130.52 -10.49,101.71 -15.84,204.92 -15.84,309.42 0.13,117.96 7.12,234.32 20.54,348.7 -5.43,-8.38 -11.08,-16.79 -16.93,-25.23 -46.95,-67.76 -107.35,-135.39 -158.06,-174.03 -50.7,-38.64 -91.77,-48.3 -112.28,-53.14 -20.54,-4.83 -20.54,-4.83 -21.75,11.48 -1.22,16.3 -3.62,48.93 16.92,111.09 20.51,62.21 63.98,153.95 133.71,226.11 59.28,61.35 137.52,108.51 194.53,133.87 32.24,163.29 77.78,321.74 135.42,474.32 -67.59,-61.75 -171.5,-153.5 -266.86,-223.88 -101.44,-74.86 -193.19,-125.6 -260.19,-150.97 -67.03,-25.33 -109.33,-25.33 -130.46,-25.33 -21.12,0 -21.12,0 -14.49,38.02 6.64,38.05 19.95,114.15 36.25,182.37 16.3,68.22 35.62,128.62 96.61,198.64 60.99,70.03 163.61,149.75 293.31,193.85 126.22,42.94 278,52.18 356.17,42.62 37.4,76.46 77.98,151.09 121.52,223.71 -17.67,-9.66 -36.8,-19.68 -57.38,-29.87 -76.66,-37.86 -173.23,-77.68 -248.71,-95.19 -75.48,-17.52 -129.8,-12.69 -156.98,-10.29 -27.17,2.43 -27.17,2.43 0.6,36.25 27.76,33.81 83.33,101.4 156.38,158.15 73.05,56.78 163.61,102.66 255.42,126.65 67.76,17.7 136.14,23.46 185.56,19.68 43.11,60.1 88.4,118.53 135.75,175.18 -17.71,-7.43 -36.9,-14.53 -58.06,-21.43 -76.11,-24.74 -177.52,-46.46 -288.62,-73.64zm1680.68 679.81c-68.12,42.66 -114.59,98.82 -116.92,138.78 -234.59,-95.92 -453.57,-222.17 -652.02,-373.89 91.94,13.18 241.01,30.6 379.77,32.3 146.72,1.81 281.95,-13.9 391.24,-65.22 109.29,-51.33 192.59,-138.25 234.26,-181.72 41.66,-43.48 41.66,-43.48 24.15,-51.96 -11.55,-5.58 -30.71,-14.82 -77.76,-24.45 -56.32,-8.29 -112.63,-16.58 -190.35,-20.94 -77.71,-4.35 -176.83,-4.77 -275.94,-5.18 -44.14,2.6 -87.29,7 -127.35,13.74 -161.22,27.17 -272.32,92.4 -348.49,144.23 -49.19,33.45 -83.83,61.35 -104.82,83.1 -18.63,-15.52 -37.06,-31.29 -55.27,-47.29 36.47,-27.53 78.08,-73.91 105.15,-131.94 34.54,-74.06 45.38,-167.03 37.53,-243.72 -7.86,-76.66 -34.41,-137.06 -64.6,-161.21 -30.21,-24.15 -64.02,-12.06 -82.71,19.91 -18.73,32 -22.35,83.96 -28.37,160.03 -6.04,76.08 -14.52,176.29 -29.01,242.11 -3.97,18.05 -8.38,33.49 -12.68,46.87 -20.44,-19.26 -40.61,-38.81 -60.46,-58.66 -74.96,-74.96 -145.77,-154.08 -212.05,-236.99 54.38,-20.21 118.19,-80.11 178.33,-159.37 64.61,-85.14 125,-192.6 152.18,-322.42 27.14,-129.81 21.13,-281.98 -12.09,-408.17 -33.23,-126.18 -93.59,-226.4 -123.79,-276.52 -30.2,-50.11 -30.2,-50.11 -71.24,-6.64 -41.08,43.48 -123.2,130.4 -174.52,237.26 -51.33,106.89 -71.84,233.67 -84.59,385.42 -9.98,118.49 -15.15,252.17 -7.49,354.83 -134.69,-201.4 -244.41,-420.91 -324.75,-654.13 71.63,-25.56 185.92,-83.36 273.66,-167.58 91.87,-88.2 154.67,-205.31 184.27,-307.38 3.37,-11.61 6.31,-23.04 8.85,-34.27 3.88,-43.41 7.77,-86.81 6.66,-132.72 -1.11,-45.91 -7.23,-94.33 -13.34,-142.74 -11.07,-41.31 -23.76,-72.07 -31.15,-89.94 -10.28,-24.75 -10.28,-24.75 -40.48,-16.89 -30.2,7.85 -90.57,23.52 -150.93,84.51 -60.4,60.99 -120.79,167.22 -171.5,298.83 -47.15,122.43 -85.99,266.76 -113.53,356.79 -69.66,-246.18 -107.02,-505.91 -107.32,-774.27 0,-220.89 25.13,-435.9 72.72,-642.32 -0.6,7.76 -1.05,15.6 -1.35,23.52 -3.62,97.83 18.1,205.28 57.97,315.8 39.86,110.47 97.79,224 132.23,275 8.9,13.21 16.23,22.18 22.41,28l30.55 0c1.48,-1.84 2.93,-3.88 4.41,-6.02 12.06,-17.51 25.34,-41 42.26,-87.8 16.89,-46.79 37.4,-116.81 54.91,-215.24 17.51,-98.41 32,-225.22 23.56,-343.55 -8.45,-118.33 -39.86,-228.22 -89.97,-308.26 -42.65,-68.12 -98.81,-114.59 -138.77,-116.92 95.92,-234.59 222.17,-453.57 373.89,-652.01 -13.18,91.94 -30.6,241 -32.31,379.76 -1.34,108.83 6.96,211.34 32.28,301.63 10.98,29.87 21.97,59.74 31.49,82.27 9.51,22.53 17.57,37.72 38.89,62.77 21.33,25.05 55.92,59.96 74.32,77.96 18.4,18.01 20.6,19.11 42.65,-21.13 22.05,-40.24 63.94,-121.82 88.95,-194.01 25,-72.19 33.11,-134.99 41.23,-197.79 -2.53,-46.24 -7.03,-91.54 -14.07,-133.45 -27.18,-161.21 -92.41,-272.31 -144.23,-348.49 -33.45,-49.19 -61.35,-83.82 -83.1,-104.82 15.51,-18.63 31.28,-37.06 47.28,-55.27 27.54,36.47 73.91,78.08 131.94,105.15 74.06,34.54 167.03,45.38 243.72,37.53 76.67,-7.85 137.07,-34.41 161.22,-64.6 24.15,-30.2 12.06,-64.01 -19.91,-82.71 -32.01,-18.73 -83.96,-22.35 -160.04,-28.36 -76.07,-6.05 -176.29,-14.53 -242.11,-29.02 -18.04,-3.97 -33.49,-8.38 -46.86,-12.68 19.25,-20.44 38.8,-40.62 58.66,-60.47 74.95,-74.95 154.08,-145.76 236.98,-212.04 20.21,54.38 80.12,118.2 159.38,178.33 85.13,64.6 192.59,125 322.42,152.18 129.8,27.14 281.98,21.12 408.16,-12.1 126.18,-33.22 226.41,-93.58 276.52,-123.78 50.11,-30.2 50.11,-30.2 6.63,-71.24 -43.47,-41.07 -130.38,-123.19 -237.24,-174.53 -106.9,-51.32 -233.67,-71.83 -385.42,-84.57 -118.5,-10 -252.17,-15.15 -354.83,-7.5 201.4,-134.69 420.91,-244.41 654.12,-324.75 25.56,71.63 83.36,185.92 167.59,273.65 88.19,91.89 205.31,154.68 307.37,184.29 102.03,29.57 188.95,25.92 257.2,13.86 68.22,-12.09 117.71,-32.6 142.48,-42.85 24.74,-10.28 24.74,-10.28 16.89,-40.48 -7.86,-30.2 -23.53,-90.56 -84.52,-150.93 -60.98,-60.39 -167.22,-120.79 -298.83,-171.49 -122.43,-47.16 -266.75,-86 -356.79,-113.54 246.19,-69.66 505.92,-107.02 774.28,-107.32 220.88,0 435.89,25.14 642.32,72.72 -7.76,-0.59 -15.61,-1.05 -23.54,-1.35 -97.81,-3.62 -205.27,18.11 -315.78,57.97 -110.48,39.85 -224,97.79 -275,132.23 -13.22,8.9 -22.18,16.23 -28,22.4l0 30.57c1.84,1.48 3.87,2.93 6.01,4.4 17.52,12.06 41.01,25.34 87.81,42.26 46.79,16.89 116.81,37.39 215.23,54.91 98.41,17.52 225.22,32.01 343.55,23.56 118.33,-8.45 228.22,-39.86 308.26,-89.97 68.13,-42.65 114.59,-98.82 116.92,-138.77 234.59,95.92 453.58,222.17 652.02,373.89 -91.94,-13.19 -241,-30.6 -379.77,-32.31 -146.72,-1.8 -281.95,13.9 -391.24,65.23 -109.29,51.33 -192.59,138.24 -234.26,181.71 -41.66,43.48 -41.66,43.48 -24.15,51.96 17.52,8.44 52.51,25.33 175.67,39.23 123.19,13.91 334.52,24.75 495.73,-2.4 161.22,-27.17 272.32,-92.39 348.49,-144.21 49.19,-33.46 83.82,-61.35 104.82,-83.11 18.63,15.51 37.07,31.28 55.28,47.28 -36.48,27.55 -78.09,73.91 -105.16,131.94 -34.54,74.07 -45.38,167.03 -37.52,243.73 7.85,76.66 34.39,137.05 64.59,161.21 30.21,24.15 64.02,12.06 82.71,-19.92 18.73,-32 22.35,-83.96 28.36,-160.02 6.05,-76.07 14.53,-176.3 29.02,-242.12 3.97,-18.04 8.37,-33.48 12.68,-46.86 20.44,19.26 40.62,38.81 60.47,58.65 74.95,74.96 145.76,154.09 212.05,236.99 -54.39,20.21 -118.2,80.12 -178.34,159.37 -64.6,85.15 -125,192.6 -152.17,322.43 -27.15,129.8 -21.14,281.98 12.08,408.16 14.2,53.93 33.36,103.08 52.98,145.64 33.98,49.24 67.96,98.49 87.71,125.32 19.74,26.83 25.26,31.24 40.36,20.33 15.1,-10.91 39.78,-37.14 64.47,-63.37 40.63,-46.73 89.35,-109.82 124.03,-182.01 51.33,-106.9 71.84,-233.67 84.59,-385.42 9.98,-118.49 15.15,-252.17 7.49,-354.82 134.69,201.39 244.41,420.9 324.76,654.11 -71.64,25.57 -185.92,83.37 -273.66,167.59 -91.88,88.19 -154.68,205.31 -184.29,307.37 -8.47,29.28 -14.22,57.32 -17.84,84.03 -1.05,39.21 -2.1,78.42 -3.15,117.64 1.58,19.68 4.07,38.21 7.13,55.53 12.09,68.22 32.59,117.71 42.85,142.49 10.28,24.74 10.28,24.74 40.49,16.88 30.19,-7.85 90.56,-23.52 150.92,-84.51 60.4,-60.99 120.79,-167.23 171.5,-298.83 47.15,-122.44 86,-266.77 113.53,-356.8 69.67,246.19 107.02,505.91 107.32,774.29 0,220.88 -25.13,435.88 -72.72,642.31 0.6,-7.75 1.05,-15.61 1.35,-23.53 3.62,-97.82 -18.1,-205.28 -57.97,-315.78 -39.85,-110.49 -97.79,-224.01 -132.22,-275.01 -8.91,-13.21 -16.24,-22.18 -22.42,-27.99l-30.56 0c-1.47,1.84 -2.92,3.87 -4.4,6 -12.06,17.52 -25.34,41.01 -42.26,87.81 -16.89,46.79 -37.4,116.82 -54.91,215.23 -17.51,98.42 -32,225.22 -23.56,343.55 8.45,118.34 39.86,228.22 89.97,308.27 42.65,68.12 98.81,114.58 138.77,116.91 -95.92,234.59 -222.17,453.57 -373.88,652.02 13.17,-91.95 30.59,-241 32.3,-379.77 1.8,-146.72 -13.9,-281.94 -65.23,-391.23 -51.32,-109.3 -138.24,-192.6 -181.71,-234.26 -43.48,-41.67 -43.48,-41.67 -51.95,-24.16 -8.45,17.52 -25.34,52.51 -39.24,175.67 -13.9,123.2 -24.74,334.52 2.4,495.73 3.85,22.9 8.47,44.8 13.73,65.74 19.44,53.31 38.9,106.62 58.34,159.94 23.7,48.63 49.24,89.13 72.15,122.81 33.45,49.19 61.35,83.83 83.1,104.82 -15.51,18.64 -31.28,37.07 -47.28,55.28 -27.54,-36.48 -73.91,-78.08 -131.94,-105.16 -30.79,-14.36 -64.76,-24.61 -99.57,-31.15 0,0 0,0 -27.62,0.08 -27.62,0.08 -82.88,0.24 -122.3,2.64 -39.44,2.42 -63.04,7.08 -83.44,20.3 -20.4,13.23 -37.57,35.04 -42.31,56.13 -4.73,21.1 2.99,41.49 15.38,55.03 12.38,13.53 29.44,20.2 46.51,26.87 24.81,3.32 54.15,5.55 88.36,8.25 76.07,6.04 176.29,14.52 242.12,29.01 18.03,3.98 33.48,8.38 46.85,12.69 -19.25,20.43 -38.8,40.61 -58.65,60.46 -74.96,74.95 -154.09,145.77 -236.99,212.05 -20.21,-54.39 -80.12,-118.2 -159.38,-178.33 -85.13,-64.61 -192.59,-125.01 -322.42,-152.18 -129.8,-27.14 -281.98,-21.13 -408.16,12.09 -126.18,33.22 -226.41,93.58 -276.52,123.78 -50.11,30.21 -50.11,30.21 -6.63,71.24 43.47,41.08 130.38,123.2 237.24,174.53 106.9,51.32 233.68,71.83 385.42,84.58 118.5,9.99 252.17,15.15 354.83,7.49 -201.4,134.7 -420.91,244.41 -654.12,324.76 -25.56,-71.64 -83.36,-185.92 -167.59,-273.66 -88.19,-91.87 -205.31,-154.67 -307.37,-184.28 -102.03,-29.58 -188.95,-25.92 -257.2,-13.87 -68.21,12.1 -117.7,32.6 -142.48,42.85 -24.74,10.29 -24.74,10.29 -16.89,40.48 7.86,30.21 23.53,90.57 84.52,150.93 60.99,60.4 167.22,120.8 298.83,171.5 122.43,47.16 266.76,85.99 356.8,113.53 -246.2,69.67 -505.92,107.03 -774.28,107.33 -220.89,0 -435.9,-25.14 -642.33,-72.72 7.76,0.59 15.61,1.05 23.53,1.35 97.82,3.61 205.28,-18.11 315.79,-57.97 110.48,-39.86 224.01,-97.79 275.01,-132.23 13.21,-8.91 22.18,-16.24 28,-22.41l0 -30.56c-1.84,-1.48 -3.88,-2.92 -6.02,-4.41 -17.52,-12.06 -41.01,-25.33 -87.8,-42.25 -46.79,-16.9 -116.82,-37.4 -215.24,-54.91 -98.41,-17.52 -225.22,-32.01 -343.55,-23.56 -118.33,8.44 -228.22,39.85 -308.26,89.96z"/>
 </g>
</svg>
