<?xml version="1.0" encoding="UTF-8"?>
<!DOCTYPE svg PUBLIC "-//W3C//DTD SVG 1.1//EN" "http://www.w3.org/Graphics/SVG/1.1/DTD/svg11.dtd">
<!-- Creator: CorelDRAW 2020 (64-Bit) -->
<svg xmlns="http://www.w3.org/2000/svg" xml:space="preserve" width="210mm" height="297mm" version="1.1" shape-rendering="geometricPrecision" text-rendering="geometricPrecision" image-rendering="optimizeQuality" fill-rule="evenodd" clip-rule="evenodd"
viewBox="0 0 21000 29700"
 xmlns:xlink="http://www.w3.org/1999/xlink"
 xmlns:xodm="http://www.corel.com/coreldraw/odm/2003">
 <g id="Capa_x0020_1">
  <metadata id="CorelCorpID_0Corel-Layer"/>
  <path id="aro_x0020_2.svg" fill="#A2662E" d="M1251.76 -8403.28c311.1,891.25 908.35,1658.5 1657.56,2018.27l42.39 19.88 25.67 11.56c76.16,47.18 154.19,90.15 233.96,128.45l42.39 19.89c99.51,45.38 201.52,86.8 305.53,124.09 -263.89,-58.84 -520.03,-144.81 -761.05,-254.75l-40.15 -18.73c-713.78,-342.78 -1284.59,-1078.93 -1583.79,-1936.05 -289.39,-829.11 -323.72,-1769.53 13.17,-2575.07 -262.84,788.84 -210.55,1674.92 64.32,2462.46zm6551.63 -2348.1c-20.13,-53.12 -40.25,-106.23 -60.38,-159.34 -30.68,-75.38 -64.01,-149.63 -99.9,-222.63 -22.01,-49.93 -44.02,-99.87 -66.03,-149.81l-142.85 -231.53c52.3,66.14 101.99,134.01 149.02,203.47 25.25,39.3 50.51,78.62 75.76,117.92l0.16 -0.61c3.96,6.4 7.89,12.82 11.8,19.24 54.58,89.61 104.87,181.6 150.72,275.73 23.06,51 46.13,102 69.19,153l0.7 0.19c2.91,6.82 5.79,13.65 8.66,20.5 42.9,102.58 80.69,207.39 113.21,314.14 29.13,95.65 53.95,192.9 74.46,291.47 9.33,50.57 18.64,101.13 27.97,151.7 27.43,170.87 41.9,345.36 42.73,522.42 -0.69,45.44 -1.37,90.88 -2.05,136.33 -5.5,159.19 -21.98,320.21 -49.9,482.25 -12.6,63.13 -25.19,126.25 -37.79,189.38 -67.36,297.19 -173.52,596.86 -321.25,894.31 -425.49,856.67 -1087.49,1365.33 -1821.19,1598.78 -104.24,33.16 -209.96,60.75 -316.68,83.07 312.54,-117.1 610.23,-283.95 880.92,-505.9 430.32,-294.3 805.73,-712.2 1083.87,-1272.21 167.8,-337.83 283.79,-678.64 351.89,-1016.06 8.23,-44.93 16.46,-89.85 24.69,-134.78 26.48,-160.88 42.15,-320.79 47.37,-479.01 0.64,-36.6 1.29,-73.19 1.93,-109.78 0.46,-186.83 -13.61,-371.06 -41.52,-551.55 -4.96,-29.43 -9.93,-58.86 -14.89,-88.28 -24.19,-133.59 -56,-264.99 -95.19,-393.71 -14.19,-46.6 -29.34,-92.85 -45.43,-138.7zm-377.6 -230.45c-92.27,-186.38 -201.25,-364.61 -325.84,-532.87 -21.6,-28.3 -43.18,-56.6 -64.78,-84.89 -9.25,-11.74 -18.56,-23.41 -27.97,-35.05 -20.97,-25.19 -41.94,-50.39 -62.91,-75.59 -292.2,-341.74 -653.73,-634.76 -1074.12,-861.29 -45.36,-24.42 -93.13,-48.71 -143.23,-72.75 -95.78,-45.97 -192.84,-87.07 -290.9,-123.45 240.73,50.79 478.51,129.02 708.77,236.23 338.07,199.69 633.12,445.41 878.67,726.21 21.86,25.76 43.71,51.53 65.56,77.29 34.27,41.6 67.48,83.9 99.61,126.89 21.11,29.17 42.21,58.34 63.31,87.51 119.51,170.85 222.56,351.7 308.02,540.63 5.62,12.4 11.15,24.85 16.62,37.33l-1.64 -0.25c12.36,30.53 27.67,68.53 45.51,115.12 54.6,142.47 103.76,276.92 139.24,425.59 16.44,67 30.87,134.64 43.19,202.94 4.78,28.61 9.57,57.24 14.36,85.85 41.71,271.19 50.82,551.34 24.75,836.19 -0.75,8.19 -1.52,16.37 -2.33,24.56l-0.34 0.19c-3.24,30.05 -6.49,60.11 -9.74,90.17 -4.65,37.4 -9.87,74.87 -15.74,112.38 -3.57,21.51 -7.14,43.03 -10.72,64.53 -45.31,259.22 -119.9,521.1 -225.7,782.43 91.66,-267.65 152.32,-535.09 183.85,-799.27 2.4,-21.67 4.8,-43.36 7.2,-65.04 2.26,-22.26 4.31,-44.5 6.16,-66.73 2.29,-32.78 4.57,-65.57 6.86,-98.35 16.61,-295.27 -3.14,-585.2 -56.51,-865.22 -5.68,-27.9 -11.37,-55.8 -17.04,-83.7 -6.21,-28.68 -12.74,-57.26 -19.64,-85.73 -23.03,-81.74 -46.07,-163.49 -69.1,-245.24 -17.52,-54.45 -36.37,-108.38 -56.52,-161.79 -45.64,-104.94 -91.27,-209.89 -136.91,-314.83zm-5792.13 -80.91c-9.11,18.97 -17.43,36.71 -25.01,53.35 -391.97,859.33 -365.65,1875.65 -54.86,2766.01 125.22,358.77 296.84,697.42 506.06,997.5 -285.93,-342.77 -516.19,-757.2 -672.39,-1204.69 -299.51,-858.09 -325.85,-1835.4 49.82,-2659.02 8.33,-18.29 16.34,-35.43 23.87,-51.12 20.4,-42.47 42.84,-86.39 67.14,-131.51 202.34,-375.5 473.02,-695.91 789.7,-954.28 272.47,-187.5 572.02,-333.19 886.8,-433.16 104.93,-33.33 211.61,-61.54 319.48,-84.6 -758.03,279.28 -1418.46,817.33 -1820.66,1563.78 -23.21,43.09 -46.56,89.02 -69.95,137.74zm4031.36 -1452.01c43.93,21.09 89.66,44.43 137,69.94 412.11,222.07 765.26,510.3 1048.84,846.69 22.36,27.35 44.73,54.71 67.09,82.06 261.62,330.49 458.21,704.1 580.29,1104.95 15.82,51.96 30.37,104.37 43.68,157.22 13.83,62.55 27.66,125.1 41.48,187.65 56.81,296.93 74.13,605.65 48.52,920.35 -0.39,4.88 -0.8,9.77 -1.22,14.66l-0.18 0.09c-2.55,26.74 -5.08,53.48 -7.62,80.21 -46.73,430.8 -173.91,871.62 -390.5,1307.68 -220.3,443.59 -504.06,793.84 -828.31,1060.92 -244.35,166.47 -507.06,291.23 -779.68,377.96 -847.95,269.8 -1792.52,173.67 -2580.6,-176.84 -606.24,-379.07 -1087.93,-1046.31 -1354.33,-1809.46 -299.51,-858.09 -325.85,-1835.4 49.81,-2659.03 8.34,-18.28 16.35,-35.43 23.88,-51.11 20.4,-42.48 42.83,-86.39 67.14,-131.53 410.65,-762.09 1102.74,-1297.37 1889.68,-1547.32 715.98,-227.42 1262.05,-163.02 1945.03,164.91zm275.12 -289.4c-824.53,-395.91 -1744.56,-432.98 -2565.52,-172.23 -414.69,131.72 -804.2,339.45 -1143.45,615.26 -424.81,293.46 -786.29,684.66 -1042.77,1160.64 -23.21,43.09 -46.55,89.02 -69.94,137.74 -9.12,18.97 -17.43,36.71 -25.02,53.35 -391.96,859.33 -365.63,1875.65 -54.86,2766.01 311.09,891.24 908.35,1658.49 1657.56,2018.26l42.39 19.89c457.94,208.87 1052.18,334.37 1649.28,366.02 0,0 355.31,7.63 355.31,7.63 440.1,-4.48 867.21,-61.7 1226.66,-176.07 768.88,-244.62 1462.1,-776.66 1906.77,-1671.96 194.92,-392.45 319.96,-788.89 381.18,-1179.35 4.03,-27.64 8.06,-55.27 12.09,-82.9 18.77,-140.11 29.31,-279.34 31.97,-417.23 0.2,-31.33 0.39,-62.66 0.59,-93.98 -0.78,-114.71 -7.03,-228.44 -18.65,-340.86 -12.56,-88.34 -25.13,-176.69 -37.68,-265.03 -24.2,-133.64 -56,-265.08 -95.22,-393.83 -36.42,-119.64 -79.21,-236.94 -128.12,-351.52 -23.14,-50.8 -46.29,-101.62 -69.44,-152.42 -71.25,-146.94 -152.86,-288.89 -244.28,-425 -27.97,-39.85 -55.94,-79.71 -83.91,-119.57 -114.75,-156.48 -242.98,-304.4 -383.8,-442.37 -60.84,-55.74 -121.68,-111.48 -182.51,-167.21 -203.05,-173.83 -428.23,-328.51 -673.4,-460.64 -45.34,-24.42 -93.12,-48.71 -143.22,-72.75l-26.93 -12.72c-43.3,-25.55 -87.23,-50.36 -131.87,-74.41 -45.34,-24.44 -93.11,-48.72 -143.21,-72.75z"/>
 </g>
</svg>
