<?xml version="1.0" encoding="UTF-8"?>
<!DOCTYPE svg PUBLIC "-//W3C//DTD SVG 1.1//EN" "http://www.w3.org/Graphics/SVG/1.1/DTD/svg11.dtd">
<!-- Creator: CorelDRAW 2020 (64-Bit) -->
<svg xmlns="http://www.w3.org/2000/svg" xml:space="preserve" width="210mm" height="297mm" version="1.1" shape-rendering="geometricPrecision" text-rendering="geometricPrecision" image-rendering="optimizeQuality" fill-rule="evenodd" clip-rule="evenodd"
viewBox="0 0 21000 29700"
 xmlns:xlink="http://www.w3.org/1999/xlink"
 xmlns:xodm="http://www.corel.com/coreldraw/odm/2003">
 <g id="Capa_x0020_1">
  <metadata id="CorelCorpID_0Corel-Layer"/>
  <path id="aro_x0020_22.svg" fill="#A2662E" d="M15289.52 68013.29c-6.4,-7.74 11.53,6.94 29.32,-96.74 14.39,-84.06 35.83,-208.5 68.98,-409.8 27.47,-166.48 55.82,-344.53 77.22,-494.21 22.02,-154.3 38.25,-288.86 42.34,-409.72 328.19,11.35 624.07,150.22 840.3,368.94 226.82,229.39 367.17,546.82 367.17,897.72 0,350.9 -140.35,668.32 -367.17,897.71 -225.78,228.38 -538.35,369.7 -883.91,369.7 -26.64,0 -52.63,-0.76 -77.94,-2.24 61.89,-57.92 113.59,-127.22 148.73,-208.24 36.7,-84.71 52.71,-178.35 50.44,-272.81 -2.36,-94.11 -22.56,-189.84 -58.17,-278.24 -65.55,-162.72 -179.21,-294.64 -236.08,-360.62l-1.23 -1.45zm-1331.33 -37.7c51.19,-94.4 193.23,-176.04 201.58,-240.93 10.2,-79.14 -134.48,-124.83 -336.11,-29.17 -13.01,-40.39 -28.52,-76.22 -45.44,-107.81l-0.33 0.18 -9.4 -16.96c107.67,-235.68 215.66,-468.4 326.5,-674.25 59.04,-109.69 118,-209.69 180.84,-295.4 58.35,-79.65 120.64,-147.65 190.56,-200.51 65.94,-49.85 140.85,-87.67 216.66,-112.65 78.45,-25.85 155.35,-37.6 222.05,-34.6 55.06,2.49 101.74,15.15 136.77,37.67 27.69,17.82 49.2,43.78 62.29,77.66 18.91,48.95 24.87,117.39 22.38,204.77 -2.89,100.47 -18.37,226.35 -39.59,375.16 -22.45,157.15 -49.92,329.97 -75.77,486.76 -20.11,121.98 -49.57,293.6 -68.98,406.76 -48.99,285.46 -49.02,285.53 60.05,412l8.96 10.44c44.98,52.39 122.23,145.41 161.39,242.66 19.2,47.69 30.12,97.72 31.27,145.19 1.02,41.58 -5.06,80.55 -19.05,112.87 -12.8,29.5 -34.85,57.45 -62.76,83.04l0.36 0.37c-34.93,31.92 -79.54,59.11 -128.13,81.02 -47.36,21.36 -96.24,36.55 -147.75,44.83 -53.33,8.53 -112.98,10.23 -180.62,4.48 -71.15,-6.08 -147.29,-20.03 -220.97,-39.3 -77.8,-20.35 -153.65,-46.6 -219.16,-75.78 -60.81,-27.08 -113.19,-57.52 -159.72,-90.42 -45.88,-32.42 -85.47,-67.1 -121.55,-103.18l-0.72 -0.72c-34.6,-34.6 -65.69,-70.14 -89.44,-107.08 -20.18,-31.38 -35.04,-63.38 -41.62,-95.92 -7.16,-35.25 -7.23,-75.52 -2.09,-116.3 6,-47.72 18.94,-94.22 36.01,-133.55 3.86,-8.97 45.08,-128.89 111.53,-251.33zm-682.14 -228.96c4.34,-4.34 7.2,-6.69 8.79,-7.56 3.47,-1.88 6.83,-3.11 9.98,-3.9l3.9 -0.91c3.51,0.29 7.09,-0.39 11.14,-1.05 10.44,-1.69 24.04,-3 33.22,-3.5 3.15,-0.15 5.78,-0.22 8.5,-0.58 8.24,0.58 16.48,1.23 24.69,2.17 9.51,1.05 17.93,2.31 23.9,3.87 3.14,0.79 6.51,2.02 9.98,3.9 1.59,0.87 4.44,3.22 8.78,7.56 8.17,8.17 16.23,18.47 22.99,31.13l0 0.76c8.24,15.36 16.05,34.99 22.71,59.68 16.45,60.92 25.95,145.19 34.27,233.15l-1.99 4.59c-30.73,70.87 -53.83,153.26 -64.35,236.73 -5.17,41.11 -7.45,83.01 -6.22,124.52 -5.1,26.68 -10.52,51.04 -17.5,63.3 -2.2,3.87 -5.93,8.28 -10.59,12.69 -5.31,5.02 -10.81,9.07 -15.76,11.64 -3.69,1.92 -10.09,3.83 -17.68,5.6l0 0.76c-3.65,0.87 -9.83,1.95 -17.32,3.11 -7.48,-1.16 -13.66,-2.24 -17.31,-3.11l0 -0.76c-7.6,-1.77 -14,-3.68 -17.69,-5.6 -4.95,-2.57 -10.44,-6.62 -15.76,-11.64 -4.66,-4.41 -8.39,-8.82 -10.59,-12.69 -6.98,-12.26 -12.4,-36.62 -17.5,-63.3 1.23,-41.51 -1.05,-83.41 -6.22,-124.52 -10.52,-83.47 -33.62,-165.86 -64.35,-236.73l-1.99 -4.59c8.32,-87.96 17.83,-172.23 34.28,-233.15 6.65,-24.69 14.46,-44.32 22.7,-59.68l0 -0.76c6.76,-12.66 14.82,-22.96 22.99,-31.13zm-1523.26 105.64c-19.42,-113.16 -48.88,-284.78 -68.98,-406.76 -25.85,-156.79 -53.33,-329.61 -75.78,-486.76 -21.22,-148.81 -36.69,-274.69 -39.59,-375.16 -2.49,-87.38 3.47,-155.82 22.38,-204.77 13.09,-33.88 34.6,-59.84 62.29,-77.66 35.03,-22.52 81.71,-35.18 136.77,-37.67 66.7,-3 143.6,8.75 222.05,34.6 75.81,24.98 150.72,62.8 216.66,112.65 69.93,52.86 132.22,120.86 190.57,200.51 62.83,85.71 121.8,185.71 180.84,295.4 110.84,205.85 218.83,438.57 326.49,674.25l-9.4 16.96 -0.32 -0.18c-16.92,31.59 -32.43,67.42 -45.45,107.81 -201.62,-95.66 -346.31,-49.97 -336.11,29.17 8.35,64.89 150.39,146.53 201.59,240.93 66.45,122.44 107.66,242.36 111.53,251.33 17.06,39.33 30.01,85.83 36.01,133.55 5.13,40.78 5.06,81.05 -2.1,116.3 -6.58,32.54 -21.44,64.54 -41.61,95.92 -23.75,36.94 -54.84,72.48 -89.45,107.08l-0.72 0.72c-36.08,36.08 -75.66,70.76 -121.54,103.18 -46.53,32.9 -98.92,63.34 -159.73,90.42 -65.5,29.18 -141.35,55.43 -219.16,75.78 -73.67,19.27 -149.81,33.22 -220.96,39.3 -67.64,5.75 -127.3,4.05 -180.62,-4.48 -51.52,-8.28 -100.4,-23.47 -147.76,-44.83 -48.59,-21.91 -93.2,-49.1 -128.13,-81.02l0.37 -0.37c-27.92,-25.59 -49.97,-53.54 -62.76,-83.04 -14,-32.32 -20.07,-71.29 -19.06,-112.87 1.16,-47.47 12.08,-97.5 31.27,-145.19 39.16,-97.25 116.42,-190.27 161.39,-242.66l8.97 -10.44c109.07,-126.47 109.04,-126.54 60.05,-412zm-260.27 2050.26c47.25,-171.65 117.75,-334.38 207.55,-484.48l40.57 -65.62c15.76,3.33 31.78,6.29 48.01,8.89 86.19,13.81 176.1,17.14 271.8,8.97 89.69,-7.63 188.1,-25.89 285.24,-51.3 98.27,-25.71 194.8,-59.18 278.96,-96.67 86.59,-38.58 159.87,-80.99 223.93,-126.28 64.35,-45.52 120.32,-94.47 171.66,-145.77l0.72 -0.73c32.03,-32.03 62.47,-65.29 90.38,-100.28l26.32 14.82c36.66,19.02 71.11,30.66 104.3,38.5l0.18 -0.72c33.15,7.88 55.97,11.28 78.45,14.53l0.44 -3.11c20.82,1.92 38.18,1.85 53.03,0.94l0.33 2.17c22.48,-3.25 45.3,-6.65 78.45,-14.53l0.18 0.72c33.19,-7.84 67.64,-19.48 104.3,-38.5l26.32 -14.82c27.91,34.99 58.35,68.25 90.38,100.28l0.73 0.73c51.34,51.3 107.3,100.25 171.65,145.77 64.07,45.29 137.35,87.7 223.93,126.28 84.17,37.49 180.7,70.96 278.96,96.67 97.14,25.41 195.55,43.67 285.25,51.3 95.69,8.17 185.61,4.84 271.79,-8.97 16.24,-2.6 32.25,-5.56 48.02,-8.89l40.56 65.62c89.8,150.1 160.3,312.83 207.55,484.48 45.59,165.48 69.99,341.79 69.99,525.74 0,539.15 -215.76,1026.92 -564.52,1379.63 -347.76,351.7 -828.81,569.3 -1360.44,569.3 -531.62,0 -1012.68,-217.6 -1360.43,-569.3 -348.77,-352.71 -564.53,-840.48 -564.53,-1379.63 0,-183.95 24.4,-360.26 69.99,-525.74zm-1512.38 -2033.05c0,-350.9 140.34,-668.33 367.17,-897.72 216.23,-218.72 512.1,-357.59 840.3,-368.94 4.08,120.86 20.32,255.42 42.33,409.72 21.4,149.68 49.75,327.73 77.23,494.21 33.15,201.3 54.59,325.74 68.97,409.8 17.79,103.68 35.73,89 29.32,96.74l-1.22 1.45c-56.87,65.98 -170.54,197.9 -236.08,360.62 -35.61,88.4 -55.82,184.13 -58.17,278.24 -2.28,94.46 13.74,188.1 50.43,272.81 35.14,81.02 86.84,150.32 148.73,208.24 -25.3,1.48 -51.3,2.24 -77.94,2.24 -345.55,0 -658.13,-141.32 -883.9,-369.7 -226.83,-229.39 -367.17,-546.81 -367.17,-897.71zm95.15 -1165.25c-295.19,298.52 -477.8,710.62 -477.8,1165.25 0,454.62 182.61,866.72 477.8,1165.24 294.25,297.61 699.71,482.39 1147.28,484.74 -38.25,91.36 -70.97,185.82 -97.72,282.93 -55.32,200.83 -84.96,410.88 -84.96,625.88 0,642.91 258.02,1225.33 675.15,1647.16 418.11,422.85 995.37,684.41 1632.45,684.41 637.09,0 1214.34,-261.56 1632.45,-684.41 417.13,-421.83 675.15,-1004.25 675.15,-1647.16 0,-215 -29.64,-425.05 -84.95,-625.88 -26.76,-97.11 -59.47,-191.57 -97.73,-282.93 447.58,-2.35 853.03,-187.13 1147.28,-484.74 295.19,-298.52 477.8,-710.62 477.8,-1165.24 0,-454.63 -182.61,-866.73 -477.8,-1165.25 -296.13,-299.53 -704.91,-484.81 -1155.92,-484.81l0 32.39 -3.94 -10.52c-43.7,-112.94 -116.66,-200.29 -211.74,-261.46 -92.08,-59.22 -203.33,-91.9 -326.57,-97.46 -113.16,-5.14 -237.31,12.72 -358.06,52.53 -113.34,37.38 -226.32,94.64 -327.22,170.93 -101.44,76.68 -188.76,171.18 -268.29,279.75 -75.16,102.53 -142.84,216.88 -209.25,340.23 -102.35,190.17 -204.59,407.88 -306.76,630.69l-33.81 -4.81c-19.95,-2.24 -39.76,-3.43 -59.43,-4.62l-0.07 1.23 -10.89 0.28 -11.35 0.58 -0.11 -2.09c-19.66,1.19 -39.48,2.38 -59.43,4.62l-33.8 4.81c-102.17,-222.81 -204.41,-440.52 -306.76,-630.69 -66.42,-123.35 -134.09,-237.7 -209.26,-340.23 -79.53,-108.57 -166.84,-203.07 -268.28,-279.75 -100.91,-76.29 -213.89,-133.55 -327.22,-170.93 -120.76,-39.81 -244.91,-57.67 -358.06,-52.53 -123.25,5.56 -234.49,38.24 -326.57,97.46 -95.08,61.17 -168.04,148.52 -211.75,261.46l-3.94 10.52 0 -32.39c-451.01,0 -859.79,185.28 -1155.92,484.81z"/>
 </g>
</svg>
