<?xml version="1.0" encoding="UTF-8"?>
<!DOCTYPE svg PUBLIC "-//W3C//DTD SVG 1.1//EN" "http://www.w3.org/Graphics/SVG/1.1/DTD/svg11.dtd">
<!-- Creator: CorelDRAW 2020 (64-Bit) -->
<svg xmlns="http://www.w3.org/2000/svg" xml:space="preserve" width="210mm" height="297mm" version="1.1" shape-rendering="geometricPrecision" text-rendering="geometricPrecision" image-rendering="optimizeQuality" fill-rule="evenodd" clip-rule="evenodd"
viewBox="0 0 21000 29700"
 xmlns:xlink="http://www.w3.org/1999/xlink"
 xmlns:xodm="http://www.corel.com/coreldraw/odm/2003">
 <g id="Capa_x0020_1">
  <metadata id="CorelCorpID_0Corel-Layer"/>
  <path id="aro_x0020_23.svg" fill="#A2662E" d="M26833.82 69663.41c49.45,-0.69 100.96,0.75 156.43,6.51 56.11,5.83 116.04,16.34 178.28,32.7 55.58,14.6 113.84,34.4 173.92,60.35 65.96,28.49 131.81,63.49 193.22,105.87 55.18,38.12 107.48,82.04 154.03,132.35 50.39,54.46 95.75,118.36 133.96,190.75 36.61,69.38 65.9,145.49 85.87,227.41 21.72,89.05 32.81,185.29 29.16,282.88 -3.25,86.47 -18.47,174.53 -48.7,260.08 -31.54,89.32 -79.25,175.59 -136.85,252.54 -59.92,80.07 -130.12,150.01 -203.69,202.94 -70.09,50.45 -145.45,86.07 -223.39,111.81 -82.28,27.17 -165.42,43.17 -247.72,53.7 -170.95,21.91 -351.79,21.91 -532.56,21.91l-3221.96 0 -1241.99 0c-224.68,0 -410.14,0 -577.18,-12.04 -80.54,-5.81 -158.02,-14.4 -232.46,-31.8 -70.78,-16.57 -139.79,-41.32 -207.6,-79.78 -70.87,-40.21 -142.55,-95.87 -208.43,-160.81 -65.83,-64.88 -125.21,-138.52 -171.61,-214.72 -43.47,-71.35 -75.6,-145.7 -98.06,-221.11 -24.67,-82.7 -37.63,-165.8 -41.18,-246.99 -3.35,-76.45 1.62,-151.38 18.56,-224.18 16.38,-70.35 44.33,-139.13 87.31,-205.82 44.16,-68.57 103.67,-135.56 170.13,-195.8 72.83,-66.01 153.84,-124.08 232.61,-167.84 75.1,-41.7 148.27,-70.3 220.42,-92.23 72.03,-21.92 151.28,-39.04 230.53,-56.11l156 -34.36 -38.68 -141.04c-16.88,-92.09 -33.78,-184.22 -42.28,-274.95 -8.31,-88.49 -9.38,-180.58 3.97,-279.67 13.91,-103.27 43.84,-215.41 90.3,-327.21 43.02,-103.39 99.35,-204.94 169.23,-296.98 73.94,-97.4 164.48,-186.39 267.48,-262.31 100.47,-74.05 211.99,-134.89 330.61,-178.15 114.79,-41.86 237.41,-67.9 358.69,-80.99 136.48,-14.75 271.05,-13.05 391.11,0.8 112.1,12.92 210.31,36.31 298.05,66.95 88.52,30.94 167.51,69.36 240.01,112 69.42,40.85 133.43,85.86 190.21,131.88 61.69,49.99 113.95,100.32 154.82,147.01 36.69,41.93 65.02,82.57 89.1,122.47 27.63,45.79 47.13,84.75 66.57,123.65l92.45 157.62 130.35 -101.91c48.23,-34.21 96.52,-68.51 145.38,-100.15 48.08,-31.16 99.89,-61.94 158.98,-91.83 62.43,-31.6 132.95,-62.05 209.63,-86.99 64.5,-20.98 133.28,-37.99 204.98,-48.33 77.53,-11.16 159.14,-14.65 244.91,-8.69 86.3,5.98 177.16,21.67 272.77,48.78 102.49,29.05 209.2,70.74 308.29,124.66 86.15,46.9 166.84,103.12 233.92,168.29 65.54,63.64 118.92,136.67 161.1,212.33 49.24,88.33 83.36,179.96 103.98,264.67 19.31,79.31 26.92,152.99 28.64,223.77 1.74,71.92 -2.88,147.6 -7.51,223.22l-23.11 176 183.1 -16.02c54.82,-3.2 109.69,-6.47 155.9,-7.09zm873.68 -43.46c-80.89,-55.83 -164.14,-100.42 -245.34,-135.49 -72.26,-31.22 -145.06,-55.75 -216.62,-74.54 -77.63,-20.41 -153.12,-33.61 -224.46,-41 -66.2,-6.86 -129.32,-8.6 -190.83,-7.72l-2.39 0.04c0.47,-26.23 0.47,-53.12 -0.21,-81.03 -2.22,-90.75 -12.02,-185.47 -36.94,-287.81 -26.62,-109.32 -70.46,-227.25 -133.61,-340.52 -55.87,-100.2 -126.87,-197.24 -214.42,-282.25 -87.48,-84.99 -190.9,-157.34 -300.31,-216.87 -121.07,-65.9 -249.32,-116.21 -371.08,-150.72 -116.07,-32.93 -227.51,-52.03 -334.38,-59.45 -107.34,-7.46 -209.91,-3.05 -307.74,11.05 -90.11,12.99 -175.91,34.17 -255.93,60.21 -92.07,29.94 -176.93,66.6 -252.29,104.74 -68.84,34.83 -130.12,71.28 -187.44,108.43l-15.33 10c-30.27,-49.3 -67.12,-101.01 -116.23,-157.15 -51.81,-59.21 -116.61,-121.81 -191.58,-182.58 -67.45,-54.63 -144.14,-108.51 -228.14,-157.94 -88.65,-52.13 -185.16,-99.09 -293.33,-136.89 -108.94,-38.05 -228.91,-66.86 -363.24,-82.34 -140.05,-16.15 -297.4,-18.11 -457.46,-0.8 -144.12,15.57 -290.9,46.89 -429.82,97.54 -146.8,53.56 -283.86,128.15 -406.45,218.49 -125.39,92.41 -236.79,202.3 -329.11,323.92 -87.46,115.2 -156.67,239.19 -208.31,363.33 -56.48,135.89 -93.1,274.13 -110.47,403.07 -16.69,123.67 -15.4,237.85 -5.14,347.23 5.16,55.15 12.41,107.71 20.66,159.06 -36.38,9 -73.77,19.04 -112.89,30.96 -91.38,27.77 -184.17,64.04 -279.72,117.13 -97.44,54.11 -197.83,126.12 -288.3,208.12 -86.41,78.34 -164.11,165.96 -222.29,256.26 -62.89,97.55 -103.71,197.95 -127.6,300.59 -23.33,100.21 -30.19,202.34 -25.65,305.97 4.64,106.3 21.35,214.21 53.04,320.48 29.41,98.73 72,196.93 130.05,292.23 59.12,97.1 134.49,190.62 217.84,272.77 84.11,82.91 177.32,154.93 271.21,208.19 96.47,54.72 191.91,89.29 288.18,111.82 92.65,21.67 185.1,32.09 279.89,38.9 183.74,13.24 371.29,13.24 598.51,13.24l4463.95 0c185.8,0 371.69,-0.02 570.48,-25.47 102.56,-13.14 205.18,-32.75 304.61,-65.58 103.75,-34.28 206.24,-83.25 305.18,-154.46 98.08,-70.56 190.73,-162.56 268.84,-266.93 76.2,-101.82 139.19,-215.62 180.71,-333.12 40.48,-114.57 60.91,-233.17 65.29,-350.17 4.73,-126.14 -9.52,-250.16 -37.45,-364.66 -26.32,-107.91 -64.48,-207.4 -111.93,-297.33 -49.86,-94.49 -110.94,-179.87 -180.19,-254.73 -63.51,-68.65 -132.53,-126.98 -203.82,-176.22z"/>
 </g>
</svg>
