<?xml version="1.0" encoding="UTF-8"?>
<!DOCTYPE svg PUBLIC "-//W3C//DTD SVG 1.1//EN" "http://www.w3.org/Graphics/SVG/1.1/DTD/svg11.dtd">
<!-- Creator: CorelDRAW 2020 (64-Bit) -->
<svg xmlns="http://www.w3.org/2000/svg" xml:space="preserve" width="210mm" height="297mm" version="1.1" shape-rendering="geometricPrecision" text-rendering="geometricPrecision" image-rendering="optimizeQuality" fill-rule="evenodd" clip-rule="evenodd"
viewBox="0 0 21000 29700"
 xmlns:xlink="http://www.w3.org/1999/xlink"
 xmlns:xodm="http://www.corel.com/coreldraw/odm/2003">
 <g id="Capa_x0020_1">
  <metadata id="CorelCorpID_0Corel-Layer"/>
  <path id="aro_x0020_24.svg" fill="#A2662E" d="M37384.81 69866.48l1.7 0.17c-3.67,8.35 -7.48,16.57 -11.41,24.65 -7.71,15.87 -15.98,31.36 -24.7,46.57l-0.78 -0.67c12.75,-23.1 24.52,-46.72 35.19,-70.72zm-5284.64 -2966.89c-28.23,-2.72 -48.36,-15.45 -46.47,-27.24 1.89,-11.79 25.78,-22.65 38.81,-43.29 13.03,-20.64 15.21,-51.04 9.23,-76.57 -5.97,-25.52 -20.09,-46.15 -12.48,-42.89 7.59,3.26 36.92,30.41 68.96,49.95 26.64,16.26 55.16,27.26 83.38,33.32 -12.52,8.79 -24.67,17.5 -36.42,26.11 -37.65,27.59 -71.25,54.21 -102,80.87l-3.01 -0.26zm-270.38 623.27c24.95,-41.76 48.88,-81.3 71.19,-117.77 69.16,-112.99 123.13,-196.76 182.32,-268.44 57.81,-70 121.57,-129.38 211.56,-195.33 95.6,-70.07 220.28,-147.44 357.4,-221.25 91.12,-49.03 187.5,-96.36 284.28,-138.81 -4.98,14.81 -11.68,32.15 -20.52,52.71 -16.88,39.23 -41.53,90.17 -67.32,143.5 -82.42,43.64 -162.04,90.35 -242.37,140.33 -119.66,74.43 -241.3,156.35 -362.13,247.4 -120.77,90.99 -241.03,191.38 -358.13,302.93 -18.86,17.96 -37.64,36.22 -56.28,54.73zm1568.18 -969.59c-117.71,35.1 -224.1,73.83 -323.81,116.38 5.32,-43.96 9.59,-85.44 12.31,-118.4 0.98,-11.83 1.75,-22.55 2.32,-32.42 129.47,-49.22 256.41,-87.39 380.7,-116.98 134.2,-31.95 264.49,-53.75 391.01,-68.57 127.62,-14.95 250.81,-22.96 371.93,-21.01 120.3,1.94 240.88,13.8 364.81,38.59 24.29,4.85 48.66,10.2 73.06,16 -64.38,0.12 -130.02,1.88 -196.73,5.33 -180.22,9.31 -368.42,30.77 -550.42,61.41 -186.21,31.35 -366.3,72.29 -525.18,119.67zm3462.77 1214.85c-95.19,-143.93 -191.68,-283.63 -278.27,-403.57 21.71,14.24 42.94,28.33 63.61,42.28 88.77,59.9 164.59,115.13 229.59,166.53 65.44,51.75 122.54,101.53 173,149.87 49.03,46.96 91.05,92.06 127.43,137.83 35.91,45.19 66.08,90.56 91.81,138.56 26,48.51 48.39,101.34 68.42,157.94 20.76,58.67 38.31,119.01 54.28,181.35 16.1,62.88 31,128.78 44.38,195.4 13.26,65.93 25.5,136.15 36.37,207.69 8.39,55.18 15.49,108.8 20.94,170.02 -5.45,-13.5 -11.06,-27.14 -16.83,-40.96 -40.68,-97.44 -89.04,-202.77 -147.29,-317.2 -57.61,-113.19 -126.31,-237.8 -208.63,-375.73 -78.56,-131.66 -168.12,-272.9 -258.81,-410.01zm511.88 2408.93c39.2,-54.58 77.38,-107.73 110.9,-166.5 -3.72,59.81 -7.97,118.12 -12.74,173.52 -12.19,141.56 -27.7,258.47 -52.38,363.56 -24.3,103.49 -57.63,196.4 -105.76,291.62 -49.09,97.14 -113.91,197.49 -193.91,299.44 -79.47,101.27 -173.4,203.48 -281.22,305.02 -9.1,8.57 -18.3,17.13 -27.58,25.69 35.88,-63.03 68.44,-129.01 98.43,-196.97 44.35,-100.45 83.7,-206.31 120.29,-313.87 16.82,-49.46 33.06,-99.26 49.15,-148.64 51.56,-158.26 101.7,-312.13 164.39,-431.16 39.79,-75.56 85.84,-139.64 130.43,-201.71zm-3842.63 2472.63c181.27,12.31 364.96,15.63 531.5,15.63 164.96,0 315.96,-3.35 460.65,-10.87 98.54,-5.13 192.07,-12.13 282.89,-21.26 -67.75,26.93 -128.16,49.35 -183.18,68.21 -95.18,32.63 -172.29,53.87 -242.24,68.89 -69.78,14.99 -132.81,24.03 -194.93,27.98 -62.06,3.95 -124.28,2.88 -192.36,-2.31 -73.45,-5.59 -152.99,-15.97 -233.46,-33 -69.43,-14.7 -139.59,-34.3 -207.12,-59.98 -47.15,-17.93 -93.55,-39.02 -140.31,-62.79 39.2,3.65 78.79,6.8 118.56,9.5zm-2227.02 -4109.63c16.56,-47.3 36.68,-98.65 61.37,-155.41 4.9,-10.51 10,-21.12 15.29,-31.8 2.69,2.96 5.65,5.86 8.86,8.67 25.51,22.26 67.2,38.23 88.05,53.28 20.84,15.04 20.84,29.16 14.33,54.68 -5.48,21.42 -15.53,50.88 -14.77,76.49 -13.98,-7.45 -29.53,-13.8 -45.72,-18.23 -16.76,-4.59 -34.39,-7.29 -52.05,-7.29 -6.06,0 -12.83,0.49 -19.96,1.41 -20.23,2.53 -38.98,8.85 -55.4,18.2zm432.51 2857.41c25.43,48.17 51.25,94.6 78.33,139.94 -25.91,-27.72 -51.09,-55.24 -75.35,-82.42 -92.32,-103.39 -172.95,-203.56 -244.46,-302.09 -70.98,-97.79 -131.67,-192.31 -184.78,-285.41 -53.22,-93.25 -99.18,-185.35 -136.57,-281.63 -37.04,-95.35 -66.04,-196 -85.86,-307.62 -19.84,-111.77 -30.39,-232.97 -32.2,-356.93 -1.86,-127.72 5.54,-260.48 21.59,-390.95 10.25,-83.32 24.08,-165.36 39.86,-245.18 36.43,185.3 99.42,438.91 157.97,674.7 19.91,80.21 39.51,159.1 50.94,205.91 18.91,77.44 30.31,124.89 41.24,170.42 49,204.14 88.45,368.43 138.36,521.58 31.83,97.69 68.63,192.87 108.28,284.28 39.72,91.59 81.19,176.82 122.65,255.4zm17.11 -3115.87c-11.95,-9.23 -19.54,-32.04 -33.66,-62.45 -14.12,-30.41 -34.76,-68.42 -55.93,-80.9 -21.18,-12.5 -42.9,0.54 -58.64,20.08 -15.75,19.55 -25.52,45.62 -33.67,45.62 -8.15,0 -14.67,-26.07 -12.49,-74.4 0.92,-20.66 3.45,-45.4 4.92,-69.63 34.01,-46.12 70.66,-93.05 109.37,-140.04 96.09,-116.67 205.2,-234.31 318.11,-341.87 64.44,-61.38 130.16,-119.46 196.65,-174.5 1.02,1.83 1.92,3.83 2.66,6 8.69,25.52 -3.1,76.03 -42.1,133.87 -39.02,57.84 -105.26,122.99 -135.67,172.41 -30.41,49.42 -24.98,83.08 -13.03,116.21 11.94,33.12 30.4,65.7 35.29,100.45 4.89,34.75 -3.8,71.68 3.26,89.06 7.05,17.37 29.87,15.2 71.68,-24.44 41.81,-39.64 102.62,-116.75 141.18,-206.35 38.55,-89.59 54.84,-191.67 56.28,-270.89 1.44,-79.22 -11.97,-135.57 -21.74,-170.86 -2.03,-7.33 -3.91,-13.73 -5.87,-19.32 18.79,-14.66 37.62,-29.09 56.47,-43.29 116.99,-88.14 234.84,-167.51 350.85,-239.67 19.08,-11.88 38.12,-23.56 57.14,-35.05 -27.62,77.86 -28.2,120.07 -21.4,149.68 7.76,33.78 25.15,51.16 45.78,58.76 20.64,7.6 44.52,5.43 72.77,-14.66 28.23,-20.1 60.81,-58.1 89.6,-90.14 28.77,-32.04 53.75,-58.1 74.38,-106.97 16.86,-39.94 30.82,-95.1 42.95,-160.66 118.77,-55.59 246.63,-105.05 393.6,-148.87 153.48,-45.76 327.25,-85.28 506.77,-115.51 177.06,-29.81 359.4,-50.64 533.19,-59.62 174.65,-9.03 340.55,-6.22 494.18,7.79 88.19,8.03 172.57,19.79 252.47,35.14 38.73,17.96 77.05,36.51 114.84,55.48 215.25,108.1 416.16,231.94 614.56,354.23 118.33,72.94 -82.59,-50.4 70.21,43.54l177.37 108.39 12.27 14 0.15 -0.13c72.91,83.85 147.69,181.15 232.71,298.46 88.89,122.65 187.76,265.51 284.19,411.31 90.58,136.96 179.02,276.33 255.25,404.08 78.41,131.38 145.49,253.32 203.28,366.83 57.16,112.27 103.87,213.87 142.55,306.5 38.45,92.09 69.2,175.72 91.1,256.5 21.57,79.57 34.66,156.34 38.17,235.81 3.6,81.32 -2.59,166.57 -18.38,249.08 -2.14,11.15 -4.44,22.23 -6.93,33.23 -2.49,11.09 -5.17,22.08 -8.03,32.98l-0.72 -0.5c0.42,-1.62 0.83,-3.24 1.24,-4.86 -1.93,6.31 -4.37,13.95 -7.57,23.56 -9.72,29.19 -26.5,76.58 -40.1,109.97 -13.61,33.39 -24.04,52.78 -37.86,76.31 -13.81,23.54 -31.01,51.22 -48.2,78.9 -15.65,22.79 -31.91,45.42 -48.36,68.32 -48.09,66.93 -97.74,136.04 -141.71,219.53 -10.02,19.03 -19.69,38.68 -29.06,58.87 -1.71,-4.84 -3.51,-9.98 -5.38,-15.42 -8.3,-24.26 -18.01,-54.81 -28.99,-84.67 -7.69,-21.83 -15.37,-43.66 -29.61,-66.55 -14.24,-22.9 -35.03,-46.86 -55.82,-70.82 -4.83,-3.76 -9.78,-7.2 -14.85,-10.36 -28.77,-17.91 -61.35,-26.61 -90.13,-40.73 -0.43,-0.21 -0.86,-0.42 -1.29,-0.63 -2.82,-1.29 -7.07,-2.33 -21.62,-1.58 -11.35,0.58 -28.98,2.25 -44.4,7.28 -7.46,14.92 -14.92,29.85 -19.03,50.24 -4.1,20.39 -4.84,46.24 2.25,80.31 7.09,34.07 22.01,76.36 36.92,118.65 16.84,27.32 36.46,53.91 58.03,78.05 47.19,52.82 103.67,93.9 147.76,118.29 -27.48,75.03 -53.2,153.97 -79.28,233.99 -15.89,48.8 -31.95,98.03 -48.55,146.85 -35.07,103.13 -72.85,204.73 -115.53,301.4 -37.63,85.24 -78.64,165.85 -124.34,239.08 -9.08,-27.27 -2.52,-63.54 12.91,-115.64 18.6,-62.78 50.1,-148.57 64.22,-211.03 14.12,-62.44 10.85,-101.53 -1.64,-125.43 -12.48,-23.89 -34.2,-32.58 -45.6,-56.47 -11.41,-23.89 -12.49,-62.99 -20.1,-93.94 -7.59,-30.95 -21.72,-53.76 -46.69,-38.56 -24.98,15.21 -60.82,68.43 -85.26,180.82 -24.43,112.41 -37.46,284 -19,408.89 10.81,73.19 32.45,130.33 55.17,173.64 -34.52,43.87 -71.61,85.79 -111.33,126.72 -68.73,70.82 -144.88,138.28 -228.88,207.49 -16.14,13.31 -32.59,26.68 -49.32,40.07 11.44,-22.21 23.76,-50.99 33.38,-87.9 23.35,-89.6 30.75,-227.02 5.13,-321.8 -25.62,-94.78 -84.26,-146.91 -120.1,-145.28 -35.84,1.64 -48.87,57.01 -76.02,101.55 -27.16,44.52 -68.42,78.19 -94.48,121.63 -26.06,43.43 -36.93,96.66 -37.47,167.25 -0.54,70.59 9.23,158.56 24.43,226.43 7.42,33.09 16.12,61.41 26.88,84.26 -133.33,75.41 -273.71,148.94 -411.3,217.31 -45.88,22.79 -91.45,45.02 -136.33,66.55 -32.72,9.36 -65.73,17.98 -99,25.96 -119.22,28.57 -244.68,49.25 -373.34,65.4 -129.61,16.26 -259.54,27.57 -396.89,34.73 -136.82,7.12 -285.59,10.28 -452.93,10.28 -165.77,0 -346.99,-3.19 -521.4,-15.03 -172.45,-11.71 -339.56,-31.67 -480.82,-64.92 -160.72,-99.34 -341.29,-211.73 -497.53,-325.46 -83.5,-60.77 -160.91,-122.56 -231.66,-185.33 -69.71,-61.84 -132.6,-124.46 -188.11,-187.84 -55.42,-63.26 -103.35,-127.03 -147.17,-193.54 -43.79,-66.47 -84.47,-137.36 -125.09,-214.36 -41.07,-77.8 -81.08,-159.82 -117.91,-244.71 -25.24,-58.16 -49.53,-118.9 -72.33,-182.06 -37.44,-140.32 -74.88,-280.62 -108.38,-406.33 3.76,0.57 7.6,1 11.54,1.29 -59.31,-212.72 -118.61,-425.44 -177.92,-638.15 -53.78,-216.91 -108.81,-441.86 -141.18,-608.21 -15.48,-79.57 -25.66,-144.97 -31.42,-201.62 0.87,-97.75 -6.95,-177.83 8.91,-270.93 3.32,-19.46 7.13,-39.36 11.58,-59.9 2.69,5.18 5.8,10.23 9.38,15.23 3.21,4.46 6.79,8.78 10.76,13.03 16.64,94.62 8.72,230.99 57.08,285.92 33.79,38.36 97.68,51.33 143.6,43.35 29.62,-5.15 51.75,-19.02 65.06,-40.23 12.81,-53.89 25.62,-107.77 29.35,-177 3.72,-69.24 -1.63,-153.82 -4.31,-196.11 -1.91,-30.09 -2.46,-38.77 -0.32,-39.48 -0.78,-0.94 -1.57,-1.88 -2.36,-2.81 17.48,-0.28 34.08,-5.88 47.86,-15.56 20.08,-14.12 34.21,-36.93 48.87,-49.96 14.66,-13.04 29.87,-16.29 51.58,-0.54 21.72,15.74 49.96,50.5 83.63,68.41 33.66,17.92 72.76,19.01 85.79,-4.34 13.03,-23.35 0,-71.14 -19,-103.17 -19.01,-32.04 -43.98,-48.32 -48.87,-58.09 -4.89,-9.78 10.32,-13.04 33.66,-16.3 23.35,-3.26 54.85,-6.52 73.86,-28.24 19,-21.72 25.52,-61.9 3.25,-86.33 -22.26,-24.44 -73.31,-33.13 -106.97,-35.3 -33.67,-2.17 -49.96,2.17 -61.91,-7.06zm-319.43 -27.22c17.19,-29.09 36.07,-59.07 56.43,-89.7 4.28,17.42 10.56,35.64 19.19,53.39 19,39.09 49.42,76.02 38.72,81.71 -10.71,5.69 -62.52,-19.85 -103.25,-28 -6.9,-1.38 -13.47,-2.26 -19.69,-2.68 2.81,-4.88 5.69,-9.79 8.6,-14.72zm-693.27 -90.61c-37.48,46.69 -30.95,72.76 -19.55,89.6 11.4,16.83 27.69,24.42 51.04,19 23.35,-5.44 53.76,-23.89 77.11,-29.33 23.34,-5.42 39.64,2.17 58.64,15.21 19.01,13.03 40.73,31.49 78.19,37.47 37.47,5.97 90.69,-0.55 152.04,-23.35 46.33,-17.23 97.33,-43.73 145.92,-73.68 -18.54,38.36 -35.32,74.56 -50.55,108.86 -35.28,73.75 -61.44,143.3 -83.41,212.9 -17.2,51.88 -30.32,99.16 -40.6,143.57 -7.51,28.96 -14.88,58.39 -22.42,88.6l-24.25 96.21c-2.62,10.33 -5.25,20.76 -7.91,31.26 -13.78,55.72 -27.55,111.45 -41.32,167.17 -34.59,145.21 -67.49,302.02 -87.5,464.69 -16.57,134.71 -24.17,274.3 -22.18,411.15 1.95,134.05 13.09,263.57 34,381.28 21.44,120.77 53.27,230.84 94.16,336.12 40.52,104.33 89.6,202.86 146.07,301.82 56.56,99.12 120.23,198.47 193.69,299.68 72.92,100.47 156.82,204.49 254.56,313.94 95.97,107.51 203.88,218.55 314.58,324.79 113.08,108.55 230.37,213.36 342.09,305.52 112.1,92.49 218.17,171.88 334.61,237.42 113.02,63.6 235.8,114.2 383.03,151.04l23.75 14.68c171.2,105.78 315.89,195.18 474.6,255.53 75.42,28.68 152.94,50.4 229.11,66.52 88.04,18.63 174.35,29.92 253.65,35.97 74.27,5.66 143.13,6.77 213.14,2.31 69.95,-4.46 140.09,-14.45 216.91,-30.95 76.65,-16.46 159.64,-39.22 260.06,-73.64 98.43,-33.75 215.61,-79.48 362.81,-142.59 119.5,-51.23 258.57,-113.91 404.88,-183.9 86.8,-25.28 171.16,-55.21 252.33,-91.05 118.14,-52.13 230.48,-117.05 335.72,-187.4 71.3,-47.65 139.24,-97.82 203.41,-148.16l20.03 -12.53c16.97,11.52 35.53,34.1 71.1,67.76 40.18,38.01 102.09,90.14 181.36,130.31 79.29,40.19 175.94,68.43 256.31,71.14 80.36,2.71 144.44,-20.09 187.87,-54.3 43.44,-34.2 66.26,-79.82 53.22,-103.18 -13.03,-23.34 -61.9,-24.42 -97.2,-45.06 -35.29,-20.64 -57.01,-60.82 -86.33,-89.6 -29.32,-28.78 -66.25,-46.16 -103.17,-50.5 -36.93,-4.34 -73.86,4.35 -125.45,13.58 -51.58,9.23 -117.82,19 -159.09,7.6 -22.33,-6.17 -37.35,-18.55 -51.94,-29.8 59.17,-39.51 116.27,-79.34 171.33,-119.46 121.99,-88.92 232.83,-178.51 332.71,-268.26 1.93,0.88 3.79,1.91 5.57,3.12 16.84,11.4 26.11,37.79 49.75,72.15 23.65,34.36 61.66,76.72 119.21,106.04 57.57,29.33 134.67,45.62 194.94,40.73 60.28,-4.89 103.72,-30.95 129.24,-58.64 25.53,-27.7 33.13,-57.02 24.44,-77.65 -8.69,-20.63 -33.67,-32.59 -65.71,-51.05 -32.03,-18.46 -71.13,-43.44 -110.77,-62.99 -39.64,-19.55 -79.82,-33.66 -127.63,-37.3 -47.8,-3.63 -103.23,3.21 -139.07,5.38 -5.56,0.34 -10.66,0.56 -15.34,0.67 112.19,-106.01 209.85,-212.43 292.42,-317.66 50.78,-64.71 96.07,-129.22 135.74,-193.17 6.91,-5.63 13.96,-10.89 21.14,-15.61 57.79,-38.01 124.74,-42.59 162.01,-42.7 37.27,-0.12 44.87,4.23 25.32,19.43 -19.54,15.2 -66.24,41.27 -77.1,66.25 -10.86,24.98 14.12,48.87 50.5,58.64 36.38,9.77 84.16,5.44 130.86,-1.09 46.69,-6.51 92.31,-15.2 105.88,-2.17 13.58,13.03 -4.87,47.8 -2.16,81.46 2.71,33.67 26.6,66.24 55.38,83.62 28.78,17.38 62.44,19.54 86.34,0 23.89,-19.56 38.01,-60.82 44.52,-95.03 6.53,-34.2 5.43,-61.35 19.01,-68.41 13.58,-7.06 41.82,5.97 70.59,14.11 28.78,8.15 58.11,11.41 86.34,1.63 28.24,-9.77 55.39,-32.58 58.64,-59.73 3.26,-27.14 -17.38,-58.64 -47.78,-78.73 -30.41,-20.1 -70.59,-28.78 -96.66,-40.19 -26.05,-11.4 -38,-25.52 -32.04,-48.33 5.99,-22.8 29.87,-54.3 36.39,-94.48 6.51,-40.18 -4.35,-89.06 -22.26,-116.75 -17.92,-27.68 -42.9,-34.21 -74.94,-21.72 -32.04,12.49 -71.13,43.99 -93.4,65.17 -22.25,21.17 -27.69,32.03 -42.35,29.32 -14.66,-2.72 -38.56,-19 -67.88,-36.39 -29.32,-17.37 -64.07,-35.83 -93.93,-29.86 -29.87,5.98 -54.85,36.39 -61.37,67.34 -6.52,30.95 5.43,62.44 22.27,85.25 16.83,22.8 38.55,36.92 48.31,46.69 9.78,9.78 7.62,15.21 -3.78,16.83 -11.4,1.64 -32.04,-0.53 -72.52,-3.89 -40.48,-3.36 -100.8,-7.9 -148.58,-5.73 -5.67,0.26 -11.17,0.61 -16.49,1.06l3.95 -7.78c53.96,-106.76 91.22,-210.44 118.23,-325.49 10.36,-44.09 19.17,-89.72 26.85,-137.76 29.63,2.81 72.33,5.29 129.27,15.88 84.71,15.75 200.91,49.41 294.3,29.32 93.41,-20.1 164,-93.94 180.28,-147.7 16.3,-53.75 -21.71,-87.43 -98.28,-97.74 -76.56,-10.31 -191.68,2.71 -291.59,32.03 -83.05,24.38 -155.59,60 -202.66,89.43 6.82,-52.93 12.6,-108.93 17.78,-168.99 8.44,-98.1 15.34,-209.77 20.73,-325.2 61.36,-5.17 135.03,-18.99 198.91,-50.26 102.09,-49.95 179.19,-144.44 217.2,-218.29 38.02,-73.84 36.92,-127.05 27.7,-164.53 -9.24,-37.46 -26.61,-59.18 -46.7,-59.72 -20.09,-0.55 -42.9,20.09 -60.82,34.75 -17.92,14.66 -30.94,23.35 -67.87,22.81 -36.93,-0.55 -97.74,-10.32 -137.39,30.4 -39.64,40.73 -58.09,131.95 -84.17,192.77 -12.57,29.35 -26.93,51.61 -40.97,68.39 6.08,-171.27 8.69,-340.15 8.12,-474.87 -0.55,-133.06 -4.09,-231.14 -10.05,-312.25 -6.2,-84.43 -14.8,-152.01 -25.3,-221.11 -10.19,-67.04 -22.99,-139.42 -38.14,-214.82 -13.85,-68.88 -29.33,-137.37 -46.17,-203.12 -17.69,-69.06 -36.53,-134.17 -57.85,-194.41 -22.04,-62.31 -47.45,-121.9 -77.92,-178.73 -30.73,-57.33 -65.75,-110.26 -106.66,-161.73 -40.44,-50.86 -86.95,-100.82 -141.09,-152.66 -52.69,-50.48 -113.45,-103.36 -184.29,-159.38 -71.28,-56.37 -150.25,-114.12 -238.49,-173.66 -124.03,-83.71 -271.89,-174.98 -426.91,-269.84 -68.36,-76.05 -137.25,-143.19 -213.03,-206.51 -85.81,-71.7 -180.55,-138.28 -288.33,-196.88 -107.68,-58.54 -227.5,-108.57 -363.26,-147.03 -52.68,-14.92 -107.88,-28.13 -165.39,-39.57 -88.67,-40.67 -179.06,-78.25 -269.83,-111.26 -126.3,-45.93 -253.25,-83.23 -377.32,-108.05 -131.27,-26.25 -261.03,-38.84 -392.13,-40.95 -130.28,-2.12 -259.63,6.14 -391.54,21.6 -133.03,15.57 -269.37,38.34 -408.83,71.54 -119.52,28.46 -241.96,64.73 -367.39,110.95 -10.25,-26.32 -24.77,-53.88 -45.44,-80.44 -34.2,-43.99 -85.25,-85.26 -149.33,-99.38 -64.07,-14.11 -141.17,-1.09 -196.56,24.44 -55.39,25.51 -89.06,63.52 -71.13,100.45 17.91,36.92 87.42,72.77 131.4,92.32 43.99,19.54 62.45,22.8 84.91,25.25 19.93,2.18 43.02,3.71 63.53,10.87 -103.56,45.12 -206.73,95.65 -304.03,148.02 -94.49,50.85 -183.67,103.58 -262.5,154.91 -33.97,-3.25 -64.77,-7.15 -89.64,-12.22 -53.22,-10.86 -79.28,-27.14 -69.5,-33.66 9.77,-6.52 55.38,-3.26 85.25,-11.95 29.86,-8.69 43.98,-29.32 37.46,-50.5 -6.52,-21.18 -33.66,-42.9 -62.99,-58.1 -29.32,-15.2 -60.82,-23.89 -81.99,-33.67 -21.18,-9.77 -32.04,-20.63 -30.95,-50.49 1.09,-29.87 14.11,-78.75 4.89,-109.7 -9.23,-30.95 -40.73,-43.97 -67.34,-37.46 -26.6,6.51 -48.33,32.58 -64.62,55.39 -16.29,22.8 -27.14,42.35 -44.52,42.35 -17.38,0 -41.27,-19.55 -70.05,-32.57 -28.78,-13.04 -62.44,-19.56 -87.42,-14.13 -24.98,5.43 -41.27,22.81 -49.96,39.65 -8.69,16.83 -9.78,33.11 8.69,57.01 18.46,23.89 56.47,55.38 62.45,78.19 5.97,22.81 -20.1,36.93 -43.99,49.42 -23.9,12.49 -45.61,23.34 -51.04,45.61 -5.43,22.26 5.43,55.93 21.18,78.19 15.75,22.27 36.38,33.12 64.62,33.12 28.23,0 64.07,-10.85 88.5,-17.37 24.44,-6.51 37.47,-8.69 45.61,5.97 8.15,14.66 11.41,46.16 20.1,68.97 8.69,22.8 22.8,36.91 3.26,38.55 -19.55,1.62 -72.76,-9.23 -127.6,-16.29 -54.85,-7.06 -111.33,-10.32 -167.26,0.54 -55.93,10.86 -111.31,35.84 -158.01,62.45 -46.7,26.6 -84.7,54.84 -104.8,86.34 -20.09,31.49 -22.27,66.25 -3.26,87.43 19.01,21.17 59.19,28.77 137.39,29.86 78.19,1.08 194.39,-4.35 285.61,-11.95 43.34,-3.61 81.04,-7.71 114.26,-14.05 -47.82,64.52 -94.63,138.19 -150.72,229.81 -49.1,80.23 -105.27,174.11 -162.81,272.91 -18.89,4.62 -37.75,9.55 -54.84,13.05 -42.36,8.69 -73.86,8.69 -76.57,5.97 -2.72,-2.71 23.35,-8.14 43.44,-26.06 20.09,-17.92 34.21,-48.33 30.95,-73.3 -3.26,-24.99 -23.9,-44.53 -55.93,-49.97 -32.04,-5.42 -75.47,3.27 -107.51,4.36 -32.04,1.08 -52.67,-5.44 -65.71,-21.73 -13.03,-16.29 -18.46,-42.35 -24.98,-59.73 -6.51,-17.37 -14.11,-26.06 -27.15,-42.35 -13.04,-16.29 -31.49,-40.19 -57.01,-43.45 -25.52,-3.25 -58.1,14.13 -77.1,46.17 -19.01,32.03 -24.44,78.73 -27.7,105.34 -3.25,26.6 -4.34,33.12 -26.06,25.52 -21.72,-7.6 -64.08,-29.33 -99.37,-29.87 -35.3,-0.54 -63.54,20.09 -73.85,46.15 -10.32,26.07 -2.72,57.57 21.72,82 24.43,24.44 65.7,41.81 86.88,54.3 21.18,12.49 22.26,20.09 9.23,59.74 -13.03,39.63 -40.18,111.3 -27.69,148.77 12.49,37.47 64.61,40.73 104.8,33.68 40.18,-7.06 68.42,-24.45 88.51,-42.36 20.09,-17.93 32.04,-36.38 45.62,-34.75 13.56,1.62 28.77,23.34 48.33,41.26 19.54,17.92 43.43,32.04 67.86,39.65 24.44,7.59 49.42,8.68 66.79,-3.26 17.38,-11.95 27.16,-36.93 24.99,-63.53 -2.18,-26.61 -16.29,-54.85 -31.5,-80.37 -15.21,-25.52 -31.5,-48.33 -27.15,-55.93 4.34,-7.6 29.32,0 60,7.83 29.76,7.6 64.9,15.42 102.67,13.9 -16.43,28.74 -32.83,57.65 -49.05,86.51 -35.82,63.74 -71.14,127.94 -104.65,190.62 -9.94,1.68 -20.86,2.65 -33.23,2.52 -48.88,-0.54 -120.37,-18.47 -194.67,-20.92 -74.3,-2.44 -151.4,10.59 -230.68,50.78 -79.28,40.18 -160.74,107.51 -198.2,154.21z"/>
 </g>
</svg>
