<?xml version="1.0" encoding="UTF-8"?>
<!DOCTYPE svg PUBLIC "-//W3C//DTD SVG 1.1//EN" "http://www.w3.org/Graphics/SVG/1.1/DTD/svg11.dtd">
<!-- Creator: CorelDRAW 2020 (64-Bit) -->
<svg xmlns="http://www.w3.org/2000/svg" xml:space="preserve" width="210mm" height="297mm" version="1.1" shape-rendering="geometricPrecision" text-rendering="geometricPrecision" image-rendering="optimizeQuality" fill-rule="evenodd" clip-rule="evenodd"
viewBox="0 0 21000 29700"
 xmlns:xlink="http://www.w3.org/1999/xlink"
 xmlns:xodm="http://www.corel.com/coreldraw/odm/2003">
 <g id="Capa_x0020_1">
  <metadata id="CorelCorpID_0Corel-Layer"/>
  <path id="aro_x0020_20.svg" fill="#A2662E" d="M23474.51 57526.27c167.13,172.8 287.06,358.27 366.65,551.15 22,64.61 43.99,129.22 65.99,193.83 124.44,456.73 44.82,943.73 -153.85,1395.56 -53.45,104.88 -106.9,209.76 -160.35,314.65 -182.03,313.68 -416.33,600.54 -670.26,835.35 -962.45,889.97 -2048.45,1564.69 -2080.72,1584.68 -32.28,-19.99 -1118.27,-694.71 -2080.72,-1584.68 -197.67,-182.79 -383.41,-397.15 -541.93,-631.1 -109.16,-203.7 -218.33,-407.4 -327.49,-611.1 -164.43,-411.66 -227.04,-848.39 -125.79,-1262.05 28.29,-84.69 56.57,-169.39 84.86,-254.08 79.56,-186.07 196.89,-365.08 358.53,-532.21 920.76,-952.02 2137.07,-394.33 2632.54,315.24 495.48,-709.57 1711.77,-1267.26 2632.54,-315.24zm-2632.54 4875.22l0.74 0.46 -1.47 0c0.01,-0.01 0.25,-0.16 0.73,-0.46zm2496.85 -1371.31c1064.18,-1022.19 1841.58,-2835.2 662.2,-4101.96 -1104.93,-1186.8 -2564.48,-491.58 -3159.05,392.99 -594.58,-884.57 -2054.13,-1579.79 -3159.06,-392.99 -1179.38,1266.76 -401.97,3079.77 662.21,4101.96 1154.89,1109.42 2458.06,1950.52 2496.85,1975.48 38.78,-24.96 1341.95,-866.06 2496.85,-1975.48z"/>
 </g>
</svg>
