<?xml version="1.0" encoding="UTF-8"?>
<!DOCTYPE svg PUBLIC "-//W3C//DTD SVG 1.1//EN" "http://www.w3.org/Graphics/SVG/1.1/DTD/svg11.dtd">
<!-- Creator: CorelDRAW 2020 (64-Bit) -->
<svg xmlns="http://www.w3.org/2000/svg" xml:space="preserve" width="210mm" height="297mm" version="1.1" shape-rendering="geometricPrecision" text-rendering="geometricPrecision" image-rendering="optimizeQuality" fill-rule="evenodd" clip-rule="evenodd"
viewBox="0 0 21000 29700"
 xmlns:xlink="http://www.w3.org/1999/xlink"
 xmlns:xodm="http://www.corel.com/coreldraw/odm/2003">
 <g id="Capa_x0020_1">
  <metadata id="CorelCorpID_0Corel-Layer"/>
  <path id="aro_x0020_21.svg" fill="#A2662E" d="M31045.77 58410.71c455.37,-455.36 1084.53,-737.06 1779.46,-737.06 694.94,0 1324.1,281.7 1779.46,737.06 455.37,455.37 737.07,1084.55 737.07,1779.46 0,694.94 -281.7,1324.1 -737.07,1779.46 -455.36,455.37 -1084.52,737.07 -1779.46,737.07 -694.93,0 -1324.09,-281.7 -1779.46,-737.07 -455.36,-455.36 -737.06,-1084.52 -737.06,-1779.46 0,-694.91 281.7,-1324.09 737.06,-1779.46zm-835.75 -841.22c-16.45,265.9 0,526.33 37.02,753.85 29.74,182.95 72.78,344.62 102.01,464.04 -235.06,414 -369.32,892.73 -369.32,1402.79 0,129.26 8.66,256.47 25.37,381.16l-814.73 -141.12c-53.63,-9.14 -104.58,26.93 -113.72,80.57 -9.14,53.63 26.93,104.58 80.57,113.72l883.25 153c18.43,87.84 40.88,174.17 67.2,258.8l-878.09 332.33c-50.88,19.16 -76.6,75.94 -57.44,126.82 19.15,50.88 75.94,76.59 126.81,57.44l873.77 -330.71c144.33,370.7 364.09,703.68 640.46,980.05 514.93,514.93 1226.32,833.45 2012.05,833.45 785.74,0 1497.13,-318.52 2012.06,-833.45 276.37,-276.37 496.13,-609.35 640.46,-980.05l873.77 330.71c50.87,19.15 107.66,-6.56 126.81,-57.44 19.16,-50.88 -6.56,-107.66 -57.44,-126.82l-878.09 -332.33c26.32,-84.63 48.77,-170.96 67.19,-258.8l883.26 -153c53.64,-9.14 89.71,-60.09 80.57,-113.72 -9.14,-53.64 -60.09,-89.71 -113.73,-80.57l-814.72 141.12c16.71,-124.69 25.37,-251.9 25.37,-381.16 0,-510.06 -134.26,-988.79 -369.32,-1402.79 29.22,-119.42 72.27,-281.09 102.01,-464.04 37.02,-227.52 53.47,-487.95 37.02,-753.85 -16.45,-265.91 -65.79,-537.31 -98.69,-673.01 -32.9,-135.69 -49.35,-135.69 -168.59,-95.93 -119.25,39.74 -341.31,119.25 -529.09,215.2 -187.76,95.93 -341.28,208.33 -458.09,331.33 -82.19,86.57 -146.19,178.36 -186.64,250.38 -357.96,-162.36 -755.49,-252.79 -1174.12,-252.79 -418.62,0 -816.15,90.43 -1174.11,252.79 -40.45,-72.02 -104.46,-163.81 -186.64,-250.38 -116.81,-123 -270.33,-235.4 -458.09,-331.33 -187.78,-95.95 -409.84,-175.46 -529.09,-215.2 -119.24,-39.76 -135.69,-39.76 -168.59,95.93 -32.9,135.7 -82.24,407.1 -98.69,673.01z"/>
 </g>
</svg>
