<?xml version="1.0" encoding="UTF-8"?>
<!DOCTYPE svg PUBLIC "-//W3C//DTD SVG 1.1//EN" "http://www.w3.org/Graphics/SVG/1.1/DTD/svg11.dtd">
<!-- Creator: CorelDRAW 2020 (64-Bit) -->
<svg xmlns="http://www.w3.org/2000/svg" xml:space="preserve" width="210mm" height="297mm" version="1.1" shape-rendering="geometricPrecision" text-rendering="geometricPrecision" image-rendering="optimizeQuality" fill-rule="evenodd" clip-rule="evenodd"
viewBox="0 0 21000 29700"
 xmlns:xlink="http://www.w3.org/1999/xlink"
 xmlns:xodm="http://www.corel.com/coreldraw/odm/2003">
 <g id="Capa_x0020_1">
  <metadata id="CorelCorpID_0Corel-Layer"/>
  <path id="aro_x0020_3.svg" fill="#A2662E" d="M10872.1 -9474.08c9.9,84.27 23.22,175.35 38.77,268 -15.48,15.69 -29.2,35.78 -42.92,60.26 -38.31,-68.35 -76.64,-102.51 -153.31,-102.51 -19.49,0 -38.14,3.24 -55.29,9.18 -7.28,-53.4 -13.47,-108.07 -18.26,-164.08 90.45,-82.3 173.07,-164.62 214.39,-246.89 3.96,56.31 9.43,114.86 16.62,176.04zm6385.23 -154.79l1.93 -20.3c7.34,-79.93 11.9,-159.96 13.22,-241.9 1.14,-73.05 -0.23,-147.03 -4.21,-218.69 6.02,0.42 12.14,0.51 18.33,0.3 26.26,-0.88 48.16,-5.4 67.05,-13.6 1.15,30.8 1.92,61.93 2.22,93.28 0.88,94.41 -2.29,194.39 -9.34,296.27 -4.63,66.73 -11.03,134 -19.12,200.79 -20.56,-31.72 -44.33,-63.8 -70.08,-96.15zm-6225.78 -1157.52c-22.58,55.99 -43.57,112.43 -62.53,169.04 -12.28,-26.51 -32.86,-48.11 -65.87,-67.09 -39.46,-22.71 -83.75,-27.72 -122.11,-17.36 11.82,-40.44 24.01,-78.75 36.64,-115.32 112.29,-33.91 215.54,-72.22 282.49,-128.21 -24.13,52.59 -47.14,105.66 -68.62,158.94zm5723.54 2615.89c34.07,-55.72 68.79,-115.86 105.22,-183.25 17.87,-32.98 36.29,-67.93 54.9,-104.36 30.15,0.92 61.99,-7.56 99.1,-22.57 -6.51,39.25 -7.83,72 -0.51,101.09 -30.27,73.07 -62.97,145.95 -98.17,217.29l-8.21 16.48c-53.67,-13.26 -105,-22.46 -152.33,-24.68zm426.83 -985.64c2.45,-10.61 4.82,-21.18 7.11,-31.68 9.97,2.76 20.74,4.87 32.47,6.31 15.81,1.92 31.33,1.78 46.21,-0.24 -2.8,12.75 -5.7,25.5 -8.66,38.29 -22.81,98.22 -49.78,197.5 -81.61,302.39 -31.91,2.37 -63.24,5.19 -93.58,8.84 7.07,-18.5 13.81,-36.9 20.25,-55.14 32.64,-92.31 57.74,-181.76 77.81,-268.77zm-57.23 -1604.27c-12.44,-31.59 -25.6,-63.9 -39.6,-96.92 41.48,18.98 93.28,19.74 141.11,-2.21 8.63,-3.96 16.5,-8.13 23.78,-12.53 11.64,44.05 22.25,89.66 32.05,138.06 9.55,47.23 18.61,98.84 27.35,156.01 -33.28,34.07 -64.41,68.07 -91.42,101.9 -8.3,-34.16 -17.5,-67.2 -27.49,-99.69 -19.49,-63.48 -41.65,-123.41 -65.78,-184.62zm-201.55 -542.19c75.62,-48.7 101.72,-142.86 58.35,-210.3 -66.23,-102.85 -229.69,-143.18 -408.49,-173.65l-10.31 -11.61c-44.64,-50.01 -87.05,-94.58 -129.83,-139.03 -43.82,-45.55 -88.6,-91.62 -139.45,-140.52 -51.33,-49.39 -108.41,-101.25 -175.92,-157.59 -69.25,-57.8 -150.27,-120.95 -232.48,-181.14 -15.34,-11.24 -30.78,-22.37 -46.24,-33.42 -6.16,-19.28 -15.64,-39.33 -27.94,-61.07 83.22,2.87 135.34,-13.21 177.57,-82.78 12.4,-20.47 20.23,-42.3 23.77,-64.08 16.04,10.01 31.64,19.84 46.75,29.48 23.85,15.2 46.47,29.89 68,44.19 21.18,196.81 49.34,383.86 156.64,461.27 65.01,46.95 160.47,25.91 213.08,-47.05 17.7,-24.54 28.07,-47.44 32.28,-70.43 44.03,50.01 86.47,101.9 129.09,154l38.72 47c75.98,92.52 153.36,186.82 225.34,304.97 38.03,62.43 75.3,133 109.83,203.87 16.43,33.72 32.05,67.07 46.75,99.4 -41.84,101.65 -75.44,199.52 -80.47,284.27 -16.66,-33.55 -34.28,-67.46 -52.93,-101.69 -23.62,-43.31 -48.7,-86.86 -74.61,-129.62 16.9,-4.7 34.17,-12.7 52.5,-24.47zm-351.37 3401.95c38.08,49.09 86.52,61.77 158.52,60.91 -7.78,13.09 -14.53,25.56 -20.09,37.64 -54.16,83.52 -108.07,159.19 -158.24,223.34 -57.83,73.9 -111.29,133.35 -162.83,184.66 -50.83,50.66 -100.72,94.03 -151.48,135.97 -46.77,38.64 -93.42,75.44 -141.79,110.02 13.1,-65.2 23.2,-135 33.26,-204.78l-59.54 -15.6c18.08,-16.43 35.99,-33 53.7,-49.53 82.11,-76.66 160.26,-153.98 225.5,-222.37 63.43,-66.49 114.39,-124.15 158.59,-178.1 22.41,-27.37 43.64,-54.55 64.4,-82.16zm-1116.64 997.69c68.53,-42.67 138.66,-88.23 211.4,-139.36 22.62,-15.89 45.55,-32.4 68.84,-49.59 -30.2,58.84 -41.14,105.05 -21.63,155.71l-23.82 10.3c-82.55,35.22 -168.26,68.03 -252.59,97.29 -78.8,27.32 -157.39,52 -241.23,74.3l53.3 -28.14c70.06,-37.92 137.27,-77.89 205.73,-120.51zm-2593.13 157.01c98.59,38.75 197.96,73.7 293.01,102.9 95.2,29.25 184.91,52.49 271.31,71.08 86.34,18.59 170.46,32.93 254.08,44.24 83.15,11.24 165.68,19.5 254.48,23.85 64.34,3.15 131.94,4.24 205.48,2.92 -68.21,16.94 -137.27,31.24 -207.75,41.42 -94.02,13.58 -190.89,20.18 -289.8,20.97 -100.05,0.79 -203.02,-4.24 -307.87,-13.83 -14.85,-1.37 -29.78,-2.83 -44.75,-4.39 -58.47,-92.53 -122.97,-163.45 -201.18,-185.26 -77.28,-21.6 -159.57,31.15 -183.79,117.73l-1.99 7.6c-56.97,-11.93 -110.5,-24.8 -158.99,-38.31 -80.28,-22.38 -147.44,-46.67 -210.71,-75.18 -29.44,-13.23 -58.08,-27.37 -86.86,-42.62 0.72,-113.51 -9.22,-216.32 -48.83,-289.39 56.27,31.17 114.62,61.25 175,90.32 93.07,44.79 191.15,87.41 289.16,125.95zm-1031.29 -640.29c12.72,12.7 25.59,25.31 38.59,37.78 63.5,60.9 130.94,119.88 203.87,175.76 54.86,42.04 112.96,82.46 174.23,121.37 -37.31,3.73 -74.92,20.83 -104.93,50.89 -34.21,34.32 -49.11,67.51 -50.83,105.61 -58.01,-40.23 -115.27,-81.74 -168,-121.9 -63.85,-48.6 -119.26,-93.98 -174.51,-143.55 -55.46,-49.78 -112.52,-105.4 -179.42,-174.44 -49.74,-51.31 -104.89,-110.11 -161.88,-175.58 102.1,64.96 262.43,94.53 422.88,124.06zm-442.98 -517.88c20.05,26.14 41.14,53.39 63.2,81.51 -19.3,3.77 -39.1,11.81 -60.37,24.74 -63.89,38.87 -94.35,110.02 -78.91,172.29 -62.39,-78.31 -123.81,-163.01 -179.08,-252.47 -16.25,-26.28 -32.03,-53.1 -47.39,-80.33 45.7,-79.37 86.97,-157.34 111.79,-230.06 22.71,42.78 46.61,82.28 72.01,120.7 36.18,54.69 75.32,106.98 118.75,163.62zm-387.89 -858.75c24.85,104.64 50.46,198.06 77.55,282.37 -21.16,-1.3 -43.22,1.28 -65.08,8.21 -65.7,20.88 -95.69,57.7 -113.54,117.94 -29.2,-73.52 -55.41,-145.64 -78.77,-214.29 -29.36,-86.3 -54.23,-167.16 -75.53,-245.89 39.01,37.66 81.25,75.3 123.48,112.96 41.18,-36.71 82.34,-73.42 120.54,-110.13 3.77,16.59 7.58,32.89 11.35,48.83zm-236.48 -1371.2c33.84,-7.07 67.69,-14.16 100.91,-21.6 -3.62,30.82 -6.68,62.04 -9.14,93.75 -5.37,69.18 -7.97,141.62 -7.37,219.05 -28.11,-30.1 -70.45,-49.27 -117.8,-49.27 -39.65,0 -69.04,9.13 -93.49,27.41l0.37 -5.6c8.44,-127.98 25.24,-264.6 47.47,-397.46 4.42,-26.54 9.08,-52.87 13.92,-78.94 17.2,68.3 41.17,140.47 65.13,212.66zm962.08 -1752.56c-18.21,19.1 -36.54,38.87 -54.83,59.22 -53.56,-65.15 -144.04,-79.5 -202.37,-31.89 -99.46,81.09 -113.51,266.93 -122.34,459.22 -31.96,50.01 -62.04,100.12 -90.52,150.36 -29.65,52.26 -57.69,104.78 -84.43,157.6 -6.86,-47.26 -39.06,-92.31 -88.97,-116.65 -28.69,-13.97 -53.98,-19.74 -78.41,-18.47 36.32,-66.09 74.33,-131.24 113.1,-194.81 45.93,-75.27 92.59,-147.84 138.63,-216.69 46.4,-69.43 92.68,-135.88 140.98,-201.03 48.74,-65.72 98.97,-129.48 152.92,-192.63 12.28,-14.46 24.77,-28.93 37.52,-43.39 119.21,18.01 234,30.59 324.2,13.03l-14.79 12.84c-57.22,50.06 -113.76,103.61 -170.69,163.29zm2737.45 -855.62c102.58,18.7 213.01,42.41 313.48,65.52 91.81,21.11 172.79,41.18 244.82,60.93 73.42,20.16 140.42,40.7 203.2,62.46 61.35,21.25 119.04,43.94 179.26,72.45 14.28,6.74 28.65,13.81 43.23,21.25 33.04,138.56 78.52,256.55 164.11,308.42 68.54,41.57 162.02,12.95 208.6,-63.97l2.41 -4.05c77.98,57.26 154.97,117.36 221.23,172.65 66.12,55.19 121.14,105.13 170.04,152.17 49.41,47.54 93.3,92.66 136.29,137.36 36.46,37.9 72.1,75.23 106.15,112.57 -23.46,85.98 -44.8,170.55 -54.51,247.68 -8.49,91.02 -1.83,142.65 22.29,218.52 3.13,6.16 6.52,12.14 10.25,17.91 43.36,67.47 139.91,82.74 215.53,34.05 63.46,-40.81 80.61,-88.95 78.75,-161.9 41.49,64.59 80.89,130.82 115.81,194.92 35.48,65.13 67.07,129.11 95.6,191.62 28.07,61.48 53.72,122.93 77.55,183.37 23.52,59.65 44.86,117.31 63.03,176.46 18.01,58.54 33.38,120.07 45.38,188.87 1.62,9.34 3.18,18.8 4.69,28.37 -7.98,25.29 -11.97,50.43 -11.11,75.44 0.97,29.31 11.68,56.27 29.21,78.54 0.92,11.26 1.75,22.6 2.54,33.97 5.57,81.09 7.6,163.95 6.35,243.78 -0.74,46.85 -2.59,93.07 -5.47,139.03l-21.09 -24.05c-179.28,124.4 -358.59,248.62 -376.23,392.75 -9.75,79.61 54.7,153.1 143.94,164.04 80.84,9.92 125.64,-21.21 174.86,-88.35 5.1,12.47 10.34,24.02 15.86,34.6 -6.03,30.78 -12.57,61.77 -19.75,92.91 -19.08,82.68 -42.99,167.89 -74.18,256.12 -13.84,39.14 -29.04,78.7 -45.17,118.17 -71.15,19.22 -129.72,48.55 -166.91,95 -47.81,59.68 -35.35,150.03 26.71,207.07 -17.24,33.54 -34.41,65.98 -51.16,96.86 -41.19,75.98 -79.13,141.2 -115.54,199.74 -14.89,23.96 -29.63,46.98 -44.33,69.32 -35.5,20.7 -57.94,55.97 -65.29,95.92 -34.78,49.09 -71.26,97.81 -115.6,151.94 -43.52,53.12 -92.7,108.84 -152.7,171.76 -63.68,66.75 -140.07,142.32 -220.49,217.41 -36.8,34.37 -74.3,68.53 -111.64,101.53 -138.54,-28.92 -263.76,-37.8 -346.75,17.17 -66.89,44.29 -80.91,141.02 -31.26,216 10.54,15.94 21.53,28.9 33.23,39.33 -66.54,46.4 -130.99,88.16 -194.07,127.44 -66.93,41.67 -132.24,80.54 -199.42,116.9 -67.33,36.41 -136.93,70.64 -212.53,103.02 -76.59,32.81 -159.26,63.89 -244.66,93.81l-2.55 0.9c-114.74,-71.73 -224.09,-119.95 -317.74,-98.68 -69.57,15.76 -114.72,85.15 -109.85,161.99 -29.67,1.79 -58.63,3.25 -86.65,4.38 -103.69,4.16 -194.96,3.74 -280.33,-0.43 -84.87,-4.15 -164.25,-12.12 -244.52,-22.97 -79.82,-10.82 -160.94,-24.66 -245.25,-42.85 -84.54,-18.24 -171.24,-40.63 -261.6,-68.39 -91.39,-28.07 -188.01,-62.09 -284.85,-100.17 -95.72,-37.63 -191.02,-79.02 -281.01,-122.34 -90.69,-43.66 -176.09,-89.3 -255.97,-137.2 -13.99,-8.38 -27.82,-16.85 -41.49,-25.4 -76.3,-54.25 -152.59,-108.49 -228.88,-162.74 -51.75,-42.02 -100.65,-85.63 -147.3,-130.41 -27.67,-26.56 -54.44,-53.4 -80.5,-80.4 46.29,-163.68 74.7,-316.39 14.49,-415.33 -41.64,-68.57 -137.78,-86.28 -214.65,-39.6 -55.32,33.65 -76.71,73.53 -81.67,130.27 -37.75,-47.16 -73.86,-93.56 -107.51,-137.48 -42.02,-54.78 -79.82,-105.24 -114.21,-157.27 -33.84,-51.17 -64.71,-104.34 -93.53,-165.49 -29.18,-61.93 -56.46,-132.15 -82.53,-212.69 -26.08,-80.51 -51.43,-173.14 -76.76,-279.82 -9.5,-40.04 -18.91,-81.57 -28.09,-123.97 54.28,-66.02 90.06,-132.07 90.06,-198.1 0,-75.46 -68.67,-136.69 -153.28,-136.69l-0.38 0c-13.27,-81.23 -24.81,-162.04 -33.83,-238.87 -13.12,-111.68 -20.51,-212.15 -22.94,-304.55 -2.42,-92.14 0,-178.42 6.44,-261.55 3.5,-45.43 8.23,-89.55 14.21,-132.76 112.95,-32.9 206.51,-76.98 248.83,-150.54 37.66,-65.4 8.67,-152.73 -64.68,-194.93 -36.11,-20.76 -67.42,-27.16 -99.29,-22.22 20.26,-62.67 43.55,-126.08 69.18,-189.63 30.61,-75.92 64.69,-151.96 100.98,-227.14 36.34,-75.3 74.79,-149.37 116.09,-222.19 29.42,-51.89 60.25,-103.13 92.72,-153.69 165.47,23.89 319.5,33.78 407.15,-37.74 58.52,-47.67 62.57,-139.61 9.08,-205.17 -48.46,-59.42 -99.14,-67.51 -176.32,-54.02 6.47,-16.41 11.62,-31.73 15.12,-46.28 35.08,-41.19 70.47,-80.54 105.58,-117.34 54.88,-57.54 108.84,-108.67 163,-156.07 54.13,-47.34 109.5,-91.8 166.88,-135.66 55.07,-42.11 112.29,-83.85 168.77,-123.62 57.89,-40.58 116.48,-79.77 172.33,-115.51 42.43,-27.18 81.9,-51.4 122.18,-74 81.14,59.24 160.96,111.8 235.77,139.08 107,31.98 210.97,48.8 239.17,-81.44 7.16,-24.54 8.69,-51.68 3.22,-79.29 -14.9,-75.23 -55.88,-106.14 -130.36,-130.45l3.5 -3.01c36.68,-13.24 74.95,-26.33 114.25,-38.98 82.44,-26.54 170.2,-51.43 258.34,-71.68 174.14,-40.08 350.64,-61.96 488.5,-79.04l54.82 -6.83c50.76,-6.38 95.51,-12.01 139.78,-15.6 83.06,132.03 169.99,243.87 274.69,264.16 74.1,14.36 147.31,-41.4 163.37,-124.48 8.6,-44.38 2.99,-77.96 -15.34,-108.39l30.82 5.51zm-1716.44 -248.95c-111.16,46.37 -221.19,97.64 -326.97,151.27 -102.25,51.82 -200.53,105.96 -293.14,162.48 -92.84,56.71 -180.26,116.04 -260.59,178.25l-0.14 0.11c-6.02,-17.59 -16.13,-35.13 -31.03,-53.42 -53.49,-65.61 -144.31,-80.12 -202.81,-32.4 -92.68,75.55 -111.22,242.03 -120.44,419.95 -17.18,19.35 -33.93,38.7 -50.27,57.98 -56.92,66.93 -108.65,132.42 -157.57,198.43 -49.36,66.58 -96.69,134.53 -144.13,205.52 -47.81,71.5 -95.48,145.56 -141.37,220.77 -45.15,74 -89.13,149.85 -130.55,226.49 -12.52,-38.01 -36.41,-65.61 -81.04,-87.37 -76.09,-37.1 -164.62,-12.16 -197.69,55.69 -57.18,117.18 11.1,295.49 85.1,476.65 -12.56,38.85 -24.8,79.75 -36.69,123.16 -33.07,120.61 -63.15,259.08 -86.88,400.85 -22.81,136.4 -40.1,277.03 -48.81,409.23l-1 15.62c-25.17,-20.14 -55.48,-30.2 -97.08,-30.2 -84.61,0 -153.28,61.22 -153.28,136.68 0,121.63 121.35,243.23 256.08,364.86 6.89,80.48 16.39,157.17 27.68,230.78 2.43,15.83 4.96,31.54 7.55,47.16l-0.02 1.02c0,23.2 4.45,46.4 12.51,69.6 12.06,64.17 25.87,127.51 41.86,191.73 25.52,102.53 56.52,206.47 94.74,318.8 16.32,47.98 33.96,97.53 52.96,147.98 -18.8,-0.44 -38.98,2.73 -61.49,9.87 -85.72,27.23 -135.48,111.29 -111.29,187.72 40.95,129.04 216.97,215.28 402.07,298.59 13.52,23.57 27.4,46.94 41.63,69.97 71.08,115.05 150.13,220.75 228.33,315.03 77.59,93.58 155.57,177.39 224.2,248.18 67.6,69.76 126.44,127.05 185.31,179.87 59.05,52.98 116.53,100.12 181.28,149.44 44.82,34.16 94.11,70.06 145.43,106.05 -30.37,5.4 -57.99,20.58 -86.36,48.99 -63.5,63.71 -68.92,161.26 -12.21,217.9 102.78,102.53 320.63,89.78 538.46,77.03 1.3,-23.5 2.62,-47 3.78,-70.33 14.43,7.06 28.94,13.85 43.66,20.46 68.55,30.78 140.95,57.01 227.24,81.07 62.64,17.45 132.28,33.74 205.79,48.3 11.5,18.95 27.33,37.52 47.1,57.19 -80.89,19.65 -126.75,49.2 -148.67,127.56 -24.17,86.63 18.86,174.35 96.06,195.95 139.82,39.05 323.51,-78.73 507.2,-196.53 -20.4,-41.58 -40.79,-83.11 -61.61,-123.2 96.46,7.95 191.51,11.98 284.39,11.26 105.26,-0.85 207.35,-7.74 305.2,-21.85 97.84,-14.11 160.74,-29.53 192.36,-37.01 31.61,-7.49 62.89,-15.51 93.94,-23.96 65.46,-17.83 132.13,-38.31 199.34,-59.71 6.14,2.09 12.54,4.11 19.17,6.08 -61.83,55.76 -88.14,103.54 -70.18,182.92 19.93,87.7 99.47,144.41 177.66,126.7 141.61,-32.12 247.2,-223.06 352.78,-414.03l-13.02 -9.27 18.96 -3.22c107.69,-18.45 204.1,-39.51 295.25,-63.41 90.18,-23.64 174.7,-50.1 259.73,-79.58 88.74,-30.78 177.18,-64.55 260.28,-100.03 18.22,-7.79 36.28,-15.66 54.05,-23.66 49.08,30.4 109.57,33.42 156.48,2.39 44.47,-29.46 76.83,-77.27 101.51,-136.67 35,-21.46 68.21,-43.38 100.24,-65.8 59.23,-41.48 112.35,-83.06 163.96,-125.68 52.24,-43.18 104.2,-88.44 159.17,-143.2 54.28,-54.05 110.83,-116.94 172.33,-195.55 28.23,-36.11 57.46,-75.42 87.03,-117.32 48.11,63.5 130.96,85.93 194.42,49.41 125.8,-72.49 170.34,-286.08 214.86,-499.71 -39.75,-13.16 -79.49,-26.33 -118.66,-38.49 26.65,-54.15 51.89,-109.09 75.74,-164.27 67.23,38.72 150.02,28.71 194.9,-27.24 90.78,-113.3 54.52,-328.46 18.22,-543.65l-9.29 0.49c27.81,-93.98 51.54,-182.71 71.61,-269.16 23.43,-101.03 42.25,-199.78 57.13,-300.84 14.78,-100.49 25.88,-204.18 33.05,-307.34 7.09,-102.55 10.29,-205.44 9.33,-304.88 -0.52,-56.19 -2.34,-110.25 -5.11,-162.09 36.84,50.26 77.45,74.6 145.93,72.32 89.9,-3.06 160.56,-70.52 157.9,-150.66 -4.92,-145.1 -172.57,-284.76 -340.26,-424.39l-19.48 18.59c-4.82,-27.21 -9.82,-53.72 -15.08,-79.71 -12.77,-63.1 -26.54,-120.62 -41.63,-174.95 -8.08,-29.06 -16.54,-57.36 -25.63,-85.61l0.83 -9.27c67.29,49.07 119.45,65.01 193.45,31.1 81.74,-37.52 120.89,-127.04 87.49,-199.93 -58.7,-127.89 -256.39,-192.01 -458.41,-254.17l-15.28 -31.72c-35.41,-72.69 -74.34,-146.22 -115.25,-213.38 -75.62,-124.13 -155.97,-222.05 -234.84,-318.09l-38.26 -47c-56.47,-69.04 -112.63,-137.71 -174.62,-204.36 45.9,-4.8 81.36,-24.57 114.18,-69.99 52.61,-72.96 42.51,-170.13 -22.48,-217.08 -99.98,-72.13 -268.65,-49.09 -447.71,-11.64 -29.71,-20.07 -61.62,-40.95 -96.08,-62.92 -91.96,-58.61 -202.69,-125.1 -316.83,-189.51 -105.22,-59.4 -211.25,-116.06 -305.78,-162.11 -102,-49.71 -195,-89.55 -285.41,-122.34 -16.52,-6 -32.93,-11.75 -49.25,-17.27 48.09,-32.05 72.98,-70.22 75.65,-135.48 3.59,-89.88 -58.49,-165.31 -138.61,-168.58 -112.73,-4.52 -229.42,89.2 -346.97,204.85 -28.45,-4.54 -57.29,-8.72 -86.53,-12.57 -96.53,-12.65 -196.74,-21.57 -301.26,-27.16 -108.16,-5.79 -221.98,-8.09 -337.69,-5.81 -106.63,2.08 -213.98,8.11 -318.82,18.84 -75.32,7.69 -149.67,17.82 -223.53,30.61 1.62,-16.22 0.55,-33.88 -3.39,-53.69 -16.45,-83.05 -89.85,-138.46 -163.9,-123.78 -111.72,22.13 -202.73,148.67 -290.31,292.68 -94.3,31.2 -188.84,66.93 -281.86,105.77zm277.15 17.82c104.41,78.08 207.61,150.25 301.91,177.41l-25.08 5.66c-90.61,20.83 -181.72,46.7 -267.84,74.42l-8.5 2.75c-0.7,-6.76 -1.76,-13.76 -3.2,-21.06 -16.46,-83.04 -89.85,-138.45 -163.9,-123.78 -127.53,25.26 -228.09,186.63 -327.33,354.65 -37.84,21.6 -74.07,43.92 -111.96,68.18 -53.79,34.42 -113.49,74.47 -176.34,118.36 -56.85,39.86 -115.23,82.48 -172.45,126.24l-5.22 4.01c7.6,-42.35 -3.96,-89.9 -35.34,-128.38 -39.1,-47.94 -79.65,-62.45 -134.4,-59.2 13.89,-11.31 28.02,-22.51 42.39,-33.63 76.58,-59.31 160.56,-116.27 250.21,-171.02 89.9,-54.88 185.44,-107.49 284.99,-157.94 102.87,-52.16 210.31,-102.18 319.26,-147.65 77.64,-32.4 155.63,-62.34 232.8,-89.02zm919.09 84.52c-27.74,3.11 -56.41,6.75 -87.16,10.67l-54.83 6.62c-85.17,10.57 -184.91,22.92 -290.85,40.4 28.87,-34.02 42.36,-83.3 32.3,-133.96 -13,-65.65 -45.88,-97.54 -103.54,-120.76 93.32,-18.36 187.14,-32.19 282.6,-41.95 102.53,-10.48 206.63,-16.36 309.32,-18.38 111.59,-2.2 222.76,0.09 329.53,5.82 101.93,5.44 199.17,14.06 292.22,26.28l1.12 0.14 -1.02 1.06c138.61,168.51 277.1,337.04 422.21,342.86 80.11,3.25 148.09,-67.02 151.66,-156.87 0.67,-16.6 -0.23,-31.54 -2.71,-45.22 70.12,27.32 143.75,59.84 224.08,98.98 85.66,41.74 176.25,89.56 264.48,138.66 -94.4,14.42 -199.64,46.7 -304.88,79.01l10.04 53.67c-50.82,-22.55 -101.51,-41.99 -155.27,-60.62 -64.94,-22.53 -134.31,-43.78 -210.49,-64.69 -77.59,-21.27 -159.79,-41.73 -249.32,-62.31 -99.05,-22.79 -210.5,-46.61 -318.94,-66.41l-16.94 -3.05c19.58,-19.87 32.44,-45.68 39.38,-81.46 16.08,-83.11 -30.97,-162.12 -105.08,-176.48 -134.19,-26.01 -297.51,98.51 -460.85,223.06l2.94 4.93z"/>
 </g>
</svg>
