<?xml version="1.0" encoding="UTF-8"?>
<!DOCTYPE svg PUBLIC "-//W3C//DTD SVG 1.1//EN" "http://www.w3.org/Graphics/SVG/1.1/DTD/svg11.dtd">
<!-- Creator: CorelDRAW 2020 (64-Bit) -->
<svg xmlns="http://www.w3.org/2000/svg" xml:space="preserve" width="210mm" height="297mm" version="1.1" shape-rendering="geometricPrecision" text-rendering="geometricPrecision" image-rendering="optimizeQuality" fill-rule="evenodd" clip-rule="evenodd"
viewBox="0 0 21000 29700"
 xmlns:xlink="http://www.w3.org/1999/xlink"
 xmlns:xodm="http://www.corel.com/coreldraw/odm/2003">
 <g id="Capa_x0020_1">
  <metadata id="CorelCorpID_0Corel-Layer"/>
  <path id="aro_x0020_4.svg" fill="#A2662E" d="M-1804.48 -795.95c1.27,-2.66 2.38,-5.27 3.33,-7.86 3.87,29.2 7.47,58.37 10.77,87.46 -4.38,-26.23 -9.08,-52.78 -14.1,-79.6zm-2314.33 -2774.9c-190.84,-36.55 -395.06,-60.56 -610.43,-66.94 -233.9,-6.95 -481.16,6.89 -726.48,42.84 -232.66,34.11 -464.27,88.35 -681.64,163.86 -215.63,74.9 -416.85,170.69 -602.06,281.64 -30.07,18.02 -59.7,36.43 -88.9,55.2 162.27,-132.54 339.37,-250.78 536.98,-350.38 227.18,-114.51 481.78,-204.59 745.98,-261.87 252.83,-54.82 514.65,-79.55 769.73,-66.83 249.38,12.44 492.58,60.78 725,136.42 196.51,63.94 385.48,147.41 564.2,245.17l-44.82 -16.78c-177.1,-64.93 -373.95,-121.46 -587.56,-162.33zm2309.98 2711.72c-2.83,-3.56 -6.12,-6.74 -9.9,-9.55 -27.25,-133.11 -62.05,-271.76 -104.31,-410.9 -62.47,-205.73 -141.28,-413.23 -236.1,-606.48 -98.12,-199.97 -213.24,-384.61 -339.75,-550.63 -132.24,-173.5 -277.22,-327.09 -428.6,-457.14 -112.54,-96.69 -228.7,-180.39 -351.52,-252.96 47.61,23.95 93.97,49.23 139.43,76.09 135.93,80.29 264.59,174.99 395.15,291.19 130.88,116.43 263.73,254.39 387.02,424.74 123.18,170.2 237.1,373.23 330.41,620.13 94.22,249.32 167.39,543 212.51,837.51 1.94,12.67 3.82,25.34 5.66,38zm-74.67 1800.96c-6.28,-4.65 -12.77,-9.21 -19.49,-13.64 44.94,-93.27 87.73,-189.89 126.06,-293.48 73.66,-199.11 128.98,-419.91 147.52,-683.89 18.38,-261.15 0.75,-565.64 -45.72,-869.2 -46.63,-304.53 -122.33,-608.29 -219.85,-866.29 -20.02,-52.96 -40.96,-104.02 -62.71,-153.29 34.01,53.8 66.43,108.5 97.16,164.33 109.51,198.9 197.75,412.62 259.48,650.65 58.97,227.37 93.83,477.63 108.49,724.74 16.13,272.15 7.64,539.94 -20.25,768.92 -26.4,217.04 -70.16,398.62 -128.08,560.67l-6.16 16.99c-6.7,5.28 -13.05,10.59 -19.01,15.91 -42.42,37.86 -64.09,75.07 -74.89,93.7 -10.85,18.57 -10.85,18.57 -23.4,2.31 -12.6,-16.3 -37.75,-48.87 -80.99,-87.3 -11.49,-10.22 -24.27,-20.85 -38.16,-31.13zm-6424.19 -860.28c32.56,197.51 80.88,401.82 150.44,606.54 69.42,204.32 160.07,408.75 277.48,606.84 113.82,192.04 252.52,377.55 413.17,550.46 148.23,201.85 316.51,385.1 491.82,544.14 258.16,234.19 531.33,415.91 809,581.89 -69.03,-17.39 -134.82,-36.54 -198.37,-57.78 -111.4,-37.25 -216.38,-81.09 -320.31,-133.3 -104.48,-52.53 -207.2,-113.03 -307.98,-182.12 -101.39,-69.52 -201.86,-148.31 -301.27,-237.01 -99.38,-88.69 -197.43,-186.96 -292.48,-300.54 -95.1,-113.69 -187.75,-243.33 -276.56,-394.81 -90.54,-154.52 -177.07,-332.09 -251.45,-516.57 -71.41,-177.17 -131.38,-360.52 -172.62,-535.63 -41.83,-177.7 -64.27,-346.7 -73.08,-511.15 -7.95,-148.96 -4.69,-295.01 5.49,-441 7.58,135.83 23.05,276.44 46.72,420.04zm1747.68 2463.27c115.71,62.84 234.97,119.8 356.06,170.16 238.33,99.15 484.04,173 724.1,216.01 231.75,41.53 458.98,54.39 677.13,43.86 234.59,-11.29 458.34,-49.77 666.07,-108.54 175.64,-49.91 339.89,-114.56 498.02,-193.28 27.98,29.4 57.09,58.63 86.61,87.4 -81.64,34.48 -163.68,66.22 -245.22,94.66 -204.95,71.53 -408.32,122.74 -604.84,158.46 -226.59,41.21 -444.73,61.56 -646.13,68.57 -187.53,6.48 -359.66,1.28 -517.6,-12.12 -63.08,-5.34 -124.01,-12.02 -182.86,-19.78 -274.43,-156.29 -548.72,-313.12 -811.34,-505.4zm-695.53 -4000c31.39,-75 62.77,-149.99 86.63,-230.55 23.87,-80.56 40.2,-166.67 21.63,-226.8 -18.55,-60.14 -72,-94.29 -127.36,-110.86 106.05,-154.34 212.1,-308.67 335.89,-447.89 117.7,-132.36 251.45,-251.05 385.98,-369.07 -0.79,0.12 -1.58,0.23 -2.37,0.35 7.73,-6.24 15.49,-12.47 23.29,-18.69 74.09,-59.03 152.15,-116.8 245.82,-169.58 88.8,-50.03 191.63,-95.57 298.56,-139.8 29.47,-12.85 59.19,-25.21 89.13,-37.07 15.11,-5.98 30.27,-11.85 45.49,-17.57 188.64,-70.99 385.56,-122.07 586.16,-150.23 209.3,-29.36 422.94,-33.94 630.47,-19.66 228.68,15.72 450.48,54.37 651.44,107.99 190.74,50.85 362.13,115.12 520.65,196.73 158.07,81.39 304.09,180.43 444.57,301.14 143.82,123.59 281.9,269.92 408.12,435.5 121.34,159.26 231.67,336.16 325.58,527.53 91.42,186.3 167.48,386.69 227.87,585.52 44.11,145.27 79.8,289.49 106.96,426.68 10.3,58.87 20.6,117.75 30.9,176.62 39.42,261.81 45.97,492.98 22.6,737.14 -1.98,20.68 -4.16,41.32 -6.52,61.96 -1.06,1.5 -2.12,2.99 -3.19,4.47 -9.95,68.11 -19.9,136.22 -29.85,204.33 0.27,-0.26 0.53,-0.52 0.81,-0.78l-43.64 229.37c-3.09,14.84 -5.82,27.68 -8.66,39.14l2.27 -1.91c-15.59,64.53 -33.58,129.38 -54.81,194.26 -4.85,14.88 -9.9,29.77 -15.12,44.66 -0.08,0.23 -0.15,0.45 -0.24,0.68 -6.4,0.12 -12.84,0.5 -19.31,1.13 -55.92,5.47 -112.88,30.2 -156.47,73.35 -58,57.41 -92.4,147.32 -76.2,241.83 1.85,10.81 4.38,21.68 7.52,32.61 10.33,24.4 20.66,48.81 40.8,83.35 20.14,34.53 50.1,79.18 80.06,123.84 14.56,17.54 30.04,35.14 46.33,52.72 39.38,42.5 83.33,85 126.08,124.27 -44.01,61.13 -91.15,121.61 -142.22,181.37 -7.28,8.51 -14.63,17 -22.05,25.49 -5.85,-7.79 -11.93,-15.45 -18.2,-22.97 -39.94,-47.93 -87.63,-90.03 -135.21,-120 -9.3,-5.41 -18.6,-10.8 -32.29,-17.28 -13.7,-6.47 -31.79,-14.01 -64.21,-21.75 -32.42,-7.74 -79.15,-15.68 -123.08,-13.82 -43.93,1.87 -85.04,13.53 -126.14,25.19 -36.85,14.16 -73.35,32.44 -107.58,52.92 -42.98,31.11 -85.96,62.22 -119.12,91.99 -33.16,29.77 -56.52,58.19 -79.87,86.62 -16.9,23.7 -28.63,43.86 -36.7,57.77 -17.9,30.74 -17.9,30.74 -38.69,3.83 -20.8,-26.93 -62.38,-80.75 -133.84,-144.28 -24.92,-22.15 -53.48,-45.49 -85.1,-67.17 -7.65,-3.77 -15.31,-7.55 -22.95,-11.29 -23.78,-11.26 -47.56,-22.52 -98.06,-35.47 -50.51,-12.94 -127.73,-27.58 -212,-8.54 -84.27,19.04 -175.58,71.75 -240.17,146.74 -64.59,74.97 -102.45,172.22 -105.78,261.83 -3.32,89.6 27.9,171.55 59.12,253.51 38.31,75.03 91.49,151.09 155.19,227.4 -139.57,67.14 -284.5,122.88 -438.72,166.96 -197.81,56.2 -410.97,92.82 -634.36,103.6 -207.02,10 -423.4,-2.35 -645.12,-42.09 -230.46,-41.3 -466.23,-112.12 -694.81,-207.21 -229.6,-95.49 -451.99,-215.32 -654.42,-353.99 -199.05,-136.38 -379.37,-291.35 -537.97,-458.89l-16.2 -17.24c-155.3,-212.41 -287.58,-447.42 -378.44,-693.63 -10.25,-27.8 -20.01,-55.79 -29.26,-83.95 -34.84,-116.27 -56.36,-189.97 -72.68,-267.57 -0.01,-0.03 -0.01,-0.06 -0.02,-0.09 -6.09,-28.96 -11.45,-58.47 -16.51,-90.94 -17.86,-101.31 -33.6,-205.62 -40.13,-322.93 -7.98,-143.07 -2.29,-305.47 14.8,-479.7 9.59,-75.98 19.19,-151.96 28.78,-227.94 -0.6,0.95 -1.2,1.91 -1.78,2.88 3.85,-27.85 7.87,-55.88 12.03,-84.05 15.29,-103.53 32.45,-208.93 49.6,-314.33 32.46,-133.75 71.43,-265.66 115.96,-394.31 18.02,-52.07 36.95,-103.54 56.68,-154.32 53.26,31.02 105.49,58.06 141.23,76.68 54.58,28.5 70.72,37.36 78.75,41.77 8.05,4.45 8.05,4.45 36.23,-41.09 23.62,-38.19 67.09,-108.47 107.44,-176.42zm206.5 -1304.05c117.94,-96.86 245.56,-187.5 382.06,-269.3l0.24 -0.15c176.8,-105.95 369.17,-197.52 575.56,-269.19 68.05,-23.64 137.69,-45.14 208.51,-64.49 -22.74,8.37 -45.37,17 -67.86,25.92 -216.24,85.66 -421.72,196.62 -610.11,328.53 -103.31,72.33 -201.32,150.9 -294.25,235.93 -105.13,101.13 -210.27,202.27 -291.79,295.89 -81.52,93.63 -139.42,179.74 -196.42,272.09 -40.75,66.02 -81.03,135.22 -121.18,205.34 -9.64,11.84 -18.12,26.99 -28.72,46.31 -22.57,41.16 -54.79,101.25 -87.01,161.34l-8.94 -5.02c-34.82,-19 -82.64,-39.14 -131.85,-34.63 -49.23,4.52 -99.86,33.72 -129.72,80.99 -29.88,47.3 -38.96,112.66 -13.55,173.3 21.08,50.23 65.86,97.19 124.15,141.4 -24.4,61.44 -47.56,123.8 -69.42,186.91 -85.45,246.81 -151.16,506.54 -190.88,769.7 -12.18,80.65 -21.89,161.59 -28.98,242.61 -11.31,67.1 -17.12,133.3 -17.12,196.8 0,27.36 1.1,54.57 3.27,81.55 -1.15,104.44 2.37,208.56 10.88,311.9 13,158.17 37.68,314.48 75.26,467.27 -24.24,-59.61 -46.46,-119.49 -66.82,-179.39 -66.52,-195.8 -112.99,-392.68 -144.54,-584.07 -30.48,-184.88 -46.87,-363.9 -49.85,-533.14 9.01,4.82 14,7.6 17.5,9.5 8.04,4.44 8.04,4.44 36.22,-41.1 28.15,-45.51 84.46,-136.57 130.12,-214.96 45.72,-78.38 80.73,-144.1 99.48,-199.65 18.73,-55.58 21.17,-100.99 -2.08,-141.28 -23.32,-40.27 -72.3,-75.42 -116.58,-90.83 -32.44,-11.31 -62.31,-12.04 -90.88,-3.81 21.27,-80.24 47.19,-157.42 77.83,-233.69 52.67,-131.03 119.95,-260.17 202.17,-398.11 81.44,-136.63 176.7,-280.6 287.13,-423.08 50.41,36.8 66.6,49.17 75.05,55.63 9.37,7.17 9.37,7.17 53.77,-45.23 16.64,-19.67 39.55,-46.72 65.53,-77.65 54.52,-61.68 109.05,-123.36 152.23,-178.13 43.18,-54.77 75.01,-102.64 98.47,-139.22 23.46,-36.58 38.54,-61.86 53.63,-87.14 13.64,-26.58 23.69,-51.63 29.49,-75.65zm-978.2 85.28c20.74,81.65 86.09,163.86 173.27,244.3 40.43,37.29 85.57,74.22 128.72,107.74 -68.59,94.61 -133.92,190.62 -195.1,286.73 -126.43,198.68 -234.86,397.83 -317.31,586.08 -64.84,148.05 -113.58,289.37 -150.53,426.61l-2.17 -1.21c-34.83,-19 -82.64,-39.13 -131.86,-34.62 -49.23,4.51 -99.85,33.72 -129.73,80.97 -29.86,47.31 -38.94,112.68 -13.54,173.32 25.42,60.57 85.35,116.45 161.86,168.42 11.25,7.64 22.86,15.19 34.67,22.62 -9.56,72.49 -16.86,144.5 -22.61,216.41 -13.28,166.92 -18.34,334.33 -9.13,506.82 9.25,172.86 32.75,350.07 76.5,535.9 42.79,181.73 105.08,372.17 179.29,556.24 76.68,190.21 166.36,374.09 260.64,534.98 92.74,158.21 189.93,294.14 290.02,413.75 100.14,119.68 202.81,222.65 306.51,315.17 103.63,92.47 208.89,174.97 315.61,248.14 107.33,73.6 215.46,137.38 324.26,192.07 109.39,54.97 220.5,101.34 339.01,140.95 117.79,39.35 242.64,71.86 380.26,99.37 136.81,27.32 286.61,49.76 450.6,63.68 39.97,3.38 80.73,6.28 122.34,8.62 35.77,3.11 71.54,6.21 107.3,9.31 92.61,2.53 185.22,5.06 295.58,-0.12 110.3,-5.17 238.33,-18.04 366.38,-30.91 0.07,0 0.15,-0.02 0.21,-0.02 100.59,-11.16 203.99,-25.99 309.49,-45.17 202.77,-36.87 413.18,-89.92 626.11,-164.2 103.69,-36.16 207.68,-77.23 310.51,-122.22 88.39,80.64 172.55,152.25 233.46,204.37 112.82,96.5 145.82,126.07 162.33,140.86 16.51,14.8 16.51,14.8 107.36,-76.85 90.85,-91.63 272.55,-274.92 422.36,-434.22 149.84,-159.31 267.77,-294.64 341.94,-414.96 69.6,-112.89 100.65,-212.57 77.12,-313.03 -1.55,-6.62 -3.34,-13.23 -5.36,-19.86l-0.28 -0.93c20,-22 39.46,-44.06 58.36,-66.19 50.66,-59.28 97.55,-119.05 141.36,-179.27 16.13,13.92 31.03,26.62 44.14,37.84 68.24,58.42 88.24,76.31 98.2,85.24 10,8.96 10,8.96 64.97,-46.5 54.96,-55.46 164.89,-166.35 255.55,-262.74 90.66,-96.4 162.03,-178.28 206.91,-251.1 44.89,-72.79 63.24,-136.52 43.43,-201.41 -19.87,-64.9 -77.96,-130.96 -135.83,-167.4 -48.53,-30.57 -96.89,-40.36 -146.88,-33.39 43.24,-142.63 76.59,-299.49 98.39,-478.65 28.83,-236.78 37.62,-513.45 20.98,-794.32 -15.15,-255.39 -51.42,-514.96 -112.92,-752.08 -64.78,-249.83 -157.45,-474.19 -272.44,-683.07 -114.51,-208.02 -250.92,-400.3 -403.73,-586.88 -159.55,-194.87 -337.52,-384.07 -534.38,-559.08 -179.34,-159.43 -374.49,-307.03 -585.79,-436.3 -231.14,-141.39 -481.75,-260.83 -745.84,-346.76 -244.17,-79.47 -499.85,-130.26 -762.28,-143.35 -267.19,-13.32 -541.45,12.6 -806.41,70.05 -276.12,59.87 -542.21,154.04 -779.75,273.75 -232.9,117.4 -438.28,259.16 -624.69,418.95 -62.27,53.39 -122.34,108.7 -180.57,165.72 -8.17,-5.44 -16.37,-10.33 -24.56,-14.63 -53.22,-27.96 -104.2,-30.05 -156.06,-11.98 -51.86,18 -104.62,56.07 -139.18,92.2 -34.59,36.1 -51.01,70.18 -59.2,87.27 -8.23,17.02 -8.23,17.02 -20.33,3.59 -12.15,-13.41 -36.44,-40.18 -76.96,-70.88 -40.57,-30.71 -97.36,-65.34 -160.65,-68.96 -63.27,-3.63 -132.98,23.79 -179.84,78.07 -46.87,54.28 -70.78,135.44 -50.09,217.15z"/>
 </g>
</svg>
