<?xml version="1.0" encoding="UTF-8"?>
<!DOCTYPE svg PUBLIC "-//W3C//DTD SVG 1.1//EN" "http://www.w3.org/Graphics/SVG/1.1/DTD/svg11.dtd">
<!-- Creator: CorelDRAW 2020 (64-Bit) -->
<svg xmlns="http://www.w3.org/2000/svg" xml:space="preserve" width="210mm" height="297mm" version="1.1" shape-rendering="geometricPrecision" text-rendering="geometricPrecision" image-rendering="optimizeQuality" fill-rule="evenodd" clip-rule="evenodd"
viewBox="0 0 21000 29700"
 xmlns:xlink="http://www.w3.org/1999/xlink"
 xmlns:xodm="http://www.corel.com/coreldraw/odm/2003">
 <g id="Capa_x0020_1">
  <metadata id="CorelCorpID_0Corel-Layer"/>
  <path id="aro_x0020_5.svg" fill="#A2662E" d="M4664.55 5134.46c47.69,25.53 96.02,49.91 145.04,73.22l-6.73 9.73c-46.9,-26.34 -93.11,-53.76 -138.57,-82.28l0.26 -0.67zm549.23 234.66c64.94,21.26 130.73,40.62 197.32,58.02 -8.15,15.48 -14.79,32.03 -19.62,49.37 -61.81,-20.31 -122.84,-42.38 -183.01,-66.14 2.84,-13.36 4.61,-27.13 5.31,-41.25zm1068.7 169.65c164.43,0 326.22,-11.56 484.53,-33.92 4.3,36.42 14.91,76.09 32.51,116.62 -121.52,13.45 -244.96,20.4 -370.04,20.4 -204.37,0 -404.46,-18.45 -598.69,-53.79 2.24,-13.68 3.41,-27.7 3.41,-42.04 0,-12.45 -0.89,-24.7 -2.56,-36.64 147.54,19.36 298.02,29.37 450.84,29.37zm1748.22 -477.65c15.1,49.02 30.86,97.54 46.56,144.32 -97.76,55.87 -198.58,106.92 -302.22,152.81 -4.49,-42.61 -12.67,-80.8 -23,-113.42 -3.41,-10.74 -7.01,-20.88 -10.89,-30.42 99.18,-46.59 195.77,-97.76 289.55,-153.29zm-4765.38 -4353.55c19.43,45.51 33.74,81.46 44.45,110.01 -210.15,447.36 -327.72,947.13 -327.72,1474.43 0,146.76 9.13,291.36 26.82,433.31 -40.9,-209.61 -62.38,-426.2 -62.38,-647.84 0,-500.46 109.32,-975.24 305.15,-1401.66l13.68 31.75zm925.65 -1047.7c-63.99,-20.69 -133.3,-26.41 -197.89,-19.08 597.33,-566.1 1402.95,-913.2 2289.4,-913.2 651.85,0 1259.99,187.72 1773.74,512.18 -484.6,-261.01 -1038.47,-409.09 -1626.74,-409.09 -854.29,0 -1636.12,312.24 -2238.51,829.19zm4628.67 4565.72c-54.64,50 -103.7,122.24 -139.93,181.56 -12.7,13.2 -25.46,26.31 -38.38,39.26 -13.67,13.74 -27.48,27.35 -41.41,40.84 -5.97,-45.1 -18.06,-131.3 -62.25,-221.99 -45.27,-92.86 -124.2,-190.34 -236.78,-201.93 -112.6,-11.63 -258.88,62.64 -327.36,200.76 -68.48,138.13 -59.19,340.13 -3.47,576.93 8.46,36.01 18,72.84 28.3,109.89 -103.32,62.32 -210.31,119.24 -320.51,170.25 -20.15,-17.21 -43.44,-29.53 -70.19,-37.9 -69.39,-21.73 -162.26,-17.09 -233.04,32.82 -69.08,48.67 -117.19,140.47 -155.03,177.26 -20.03,5.88 -40.12,11.6 -60.3,17.09 -17.15,-4.83 -35.95,-15.03 -59.79,-23.69 -51.08,-18.57 -125.34,-30.19 -193.25,-10.23 -54.68,16.04 -105.22,52.56 -128.27,114.06 -161.7,24.19 -327.12,36.76 -495.5,36.76 -170.57,0 -338.11,-12.88 -501.79,-37.68 -41.47,-52.43 -103.38,-85.72 -172.59,-85.72 -39.8,0 -77.19,11.02 -109.67,30.35 -105.62,-25.55 -209.32,-56.13 -310.75,-91.51 -38.03,-76.44 -113.17,-128.49 -199.68,-128.49 -28.53,0 -55.82,5.65 -80.93,15.98 -77.36,-35.19 -153.13,-73.22 -227.17,-114.03 -12.45,-121.13 -108.28,-215.35 -224.71,-215.35 -31.49,0 -61.47,6.88 -88.69,19.33 -158.32,-111.66 -306.52,-236.81 -442.94,-373.8 -113.56,-114.03 -218.96,-236.24 -315.27,-365.68 -326.04,-517.48 -514.8,-1130.93 -514.8,-1788.72 0,-491.74 105.47,-958.68 294.93,-1379.32 11.68,-5.47 26.59,-12.83 45.73,-22.3 86.49,-42.83 259.45,-128.5 458.55,-286.21 199.06,-157.74 424.27,-387.57 492.75,-563.98 57.67,-148.58 4.23,-259.32 -86.64,-326.07 577.84,-482.04 1320.51,-772.01 2130.67,-772.01 706.69,0 1361.98,220.61 1901.36,596.87 11.87,114.02 96.56,202.46 199.34,202.46 18.29,0 36.01,-2.81 52.85,-8.05 71.03,60.36 139.55,123.63 205.31,189.65 14.84,14.9 29.56,30 44.16,45.2 -4.71,20.28 -7.21,41.57 -7.21,63.55 0,136.52 96.63,247.2 215.84,247.2 17.24,0 34.05,-2.34 50.12,-6.7l12.29 16.36c64.31,102.09 123.29,207.94 176.51,317.07 -3.76,18.29 -5.75,37.3 -5.75,56.89 0,100.63 52.49,187.21 127.83,225.78 65.92,174.29 117.76,355.54 154.14,542.34 -78.68,40.88 -140.4,131.69 -141.28,265.14 -0.95,136.49 61.72,317.54 109.32,453.36 35.53,101.39 62.63,177.58 80.86,228.5 -24.83,280.46 -84.02,550.99 -173.41,807.29 -24.1,-25.71 -57.17,-55.53 -97.83,-74.7 -61.53,-29.03 -140.43,-33.68 -199.62,-24.39 -59.2,9.29 -98.68,32.5 -119.56,88.22 -20.91,55.72 -23.21,143.94 -9.29,232.17 13.9,88.22 44.1,176.41 143.91,283.2 11.53,12.35 24.01,24.92 37.18,37.65 -90.4,160.15 -193.53,312.08 -308.03,454.41 -20.28,11.97 -39.93,26.63 -58.88,44zm811.84 -1324.3c38.63,-158.79 66.36,-321.84 82.35,-488.36l39.13 -26.88 11.34 -7.84c-4.2,166.94 -20.53,330.78 -48.2,490.8 -31.87,2.33 -59.92,12.85 -84.62,32.28zm-542.85 1250.54c-13.86,-3.38 -27.57,-5.78 -41.06,-7.23 81.02,-109.07 155.79,-223.13 223.76,-341.55 31.33,26.38 63.99,52.31 96.21,76.92 -56.98,106.1 -119.46,208.78 -187.12,307.62 -30.22,-16.3 -61.43,-28.33 -91.79,-35.76zm261.45 208.41c-19.65,-41.03 -47.32,-77.16 -79.48,-107.61 67.53,-98.49 130.11,-200.67 187.41,-306.14 23.43,16.61 45.42,31.71 65.13,44.85 104.45,69.65 143.94,83.58 204.3,-10.42 60.33,-94.04 141.6,-296.03 185.73,-487.54 44.1,-191.54 51.04,-372.6 12.95,-480.31 -22.27,-62.92 -59.89,-100.82 -100.76,-121.92 33.45,-192.27 51.04,-389.97 51.49,-591.75 116.77,-83.42 259.13,-191.47 345.05,-284.81 120.72,-131.18 130.01,-233.3 91.73,-297.14 -38.32,-63.87 -124.23,-89.39 -203.14,-76.63 -78.93,12.76 -150.92,63.84 -186.9,89.39 -35.97,25.53 -35.97,25.53 -31.33,-8.11 4.64,-33.67 13.93,-101.02 5.81,-157.87 -8.11,-56.89 -33.67,-103.32 -95.39,-133.02 -11.24,-5.43 -23.72,-10.29 -37.08,-14.37 -47.48,-182.95 -109.54,-359.99 -184.78,-529.86 73.91,-39.27 125.14,-124.93 125.14,-224.36 0,-136.52 -96.62,-247.2 -215.83,-247.2 -49.46,0 -95.01,19.05 -131.4,51.11 -51.01,-82.35 -105.37,-162.42 -162.92,-239.97l-8.34 -13.11c42.7,-45.17 69.49,-109.82 69.49,-181.65 0,-136.52 -96.63,-247.2 -215.83,-247.2 -49.66,0 -95.39,19.21 -131.85,51.49 -60.29,-71.16 -123.41,-139.87 -189.17,-205.91l-12.06 -11.98c14.59,-31.9 22.89,-68.16 22.89,-106.7 0,-126.97 -89.86,-229.92 -200.76,-229.92 -52.27,0 -99.88,22.88 -135.6,60.37 -583.53,-454.91 -1316.37,-725.8 -2112.1,-725.8 -951.84,0 -1813.77,387.54 -2437.7,1014.03 -71.89,72.2 -140.62,147.6 -205.98,225.93l-0.88 -12.09c-5.81,-80.11 -17.41,-240.28 -75.43,-350.55 -58.06,-110.27 -162.51,-170.63 -273.92,-145.08 -111.44,25.52 -229.85,136.96 -271.64,297.14 -41.79,160.17 -6.95,369.12 52.97,565.02 36.23,118.48 81.65,232.16 123.06,329.7 -229.1,463.16 -357.91,985.13 -357.91,1537.23 0,774.06 253.26,1488.86 681.04,2065.42 136.55,216.21 296.25,416.18 475.69,596.38 79.26,79.57 162.33,155.28 248.97,226.83 -7.55,24.16 -11.65,50 -11.65,76.88 0,133.7 101.23,242.11 226.09,242.11 55.97,0 107.21,-21.8 146.69,-57.9 53.1,33.42 107.17,65.42 162.17,95.93 -1.4,10.86 -2.15,21.98 -2.15,33.26 0,133.71 101.23,242.11 226.1,242.11 69.74,0 132.09,-33.83 173.56,-86.96 73.63,29.25 148.49,56.04 224.49,80.27 19.96,111.84 111.78,196.34 222.05,196.34 73.09,0 138.07,-37.18 179.42,-94.83 207.99,39.33 422.59,59.99 641.96,59.99 146.03,0 289.97,-9.19 431.22,-26.88 12.7,17.05 26.69,33.89 42.07,50.35 106.2,113.52 277.97,208.72 381.29,262.1 103.32,53.41 138.12,65.01 168.32,73.13 30.17,8.15 55.72,12.79 113.75,-71.96 58.02,-84.71 148.58,-258.85 187.81,-413.53 13.11,-51.8 20.5,-101.39 23.4,-147.92 115.58,-49.37 227.93,-104.9 336.66,-166.15 25.26,72.34 48.54,136.96 66.17,187.85 52.21,150.89 54.55,181.09 71.96,207.78 17.4,26.69 49.9,49.9 164.81,-6.95 114.92,-56.89 312.27,-193.88 488.71,-364.51 176.41,-170.63 331.95,-374.91 412.05,-549.01 80.07,-174.14 84.71,-318.05 32.38,-427.37z"/>
 </g>
</svg>
