<?xml version="1.0" encoding="UTF-8"?>
<!DOCTYPE svg PUBLIC "-//W3C//DTD SVG 1.1//EN" "http://www.w3.org/Graphics/SVG/1.1/DTD/svg11.dtd">
<!-- Creator: CorelDRAW 2020 (64-Bit) -->
<svg xmlns="http://www.w3.org/2000/svg" xml:space="preserve" width="210mm" height="297mm" version="1.1" shape-rendering="geometricPrecision" text-rendering="geometricPrecision" image-rendering="optimizeQuality" fill-rule="evenodd" clip-rule="evenodd"
viewBox="0 0 21000 29700"
 xmlns:xlink="http://www.w3.org/1999/xlink"
 xmlns:xodm="http://www.corel.com/coreldraw/odm/2003">
 <g id="Capa_x0020_1">
  <metadata id="CorelCorpID_0Corel-Layer"/>
  <path id="aro_x0020_6.svg" fill="#A2662E" d="M17887.51 5989.55c-295.8,-85.43 -573.57,-213.38 -826.24,-376.81 15.38,-51 26.8,-120.04 19.11,-204.67 -0.95,-8.43 -1.9,-16.85 -9.99,-47.63 -8.09,-30.77 -23.31,-83.89 -42.5,-135.59 -19.19,-51.69 -42.33,-101.96 -57.55,-127.43 -15.21,-25.47 -22.49,-26.13 -39.03,-4.4 -16.53,21.73 -42.32,65.84 -68.11,109.95 -22.72,48.17 -44.63,108.67 -56.31,178.65 -2.61,15.64 -3.28,31.05 -2.33,46.1 -64.36,-51.53 -126.61,-105.53 -186.66,-161.86 27.18,-50.26 54.03,-121.63 61.74,-215.06 13.3,-161.81 -72.89,-332.52 -72.89,-332.52 0,0 -123.95,95.62 -191.47,270.21 -6.95,17.94 -11.02,36.08 -12.75,54.21 -34.6,-39.58 -68.21,-80.08 -100.79,-121.38 31.19,-43.14 63.02,-101.82 84.13,-178.75 42.91,-156.59 -10.37,-340.23 -10.37,-340.23 0,0 -139.35,71.08 -237.96,230.24 -6.87,11.09 -12.44,22.54 -16.91,34.2 -22.2,-34.77 -43.73,-70.03 -64.59,-105.73 43.63,-39.86 97.68,-104.87 136.1,-204.09 58.57,-151.33 24.34,-339.47 24.34,-339.47 0,0 -145.98,56.58 -260.21,204.92 -18.28,23.7 -30.03,49.87 -36.89,77.07 -28.11,-60.65 -54.34,-122.4 -78.61,-185.11 48.04,-29.01 105.15,-74.99 157.89,-147.12 95.77,-130.98 111.39,-321.62 111.39,-321.62 0,0 -155.62,16.94 -304.36,130.54 -24.09,18.41 -42.37,40.98 -56.09,65.83 -21.79,-76.7 -40.69,-154.6 -56.65,-233.57 44.54,-17.55 94.77,-44.56 146.41,-86.13 126.43,-101.76 190.82,-281.86 190.82,-281.86 0,0 -154.76,-23.93 -327.8,47.32 -20.16,8.28 -37.95,19.48 -53.7,32.68 -8.8,-82.84 -14.35,-166.66 -16.54,-251.28 51.26,-9.07 118.59,-30.79 190.74,-80.32 120.48,-82.64 190.67,-239.94 190.67,-239.94 0,0 -137.29,-32.16 -297.59,19.99 -32.19,10.44 -58.7,29.02 -80.51,51.94 6.75,-129.39 21.44,-256.65 43.49,-381.39 34.41,-1.44 75.3,-8.16 120.71,-24.99 106.98,-39.73 190.03,-145.39 190.03,-145.39 0,0 -12.95,-6.67 -35.74,-14.74 -29.7,-10.26 -75.58,-17.04 -112.34,-17.87 -36.76,-0.83 -79.09,3.8 -100.26,6.11 -10.23,1.12 -15.51,1.7 -18.24,2 3.94,-4.61 12.76,-24.26 31.48,-97.41 27.41,-107.06 70.08,-229.05 152.55,-439.21 -1.44,0.79 -2.87,1.57 -4.29,2.36 7.77,-17.36 15.71,-34.64 23.79,-51.83 154.85,-329.34 365.48,-627.25 619.76,-881.5 565.5,-565.53 1346.84,-915.31 2209.82,-915.31 326.79,0 641.8,50.15 937.9,143.22 -5.89,5.64 -11.41,11.89 -16.42,18.79 -50.38,69.22 -71.88,139.83 -80.76,180.7 -1.97,11.77 -3.93,23.53 -3.56,32.8 0.37,9.27 3.08,16.05 31.88,12.82 28.8,-3.23 83.71,-16.46 127.03,-40.25 43.33,-23.78 75.08,-58.13 106.84,-92.47 13.86,-14.12 25.6,-28.19 35.5,-41.75 118.31,46.29 233.08,99.61 343.85,159.39 -28.06,6.76 -54.91,18.95 -78.58,38.71 -65.63,54.82 -109.73,116.14 -137.27,163.28 -13.99,25.03 -27.98,50.07 -33.98,63.08 -6,13.02 -4.02,14.01 1.17,14.98 5.2,0.97 13.6,1.91 21.99,2.86 53.4,4.15 175.94,7.38 277.58,-36.64 78.78,-34.14 132.41,-78.61 167.4,-116.73 70.55,45.83 139.12,94.43 205.57,145.64 -19.39,6.3 -38.13,15.4 -55.74,27.96 -152.38,108.66 -214.39,252.41 -214.39,252.41 0,0 186.77,41.28 340.19,-11.72 63.76,-22.01 114.05,-50.82 152.85,-79.71 27.42,25.48 54.31,51.48 80.77,77.94 31.42,31.41 62.17,63.5 92.24,96.26 -30.72,-2.66 -62.09,0.44 -92.96,12.01 -175.31,65.54 -272.43,188.36 -272.43,188.36 0,0 169.79,88.13 331.65,76.68 93.76,-6.67 165.6,-32.79 216.2,-59.46 43.5,56.92 85.1,115.39 124.68,175.28 -31.63,-12.93 -65.91,-19.62 -102.24,-16.1 -186.36,17.86 -311.91,111.44 -311.91,111.44 0,0 141.16,129 300.46,159.86 113.64,22 202.8,6.83 259.57,-10.93 21.24,39.54 41.64,79.58 61.2,120.13 -18.45,-5.6 -37.92,-8.8 -58.33,-8.9 -187.17,-1.05 -321.52,79.12 -321.52,79.12 0,0 127.23,142.76 282.64,189.72 86.48,26.04 160.46,28.06 216.48,22.02 20.24,55.23 38.93,111.21 56.07,167.85 -23.44,-16.3 -49.98,-28.46 -79.87,-34.24 -183.77,-35.62 -330.64,18.54 -330.64,18.54 0,0 98.72,163.77 242.82,238.49 95.74,49.65 180.31,62.28 239.53,62.97 17.74,87.98 31.78,177.35 41.95,267.85 -19.18,-19.56 -41.95,-35.93 -68.92,-47.18 -21.52,-8.97 -42.75,-16.46 -63.44,-22.7 -21.8,-5.42 -43.59,-10.84 -81.36,-13.1 -37.76,-2.26 -91.5,-1.37 -123.32,-0.92 -31.83,0.44 -41.75,0.44 -37.45,20.29 4.3,19.84 22.82,59.53 46.45,98.4 23.63,38.87 52.37,76.92 81.11,114.98 12.55,13.07 25.88,25.52 40,36.98 58.74,47.68 115.73,76.44 164.51,93.73 21.64,13.3 43.27,26.59 54.09,33.24 10.82,6.65 10.82,6.65 9.5,49.65 -1.32,42.99 -3.97,128.98 -9.47,196.32 -5.49,67.34 -13.83,116.01 -22.17,164.7 3.7,-6.92 7.28,-13.96 10.73,-21.11 -67.17,602.02 -305.34,1152.39 -664.86,1601.38l1.49 -7.85c-103.01,120.71 -206.01,241.43 -287,323.64 -80.99,82.21 -139.97,125.91 -198.95,169.61 -244.79,196.74 -519.85,357.38 -817.09,473.79 -6.95,2.72 -13.9,5.42 -20.88,8.09 -6,2.33 -13.4,5.23 -23.14,9.05 -24.59,9.65 -64.03,25.2 -98.73,37.76 -34.7,12.58 -64.65,22.18 -105.61,34.13 -40.97,11.96 -92.95,26.27 -140.54,38.27 -47.59,12.01 -90.77,21.7 -133.89,30.41 -43.11,8.72 -86.15,16.46 -126.71,22.98 -40.55,6.52 -78.62,11.81 -122.35,16.81 -43.72,5.02 -93.12,9.76 -155.3,13.46 -62.18,3.71 -137.14,6.39 -215.4,6.14 -78.24,-0.25 -159.78,-3.42 -241.73,-9.89 -81.95,-6.46 -164.32,-16.23 -235.61,-26.85 -71.3,-10.6 -131.53,-22.06 -194.35,-36.96 -62.84,-14.91 -128.28,-33.27 -193.72,-51.62zm-2164.41 -3744.99c-2.27,2.64 -2.93,0.32 -2.93,0.32 0,0 0,0 2.93,-0.32zm911.16 3436.66c-253.78,71.32 -328.64,218.26 -328.64,218.26 0,0 222.13,145.18 398.5,99.59 117.02,-30.27 197.4,-108.83 247,-175.66 521.48,332.54 1140.77,525.28 1805.09,525.28 350.37,0 688.22,-53.6 1005.8,-153.06 84.83,-30.39 169.67,-60.8 254.49,-91.19 421.53,-170.57 800.6,-424.13 1116.92,-740.45 608.39,-608.38 984.7,-1448.89 984.7,-2377.21 0,-15.3 -0.13,-30.53 -0.34,-45.8 78.63,-9.92 174.09,-38.84 252.49,-112.93 132.41,-125.14 127.56,-390.46 127.56,-390.46 0,0 -164.26,-14.72 -359.55,162.29 -13.33,12.08 -25.92,25.99 -37.74,41.09 -10.79,-105.63 -26.51,-209.8 -46.85,-312.28 75.89,-25.29 165.64,-73.05 228.61,-163.15 104.45,-149.31 46.01,-408.26 46.01,-408.26 0,0 -163.83,18.84 -319.37,231.77 -10.17,13.91 -19.28,29.32 -27.53,45.72 -19.17,-64.98 -40.23,-129.11 -63.15,-192.38 75.45,-36.83 170.55,-103.24 221.86,-216.65 75.08,-165.94 -30.08,-409.67 -30.08,-409.67 0,0 -157.58,48.67 -271.14,286.57 -11.74,24.63 -20.31,52.45 -26.48,81.55 -27.99,-60.87 -57.78,-120.78 -89.22,-179.64 62.85,-45.92 129.95,-115.11 163.05,-214.04 57.8,-172.74 -71.56,-404.51 -71.56,-404.51 0,0 -151.81,64.43 -240.65,312.67 -4.28,11.98 -7.79,24.58 -10.66,37.62 -43.62,-66.04 -89.5,-130.45 -137.54,-193.11 56.33,-61.41 118.54,-155.6 125.96,-276.72 11.11,-181.87 -173.85,-372.13 -173.85,-372.13 0,0 -129.91,101.55 -151.45,364.31 -1.26,15.4 -1.21,31.41 -0.07,47.73 -30.36,-32.86 -61.37,-65.13 -93.01,-96.78 -30.47,-30.47 -61.55,-60.31 -93.14,-89.59 45.19,-70.8 105.89,-198.98 76.1,-345.06 -36.25,-178.48 -264.16,-314.5 -264.16,-314.5 0,0 -99.24,131.73 -51.97,391.07 5.32,29.22 15.93,59.32 29.53,88.85 -80.96,-63.52 -164.91,-123.39 -251.59,-179.41 24.68,-66.88 41.2,-155.02 14.69,-248.33 -44.89,-157.84 -258.87,-264.27 -258.87,-264.27 0,0 -80.05,125.07 -19.9,354.72l1.23 4.41c-110.46,-57.93 -224.5,-109.87 -341.78,-155.43 4.87,-54.21 -0.52,-121.07 -36.84,-184.01 -63.97,-110.95 -246.2,-150.84 -246.2,-150.84 0,0 -33.69,100.6 41.54,251.52 -308.85,-93.52 -636.47,-143.84 -975.85,-143.84 -928.32,0 -1768.82,376.3 -2377.21,984.71 -412.71,412.72 -718.57,932.27 -872.63,1513.59 -85.6,-130.8 -181.54,-154.04 -181.54,-154.04 0,0 -63.09,175.58 -3.11,288.74 31.82,60.15 81.02,99.15 126.95,124.15 -22.08,121.56 -37.69,245.37 -46.31,371.09 -161.57,-170.52 -308.59,-169.25 -308.59,-169.25 0,0 -23.62,237.81 86.22,359.75 64,71.04 145.98,104.02 215.14,118.99 2.32,104.16 9.38,207.12 20.94,308.76 -17.74,-27.13 -37.49,-51.97 -59.33,-71.95 -194.54,-177.85 -358.85,-163.89 -358.85,-163.89 0,0 -5.99,265.37 125.9,390.97 108.89,103.84 251.33,119.92 335.06,118.97 17.59,88.52 38.66,175.78 63.06,261.64 -15.31,-11.63 -31.03,-21.86 -47.04,-30.18 -233.96,-121.46 -389.03,-65.45 -389.03,-65.45 0,0 62.78,257.82 222.76,345.1 110.13,60.12 227.04,55.24 309.6,38.87 29.63,76.88 62.03,152.39 97.04,226.43 -17.54,-7.13 -35.11,-12.86 -52.44,-16.68 -257.44,-56.69 -392.77,37.58 -392.77,37.58 0,0 127.55,232.81 304.59,275.7 107.93,26.15 207.84,1.77 281.72,-29.99 37.67,64.07 77.36,126.76 119.07,188.01 -36.96,-15.9 -75.01,-27.93 -111.25,-32.15 -261.9,-30.32 -386.94,77.25 -386.94,77.25 0,0 150.53,218.67 330.97,243.27 133.46,18.23 247.54,-36.24 318.27,-83.56 46.8,58.68 95.52,115.78 146.06,171.16 -29.79,-5.08 -59.24,-7.39 -86.86,-5.46 -262.98,18.5 -366.11,147.2 -366.11,147.2 0,0 188.27,187.21 370.24,178.15 121.15,-5.99 216.01,-67.09 278.09,-122.69 83.18,77.31 170.28,150.45 260.99,219.11 -33.17,0.62 -65.46,4.26 -94.61,12.44z"/>
 </g>
</svg>
