<?xml version="1.0" encoding="UTF-8"?>
<!DOCTYPE svg PUBLIC "-//W3C//DTD SVG 1.1//EN" "http://www.w3.org/Graphics/SVG/1.1/DTD/svg11.dtd">
<!-- Creator: CorelDRAW 2020 (64-Bit) -->
<svg xmlns="http://www.w3.org/2000/svg" xml:space="preserve" width="210mm" height="297mm" version="1.1" shape-rendering="geometricPrecision" text-rendering="geometricPrecision" image-rendering="optimizeQuality" fill-rule="evenodd" clip-rule="evenodd"
viewBox="0 0 21000 29700"
 xmlns:xlink="http://www.w3.org/1999/xlink"
 xmlns:xodm="http://www.corel.com/coreldraw/odm/2003">
 <g id="Capa_x0020_1">
  <metadata id="CorelCorpID_0Corel-Layer"/>
  <path id="aro_x0020_7.svg" fill="#A2662E" d="M-6721.62 12926.07c-13.35,18.55 -37.43,41.99 -59.57,55.34 -22.14,13.35 -42.33,16.6 -50.14,12.37 -7.81,-4.23 -3.25,-15.95 1.63,-28.32 4.89,-12.37 10.09,-25.39 16.93,-35.16 6.84,-9.77 15.3,-16.28 33.86,-24.09 18.56,-7.81 47.2,-16.93 60.22,-14.65 13.03,2.28 10.42,15.95 -2.93,34.51zm6088.73 -719.44c-22.14,-6.19 -46.88,-15.95 -68.37,-28.65 -21.49,-12.7 -39.72,-28.32 -43.95,-36.13 -4.23,-7.82 5.54,-7.82 23.77,-7.49 18.23,0.32 44.92,0.98 70.97,9.11 26.04,8.14 51.43,23.77 67.71,37.11 16.28,13.35 23.44,24.42 23.77,30.28 0.32,5.86 -6.19,6.51 -19.21,5.54 -13.02,-0.98 -32.56,-3.58 -54.69,-9.77zm302.76 -94.09c-5.86,-16.27 -12.38,-34.5 -11.4,-58.92 0.98,-24.42 9.44,-55.02 15.3,-71.62 5.86,-16.6 9.12,-19.2 16.28,-11.06 7.16,8.13 18.23,27.01 22.13,53.71 3.91,26.69 0.66,61.2 -4.87,84.64 -5.54,23.44 -13.36,35.81 -19.87,34.83 -6.51,-0.97 -11.72,-15.3 -17.57,-31.58zm-1564.27 4412.78c10.74,-23.77 30.92,-55.02 46.87,-68.69 15.96,-13.67 27.68,-9.77 32.89,-1.31 5.2,8.47 3.9,21.49 -10.43,42 -14.32,20.51 -41.66,48.51 -57.62,63.81 -15.95,15.3 -20.5,17.9 -22.13,11.06 -1.63,-6.83 -0.33,-23.11 10.42,-46.87zm-2873.61 -5731.25c-18.23,1.95 -37.11,1.95 -54.36,-1.63 -17.26,-3.58 -32.88,-10.74 -41.02,-19.21 -8.14,-8.46 -8.79,-18.23 7.81,-24.74 16.61,-6.51 50.46,-9.77 77.48,-5.86 27.02,3.91 47.21,14.97 56.65,23.11 9.44,8.14 8.14,13.35 -1.3,17.91 -9.44,4.56 -27.03,8.46 -45.26,10.42zm1757.95 5871.55c58.6,-9.76 126.31,-1.95 161.47,7.17 35.16,9.11 37.77,19.53 4.56,48.18 -33.2,28.65 -102.22,75.52 -177.1,112.63 -74.87,37.12 -155.61,64.47 -216.48,78.69 -60.88,14.23 -101.9,15.34 -125.99,15.99 -24.09,0.65 -31.25,0.84 -21.81,-12.73 9.44,-13.58 35.48,-40.92 74.55,-74.13 39.07,-33.21 91.15,-72.27 141.94,-105.48 50.78,-33.2 100.26,-60.55 158.86,-70.32zm-2263.84 -272.81c-35.81,-24.09 -25.39,-31.9 -12.37,-34.5 13.02,-2.61 28.65,0 82.69,1.95 54.04,1.95 146.49,3.26 233.09,11.72 86.6,8.46 167.33,24.09 211.6,41.67 44.28,17.58 52.09,37.11 39.72,51.43 -12.37,14.33 -44.93,23.44 -107.43,28 -62.5,4.56 -154.96,4.56 -242.21,-15.62 -87.24,-20.19 -169.28,-60.56 -205.09,-84.65zm4290.05 -676.15c21.49,-16.6 25.4,-9.43 17.91,30.93 -7.49,40.37 -26.37,113.94 -45.9,164.08 -19.53,50.13 -39.72,76.83 -50.14,87.24 -10.41,10.42 -11.06,4.56 -13.02,-5.85 -1.95,-10.42 -5.21,-25.4 -6.18,-35.82 -0.98,-10.41 0.32,-16.27 0.32,-39.39 0,-23.11 -1.3,-63.48 17.58,-103.84 18.88,-40.37 57.95,-80.74 79.43,-97.35zm675.52 -1072.01c-8.79,-24.75 -19.86,-52.74 -24.42,-85.62 -4.56,-32.88 -2.6,-70.64 2.28,-87.9 4.88,-17.25 12.7,-14 25.72,3.25 13.02,17.26 31.25,48.51 42.32,79.44 11.07,30.93 14.98,61.53 12.37,88.22 -2.6,26.69 -11.72,49.49 -18.88,60.55 -7.16,11.07 -12.37,10.42 -18.23,-0.65 -5.86,-11.06 -12.37,-32.55 -21.16,-57.29zm-1901.5 -3800.12c-21.48,10.75 -59.9,19.21 -90.82,23.77 -30.93,4.55 -54.37,5.21 -58.28,-2.93 -3.9,-8.14 11.72,-25.07 34.19,-39.07 22.46,-14 51.76,-25.06 77.15,-27.67 25.39,-2.6 46.88,3.26 57.62,6.18 10.74,2.94 10.74,2.94 8.47,9.45 -2.28,6.51 -6.84,19.53 -28.33,30.27zm-2376.52 267.92c-3.25,-16.93 -3.25,-43.63 -1.63,-61.53 1.63,-17.9 4.89,-27.02 11.72,-41.99 6.84,-14.98 17.25,-35.81 25.39,-34.84 8.15,0.98 14,23.77 14.65,49.49 0.65,25.71 -3.9,54.36 -10.41,74.87 -6.51,20.51 -14.98,32.88 -22.47,35.48 -7.48,2.61 -13.99,-4.55 -17.25,-21.48zm-1818.84 1952.95c-4.88,11.39 -14.64,8.79 -25.71,-8.46 -11.07,-17.26 -23.44,-49.16 -29.3,-72.93 -5.86,-23.76 -5.21,-39.39 -2.6,-46.22 2.6,-6.84 7.16,-4.89 17.9,7.49 10.74,12.37 27.67,35.16 36.13,59.24 8.47,24.1 8.47,49.49 3.58,60.88zm-27.01 1505.97c14.98,66.75 5.86,82.37 -12.7,81.07 -18.55,-1.31 -46.55,-19.53 -74.87,-52.09 -28.32,-32.55 -56.97,-79.43 -79.44,-136.73 -22.46,-57.3 -38.73,-125.01 -50.78,-183.61 -12.05,-58.6 -19.86,-108.08 -20.18,-130.22 -0.33,-22.13 6.83,-16.93 32.23,7.49 25.39,24.42 69.01,68.04 110.36,148.78 41.34,80.73 80.41,198.58 95.38,265.31zm683 -2706.91c-29.95,69.67 -53.39,106.13 -76.18,124.36 -22.78,18.23 -44.92,18.23 -55.34,-13.67 -10.42,-31.9 -9.11,-95.71 18.23,-166.68 27.35,-70.97 80.74,-149.1 117.2,-194.02 36.46,-44.93 55.99,-56.65 69.67,-55.35 13.67,1.3 21.48,15.63 7.16,74.23 -14.33,58.6 -50.79,161.47 -80.74,231.13zm408.89 4773.82c42.32,45.57 80.08,91.15 124.35,152.35 44.28,61.2 95.06,138.03 116.55,197.28 21.48,59.25 13.67,100.92 3.26,119.8 -10.42,18.88 -23.44,14.98 -65.76,-17.57 -42.33,-32.56 -113.94,-93.76 -175.15,-192.73 -61.2,-98.96 -111.99,-235.7 -133.47,-307.97 -21.49,-72.27 -13.68,-80.08 13.67,-61.2 27.35,18.88 74.23,64.46 116.55,110.04zm-1511.19 -2311.39c-6.52,87.25 -22.79,201.19 -42.65,273.14 -19.86,71.94 -43.3,101.89 -58.6,111.98 -15.3,10.1 -22.46,0.33 -31.58,-25.72 -9.11,-26.04 -20.18,-68.36 -25.07,-112.31 -4.88,-43.95 -3.57,-89.52 7.49,-140.31 11.07,-50.79 31.91,-106.78 52.74,-155.61 20.84,-48.83 41.67,-90.5 57.95,-115.9 16.28,-25.39 27.99,-34.5 35.48,-8.78 7.49,25.71 10.75,86.27 4.24,173.51zm1092.53 1442.18c-24.74,8.46 -70.31,18.87 -125.01,13.02 -54.69,-5.86 -118.5,-28 -158.86,-45.58 -40.37,-17.58 -57.3,-30.6 -50.79,-38.41 6.51,-7.82 36.46,-10.42 77.48,-7.82 41.02,2.61 93.11,10.42 143.24,20.84 50.14,10.42 98.32,23.43 120.45,33.2 22.14,9.77 18.23,16.28 -6.51,24.75zm-257.83 -4176.11c-54.04,36.46 -87.89,49.48 -109.38,52.74 -21.49,3.25 -30.6,-3.26 -30.6,-14.32 0,-11.08 9.11,-26.7 35.81,-44.28 26.69,-17.58 70.96,-37.11 121.75,-62.51 50.78,-25.39 108.08,-56.64 139.99,-72.26 31.9,-15.63 38.41,-15.63 4.55,14.32 -33.85,29.95 -108.08,89.85 -162.12,126.31zm2538.32 -1206.47c-55.02,-11.07 -98.64,-25.39 -137.38,-45.9 -38.74,-20.51 -72.6,-47.21 -88.88,-62.18 -16.28,-14.98 -14.97,-18.23 1.96,-20.84 16.92,-2.6 49.48,-4.56 95.71,6.52 46.22,11.06 106.13,35.15 160.49,62.17 54.37,27.02 103.2,56.97 128.26,71.95 25.07,14.97 26.37,14.97 -6.18,11.07 -32.56,-3.91 -98.96,-11.72 -153.98,-22.79zm-109.06 364.29c-80.08,26.36 -134.78,23.11 -165.05,15.3 -30.28,-7.81 -36.14,-20.19 -30.28,-32.23 5.86,-12.05 23.44,-23.77 60.55,-36.46 37.12,-12.7 93.76,-26.37 164.4,-40.7 70.65,-14.32 155.29,-29.29 201.19,-36.78 45.9,-7.49 53.06,-7.49 3.9,20.51 -49.15,27.99 -154.63,83.99 -234.71,110.36zm1331.16 -158.22c-12.05,-21.81 -19.2,-47.86 -22.79,-60.88 -3.58,-13.02 -3.58,-13.02 11.4,-7.16 14.97,5.86 44.92,17.58 66.41,44.28 21.48,26.69 34.51,68.36 38.41,88.87 3.91,20.51 -1.3,19.86 -10.74,14.97 -9.44,-4.88 -23.11,-13.99 -38.42,-27.34 -15.3,-13.35 -32.23,-30.93 -44.27,-52.74zm1100.35 576.87c-35.49,-49.81 -61.53,-118.82 -74.56,-153.33 -13.02,-34.51 -13.02,-34.51 1.63,-30.28 14.65,4.24 43.95,12.7 73.9,34.84 29.95,22.13 60.55,57.94 86.27,106.45 25.72,48.51 46.55,109.71 52.09,137.38 5.53,27.67 -4.23,21.82 -31.58,3.58 -27.34,-18.23 -72.27,-48.83 -107.75,-98.64zm-70 282.9c-71.62,-20.18 -154.96,-55.99 -212.26,-92.45 -57.29,-36.46 -88.54,-73.57 -95.38,-95.71 -6.84,-22.14 10.74,-29.3 49.16,-22.46 38.41,6.83 97.67,27.67 159.19,54.03 61.53,26.37 125.34,58.28 177.1,89.86 51.76,31.57 91.48,62.83 108.4,78.78 16.93,15.95 11.08,16.6 -21.81,14.65 -32.88,-1.96 -92.78,-6.51 -164.4,-26.7zm1290.45 1897.3c-5.86,-49.49 -4.56,-96.37 12.37,-144.55 16.93,-48.18 49.48,-97.66 71.62,-123.71 22.14,-26.04 33.86,-28.64 47.53,-3.9 13.68,24.74 29.3,76.83 23.44,139.98 -5.86,63.16 -33.21,137.39 -56,190.12 -22.78,52.74 -41.01,83.99 -51.43,96.37 -10.42,12.36 -13.02,5.85 -20.84,-23.44 -7.81,-29.31 -20.83,-81.39 -26.69,-130.87zm-182.31 139.33c-34.5,-26.05 -99.61,-82.04 -153.01,-141.94 -53.39,-59.9 -95.05,-123.71 -128.26,-180.35 -33.21,-56.65 -57.95,-106.13 -69.67,-136.73 -11.71,-30.6 -10.41,-42.32 2.61,-43.62 13.02,-1.31 37.76,7.81 70.32,35.8 32.55,28 72.92,74.88 117.84,138.69 44.93,63.8 94.41,144.54 128.92,205.09 34.51,60.55 54.04,100.92 61.85,123.06 7.82,22.13 3.91,26.04 -30.6,0zm40.69 1293.72c14,-20.19 36.14,-44.28 59.26,-60.56 23.11,-16.27 47.2,-24.74 69.99,-30.27 22.79,-5.53 44.27,-8.14 55.67,-5.53 11.39,2.6 12.69,10.42 4.23,26.69 -8.46,16.28 -26.7,41.02 -63.48,66.09 -36.79,25.06 -92.13,50.46 -120.46,59.9 -28.32,9.44 -29.62,2.93 -27.34,-8.47 2.28,-11.39 8.14,-27.67 22.13,-47.85zm-717.5 1323.66c51.76,-18.87 130.54,-48.18 188.49,-61.53 57.94,-13.34 95.06,-10.74 119.48,-7.15 24.41,3.58 36.13,8.13 25.39,22.46 -10.75,14.32 -43.95,38.41 -92.13,59.25 -48.18,20.83 -111.34,38.41 -171.24,44.6 -59.9,6.18 -116.55,0.97 -144.54,-4.56 -28,-5.53 -27.35,-11.39 -14.65,-18.56 12.69,-7.16 37.44,-15.62 89.2,-34.51zm-2250.52 1418.07c-57.29,-35.81 -140.64,-97.66 -209,-158.21 -68.36,-60.55 -121.75,-119.81 -143.89,-150.73 -22.13,-30.93 -13.02,-33.53 27.02,-25.07 40.04,8.46 111.01,28 174.49,56.97 63.49,28.97 119.48,67.39 174.17,117.52 54.69,50.14 108.08,111.99 135.75,150.41 27.68,38.41 29.63,53.39 18.89,60.22 -10.74,6.84 -34.19,5.54 -61.53,0 -27.35,-5.53 -58.6,-15.3 -115.9,-51.11zm-1214.29 -621.14c13.03,-13.68 24.1,-24.09 49.16,-30.28 25.07,-6.18 64.14,-8.14 87.25,-8.46 23.11,-0.33 30.27,0.98 27.67,10.41 -2.6,9.44 -14.98,27.03 -38.41,43.63 -23.44,16.6 -57.95,32.23 -86.92,41.34 -28.98,9.12 -52.42,11.72 -65.11,9.12 -12.7,-2.61 -14.65,-10.42 -8.14,-22.79 6.51,-12.37 21.48,-29.3 34.5,-42.97zm-71.62 200.86c7.17,-19.21 22.79,-19.86 31.58,-17.25 8.8,2.6 10.75,8.46 22.14,25.72 11.39,17.25 32.23,45.9 40.7,78.13 8.46,32.22 4.55,68.04 -2.29,85.29 -6.83,17.25 -16.6,15.95 -33.2,0 -16.6,-15.95 -40.04,-46.55 -52.42,-80.74 -12.36,-34.18 -13.67,-71.94 -6.51,-91.15zm-1194.92 -871.38l-0.3 0c-70.28,-51.33 -133.63,-102.61 -195.78,-157.91 -61.84,-55.02 -120.53,-112.42 -182.16,-176.54l-0.9 -0.93c67.84,4.61 144.64,0.29 194.61,-8.06 65.76,-11 85.04,-28.99 94.68,-59.2 9.64,-30.21 9.64,-72.62 -13.5,-111.83 -23.14,-39.2 -69.4,-75.19 -143.95,-93.83 -74.56,-18.64 -177.38,-19.92 -278.28,-42.84 -58.22,-13.22 -115.8,-33.64 -164.82,-52.63 -23.82,-32.95 -47.08,-66.71 -69.54,-101.24 -59.74,-91.8 -114.84,-190.23 -163.01,-291.69 -46.89,-98.76 -87.07,-200.26 -118.45,-301.15 -28.44,-91.44 -49.61,-182.2 -66.07,-274.52 34.29,52.67 73.76,112.86 107.45,154.86 58.63,73.09 99.75,91.09 139.6,80.8 39.85,-10.28 78.41,-48.84 84.19,-120.83 5.78,-71.97 -21.2,-177.37 -82.89,-294.34 -61.71,-116.96 -158.11,-245.5 -229.05,-368.97 -34.34,-59.78 -62.72,-118.36 -85.92,-167.78 -2.69,-116.68 -0.13,-232.86 11.03,-342.54 11.05,-108.7 30.92,-211.76 58.93,-315.9 14.34,-53.27 30.71,-106.53 49.05,-160.7 16.81,24.03 37.3,59.92 58.4,89.81 30.85,43.7 62.98,74.55 98.98,88.69 35.99,14.14 75.83,11.57 101.54,-16.07 25.7,-27.64 37.27,-80.33 17.35,-140.1 -19.92,-59.77 -71.33,-126.61 -111.48,-195.31 -22.21,-38.02 -40.97,-76.6 -57.11,-109.37 35.21,-84.46 74.09,-171.7 116.39,-259.8 55.46,-115.52 118.07,-234.65 187.57,-353.52 62.13,-106.3 128.45,-209.83 201.49,-308.19 -6.73,21.73 -11.9,43.75 -14.23,64.88 -8.36,75.83 19.91,140.1 61.04,177.37 41.14,37.28 95.12,47.55 151.04,19.29 55.91,-28.29 113.75,-95.13 152.31,-217.88 38.56,-122.75 57.84,-301.41 77.11,-408.74 6.9,-38.36 13.78,-67.6 21,-90.63 84.72,-64 176.37,-124.35 274.16,-181.86 143.92,-84.65 301.49,-163.4 470.14,-238.85 47.54,-21.27 95.92,-42.26 144.83,-62.78 -0.36,3.98 -1.28,8.89 -2.67,15 -7.71,34.06 -29.56,104.75 -35.34,164.52 -5.79,59.77 4.5,108.61 28.28,140.11 23.78,31.48 61.05,45.61 95.12,30.19 34.06,-15.42 64.9,-60.4 80.98,-136.24 16.06,-75.84 17.34,-182.53 20.8,-250.43 0.75,-14.78 1.6,-27.72 2.14,-39.17 72.59,-27.82 145.39,-54.15 217.37,-78.41 165.06,-55.63 325.4,-100.3 468.3,-126.99 25.84,-4.82 51.11,-9.05 75.95,-12.73 -78.67,31.78 -154.89,69.67 -197.79,97.11 -55.27,35.35 -55.27,53.34 -35.34,77.76 19.92,24.42 59.76,55.27 107.97,73.27 48.2,17.99 104.74,23.12 187.65,3.85 82.91,-19.29 192.17,-62.98 286.63,-113.75 87.56,-47.06 162.42,-100.18 212.82,-130.73 63.88,9.93 130.55,22.42 201.77,37.06 174.18,35.8 375.37,84.46 577.58,144.17 7.25,2.15 14.51,4.3 21.76,6.47 -27.49,9.72 -54.47,20.75 -75.14,32.87 -47.4,27.77 -61.53,61.18 -51.25,87.54 10.29,26.35 44.98,45.62 71.98,53.99 26.99,8.35 46.27,5.78 82.9,-14.79 36.64,-20.57 90.62,-59.12 141.68,-84.82 8.85,-4.46 17.61,-8.52 26.32,-12.21 94.2,31.94 186.33,66.21 273.56,102.61 135.49,56.53 258.83,118.16 371.88,185.11 -37.09,-4.31 -74.08,-5.62 -104.91,-0.52 -78.06,12.92 -116.62,66.9 -116.62,113.82 0,46.91 38.56,86.75 136.89,142.03 98.33,55.26 256.43,125.96 383.68,160.66 108.99,29.72 195.34,33.06 261.9,41.07 58.52,64.45 113.21,131.02 164.41,198.48 78.43,103.35 149.92,210.78 215.13,316.95 -71.43,-20.81 -176.45,-54.05 -239.92,-53.42 -77.59,0.77 -93.01,52.17 -84.02,92.67 9,40.49 42.42,70.04 95.12,89.32 52.7,19.28 124.68,28.28 195.37,52.71 69.02,23.84 136.79,62.37 182.82,81.94 18.5,35.99 36.17,72.07 53.02,108.44 53.03,114.52 98.34,232.57 136.34,360.93 38.29,129.3 69.35,269 91.74,409.57 0.9,5.64 1.78,11.28 2.65,16.92 -52.84,-75.64 -123.91,-173.78 -184.73,-242.27 -81.32,-91.58 -144.3,-130.13 -202.79,-127.56 -58.48,2.57 -112.46,46.27 -120.17,101.54 -7.72,55.27 30.84,122.11 102.82,211.44 71.98,89.33 177.38,201.16 263.5,305.92 77.66,94.47 139.64,183.18 179.96,236.44 -0.38,101.27 -6.63,198.32 -17.6,292.62 -14.05,120.85 -35.58,235.36 -62.29,347.16 -14.14,59.22 -29.87,118.21 -47.59,177.58 -4.9,-31.69 -11.22,-64.01 -19.96,-91.71 -23.54,-74.57 -64.66,-115.69 -112.23,-124.05 -47.56,-8.35 -101.54,16.07 -118.25,66.19 -16.71,50.13 3.85,125.98 26.34,238.44 22.16,110.76 46.18,257.05 65.5,332.43 -13.24,29.05 -27.1,58.45 -41.61,88.24 -61.74,126.76 -134.16,258.63 -210.8,382.56 -72.53,117.26 -149.6,228.88 -225.87,324.06 -8.62,10.76 -17.22,21.3 -25.83,31.64 2.28,-14.8 3.6,-29.54 3.58,-43.8 -0.06,-65.65 -28.34,-120.92 -64.33,-152.41 -35.99,-31.49 -79.69,-39.21 -122.75,-20.57 -43.06,18.64 -85.47,63.62 -111.83,128.53 -26.34,64.91 -36.63,149.75 -47.56,223.01 -10.92,73.27 -22.48,134.97 -39.84,190.24 -6.26,19.93 -13.26,39.02 -19.36,56.26 -14.19,11.23 -28.43,22.43 -42.72,33.62 -80.37,62.93 -163.64,126.66 -255.68,190.58 -46.63,32.37 -94.54,64.05 -144.1,94.63 2.27,-20.79 1.44,-43.95 -4.09,-69.18 -11.57,-52.69 -43.7,-114.39 -82.26,-133.67 -38.57,-19.28 -83.55,3.85 -124.68,57.19 -41.14,53.35 -78.41,136.9 -130.22,222.19 -29.73,48.94 -64.25,98.46 -92.04,140.77 -5.17,2.11 -10.33,4.22 -15.49,6.31 -117.54,47.51 -232.12,87.05 -329.91,115.45 -174.04,50.58 -298.41,66.89 -448.55,86.58l-60.4 7.97 -3.02 0.4c89.68,-41.62 177.89,-94.13 228.09,-145.86 63.62,-65.55 66.19,-129.82 28.91,-174.17 -37.27,-44.34 -114.39,-68.75 -219.8,-59.75 -105.39,8.99 -239.07,51.4 -348.32,116.31 -109.25,64.91 -194.09,152.32 -285.99,218.53 -49.57,35.71 -101.19,65.25 -145.49,89.53 -28.11,-1.48 -56.13,-3.31 -83.89,-5.45 -94.47,-7.28 -184.84,-18.28 -264.69,-31.4 41.42,-16.96 84.99,-39.63 110.4,-69.4 41.12,-48.2 34.71,-115.04 -8.35,-145.89 -43.07,-30.85 -122.75,-25.7 -229.13,3.2 -88.86,24.15 -196.31,64.88 -271.99,95.62 -13.25,-5.83 -26.74,-11.92 -40.56,-18.29 -70.66,-32.57 -147.04,-71.02 -226.12,-113.14 -77.88,-41.51 -161.4,-88.21 -246.92,-137.59 79.67,7.24 168.56,9.69 236.29,3.97 101.69,-8.59 155.67,-35.57 147.95,-89.56 -7.71,-53.98 -77.11,-134.96 -206.93,-173.52 -129.83,-38.56 -320.05,-34.7 -478.8,-41.13 -73.42,-2.97 -140.09,-8.14 -196.16,-12.53 -12.41,-8.8 -24.62,-17.59 -36.61,-26.35zm-694.54 -288.54c7.16,19.53 16.27,52.09 16.27,78.45 0,26.37 -9.11,46.56 -16.6,56 -7.49,9.44 -13.35,8.14 -21.16,-1.63 -7.82,-9.77 -17.58,-28 -23.44,-44.27 -5.86,-16.28 -7.81,-30.61 -2.6,-50.46 5.2,-19.86 17.58,-45.26 26.37,-54.7 8.78,-9.44 13.99,-2.92 21.16,16.61zm558.24 378.73c9.35,29.11 21.55,72.68 65.09,182.62 51.41,129.82 146.54,352.19 237.15,491.01 90.61,138.82 176.74,194.09 251.28,199.23 74.55,5.14 137.53,-39.84 131.11,-129.82 -6.43,-89.97 -82.27,-224.94 -143.96,-316.2 -42.83,-63.35 -78.84,-105.63 -104.53,-137.43 42.47,25.58 85.17,50.8 127.67,75.51 93.78,54.54 188.88,107.88 281.37,157.17 84.43,44.97 163.68,84.97 233.96,117.36 26.23,12.09 51.59,23.31 76.56,33.77 9.1,13.35 19.06,31.31 31.5,57.61 28.27,59.77 69.41,162.59 108.62,230.71 39.2,68.13 76.47,101.55 120.82,111.83 44.35,10.29 95.75,-2.57 122.75,-39.21 26.99,-36.63 29.56,-97.03 8.95,-159.19 -11.27,-33.97 -29.46,-68.47 -46.27,-98.33 9.18,1.73 18.48,3.42 27.93,5.08 90.25,15.84 195.49,29.19 306.46,37.74 80.48,6.2 164.82,9.82 249.52,9.93 26.92,24.2 62.36,57.6 112.86,103.57 110.47,100.56 292.98,261.24 418.3,342.86 125.33,81.61 193.45,84.19 241.01,69.4 47.56,-14.78 74.55,-46.9 77.76,-92.54 3.22,-45.63 -17.35,-104.75 -71.34,-163.24 -53.98,-58.49 -141.39,-116.32 -241.83,-173.56 -66.24,-37.76 -138.16,-75.25 -195.72,-104.53 96.28,-9.58 187.18,-21.63 270.29,-32.64l60.4 -7.96c156.47,-20.53 286.06,-37.53 471.44,-91.39 103.38,-30.03 223.1,-71.26 344.38,-120.29 30.01,-12.13 60.21,-24.78 90.37,-37.9 12.14,4.82 25.52,10.53 40.33,17.25 88.37,40.09 227.19,115.93 316.53,157.05 89.33,41.14 129.17,47.57 167.08,39.85 37.92,-7.71 73.91,-29.55 86.12,-61.05 12.21,-31.49 0.64,-72.62 -23.14,-110.55 -23.78,-37.91 -59.76,-72.61 -124.03,-100.25 -64.1,-27.56 -156.32,-48.08 -216.67,-61.44 104.45,-56.5 198.87,-116.25 287.02,-177.46 89.81,-62.37 176.88,-129.12 262.31,-196 36.09,-28.26 71.75,-56.44 107.04,-85.21 59.86,-4.45 134.18,-9.17 219.7,-16.53 119.53,-10.28 260.92,-25.7 354.75,-44.34 93.84,-18.64 140.1,-40.49 171.59,-70.05 31.5,-29.57 48.21,-66.84 39.21,-107.34 -8.99,-40.48 -43.69,-84.18 -97.68,-101.53 -53.99,-17.35 -127.25,-8.35 -219.35,12.63 -53.95,12.3 -114.35,28.71 -165.08,42.29 28.5,-31.74 57.06,-65.32 85.76,-101.15 79.73,-99.48 160.5,-216.53 236.72,-339.74 80.99,-130.94 156.05,-267.3 218.63,-395.79 26.35,-54.09 50.7,-107.17 73.26,-159.54 7.54,-4.23 15.36,-8.47 23.45,-12.67 57.66,-29.96 129.65,-58.24 202.27,-89.09 72.63,-30.85 145.89,-64.26 177.37,-120.82 31.5,-56.56 21.22,-136.25 -22.49,-178.66 -43.7,-42.42 -120.82,-47.56 -184.12,-25.6 -18.85,6.54 -36.47,15.49 -52.71,25.86 15.09,-52.47 28.88,-105.2 41.62,-158.53 28.55,-119.55 51.37,-240.3 65.91,-365.25 11.83,-101.71 18.37,-207.48 18.31,-319.24 37.07,-48.9 90.71,-130.84 138.01,-235.65 47.56,-105.39 88.68,-233.94 91.89,-328.41 3.22,-94.48 -31.48,-154.88 -75.83,-185.73 -44.34,-30.85 -98.33,-32.14 -143.32,-6.43 -32.93,18.82 -61.04,52.11 -82.99,79.11 -19,-92.61 -41.43,-183.18 -66.88,-269.12 -40.38,-136.41 -88.28,-261.32 -144.18,-382.01 -19.7,-42.56 -40.36,-84.53 -61.98,-126.23 20.06,-39.96 48.87,-101.4 61.69,-165.51 15.43,-77.12 7.71,-158.1 -15.42,-205.01 -23.15,-46.92 -61.7,-59.77 -101.54,-62.97 -39.85,-3.23 -80.98,3.19 -104.55,45.41 -10.72,19.19 -17.8,45.76 -22.12,73.57 -57.67,-91.04 -121.02,-183.88 -191.06,-276.19 -43.25,-56.99 -88.73,-113.27 -136.61,-168.17 -35.68,-84.27 -95.23,-213.32 -158.16,-326.93 -72.62,-131.1 -149.75,-241.64 -228.16,-288.55 -78.4,-46.92 -158.09,-30.21 -187.66,10.28 -21.77,29.82 -16.35,72.55 -3.9,111.46 -134.04,-83.67 -281.74,-159.6 -446.01,-228.15 -44.04,-18.38 -89.31,-36.23 -135.45,-53.54 -7.66,-5.32 -15.48,-10.92 -23.26,-16.8 -34.06,-25.71 -67.47,-56.54 -113.75,-114.38 -46.27,-57.85 -105.39,-142.68 -170.95,-179.31 -65.55,-36.64 -137.53,-25.08 -162.59,0.63 -25.06,25.71 -3.22,65.56 31.48,110.55 19.23,24.92 42.41,51.42 65.26,75.24 -204.86,-60.44 -410,-109.98 -588.45,-146.66 -48.88,-10.04 -95.78,-19.12 -141.26,-27.12 -41.34,-22.79 -92.49,-49.98 -148.53,-82.05 -93.18,-53.35 -199.87,-120.18 -291.77,-156.81 -91.91,-36.64 -169.02,-43.07 -224.93,-39.85 -55.93,3.21 -90.62,16.06 -102.19,46.27 -11.57,30.21 0,77.76 24.42,110.54 24.43,32.78 61.69,50.77 136.48,75.29 13.81,4.53 28.91,9.28 44.7,14.12 -62.61,5.56 -127.08,14.49 -195.03,27.18 -150.72,28.14 -318.14,74.69 -489.39,132.41 -95.23,32.1 -191.8,67.7 -287.46,105.52 -26.5,-6.93 -55.8,-13.01 -85.68,-18.23 -74.79,-13.08 -153.2,-20.78 -210.4,-14.99 -57.2,5.78 -93.19,25.05 -109.9,52.04 -16.71,27 -14.14,61.7 5.79,88.69 11.95,16.2 30.16,29.62 55.03,40.13 -148.15,68.28 -287.98,139.72 -417.93,216.15 -98.91,58.17 -191.97,119.16 -278.5,183.77 -65.28,21.39 -141.79,50.74 -217.22,85.67 -130.47,60.4 -257.71,137.53 -336.12,192.16 -78.41,54.62 -107.96,86.76 -118.25,127.89 -10.28,41.13 -1.28,91.26 66.84,91.9 34.68,0.33 84.68,-12.17 133.81,-27.74 -85.69,112.62 -160.94,228.91 -229.93,346.94 -69.22,118.4 -133.85,241.8 -192.99,364.96 -47.89,99.75 -91.37,197.96 -130.13,292.14 -2.98,1.66 -6.12,3.35 -9.43,5.06 -52.05,27 -145.88,60.42 -211.44,104.76 -65.55,44.35 -102.82,99.62 -113.11,148.47 -10.28,48.83 6.42,91.25 47.56,115.04 37.96,21.94 96.71,28 144.95,21.74 -4.05,14.08 -7.98,28.12 -11.75,42.16 -29.81,110.81 -51.09,221.82 -63.17,340.6 -11.87,116.74 -14.5,240.43 -11.54,364.57 0.27,11.27 0.58,22.55 0.94,33.83 -32.8,67.55 -82.86,165.35 -130.11,269.73 -55.28,122.11 -106.69,253.22 -116.97,372.76 -10.28,119.53 20.57,227.5 53.99,285.34 33.42,57.84 69.4,65.55 109.9,44.99 40.49,-20.57 85.47,-69.41 121.57,-136.45 14.35,-26.67 27.3,-56.21 38.41,-85.84 16.18,82.43 36.16,163.72 61.51,245.23 33.43,107.5 76.28,215.71 126.28,321.04 50.94,107.28 109.49,211.82 173.24,309.77 22.57,34.7 45.69,68.43 69.15,101.18 -3.41,34.63 -10.47,83.51 -13.04,151.23 -3.21,84.84 0.64,199.25 15.43,279.58 14.78,80.34 40.48,126.6 82.26,147.81 41.77,21.21 99.6,17.36 131.1,-10.92 31.49,-28.28 36.63,-80.98 22.49,-155.53 -10.38,-54.71 -31.13,-121.2 -43.98,-168.21 45.96,52.5 91.91,102.05 136.37,148.31 65.61,68.25 127.13,128.5 190.6,184.97 50.44,44.88 103.42,88.46 162.21,133.03z"/>
 </g>
</svg>
