<?xml version="1.0" encoding="UTF-8"?>
<!DOCTYPE svg PUBLIC "-//W3C//DTD SVG 1.1//EN" "http://www.w3.org/Graphics/SVG/1.1/DTD/svg11.dtd">
<!-- Creator: CorelDRAW 2020 (64-Bit) -->
<svg xmlns="http://www.w3.org/2000/svg" xml:space="preserve" width="210mm" height="297mm" version="1.1" shape-rendering="geometricPrecision" text-rendering="geometricPrecision" image-rendering="optimizeQuality" fill-rule="evenodd" clip-rule="evenodd"
viewBox="0 0 21000 29700"
 xmlns:xlink="http://www.w3.org/1999/xlink"
 xmlns:xodm="http://www.corel.com/coreldraw/odm/2003">
 <g id="Capa_x0020_1">
  <metadata id="CorelCorpID_0Corel-Layer"/>
  <path id="aro_x0020_8.svg" fill="#A2662E" d="M10061.28 15819.84c604.74,-604.73 978.81,-1440.22 978.81,-2363.05 0,-786.87 -272.01,-1510.21 -727.05,-2081.18 56.88,-78.17 125.14,-230.57 160.29,-375.82 35.91,-148.38 37.28,-289.32 -6.76,-380.78 -44.05,-91.46 -133.48,-133.47 -204.62,-102.99 -71.15,30.5 -123.99,133.47 -136.86,270.34 -11.97,127.25 10.61,283.76 24.19,398.79 -28.77,-31.01 -58.09,-61.51 -88,-91.43 -169.8,-169.79 -357.76,-321.4 -560.76,-451.63 11.91,-44.27 21.5,-100.85 29.01,-168.07 13.55,-121.27 20.33,-277.11 -14.9,-420.75 -35.23,-143.63 -112.47,-275.07 -214.76,-329.28 -102.31,-54.2 -229.7,-31.16 -247.99,39.3 -18.29,70.46 72.49,188.36 153.8,308.27 81.29,119.94 153.13,241.89 176.83,342.83 14.2,60.49 11.14,113.43 4.09,157.82 -208.48,-122.27 -431.36,-222.58 -665.51,-297.79 -10.08,-12.26 -27.84,-26.98 -54.05,-44.31 -39.98,-26.43 -99.59,-58.94 -159.9,-125.34 -60.3,-66.41 -121.28,-166.67 -178.87,-261.54 -57.6,-94.85 -111.79,-184.27 -174.8,-235.78 -63.01,-51.48 -134.84,-65.03 -188.35,-52.16 -53.53,12.88 -88.78,52.16 -91.48,98.24 -2.72,46.08 27.1,98.92 65.05,146.35 37.94,47.43 84,89.43 111.78,120.59 27.78,31.18 37.27,51.5 -10.16,29.82 -47.43,-21.68 -151.77,-85.38 -267.61,-142.96 -115.87,-57.59 -243.25,-109.09 -331.99,-132.8 -88.76,-23.7 -138.91,-19.65 -161.94,14.23 -23.04,33.88 -18.98,97.57 11.52,159.9 30.48,62.33 87.41,123.31 210.72,187.67 50.7,26.48 112.6,53.52 175.55,78.71 -914.22,5.81 -1741.39,378.66 -2341.41,978.68 -604.73,604.74 -978.81,1440.24 -978.81,2363.07 0,634.61 176.9,1227.93 484.06,1733.28 -42.61,-42.04 -83.15,-82.72 -116.49,-116.32 -87.41,-88.09 -125.35,-127.37 -162.61,-205.98 -37.27,-78.59 -73.85,-196.48 -126.01,-326.57 -52.18,-130.07 -119.94,-272.36 -183.62,-357.72 -63.69,-85.37 -123.32,-113.82 -179.55,-128.05 -56.23,-14.23 -109.07,-14.23 -144.3,-2.72 -35.25,11.52 -52.86,34.57 -45.4,70.47 7.45,35.91 39.96,84.69 105.69,174.81 65.71,90.11 164.64,221.53 219.52,294.7 54.89,73.18 65.72,88.1 48.11,80.65 -17.62,-7.45 -63.69,-37.28 -132.79,-54.9 -69.11,-17.61 -161.27,-23.02 -194.45,6.12 -33.21,29.13 -7.47,92.81 49.45,147 56.91,54.21 144.98,98.93 232.39,135.51 87.39,36.59 174.12,65.06 251.36,113.84 77.24,48.78 144.99,117.87 273.05,226.27 93.22,78.91 218.39,178.66 318.54,252.44 54.8,70.83 112.33,139.44 172.52,205.6 -16.55,9.04 -34.63,17.52 -54.74,22.34 -48.11,11.52 -107.72,2.03 -176.83,-26.43 -69.11,-28.45 -147.71,-75.86 -239.18,-113.82 -91.46,-37.93 -195.8,-66.4 -268.29,-65.72 -72.5,0.67 -113.14,30.49 -128.72,76.56 -15.59,46.07 -6.1,108.41 56.23,163.97 62.32,55.55 177.51,104.33 287.95,125.34 110.42,21 216.13,14.23 323.19,-10.85 105.66,-24.74 212.62,-67.29 272.07,-95.11 12.46,12.87 24.99,25.68 37.66,38.34 171.97,171.96 362.6,325.23 568.57,456.6 -95.97,0.03 -204.24,2.47 -285.47,11.44 -122.64,13.56 -183.62,42.01 -218.85,90.12 -35.23,48.1 -44.73,115.84 -25.75,159.88 18.97,44.05 66.4,64.37 136.86,71.82 70.46,7.46 163.97,2.05 278.47,-44.03 106.49,-42.85 231.14,-120.87 308.56,-174.63 475.36,259.87 1020.76,407.61 1600.67,407.61 318.94,0 627.43,-44.71 919.6,-128.15 26.4,44.77 64.69,105.91 111.66,164.14 50.8,63.02 111.77,122.64 170.72,163.29 58.94,40.65 115.85,62.33 164.63,48.78 48.78,-13.55 89.44,-62.33 100.29,-115.18 10.83,-52.84 -8.13,-109.77 -81.3,-170.07 -67.69,-55.78 -181.76,-114.45 -268.73,-154.05 473.6,-167.88 898.12,-439.49 1246.2,-787.57zm-763.76 258.94c-307.54,187.96 -650.67,323.4 -1016.97,393.7 -3.75,-5.2 11.03,-13.61 62.04,-34.87 73.17,-30.48 220.86,-87.39 321.82,-174.8 100.95,-87.39 155.15,-205.28 137.54,-273.04 -17.62,-67.76 -107.05,-85.37 -214.78,-21.68 -107.73,63.69 -233.75,208.68 -315.04,302.85 -81.31,94.18 -117.91,137.54 -173.46,163.95 -55.56,26.43 -130.08,35.92 -208.67,52.18 -51.11,10.57 -103.94,24.01 -152.15,40.31 -13.2,0.17 -26.41,0.25 -39.64,0.25 -255.38,0 -503.49,-31.21 -740.71,-89.97 -1.98,-41.46 -9.38,-96.54 -22.6,-161.76 -19.65,-96.89 -52.17,-216.13 -113.82,-330.64 -61.66,-114.5 -152.45,-224.24 -243.24,-278.45 -90.78,-54.2 -181.57,-52.85 -226.96,14.89 -45.4,67.76 -45.4,201.92 15.58,344.19 41.64,97.18 111.76,198.15 184.6,280.26 -262.49,-105.8 -507.02,-246.76 -727.71,-417.13 1.41,-31.78 0.48,-71.81 -3.2,-122.83 -10.17,-140.92 -41.33,-365.88 -87.41,-500.71 -46.07,-134.82 -107.04,-179.53 -161.24,-200.54 -54.21,-21 -101.64,-18.3 -140.25,-0.67 -38.63,17.62 -68.45,50.13 -76.58,102.29 -8.12,52.18 5.43,124.01 60.31,245.28 27.95,61.73 66.59,136.3 105.05,209.55 -551.71,-555.14 -892.66,-1320.04 -892.66,-2164.6 0,-848.02 343.72,-1615.74 899.4,-2171.44 555.68,-555.68 1323.44,-899.42 2171.44,-899.42 287.41,0 565.56,39.52 829.4,113.36 -12.88,42.51 10.51,95.97 58.81,138.7 52.84,46.75 135.5,80.61 242.56,86.04 74.23,3.76 160.19,-6.16 232.12,-19.84 148.47,73.64 290.13,158.99 423.78,254.76 -99.34,-25.22 -216.46,-51.9 -315.12,-72.31 -137.54,-28.45 -239.16,-44.72 -308.27,-35.24 -69.11,9.49 -105.71,44.72 -111.11,102.31 -5.43,57.6 20.31,137.54 97.56,189.7 77.24,52.18 205.96,76.58 392.96,84.03 185.65,7.4 428.72,-1.91 551.56,-16.63 26.17,24.4 51.9,49.25 77.19,74.54 176.08,176.07 330.84,373.44 460.15,587.91 -128.52,-62.79 -288.77,-130.98 -419.49,-157.33 -168.03,-33.88 -287.27,1.35 -330.63,67.74 -43.36,66.41 -10.85,163.97 78.59,250.69 89.44,86.73 235.78,162.62 410.58,197.85 157.21,31.68 337.43,30.48 449.01,6.26 161.6,373.51 251.21,785.44 251.21,1218.32 0,848.02 -343.72,1615.74 -899.42,2171.43 -87.83,87.83 -180.97,170.37 -278.89,247.07 -1.54,-9.67 -3.44,-18.94 -5.59,-27.81 -12.2,-50.13 -32.51,-86.72 -73.17,-90.11 -40.65,-3.38 -101.63,26.44 -147.7,115.86 -28.8,55.91 -51.79,135.13 -66.78,205.55z"/>
 </g>
</svg>
