<?xml version="1.0" encoding="UTF-8"?>
<!DOCTYPE svg PUBLIC "-//W3C//DTD SVG 1.1//EN" "http://www.w3.org/Graphics/SVG/1.1/DTD/svg11.dtd">
<!-- Creator: CorelDRAW 2020 (64-Bit) -->
<svg xmlns="http://www.w3.org/2000/svg" xml:space="preserve" width="210mm" height="297mm" version="1.1" shape-rendering="geometricPrecision" text-rendering="geometricPrecision" image-rendering="optimizeQuality" fill-rule="evenodd" clip-rule="evenodd"
viewBox="0 0 21000 29700"
 xmlns:xlink="http://www.w3.org/1999/xlink"
 xmlns:xodm="http://www.corel.com/coreldraw/odm/2003">
 <g id="Capa_x0020_1">
  <metadata id="CorelCorpID_0Corel-Layer"/>
  <path id="aro_x0020_9.svg" fill="#A2662E" d="M20621.1 16672.05c-96.08,-0.17 -195.94,-4.47 -289.72,-12.73 2.47,-10.45 4.23,-21.98 5.09,-35.69 2.2,-36.67 -2.28,-89.34 -16.09,-146.59 -13.87,-57.3 -37.14,-119.11 -79.25,-170.65 -42.12,-51.57 -103.03,-92.82 -154.54,-100.25 -51.56,-7.48 -93.63,18.91 -103.58,63.58 -10,44.67 12.17,107.63 42.67,168.93 30.46,61.24 69.21,120.83 87.5,162.65 5.48,12.46 9.1,23.37 10.95,33.14 -87.94,-13.41 -174.74,-30.39 -260.27,-50.65 1.76,-4.16 2.92,-8.16 3.88,-12.31 4.42,-18.91 5.51,-40.63 3.31,-90.44 -2.21,-49.81 -7.74,-127.74 -20.46,-191.26 -12.76,-63.59 -32.71,-112.83 -72.61,-143.17 -39.91,-30.39 -99.71,-41.82 -143.49,-24.62 -43.76,17.14 -71.46,62.96 -59.25,131.68 12.17,68.73 64.23,160.36 85.29,214.22 12.06,30.81 13.92,49.25 5.13,62.24 -129.36,-39.48 -255.35,-86.76 -377.47,-141.25 6.73,-12.62 7.29,-28.88 7.79,-56.2 1.1,-59.58 2.21,-171.79 -9.96,-252.51 -12.2,-80.77 -37.69,-130.02 -76.43,-161.5 -38.8,-31.53 -90.91,-45.24 -124.13,-36.1 -33.28,9.14 -47.65,41.24 -49.86,107.68 -2.26,66.39 7.74,167.21 -1.11,223.37 -2.76,17.5 -7.38,30.7 -13.71,40.88 -59,-33.14 -116.89,-68.1 -173.64,-104.66 8.3,-5.21 9.4,-9.1 10.61,-14.13 2.77,-11.48 6.08,-28.63 4.98,-106.5 -1.11,-77.92 -6.64,-216.5 -25.49,-305.85 -18.84,-89.36 -50.95,-129.4 -93.62,-146.6 -42.66,-17.19 -95.89,-11.43 -128.55,4.05 -32.67,15.43 -44.88,40.63 -46.54,105.92 -1.66,65.29 7.24,170.64 10,229.09 0.86,17.55 1.05,30.9 0.35,41.19 -82.37,-65.66 -161.47,-135.27 -237.21,-208.41 13.53,-12.16 15.19,-32.98 16.9,-70.48 3.32,-73.88 6.62,-212.42 0.54,-309.19 -6.12,-96.78 -21.6,-151.79 -47.08,-189.55 -25.49,-37.82 -60.96,-58.44 -93.63,-53.87 -32.67,4.57 -62.61,34.39 -74.22,99.69 -11.67,65.23 -4.98,166.06 -13.27,222.16 -3.87,26.13 -11.01,42.55 -20.86,53.25 -56.84,-67.37 -111.02,-137.03 -162.43,-208.92 6.38,-11.43 14.63,-29.2 26.44,-57.35 28.8,-68.73 78.7,-199.32 94.79,-294.95 16.03,-95.64 -1.72,-156.3 -31.62,-190.65 -29.95,-34.38 -72.01,-42.43 -108.55,-32.66 -36.58,9.71 -67.65,37.19 -86.44,95.06 -18.84,57.81 -25.53,146.01 -33.82,196.4 -4.12,24.78 -8.54,40.41 -13.32,50.81 -39.25,-65.83 -76.29,-133.14 -111.01,-201.81 18.85,-46.6 43.12,-125.25 59.15,-193.14 17.69,-75.06 25.48,-136.88 21.61,-188.41 -3.92,-51.58 -19.45,-92.77 -47.7,-121.4 -28.28,-28.68 -69.25,-44.68 -97.49,-37.24 -28.3,7.42 -43.78,38.39 -62.06,88.78 -9.8,26.95 -20.36,59.47 -30.21,89.49 -24.73,-67.94 -47.29,-136.92 -67.64,-206.84 29.75,-58.28 79.85,-159.94 113.77,-240.57 34.88,-83.06 52.62,-143.78 50.41,-196.46 -2.21,-52.66 -24.38,-97.34 -59.8,-122.53 -35.49,-25.19 -84.28,-30.96 -118.61,-11.49 -34.37,19.49 -54.27,64.16 -75.33,127.17l-5.12 15.48c-25.43,-166.38 -38.6,-336.76 -38.6,-510.26 0,-91.99 3.77,-183.1 11,-273.23 31.62,44.93 72.03,107.74 113.03,150.95 54.28,57.24 109.65,80.16 148.45,59.53 38.8,-20.62 60.96,-84.72 52.12,-158.02 -8.9,-73.29 -48.8,-155.79 -96.44,-223.31 -47.64,-67.58 -103.07,-120.32 -150.72,-164.98l-18.94 -17.56c9.05,-47.79 19.15,-95.22 30.2,-142.28 11.46,16.93 23.32,33.04 34.63,45.76 24.92,28.05 47.09,39.48 69.8,42.39 22.71,2.86 45.99,-2.91 61.51,-16.05 15.48,-13.2 23.27,-33.82 26.58,-67.58 3.33,-33.82 2.22,-80.78 -6.08,-122.54 -8.33,-41.82 -23.81,-78.5 -57.04,-125.46 -12.55,-17.75 -27.69,-36.98 -44.36,-55.42 29.85,-88.77 63.26,-175.78 100.15,-261.03 15.43,47.54 36.64,109.4 56.64,152.68 23.83,51.52 45.99,76.71 74.23,84.77 28.24,8 62.61,-1.2 85.89,-26.39 23.26,-25.19 35.43,-66.39 36.03,-117.92 0.55,-51.58 -10.56,-113.39 -27.69,-174.11 -17.19,-60.73 -40.46,-120.27 -63.17,-165.51 -7.19,-14.29 -14.33,-27.17 -21.92,-38.6 38.15,-69.13 78.65,-136.77 121.42,-202.74 4.17,20.94 6.98,45.97 12.41,77.55 8.29,48.68 22.66,112.78 42.62,152.31 19.95,39.53 45.43,54.39 73.72,54.96 28.25,0.57 59.26,-13.14 81.97,-43.48 22.71,-30.38 37.14,-77.34 37.14,-137.45 0,-60.15 -14.43,-133.45 -32.66,-196.98 -15.84,-55 -34.53,-102.75 -51.87,-136.83 45.03,-58.02 91.92,-114.48 140.62,-169.34 1.71,29.67 3.62,63.43 7.08,95.95 6.64,63.01 18.8,121.4 44.88,159.21 26.03,37.82 65.88,54.96 100.25,46.39 34.33,-8.57 63.18,-42.96 78.15,-85.86 14.93,-42.96 16.04,-94.55 16.04,-142.65 0,-48.1 -1.11,-92.78 -7.19,-162.07 -3.56,-40.68 -8.85,-89.82 -22.16,-133.66 81.51,-76.15 166.94,-148.15 255.79,-215.78l1.81 39.06c3.32,64.73 11.11,172.35 24.98,231.94 13.82,59.53 33.77,71.01 63.17,75.58 29.35,4.57 68.1,2.29 94.73,-50.95 26.59,-53.3 40.97,-157.51 49.86,-251.43 8.14,-86.54 11.61,-164.3 9.5,-213.18 68.09,-42.76 137.85,-82.96 209.1,-120.72 -2.71,15.52 -5.37,31.53 -7.53,47 -7.24,52.1 -8.34,99.06 -2.76,143.17 5.52,44.11 17.69,85.3 34.87,105.92 17.19,20.62 39.35,20.62 59.86,10.34 20.51,-10.34 39.3,-30.96 68.69,-121.46 25.39,-78.32 58.71,-208.92 78.31,-296.09 119.25,-51.57 242.18,-96.25 368.16,-133.6 3.68,19.01 0.96,42.07 -14.87,85.55 -21.06,57.82 -65.38,151.74 -67.04,211.89 -1.66,60.1 39.3,86.5 79.76,88.78 40.45,2.28 80.3,-19.48 117.44,-87.64 37.14,-68.15 71.46,-182.69 84.23,-263.41 5.43,-34.29 6.94,-62.49 3.11,-88.11 78.46,-17.81 157.9,-32.82 238.36,-44.88 -3.41,9.98 -7.74,20.62 -13.21,32.16 -12.77,26.9 -31.57,59.01 -49.31,93.4 -17.73,34.34 -34.32,70.96 -37.08,104.2 -2.81,33.19 8.29,62.96 31.56,86.44 23.26,23.48 58.7,40.67 100.81,39.53 42.11,-1.15 90.86,-20.62 123.03,-92.2 32.11,-71.59 47.59,-195.32 52.61,-279.47l0.51 -8.52c92.26,-7.84 185.58,-11.9 279.86,-11.9 94.28,0 187.6,4.06 279.88,11.9l0.49 8.52c5.03,84.15 20.51,207.88 52.62,279.47 32.16,71.58 80.91,91.05 123.03,92.2 42.12,1.14 77.54,-16.05 100.81,-39.53 23.27,-23.48 34.38,-53.25 31.56,-86.44 -2.77,-33.24 -19.34,-69.86 -37.09,-104.2 -17.74,-34.39 -36.53,-66.5 -49.3,-93.4 -5.48,-11.54 -9.8,-22.18 -13.22,-32.16 80.46,12.06 159.92,27.07 238.36,44.88 -3.81,25.62 -2.31,53.82 3.12,88.11 12.76,80.72 47.09,195.26 84.23,263.41 37.14,68.16 76.99,89.92 117.44,87.64 40.46,-2.28 81.42,-28.68 79.76,-88.78 -1.66,-60.15 -45.98,-154.07 -67.04,-211.89 -15.83,-43.48 -18.54,-66.54 -14.88,-85.55 126,37.35 248.92,82.03 368.17,133.6 19.61,87.17 52.93,217.77 78.3,296.09 29.4,90.5 48.2,111.12 68.7,121.46 20.51,10.28 42.67,10.28 59.85,-10.34 17.2,-20.62 29.35,-61.81 34.88,-105.92 5.58,-44.11 4.48,-91.07 -2.77,-143.17 -2.15,-15.47 -4.81,-31.48 -7.53,-47 71.26,37.76 141.02,77.96 209.12,120.72 -2.11,48.88 1.35,126.64 9.49,213.18 8.9,93.92 23.27,198.13 49.85,251.43 26.64,53.24 65.39,55.52 94.73,50.95 29.4,-4.57 49.36,-16.05 63.18,-75.58 13.87,-59.59 21.66,-167.21 24.97,-231.94l1.81 -39.06c88.85,67.63 174.29,139.63 255.8,215.78 -13.32,43.84 -18.6,92.98 -22.16,133.66 -6.08,69.29 -7.19,113.97 -7.19,162.07 0,48.1 1.11,99.69 16.03,142.65 14.98,42.9 43.82,77.29 78.15,85.86 34.38,8.57 74.23,-8.57 100.26,-46.39 26.09,-37.81 38.25,-96.2 44.88,-159.21 3.47,-32.52 5.38,-66.28 7.08,-95.95 48.7,54.86 95.59,111.32 140.62,169.34 -17.34,34.08 -36.03,81.83 -51.87,136.83 -18.24,63.53 -32.66,136.83 -32.66,196.98 0,60.11 14.42,107.07 37.14,137.45 22.72,30.34 53.72,44.05 81.96,43.48 28.3,-0.57 53.77,-15.43 73.72,-54.96 19.96,-39.53 34.33,-103.63 42.63,-152.31 5.43,-31.58 8.24,-56.61 12.41,-77.55 42.76,65.97 83.27,133.61 121.41,202.74 -7.59,11.43 -14.72,24.31 -21.9,38.6 -22.72,45.24 -45.99,104.78 -63.17,165.51 -17.14,60.72 -28.25,122.53 -27.69,174.11 0.6,51.53 12.76,92.73 36.02,117.92 23.28,25.19 57.65,34.39 85.89,26.39 28.25,-8.06 50.41,-33.25 74.23,-84.77 20,-43.28 41.2,-105.14 56.64,-152.68 36.88,85.25 70.31,172.26 100.16,261.03 -16.69,18.44 -31.81,37.67 -44.38,55.42 -33.21,46.96 -48.69,83.64 -57.04,125.46 -8.29,41.76 -9.4,88.72 -6.08,122.54 3.32,33.76 11.11,54.38 26.58,67.58 15.53,13.14 38.8,18.91 61.52,16.05 22.72,-2.91 44.87,-14.34 69.81,-42.39 11.3,-12.72 23.16,-28.83 34.62,-45.76 11.06,47.06 21.16,94.49 30.2,142.28l-18.95 17.56c-47.63,44.66 -103.07,97.4 -150.71,164.98 -47.65,67.52 -87.54,150.02 -96.44,223.31 -8.85,73.3 13.31,137.4 52.11,158.02 38.8,20.63 94.18,-2.29 148.46,-59.53 41.01,-43.21 81.41,-106.02 113.02,-150.95 7.24,90.13 11.01,181.24 11.01,273.23 0,173.5 -13.17,343.88 -38.6,510.26l-5.13 -15.48c-21.05,-63.01 -40.95,-107.68 -75.33,-127.17 -34.32,-19.47 -83.12,-13.7 -118.6,11.49 -35.43,25.19 -57.6,69.87 -59.81,122.53 -2.2,52.68 15.54,113.4 50.41,196.46 33.93,80.63 84.03,182.29 113.78,240.57 -20.35,69.92 -42.92,138.9 -67.64,206.84 -9.85,-30.02 -20.4,-62.54 -30.2,-89.49 -18.3,-50.39 -33.78,-81.36 -62.08,-88.78 -28.24,-7.44 -69.19,8.56 -97.49,37.24 -28.24,28.63 -43.77,69.82 -47.69,121.4 -3.87,51.53 3.92,113.35 21.61,188.41 16.03,67.89 40.3,146.54 59.15,193.14 -34.73,68.67 -71.77,135.98 -111.01,201.81 -4.77,-10.4 -9.2,-26.03 -13.32,-50.81 -8.29,-50.39 -14.97,-138.59 -33.82,-196.4 -18.79,-57.87 -49.86,-85.35 -86.44,-95.06 -36.54,-9.77 -78.6,-1.72 -108.56,32.66 -29.9,34.35 -47.63,95.01 -31.6,190.65 16.08,95.63 65.98,226.22 94.77,294.95 11.82,28.15 20.06,45.92 26.44,57.35 -51.41,71.89 -105.58,141.55 -162.42,208.92 -9.85,-10.7 -16.99,-27.12 -20.86,-53.25 -8.29,-56.1 -1.61,-156.93 -13.27,-222.16 -11.61,-65.3 -41.56,-95.12 -74.22,-99.69 -32.67,-4.57 -68.15,16.05 -93.63,53.87 -25.48,37.76 -40.96,92.77 -47.09,189.55 -6.08,96.77 -2.76,235.31 0.56,309.19 1.7,37.5 3.36,58.32 16.89,70.48 -75.75,73.14 -154.85,142.75 -237.22,208.41 -0.7,-10.29 -0.49,-23.64 0.36,-41.19 2.77,-58.45 11.66,-163.8 10,-229.09 -1.66,-65.29 -13.87,-90.49 -46.53,-105.92 -32.67,-15.48 -85.89,-21.24 -128.56,-4.05 -42.67,17.2 -74.78,57.24 -93.63,146.6 -18.84,89.35 -24.37,227.93 -25.47,305.85 -1.11,77.87 2.21,95.02 4.97,106.5 1.2,5.03 2.31,8.92 10.61,14.13 -56.74,36.56 -114.64,71.52 -173.64,104.66 -6.33,-10.18 -10.95,-23.38 -13.72,-40.88 -8.84,-56.16 1.16,-156.98 -1.1,-223.37 -2.22,-66.44 -16.59,-98.54 -49.86,-107.68 -33.22,-9.14 -85.33,4.57 -124.13,36.1 -38.75,31.48 -64.22,80.73 -76.43,161.5 -12.17,80.72 -11.06,192.93 -9.95,252.51 0.49,27.32 1.05,43.58 7.79,56.2 -122.12,54.49 -248.12,101.77 -377.48,141.25 -8.79,-12.99 -6.93,-31.43 5.13,-62.24 21.06,-53.86 73.12,-145.49 85.28,-214.22 12.21,-68.72 -15.48,-114.54 -59.24,-131.68 -43.78,-17.2 -103.58,-5.77 -143.49,24.62 -39.9,30.34 -59.84,79.58 -72.62,143.17 -12.71,63.52 -18.24,141.45 -20.45,191.26 -2.21,49.81 -1.11,71.53 3.32,90.44 0.95,4.15 2.11,8.15 3.87,12.31 -85.54,20.26 -172.32,37.24 -260.27,50.65 1.86,-9.77 5.47,-20.68 10.96,-33.14 18.29,-41.82 57.03,-101.41 87.48,-162.65 30.51,-61.3 52.68,-124.26 42.67,-168.93 -9.95,-44.67 -52.01,-71.06 -103.57,-63.58 -51.52,7.43 -112.43,48.68 -154.54,100.25 -42.11,51.54 -65.38,113.35 -79.25,170.65 -13.82,57.25 -18.3,109.92 -16.08,146.59 0.85,13.71 2.61,25.24 5.08,35.69 -93.78,8.26 -188.62,12.56 -284.5,12.73l-0.65 0 -0.9 0 -2.11 0 -0.91 0 -0.66 0zm-1178.28 -63.9c-63.73,24.62 -113.63,58.96 -123.03,105.34 -9.44,46.39 21.62,104.83 64.28,126.03 42.67,21.13 96.95,5.14 176.2,-37.25 57.94,-31.01 129.25,-76.05 185.24,-114.64 90.56,24.15 182.48,44.62 275.8,61.29l-20.05 10.39c-48.19,24.62 -105.83,52.15 -127.39,103.11 -21.62,50.97 -7.25,125.4 20.5,162.07 27.69,36.62 68.65,35.49 134.03,-6.9 65.38,-42.39 155.14,-125.97 207.25,-185.5 15.72,-17.98 28.04,-33.71 37.84,-47.79 112.57,11.47 231.93,17.45 347.61,17.6l1.46 0 2.32 0 1.45 0c115.58,-0.15 229.81,-6.13 342.39,-17.6 9.79,14.08 22.11,29.81 37.85,47.79 52.1,59.53 141.86,143.11 207.24,185.5 65.39,42.39 106.34,43.52 134.03,6.9 27.74,-36.67 42.12,-111.1 20.51,-162.07 -21.56,-50.96 -79.2,-78.49 -127.4,-103.11l-20.05 -10.39c93.32,-16.67 185.24,-37.14 275.8,-61.29 55.98,38.59 127.29,83.63 185.24,114.64 79.25,42.39 133.53,58.38 176.2,37.25 42.67,-21.2 73.72,-79.64 64.27,-126.03 -9.4,-46.38 -59.3,-80.72 -123.02,-105.34 -7.55,-2.91 -15.18,-5.66 -23.02,-8.31 108.05,-39.17 213.53,-83.63 316.25,-133.13 65.49,29.03 146.05,62.64 209.82,86.48 93.68,34.91 151.27,48.62 191.17,26.34 39.91,-22.34 62.07,-80.78 50.41,-128.31 -11.61,-47.53 -57.04,-84.15 -108.05,-108.77 -21.51,-10.4 -43.92,-18.65 -65.94,-25.61 60.26,-36.26 119.26,-74.44 177.05,-114.23 91.72,27.58 214.5,62.02 298.32,80.25 108.05,23.49 151.27,20.05 178.96,-12.56 27.74,-32.68 39.9,-94.49 24.93,-138.03 -14.93,-43.52 -57.04,-68.72 -100.82,-83.58 -43.77,-14.91 -89.2,-19.53 -136.29,-26.39l-22.26 -3.43c86.69,-71.84 169.76,-147.78 248.96,-227.72l20.51 -20.94c97.39,3.06 226.05,3.58 307.91,-0.42 105.84,-5.19 133.53,-17.77 149.01,-50.95 15.53,-33.25 18.9,-87.12 2.26,-122.6 -16.63,-35.53 -53.17,-52.67 -93.63,-61.24 -40.45,-8.62 -84.77,-8.62 -128.55,-8.62l-20.85 0c53.41,-66.28 104.48,-134.59 152.98,-204.83 61.3,1.51 148.05,2.75 213.58,-0.16 77.04,-3.48 124.68,-12.61 155.69,-44.66 31.06,-32.11 45.43,-87.12 33.22,-123.74 -12.16,-36.67 -50.91,-54.96 -95.23,-62.38 -44.33,-7.49 -94.23,-4.01 -135.25,-2.29l-24.82 0.87c34.02,-58.75 66.39,-118.59 96.99,-179.47 50.21,-1.97 121.62,-6.02 195.29,-20.1 89.76,-17.19 182.84,-49.29 241.54,-90.48 58.74,-41.25 83.12,-91.69 69.25,-129.45 -13.82,-37.82 -65.89,-63.02 -134.04,-72.73 -68.14,-9.76 -152.32,-4 -201.67,0l-33.17 2.85c31.26,-81.08 59.56,-163.68 84.78,-247.62l8.89 -2.64c62.63,-18.92 181.22,-56.68 254.35,-80.73 73.12,-24.05 100.86,-34.39 124.13,-48.11 23.27,-13.76 42.06,-30.9 47.04,-65.24 5.02,-34.39 -3.87,-85.97 -26.04,-115.74 -22.16,-29.75 -57.59,-37.81 -95.83,-34.33 -38.24,3.43 -79.2,18.28 -118.01,36.05 -38.79,17.76 -75.33,38.39 -98.59,48.72 -14.27,6.35 -23.57,8.74 -30.15,8.53 18.89,-86.13 34.57,-173.56 46.98,-261.97 2.36,-1.92 10.3,-8.99 47.99,-40.51 45.44,-37.92 134.09,-111.27 196.15,-176.52 62.07,-65.3 97.5,-122.59 111.92,-179.84 14.43,-57.24 7.74,-114.53 -14.42,-147.73 -22.17,-33.18 -59.8,-42.38 -105.24,-26.33 -45.42,16.05 -98.64,57.25 -138.55,83.58 -27.89,18.43 -49.29,29.55 -64.17,40.1l0.24 -40.36c0,-103.53 -4.52,-206.07 -13.37,-307.31 40.41,22.28 101.93,49.86 161.53,49.86 64.27,0 126.34,-32.05 130.76,-82.43 4.48,-50.44 -48.74,-119.11 -117.44,-186.69 -68.7,-67.59 -152.92,-134.02 -214.99,-148.88 -4.27,-1.04 -8.4,-1.82 -12.47,-2.34 -15.33,-77.66 -33.17,-154.38 -53.52,-230.06 8.19,-4.53 17.64,-4.94 32.87,-2.6 22.16,3.42 56.53,12.62 103.63,27.53 47.08,14.86 106.89,35.48 154.53,37.19 47.69,1.72 83.12,-15.43 100.86,-43.47 17.74,-28.12 17.74,-67.02 6.08,-98.5 -11.61,-31.53 -34.87,-55.58 -92.52,-83.06 -57.59,-27.48 -149.56,-58.44 -221.02,-76.15 -64.78,-16.1 -112.73,-21.41 -159.11,-2.6 -32.82,-93.81 -69.55,-185.76 -109.96,-275.63 12.92,3.07 27.64,7.38 44.07,12.47 42.68,13.15 97,31.48 147.4,39.53 50.41,8 96.95,5.72 132.38,-13.19 35.48,-18.91 59.91,-54.39 59.91,-93.92 0,-39.53 -24.43,-83.06 -68.21,-115.68 -43.77,-32.68 -106.89,-54.44 -166.74,-67.01 -59.81,-12.63 -116.34,-16.05 -172.33,-17.77 -35.98,-1.09 -71.71,-1.5 -102.97,2.5 -42.12,-76.32 -86.99,-150.8 -134.53,-223.37 17.39,1.19 37.19,4.83 60.25,7.84 39.35,5.14 88.1,8.58 135.74,2.29 47.65,-6.34 94.18,-22.34 120.22,-48.11 26.03,-25.76 31.6,-61.29 17.18,-93.34 -14.43,-32.05 -48.75,-60.73 -109.16,-76.15 -60.4,-15.48 -146.79,-17.77 -221.62,-18.34 -64.17,-0.46 -119.76,0.27 -159.46,5.61 -49.31,-63.79 -100.72,-125.76 -154.24,-185.86 39.61,5.77 91.63,12.83 135.85,14.18 57.64,1.72 101.97,-6.34 132.97,-32.11 31.06,-25.76 48.75,-69.29 42.12,-115.67 -6.64,-46.39 -37.7,-95.64 -101.97,-119.69 -64.23,-24.05 -161.77,-22.91 -252.09,-18.91 -72.36,3.22 -140.06,8.31 -188.3,36.1 -78.4,-72.67 -160.22,-141.76 -245.1,-206.9 36.19,-5.08 85.18,-6.49 138.71,-13.61 55.98,-7.43 116.89,-21.19 150.11,-52.68 33.27,-31.47 38.8,-80.76 19.4,-109.39 -19.4,-28.62 -63.72,-36.67 -123.02,-36.1 -59.26,0.57 -133.49,9.76 -217.71,20.67 -68.8,8.89 -144.28,18.91 -198.01,28.84 -91.21,-58.81 -185.44,-113.35 -282.28,-163.32l13.82 -3.53c45.43,-11.49 126.29,-32.11 181.12,-53.31 54.88,-21.19 83.72,-42.95 101.41,-76.15 17.74,-33.24 24.43,-77.86 6.13,-105.34 -18.29,-27.54 -61.5,-37.82 -116.94,-30.39 -55.39,7.43 -122.97,32.62 -201.11,62.44 -78.11,29.76 -166.76,64.1 -213.84,83.58 -6.64,2.75 -12.47,5.19 -17.5,7.64 -93.07,-38.91 -188.15,-73.77 -285.15,-104.47 54.43,-32.88 139.51,-72.15 191.83,-108.72 54.88,-38.38 73.67,-73.92 74.78,-105.39 1.11,-31.49 -15.48,-59.02 -46.54,-72.73 -31,-13.77 -76.44,-13.77 -118.55,-4.57 -42.11,9.14 -80.86,27.43 -145.13,72.09 -57.45,39.9 -135.24,100.94 -186.3,155.53 -96.04,-23.01 -193.68,-41.92 -292.74,-56.56 10.25,-15.9 26.64,-33.82 54.63,-54.81 46.54,-34.96 125.23,-78.48 178.41,-120.88 53.16,-42.38 80.91,-83.58 84.22,-120.2 3.32,-36.67 -17.74,-68.78 -55.43,-80.78 -37.64,-12.04 -91.96,-3.99 -149.05,17.77 -57.05,21.72 -116.85,57.25 -171.73,109.35 -54.83,52.1 -104.73,120.82 -132.42,177.55 -8.04,16.46 -14.17,31.89 -18.75,47.58 -95.53,-8.11 -192.23,-12.32 -289.87,-12.32 -97.64,0 -194.33,4.21 -289.86,12.32 -4.57,-15.69 -10.71,-31.12 -18.76,-47.58 -27.68,-56.73 -77.58,-125.45 -132.41,-177.55 -54.88,-52.1 -114.69,-87.63 -171.72,-109.35 -57.09,-21.76 -111.42,-29.81 -149.06,-17.77 -37.7,12 -58.75,44.11 -55.44,80.78 3.32,36.62 31.06,77.82 84.23,120.2 53.17,42.4 131.88,85.92 178.41,120.88 27.99,20.99 44.37,38.91 54.62,54.81 -99.04,14.64 -196.69,33.55 -292.73,56.56 -51.06,-54.59 -128.86,-115.63 -186.29,-155.53 -64.28,-44.66 -103.02,-62.95 -145.14,-72.09 -42.11,-9.2 -87.55,-9.2 -118.56,4.57 -31.06,13.71 -47.63,41.24 -46.53,72.73 1.11,31.47 19.9,67.01 74.77,105.39 52.32,36.57 137.41,75.84 191.84,108.72 -97,30.7 -192.08,65.56 -285.15,104.47 -5.03,-2.45 -10.86,-4.89 -17.49,-7.64 -47.1,-19.48 -135.74,-53.82 -213.84,-83.58 -78.15,-29.82 -145.74,-55.01 -201.12,-62.44 -55.43,-7.43 -98.65,2.85 -116.95,30.39 -18.29,27.48 -11.61,72.1 6.13,105.34 17.69,33.2 46.54,54.96 101.42,76.15 54.83,21.2 135.69,41.82 181.12,53.31l13.82 3.53c-96.85,49.97 -191.07,104.51 -282.28,163.32 -53.73,-9.93 -129.21,-19.95 -198.01,-28.84 -84.22,-10.91 -158.46,-20.1 -217.71,-20.67 -59.3,-0.57 -103.62,7.48 -123.02,36.1 -19.4,28.63 -13.87,77.92 19.4,109.39 33.21,31.49 94.13,45.25 150.11,52.68 53.52,7.12 102.52,8.53 138.7,13.61 -84.87,65.14 -166.69,134.23 -245.09,206.9 -48.25,-27.79 -115.94,-32.88 -188.31,-36.1 -90.3,-4 -187.85,-5.14 -252.08,18.91 -64.28,24.05 -95.33,73.3 -101.96,119.69 -6.64,46.38 11.05,89.91 42.11,115.67 31.01,25.77 75.33,33.83 132.97,32.11 44.22,-1.35 96.25,-8.41 135.84,-14.18 -53.52,60.1 -104.93,122.07 -154.23,185.86 -39.7,-5.34 -95.28,-6.07 -159.46,-5.61 -74.83,0.57 -161.22,2.86 -221.63,18.34 -60.41,15.42 -94.73,44.1 -109.15,76.15 -14.43,32.05 -8.84,67.58 17.19,93.34 26.03,25.77 72.57,41.77 120.2,48.11 47.65,6.29 96.4,2.85 135.75,-2.29 23.07,-3.01 42.87,-6.65 60.26,-7.84 -47.54,72.57 -92.43,147.05 -134.53,223.37 -31.26,-4 -67,-3.59 -102.99,-2.5 -55.98,1.72 -112.52,5.14 -172.32,17.77 -59.85,12.57 -122.97,34.33 -166.75,67.01 -43.77,32.62 -68.19,76.15 -68.19,115.68 0,39.53 24.42,75.01 59.9,93.92 35.43,18.91 81.97,21.19 132.37,13.19 50.41,-8.05 104.74,-26.38 147.41,-39.53 16.42,-5.09 31.15,-9.4 44.06,-12.47 -40.4,89.87 -77.14,181.82 -109.95,275.63 -46.39,-18.81 -94.33,-13.5 -159.11,2.6 -71.46,17.71 -163.43,48.67 -221.02,76.15 -57.64,27.48 -80.91,51.53 -92.53,83.06 -11.65,31.48 -11.65,70.38 6.09,98.5 17.74,28.04 53.17,45.19 100.86,43.47 47.65,-1.71 107.44,-22.33 154.54,-37.19 47.09,-14.91 81.46,-24.11 103.63,-27.53 15.22,-2.34 24.67,-1.93 32.86,2.6 -20.35,75.68 -38.19,152.4 -53.52,230.06 -4.07,0.52 -8.19,1.3 -12.47,2.34 -62.06,14.86 -146.29,81.29 -214.99,148.88 -68.7,67.58 -121.92,136.25 -117.45,186.69 4.43,50.38 66.49,82.43 130.77,82.43 59.6,0 121.11,-27.58 161.52,-49.86 -8.84,101.24 -13.37,203.78 -13.37,307.31l0.25 40.36c-14.87,-10.55 -36.28,-21.67 -64.18,-40.1 -39.89,-26.33 -93.11,-67.53 -138.55,-83.58 -45.42,-16.05 -83.07,-6.85 -105.24,26.33 -22.16,33.2 -28.84,90.49 -14.41,147.73 14.41,57.25 49.85,114.54 111.91,179.84 62.07,65.25 150.72,138.6 196.15,176.52 37.69,31.52 45.63,38.59 47.99,40.51 12.42,88.41 28.09,175.84 46.99,261.97 -6.58,0.21 -15.87,-2.18 -30.14,-8.53 -23.28,-10.33 -59.82,-30.96 -98.61,-48.72 -38.8,-17.77 -79.75,-32.62 -118,-36.05 -38.24,-3.48 -73.68,4.58 -95.84,34.33 -22.15,29.77 -31.06,81.35 -26.03,115.74 4.97,34.34 23.78,51.48 47.04,65.24 23.27,13.72 51.01,24.06 124.13,48.11 73.12,24.05 191.72,61.81 254.34,80.73l8.9 2.64c25.23,83.94 53.52,166.54 84.78,247.62l-33.17 -2.85c-49.35,-4 -133.52,-9.76 -201.67,0 -68.15,9.71 -120.21,34.91 -134.04,72.73 -13.86,37.76 10.51,88.2 69.26,129.45 58.7,41.19 151.77,73.29 241.52,90.48 73.67,14.08 145.09,18.13 195.29,20.1 30.61,60.88 62.98,120.72 97,179.47l-24.83 -0.87c-41.01,-1.72 -90.91,-5.2 -135.23,2.29 -44.33,7.42 -83.07,25.71 -95.24,62.38 -12.21,36.62 2.17,91.63 33.22,123.74 31,32.05 78.65,41.18 155.69,44.66 65.54,2.91 152.27,1.67 213.59,0.16 48.49,70.24 99.55,138.55 152.97,204.83l-20.86 0c-43.76,0 -88.09,0 -128.54,8.62 -40.46,8.57 -76.99,25.71 -93.63,61.24 -16.63,35.48 -13.27,89.35 2.26,122.6 15.47,33.18 43.17,45.76 149,50.95 81.87,4 210.53,3.48 307.92,0.42l20.5 20.94c79.2,79.94 162.28,155.88 248.97,227.72l-22.26 3.43c-47.09,6.86 -92.52,11.48 -136.3,26.39 -43.77,14.86 -85.88,40.06 -100.81,83.58 -14.97,43.54 -2.81,105.35 24.93,138.03 27.69,32.61 70.91,36.05 178.96,12.56 83.83,-18.23 206.6,-52.67 298.31,-80.25 57.8,39.79 116.8,77.97 177.05,114.23 -22.01,6.96 -44.42,15.21 -65.93,25.61 -51.01,24.62 -96.45,61.24 -108.06,108.77 -11.65,47.53 10.52,105.97 50.42,128.31 39.9,22.28 97.49,8.57 191.17,-26.34 63.77,-23.84 144.34,-57.45 209.81,-86.48 102.72,49.5 208.21,93.96 316.26,133.13 -7.84,2.65 -15.48,5.4 -23.02,8.31z"/>
 </g>
</svg>
